<?xml version="1.0" encoding="UTF-8" standalone="no"?><svg xmlns="http://www.w3.org/2000/svg" xmlns:xlink="http://www.w3.org/1999/xlink" contentStyleType="text/css" height="205px" preserveAspectRatio="none" style="width:180px;height:205px;background:#FFFFFF;" version="1.1" viewBox="0 0 180 205" width="180px" zoomAndPan="magnify"><defs/><g><!--MD5=[6d25146a7a1f4cf5f1a1df6c180e80e2]
class DeathUIManager--><g id="elem_DeathUIManager"><rect codeLine="1" fill="#F1F1F1" height="83.2188" id="DeathUIManager" rx="2.5" ry="2.5" style="stroke:#181818;stroke-width:0.5;" width="166" x="7" y="115"/><ellipse cx="34.6" cy="131" fill="#ADD1B2" rx="11" ry="11" style="stroke:#181818;stroke-width:1.0;"/><path d="M37.3656,126.875 Q37.5219,126.6563 37.7094,126.5469 Q37.8969,126.4375 38.1156,126.4375 Q38.4906,126.4375 38.725,126.7031 Q38.9594,126.9531 38.9594,127.5625 L38.9594,129.0156 Q38.9594,129.625 38.725,129.8906 Q38.4906,130.1563 38.1156,130.1563 Q37.7719,130.1563 37.5688,129.9531 Q37.3656,129.7656 37.2563,129.25 Q37.2094,128.8906 37.0219,128.7031 Q36.6938,128.3281 36.0844,128.1094 Q35.475,127.8906 34.85,127.8906 Q34.0844,127.8906 33.4438,128.2188 Q32.8188,128.5469 32.3188,129.2969 Q31.8344,130.0469 31.8344,131.0781 L31.8344,132.1719 Q31.8344,133.4063 32.725,134.2344 Q33.6156,135.0469 35.2094,135.0469 Q36.1469,135.0469 36.8031,134.7969 Q37.1938,134.6406 37.6156,134.2031 Q37.8813,133.9375 38.0219,133.8594 Q38.1781,133.7813 38.3813,133.7813 Q38.7094,133.7813 38.9594,134.0469 Q39.225,134.2969 39.225,134.6406 Q39.225,134.9844 38.8813,135.3906 Q38.3813,135.9688 37.5844,136.2969 Q36.5063,136.75 35.2094,136.75 Q33.6938,136.75 32.4906,136.125 Q31.5063,135.625 30.8188,134.5625 Q30.1313,133.4844 30.1313,132.2031 L30.1313,131.0469 Q30.1313,129.7188 30.7406,128.5781 Q31.3656,127.4219 32.4594,126.8125 Q33.5531,126.1875 34.7875,126.1875 Q35.5219,126.1875 36.1625,126.3594 Q36.8188,126.5156 37.3656,126.875 Z " fill="#000000"/><text fill="#000000" font-family="sans-serif" font-size="14" lengthAdjust="spacing" textLength="106" x="51.4" y="136.7285">DeathUIManager</text><line style="stroke:#181818;stroke-width:0.5;" x1="8" x2="172" y1="147" y2="147"/><line style="stroke:#181818;stroke-width:0.5;" x1="8" x2="172" y1="155" y2="155"/><ellipse cx="18" cy="166" fill="#84BE84" rx="3" ry="3" style="stroke:#038048;stroke-width:1.0;"/><text fill="#000000" font-family="sans-serif" font-size="14" lengthAdjust="spacing" textLength="140" x="27" y="173.5332">rejoinTheFight() : void</text><ellipse cx="18" cy="183.6094" fill="#84BE84" rx="3" ry="3" style="stroke:#038048;stroke-width:1.0;"/><text fill="#000000" font-family="sans-serif" font-size="14" lengthAdjust="spacing" textLength="110" x="27" y="191.1426">surrender() : void</text></g><!--MD5=[83b3cf3d23d77c6f1e1b5291a241bc2a]
class MonoBehaviour--><g id="elem_MonoBehaviour"><rect fill="#F1F1F1" height="48" id="MonoBehaviour" rx="2.5" ry="2.5" style="stroke:#181818;stroke-width:0.5;" width="131" x="24.5" y="7"/><ellipse cx="39.5" cy="23" fill="#ADD1B2" rx="11" ry="11" style="stroke:#181818;stroke-width:1.0;"/><path d="M42.2656,18.875 Q42.4219,18.6563 42.6094,18.5469 Q42.7969,18.4375 43.0156,18.4375 Q43.3906,18.4375 43.625,18.7031 Q43.8594,18.9531 43.8594,19.5625 L43.8594,21.0156 Q43.8594,21.625 43.625,21.8906 Q43.3906,22.1563 43.0156,22.1563 Q42.6719,22.1563 42.4688,21.9531 Q42.2656,21.7656 42.1563,21.25 Q42.1094,20.8906 41.9219,20.7031 Q41.5938,20.3281 40.9844,20.1094 Q40.375,19.8906 39.75,19.8906 Q38.9844,19.8906 38.3438,20.2188 Q37.7188,20.5469 37.2188,21.2969 Q36.7344,22.0469 36.7344,23.0781 L36.7344,24.1719 Q36.7344,25.4063 37.625,26.2344 Q38.5156,27.0469 40.1094,27.0469 Q41.0469,27.0469 41.7031,26.7969 Q42.0938,26.6406 42.5156,26.2031 Q42.7813,25.9375 42.9219,25.8594 Q43.0781,25.7813 43.2813,25.7813 Q43.6094,25.7813 43.8594,26.0469 Q44.125,26.2969 44.125,26.6406 Q44.125,26.9844 43.7813,27.3906 Q43.2813,27.9688 42.4844,28.2969 Q41.4063,28.75 40.1094,28.75 Q38.5938,28.75 37.3906,28.125 Q36.4063,27.625 35.7188,26.5625 Q35.0313,25.4844 35.0313,24.2031 L35.0313,23.0469 Q35.0313,21.7188 35.6406,20.5781 Q36.2656,19.4219 37.3594,18.8125 Q38.4531,18.1875 39.6875,18.1875 Q40.4219,18.1875 41.0625,18.3594 Q41.7188,18.5156 42.2656,18.875 Z " fill="#000000"/><text fill="#000000" font-family="sans-serif" font-size="14" lengthAdjust="spacing" textLength="99" x="53.5" y="28.7285">MonoBehaviour</text><line style="stroke:#181818;stroke-width:0.5;" x1="25.5" x2="154.5" y1="39" y2="39"/><line style="stroke:#181818;stroke-width:0.5;" x1="25.5" x2="154.5" y1="47" y2="47"/></g><!--MD5=[8374501ae38ff65c2b1dfc555e90f87b]
reverse link MonoBehaviour to DeathUIManager--><g id="link_MonoBehaviour_DeathUIManager"><path codeLine="5" d="M90,75.31 C90,88.16 90,102.19 90,114.87 " fill="none" id="MonoBehaviour-backto-DeathUIManager" style="stroke:#181818;stroke-width:1.0;"/><polygon fill="none" points="83,75.23,90,55.23,97,75.23,83,75.23" style="stroke:#181818;stroke-width:1.0;"/></g><!--MD5=[62c5eae25b01460856f3cbf1dfb6bba4]
@startuml
class DeathUIManager {
    + rejoinTheFight() : void
    + surrender() : void
}
MonoBehaviour <|- - DeathUIManager
@enduml

PlantUML version 1.2022.5(Sat Apr 30 12:55:52 CEST 2022)
(GPL source distribution)
Java Runtime: Java(TM) SE Runtime Environment
JVM: Java HotSpot(TM) 64-Bit Server VM
Default Encoding: UTF-8
Language: en
Country: GB
--></g></svg>