<?xml version="1.0" encoding="UTF-8" standalone="no"?><svg xmlns="http://www.w3.org/2000/svg" xmlns:xlink="http://www.w3.org/1999/xlink" contentStyleType="text/css" height="313px" preserveAspectRatio="none" style="width:191px;height:313px;background:#FFFFFF;" version="1.1" viewBox="0 0 191 313" width="191px" zoomAndPan="magnify"><defs/><g><!--MD5=[1aabaf5fa6e31f3a18a745f313976557]
class PlayerNetworking--><g id="elem_PlayerNetworking"><rect codeLine="1" fill="#F1F1F1" height="83.2188" id="PlayerNetworking" rx="2.5" ry="2.5" style="stroke:#181818;stroke-width:0.5;" width="141" x="43.8" y="115"/><ellipse cx="58.8" cy="131" fill="#ADD1B2" rx="11" ry="11" style="stroke:#181818;stroke-width:1.0;"/><path d="M61.5656,126.875 Q61.7219,126.6563 61.9094,126.5469 Q62.0969,126.4375 62.3156,126.4375 Q62.6906,126.4375 62.925,126.7031 Q63.1594,126.9531 63.1594,127.5625 L63.1594,129.0156 Q63.1594,129.625 62.925,129.8906 Q62.6906,130.1563 62.3156,130.1563 Q61.9719,130.1563 61.7688,129.9531 Q61.5656,129.7656 61.4563,129.25 Q61.4094,128.8906 61.2219,128.7031 Q60.8938,128.3281 60.2844,128.1094 Q59.675,127.8906 59.05,127.8906 Q58.2844,127.8906 57.6438,128.2188 Q57.0188,128.5469 56.5188,129.2969 Q56.0344,130.0469 56.0344,131.0781 L56.0344,132.1719 Q56.0344,133.4063 56.925,134.2344 Q57.8156,135.0469 59.4094,135.0469 Q60.3469,135.0469 61.0031,134.7969 Q61.3938,134.6406 61.8156,134.2031 Q62.0813,133.9375 62.2219,133.8594 Q62.3781,133.7813 62.5813,133.7813 Q62.9094,133.7813 63.1594,134.0469 Q63.425,134.2969 63.425,134.6406 Q63.425,134.9844 63.0813,135.3906 Q62.5813,135.9688 61.7844,136.2969 Q60.7063,136.75 59.4094,136.75 Q57.8938,136.75 56.6906,136.125 Q55.7063,135.625 55.0188,134.5625 Q54.3313,133.4844 54.3313,132.2031 L54.3313,131.0469 Q54.3313,129.7188 54.9406,128.5781 Q55.5656,127.4219 56.6594,126.8125 Q57.7531,126.1875 58.9875,126.1875 Q59.7219,126.1875 60.3625,126.3594 Q61.0188,126.5156 61.5656,126.875 Z " fill="#000000"/><text fill="#000000" font-family="sans-serif" font-size="14" lengthAdjust="spacing" textLength="109" x="72.8" y="136.7285">PlayerNetworking</text><line style="stroke:#181818;stroke-width:0.5;" x1="44.8" x2="183.8" y1="147" y2="147"/><line style="stroke:#181818;stroke-width:0.5;" x1="44.8" x2="183.8" y1="155" y2="155"/><rect fill="#F24D5C" height="6" style="stroke:#C82930;stroke-width:1.0;" width="6" x="51.8" y="163"/><text fill="#000000" font-family="sans-serif" font-size="14" lengthAdjust="spacing" textLength="78" x="63.8" y="173.5332">Start() : void</text><text fill="#000000" font-family="sans-serif" font-size="14" lengthAdjust="spacing" textLength="93" x="63.8" y="191.1426">Update() : void</text></g><!--MD5=[83b3cf3d23d77c6f1e1b5291a241bc2a]
class MonoBehaviour--><g id="elem_MonoBehaviour"><rect fill="#F1F1F1" height="48" id="MonoBehaviour" rx="2.5" ry="2.5" style="stroke:#181818;stroke-width:0.5;" width="131" x="48.8" y="7"/><ellipse cx="63.8" cy="23" fill="#ADD1B2" rx="11" ry="11" style="stroke:#181818;stroke-width:1.0;"/><path d="M66.5656,18.875 Q66.7219,18.6563 66.9094,18.5469 Q67.0969,18.4375 67.3156,18.4375 Q67.6906,18.4375 67.925,18.7031 Q68.1594,18.9531 68.1594,19.5625 L68.1594,21.0156 Q68.1594,21.625 67.925,21.8906 Q67.6906,22.1563 67.3156,22.1563 Q66.9719,22.1563 66.7688,21.9531 Q66.5656,21.7656 66.4563,21.25 Q66.4094,20.8906 66.2219,20.7031 Q65.8938,20.3281 65.2844,20.1094 Q64.675,19.8906 64.05,19.8906 Q63.2844,19.8906 62.6438,20.2188 Q62.0188,20.5469 61.5188,21.2969 Q61.0344,22.0469 61.0344,23.0781 L61.0344,24.1719 Q61.0344,25.4063 61.925,26.2344 Q62.8156,27.0469 64.4094,27.0469 Q65.3469,27.0469 66.0031,26.7969 Q66.3938,26.6406 66.8156,26.2031 Q67.0813,25.9375 67.2219,25.8594 Q67.3781,25.7813 67.5813,25.7813 Q67.9094,25.7813 68.1594,26.0469 Q68.425,26.2969 68.425,26.6406 Q68.425,26.9844 68.0813,27.3906 Q67.5813,27.9688 66.7844,28.2969 Q65.7063,28.75 64.4094,28.75 Q62.8938,28.75 61.6906,28.125 Q60.7063,27.625 60.0188,26.5625 Q59.3313,25.4844 59.3313,24.2031 L59.3313,23.0469 Q59.3313,21.7188 59.9406,20.5781 Q60.5656,19.4219 61.6594,18.8125 Q62.7531,18.1875 63.9875,18.1875 Q64.7219,18.1875 65.3625,18.3594 Q66.0188,18.5156 66.5656,18.875 Z " fill="#000000"/><text fill="#000000" font-family="sans-serif" font-size="14" lengthAdjust="spacing" textLength="99" x="77.8" y="28.7285">MonoBehaviour</text><line style="stroke:#181818;stroke-width:0.5;" x1="49.8" x2="178.8" y1="39" y2="39"/><line style="stroke:#181818;stroke-width:0.5;" x1="49.8" x2="178.8" y1="47" y2="47"/></g><!--MD5=[004b1d6c4ca8aad4ba8b586a335ed4f3]
class Transform--><g id="elem_Transform"><rect fill="#F1F1F1" height="48" id="Transform" rx="2.5" ry="2.5" style="stroke:#181818;stroke-width:0.5;" width="97" x="65.8" y="258"/><ellipse cx="80.8" cy="274" fill="#ADD1B2" rx="11" ry="11" style="stroke:#181818;stroke-width:1.0;"/><path d="M83.5656,269.875 Q83.7219,269.6563 83.9094,269.5469 Q84.0969,269.4375 84.3156,269.4375 Q84.6906,269.4375 84.925,269.7031 Q85.1594,269.9531 85.1594,270.5625 L85.1594,272.0156 Q85.1594,272.625 84.925,272.8906 Q84.6906,273.1563 84.3156,273.1563 Q83.9719,273.1563 83.7688,272.9531 Q83.5656,272.7656 83.4563,272.25 Q83.4094,271.8906 83.2219,271.7031 Q82.8938,271.3281 82.2844,271.1094 Q81.675,270.8906 81.05,270.8906 Q80.2844,270.8906 79.6438,271.2188 Q79.0188,271.5469 78.5188,272.2969 Q78.0344,273.0469 78.0344,274.0781 L78.0344,275.1719 Q78.0344,276.4063 78.925,277.2344 Q79.8156,278.0469 81.4094,278.0469 Q82.3469,278.0469 83.0031,277.7969 Q83.3938,277.6406 83.8156,277.2031 Q84.0813,276.9375 84.2219,276.8594 Q84.3781,276.7813 84.5813,276.7813 Q84.9094,276.7813 85.1594,277.0469 Q85.425,277.2969 85.425,277.6406 Q85.425,277.9844 85.0813,278.3906 Q84.5813,278.9688 83.7844,279.2969 Q82.7063,279.75 81.4094,279.75 Q79.8938,279.75 78.6906,279.125 Q77.7063,278.625 77.0188,277.5625 Q76.3313,276.4844 76.3313,275.2031 L76.3313,274.0469 Q76.3313,272.7188 76.9406,271.5781 Q77.5656,270.4219 78.6594,269.8125 Q79.7531,269.1875 80.9875,269.1875 Q81.7219,269.1875 82.3625,269.3594 Q83.0188,269.5156 83.5656,269.875 Z " fill="#000000"/><text fill="#000000" font-family="sans-serif" font-size="14" lengthAdjust="spacing" textLength="65" x="94.8" y="279.7285">Transform</text><line style="stroke:#181818;stroke-width:0.5;" x1="66.8" x2="161.8" y1="290" y2="290"/><line style="stroke:#181818;stroke-width:0.5;" x1="66.8" x2="161.8" y1="298" y2="298"/></g><!--MD5=[65c2dae8df21e49d8675d33aa341a0d4]
reverse link MonoBehaviour to PlayerNetworking--><g id="link_MonoBehaviour_PlayerNetworking"><path codeLine="5" d="M114.3,75.31 C114.3,88.16 114.3,102.19 114.3,114.87 " fill="none" id="MonoBehaviour-backto-PlayerNetworking" style="stroke:#181818;stroke-width:1.0;"/><polygon fill="none" points="107.3,75.23,114.3,55.23,121.3,75.23,107.3,75.23" style="stroke:#181818;stroke-width:1.0;"/></g><!--MD5=[b66219f3b7ca9d17fd107e5b9b93921c]
link PlayerNetworking to Transform--><g id="link_PlayerNetworking_Transform"><path codeLine="6" d="M114.3,198.28 C114.3,216.08 114.3,236.52 114.3,252.63 " fill="none" id="PlayerNetworking-to-Transform" style="stroke:#181818;stroke-width:1.0;"/><polygon fill="#181818" points="114.3,257.91,118.3,248.91,114.3,252.91,110.3,248.91,114.3,257.91" style="stroke:#181818;stroke-width:1.0;"/><text fill="#000000" font-family="sans-serif" font-size="13" lengthAdjust="spacing" textLength="96" x="6" y="247.2271">aircraftTransform</text></g><!--MD5=[cf9b3c1c9991308a7e3776585417cec7]
@startuml
class PlayerNetworking {
    - Start() : void
    Update() : void
}
MonoBehaviour <|- - PlayerNetworking
PlayerNetworking - -> "aircraftTransform" Transform
@enduml

PlantUML version 1.2022.5(Sat Apr 30 12:55:52 CEST 2022)
(GPL source distribution)
Java Runtime: Java(TM) SE Runtime Environment
JVM: Java HotSpot(TM) 64-Bit Server VM
Default Encoding: UTF-8
Language: en
Country: GB
--></g></svg>