<?xml version="1.0" encoding="UTF-8" standalone="no"?><svg xmlns="http://www.w3.org/2000/svg" xmlns:xlink="http://www.w3.org/1999/xlink" contentStyleType="text/css" height="722px" preserveAspectRatio="none" style="width:1763px;height:722px;background:#FFFFFF;" version="1.1" viewBox="0 0 1763 722" width="1763px" zoomAndPan="magnify"><defs/><g><!--MD5=[df154ee4b90ebc49b88988b5e254c496]
class @Controls--><g id="elem_@Controls"><rect codeLine="1" fill="#F1F1F1" height="252.4063" id="@Controls" rx="2.5" ry="2.5" style="stroke:#181818;stroke-width:0.5;" width="467" x="1009.9192" y="115"/><ellipse cx="1205.6692" cy="136.3516" fill="#ADD1B2" rx="11" ry="11" style="stroke:#181818;stroke-width:1.0;"/><path d="M1208.4348,132.2266 Q1208.5911,132.0078 1208.7786,131.8984 Q1208.9661,131.7891 1209.1848,131.7891 Q1209.5598,131.7891 1209.7942,132.0547 Q1210.0286,132.3047 1210.0286,132.9141 L1210.0286,134.3672 Q1210.0286,134.9766 1209.7942,135.2422 Q1209.5598,135.5078 1209.1848,135.5078 Q1208.8411,135.5078 1208.6379,135.3047 Q1208.4348,135.1172 1208.3254,134.6016 Q1208.2786,134.2422 1208.0911,134.0547 Q1207.7629,133.6797 1207.1536,133.4609 Q1206.5442,133.2422 1205.9192,133.2422 Q1205.1536,133.2422 1204.5129,133.5703 Q1203.8879,133.8984 1203.3879,134.6484 Q1202.9036,135.3984 1202.9036,136.4297 L1202.9036,137.5234 Q1202.9036,138.7578 1203.7942,139.5859 Q1204.6848,140.3984 1206.2786,140.3984 Q1207.2161,140.3984 1207.8723,140.1484 Q1208.2629,139.9922 1208.6848,139.5547 Q1208.9504,139.2891 1209.0911,139.2109 Q1209.2473,139.1328 1209.4504,139.1328 Q1209.7786,139.1328 1210.0286,139.3984 Q1210.2942,139.6484 1210.2942,139.9922 Q1210.2942,140.3359 1209.9504,140.7422 Q1209.4504,141.3203 1208.6536,141.6484 Q1207.5754,142.1016 1206.2786,142.1016 Q1204.7629,142.1016 1203.5598,141.4766 Q1202.5754,140.9766 1201.8879,139.9141 Q1201.2004,138.8359 1201.2004,137.5547 L1201.2004,136.3984 Q1201.2004,135.0703 1201.8098,133.9297 Q1202.4348,132.7734 1203.5286,132.1641 Q1204.6223,131.5391 1205.8567,131.5391 Q1206.5911,131.5391 1207.2317,131.7109 Q1207.8879,131.8672 1208.4348,132.2266 Z " fill="#000000"/><text fill="#000000" font-family="sans-serif" font-size="12" font-style="italic" lengthAdjust="spacing" textLength="48" x="1235.6692" y="132.457">«partial»</text><text fill="#000000" font-family="sans-serif" font-size="14" lengthAdjust="spacing" textLength="67" x="1226.1692" y="149.627">@Controls</text><line style="stroke:#181818;stroke-width:0.5;" x1="1010.9192" x2="1475.9192" y1="157.7031" y2="157.7031"/><ellipse cx="1020.9192" cy="168.7031" fill="none" rx="3" ry="3" style="stroke:#038048;stroke-width:1.0;"/><text fill="#000000" font-family="sans-serif" font-size="14" lengthAdjust="spacing" textLength="256" x="1029.9192" y="176.2363">bindingMask : InputBinding? «get» «set»</text><ellipse cx="1020.9192" cy="186.3125" fill="none" rx="3" ry="3" style="stroke:#038048;stroke-width:1.0;"/><text fill="#000000" font-family="sans-serif" font-size="14" lengthAdjust="spacing" textLength="334" x="1029.9192" y="193.8457">devices : ReadOnlyArray&lt;InputDevice&gt;? «get» «set»</text><line style="stroke:#181818;stroke-width:0.5;" x1="1010.9192" x2="1475.9192" y1="200.9219" y2="200.9219"/><ellipse cx="1020.9192" cy="211.9219" fill="#84BE84" rx="3" ry="3" style="stroke:#038048;stroke-width:1.0;"/><text fill="#000000" font-family="sans-serif" font-size="14" lengthAdjust="spacing" textLength="77" x="1029.9192" y="219.4551">@Controls()</text><ellipse cx="1020.9192" cy="229.5313" fill="#84BE84" rx="3" ry="3" style="stroke:#038048;stroke-width:1.0;"/><text fill="#000000" font-family="sans-serif" font-size="14" lengthAdjust="spacing" textLength="99" x="1029.9192" y="237.0645">Dispose() : void</text><ellipse cx="1020.9192" cy="247.1406" fill="#84BE84" rx="3" ry="3" style="stroke:#038048;stroke-width:1.0;"/><text fill="#000000" font-family="sans-serif" font-size="14" lengthAdjust="spacing" textLength="217" x="1029.9192" y="254.6738">Contains(action:InputAction) : bool</text><ellipse cx="1020.9192" cy="264.75" fill="#84BE84" rx="3" ry="3" style="stroke:#038048;stroke-width:1.0;"/><text fill="#000000" font-family="sans-serif" font-size="14" lengthAdjust="spacing" textLength="282" x="1029.9192" y="272.2832">GetEnumerator() : IEnumerator&lt;InputAction&gt;</text><text fill="#000000" font-family="sans-serif" font-size="14" lengthAdjust="spacing" textLength="196" x="1029.9192" y="289.8926">GetEnumerator() : IEnumerator</text><ellipse cx="1020.9192" cy="299.9688" fill="#84BE84" rx="3" ry="3" style="stroke:#038048;stroke-width:1.0;"/><text fill="#000000" font-family="sans-serif" font-size="14" lengthAdjust="spacing" textLength="92" x="1029.9192" y="307.502">Enable() : void</text><ellipse cx="1020.9192" cy="317.5781" fill="#84BE84" rx="3" ry="3" style="stroke:#038048;stroke-width:1.0;"/><text fill="#000000" font-family="sans-serif" font-size="14" lengthAdjust="spacing" textLength="95" x="1029.9192" y="325.1113">Disable() : void</text><ellipse cx="1020.9192" cy="335.1875" fill="#84BE84" rx="3" ry="3" style="stroke:#038048;stroke-width:1.0;"/><text fill="#000000" font-family="sans-serif" font-size="14" lengthAdjust="spacing" textLength="441" x="1029.9192" y="342.7207">FindAction(actionNameOrId:string, throwIfNotFound:bool) : InputAction</text><ellipse cx="1020.9192" cy="352.7969" fill="#84BE84" rx="3" ry="3" style="stroke:#038048;stroke-width:1.0;"/><text fill="#000000" font-family="sans-serif" font-size="14" lengthAdjust="spacing" textLength="393" x="1029.9192" y="360.3301">FindBinding(bindingMask:InputBinding, action:InputAction) : int</text></g><!--MD5=[ca7af697e2afe71fb3a5f4a422583352]
class ReadOnlyArray`1--><g id="elem_ReadOnlyArray`1"><rect codeLine="14" fill="#F1F1F1" height="48" id="ReadOnlyArray`1" rx="2.5" ry="2.5" style="stroke:#181818;stroke-width:0.5;" width="153" x="159.9192" y="485"/><ellipse cx="174.9192" cy="501" fill="#ADD1B2" rx="11" ry="11" style="stroke:#181818;stroke-width:1.0;"/><path d="M177.6848,496.875 Q177.8411,496.6563 178.0286,496.5469 Q178.2161,496.4375 178.4348,496.4375 Q178.8098,496.4375 179.0442,496.7031 Q179.2786,496.9531 179.2786,497.5625 L179.2786,499.0156 Q179.2786,499.625 179.0442,499.8906 Q178.8098,500.1563 178.4348,500.1563 Q178.0911,500.1563 177.8879,499.9531 Q177.6848,499.7656 177.5754,499.25 Q177.5286,498.8906 177.3411,498.7031 Q177.0129,498.3281 176.4036,498.1094 Q175.7942,497.8906 175.1692,497.8906 Q174.4036,497.8906 173.7629,498.2188 Q173.1379,498.5469 172.6379,499.2969 Q172.1536,500.0469 172.1536,501.0781 L172.1536,502.1719 Q172.1536,503.4063 173.0442,504.2344 Q173.9348,505.0469 175.5286,505.0469 Q176.4661,505.0469 177.1223,504.7969 Q177.5129,504.6406 177.9348,504.2031 Q178.2004,503.9375 178.3411,503.8594 Q178.4973,503.7813 178.7004,503.7813 Q179.0286,503.7813 179.2786,504.0469 Q179.5442,504.2969 179.5442,504.6406 Q179.5442,504.9844 179.2004,505.3906 Q178.7004,505.9688 177.9036,506.2969 Q176.8254,506.75 175.5286,506.75 Q174.0129,506.75 172.8098,506.125 Q171.8254,505.625 171.1379,504.5625 Q170.4504,503.4844 170.4504,502.2031 L170.4504,501.0469 Q170.4504,499.7188 171.0598,498.5781 Q171.6848,497.4219 172.7786,496.8125 Q173.8723,496.1875 175.1067,496.1875 Q175.8411,496.1875 176.4817,496.3594 Q177.1379,496.5156 177.6848,496.875 Z " fill="#000000"/><text fill="#000000" font-family="sans-serif" font-size="14" lengthAdjust="spacing" textLength="110" x="188.9192" y="506.7285">ReadOnlyArray`1</text><rect fill="#FFFFFF" height="17.0938" style="stroke:#000000;stroke-width:1.0;stroke-dasharray:2.0,2.0;" width="9" x="306.9192" y="482"/><text fill="#000000" font-family="sans-serif" font-size="12" font-style="italic" lengthAdjust="spacing" textLength="7" x="307.9192" y="495.457">T</text><line style="stroke:#181818;stroke-width:0.5;" x1="160.9192" x2="311.9192" y1="517" y2="517"/><line style="stroke:#181818;stroke-width:0.5;" x1="160.9192" x2="311.9192" y1="525" y2="525"/></g><!--MD5=[6fcf91f8cf9ffbe80305b00d1b111ce3]
class IEnumerable`1--><g id="elem_IEnumerable`1"><rect codeLine="16" fill="#F1F1F1" height="48" id="IEnumerable`1" rx="2.5" ry="2.5" style="stroke:#181818;stroke-width:0.5;" width="135" x="347.9192" y="485"/><ellipse cx="362.9192" cy="501" fill="#ADD1B2" rx="11" ry="11" style="stroke:#181818;stroke-width:1.0;"/><path d="M365.6848,496.875 Q365.8411,496.6563 366.0286,496.5469 Q366.2161,496.4375 366.4348,496.4375 Q366.8098,496.4375 367.0442,496.7031 Q367.2786,496.9531 367.2786,497.5625 L367.2786,499.0156 Q367.2786,499.625 367.0442,499.8906 Q366.8098,500.1563 366.4348,500.1563 Q366.0911,500.1563 365.8879,499.9531 Q365.6848,499.7656 365.5754,499.25 Q365.5286,498.8906 365.3411,498.7031 Q365.0129,498.3281 364.4036,498.1094 Q363.7942,497.8906 363.1692,497.8906 Q362.4036,497.8906 361.7629,498.2188 Q361.1379,498.5469 360.6379,499.2969 Q360.1536,500.0469 360.1536,501.0781 L360.1536,502.1719 Q360.1536,503.4063 361.0442,504.2344 Q361.9348,505.0469 363.5286,505.0469 Q364.4661,505.0469 365.1223,504.7969 Q365.5129,504.6406 365.9348,504.2031 Q366.2004,503.9375 366.3411,503.8594 Q366.4973,503.7813 366.7004,503.7813 Q367.0286,503.7813 367.2786,504.0469 Q367.5442,504.2969 367.5442,504.6406 Q367.5442,504.9844 367.2004,505.3906 Q366.7004,505.9688 365.9036,506.2969 Q364.8254,506.75 363.5286,506.75 Q362.0129,506.75 360.8098,506.125 Q359.8254,505.625 359.1379,504.5625 Q358.4504,503.4844 358.4504,502.2031 L358.4504,501.0469 Q358.4504,499.7188 359.0598,498.5781 Q359.6848,497.4219 360.7786,496.8125 Q361.8723,496.1875 363.1067,496.1875 Q363.8411,496.1875 364.4817,496.3594 Q365.1379,496.5156 365.6848,496.875 Z " fill="#000000"/><text fill="#000000" font-family="sans-serif" font-size="14" lengthAdjust="spacing" textLength="92" x="376.9192" y="506.7285">IEnumerable`1</text><rect fill="#FFFFFF" height="17.0938" style="stroke:#000000;stroke-width:1.0;stroke-dasharray:2.0,2.0;" width="9" x="476.9192" y="482"/><text fill="#000000" font-family="sans-serif" font-size="12" font-style="italic" lengthAdjust="spacing" textLength="7" x="477.9192" y="495.457">T</text><line style="stroke:#181818;stroke-width:0.5;" x1="348.9192" x2="481.9192" y1="517" y2="517"/><line style="stroke:#181818;stroke-width:0.5;" x1="348.9192" x2="481.9192" y1="525" y2="525"/></g><!--MD5=[28f6863da38252644b78098ae4b58fa6]
class PlayerControlsActions--><g id="elem_PlayerControlsActions"><rect codeLine="18" fill="#F1F1F1" height="164.3594" id="PlayerControlsActions" rx="2.5" ry="2.5" style="stroke:#181818;stroke-width:0.5;" width="355" x="517.9192" y="427"/><ellipse cx="621.6692" cy="448.3516" fill="#ADD1B2" rx="11" ry="11" style="stroke:#181818;stroke-width:1.0;"/><path d="M624.4348,444.2266 Q624.5911,444.0078 624.7786,443.8984 Q624.9661,443.7891 625.1848,443.7891 Q625.5598,443.7891 625.7942,444.0547 Q626.0286,444.3047 626.0286,444.9141 L626.0286,446.3672 Q626.0286,446.9766 625.7942,447.2422 Q625.5598,447.5078 625.1848,447.5078 Q624.8411,447.5078 624.6379,447.3047 Q624.4348,447.1172 624.3254,446.6016 Q624.2786,446.2422 624.0911,446.0547 Q623.7629,445.6797 623.1536,445.4609 Q622.5442,445.2422 621.9192,445.2422 Q621.1536,445.2422 620.5129,445.5703 Q619.8879,445.8984 619.3879,446.6484 Q618.9036,447.3984 618.9036,448.4297 L618.9036,449.5234 Q618.9036,450.7578 619.7942,451.5859 Q620.6848,452.3984 622.2786,452.3984 Q623.2161,452.3984 623.8723,452.1484 Q624.2629,451.9922 624.6848,451.5547 Q624.9504,451.2891 625.0911,451.2109 Q625.2473,451.1328 625.4504,451.1328 Q625.7786,451.1328 626.0286,451.3984 Q626.2942,451.6484 626.2942,451.9922 Q626.2942,452.3359 625.9504,452.7422 Q625.4504,453.3203 624.6536,453.6484 Q623.5754,454.1016 622.2786,454.1016 Q620.7629,454.1016 619.5598,453.4766 Q618.5754,452.9766 617.8879,451.9141 Q617.2004,450.8359 617.2004,449.5547 L617.2004,448.3984 Q617.2004,447.0703 617.8098,445.9297 Q618.4348,444.7734 619.5286,444.1641 Q620.6223,443.5391 621.8567,443.5391 Q622.5911,443.5391 623.2317,443.7109 Q623.8879,443.8672 624.4348,444.2266 Z " fill="#000000"/><text fill="#000000" font-family="sans-serif" font-size="12" font-style="italic" lengthAdjust="spacing" textLength="43" x="690.1692" y="444.457">«struct»</text><text fill="#000000" font-family="sans-serif" font-size="14" lengthAdjust="spacing" textLength="139" x="642.1692" y="461.627">PlayerControlsActions</text><line style="stroke:#181818;stroke-width:0.5;" x1="518.9192" x2="871.9192" y1="469.7031" y2="469.7031"/><ellipse cx="528.9192" cy="480.7031" fill="none" rx="3" ry="3" style="stroke:#038048;stroke-width:1.0;"/><text fill="#000000" font-family="sans-serif" font-size="14" lengthAdjust="spacing" textLength="130" x="537.9192" y="488.2363">enabled : bool «get»</text><line style="stroke:#181818;stroke-width:0.5;" x1="518.9192" x2="871.9192" y1="495.3125" y2="495.3125"/><ellipse cx="528.9192" cy="506.3125" fill="#84BE84" rx="3" ry="3" style="stroke:#038048;stroke-width:1.0;"/><text fill="#000000" font-family="sans-serif" font-size="14" lengthAdjust="spacing" textLength="271" x="537.9192" y="513.8457">PlayerControlsActions(wrapper:@Controls)</text><ellipse cx="528.9192" cy="523.9219" fill="#84BE84" rx="3" ry="3" style="stroke:#038048;stroke-width:1.0;"/><text fill="#000000" font-family="sans-serif" font-size="14" lengthAdjust="spacing" textLength="142" x="537.9192" y="531.4551">Get() : InputActionMap</text><ellipse cx="528.9192" cy="541.5313" fill="#84BE84" rx="3" ry="3" style="stroke:#038048;stroke-width:1.0;"/><text fill="#000000" font-family="sans-serif" font-size="14" lengthAdjust="spacing" textLength="92" x="537.9192" y="549.0645">Enable() : void</text><ellipse cx="528.9192" cy="559.1406" fill="#84BE84" rx="3" ry="3" style="stroke:#038048;stroke-width:1.0;"/><text fill="#000000" font-family="sans-serif" font-size="14" lengthAdjust="spacing" textLength="95" x="537.9192" y="566.6738">Disable() : void</text><ellipse cx="528.9192" cy="576.75" fill="#84BE84" rx="3" ry="3" style="stroke:#038048;stroke-width:1.0;"/><text fill="#000000" font-family="sans-serif" font-size="14" lengthAdjust="spacing" textLength="329" x="537.9192" y="584.2832">SetCallbacks(instance:IPlayerControlsActions) : void</text></g><!--MD5=[a6b0e3399b240319abc247b5ae2533f0]
class IPlayerControlsActions--><g id="elem_IPlayerControlsActions"><rect codeLine="26" fill="#F1F1F1" height="136.0469" id="IPlayerControlsActions" rx="2.5" ry="2.5" style="stroke:#181818;stroke-width:0.5;" width="379" x="907.9192" y="441"/><ellipse cx="1021.6692" cy="457" fill="#B4A7E5" rx="11" ry="11" style="stroke:#181818;stroke-width:1.0;"/><path d="M1022.6223,453.6406 L1022.6223,460.2969 L1024.3411,460.2969 Q1024.9504,460.2969 1025.2161,460.5313 Q1025.4817,460.7656 1025.4817,461.1563 Q1025.4817,461.5313 1025.2161,461.7656 Q1024.9504,462 1024.3411,462 L1019.2004,462 Q1018.5911,462 1018.3254,461.7656 Q1018.0598,461.5313 1018.0598,461.1406 Q1018.0598,460.7656 1018.3254,460.5313 Q1018.5911,460.2969 1019.2004,460.2969 L1020.9192,460.2969 L1020.9192,453.6406 L1019.2004,453.6406 Q1018.5911,453.6406 1018.3254,453.4063 Q1018.0598,453.1719 1018.0598,452.7813 Q1018.0598,452.4063 1018.3254,452.1719 Q1018.5911,451.9375 1019.2004,451.9375 L1024.3411,451.9375 Q1024.9504,451.9375 1025.2161,452.1719 Q1025.4817,452.4063 1025.4817,452.7813 Q1025.4817,453.1719 1025.2161,453.4063 Q1024.9504,453.6406 1024.3411,453.6406 L1022.6223,453.6406 Z " fill="#000000"/><text fill="#000000" font-family="sans-serif" font-size="14" font-style="italic" lengthAdjust="spacing" textLength="143" x="1042.1692" y="462.7285">IPlayerControlsActions</text><line style="stroke:#181818;stroke-width:0.5;" x1="908.9192" x2="1285.9192" y1="473" y2="473"/><line style="stroke:#181818;stroke-width:0.5;" x1="908.9192" x2="1285.9192" y1="481" y2="481"/><text fill="#000000" font-family="sans-serif" font-size="14" lengthAdjust="spacing" textLength="357" x="913.9192" y="499.5332">OnMoveKeys(context:InputAction.CallbackContext) : void</text><text fill="#000000" font-family="sans-serif" font-size="14" lengthAdjust="spacing" textLength="367" x="913.9192" y="517.1426">OnMouseDelta(context:InputAction.CallbackContext) : void</text><text fill="#000000" font-family="sans-serif" font-size="14" lengthAdjust="spacing" textLength="325" x="913.9192" y="534.752">OnJump(context:InputAction.CallbackContext) : void</text><text fill="#000000" font-family="sans-serif" font-size="14" lengthAdjust="spacing" textLength="332" x="913.9192" y="552.3613">OnSneak(context:InputAction.CallbackContext) : void</text><text fill="#000000" font-family="sans-serif" font-size="14" lengthAdjust="spacing" textLength="329" x="913.9192" y="569.9707">OnShoot(context:InputAction.CallbackContext) : void</text></g><!--MD5=[c4cad755655c2693d7ab643319c583e1]
class IInputActionCollection2--><g id="elem_IInputActionCollection2"><rect fill="#F1F1F1" height="48" id="IInputActionCollection2" rx="2.5" ry="2.5" style="stroke:#181818;stroke-width:0.5;" width="175" x="1068.9192" y="7"/><ellipse cx="1083.9192" cy="23" fill="#ADD1B2" rx="11" ry="11" style="stroke:#181818;stroke-width:1.0;"/><path d="M1086.6848,18.875 Q1086.8411,18.6563 1087.0286,18.5469 Q1087.2161,18.4375 1087.4348,18.4375 Q1087.8098,18.4375 1088.0442,18.7031 Q1088.2786,18.9531 1088.2786,19.5625 L1088.2786,21.0156 Q1088.2786,21.625 1088.0442,21.8906 Q1087.8098,22.1563 1087.4348,22.1563 Q1087.0911,22.1563 1086.8879,21.9531 Q1086.6848,21.7656 1086.5754,21.25 Q1086.5286,20.8906 1086.3411,20.7031 Q1086.0129,20.3281 1085.4036,20.1094 Q1084.7942,19.8906 1084.1692,19.8906 Q1083.4036,19.8906 1082.7629,20.2188 Q1082.1379,20.5469 1081.6379,21.2969 Q1081.1536,22.0469 1081.1536,23.0781 L1081.1536,24.1719 Q1081.1536,25.4063 1082.0442,26.2344 Q1082.9348,27.0469 1084.5286,27.0469 Q1085.4661,27.0469 1086.1223,26.7969 Q1086.5129,26.6406 1086.9348,26.2031 Q1087.2004,25.9375 1087.3411,25.8594 Q1087.4973,25.7813 1087.7004,25.7813 Q1088.0286,25.7813 1088.2786,26.0469 Q1088.5442,26.2969 1088.5442,26.6406 Q1088.5442,26.9844 1088.2004,27.3906 Q1087.7004,27.9688 1086.9036,28.2969 Q1085.8254,28.75 1084.5286,28.75 Q1083.0129,28.75 1081.8098,28.125 Q1080.8254,27.625 1080.1379,26.5625 Q1079.4504,25.4844 1079.4504,24.2031 L1079.4504,23.0469 Q1079.4504,21.7188 1080.0598,20.5781 Q1080.6848,19.4219 1081.7786,18.8125 Q1082.8723,18.1875 1084.1067,18.1875 Q1084.8411,18.1875 1085.4817,18.3594 Q1086.1379,18.5156 1086.6848,18.875 Z " fill="#000000"/><text fill="#000000" font-family="sans-serif" font-size="14" lengthAdjust="spacing" textLength="143" x="1097.9192" y="28.7285">IInputActionCollection2</text><line style="stroke:#181818;stroke-width:0.5;" x1="1069.9192" x2="1242.9192" y1="39" y2="39"/><line style="stroke:#181818;stroke-width:0.5;" x1="1069.9192" x2="1242.9192" y1="47" y2="47"/></g><!--MD5=[fe50a4f6767356ff4dcdadb85ef8cbdd]
class IDisposable--><g id="elem_IDisposable"><rect fill="#F1F1F1" height="48" id="IDisposable" rx="2.5" ry="2.5" style="stroke:#181818;stroke-width:0.5;" width="105" x="1278.9192" y="7"/><ellipse cx="1293.9192" cy="23" fill="#ADD1B2" rx="11" ry="11" style="stroke:#181818;stroke-width:1.0;"/><path d="M1296.6848,18.875 Q1296.8411,18.6563 1297.0286,18.5469 Q1297.2161,18.4375 1297.4348,18.4375 Q1297.8098,18.4375 1298.0442,18.7031 Q1298.2786,18.9531 1298.2786,19.5625 L1298.2786,21.0156 Q1298.2786,21.625 1298.0442,21.8906 Q1297.8098,22.1563 1297.4348,22.1563 Q1297.0911,22.1563 1296.8879,21.9531 Q1296.6848,21.7656 1296.5754,21.25 Q1296.5286,20.8906 1296.3411,20.7031 Q1296.0129,20.3281 1295.4036,20.1094 Q1294.7942,19.8906 1294.1692,19.8906 Q1293.4036,19.8906 1292.7629,20.2188 Q1292.1379,20.5469 1291.6379,21.2969 Q1291.1536,22.0469 1291.1536,23.0781 L1291.1536,24.1719 Q1291.1536,25.4063 1292.0442,26.2344 Q1292.9348,27.0469 1294.5286,27.0469 Q1295.4661,27.0469 1296.1223,26.7969 Q1296.5129,26.6406 1296.9348,26.2031 Q1297.2004,25.9375 1297.3411,25.8594 Q1297.4973,25.7813 1297.7004,25.7813 Q1298.0286,25.7813 1298.2786,26.0469 Q1298.5442,26.2969 1298.5442,26.6406 Q1298.5442,26.9844 1298.2004,27.3906 Q1297.7004,27.9688 1296.9036,28.2969 Q1295.8254,28.75 1294.5286,28.75 Q1293.0129,28.75 1291.8098,28.125 Q1290.8254,27.625 1290.1379,26.5625 Q1289.4504,25.4844 1289.4504,24.2031 L1289.4504,23.0469 Q1289.4504,21.7188 1290.0598,20.5781 Q1290.6848,19.4219 1291.7786,18.8125 Q1292.8723,18.1875 1294.1067,18.1875 Q1294.8411,18.1875 1295.4817,18.3594 Q1296.1379,18.5156 1296.6848,18.875 Z " fill="#000000"/><text fill="#000000" font-family="sans-serif" font-size="14" lengthAdjust="spacing" textLength="73" x="1307.9192" y="28.7285">IDisposable</text><line style="stroke:#181818;stroke-width:0.5;" x1="1279.9192" x2="1382.9192" y1="39" y2="39"/><line style="stroke:#181818;stroke-width:0.5;" x1="1279.9192" x2="1382.9192" y1="47" y2="47"/></g><!--MD5=[65758da862cdb4292622ca08bd5e6eef]
class InputActionAsset--><g id="elem_InputActionAsset"><rect fill="#F1F1F1" height="48" id="InputActionAsset" rx="2.5" ry="2.5" style="stroke:#181818;stroke-width:0.5;" width="137" x="1321.9192" y="485"/><ellipse cx="1336.9192" cy="501" fill="#ADD1B2" rx="11" ry="11" style="stroke:#181818;stroke-width:1.0;"/><path d="M1339.6848,496.875 Q1339.8411,496.6563 1340.0286,496.5469 Q1340.2161,496.4375 1340.4348,496.4375 Q1340.8098,496.4375 1341.0442,496.7031 Q1341.2786,496.9531 1341.2786,497.5625 L1341.2786,499.0156 Q1341.2786,499.625 1341.0442,499.8906 Q1340.8098,500.1563 1340.4348,500.1563 Q1340.0911,500.1563 1339.8879,499.9531 Q1339.6848,499.7656 1339.5754,499.25 Q1339.5286,498.8906 1339.3411,498.7031 Q1339.0129,498.3281 1338.4036,498.1094 Q1337.7942,497.8906 1337.1692,497.8906 Q1336.4036,497.8906 1335.7629,498.2188 Q1335.1379,498.5469 1334.6379,499.2969 Q1334.1536,500.0469 1334.1536,501.0781 L1334.1536,502.1719 Q1334.1536,503.4063 1335.0442,504.2344 Q1335.9348,505.0469 1337.5286,505.0469 Q1338.4661,505.0469 1339.1223,504.7969 Q1339.5129,504.6406 1339.9348,504.2031 Q1340.2004,503.9375 1340.3411,503.8594 Q1340.4973,503.7813 1340.7004,503.7813 Q1341.0286,503.7813 1341.2786,504.0469 Q1341.5442,504.2969 1341.5442,504.6406 Q1341.5442,504.9844 1341.2004,505.3906 Q1340.7004,505.9688 1339.9036,506.2969 Q1338.8254,506.75 1337.5286,506.75 Q1336.0129,506.75 1334.8098,506.125 Q1333.8254,505.625 1333.1379,504.5625 Q1332.4504,503.4844 1332.4504,502.2031 L1332.4504,501.0469 Q1332.4504,499.7188 1333.0598,498.5781 Q1333.6848,497.4219 1334.7786,496.8125 Q1335.8723,496.1875 1337.1067,496.1875 Q1337.8411,496.1875 1338.4817,496.3594 Q1339.1379,496.5156 1339.6848,496.875 Z " fill="#000000"/><text fill="#000000" font-family="sans-serif" font-size="14" lengthAdjust="spacing" textLength="105" x="1350.9192" y="506.7285">InputActionAsset</text><line style="stroke:#181818;stroke-width:0.5;" x1="1322.9192" x2="1457.9192" y1="517" y2="517"/><line style="stroke:#181818;stroke-width:0.5;" x1="1322.9192" x2="1457.9192" y1="525" y2="525"/></g><!--MD5=[2bb33f4a88e824c77910eb7c516c2159]
class InputActionMap--><g id="elem_InputActionMap"><rect fill="#F1F1F1" height="48" id="InputActionMap" rx="2.5" ry="2.5" style="stroke:#181818;stroke-width:0.5;" width="129" x="1493.9192" y="485"/><ellipse cx="1508.9192" cy="501" fill="#ADD1B2" rx="11" ry="11" style="stroke:#181818;stroke-width:1.0;"/><path d="M1511.6848,496.875 Q1511.8411,496.6563 1512.0286,496.5469 Q1512.2161,496.4375 1512.4348,496.4375 Q1512.8098,496.4375 1513.0442,496.7031 Q1513.2786,496.9531 1513.2786,497.5625 L1513.2786,499.0156 Q1513.2786,499.625 1513.0442,499.8906 Q1512.8098,500.1563 1512.4348,500.1563 Q1512.0911,500.1563 1511.8879,499.9531 Q1511.6848,499.7656 1511.5754,499.25 Q1511.5286,498.8906 1511.3411,498.7031 Q1511.0129,498.3281 1510.4036,498.1094 Q1509.7942,497.8906 1509.1692,497.8906 Q1508.4036,497.8906 1507.7629,498.2188 Q1507.1379,498.5469 1506.6379,499.2969 Q1506.1536,500.0469 1506.1536,501.0781 L1506.1536,502.1719 Q1506.1536,503.4063 1507.0442,504.2344 Q1507.9348,505.0469 1509.5286,505.0469 Q1510.4661,505.0469 1511.1223,504.7969 Q1511.5129,504.6406 1511.9348,504.2031 Q1512.2004,503.9375 1512.3411,503.8594 Q1512.4973,503.7813 1512.7004,503.7813 Q1513.0286,503.7813 1513.2786,504.0469 Q1513.5442,504.2969 1513.5442,504.6406 Q1513.5442,504.9844 1513.2004,505.3906 Q1512.7004,505.9688 1511.9036,506.2969 Q1510.8254,506.75 1509.5286,506.75 Q1508.0129,506.75 1506.8098,506.125 Q1505.8254,505.625 1505.1379,504.5625 Q1504.4504,503.4844 1504.4504,502.2031 L1504.4504,501.0469 Q1504.4504,499.7188 1505.0598,498.5781 Q1505.6848,497.4219 1506.7786,496.8125 Q1507.8723,496.1875 1509.1067,496.1875 Q1509.8411,496.1875 1510.4817,496.3594 Q1511.1379,496.5156 1511.6848,496.875 Z " fill="#000000"/><text fill="#000000" font-family="sans-serif" font-size="14" lengthAdjust="spacing" textLength="97" x="1522.9192" y="506.7285">InputActionMap</text><line style="stroke:#181818;stroke-width:0.5;" x1="1494.9192" x2="1621.9192" y1="517" y2="517"/><line style="stroke:#181818;stroke-width:0.5;" x1="1494.9192" x2="1621.9192" y1="525" y2="525"/></g><!--MD5=[013b658a1d1982222fcba254b13a13cc]
class InputAction--><g id="elem_InputAction"><rect fill="#F1F1F1" height="48" id="InputAction" rx="2.5" ry="2.5" style="stroke:#181818;stroke-width:0.5;" width="102" x="1168.4192" y="651"/><ellipse cx="1183.4192" cy="667" fill="#ADD1B2" rx="11" ry="11" style="stroke:#181818;stroke-width:1.0;"/><path d="M1186.1848,662.875 Q1186.3411,662.6563 1186.5286,662.5469 Q1186.7161,662.4375 1186.9348,662.4375 Q1187.3098,662.4375 1187.5442,662.7031 Q1187.7786,662.9531 1187.7786,663.5625 L1187.7786,665.0156 Q1187.7786,665.625 1187.5442,665.8906 Q1187.3098,666.1563 1186.9348,666.1563 Q1186.5911,666.1563 1186.3879,665.9531 Q1186.1848,665.7656 1186.0754,665.25 Q1186.0286,664.8906 1185.8411,664.7031 Q1185.5129,664.3281 1184.9036,664.1094 Q1184.2942,663.8906 1183.6692,663.8906 Q1182.9036,663.8906 1182.2629,664.2188 Q1181.6379,664.5469 1181.1379,665.2969 Q1180.6536,666.0469 1180.6536,667.0781 L1180.6536,668.1719 Q1180.6536,669.4063 1181.5442,670.2344 Q1182.4348,671.0469 1184.0286,671.0469 Q1184.9661,671.0469 1185.6223,670.7969 Q1186.0129,670.6406 1186.4348,670.2031 Q1186.7004,669.9375 1186.8411,669.8594 Q1186.9973,669.7813 1187.2004,669.7813 Q1187.5286,669.7813 1187.7786,670.0469 Q1188.0442,670.2969 1188.0442,670.6406 Q1188.0442,670.9844 1187.7004,671.3906 Q1187.2004,671.9688 1186.4036,672.2969 Q1185.3254,672.75 1184.0286,672.75 Q1182.5129,672.75 1181.3098,672.125 Q1180.3254,671.625 1179.6379,670.5625 Q1178.9504,669.4844 1178.9504,668.2031 L1178.9504,667.0469 Q1178.9504,665.7188 1179.5598,664.5781 Q1180.1848,663.4219 1181.2786,662.8125 Q1182.3723,662.1875 1183.6067,662.1875 Q1184.3411,662.1875 1184.9817,662.3594 Q1185.6379,662.5156 1186.1848,662.875 Z " fill="#000000"/><text fill="#000000" font-family="sans-serif" font-size="14" lengthAdjust="spacing" textLength="70" x="1197.4192" y="672.7285">InputAction</text><line style="stroke:#181818;stroke-width:0.5;" x1="1169.4192" x2="1269.4192" y1="683" y2="683"/><line style="stroke:#181818;stroke-width:0.5;" x1="1169.4192" x2="1269.4192" y1="691" y2="691"/></g><!--MD5=[d6c97c1600b1b37ec6d17dddeedafd65]
reverse link IInputActionCollection2 to @Controls--><g id="link_IInputActionCollection2_@Controls"><path codeLine="33" d="M1173.8792,73.75 C1179.0092,86.02 1184.9092,100.11 1191.0492,114.79 " fill="none" id="IInputActionCollection2-backto-@Controls" style="stroke:#181818;stroke-width:1.0;"/><polygon fill="none" points="1167.3192,76.21,1166.0592,55.05,1180.2392,70.8,1167.3192,76.21" style="stroke:#181818;stroke-width:1.0;"/></g><!--MD5=[91aa946595b72242813a1c87bbb443fe]
reverse link IDisposable to @Controls--><g id="link_IDisposable_@Controls"><path codeLine="34" d="M1313.7492,73.75 C1308.5692,86.02 1302.5992,100.11 1296.3892,114.79 " fill="none" id="IDisposable-backto-@Controls" style="stroke:#181818;stroke-width:1.0;"/><polygon fill="none" points="1307.4292,70.75,1321.6692,55.05,1320.3192,76.2,1307.4292,70.75" style="stroke:#181818;stroke-width:1.0;"/></g><!--MD5=[42697c61bd68eb07115d13c6b71e3fb5]
link @Controls to InputActionAsset--><g id="link_@Controls_InputActionAsset"><path codeLine="35" d="M1312.6092,367.21 C1335.9892,409.5 1359.9392,452.85 1374.9792,480.06 " fill="none" id="@Controls-to-InputActionAsset" style="stroke:#181818;stroke-width:1.0;"/><polygon fill="#181818" points="1377.4992,484.62,1376.6496,474.8079,1375.0819,480.2432,1369.6466,478.6755,1377.4992,484.62" style="stroke:#181818;stroke-width:1.0;"/><text fill="#000000" font-family="sans-serif" font-size="13" lengthAdjust="spacing" textLength="32" x="1338.4499" y="474.2653">asset</text></g><!--MD5=[7e03dc63ab3e1a30809a55beff418982]
link @Controls to ReadOnlyArray`1--><g id="link_@Controls_ReadOnlyArray`1"><path codeLine="36" d="M1009.7392,256.57 C818.7592,276 546.0892,321.33 330.4192,427 C303.6192,440.13 278.2992,462.77 260.7092,480.78 " fill="none" id="@Controls-to-ReadOnlyArray`1" style="stroke:#181818;stroke-width:1.0;"/><polygon fill="#181818" points="256.8492,484.78,265.9758,481.0779,260.3199,481.1808,260.217,475.5249,256.8492,484.78" style="stroke:#181818;stroke-width:1.0;"/><text fill="#000000" font-family="sans-serif" font-size="13" lengthAdjust="spacing" textLength="227" x="6" y="474.0638">controlSchemes&lt;InputControlScheme&gt;</text></g><!--MD5=[5bdef57b0fd336d8ddfd0b4c3bc4a882]
link @Controls to IEnumerable`1--><g id="link_@Controls_IEnumerable`1"><path codeLine="37" d="M1009.8692,268.63 C857.5292,293.39 658.4092,340.14 500.4192,427 C475.8392,440.51 453.1292,462.9 437.3792,480.72 " fill="none" id="@Controls-to-IEnumerable`1" style="stroke:#181818;stroke-width:1.0;"/><polygon fill="#181818" points="433.9192,484.68,442.8471,480.5216,437.2036,480.91,436.8152,475.2665,433.9192,484.68" style="stroke:#181818;stroke-width:1.0;"/><text fill="#000000" font-family="sans-serif" font-size="13" lengthAdjust="spacing" textLength="135" x="319.472" y="474.1194">bindings&lt;InputBinding&gt;</text></g><!--MD5=[d8407b538ab48e51bae0965f4d961b6b]
link @Controls to InputActionMap--><g id="link_@Controls_InputActionMap"><path codeLine="38" d="M1405.7192,367.16 C1429.7792,386.77 1453.9992,407.13 1476.4192,427 C1496.0492,444.4 1517.0792,465.22 1532.9192,481.39 " fill="none" id="@Controls-to-InputActionMap" style="stroke:#181818;stroke-width:1.0;"/><polygon fill="#181818" points="1536.4292,484.98,1533.024,475.7385,1532.944,481.3948,1527.2877,481.3148,1536.4292,484.98" style="stroke:#181818;stroke-width:1.0;"/><text fill="#000000" font-family="sans-serif" font-size="13" lengthAdjust="spacing" textLength="103" x="1457.4164" y="474.1275">m_PlayerControls</text></g><!--MD5=[57de9a14bda535b33b28070efe3664d2]
link @Controls to IPlayerControlsActions--><g id="link_@Controls_IPlayerControlsActions"><path codeLine="39" d="M1161.9592,367.21 C1148.8592,390.86 1136.1192,414.84 1125.3892,436.15 " fill="none" id="@Controls-to-IPlayerControlsActions" style="stroke:#181818;stroke-width:1.0;"/><polygon fill="#181818" points="1123.1292,440.65,1130.7398,434.3987,1125.371,436.1807,1123.589,430.8119,1123.1292,440.65" style="stroke:#181818;stroke-width:1.0;"/><text fill="#000000" font-family="sans-serif" font-size="13" lengthAdjust="spacing" textLength="246" x="871.8003" y="430.2085">m_PlayerControlsActionsCallbackInterface</text></g><!--MD5=[161cbede3c52ff69a92605077af4808a]
reverse link @Controls to IPlayerControlsActions--><g id="link_@Controls_IPlayerControlsActions"><path codeLine="53" d="M1180.8392,380.59 C1169.2892,401.48 1157.3992,422.19 1146.2992,440.65 " fill="none" id="@Controls-backto-IPlayerControlsActions" style="stroke:#181818;stroke-width:1.0;"/><ellipse cx="1184.3229" cy="374.2247" fill="#FFFFFF" rx="8" ry="8" style="stroke:#181818;stroke-width:1.0;"/><line style="stroke:#181818;stroke-width:1.0;" x1="1180.4766" x2="1188.1692" y1="381.2394" y2="367.21"/><line style="stroke:#181818;stroke-width:1.0;" x1="1177.3082" x2="1191.3376" y1="370.3784" y2="378.071"/></g><!--MD5=[fee6ee7bf3e8f63519d15e05b3fe0133]
link @Controls to InputAction--><g id="link_@Controls_InputAction"><path codeLine="40" d="M1477.2692,336.38 C1513.6692,360.23 1546.8192,389.97 1570.4192,427 C1609.5892,488.47 1616.7092,534.7 1570.4192,591 C1531.4692,638.37 1368.4992,659.14 1275.7492,667.93 " fill="none" id="@Controls-to-InputAction" style="stroke:#181818;stroke-width:1.0;"/><polygon fill="#181818" points="1270.5692,668.42,1279.9066,671.5525,1275.5469,667.948,1279.1514,663.5882,1270.5692,668.42" style="stroke:#181818;stroke-width:1.0;"/><text fill="#000000" font-family="sans-serif" font-size="13" lengthAdjust="spacing" textLength="170" x="1278.4404" y="665.0824">m_PlayerControls_MoveKeys</text></g><!--MD5=[fee6ee7bf3e8f63519d15e05b3fe0133]
link @Controls to InputAction--><g id="link_@Controls_InputAction"><path codeLine="41" d="M1477.0792,316.01 C1527.3792,342.64 1574.5692,378.58 1605.4192,427 C1644.5892,488.47 1651.7092,534.7 1605.4192,591 C1563.0092,642.59 1373.4992,662.63 1275.7592,670.01 " fill="none" id="@Controls-to-InputAction-1" style="stroke:#181818;stroke-width:1.0;"/><polygon fill="#181818" points="1270.6092,670.39,1279.8815,673.7103,1275.5954,670.0185,1279.2871,665.7324,1270.6092,670.39" style="stroke:#181818;stroke-width:1.0;"/><text fill="#000000" font-family="sans-serif" font-size="13" lengthAdjust="spacing" textLength="179" x="1278.3032" y="684.0801">m_PlayerControls_MouseDelta</text></g><!--MD5=[fee6ee7bf3e8f63519d15e05b3fe0133]
link @Controls to InputAction--><g id="link_@Controls_InputAction"><path codeLine="42" d="M1477.1692,299.86 C1540.9792,327.52 1602.8192,368 1640.4192,427 C1679.5892,488.47 1686.7092,534.7 1640.4192,591 C1594.8792,646.39 1379.7792,665.41 1275.8692,671.44 " fill="none" id="@Controls-to-InputAction-2" style="stroke:#181818;stroke-width:1.0;"/><polygon fill="#181818" points="1270.7092,671.73,1279.9233,675.2085,1275.701,671.4439,1279.4656,667.2216,1270.7092,671.73" style="stroke:#181818;stroke-width:1.0;"/><text fill="#000000" font-family="sans-serif" font-size="13" lengthAdjust="spacing" textLength="141" x="1078.8027" y="639.8254">m_PlayerControls_Jump</text></g><!--MD5=[fee6ee7bf3e8f63519d15e05b3fe0133]
link @Controls to InputAction--><g id="link_@Controls_InputAction"><path codeLine="43" d="M1476.9892,286.85 C1554.2692,314.3 1631.4392,357.98 1675.4192,427 C1714.5892,488.47 1721.7092,534.7 1675.4192,591 C1627.1592,649.7 1388.4492,667.55 1275.7692,672.38 " fill="none" id="@Controls-to-InputAction-3" style="stroke:#181818;stroke-width:1.0;"/><polygon fill="#181818" points="1270.4992,672.6,1279.6626,676.2098,1275.4946,672.3853,1279.3191,668.2172,1270.4992,672.6" style="stroke:#181818;stroke-width:1.0;"/><text fill="#000000" font-family="sans-serif" font-size="13" lengthAdjust="spacing" textLength="147" x="1013.6412" y="714.3964">m_PlayerControls_Sneak</text></g><!--MD5=[fee6ee7bf3e8f63519d15e05b3fe0133]
link @Controls to InputAction--><g id="link_@Controls_InputAction"><path codeLine="44" d="M1477.0292,276.61 C1567.8692,302.99 1660.5092,348.69 1710.4192,427 C1749.5892,488.47 1756.7092,534.7 1710.4192,591 C1659.9692,652.37 1401.3292,669.09 1275.9592,672.96 " fill="none" id="@Controls-to-InputAction-4" style="stroke:#181818;stroke-width:1.0;"/><polygon fill="#181818" points="1270.8192,673.12,1279.9298,676.8613,1275.8171,672.9772,1279.7013,668.8646,1270.8192,673.12" style="stroke:#181818;stroke-width:1.0;"/><text fill="#000000" font-family="sans-serif" font-size="13" lengthAdjust="spacing" textLength="144" x="1278.3389" y="686.9988">m_PlayerControls_Shoot</text></g><!--MD5=[f4bdfb2a14e76a3e644c6252600258b7]
link @Controls to PlayerControlsActions--><g id="link_@Controls_PlayerControlsActions"><path codeLine="45" d="M1009.8992,342.94 C953.1692,369.91 894.1092,398.74 842.5992,424.64 " fill="none" id="@Controls-to-PlayerControlsActions" style="stroke:#181818;stroke-width:1.0;"/><polygon fill="#181818" points="837.9592,426.98,847.7967,426.5076,842.4256,424.7325,844.2007,419.3614,837.9592,426.98" style="stroke:#181818;stroke-width:1.0;"/><text fill="#000000" font-family="sans-serif" font-size="13" lengthAdjust="spacing" textLength="98" x="748.5824" y="416.176">@PlayerControls</text></g><!--MD5=[43bbcdffc42bb5f61949ae250a18b294]
reverse link @Controls to PlayerControlsActions--><g id="link_@Controls_PlayerControlsActions"><path codeLine="46" d="M996.1592,362.02 C950.9592,383.96 904.7892,406.37 862.6192,426.84 " fill="none" id="@Controls-backto-PlayerControlsActions" style="stroke:#181818;stroke-width:1.0;"/><ellipse cx="1002.6301" cy="358.8791" fill="#FFFFFF" rx="8" ry="8" style="stroke:#181818;stroke-width:1.0;"/><line style="stroke:#181818;stroke-width:1.0;" x1="995.4311" x2="1009.8292" y1="362.3681" y2="355.39"/><line style="stroke:#181818;stroke-width:1.0;" x1="999.1411" x2="1006.1192" y1="351.68" y2="366.0781"/></g><!--MD5=[da0bcb77831a95c3e5410027ccd7339a]
link PlayerControlsActions to @Controls--><g id="link_PlayerControlsActions_@Controls"><path codeLine="47" d="M873.2292,433.28 C916.0692,413.33 962.4492,391.2 1007.4392,369.27 " fill="none" id="PlayerControlsActions-to-@Controls" style="stroke:#181818;stroke-width:1.0;"/><polygon fill="#181818" points="1012.0692,367.02,1002.2269,367.3794,1007.5773,369.2161,1005.7406,374.5664,1012.0692,367.02" style="stroke:#181818;stroke-width:1.0;"/><text fill="#000000" font-family="sans-serif" font-size="13" lengthAdjust="spacing" textLength="67" x="934.7235" y="385.7492">m_Wrapper</text></g><!--MD5=[cc0a1bae24ecec360aadb1c5a272b513]
link PlayerControlsActions to InputAction--><g id="link_PlayerControlsActions_InputAction"><path codeLine="48" d="M820.8392,591.14 C934.5392,628.83 1075.0892,658.95 1163.0992,669.72 " fill="none" id="PlayerControlsActions-to-InputAction" style="stroke:#181818;stroke-width:1.0;"/><polygon fill="#181818" points="1168.2992,670.34,1159.8433,665.2904,1163.3352,669.7409,1158.8847,673.2328,1168.2992,670.34" style="stroke:#181818;stroke-width:1.0;"/><text fill="#000000" font-family="sans-serif" font-size="13" lengthAdjust="spacing" textLength="73" x="1087.4955" y="666.7232">@MoveKeys</text></g><!--MD5=[cc0a1bae24ecec360aadb1c5a272b513]
link PlayerControlsActions to InputAction--><g id="link_PlayerControlsActions_InputAction"><path codeLine="49" d="M855.8392,591.14 C960.7592,625.92 1088.5292,654.25 1162.9992,666.89 " fill="none" id="PlayerControlsActions-to-InputAction-1" style="stroke:#181818;stroke-width:1.0;"/><polygon fill="#181818" points="1168.2692,667.77,1160.0416,662.3564,1163.3361,666.955,1158.7375,670.2494,1168.2692,667.77" style="stroke:#181818;stroke-width:1.0;"/><text fill="#000000" font-family="sans-serif" font-size="13" lengthAdjust="spacing" textLength="82" x="1078.35" y="681.3464">@MouseDelta</text></g><!--MD5=[cc0a1bae24ecec360aadb1c5a272b513]
link PlayerControlsActions to InputAction--><g id="link_PlayerControlsActions_InputAction"><path codeLine="50" d="M873.0192,585.03 C878.8692,587.1 884.6792,589.09 890.4192,591 C984.5492,622.24 1097.1692,648.29 1163.2392,662.46 " fill="none" id="PlayerControlsActions-to-InputAction-2" style="stroke:#181818;stroke-width:1.0;"/><polygon fill="#181818" points="1168.3092,663.54,1160.3425,657.7494,1163.4193,662.4963,1158.6725,665.5731,1168.3092,663.54" style="stroke:#181818;stroke-width:1.0;"/><text fill="#000000" font-family="sans-serif" font-size="13" lengthAdjust="spacing" textLength="44" x="1116.3128" y="658.9259">@Jump</text></g><!--MD5=[cc0a1bae24ecec360aadb1c5a272b513]
link PlayerControlsActions to InputAction--><g id="link_PlayerControlsActions_InputAction"><path codeLine="51" d="M873.0392,572.14 C890.6992,578.88 908.3692,585.34 925.4192,591 C1007.1292,618.11 1102.7592,641.32 1163.2892,656.24 " fill="none" id="PlayerControlsActions-to-InputAction-3" style="stroke:#181818;stroke-width:1.0;"/><polygon fill="#181818" points="1168.3092,657.48,1160.5354,651.4328,1163.456,656.2774,1158.6113,659.198,1168.3092,657.48" style="stroke:#181818;stroke-width:1.0;"/><text fill="#000000" font-family="sans-serif" font-size="13" lengthAdjust="spacing" textLength="50" x="1152.9696" y="640.0854">@Sneak</text></g><!--MD5=[cc0a1bae24ecec360aadb1c5a272b513]
link PlayerControlsActions to InputAction--><g id="link_PlayerControlsActions_InputAction"><path codeLine="52" d="M873.0292,558.9 C902.7392,570.25 932.4092,581.71 960.4192,591 C1030.8392,614.37 1111.5992,634.83 1167.1492,649.59 " fill="none" id="PlayerControlsActions-to-InputAction-4" style="stroke:#181818;stroke-width:1.0;"/><polygon fill="#181818" points="1172.1092,650.92,1164.4414,644.7389,1167.2775,649.6335,1162.383,652.4696,1172.1092,650.92" style="stroke:#181818;stroke-width:1.0;"/><text fill="#000000" font-family="sans-serif" font-size="13" lengthAdjust="spacing" textLength="47" x="1113.3813" y="643.131">@Shoot</text></g><!--MD5=[51ca544d1077c9534fee00d040c62fb0]
@startuml
class "@Controls" <<partial>> {
    + @Controls()
    + Dispose() : void
    + bindingMask : InputBinding? <<get>> <<set>>
    + devices : ReadOnlyArray<InputDevice>? <<get>> <<set>>
    + Contains(action:InputAction) : bool
    + GetEnumerator() : IEnumerator<InputAction>
    GetEnumerator() : IEnumerator
    + Enable() : void
    + Disable() : void
    + FindAction(actionNameOrId:string, throwIfNotFound:bool) : InputAction
    + FindBinding(bindingMask:InputBinding, action:InputAction) : int
}
class "ReadOnlyArray`1"<T> {
}
class "IEnumerable`1"<T> {
}
class PlayerControlsActions <<struct>> {
    + PlayerControlsActions(wrapper:@Controls)
    + Get() : InputActionMap
    + Enable() : void
    + Disable() : void
    + enabled : bool <<get>>
    + SetCallbacks(instance:IPlayerControlsActions) : void
}
interface IPlayerControlsActions {
    OnMoveKeys(context:InputAction.CallbackContext) : void
    OnMouseDelta(context:InputAction.CallbackContext) : void
    OnJump(context:InputAction.CallbackContext) : void
    OnSneak(context:InputAction.CallbackContext) : void
    OnShoot(context:InputAction.CallbackContext) : void
}
IInputActionCollection2 <|- - "@Controls"
IDisposable <|- - "@Controls"
"@Controls" - -> "asset" InputActionAsset
"@Controls" - -> "controlSchemes<InputControlScheme>" "ReadOnlyArray`1"
"@Controls" - -> "bindings<InputBinding>" "IEnumerable`1"
"@Controls" - -> "m_PlayerControls" InputActionMap
"@Controls" - -> "m_PlayerControlsActionsCallbackInterface" IPlayerControlsActions
"@Controls" - -> "m_PlayerControls_MoveKeys" InputAction
"@Controls" - -> "m_PlayerControls_MouseDelta" InputAction
"@Controls" - -> "m_PlayerControls_Jump" InputAction
"@Controls" - -> "m_PlayerControls_Sneak" InputAction
"@Controls" - -> "m_PlayerControls_Shoot" InputAction
"@Controls" - -> "@PlayerControls" PlayerControlsActions
"@Controls" +- - PlayerControlsActions
PlayerControlsActions - -> "m_Wrapper" "@Controls"
PlayerControlsActions - -> "@MoveKeys" InputAction
PlayerControlsActions - -> "@MouseDelta" InputAction
PlayerControlsActions - -> "@Jump" InputAction
PlayerControlsActions - -> "@Sneak" InputAction
PlayerControlsActions - -> "@Shoot" InputAction
"@Controls" +- - IPlayerControlsActions
@enduml

PlantUML version 1.2022.5(Sat Apr 30 12:55:52 CEST 2022)
(GPL source distribution)
Java Runtime: Java(TM) SE Runtime Environment
JVM: Java HotSpot(TM) 64-Bit Server VM
Default Encoding: UTF-8
Language: en
Country: GB
--></g></svg>