<?xml version="1.0" encoding="UTF-8" standalone="no"?><svg xmlns="http://www.w3.org/2000/svg" xmlns:xlink="http://www.w3.org/1999/xlink" contentStyleType="text/css" height="348px" preserveAspectRatio="none" style="width:761px;height:348px;background:#FFFFFF;" version="1.1" viewBox="0 0 761 348" width="761px" zoomAndPan="magnify"><defs/><g><!--MD5=[7f3a6ac20516e2336af7206368e9179f]
class Benchmark01_UGUI--><g id="elem_Benchmark01_UGUI"><rect codeLine="1" fill="#F1F1F1" height="118.4375" id="Benchmark01_UGUI" rx="2.5" ry="2.5" style="stroke:#181818;stroke-width:0.5;" width="449" x="235.5" y="115"/><ellipse cx="392.25" cy="131" fill="#ADD1B2" rx="11" ry="11" style="stroke:#181818;stroke-width:1.0;"/><path d="M395.0156,126.875 Q395.1719,126.6563 395.3594,126.5469 Q395.5469,126.4375 395.7656,126.4375 Q396.1406,126.4375 396.375,126.7031 Q396.6094,126.9531 396.6094,127.5625 L396.6094,129.0156 Q396.6094,129.625 396.375,129.8906 Q396.1406,130.1563 395.7656,130.1563 Q395.4219,130.1563 395.2188,129.9531 Q395.0156,129.7656 394.9063,129.25 Q394.8594,128.8906 394.6719,128.7031 Q394.3438,128.3281 393.7344,128.1094 Q393.125,127.8906 392.5,127.8906 Q391.7344,127.8906 391.0938,128.2188 Q390.4688,128.5469 389.9688,129.2969 Q389.4844,130.0469 389.4844,131.0781 L389.4844,132.1719 Q389.4844,133.4063 390.375,134.2344 Q391.2656,135.0469 392.8594,135.0469 Q393.7969,135.0469 394.4531,134.7969 Q394.8438,134.6406 395.2656,134.2031 Q395.5313,133.9375 395.6719,133.8594 Q395.8281,133.7813 396.0313,133.7813 Q396.3594,133.7813 396.6094,134.0469 Q396.875,134.2969 396.875,134.6406 Q396.875,134.9844 396.5313,135.3906 Q396.0313,135.9688 395.2344,136.2969 Q394.1563,136.75 392.8594,136.75 Q391.3438,136.75 390.1406,136.125 Q389.1563,135.625 388.4688,134.5625 Q387.7813,133.4844 387.7813,132.2031 L387.7813,131.0469 Q387.7813,129.7188 388.3906,128.5781 Q389.0156,127.4219 390.1094,126.8125 Q391.2031,126.1875 392.4375,126.1875 Q393.1719,126.1875 393.8125,126.3594 Q394.4688,126.5156 395.0156,126.875 Z " fill="#000000"/><text fill="#000000" font-family="sans-serif" font-size="14" lengthAdjust="spacing" textLength="127" x="412.75" y="136.7285">Benchmark01_UGUI</text><line style="stroke:#181818;stroke-width:0.5;" x1="236.5" x2="683.5" y1="147" y2="147"/><ellipse cx="246.5" cy="158" fill="none" rx="3" ry="3" style="stroke:#038048;stroke-width:1.0;"/><text fill="#000000" font-family="sans-serif" font-size="14" lengthAdjust="spacing" textLength="154" x="255.5" y="165.5332">BenchmarkType : int = 0</text><rect fill="none" height="6" style="stroke:#C82930;stroke-width:1.0;" width="6" x="243.5" y="172.6094"/><text fill="#000000" font-family="sans-serif" font-size="14" lengthAdjust="spacing" textLength="384" x="255.5" y="183.1426">«const» label01 : string = "The &lt;#0050FF&gt;count is: &lt;/color&gt;"</text><rect fill="none" height="6" style="stroke:#C82930;stroke-width:1.0;" width="6" x="243.5" y="190.2188"/><text fill="#000000" font-family="sans-serif" font-size="14" lengthAdjust="spacing" textLength="423" x="255.5" y="200.752">«const» label02 : string = "The &lt;color=#0050FF&gt;count is: &lt;/color&gt;"</text><line style="stroke:#181818;stroke-width:0.5;" x1="236.5" x2="683.5" y1="207.8281" y2="207.8281"/><text fill="#000000" font-family="sans-serif" font-size="14" lengthAdjust="spacing" textLength="129" x="241.5" y="226.3613">Start() : IEnumerator</text></g><!--MD5=[83b3cf3d23d77c6f1e1b5291a241bc2a]
class MonoBehaviour--><g id="elem_MonoBehaviour"><rect fill="#F1F1F1" height="48" id="MonoBehaviour" rx="2.5" ry="2.5" style="stroke:#181818;stroke-width:0.5;" width="131" x="394.5" y="7"/><ellipse cx="409.5" cy="23" fill="#ADD1B2" rx="11" ry="11" style="stroke:#181818;stroke-width:1.0;"/><path d="M412.2656,18.875 Q412.4219,18.6563 412.6094,18.5469 Q412.7969,18.4375 413.0156,18.4375 Q413.3906,18.4375 413.625,18.7031 Q413.8594,18.9531 413.8594,19.5625 L413.8594,21.0156 Q413.8594,21.625 413.625,21.8906 Q413.3906,22.1563 413.0156,22.1563 Q412.6719,22.1563 412.4688,21.9531 Q412.2656,21.7656 412.1563,21.25 Q412.1094,20.8906 411.9219,20.7031 Q411.5938,20.3281 410.9844,20.1094 Q410.375,19.8906 409.75,19.8906 Q408.9844,19.8906 408.3438,20.2188 Q407.7188,20.5469 407.2188,21.2969 Q406.7344,22.0469 406.7344,23.0781 L406.7344,24.1719 Q406.7344,25.4063 407.625,26.2344 Q408.5156,27.0469 410.1094,27.0469 Q411.0469,27.0469 411.7031,26.7969 Q412.0938,26.6406 412.5156,26.2031 Q412.7813,25.9375 412.9219,25.8594 Q413.0781,25.7813 413.2813,25.7813 Q413.6094,25.7813 413.8594,26.0469 Q414.125,26.2969 414.125,26.6406 Q414.125,26.9844 413.7813,27.3906 Q413.2813,27.9688 412.4844,28.2969 Q411.4063,28.75 410.1094,28.75 Q408.5938,28.75 407.3906,28.125 Q406.4063,27.625 405.7188,26.5625 Q405.0313,25.4844 405.0313,24.2031 L405.0313,23.0469 Q405.0313,21.7188 405.6406,20.5781 Q406.2656,19.4219 407.3594,18.8125 Q408.4531,18.1875 409.6875,18.1875 Q410.4219,18.1875 411.0625,18.3594 Q411.7188,18.5156 412.2656,18.875 Z " fill="#000000"/><text fill="#000000" font-family="sans-serif" font-size="14" lengthAdjust="spacing" textLength="99" x="423.5" y="28.7285">MonoBehaviour</text><line style="stroke:#181818;stroke-width:0.5;" x1="395.5" x2="524.5" y1="39" y2="39"/><line style="stroke:#181818;stroke-width:0.5;" x1="395.5" x2="524.5" y1="47" y2="47"/></g><!--MD5=[5edf34eb39d3b3dfde6419c044ab889f]
class Canvas--><g id="elem_Canvas"><rect fill="#F1F1F1" height="48" id="Canvas" rx="2.5" ry="2.5" style="stroke:#181818;stroke-width:0.5;" width="80" x="7" y="293"/><ellipse cx="22" cy="309" fill="#ADD1B2" rx="11" ry="11" style="stroke:#181818;stroke-width:1.0;"/><path d="M24.7656,304.875 Q24.9219,304.6563 25.1094,304.5469 Q25.2969,304.4375 25.5156,304.4375 Q25.8906,304.4375 26.125,304.7031 Q26.3594,304.9531 26.3594,305.5625 L26.3594,307.0156 Q26.3594,307.625 26.125,307.8906 Q25.8906,308.1563 25.5156,308.1563 Q25.1719,308.1563 24.9688,307.9531 Q24.7656,307.7656 24.6563,307.25 Q24.6094,306.8906 24.4219,306.7031 Q24.0938,306.3281 23.4844,306.1094 Q22.875,305.8906 22.25,305.8906 Q21.4844,305.8906 20.8438,306.2188 Q20.2188,306.5469 19.7188,307.2969 Q19.2344,308.0469 19.2344,309.0781 L19.2344,310.1719 Q19.2344,311.4063 20.125,312.2344 Q21.0156,313.0469 22.6094,313.0469 Q23.5469,313.0469 24.2031,312.7969 Q24.5938,312.6406 25.0156,312.2031 Q25.2813,311.9375 25.4219,311.8594 Q25.5781,311.7813 25.7813,311.7813 Q26.1094,311.7813 26.3594,312.0469 Q26.625,312.2969 26.625,312.6406 Q26.625,312.9844 26.2813,313.3906 Q25.7813,313.9688 24.9844,314.2969 Q23.9063,314.75 22.6094,314.75 Q21.0938,314.75 19.8906,314.125 Q18.9063,313.625 18.2188,312.5625 Q17.5313,311.4844 17.5313,310.2031 L17.5313,309.0469 Q17.5313,307.7188 18.1406,306.5781 Q18.7656,305.4219 19.8594,304.8125 Q20.9531,304.1875 22.1875,304.1875 Q22.9219,304.1875 23.5625,304.3594 Q24.2188,304.5156 24.7656,304.875 Z " fill="#000000"/><text fill="#000000" font-family="sans-serif" font-size="14" lengthAdjust="spacing" textLength="48" x="36" y="314.7285">Canvas</text><line style="stroke:#181818;stroke-width:0.5;" x1="8" x2="86" y1="325" y2="325"/><line style="stroke:#181818;stroke-width:0.5;" x1="8" x2="86" y1="333" y2="333"/></g><!--MD5=[ef6d4f2ec05ce2ec850061c2c1651a52]
class TMP_FontAsset--><g id="elem_TMP_FontAsset"><rect fill="#F1F1F1" height="48" id="TMP_FontAsset" rx="2.5" ry="2.5" style="stroke:#181818;stroke-width:0.5;" width="133" x="122.5" y="293"/><ellipse cx="137.5" cy="309" fill="#ADD1B2" rx="11" ry="11" style="stroke:#181818;stroke-width:1.0;"/><path d="M140.2656,304.875 Q140.4219,304.6563 140.6094,304.5469 Q140.7969,304.4375 141.0156,304.4375 Q141.3906,304.4375 141.625,304.7031 Q141.8594,304.9531 141.8594,305.5625 L141.8594,307.0156 Q141.8594,307.625 141.625,307.8906 Q141.3906,308.1563 141.0156,308.1563 Q140.6719,308.1563 140.4688,307.9531 Q140.2656,307.7656 140.1563,307.25 Q140.1094,306.8906 139.9219,306.7031 Q139.5938,306.3281 138.9844,306.1094 Q138.375,305.8906 137.75,305.8906 Q136.9844,305.8906 136.3438,306.2188 Q135.7188,306.5469 135.2188,307.2969 Q134.7344,308.0469 134.7344,309.0781 L134.7344,310.1719 Q134.7344,311.4063 135.625,312.2344 Q136.5156,313.0469 138.1094,313.0469 Q139.0469,313.0469 139.7031,312.7969 Q140.0938,312.6406 140.5156,312.2031 Q140.7813,311.9375 140.9219,311.8594 Q141.0781,311.7813 141.2813,311.7813 Q141.6094,311.7813 141.8594,312.0469 Q142.125,312.2969 142.125,312.6406 Q142.125,312.9844 141.7813,313.3906 Q141.2813,313.9688 140.4844,314.2969 Q139.4063,314.75 138.1094,314.75 Q136.5938,314.75 135.3906,314.125 Q134.4063,313.625 133.7188,312.5625 Q133.0313,311.4844 133.0313,310.2031 L133.0313,309.0469 Q133.0313,307.7188 133.6406,306.5781 Q134.2656,305.4219 135.3594,304.8125 Q136.4531,304.1875 137.6875,304.1875 Q138.4219,304.1875 139.0625,304.3594 Q139.7188,304.5156 140.2656,304.875 Z " fill="#000000"/><text fill="#000000" font-family="sans-serif" font-size="14" lengthAdjust="spacing" textLength="101" x="151.5" y="314.7285">TMP_FontAsset</text><line style="stroke:#181818;stroke-width:0.5;" x1="123.5" x2="254.5" y1="325" y2="325"/><line style="stroke:#181818;stroke-width:0.5;" x1="123.5" x2="254.5" y1="333" y2="333"/></g><!--MD5=[6a4b3e39d382a486f52eb45bc299d39c]
class Font--><g id="elem_Font"><rect fill="#F1F1F1" height="48" id="Font" rx="2.5" ry="2.5" style="stroke:#181818;stroke-width:0.5;" width="61" x="290.5" y="293"/><ellipse cx="305.5" cy="309" fill="#ADD1B2" rx="11" ry="11" style="stroke:#181818;stroke-width:1.0;"/><path d="M308.2656,304.875 Q308.4219,304.6563 308.6094,304.5469 Q308.7969,304.4375 309.0156,304.4375 Q309.3906,304.4375 309.625,304.7031 Q309.8594,304.9531 309.8594,305.5625 L309.8594,307.0156 Q309.8594,307.625 309.625,307.8906 Q309.3906,308.1563 309.0156,308.1563 Q308.6719,308.1563 308.4688,307.9531 Q308.2656,307.7656 308.1563,307.25 Q308.1094,306.8906 307.9219,306.7031 Q307.5938,306.3281 306.9844,306.1094 Q306.375,305.8906 305.75,305.8906 Q304.9844,305.8906 304.3438,306.2188 Q303.7188,306.5469 303.2188,307.2969 Q302.7344,308.0469 302.7344,309.0781 L302.7344,310.1719 Q302.7344,311.4063 303.625,312.2344 Q304.5156,313.0469 306.1094,313.0469 Q307.0469,313.0469 307.7031,312.7969 Q308.0938,312.6406 308.5156,312.2031 Q308.7813,311.9375 308.9219,311.8594 Q309.0781,311.7813 309.2813,311.7813 Q309.6094,311.7813 309.8594,312.0469 Q310.125,312.2969 310.125,312.6406 Q310.125,312.9844 309.7813,313.3906 Q309.2813,313.9688 308.4844,314.2969 Q307.4063,314.75 306.1094,314.75 Q304.5938,314.75 303.3906,314.125 Q302.4063,313.625 301.7188,312.5625 Q301.0313,311.4844 301.0313,310.2031 L301.0313,309.0469 Q301.0313,307.7188 301.6406,306.5781 Q302.2656,305.4219 303.3594,304.8125 Q304.4531,304.1875 305.6875,304.1875 Q306.4219,304.1875 307.0625,304.3594 Q307.7188,304.5156 308.2656,304.875 Z " fill="#000000"/><text fill="#000000" font-family="sans-serif" font-size="14" lengthAdjust="spacing" textLength="29" x="319.5" y="314.7285">Font</text><line style="stroke:#181818;stroke-width:0.5;" x1="291.5" x2="350.5" y1="325" y2="325"/><line style="stroke:#181818;stroke-width:0.5;" x1="291.5" x2="350.5" y1="333" y2="333"/></g><!--MD5=[904907aec70c3817983bd27a243dd750]
class TextMeshProUGUI--><g id="elem_TextMeshProUGUI"><rect fill="#F1F1F1" height="48" id="TextMeshProUGUI" rx="2.5" ry="2.5" style="stroke:#181818;stroke-width:0.5;" width="147" x="386.5" y="293"/><ellipse cx="401.5" cy="309" fill="#ADD1B2" rx="11" ry="11" style="stroke:#181818;stroke-width:1.0;"/><path d="M404.2656,304.875 Q404.4219,304.6563 404.6094,304.5469 Q404.7969,304.4375 405.0156,304.4375 Q405.3906,304.4375 405.625,304.7031 Q405.8594,304.9531 405.8594,305.5625 L405.8594,307.0156 Q405.8594,307.625 405.625,307.8906 Q405.3906,308.1563 405.0156,308.1563 Q404.6719,308.1563 404.4688,307.9531 Q404.2656,307.7656 404.1563,307.25 Q404.1094,306.8906 403.9219,306.7031 Q403.5938,306.3281 402.9844,306.1094 Q402.375,305.8906 401.75,305.8906 Q400.9844,305.8906 400.3438,306.2188 Q399.7188,306.5469 399.2188,307.2969 Q398.7344,308.0469 398.7344,309.0781 L398.7344,310.1719 Q398.7344,311.4063 399.625,312.2344 Q400.5156,313.0469 402.1094,313.0469 Q403.0469,313.0469 403.7031,312.7969 Q404.0938,312.6406 404.5156,312.2031 Q404.7813,311.9375 404.9219,311.8594 Q405.0781,311.7813 405.2813,311.7813 Q405.6094,311.7813 405.8594,312.0469 Q406.125,312.2969 406.125,312.6406 Q406.125,312.9844 405.7813,313.3906 Q405.2813,313.9688 404.4844,314.2969 Q403.4063,314.75 402.1094,314.75 Q400.5938,314.75 399.3906,314.125 Q398.4063,313.625 397.7188,312.5625 Q397.0313,311.4844 397.0313,310.2031 L397.0313,309.0469 Q397.0313,307.7188 397.6406,306.5781 Q398.2656,305.4219 399.3594,304.8125 Q400.4531,304.1875 401.6875,304.1875 Q402.4219,304.1875 403.0625,304.3594 Q403.7188,304.5156 404.2656,304.875 Z " fill="#000000"/><text fill="#000000" font-family="sans-serif" font-size="14" lengthAdjust="spacing" textLength="115" x="415.5" y="314.7285">TextMeshProUGUI</text><line style="stroke:#181818;stroke-width:0.5;" x1="387.5" x2="532.5" y1="325" y2="325"/><line style="stroke:#181818;stroke-width:0.5;" x1="387.5" x2="532.5" y1="333" y2="333"/></g><!--MD5=[02a8746eb15ecbb4566dafa16ea4db73]
class Text--><g id="elem_Text"><rect fill="#F1F1F1" height="48" id="Text" rx="2.5" ry="2.5" style="stroke:#181818;stroke-width:0.5;" width="59" x="568.5" y="293"/><ellipse cx="583.5" cy="309" fill="#ADD1B2" rx="11" ry="11" style="stroke:#181818;stroke-width:1.0;"/><path d="M586.2656,304.875 Q586.4219,304.6563 586.6094,304.5469 Q586.7969,304.4375 587.0156,304.4375 Q587.3906,304.4375 587.625,304.7031 Q587.8594,304.9531 587.8594,305.5625 L587.8594,307.0156 Q587.8594,307.625 587.625,307.8906 Q587.3906,308.1563 587.0156,308.1563 Q586.6719,308.1563 586.4688,307.9531 Q586.2656,307.7656 586.1563,307.25 Q586.1094,306.8906 585.9219,306.7031 Q585.5938,306.3281 584.9844,306.1094 Q584.375,305.8906 583.75,305.8906 Q582.9844,305.8906 582.3438,306.2188 Q581.7188,306.5469 581.2188,307.2969 Q580.7344,308.0469 580.7344,309.0781 L580.7344,310.1719 Q580.7344,311.4063 581.625,312.2344 Q582.5156,313.0469 584.1094,313.0469 Q585.0469,313.0469 585.7031,312.7969 Q586.0938,312.6406 586.5156,312.2031 Q586.7813,311.9375 586.9219,311.8594 Q587.0781,311.7813 587.2813,311.7813 Q587.6094,311.7813 587.8594,312.0469 Q588.125,312.2969 588.125,312.6406 Q588.125,312.9844 587.7813,313.3906 Q587.2813,313.9688 586.4844,314.2969 Q585.4063,314.75 584.1094,314.75 Q582.5938,314.75 581.3906,314.125 Q580.4063,313.625 579.7188,312.5625 Q579.0313,311.4844 579.0313,310.2031 L579.0313,309.0469 Q579.0313,307.7188 579.6406,306.5781 Q580.2656,305.4219 581.3594,304.8125 Q582.4531,304.1875 583.6875,304.1875 Q584.4219,304.1875 585.0625,304.3594 Q585.7188,304.5156 586.2656,304.875 Z " fill="#000000"/><text fill="#000000" font-family="sans-serif" font-size="14" lengthAdjust="spacing" textLength="27" x="597.5" y="314.7285">Text</text><line style="stroke:#181818;stroke-width:0.5;" x1="569.5" x2="626.5" y1="325" y2="325"/><line style="stroke:#181818;stroke-width:0.5;" x1="569.5" x2="626.5" y1="333" y2="333"/></g><!--MD5=[90d32ccc189f11441a6ce7cbb63ad387]
class Material--><g id="elem_Material"><rect fill="#F1F1F1" height="48" id="Material" rx="2.5" ry="2.5" style="stroke:#181818;stroke-width:0.5;" width="82" x="663" y="293"/><ellipse cx="678" cy="309" fill="#ADD1B2" rx="11" ry="11" style="stroke:#181818;stroke-width:1.0;"/><path d="M680.7656,304.875 Q680.9219,304.6563 681.1094,304.5469 Q681.2969,304.4375 681.5156,304.4375 Q681.8906,304.4375 682.125,304.7031 Q682.3594,304.9531 682.3594,305.5625 L682.3594,307.0156 Q682.3594,307.625 682.125,307.8906 Q681.8906,308.1563 681.5156,308.1563 Q681.1719,308.1563 680.9688,307.9531 Q680.7656,307.7656 680.6563,307.25 Q680.6094,306.8906 680.4219,306.7031 Q680.0938,306.3281 679.4844,306.1094 Q678.875,305.8906 678.25,305.8906 Q677.4844,305.8906 676.8438,306.2188 Q676.2188,306.5469 675.7188,307.2969 Q675.2344,308.0469 675.2344,309.0781 L675.2344,310.1719 Q675.2344,311.4063 676.125,312.2344 Q677.0156,313.0469 678.6094,313.0469 Q679.5469,313.0469 680.2031,312.7969 Q680.5938,312.6406 681.0156,312.2031 Q681.2813,311.9375 681.4219,311.8594 Q681.5781,311.7813 681.7813,311.7813 Q682.1094,311.7813 682.3594,312.0469 Q682.625,312.2969 682.625,312.6406 Q682.625,312.9844 682.2813,313.3906 Q681.7813,313.9688 680.9844,314.2969 Q679.9063,314.75 678.6094,314.75 Q677.0938,314.75 675.8906,314.125 Q674.9063,313.625 674.2188,312.5625 Q673.5313,311.4844 673.5313,310.2031 L673.5313,309.0469 Q673.5313,307.7188 674.1406,306.5781 Q674.7656,305.4219 675.8594,304.8125 Q676.9531,304.1875 678.1875,304.1875 Q678.9219,304.1875 679.5625,304.3594 Q680.2188,304.5156 680.7656,304.875 Z " fill="#000000"/><text fill="#000000" font-family="sans-serif" font-size="14" lengthAdjust="spacing" textLength="50" x="692" y="314.7285">Material</text><line style="stroke:#181818;stroke-width:0.5;" x1="664" x2="744" y1="325" y2="325"/><line style="stroke:#181818;stroke-width:0.5;" x1="664" x2="744" y1="333" y2="333"/></g><!--MD5=[16a5abffb421227ba98d8171896334d4]
reverse link MonoBehaviour to Benchmark01_UGUI--><g id="link_MonoBehaviour_Benchmark01_UGUI"><path codeLine="7" d="M460,75.33 C460,87.86 460,101.73 460,114.99 " fill="none" id="MonoBehaviour-backto-Benchmark01_UGUI" style="stroke:#181818;stroke-width:1.0;"/><polygon fill="none" points="453,75.28,460,55.28,467,75.28,453,75.28" style="stroke:#181818;stroke-width:1.0;"/></g><!--MD5=[706036ec550771f480272a1d039fdbd5]
link Benchmark01_UGUI to Canvas--><g id="link_Benchmark01_UGUI_Canvas"><path codeLine="8" d="M278.72,233.06 C222.78,251.57 161.15,272.56 105,293 C100.74,294.55 96.32,296.21 91.91,297.9 " fill="none" id="Benchmark01_UGUI-to-Canvas" style="stroke:#181818;stroke-width:1.0;"/><polygon fill="#181818" points="87.14,299.74,96.9763,300.2365,91.8056,297.9422,94.0999,292.7715,87.14,299.74" style="stroke:#181818;stroke-width:1.0;"/><text fill="#000000" font-family="sans-serif" font-size="13" lengthAdjust="spacing" textLength="40" x="74.9164" y="286.4161">canvas</text></g><!--MD5=[613f4736a6398b9c2b5150d68a5db386]
link Benchmark01_UGUI to TMP_FontAsset--><g id="link_Benchmark01_UGUI_TMP_FontAsset"><path codeLine="9" d="M348.21,233.16 C309.72,253.19 268.59,274.59 237.78,290.62 " fill="none" id="Benchmark01_UGUI-to-TMP_FontAsset" style="stroke:#181818;stroke-width:1.0;"/><polygon fill="#181818" points="233.31,292.95,243.1391,292.3267,237.7414,290.6342,239.4339,285.2365,233.31,292.95" style="stroke:#181818;stroke-width:1.0;"/><text fill="#000000" font-family="sans-serif" font-size="13" lengthAdjust="spacing" textLength="64" x="172.4644" y="282.2773">TMProFont</text></g><!--MD5=[f23e8cf74439153c1a791f32e3173eed]
link Benchmark01_UGUI to Font--><g id="link_Benchmark01_UGUI_Font"><path codeLine="10" d="M402.66,233.16 C383.63,252.47 363.35,273.04 347.76,288.86 " fill="none" id="Benchmark01_UGUI-to-Font" style="stroke:#181818;stroke-width:1.0;"/><polygon fill="#181818" points="343.9,292.77,353.0636,289.1605,347.4069,289.2061,347.3613,283.5494,343.9,292.77" style="stroke:#181818;stroke-width:1.0;"/><text fill="#000000" font-family="sans-serif" font-size="13" lengthAdjust="spacing" textLength="83" x="260.0705" y="282.3376">TextMeshFont</text></g><!--MD5=[fbd9f880b783dfca460f55c5fd70fd0b]
link Benchmark01_UGUI to TextMeshProUGUI--><g id="link_Benchmark01_UGUI_TextMeshProUGUI"><path codeLine="11" d="M460,233.16 C460,251.97 460,272 460,287.64 " fill="none" id="Benchmark01_UGUI-to-TextMeshProUGUI" style="stroke:#181818;stroke-width:1.0;"/><polygon fill="#181818" points="460,292.77,464,283.77,460,287.77,456,283.77,460,292.77" style="stroke:#181818;stroke-width:1.0;"/><text fill="#000000" font-family="sans-serif" font-size="13" lengthAdjust="spacing" textLength="92" x="356.2125" y="282.0512">m_textMeshPro</text></g><!--MD5=[da0f48b74eb6be793667d5296a572a63]
link Benchmark01_UGUI to Text--><g id="link_Benchmark01_UGUI_Text"><path codeLine="12" d="M516.93,233.16 C535.82,252.47 555.95,273.04 571.43,288.86 " fill="none" id="Benchmark01_UGUI-to-Text" style="stroke:#181818;stroke-width:1.0;"/><polygon fill="#181818" points="575.27,292.77,571.8275,283.5424,571.7704,289.1989,566.1138,289.1418,575.27,292.77" style="stroke:#181818;stroke-width:1.0;"/><text fill="#000000" font-family="sans-serif" font-size="13" lengthAdjust="spacing" textLength="72" x="523.5829" y="282.0512">m_textMesh</text></g><!--MD5=[8515ab331e52ce1b4bea395453d2d7e7]
link Benchmark01_UGUI to Material--><g id="link_Benchmark01_UGUI_Material"><path codeLine="13" d="M548.08,233.16 C585.36,255.07 627.17,278.62 658.24,294.99 " fill="none" id="Benchmark01_UGUI-to-Material" style="stroke:#181818;stroke-width:1.0;"/><polygon fill="#181818" points="662.75,297.35,656.6261,289.6365,658.3186,295.0342,652.9209,296.7267,662.75,297.35" style="stroke:#181818;stroke-width:1.0;"/><text fill="#000000" font-family="sans-serif" font-size="13" lengthAdjust="spacing" textLength="78" x="596.6594" y="282.1383">m_material01</text></g><!--MD5=[8515ab331e52ce1b4bea395453d2d7e7]
link Benchmark01_UGUI to Material--><g id="link_Benchmark01_UGUI_Material"><path codeLine="14" d="M573.97,233.16 C608.94,253.03 644.79,274.24 670.11,290.23 " fill="none" id="Benchmark01_UGUI-to-Material-1" style="stroke:#181818;stroke-width:1.0;"/><polygon fill="#181818" points="674.4,292.95,668.9474,284.7482,670.1793,290.2693,664.6583,291.5013,674.4,292.95" style="stroke:#181818;stroke-width:1.0;"/><text fill="#000000" font-family="sans-serif" font-size="13" lengthAdjust="spacing" textLength="78" x="676.8087" y="282.2773">m_material02</text></g><!--MD5=[595494b1d76f5ee2985b6a9bf31dffe2]
@startuml
class Benchmark01_UGUI {
    + BenchmarkType : int = 0
    - <<const>> label01 : string = "The <#0050FF>count is: </color>"
    - <<const>> label02 : string = "The <color=#0050FF>count is: </color>"
    Start() : IEnumerator
}
MonoBehaviour <|- - Benchmark01_UGUI
Benchmark01_UGUI - -> "canvas" Canvas
Benchmark01_UGUI - -> "TMProFont" TMP_FontAsset
Benchmark01_UGUI - -> "TextMeshFont" Font
Benchmark01_UGUI - -> "m_textMeshPro" TextMeshProUGUI
Benchmark01_UGUI - -> "m_textMesh" Text
Benchmark01_UGUI - -> "m_material01" Material
Benchmark01_UGUI - -> "m_material02" Material
@enduml

PlantUML version 1.2022.5(Sat Apr 30 12:55:52 CEST 2022)
(GPL source distribution)
Java Runtime: Java(TM) SE Runtime Environment
JVM: Java HotSpot(TM) 64-Bit Server VM
Default Encoding: UTF-8
Language: en
Country: GB
--></g></svg>