<?xml version="1.0" encoding="UTF-8" standalone="no"?><svg xmlns="http://www.w3.org/2000/svg" xmlns:xlink="http://www.w3.org/1999/xlink" contentStyleType="text/css" height="275px" preserveAspectRatio="none" style="width:238px;height:275px;background:#FFFFFF;" version="1.1" viewBox="0 0 238 275" width="238px" zoomAndPan="magnify"><defs/><g><!--MD5=[cdd569301132408e6892bbcba65f5297]
class PlayerHealth--><g id="elem_PlayerHealth"><rect codeLine="1" fill="#F1F1F1" height="153.6563" id="PlayerHealth" rx="2.5" ry="2.5" style="stroke:#181818;stroke-width:0.5;" width="224" x="7" y="115"/><ellipse cx="74.75" cy="131" fill="#ADD1B2" rx="11" ry="11" style="stroke:#181818;stroke-width:1.0;"/><path d="M77.5156,126.875 Q77.6719,126.6563 77.8594,126.5469 Q78.0469,126.4375 78.2656,126.4375 Q78.6406,126.4375 78.875,126.7031 Q79.1094,126.9531 79.1094,127.5625 L79.1094,129.0156 Q79.1094,129.625 78.875,129.8906 Q78.6406,130.1563 78.2656,130.1563 Q77.9219,130.1563 77.7188,129.9531 Q77.5156,129.7656 77.4063,129.25 Q77.3594,128.8906 77.1719,128.7031 Q76.8438,128.3281 76.2344,128.1094 Q75.625,127.8906 75,127.8906 Q74.2344,127.8906 73.5938,128.2188 Q72.9688,128.5469 72.4688,129.2969 Q71.9844,130.0469 71.9844,131.0781 L71.9844,132.1719 Q71.9844,133.4063 72.875,134.2344 Q73.7656,135.0469 75.3594,135.0469 Q76.2969,135.0469 76.9531,134.7969 Q77.3438,134.6406 77.7656,134.2031 Q78.0313,133.9375 78.1719,133.8594 Q78.3281,133.7813 78.5313,133.7813 Q78.8594,133.7813 79.1094,134.0469 Q79.375,134.2969 79.375,134.6406 Q79.375,134.9844 79.0313,135.3906 Q78.5313,135.9688 77.7344,136.2969 Q76.6563,136.75 75.3594,136.75 Q73.8438,136.75 72.6406,136.125 Q71.6563,135.625 70.9688,134.5625 Q70.2813,133.4844 70.2813,132.2031 L70.2813,131.0469 Q70.2813,129.7188 70.8906,128.5781 Q71.5156,127.4219 72.6094,126.8125 Q73.7031,126.1875 74.9375,126.1875 Q75.6719,126.1875 76.3125,126.3594 Q76.9688,126.5156 77.5156,126.875 Z " fill="#000000"/><text fill="#000000" font-family="sans-serif" font-size="14" lengthAdjust="spacing" textLength="80" x="95.25" y="136.7285">PlayerHealth</text><line style="stroke:#181818;stroke-width:0.5;" x1="8" x2="230" y1="147" y2="147"/><ellipse cx="18" cy="158" fill="none" rx="3" ry="3" style="stroke:#038048;stroke-width:1.0;"/><text fill="#000000" font-family="sans-serif" font-size="14" lengthAdjust="spacing" textLength="76" x="27" y="165.5332">myId : string</text><rect fill="none" height="6" style="stroke:#C82930;stroke-width:1.0;" width="6" x="15" y="172.6094"/><text fill="#000000" font-family="sans-serif" font-size="14" lengthAdjust="spacing" textLength="112" x="27" y="183.1426">currentHealth : int</text><line style="stroke:#181818;stroke-width:0.5;" x1="8" x2="230" y1="190.2188" y2="190.2188"/><rect fill="#F24D5C" height="6" style="stroke:#C82930;stroke-width:1.0;" width="6" x="15" y="198.2188"/><text fill="#000000" font-family="sans-serif" font-size="14" lengthAdjust="spacing" textLength="93" x="27" y="208.752">Update() : void</text><ellipse cx="18" cy="218.8281" fill="#84BE84" rx="3" ry="3" style="stroke:#038048;stroke-width:1.0;"/><text fill="#000000" font-family="sans-serif" font-size="14" lengthAdjust="spacing" textLength="198" x="27" y="226.3613">takeDamage(damage:int) : void</text><ellipse cx="18" cy="236.4375" fill="#84BE84" rx="3" ry="3" style="stroke:#038048;stroke-width:1.0;"/><text fill="#000000" font-family="sans-serif" font-size="14" lengthAdjust="spacing" textLength="191" x="27" y="243.9707">setHealth(newHealth:int) : void</text><ellipse cx="18" cy="254.0469" fill="#84BE84" rx="3" ry="3" style="stroke:#038048;stroke-width:1.0;"/><text fill="#000000" font-family="sans-serif" font-size="14" lengthAdjust="spacing" textLength="97" x="27" y="261.5801">getHealth() : int</text></g><!--MD5=[83b3cf3d23d77c6f1e1b5291a241bc2a]
class MonoBehaviour--><g id="elem_MonoBehaviour"><rect fill="#F1F1F1" height="48" id="MonoBehaviour" rx="2.5" ry="2.5" style="stroke:#181818;stroke-width:0.5;" width="131" x="53.5" y="7"/><ellipse cx="68.5" cy="23" fill="#ADD1B2" rx="11" ry="11" style="stroke:#181818;stroke-width:1.0;"/><path d="M71.2656,18.875 Q71.4219,18.6563 71.6094,18.5469 Q71.7969,18.4375 72.0156,18.4375 Q72.3906,18.4375 72.625,18.7031 Q72.8594,18.9531 72.8594,19.5625 L72.8594,21.0156 Q72.8594,21.625 72.625,21.8906 Q72.3906,22.1563 72.0156,22.1563 Q71.6719,22.1563 71.4688,21.9531 Q71.2656,21.7656 71.1563,21.25 Q71.1094,20.8906 70.9219,20.7031 Q70.5938,20.3281 69.9844,20.1094 Q69.375,19.8906 68.75,19.8906 Q67.9844,19.8906 67.3438,20.2188 Q66.7188,20.5469 66.2188,21.2969 Q65.7344,22.0469 65.7344,23.0781 L65.7344,24.1719 Q65.7344,25.4063 66.625,26.2344 Q67.5156,27.0469 69.1094,27.0469 Q70.0469,27.0469 70.7031,26.7969 Q71.0938,26.6406 71.5156,26.2031 Q71.7813,25.9375 71.9219,25.8594 Q72.0781,25.7813 72.2813,25.7813 Q72.6094,25.7813 72.8594,26.0469 Q73.125,26.2969 73.125,26.6406 Q73.125,26.9844 72.7813,27.3906 Q72.2813,27.9688 71.4844,28.2969 Q70.4063,28.75 69.1094,28.75 Q67.5938,28.75 66.3906,28.125 Q65.4063,27.625 64.7188,26.5625 Q64.0313,25.4844 64.0313,24.2031 L64.0313,23.0469 Q64.0313,21.7188 64.6406,20.5781 Q65.2656,19.4219 66.3594,18.8125 Q67.4531,18.1875 68.6875,18.1875 Q69.4219,18.1875 70.0625,18.3594 Q70.7188,18.5156 71.2656,18.875 Z " fill="#000000"/><text fill="#000000" font-family="sans-serif" font-size="14" lengthAdjust="spacing" textLength="99" x="82.5" y="28.7285">MonoBehaviour</text><line style="stroke:#181818;stroke-width:0.5;" x1="54.5" x2="183.5" y1="39" y2="39"/><line style="stroke:#181818;stroke-width:0.5;" x1="54.5" x2="183.5" y1="47" y2="47"/></g><!--MD5=[ed0a5f1bbc4a42fba32cc6aadc4ebeab]
reverse link MonoBehaviour to PlayerHealth--><g id="link_MonoBehaviour_PlayerHealth"><path codeLine="9" d="M119,75.21 C119,87.43 119,101.11 119,114.67 " fill="none" id="MonoBehaviour-backto-PlayerHealth" style="stroke:#181818;stroke-width:1.0;"/><polygon fill="none" points="112,75.12,119,55.12,126,75.12,112,75.12" style="stroke:#181818;stroke-width:1.0;"/></g><!--MD5=[da950732e31be3f2ddb18060bb0aa36d]
@startuml
class PlayerHealth {
    + myId : string
    - currentHealth : int
    - Update() : void
    + takeDamage(damage:int) : void
    + setHealth(newHealth:int) : void
    + getHealth() : int
}
MonoBehaviour <|- - PlayerHealth
@enduml

PlantUML version 1.2022.5(Sat Apr 30 12:55:52 CEST 2022)
(GPL source distribution)
Java Runtime: Java(TM) SE Runtime Environment
JVM: Java HotSpot(TM) 64-Bit Server VM
Default Encoding: UTF-8
Language: en
Country: GB
--></g></svg>