<?xml version="1.0" encoding="UTF-8" standalone="no"?><svg xmlns="http://www.w3.org/2000/svg" xmlns:xlink="http://www.w3.org/1999/xlink" contentStyleType="text/css" height="489px" preserveAspectRatio="none" style="width:612px;height:489px;background:#FFFFFF;" version="1.1" viewBox="0 0 612 489" width="612px" zoomAndPan="magnify"><defs/><g><!--MD5=[9e086ae7cb173547c374b8a4e58c7dec]
class Projectile--><g id="elem_Projectile"><rect codeLine="1" fill="#F1F1F1" height="259.3125" id="Projectile" rx="2.5" ry="2.5" style="stroke:#181818;stroke-width:0.5;" width="575" x="7" y="115"/><ellipse cx="261.25" cy="131" fill="#ADD1B2" rx="11" ry="11" style="stroke:#181818;stroke-width:1.0;"/><path d="M264.0156,126.875 Q264.1719,126.6563 264.3594,126.5469 Q264.5469,126.4375 264.7656,126.4375 Q265.1406,126.4375 265.375,126.7031 Q265.6094,126.9531 265.6094,127.5625 L265.6094,129.0156 Q265.6094,129.625 265.375,129.8906 Q265.1406,130.1563 264.7656,130.1563 Q264.4219,130.1563 264.2188,129.9531 Q264.0156,129.7656 263.9063,129.25 Q263.8594,128.8906 263.6719,128.7031 Q263.3438,128.3281 262.7344,128.1094 Q262.125,127.8906 261.5,127.8906 Q260.7344,127.8906 260.0938,128.2188 Q259.4688,128.5469 258.9688,129.2969 Q258.4844,130.0469 258.4844,131.0781 L258.4844,132.1719 Q258.4844,133.4063 259.375,134.2344 Q260.2656,135.0469 261.8594,135.0469 Q262.7969,135.0469 263.4531,134.7969 Q263.8438,134.6406 264.2656,134.2031 Q264.5313,133.9375 264.6719,133.8594 Q264.8281,133.7813 265.0313,133.7813 Q265.3594,133.7813 265.6094,134.0469 Q265.875,134.2969 265.875,134.6406 Q265.875,134.9844 265.5313,135.3906 Q265.0313,135.9688 264.2344,136.2969 Q263.1563,136.75 261.8594,136.75 Q260.3438,136.75 259.1406,136.125 Q258.1563,135.625 257.4688,134.5625 Q256.7813,133.4844 256.7813,132.2031 L256.7813,131.0469 Q256.7813,129.7188 257.3906,128.5781 Q258.0156,127.4219 259.1094,126.8125 Q260.2031,126.1875 261.4375,126.1875 Q262.1719,126.1875 262.8125,126.3594 Q263.4688,126.5156 264.0156,126.875 Z " fill="#000000"/><text fill="#000000" font-family="sans-serif" font-size="14" lengthAdjust="spacing" textLength="58" x="281.75" y="136.7285">Projectile</text><line style="stroke:#181818;stroke-width:0.5;" x1="8" x2="581" y1="147" y2="147"/><ellipse cx="18" cy="158" fill="none" rx="3" ry="3" style="stroke:#038048;stroke-width:1.0;"/><text fill="#000000" font-family="sans-serif" font-size="14" lengthAdjust="spacing" textLength="78" x="27" y="165.5332">damage : int</text><ellipse cx="18" cy="175.6094" fill="none" rx="3" ry="3" style="stroke:#038048;stroke-width:1.0;"/><text fill="#000000" font-family="sans-serif" font-size="14" lengthAdjust="spacing" textLength="137" x="27" y="183.1426">projectileSpeed : float</text><ellipse cx="18" cy="193.2188" fill="none" rx="3" ry="3" style="stroke:#038048;stroke-width:1.0;"/><text fill="#000000" font-family="sans-serif" font-size="14" lengthAdjust="spacing" textLength="126" x="27" y="200.752">despawnTime : float</text><ellipse cx="18" cy="210.8281" fill="none" rx="3" ry="3" style="stroke:#038048;stroke-width:1.0;"/><text fill="#000000" font-family="sans-serif" font-size="14" lengthAdjust="spacing" textLength="219" x="27" y="218.3613">timeUntilProjectileGetsLethal : float</text><ellipse cx="18" cy="228.4375" fill="none" rx="3" ry="3" style="stroke:#038048;stroke-width:1.0;"/><text fill="#000000" font-family="sans-serif" font-size="14" lengthAdjust="spacing" textLength="95" x="27" y="235.9707">shooter : string</text><line style="stroke:#181818;stroke-width:0.5;" x1="8" x2="581" y1="243.0469" y2="243.0469"/><ellipse cx="18" cy="254.0469" fill="#84BE84" rx="3" ry="3" style="stroke:#038048;stroke-width:1.0;"/><text fill="#000000" font-family="sans-serif" font-size="14" lengthAdjust="spacing" textLength="97" x="27" y="261.5801">OnStart() : void</text><ellipse cx="18" cy="271.6563" fill="#84BE84" rx="3" ry="3" style="stroke:#038048;stroke-width:1.0;"/><text fill="#000000" font-family="sans-serif" font-size="14" lengthAdjust="spacing" textLength="112" x="27" y="279.1895">OnUpdate() : void</text><ellipse cx="18" cy="289.2656" fill="#84BE84" rx="3" ry="3" style="stroke:#038048;stroke-width:1.0;"/><text fill="#000000" font-family="sans-serif" font-size="14" lengthAdjust="spacing" textLength="545" x="27" y="296.7988">updateCollidersOfGameObject(colliderGameObject:GameObject, newState:bool) : void</text><ellipse cx="18" cy="306.875" fill="#84BE84" rx="3" ry="3" style="stroke:#038048;stroke-width:1.0;"/><text fill="#000000" font-family="sans-serif" font-size="14" lengthAdjust="spacing" textLength="549" x="27" y="314.4082">updateColorsOfGameObject(rendererGameObject:GameObject, newColor:Color) : void</text><ellipse cx="18" cy="324.4844" fill="#84BE84" rx="3" ry="3" style="stroke:#038048;stroke-width:1.0;"/><text fill="#000000" font-family="sans-serif" font-size="14" lengthAdjust="spacing" textLength="254" x="27" y="332.0176">listToVector3(input:List&lt;float&gt;) : Vector3</text><ellipse cx="18" cy="342.0938" fill="#84BE84" rx="3" ry="3" style="stroke:#038048;stroke-width:1.0;"/><text fill="#000000" font-family="sans-serif" font-size="14" lengthAdjust="spacing" textLength="244" x="27" y="349.627">OnCollisionEnter(other:Collision) : void</text><ellipse cx="18" cy="359.7031" fill="#84BE84" rx="3" ry="3" style="stroke:#038048;stroke-width:1.0;"/><text fill="#000000" font-family="sans-serif" font-size="14" lengthAdjust="spacing" textLength="153" x="27" y="367.2363">destroyProjectile() : void</text></g><!--MD5=[83b3cf3d23d77c6f1e1b5291a241bc2a]
class MonoBehaviour--><g id="elem_MonoBehaviour"><rect fill="#F1F1F1" height="48" id="MonoBehaviour" rx="2.5" ry="2.5" style="stroke:#181818;stroke-width:0.5;" width="131" x="229" y="7"/><ellipse cx="244" cy="23" fill="#ADD1B2" rx="11" ry="11" style="stroke:#181818;stroke-width:1.0;"/><path d="M246.7656,18.875 Q246.9219,18.6563 247.1094,18.5469 Q247.2969,18.4375 247.5156,18.4375 Q247.8906,18.4375 248.125,18.7031 Q248.3594,18.9531 248.3594,19.5625 L248.3594,21.0156 Q248.3594,21.625 248.125,21.8906 Q247.8906,22.1563 247.5156,22.1563 Q247.1719,22.1563 246.9688,21.9531 Q246.7656,21.7656 246.6563,21.25 Q246.6094,20.8906 246.4219,20.7031 Q246.0938,20.3281 245.4844,20.1094 Q244.875,19.8906 244.25,19.8906 Q243.4844,19.8906 242.8438,20.2188 Q242.2188,20.5469 241.7188,21.2969 Q241.2344,22.0469 241.2344,23.0781 L241.2344,24.1719 Q241.2344,25.4063 242.125,26.2344 Q243.0156,27.0469 244.6094,27.0469 Q245.5469,27.0469 246.2031,26.7969 Q246.5938,26.6406 247.0156,26.2031 Q247.2813,25.9375 247.4219,25.8594 Q247.5781,25.7813 247.7813,25.7813 Q248.1094,25.7813 248.3594,26.0469 Q248.625,26.2969 248.625,26.6406 Q248.625,26.9844 248.2813,27.3906 Q247.7813,27.9688 246.9844,28.2969 Q245.9063,28.75 244.6094,28.75 Q243.0938,28.75 241.8906,28.125 Q240.9063,27.625 240.2188,26.5625 Q239.5313,25.4844 239.5313,24.2031 L239.5313,23.0469 Q239.5313,21.7188 240.1406,20.5781 Q240.7656,19.4219 241.8594,18.8125 Q242.9531,18.1875 244.1875,18.1875 Q244.9219,18.1875 245.5625,18.3594 Q246.2188,18.5156 246.7656,18.875 Z " fill="#000000"/><text fill="#000000" font-family="sans-serif" font-size="14" lengthAdjust="spacing" textLength="99" x="258" y="28.7285">MonoBehaviour</text><line style="stroke:#181818;stroke-width:0.5;" x1="230" x2="359" y1="39" y2="39"/><line style="stroke:#181818;stroke-width:0.5;" x1="230" x2="359" y1="47" y2="47"/></g><!--MD5=[65d619c042c23702cef2ca07d67b1cf6]
class Vector3--><g id="elem_Vector3"><rect fill="#F1F1F1" height="48" id="Vector3" rx="2.5" ry="2.5" style="stroke:#181818;stroke-width:0.5;" width="81" x="144" y="434"/><ellipse cx="159" cy="450" fill="#ADD1B2" rx="11" ry="11" style="stroke:#181818;stroke-width:1.0;"/><path d="M161.7656,445.875 Q161.9219,445.6563 162.1094,445.5469 Q162.2969,445.4375 162.5156,445.4375 Q162.8906,445.4375 163.125,445.7031 Q163.3594,445.9531 163.3594,446.5625 L163.3594,448.0156 Q163.3594,448.625 163.125,448.8906 Q162.8906,449.1563 162.5156,449.1563 Q162.1719,449.1563 161.9688,448.9531 Q161.7656,448.7656 161.6563,448.25 Q161.6094,447.8906 161.4219,447.7031 Q161.0938,447.3281 160.4844,447.1094 Q159.875,446.8906 159.25,446.8906 Q158.4844,446.8906 157.8438,447.2188 Q157.2188,447.5469 156.7188,448.2969 Q156.2344,449.0469 156.2344,450.0781 L156.2344,451.1719 Q156.2344,452.4063 157.125,453.2344 Q158.0156,454.0469 159.6094,454.0469 Q160.5469,454.0469 161.2031,453.7969 Q161.5938,453.6406 162.0156,453.2031 Q162.2813,452.9375 162.4219,452.8594 Q162.5781,452.7813 162.7813,452.7813 Q163.1094,452.7813 163.3594,453.0469 Q163.625,453.2969 163.625,453.6406 Q163.625,453.9844 163.2813,454.3906 Q162.7813,454.9688 161.9844,455.2969 Q160.9063,455.75 159.6094,455.75 Q158.0938,455.75 156.8906,455.125 Q155.9063,454.625 155.2188,453.5625 Q154.5313,452.4844 154.5313,451.2031 L154.5313,450.0469 Q154.5313,448.7188 155.1406,447.5781 Q155.7656,446.4219 156.8594,445.8125 Q157.9531,445.1875 159.1875,445.1875 Q159.9219,445.1875 160.5625,445.3594 Q161.2188,445.5156 161.7656,445.875 Z " fill="#000000"/><text fill="#000000" font-family="sans-serif" font-size="14" lengthAdjust="spacing" textLength="49" x="173" y="455.7285">Vector3</text><line style="stroke:#181818;stroke-width:0.5;" x1="145" x2="224" y1="466" y2="466"/><line style="stroke:#181818;stroke-width:0.5;" x1="145" x2="224" y1="474" y2="474"/></g><!--MD5=[4298d0dcfa55ecd56071adba7add2166]
class Enum--><g id="elem_Enum"><rect fill="#F1F1F1" height="48" id="Enum" rx="2.5" ry="2.5" style="stroke:#181818;stroke-width:0.5;" width="68" x="260.5" y="434"/><ellipse cx="275.5" cy="450" fill="#ADD1B2" rx="11" ry="11" style="stroke:#181818;stroke-width:1.0;"/><path d="M278.2656,445.875 Q278.4219,445.6563 278.6094,445.5469 Q278.7969,445.4375 279.0156,445.4375 Q279.3906,445.4375 279.625,445.7031 Q279.8594,445.9531 279.8594,446.5625 L279.8594,448.0156 Q279.8594,448.625 279.625,448.8906 Q279.3906,449.1563 279.0156,449.1563 Q278.6719,449.1563 278.4688,448.9531 Q278.2656,448.7656 278.1563,448.25 Q278.1094,447.8906 277.9219,447.7031 Q277.5938,447.3281 276.9844,447.1094 Q276.375,446.8906 275.75,446.8906 Q274.9844,446.8906 274.3438,447.2188 Q273.7188,447.5469 273.2188,448.2969 Q272.7344,449.0469 272.7344,450.0781 L272.7344,451.1719 Q272.7344,452.4063 273.625,453.2344 Q274.5156,454.0469 276.1094,454.0469 Q277.0469,454.0469 277.7031,453.7969 Q278.0938,453.6406 278.5156,453.2031 Q278.7813,452.9375 278.9219,452.8594 Q279.0781,452.7813 279.2813,452.7813 Q279.6094,452.7813 279.8594,453.0469 Q280.125,453.2969 280.125,453.6406 Q280.125,453.9844 279.7813,454.3906 Q279.2813,454.9688 278.4844,455.2969 Q277.4063,455.75 276.1094,455.75 Q274.5938,455.75 273.3906,455.125 Q272.4063,454.625 271.7188,453.5625 Q271.0313,452.4844 271.0313,451.2031 L271.0313,450.0469 Q271.0313,448.7188 271.6406,447.5781 Q272.2656,446.4219 273.3594,445.8125 Q274.4531,445.1875 275.6875,445.1875 Q276.4219,445.1875 277.0625,445.3594 Q277.7188,445.5156 278.2656,445.875 Z " fill="#000000"/><text fill="#000000" font-family="sans-serif" font-size="14" lengthAdjust="spacing" textLength="36" x="289.5" y="455.7285">Enum</text><line style="stroke:#181818;stroke-width:0.5;" x1="261.5" x2="327.5" y1="466" y2="466"/><line style="stroke:#181818;stroke-width:0.5;" x1="261.5" x2="327.5" y1="474" y2="474"/></g><!--MD5=[24ec51728e56f64a3c7112f6f5948d1e]
class Rigidbody--><g id="elem_Rigidbody"><rect fill="#F1F1F1" height="48" id="Rigidbody" rx="2.5" ry="2.5" style="stroke:#181818;stroke-width:0.5;" width="95" x="364" y="434"/><ellipse cx="379" cy="450" fill="#ADD1B2" rx="11" ry="11" style="stroke:#181818;stroke-width:1.0;"/><path d="M381.7656,445.875 Q381.9219,445.6563 382.1094,445.5469 Q382.2969,445.4375 382.5156,445.4375 Q382.8906,445.4375 383.125,445.7031 Q383.3594,445.9531 383.3594,446.5625 L383.3594,448.0156 Q383.3594,448.625 383.125,448.8906 Q382.8906,449.1563 382.5156,449.1563 Q382.1719,449.1563 381.9688,448.9531 Q381.7656,448.7656 381.6563,448.25 Q381.6094,447.8906 381.4219,447.7031 Q381.0938,447.3281 380.4844,447.1094 Q379.875,446.8906 379.25,446.8906 Q378.4844,446.8906 377.8438,447.2188 Q377.2188,447.5469 376.7188,448.2969 Q376.2344,449.0469 376.2344,450.0781 L376.2344,451.1719 Q376.2344,452.4063 377.125,453.2344 Q378.0156,454.0469 379.6094,454.0469 Q380.5469,454.0469 381.2031,453.7969 Q381.5938,453.6406 382.0156,453.2031 Q382.2813,452.9375 382.4219,452.8594 Q382.5781,452.7813 382.7813,452.7813 Q383.1094,452.7813 383.3594,453.0469 Q383.625,453.2969 383.625,453.6406 Q383.625,453.9844 383.2813,454.3906 Q382.7813,454.9688 381.9844,455.2969 Q380.9063,455.75 379.6094,455.75 Q378.0938,455.75 376.8906,455.125 Q375.9063,454.625 375.2188,453.5625 Q374.5313,452.4844 374.5313,451.2031 L374.5313,450.0469 Q374.5313,448.7188 375.1406,447.5781 Q375.7656,446.4219 376.8594,445.8125 Q377.9531,445.1875 379.1875,445.1875 Q379.9219,445.1875 380.5625,445.3594 Q381.2188,445.5156 381.7656,445.875 Z " fill="#000000"/><text fill="#000000" font-family="sans-serif" font-size="14" lengthAdjust="spacing" textLength="63" x="393" y="455.7285">Rigidbody</text><line style="stroke:#181818;stroke-width:0.5;" x1="365" x2="458" y1="466" y2="466"/><line style="stroke:#181818;stroke-width:0.5;" x1="365" x2="458" y1="474" y2="474"/></g><!--MD5=[064f7a74fee85463ec1a30143664ee17]
class GameObject--><g id="elem_GameObject"><rect fill="#F1F1F1" height="48" id="GameObject" rx="2.5" ry="2.5" style="stroke:#181818;stroke-width:0.5;" width="111" x="494" y="434"/><ellipse cx="509" cy="450" fill="#ADD1B2" rx="11" ry="11" style="stroke:#181818;stroke-width:1.0;"/><path d="M511.7656,445.875 Q511.9219,445.6563 512.1094,445.5469 Q512.2969,445.4375 512.5156,445.4375 Q512.8906,445.4375 513.125,445.7031 Q513.3594,445.9531 513.3594,446.5625 L513.3594,448.0156 Q513.3594,448.625 513.125,448.8906 Q512.8906,449.1563 512.5156,449.1563 Q512.1719,449.1563 511.9688,448.9531 Q511.7656,448.7656 511.6563,448.25 Q511.6094,447.8906 511.4219,447.7031 Q511.0938,447.3281 510.4844,447.1094 Q509.875,446.8906 509.25,446.8906 Q508.4844,446.8906 507.8438,447.2188 Q507.2188,447.5469 506.7188,448.2969 Q506.2344,449.0469 506.2344,450.0781 L506.2344,451.1719 Q506.2344,452.4063 507.125,453.2344 Q508.0156,454.0469 509.6094,454.0469 Q510.5469,454.0469 511.2031,453.7969 Q511.5938,453.6406 512.0156,453.2031 Q512.2813,452.9375 512.4219,452.8594 Q512.5781,452.7813 512.7813,452.7813 Q513.1094,452.7813 513.3594,453.0469 Q513.625,453.2969 513.625,453.6406 Q513.625,453.9844 513.2813,454.3906 Q512.7813,454.9688 511.9844,455.2969 Q510.9063,455.75 509.6094,455.75 Q508.0938,455.75 506.8906,455.125 Q505.9063,454.625 505.2188,453.5625 Q504.5313,452.4844 504.5313,451.2031 L504.5313,450.0469 Q504.5313,448.7188 505.1406,447.5781 Q505.7656,446.4219 506.8594,445.8125 Q507.9531,445.1875 509.1875,445.1875 Q509.9219,445.1875 510.5625,445.3594 Q511.2188,445.5156 511.7656,445.875 Z " fill="#000000"/><text fill="#000000" font-family="sans-serif" font-size="14" lengthAdjust="spacing" textLength="79" x="523" y="455.7285">GameObject</text><line style="stroke:#181818;stroke-width:0.5;" x1="495" x2="604" y1="466" y2="466"/><line style="stroke:#181818;stroke-width:0.5;" x1="495" x2="604" y1="474" y2="474"/></g><!--MD5=[5c67b0b4a5a0a047629d26b7321d5a29]
reverse link MonoBehaviour to Projectile--><g id="link_MonoBehaviour_Projectile"><path codeLine="15" d="M294.5,75.06 C294.5,87 294.5,100.6 294.5,114.79 " fill="none" id="MonoBehaviour-backto-Projectile" style="stroke:#181818;stroke-width:1.0;"/><polygon fill="none" points="287.5,75.04,294.5,55.04,301.5,75.04,287.5,75.04" style="stroke:#181818;stroke-width:1.0;"/></g><!--MD5=[7da38f2d7256926e154b47733889c796]
link Projectile to Vector3--><g id="link_Projectile_Vector3"><path codeLine="16" d="M215.18,374.02 C204.91,394.69 195.97,414.14 190.08,429.01 " fill="none" id="Projectile-to-Vector3" style="stroke:#181818;stroke-width:1.0;"/><polygon fill="#181818" points="188.2,433.87,195.1756,426.9173,190.0026,429.2062,187.7136,424.0332,188.2,433.87" style="stroke:#181818;stroke-width:1.0;"/><text fill="#000000" font-family="sans-serif" font-size="13" lengthAdjust="spacing" textLength="121" x="52.645" y="423.1768">angleToFireProjectile</text></g><!--MD5=[7da38f2d7256926e154b47733889c796]
link Projectile to Vector3--><g id="link_Projectile_Vector3"><path codeLine="17" d="M240.88,374.02 C229.51,394.87 218.05,414.48 208.31,429.4 " fill="none" id="Projectile-to-Vector3-1" style="stroke:#181818;stroke-width:1.0;"/><polygon fill="#181818" points="205.35,433.87,213.6496,428.5674,208.107,429.6988,206.9756,424.1562,205.35,433.87" style="stroke:#181818;stroke-width:1.0;"/><text fill="#000000" font-family="sans-serif" font-size="13" lengthAdjust="spacing" textLength="88" x="221.9232" y="423.1141">originalVelocity</text></g><!--MD5=[c65a0bd4be7cfac2efdb6b8e4d1828da]
link Projectile to Enum--><g id="link_Projectile_Enum"><path codeLine="18" d="M294.5,374.02 C294.5,394.51 294.5,413.8 294.5,428.62 " fill="none" id="Projectile-to-Enum" style="stroke:#181818;stroke-width:1.0;"/><polygon fill="#181818" points="294.5,433.87,298.5,424.87,294.5,428.87,290.5,424.87,294.5,433.87" style="stroke:#181818;stroke-width:1.0;"/><text fill="#000000" font-family="sans-serif" font-size="13" lengthAdjust="spacing" textLength="80" x="304.6457" y="423.1141">projectileType</text></g><!--MD5=[ab52528d2d38f405a66336c3cada483b]
link Projectile to Rigidbody--><g id="link_Projectile_Rigidbody"><path codeLine="19" d="M365.59,374.02 C377.13,394.87 387.98,414.48 396.23,429.4 " fill="none" id="Projectile-to-Rigidbody" style="stroke:#181818;stroke-width:1.0;"/><polygon fill="#181818" points="398.71,433.87,397.8494,424.0588,396.2878,429.4959,390.8508,427.9343,398.71,433.87" style="stroke:#181818;stroke-width:1.0;"/><text fill="#000000" font-family="sans-serif" font-size="13" lengthAdjust="spacing" textLength="109" x="409.2644" y="423.1141">projectileRigidbody</text></g><!--MD5=[5f0a49b6540eff94d53e51d6d3c1d6ea]
link Projectile to GameObject--><g id="link_Projectile_GameObject"><path codeLine="20" d="M449.45,374.02 C475.24,395.41 499.46,415.49 517.61,430.55 " fill="none" id="Projectile-to-GameObject" style="stroke:#181818;stroke-width:1.0;"/><polygon fill="#181818" points="521.62,433.87,517.2474,425.045,517.7719,430.6775,512.1394,431.202,521.62,433.87" style="stroke:#181818;stroke-width:1.0;"/><text fill="#000000" font-family="sans-serif" font-size="13" lengthAdjust="spacing" textLength="81" x="524.8539" y="423.1768">ColliderObject</text></g><!--MD5=[d8a6bfb7c0f6731d91b8ec0b656c9150]
@startuml
class Projectile {
    + damage : int
    + projectileSpeed : float
    + despawnTime : float
    + timeUntilProjectileGetsLethal : float
    + shooter : string
    + OnStart() : void
    + OnUpdate() : void
    + updateCollidersOfGameObject(colliderGameObject:GameObject, newState:bool) : void
    + updateColorsOfGameObject(rendererGameObject:GameObject, newColor:Color) : void
    + listToVector3(input:List<float>) : Vector3
    + OnCollisionEnter(other:Collision) : void
    + destroyProjectile() : void
}
MonoBehaviour <|- - Projectile
Projectile - -> "angleToFireProjectile" Vector3
Projectile - -> "originalVelocity" Vector3
Projectile - -> "projectileType" Enum
Projectile - -> "projectileRigidbody" Rigidbody
Projectile - -> "ColliderObject" GameObject
@enduml

PlantUML version 1.2022.5(Sat Apr 30 12:55:52 CEST 2022)
(GPL source distribution)
Java Runtime: Java(TM) SE Runtime Environment
JVM: Java HotSpot(TM) 64-Bit Server VM
Default Encoding: UTF-8
Language: en
Country: GB
--></g></svg>