<?xml version="1.0" encoding="UTF-8" standalone="no"?><svg xmlns="http://www.w3.org/2000/svg" xmlns:xlink="http://www.w3.org/1999/xlink" contentStyleType="text/css" height="348px" preserveAspectRatio="none" style="width:307px;height:348px;background:#FFFFFF;" version="1.1" viewBox="0 0 307 348" width="307px" zoomAndPan="magnify"><defs/><g><!--MD5=[741c6b688dff592d5f0cfe2ec8ddbaaf]
class TextMeshSpawner--><g id="elem_TextMeshSpawner"><rect codeLine="1" fill="#F1F1F1" height="118.4375" id="TextMeshSpawner" rx="2.5" ry="2.5" style="stroke:#181818;stroke-width:0.5;" width="177" x="34.7635" y="115"/><ellipse cx="62.8135" cy="131" fill="#ADD1B2" rx="11" ry="11" style="stroke:#181818;stroke-width:1.0;"/><path d="M65.5791,126.875 Q65.7354,126.6563 65.9229,126.5469 Q66.1104,126.4375 66.3291,126.4375 Q66.7041,126.4375 66.9385,126.7031 Q67.1729,126.9531 67.1729,127.5625 L67.1729,129.0156 Q67.1729,129.625 66.9385,129.8906 Q66.7041,130.1563 66.3291,130.1563 Q65.9854,130.1563 65.7823,129.9531 Q65.5791,129.7656 65.4698,129.25 Q65.4229,128.8906 65.2354,128.7031 Q64.9073,128.3281 64.2979,128.1094 Q63.6885,127.8906 63.0635,127.8906 Q62.2979,127.8906 61.6573,128.2188 Q61.0323,128.5469 60.5323,129.2969 Q60.0479,130.0469 60.0479,131.0781 L60.0479,132.1719 Q60.0479,133.4063 60.9385,134.2344 Q61.8291,135.0469 63.4229,135.0469 Q64.3604,135.0469 65.0166,134.7969 Q65.4073,134.6406 65.8291,134.2031 Q66.0948,133.9375 66.2354,133.8594 Q66.3916,133.7813 66.5948,133.7813 Q66.9229,133.7813 67.1729,134.0469 Q67.4385,134.2969 67.4385,134.6406 Q67.4385,134.9844 67.0948,135.3906 Q66.5948,135.9688 65.7979,136.2969 Q64.7198,136.75 63.4229,136.75 Q61.9073,136.75 60.7041,136.125 Q59.7198,135.625 59.0323,134.5625 Q58.3448,133.4844 58.3448,132.2031 L58.3448,131.0469 Q58.3448,129.7188 58.9541,128.5781 Q59.5791,127.4219 60.6729,126.8125 Q61.7666,126.1875 63.001,126.1875 Q63.7354,126.1875 64.376,126.3594 Q65.0323,126.5156 65.5791,126.875 Z " fill="#000000"/><text fill="#000000" font-family="sans-serif" font-size="14" lengthAdjust="spacing" textLength="116" x="79.7135" y="136.7285">TextMeshSpawner</text><line style="stroke:#181818;stroke-width:0.5;" x1="35.7635" x2="210.7635" y1="147" y2="147"/><ellipse cx="45.7635" cy="158" fill="none" rx="3" ry="3" style="stroke:#038048;stroke-width:1.0;"/><text fill="#000000" font-family="sans-serif" font-size="14" lengthAdjust="spacing" textLength="125" x="54.7635" y="165.5332">SpawnType : int = 0</text><ellipse cx="45.7635" cy="175.6094" fill="none" rx="3" ry="3" style="stroke:#038048;stroke-width:1.0;"/><text fill="#000000" font-family="sans-serif" font-size="14" lengthAdjust="spacing" textLength="151" x="54.7635" y="183.1426">NumberOfNPC : int = 12</text><line style="stroke:#181818;stroke-width:0.5;" x1="35.7635" x2="210.7635" y1="190.2188" y2="190.2188"/><text fill="#000000" font-family="sans-serif" font-size="14" lengthAdjust="spacing" textLength="89" x="40.7635" y="208.752">Awake() : void</text><text fill="#000000" font-family="sans-serif" font-size="14" lengthAdjust="spacing" textLength="78" x="40.7635" y="226.3613">Start() : void</text></g><!--MD5=[83b3cf3d23d77c6f1e1b5291a241bc2a]
class MonoBehaviour--><g id="elem_MonoBehaviour"><rect fill="#F1F1F1" height="48" id="MonoBehaviour" rx="2.5" ry="2.5" style="stroke:#181818;stroke-width:0.5;" width="131" x="57.7635" y="7"/><ellipse cx="72.7635" cy="23" fill="#ADD1B2" rx="11" ry="11" style="stroke:#181818;stroke-width:1.0;"/><path d="M75.5291,18.875 Q75.6854,18.6563 75.8729,18.5469 Q76.0604,18.4375 76.2791,18.4375 Q76.6541,18.4375 76.8885,18.7031 Q77.1229,18.9531 77.1229,19.5625 L77.1229,21.0156 Q77.1229,21.625 76.8885,21.8906 Q76.6541,22.1563 76.2791,22.1563 Q75.9354,22.1563 75.7323,21.9531 Q75.5291,21.7656 75.4198,21.25 Q75.3729,20.8906 75.1854,20.7031 Q74.8573,20.3281 74.2479,20.1094 Q73.6385,19.8906 73.0135,19.8906 Q72.2479,19.8906 71.6073,20.2188 Q70.9823,20.5469 70.4823,21.2969 Q69.9979,22.0469 69.9979,23.0781 L69.9979,24.1719 Q69.9979,25.4063 70.8885,26.2344 Q71.7791,27.0469 73.3729,27.0469 Q74.3104,27.0469 74.9666,26.7969 Q75.3573,26.6406 75.7791,26.2031 Q76.0448,25.9375 76.1854,25.8594 Q76.3416,25.7813 76.5448,25.7813 Q76.8729,25.7813 77.1229,26.0469 Q77.3885,26.2969 77.3885,26.6406 Q77.3885,26.9844 77.0448,27.3906 Q76.5448,27.9688 75.7479,28.2969 Q74.6698,28.75 73.3729,28.75 Q71.8573,28.75 70.6541,28.125 Q69.6698,27.625 68.9823,26.5625 Q68.2948,25.4844 68.2948,24.2031 L68.2948,23.0469 Q68.2948,21.7188 68.9041,20.5781 Q69.5291,19.4219 70.6229,18.8125 Q71.7166,18.1875 72.951,18.1875 Q73.6854,18.1875 74.326,18.3594 Q74.9823,18.5156 75.5291,18.875 Z " fill="#000000"/><text fill="#000000" font-family="sans-serif" font-size="14" lengthAdjust="spacing" textLength="99" x="86.7635" y="28.7285">MonoBehaviour</text><line style="stroke:#181818;stroke-width:0.5;" x1="58.7635" x2="187.7635" y1="39" y2="39"/><line style="stroke:#181818;stroke-width:0.5;" x1="58.7635" x2="187.7635" y1="47" y2="47"/></g><!--MD5=[6a4b3e39d382a486f52eb45bc299d39c]
class Font--><g id="elem_Font"><rect fill="#F1F1F1" height="48" id="Font" rx="2.5" ry="2.5" style="stroke:#181818;stroke-width:0.5;" width="61" x="11.7635" y="293"/><ellipse cx="26.7635" cy="309" fill="#ADD1B2" rx="11" ry="11" style="stroke:#181818;stroke-width:1.0;"/><path d="M29.5291,304.875 Q29.6854,304.6563 29.8729,304.5469 Q30.0604,304.4375 30.2791,304.4375 Q30.6541,304.4375 30.8885,304.7031 Q31.1229,304.9531 31.1229,305.5625 L31.1229,307.0156 Q31.1229,307.625 30.8885,307.8906 Q30.6541,308.1563 30.2791,308.1563 Q29.9354,308.1563 29.7323,307.9531 Q29.5291,307.7656 29.4198,307.25 Q29.3729,306.8906 29.1854,306.7031 Q28.8573,306.3281 28.2479,306.1094 Q27.6385,305.8906 27.0135,305.8906 Q26.2479,305.8906 25.6073,306.2188 Q24.9823,306.5469 24.4823,307.2969 Q23.9979,308.0469 23.9979,309.0781 L23.9979,310.1719 Q23.9979,311.4063 24.8885,312.2344 Q25.7791,313.0469 27.3729,313.0469 Q28.3104,313.0469 28.9666,312.7969 Q29.3573,312.6406 29.7791,312.2031 Q30.0448,311.9375 30.1854,311.8594 Q30.3416,311.7813 30.5448,311.7813 Q30.8729,311.7813 31.1229,312.0469 Q31.3885,312.2969 31.3885,312.6406 Q31.3885,312.9844 31.0448,313.3906 Q30.5448,313.9688 29.7479,314.2969 Q28.6698,314.75 27.3729,314.75 Q25.8573,314.75 24.6541,314.125 Q23.6698,313.625 22.9823,312.5625 Q22.2948,311.4844 22.2948,310.2031 L22.2948,309.0469 Q22.2948,307.7188 22.9041,306.5781 Q23.5291,305.4219 24.6229,304.8125 Q25.7166,304.1875 26.951,304.1875 Q27.6854,304.1875 28.326,304.3594 Q28.9823,304.5156 29.5291,304.875 Z " fill="#000000"/><text fill="#000000" font-family="sans-serif" font-size="14" lengthAdjust="spacing" textLength="29" x="40.7635" y="314.7285">Font</text><line style="stroke:#181818;stroke-width:0.5;" x1="12.7635" x2="71.7635" y1="325" y2="325"/><line style="stroke:#181818;stroke-width:0.5;" x1="12.7635" x2="71.7635" y1="333" y2="333"/></g><!--MD5=[7c53773ceccb88a8381275beba1efaca]
class TextMeshProFloatingText--><g id="elem_TextMeshProFloatingText"><rect fill="#F1F1F1" height="48" id="TextMeshProFloatingText" rx="2.5" ry="2.5" style="stroke:#181818;stroke-width:0.5;" width="193" x="107.7635" y="293"/><ellipse cx="122.7635" cy="309" fill="#ADD1B2" rx="11" ry="11" style="stroke:#181818;stroke-width:1.0;"/><path d="M125.5291,304.875 Q125.6854,304.6563 125.8729,304.5469 Q126.0604,304.4375 126.2791,304.4375 Q126.6541,304.4375 126.8885,304.7031 Q127.1229,304.9531 127.1229,305.5625 L127.1229,307.0156 Q127.1229,307.625 126.8885,307.8906 Q126.6541,308.1563 126.2791,308.1563 Q125.9354,308.1563 125.7323,307.9531 Q125.5291,307.7656 125.4198,307.25 Q125.3729,306.8906 125.1854,306.7031 Q124.8573,306.3281 124.2479,306.1094 Q123.6385,305.8906 123.0135,305.8906 Q122.2479,305.8906 121.6073,306.2188 Q120.9823,306.5469 120.4823,307.2969 Q119.9979,308.0469 119.9979,309.0781 L119.9979,310.1719 Q119.9979,311.4063 120.8885,312.2344 Q121.7791,313.0469 123.3729,313.0469 Q124.3104,313.0469 124.9666,312.7969 Q125.3573,312.6406 125.7791,312.2031 Q126.0448,311.9375 126.1854,311.8594 Q126.3416,311.7813 126.5448,311.7813 Q126.8729,311.7813 127.1229,312.0469 Q127.3885,312.2969 127.3885,312.6406 Q127.3885,312.9844 127.0448,313.3906 Q126.5448,313.9688 125.7479,314.2969 Q124.6698,314.75 123.3729,314.75 Q121.8573,314.75 120.6541,314.125 Q119.6698,313.625 118.9823,312.5625 Q118.2948,311.4844 118.2948,310.2031 L118.2948,309.0469 Q118.2948,307.7188 118.9041,306.5781 Q119.5291,305.4219 120.6229,304.8125 Q121.7166,304.1875 122.951,304.1875 Q123.6854,304.1875 124.326,304.3594 Q124.9823,304.5156 125.5291,304.875 Z " fill="#000000"/><text fill="#000000" font-family="sans-serif" font-size="14" lengthAdjust="spacing" textLength="161" x="136.7635" y="314.7285">TextMeshProFloatingText</text><line style="stroke:#181818;stroke-width:0.5;" x1="108.7635" x2="299.7635" y1="325" y2="325"/><line style="stroke:#181818;stroke-width:0.5;" x1="108.7635" x2="299.7635" y1="333" y2="333"/></g><!--MD5=[45e39ff98c88dc6af3baad1d40baacb1]
reverse link MonoBehaviour to TextMeshSpawner--><g id="link_MonoBehaviour_TextMeshSpawner"><path codeLine="7" d="M123.2635,75.33 C123.2635,87.86 123.2635,101.73 123.2635,114.99 " fill="none" id="MonoBehaviour-backto-TextMeshSpawner" style="stroke:#181818;stroke-width:1.0;"/><polygon fill="none" points="116.2635,75.28,123.2635,55.28,130.2635,75.28,116.2635,75.28" style="stroke:#181818;stroke-width:1.0;"/></g><!--MD5=[e376455a0ce446eb617ee1c76dbbf3dd]
link TextMeshSpawner to Font--><g id="link_TextMeshSpawner_Font"><path codeLine="8" d="M89.8435,233.16 C78.9435,252.14 67.3435,272.34 58.3135,288.05 " fill="none" id="TextMeshSpawner-to-Font" style="stroke:#181818;stroke-width:1.0;"/><polygon fill="#181818" points="55.6035,292.77,63.5602,286.9657,58.098,288.4367,56.627,282.9745,55.6035,292.77" style="stroke:#181818;stroke-width:1.0;"/><text fill="#000000" font-family="sans-serif" font-size="13" lengthAdjust="spacing" textLength="47" x="6" y="282.0512">TheFont</text></g><!--MD5=[eaa25d9d21e6b41e42bfbad333da4aaa]
link TextMeshSpawner to TextMeshProFloatingText--><g id="link_TextMeshSpawner_TextMeshProFloatingText"><path codeLine="9" d="M156.6735,233.16 C167.5735,252.14 179.1835,272.34 188.2035,288.05 " fill="none" id="TextMeshSpawner-to-TextMeshProFloatingText" style="stroke:#181818;stroke-width:1.0;"/><polygon fill="#181818" points="190.9135,292.77,189.89,282.9745,188.419,288.4367,182.9568,286.9657,190.9135,292.77" style="stroke:#181818;stroke-width:1.0;"/><text fill="#000000" font-family="sans-serif" font-size="13" lengthAdjust="spacing" textLength="107" x="66.7832" y="282.0512">floatingText_Script</text></g><!--MD5=[e7b58186a3140980d9da9a940ff2100e]
@startuml
class TextMeshSpawner {
    + SpawnType : int = 0
    + NumberOfNPC : int = 12
    Awake() : void
    Start() : void
}
MonoBehaviour <|- - TextMeshSpawner
TextMeshSpawner - -> "TheFont" Font
TextMeshSpawner - -> "floatingText_Script" TextMeshProFloatingText
@enduml

PlantUML version 1.2022.5(Sat Apr 30 12:55:52 CEST 2022)
(GPL source distribution)
Java Runtime: Java(TM) SE Runtime Environment
JVM: Java HotSpot(TM) 64-Bit Server VM
Default Encoding: UTF-8
Language: en
Country: GB
--></g></svg>