<?xml version="1.0" encoding="UTF-8" standalone="no"?><svg xmlns="http://www.w3.org/2000/svg" xmlns:xlink="http://www.w3.org/1999/xlink" contentStyleType="text/css" height="419px" preserveAspectRatio="none" style="width:402px;height:419px;background:#FFFFFF;" version="1.1" viewBox="0 0 402 419" width="402px" zoomAndPan="magnify"><defs/><g><!--MD5=[b3059afc5e4d0e90bdba95ad006e93f0]
class TextConsoleSimulator--><g id="elem_TextConsoleSimulator"><rect codeLine="1" fill="#F1F1F1" height="188.875" id="TextConsoleSimulator" rx="2.5" ry="2.5" style="stroke:#181818;stroke-width:0.5;" width="388" x="7" y="115"/><ellipse cx="127.75" cy="131" fill="#ADD1B2" rx="11" ry="11" style="stroke:#181818;stroke-width:1.0;"/><path d="M130.5156,126.875 Q130.6719,126.6563 130.8594,126.5469 Q131.0469,126.4375 131.2656,126.4375 Q131.6406,126.4375 131.875,126.7031 Q132.1094,126.9531 132.1094,127.5625 L132.1094,129.0156 Q132.1094,129.625 131.875,129.8906 Q131.6406,130.1563 131.2656,130.1563 Q130.9219,130.1563 130.7188,129.9531 Q130.5156,129.7656 130.4063,129.25 Q130.3594,128.8906 130.1719,128.7031 Q129.8438,128.3281 129.2344,128.1094 Q128.625,127.8906 128,127.8906 Q127.2344,127.8906 126.5938,128.2188 Q125.9688,128.5469 125.4688,129.2969 Q124.9844,130.0469 124.9844,131.0781 L124.9844,132.1719 Q124.9844,133.4063 125.875,134.2344 Q126.7656,135.0469 128.3594,135.0469 Q129.2969,135.0469 129.9531,134.7969 Q130.3438,134.6406 130.7656,134.2031 Q131.0313,133.9375 131.1719,133.8594 Q131.3281,133.7813 131.5313,133.7813 Q131.8594,133.7813 132.1094,134.0469 Q132.375,134.2969 132.375,134.6406 Q132.375,134.9844 132.0313,135.3906 Q131.5313,135.9688 130.7344,136.2969 Q129.6563,136.75 128.3594,136.75 Q126.8438,136.75 125.6406,136.125 Q124.6563,135.625 123.9688,134.5625 Q123.2813,133.4844 123.2813,132.2031 L123.2813,131.0469 Q123.2813,129.7188 123.8906,128.5781 Q124.5156,127.4219 125.6094,126.8125 Q126.7031,126.1875 127.9375,126.1875 Q128.6719,126.1875 129.3125,126.3594 Q129.9688,126.5156 130.5156,126.875 Z " fill="#000000"/><text fill="#000000" font-family="sans-serif" font-size="14" lengthAdjust="spacing" textLength="138" x="148.25" y="136.7285">TextConsoleSimulator</text><line style="stroke:#181818;stroke-width:0.5;" x1="8" x2="394" y1="147" y2="147"/><rect fill="none" height="6" style="stroke:#C82930;stroke-width:1.0;" width="6" x="15" y="155"/><text fill="#000000" font-family="sans-serif" font-size="14" lengthAdjust="spacing" textLength="147" x="27" y="165.5332">hasTextChanged : bool</text><line style="stroke:#181818;stroke-width:0.5;" x1="8" x2="394" y1="172.6094" y2="172.6094"/><text fill="#000000" font-family="sans-serif" font-size="14" lengthAdjust="spacing" textLength="89" x="13" y="191.1426">Awake() : void</text><text fill="#000000" font-family="sans-serif" font-size="14" lengthAdjust="spacing" textLength="78" x="13" y="208.752">Start() : void</text><text fill="#000000" font-family="sans-serif" font-size="14" lengthAdjust="spacing" textLength="111" x="13" y="226.3613">OnEnable() : void</text><text fill="#000000" font-family="sans-serif" font-size="14" lengthAdjust="spacing" textLength="114" x="13" y="243.9707">OnDisable() : void</text><text fill="#000000" font-family="sans-serif" font-size="14" lengthAdjust="spacing" textLength="250" x="13" y="261.5801">ON_TEXT_CHANGED(obj:Object) : void</text><text fill="#000000" font-family="sans-serif" font-size="14" lengthAdjust="spacing" textLength="376" x="13" y="279.1895">RevealCharacters(textComponent:TMP_Text) : IEnumerator</text><text fill="#000000" font-family="sans-serif" font-size="14" lengthAdjust="spacing" textLength="347" x="13" y="296.7988">RevealWords(textComponent:TMP_Text) : IEnumerator</text></g><!--MD5=[83b3cf3d23d77c6f1e1b5291a241bc2a]
class MonoBehaviour--><g id="elem_MonoBehaviour"><rect fill="#F1F1F1" height="48" id="MonoBehaviour" rx="2.5" ry="2.5" style="stroke:#181818;stroke-width:0.5;" width="131" x="135.5" y="7"/><ellipse cx="150.5" cy="23" fill="#ADD1B2" rx="11" ry="11" style="stroke:#181818;stroke-width:1.0;"/><path d="M153.2656,18.875 Q153.4219,18.6563 153.6094,18.5469 Q153.7969,18.4375 154.0156,18.4375 Q154.3906,18.4375 154.625,18.7031 Q154.8594,18.9531 154.8594,19.5625 L154.8594,21.0156 Q154.8594,21.625 154.625,21.8906 Q154.3906,22.1563 154.0156,22.1563 Q153.6719,22.1563 153.4688,21.9531 Q153.2656,21.7656 153.1563,21.25 Q153.1094,20.8906 152.9219,20.7031 Q152.5938,20.3281 151.9844,20.1094 Q151.375,19.8906 150.75,19.8906 Q149.9844,19.8906 149.3438,20.2188 Q148.7188,20.5469 148.2188,21.2969 Q147.7344,22.0469 147.7344,23.0781 L147.7344,24.1719 Q147.7344,25.4063 148.625,26.2344 Q149.5156,27.0469 151.1094,27.0469 Q152.0469,27.0469 152.7031,26.7969 Q153.0938,26.6406 153.5156,26.2031 Q153.7813,25.9375 153.9219,25.8594 Q154.0781,25.7813 154.2813,25.7813 Q154.6094,25.7813 154.8594,26.0469 Q155.125,26.2969 155.125,26.6406 Q155.125,26.9844 154.7813,27.3906 Q154.2813,27.9688 153.4844,28.2969 Q152.4063,28.75 151.1094,28.75 Q149.5938,28.75 148.3906,28.125 Q147.4063,27.625 146.7188,26.5625 Q146.0313,25.4844 146.0313,24.2031 L146.0313,23.0469 Q146.0313,21.7188 146.6406,20.5781 Q147.2656,19.4219 148.3594,18.8125 Q149.4531,18.1875 150.6875,18.1875 Q151.4219,18.1875 152.0625,18.3594 Q152.7188,18.5156 153.2656,18.875 Z " fill="#000000"/><text fill="#000000" font-family="sans-serif" font-size="14" lengthAdjust="spacing" textLength="99" x="164.5" y="28.7285">MonoBehaviour</text><line style="stroke:#181818;stroke-width:0.5;" x1="136.5" x2="265.5" y1="39" y2="39"/><line style="stroke:#181818;stroke-width:0.5;" x1="136.5" x2="265.5" y1="47" y2="47"/></g><!--MD5=[fa07864ef55e7d1943fa981e1ee9b4e7]
class TMP_Text--><g id="elem_TMP_Text"><rect fill="#F1F1F1" height="48" id="TMP_Text" rx="2.5" ry="2.5" style="stroke:#181818;stroke-width:0.5;" width="96" x="153" y="364"/><ellipse cx="168" cy="380" fill="#ADD1B2" rx="11" ry="11" style="stroke:#181818;stroke-width:1.0;"/><path d="M170.7656,375.875 Q170.9219,375.6563 171.1094,375.5469 Q171.2969,375.4375 171.5156,375.4375 Q171.8906,375.4375 172.125,375.7031 Q172.3594,375.9531 172.3594,376.5625 L172.3594,378.0156 Q172.3594,378.625 172.125,378.8906 Q171.8906,379.1563 171.5156,379.1563 Q171.1719,379.1563 170.9688,378.9531 Q170.7656,378.7656 170.6563,378.25 Q170.6094,377.8906 170.4219,377.7031 Q170.0938,377.3281 169.4844,377.1094 Q168.875,376.8906 168.25,376.8906 Q167.4844,376.8906 166.8438,377.2188 Q166.2188,377.5469 165.7188,378.2969 Q165.2344,379.0469 165.2344,380.0781 L165.2344,381.1719 Q165.2344,382.4063 166.125,383.2344 Q167.0156,384.0469 168.6094,384.0469 Q169.5469,384.0469 170.2031,383.7969 Q170.5938,383.6406 171.0156,383.2031 Q171.2813,382.9375 171.4219,382.8594 Q171.5781,382.7813 171.7813,382.7813 Q172.1094,382.7813 172.3594,383.0469 Q172.625,383.2969 172.625,383.6406 Q172.625,383.9844 172.2813,384.3906 Q171.7813,384.9688 170.9844,385.2969 Q169.9063,385.75 168.6094,385.75 Q167.0938,385.75 165.8906,385.125 Q164.9063,384.625 164.2188,383.5625 Q163.5313,382.4844 163.5313,381.2031 L163.5313,380.0469 Q163.5313,378.7188 164.1406,377.5781 Q164.7656,376.4219 165.8594,375.8125 Q166.9531,375.1875 168.1875,375.1875 Q168.9219,375.1875 169.5625,375.3594 Q170.2188,375.5156 170.7656,375.875 Z " fill="#000000"/><text fill="#000000" font-family="sans-serif" font-size="14" lengthAdjust="spacing" textLength="64" x="182" y="385.7285">TMP_Text</text><line style="stroke:#181818;stroke-width:0.5;" x1="154" x2="248" y1="396" y2="396"/><line style="stroke:#181818;stroke-width:0.5;" x1="154" x2="248" y1="404" y2="404"/></g><!--MD5=[7aa8999f1c652adbd09464cdf12229af]
reverse link MonoBehaviour to TextConsoleSimulator--><g id="link_MonoBehaviour_TextConsoleSimulator"><path codeLine="11" d="M201,75.38 C201,87.4 201,100.93 201,114.65 " fill="none" id="MonoBehaviour-backto-TextConsoleSimulator" style="stroke:#181818;stroke-width:1.0;"/><polygon fill="none" points="194,75.07,201,55.07,208,75.07,194,75.07" style="stroke:#181818;stroke-width:1.0;"/></g><!--MD5=[c427ea5dfdcfcc476b39c79096dcb471]
link TextConsoleSimulator to TMP_Text--><g id="link_TextConsoleSimulator_TMP_Text"><path codeLine="12" d="M201,304.18 C201,324.02 201,343.49 201,358.56 " fill="none" id="TextConsoleSimulator-to-TMP_Text" style="stroke:#181818;stroke-width:1.0;"/><polygon fill="#181818" points="201,363.91,205,354.91,201,358.91,197,354.91,201,363.91" style="stroke:#181818;stroke-width:1.0;"/><text fill="#000000" font-family="sans-serif" font-size="13" lengthAdjust="spacing" textLength="109" x="78.0344" y="353.2271">m_TextComponent</text></g><!--MD5=[b1cb1c3334acfd33b7b6be55f93bb4bf]
@startuml
class TextConsoleSimulator {
    - hasTextChanged : bool
    Awake() : void
    Start() : void
    OnEnable() : void
    OnDisable() : void
    ON_TEXT_CHANGED(obj:Object) : void
    RevealCharacters(textComponent:TMP_Text) : IEnumerator
    RevealWords(textComponent:TMP_Text) : IEnumerator
}
MonoBehaviour <|- - TextConsoleSimulator
TextConsoleSimulator - -> "m_TextComponent" TMP_Text
@enduml

PlantUML version 1.2022.5(Sat Apr 30 12:55:52 CEST 2022)
(GPL source distribution)
Java Runtime: Java(TM) SE Runtime Environment
JVM: Java HotSpot(TM) 64-Bit Server VM
Default Encoding: UTF-8
Language: en
Country: GB
--></g></svg>