<?xml version="1.0" encoding="UTF-8" standalone="no"?><svg xmlns="http://www.w3.org/2000/svg" xmlns:xlink="http://www.w3.org/1999/xlink" contentStyleType="text/css" height="328px" preserveAspectRatio="none" style="width:533px;height:328px;background:#FFFFFF;" version="1.1" viewBox="0 0 533 328" width="533px" zoomAndPan="magnify"><defs/><g><!--MD5=[277879490416f6b0d1b7663815994123]
class UDPClient--><g id="elem_UDPClient"><rect codeLine="1" fill="#F1F1F1" height="206.4844" id="UDPClient" rx="2.5" ry="2.5" style="stroke:#181818;stroke-width:0.5;" width="325" x="197.6297" y="7"/><ellipse cx="323.8797" cy="23" fill="#ADD1B2" rx="11" ry="11" style="stroke:#181818;stroke-width:1.0;"/><path d="M326.6453,18.875 Q326.8016,18.6563 326.9891,18.5469 Q327.1766,18.4375 327.3953,18.4375 Q327.7703,18.4375 328.0047,18.7031 Q328.2391,18.9531 328.2391,19.5625 L328.2391,21.0156 Q328.2391,21.625 328.0047,21.8906 Q327.7703,22.1563 327.3953,22.1563 Q327.0516,22.1563 326.8484,21.9531 Q326.6453,21.7656 326.5359,21.25 Q326.4891,20.8906 326.3016,20.7031 Q325.9734,20.3281 325.3641,20.1094 Q324.7547,19.8906 324.1297,19.8906 Q323.3641,19.8906 322.7234,20.2188 Q322.0984,20.5469 321.5984,21.2969 Q321.1141,22.0469 321.1141,23.0781 L321.1141,24.1719 Q321.1141,25.4063 322.0047,26.2344 Q322.8953,27.0469 324.4891,27.0469 Q325.4266,27.0469 326.0828,26.7969 Q326.4734,26.6406 326.8953,26.2031 Q327.1609,25.9375 327.3016,25.8594 Q327.4578,25.7813 327.6609,25.7813 Q327.9891,25.7813 328.2391,26.0469 Q328.5047,26.2969 328.5047,26.6406 Q328.5047,26.9844 328.1609,27.3906 Q327.6609,27.9688 326.8641,28.2969 Q325.7859,28.75 324.4891,28.75 Q322.9734,28.75 321.7703,28.125 Q320.7859,27.625 320.0984,26.5625 Q319.4109,25.4844 319.4109,24.2031 L319.4109,23.0469 Q319.4109,21.7188 320.0203,20.5781 Q320.6453,19.4219 321.7391,18.8125 Q322.8328,18.1875 324.0672,18.1875 Q324.8016,18.1875 325.4422,18.3594 Q326.0984,18.5156 326.6453,18.875 Z " fill="#000000"/><text fill="#000000" font-family="sans-serif" font-size="14" lengthAdjust="spacing" textLength="64" x="344.3797" y="28.7285">UDPClient</text><line style="stroke:#181818;stroke-width:0.5;" x1="198.6297" x2="521.6297" y1="39" y2="39"/><ellipse cx="208.6297" cy="50" fill="none" rx="3" ry="3" style="stroke:#038048;stroke-width:1.0;"/><text fill="#000000" font-family="sans-serif" font-size="14" lengthAdjust="spacing" textLength="75" x="217.6297" y="57.5332">thisPort : int</text><rect fill="none" height="6" style="stroke:#C82930;stroke-width:1.0;" width="6" x="205.6297" y="64.6094"/><text fill="#000000" font-family="sans-serif" font-size="14" lengthAdjust="spacing" textLength="66" x="217.6297" y="75.1426">PORT : int</text><rect fill="none" height="6" style="stroke:#C82930;stroke-width:1.0;" width="6" x="205.6297" y="82.2188"/><text fill="#000000" font-family="sans-serif" font-size="14" lengthAdjust="spacing" textLength="59" x="217.6297" y="92.752">IP : string</text><line style="stroke:#181818;stroke-width:0.5;" x1="198.6297" x2="521.6297" y1="99.8281" y2="99.8281"/><ellipse cx="208.6297" cy="110.8281" fill="#84BE84" rx="3" ry="3" style="stroke:#038048;stroke-width:1.0;"/><text fill="#000000" font-family="sans-serif" font-size="14" lengthAdjust="spacing" textLength="299" x="217.6297" y="118.3613">UDPClient(ip:string, serverPort:int, localPort:int)</text><ellipse cx="208.6297" cy="128.4375" fill="#84BE84" rx="3" ry="3" style="stroke:#038048;stroke-width:1.0;"/><text fill="#000000" font-family="sans-serif" font-size="14" lengthAdjust="spacing" textLength="98" x="217.6297" y="135.9707">connect() : void</text><text fill="#000000" font-family="sans-serif" font-size="14" lengthAdjust="spacing" textLength="279" x="217.6297" y="153.5801">sendMessageOnUDP(message:string) : void</text><text fill="#000000" font-family="sans-serif" font-size="14" lengthAdjust="spacing" textLength="138" x="217.6297" y="171.1895">sendCallStack() : void</text><text fill="#000000" font-family="sans-serif" font-size="14" lengthAdjust="spacing" textLength="198" x="217.6297" y="188.7988">receiveMessageOnUDP() : void</text><rect fill="#F24D5C" height="6" style="stroke:#C82930;stroke-width:1.0;" width="6" x="205.6297" y="195.875"/><text fill="#000000" font-family="sans-serif" font-size="14" lengthAdjust="spacing" textLength="162" x="217.6297" y="206.4082">OnApplicationQuit() : void</text></g><!--MD5=[e644022de7dea015dd09463c37421447]
class List`1--><g id="elem_List`1"><rect codeLine="12" fill="#F1F1F1" height="48" id="List`1" rx="2.5" ry="2.5" style="stroke:#181818;stroke-width:0.5;" width="78" x="68.1297" y="273"/><ellipse cx="83.1297" cy="289" fill="#ADD1B2" rx="11" ry="11" style="stroke:#181818;stroke-width:1.0;"/><path d="M85.8953,284.875 Q86.0516,284.6563 86.2391,284.5469 Q86.4266,284.4375 86.6453,284.4375 Q87.0203,284.4375 87.2547,284.7031 Q87.4891,284.9531 87.4891,285.5625 L87.4891,287.0156 Q87.4891,287.625 87.2547,287.8906 Q87.0203,288.1563 86.6453,288.1563 Q86.3016,288.1563 86.0984,287.9531 Q85.8953,287.7656 85.7859,287.25 Q85.7391,286.8906 85.5516,286.7031 Q85.2234,286.3281 84.6141,286.1094 Q84.0047,285.8906 83.3797,285.8906 Q82.6141,285.8906 81.9734,286.2188 Q81.3484,286.5469 80.8484,287.2969 Q80.3641,288.0469 80.3641,289.0781 L80.3641,290.1719 Q80.3641,291.4063 81.2547,292.2344 Q82.1453,293.0469 83.7391,293.0469 Q84.6766,293.0469 85.3328,292.7969 Q85.7234,292.6406 86.1453,292.2031 Q86.4109,291.9375 86.5516,291.8594 Q86.7078,291.7813 86.9109,291.7813 Q87.2391,291.7813 87.4891,292.0469 Q87.7547,292.2969 87.7547,292.6406 Q87.7547,292.9844 87.4109,293.3906 Q86.9109,293.9688 86.1141,294.2969 Q85.0359,294.75 83.7391,294.75 Q82.2234,294.75 81.0203,294.125 Q80.0359,293.625 79.3484,292.5625 Q78.6609,291.4844 78.6609,290.2031 L78.6609,289.0469 Q78.6609,287.7188 79.2703,286.5781 Q79.8953,285.4219 80.9891,284.8125 Q82.0828,284.1875 83.3172,284.1875 Q84.0516,284.1875 84.6922,284.3594 Q85.3484,284.5156 85.8953,284.875 Z " fill="#000000"/><text fill="#000000" font-family="sans-serif" font-size="14" lengthAdjust="spacing" textLength="35" x="97.1297" y="294.7285">List`1</text><rect fill="#FFFFFF" height="17.0938" style="stroke:#000000;stroke-width:1.0;stroke-dasharray:2.0,2.0;" width="9" x="140.1297" y="270"/><text fill="#000000" font-family="sans-serif" font-size="12" font-style="italic" lengthAdjust="spacing" textLength="7" x="141.1297" y="283.457">T</text><line style="stroke:#181818;stroke-width:0.5;" x1="69.1297" x2="145.1297" y1="305" y2="305"/><line style="stroke:#181818;stroke-width:0.5;" x1="69.1297" x2="145.1297" y1="313" y2="313"/></g><!--MD5=[516b15f679df170f3a7c6abb0d71bb66]
class UdpClient--><g id="elem_UdpClient"><rect fill="#F1F1F1" height="48" id="UdpClient" rx="2.5" ry="2.5" style="stroke:#181818;stroke-width:0.5;" width="93" x="181.6297" y="273"/><ellipse cx="196.6297" cy="289" fill="#ADD1B2" rx="11" ry="11" style="stroke:#181818;stroke-width:1.0;"/><path d="M199.3953,284.875 Q199.5516,284.6563 199.7391,284.5469 Q199.9266,284.4375 200.1453,284.4375 Q200.5203,284.4375 200.7547,284.7031 Q200.9891,284.9531 200.9891,285.5625 L200.9891,287.0156 Q200.9891,287.625 200.7547,287.8906 Q200.5203,288.1563 200.1453,288.1563 Q199.8016,288.1563 199.5984,287.9531 Q199.3953,287.7656 199.2859,287.25 Q199.2391,286.8906 199.0516,286.7031 Q198.7234,286.3281 198.1141,286.1094 Q197.5047,285.8906 196.8797,285.8906 Q196.1141,285.8906 195.4734,286.2188 Q194.8484,286.5469 194.3484,287.2969 Q193.8641,288.0469 193.8641,289.0781 L193.8641,290.1719 Q193.8641,291.4063 194.7547,292.2344 Q195.6453,293.0469 197.2391,293.0469 Q198.1766,293.0469 198.8328,292.7969 Q199.2234,292.6406 199.6453,292.2031 Q199.9109,291.9375 200.0516,291.8594 Q200.2078,291.7813 200.4109,291.7813 Q200.7391,291.7813 200.9891,292.0469 Q201.2547,292.2969 201.2547,292.6406 Q201.2547,292.9844 200.9109,293.3906 Q200.4109,293.9688 199.6141,294.2969 Q198.5359,294.75 197.2391,294.75 Q195.7234,294.75 194.5203,294.125 Q193.5359,293.625 192.8484,292.5625 Q192.1609,291.4844 192.1609,290.2031 L192.1609,289.0469 Q192.1609,287.7188 192.7703,286.5781 Q193.3953,285.4219 194.4891,284.8125 Q195.5828,284.1875 196.8172,284.1875 Q197.5516,284.1875 198.1922,284.3594 Q198.8484,284.5156 199.3953,284.875 Z " fill="#000000"/><text fill="#000000" font-family="sans-serif" font-size="14" lengthAdjust="spacing" textLength="61" x="210.6297" y="294.7285">UdpClient</text><line style="stroke:#181818;stroke-width:0.5;" x1="182.6297" x2="273.6297" y1="305" y2="305"/><line style="stroke:#181818;stroke-width:0.5;" x1="182.6297" x2="273.6297" y1="313" y2="313"/></g><!--MD5=[e0097a9d99853eb6f3d156052e1d1ca5]
class IPEndPoint--><g id="elem_IPEndPoint"><rect fill="#F1F1F1" height="48" id="IPEndPoint" rx="2.5" ry="2.5" style="stroke:#181818;stroke-width:0.5;" width="101" x="309.6297" y="273"/><ellipse cx="324.6297" cy="289" fill="#ADD1B2" rx="11" ry="11" style="stroke:#181818;stroke-width:1.0;"/><path d="M327.3953,284.875 Q327.5516,284.6563 327.7391,284.5469 Q327.9266,284.4375 328.1453,284.4375 Q328.5203,284.4375 328.7547,284.7031 Q328.9891,284.9531 328.9891,285.5625 L328.9891,287.0156 Q328.9891,287.625 328.7547,287.8906 Q328.5203,288.1563 328.1453,288.1563 Q327.8016,288.1563 327.5984,287.9531 Q327.3953,287.7656 327.2859,287.25 Q327.2391,286.8906 327.0516,286.7031 Q326.7234,286.3281 326.1141,286.1094 Q325.5047,285.8906 324.8797,285.8906 Q324.1141,285.8906 323.4734,286.2188 Q322.8484,286.5469 322.3484,287.2969 Q321.8641,288.0469 321.8641,289.0781 L321.8641,290.1719 Q321.8641,291.4063 322.7547,292.2344 Q323.6453,293.0469 325.2391,293.0469 Q326.1766,293.0469 326.8328,292.7969 Q327.2234,292.6406 327.6453,292.2031 Q327.9109,291.9375 328.0516,291.8594 Q328.2078,291.7813 328.4109,291.7813 Q328.7391,291.7813 328.9891,292.0469 Q329.2547,292.2969 329.2547,292.6406 Q329.2547,292.9844 328.9109,293.3906 Q328.4109,293.9688 327.6141,294.2969 Q326.5359,294.75 325.2391,294.75 Q323.7234,294.75 322.5203,294.125 Q321.5359,293.625 320.8484,292.5625 Q320.1609,291.4844 320.1609,290.2031 L320.1609,289.0469 Q320.1609,287.7188 320.7703,286.5781 Q321.3953,285.4219 322.4891,284.8125 Q323.5828,284.1875 324.8172,284.1875 Q325.5516,284.1875 326.1922,284.3594 Q326.8484,284.5156 327.3953,284.875 Z " fill="#000000"/><text fill="#000000" font-family="sans-serif" font-size="14" lengthAdjust="spacing" textLength="69" x="338.6297" y="294.7285">IPEndPoint</text><line style="stroke:#181818;stroke-width:0.5;" x1="310.6297" x2="409.6297" y1="305" y2="305"/><line style="stroke:#181818;stroke-width:0.5;" x1="310.6297" x2="409.6297" y1="313" y2="313"/></g><!--MD5=[948346f2dfe9866ea883595a582714fa]
class Thread--><g id="elem_Thread"><rect fill="#F1F1F1" height="48" id="Thread" rx="2.5" ry="2.5" style="stroke:#181818;stroke-width:0.5;" width="78" x="446.1297" y="273"/><ellipse cx="461.1297" cy="289" fill="#ADD1B2" rx="11" ry="11" style="stroke:#181818;stroke-width:1.0;"/><path d="M463.8953,284.875 Q464.0516,284.6563 464.2391,284.5469 Q464.4266,284.4375 464.6453,284.4375 Q465.0203,284.4375 465.2547,284.7031 Q465.4891,284.9531 465.4891,285.5625 L465.4891,287.0156 Q465.4891,287.625 465.2547,287.8906 Q465.0203,288.1563 464.6453,288.1563 Q464.3016,288.1563 464.0984,287.9531 Q463.8953,287.7656 463.7859,287.25 Q463.7391,286.8906 463.5516,286.7031 Q463.2234,286.3281 462.6141,286.1094 Q462.0047,285.8906 461.3797,285.8906 Q460.6141,285.8906 459.9734,286.2188 Q459.3484,286.5469 458.8484,287.2969 Q458.3641,288.0469 458.3641,289.0781 L458.3641,290.1719 Q458.3641,291.4063 459.2547,292.2344 Q460.1453,293.0469 461.7391,293.0469 Q462.6766,293.0469 463.3328,292.7969 Q463.7234,292.6406 464.1453,292.2031 Q464.4109,291.9375 464.5516,291.8594 Q464.7078,291.7813 464.9109,291.7813 Q465.2391,291.7813 465.4891,292.0469 Q465.7547,292.2969 465.7547,292.6406 Q465.7547,292.9844 465.4109,293.3906 Q464.9109,293.9688 464.1141,294.2969 Q463.0359,294.75 461.7391,294.75 Q460.2234,294.75 459.0203,294.125 Q458.0359,293.625 457.3484,292.5625 Q456.6609,291.4844 456.6609,290.2031 L456.6609,289.0469 Q456.6609,287.7188 457.2703,286.5781 Q457.8953,285.4219 458.9891,284.8125 Q460.0828,284.1875 461.3172,284.1875 Q462.0516,284.1875 462.6922,284.3594 Q463.3484,284.5156 463.8953,284.875 Z " fill="#000000"/><text fill="#000000" font-family="sans-serif" font-size="14" lengthAdjust="spacing" textLength="46" x="475.1297" y="294.7285">Thread</text><line style="stroke:#181818;stroke-width:0.5;" x1="447.1297" x2="523.1297" y1="305" y2="305"/><line style="stroke:#181818;stroke-width:0.5;" x1="447.1297" x2="523.1297" y1="313" y2="313"/></g><!--MD5=[b58f59440a01b64a2935b8452ac8d3c4]
link UDPClient to List`1--><g id="link_UDPClient_List`1"><path codeLine="14" d="M220.3097,213.24 C191.5997,234.24 163.8097,254.55 142.9597,269.8 " fill="none" id="UDPClient-to-List`1" style="stroke:#181818;stroke-width:1.0;"/><polygon fill="#181818" points="138.8797,272.79,148.5054,270.7052,142.9153,269.8381,143.7824,264.2481,138.8797,272.79" style="stroke:#181818;stroke-width:1.0;"/><text fill="#000000" font-family="sans-serif" font-size="13" lengthAdjust="spacing" textLength="125" x="6" y="262.0763">udpCallStack&lt;string&gt;</text></g><!--MD5=[ae244609b88407fd4daf55214ebe6eac]
link UDPClient to UdpClient--><g id="link_UDPClient_UdpClient"><path codeLine="15" d="M287.1797,213.24 C272.5797,233.71 258.4297,253.54 247.6497,268.65 " fill="none" id="UDPClient-to-UdpClient" style="stroke:#181818;stroke-width:1.0;"/><polygon fill="#181818" points="244.6997,272.79,253.1791,267.7801,247.6005,268.7175,246.6631,263.1388,244.6997,272.79" style="stroke:#181818;stroke-width:1.0;"/><text fill="#000000" font-family="sans-serif" font-size="13" lengthAdjust="spacing" textLength="54" x="188.027" y="262.0763">updClient</text></g><!--MD5=[a5f79274b72189ca30a7fac0c96dcb3f]
link UDPClient to IPEndPoint--><g id="link_UDPClient_IPEndPoint"><path codeLine="16" d="M360.1297,213.24 C360.1297,233.19 360.1297,252.52 360.1297,267.48 " fill="none" id="UDPClient-to-IPEndPoint" style="stroke:#181818;stroke-width:1.0;"/><polygon fill="#181818" points="360.1297,272.79,364.1297,263.79,360.1297,267.79,356.1297,263.79,360.1297,272.79" style="stroke:#181818;stroke-width:1.0;"/><text fill="#000000" font-family="sans-serif" font-size="13" lengthAdjust="spacing" textLength="93" x="281.1168" y="262.1854">remoteEndPoint</text></g><!--MD5=[5c0e233fafc0dc37a04e67fe60a44113]
link UDPClient to Thread--><g id="link_UDPClient_Thread"><path codeLine="17" d="M416.5297,213.24 C430.6297,233.71 445.1297,253.54 457.2897,268.65 " fill="none" id="UDPClient-to-Thread" style="stroke:#181818;stroke-width:1.0;"/><polygon fill="#181818" points="460.6497,272.79,458.0617,263.2873,457.4897,268.9151,451.8619,268.3432,460.6497,272.79" style="stroke:#181818;stroke-width:1.0;"/><text fill="#000000" font-family="sans-serif" font-size="13" lengthAdjust="spacing" textLength="39" x="410.3798" y="262.0763">sender</text></g><!--MD5=[5c0e233fafc0dc37a04e67fe60a44113]
link UDPClient to Thread--><g id="link_UDPClient_Thread"><path codeLine="18" d="M442.6497,213.24 C456.0797,233.54 468.2097,253.2 476.3597,268.26 " fill="none" id="UDPClient-to-Thread-1" style="stroke:#181818;stroke-width:1.0;"/><polygon fill="#181818" points="478.7597,272.79,478.0736,262.9651,476.4157,268.3735,471.0072,266.7155,478.7597,272.79" style="stroke:#181818;stroke-width:1.0;"/><text fill="#000000" font-family="sans-serif" font-size="13" lengthAdjust="spacing" textLength="44" x="482.7649" y="262.0763">receiver</text></g><!--MD5=[cc7f856882212d7f216deff312e9795b]
@startuml
class UDPClient {
    + thisPort : int
    - PORT : int
    - IP : string
    + UDPClient(ip:string, serverPort:int, localPort:int)
    + connect() : void
    sendMessageOnUDP(message:string) : void
    sendCallStack() : void
    receiveMessageOnUDP() : void
    - OnApplicationQuit() : void
}
class "List`1"<T> {
}
UDPClient - -> "udpCallStack<string>" "List`1"
UDPClient - -> "updClient" UdpClient
UDPClient - -> "remoteEndPoint" IPEndPoint
UDPClient - -> "sender" Thread
UDPClient - -> "receiver" Thread
@enduml

PlantUML version 1.2022.5(Sat Apr 30 12:55:52 CEST 2022)
(GPL source distribution)
Java Runtime: Java(TM) SE Runtime Environment
JVM: Java HotSpot(TM) 64-Bit Server VM
Default Encoding: UTF-8
Language: en
Country: GB
--></g></svg>