<?xml version="1.0" encoding="UTF-8" standalone="no"?><svg xmlns="http://www.w3.org/2000/svg" xmlns:xlink="http://www.w3.org/1999/xlink" contentStyleType="text/css" height="416px" preserveAspectRatio="none" style="width:746px;height:416px;background:#FFFFFF;" version="1.1" viewBox="0 0 746 416" width="746px" zoomAndPan="magnify"><defs/><g><!--MD5=[947c6b80fe9fe39d68a8daa1e861a852]
class MouseFlightController--><g id="elem_MouseFlightController"><rect codeLine="1" fill="#F1F1F1" height="294.5313" id="MouseFlightController" rx="2.5" ry="2.5" style="stroke:#181818;stroke-width:0.5;" width="466" x="7" y="115"/><ellipse cx="166.25" cy="131" fill="#ADD1B2" rx="11" ry="11" style="stroke:#181818;stroke-width:1.0;"/><path d="M169.0156,126.875 Q169.1719,126.6563 169.3594,126.5469 Q169.5469,126.4375 169.7656,126.4375 Q170.1406,126.4375 170.375,126.7031 Q170.6094,126.9531 170.6094,127.5625 L170.6094,129.0156 Q170.6094,129.625 170.375,129.8906 Q170.1406,130.1563 169.7656,130.1563 Q169.4219,130.1563 169.2188,129.9531 Q169.0156,129.7656 168.9063,129.25 Q168.8594,128.8906 168.6719,128.7031 Q168.3438,128.3281 167.7344,128.1094 Q167.125,127.8906 166.5,127.8906 Q165.7344,127.8906 165.0938,128.2188 Q164.4688,128.5469 163.9688,129.2969 Q163.4844,130.0469 163.4844,131.0781 L163.4844,132.1719 Q163.4844,133.4063 164.375,134.2344 Q165.2656,135.0469 166.8594,135.0469 Q167.7969,135.0469 168.4531,134.7969 Q168.8438,134.6406 169.2656,134.2031 Q169.5313,133.9375 169.6719,133.8594 Q169.8281,133.7813 170.0313,133.7813 Q170.3594,133.7813 170.6094,134.0469 Q170.875,134.2969 170.875,134.6406 Q170.875,134.9844 170.5313,135.3906 Q170.0313,135.9688 169.2344,136.2969 Q168.1563,136.75 166.8594,136.75 Q165.3438,136.75 164.1406,136.125 Q163.1563,135.625 162.4688,134.5625 Q161.7813,133.4844 161.7813,132.2031 L161.7813,131.0469 Q161.7813,129.7188 162.3906,128.5781 Q163.0156,127.4219 164.1094,126.8125 Q165.2031,126.1875 166.4375,126.1875 Q167.1719,126.1875 167.8125,126.3594 Q168.4688,126.5156 169.0156,126.875 Z " fill="#000000"/><text fill="#000000" font-family="sans-serif" font-size="14" lengthAdjust="spacing" textLength="139" x="186.75" y="136.7285">MouseFlightController</text><line style="stroke:#181818;stroke-width:0.5;" x1="8" x2="472" y1="147" y2="147"/><rect fill="none" height="6" style="stroke:#C82930;stroke-width:1.0;" width="6" x="15" y="155"/><text fill="#000000" font-family="sans-serif" font-size="14" lengthAdjust="spacing" textLength="137" x="27" y="165.5332">useFixed : bool = true</text><rect fill="none" height="6" style="stroke:#C82930;stroke-width:1.0;" width="6" x="15" y="172.6094"/><text fill="#000000" font-family="sans-serif" font-size="14" lengthAdjust="spacing" textLength="182" x="27" y="183.1426">camSmoothSpeed : float = 5f</text><rect fill="none" height="6" style="stroke:#C82930;stroke-width:1.0;" width="6" x="15" y="190.2188"/><text fill="#000000" font-family="sans-serif" font-size="14" lengthAdjust="spacing" textLength="172" x="27" y="200.752">mouseSensitivity : float = 3f</text><rect fill="none" height="6" style="stroke:#C82930;stroke-width:1.0;" width="6" x="15" y="207.8281"/><text fill="#000000" font-family="sans-serif" font-size="14" lengthAdjust="spacing" textLength="160" x="27" y="218.3613">aimDistance : float = 500f</text><rect fill="none" height="6" style="stroke:#C82930;stroke-width:1.0;" width="6" x="15" y="225.4375"/><text fill="#000000" font-family="sans-serif" font-size="14" lengthAdjust="spacing" textLength="182" x="27" y="235.9707">showDebugInfo : bool = false</text><rect fill="none" height="6" style="stroke:#C82930;stroke-width:1.0;" width="6" x="15" y="243.0469"/><text fill="#000000" font-family="sans-serif" font-size="14" lengthAdjust="spacing" textLength="204" x="27" y="253.5801">isMouseAimFrozen : bool = false</text><line style="stroke:#181818;stroke-width:0.5;" x1="8" x2="472" y1="260.6563" y2="260.6563"/><rect fill="#F24D5C" height="6" style="stroke:#C82930;stroke-width:1.0;" width="6" x="15" y="268.6563"/><text fill="#000000" font-family="sans-serif" font-size="14" lengthAdjust="spacing" textLength="78" x="27" y="279.1895">Start() : void</text><rect fill="#F24D5C" height="6" style="stroke:#C82930;stroke-width:1.0;" width="6" x="15" y="286.2656"/><text fill="#000000" font-family="sans-serif" font-size="14" lengthAdjust="spacing" textLength="93" x="27" y="296.7988">Update() : void</text><rect fill="#F24D5C" height="6" style="stroke:#C82930;stroke-width:1.0;" width="6" x="15" y="303.875"/><text fill="#000000" font-family="sans-serif" font-size="14" lengthAdjust="spacing" textLength="127" x="27" y="314.4082">FixedUpdate() : void</text><rect fill="#F24D5C" height="6" style="stroke:#C82930;stroke-width:1.0;" width="6" x="15" y="321.4844"/><text fill="#000000" font-family="sans-serif" font-size="14" lengthAdjust="spacing" textLength="111" x="27" y="332.0176">RotateRig() : void</text><rect fill="#F24D5C" height="6" style="stroke:#C82930;stroke-width:1.0;" width="6" x="15" y="339.0938"/><text fill="#000000" font-family="sans-serif" font-size="14" lengthAdjust="spacing" textLength="227" x="27" y="349.627">GetFrozenMouseAimPos() : Vector3</text><rect fill="#F24D5C" height="6" style="stroke:#C82930;stroke-width:1.0;" width="6" x="15" y="356.7031"/><text fill="#000000" font-family="sans-serif" font-size="14" lengthAdjust="spacing" textLength="167" x="27" y="367.2363">UpdateCameraPos() : void</text><rect fill="#F24D5C" height="6" style="stroke:#C82930;stroke-width:1.0;" width="6" x="15" y="374.3125"/><text fill="#000000" font-family="sans-serif" font-size="14" lengthAdjust="spacing" textLength="440" x="27" y="384.8457">Damp(a:Quaternion, b:Quaternion, lambda:float, dt:float) : Quaternion</text><rect fill="#F24D5C" height="6" style="stroke:#C82930;stroke-width:1.0;" width="6" x="15" y="391.9219"/><text fill="#000000" font-family="sans-serif" font-size="14" lengthAdjust="spacing" textLength="145" x="27" y="402.4551">OnDrawGizmos() : void</text></g><!--MD5=[83b3cf3d23d77c6f1e1b5291a241bc2a]
class MonoBehaviour--><g id="elem_MonoBehaviour"><rect fill="#F1F1F1" height="48" id="MonoBehaviour" rx="2.5" ry="2.5" style="stroke:#181818;stroke-width:0.5;" width="131" x="174.5" y="7"/><ellipse cx="189.5" cy="23" fill="#ADD1B2" rx="11" ry="11" style="stroke:#181818;stroke-width:1.0;"/><path d="M192.2656,18.875 Q192.4219,18.6563 192.6094,18.5469 Q192.7969,18.4375 193.0156,18.4375 Q193.3906,18.4375 193.625,18.7031 Q193.8594,18.9531 193.8594,19.5625 L193.8594,21.0156 Q193.8594,21.625 193.625,21.8906 Q193.3906,22.1563 193.0156,22.1563 Q192.6719,22.1563 192.4688,21.9531 Q192.2656,21.7656 192.1563,21.25 Q192.1094,20.8906 191.9219,20.7031 Q191.5938,20.3281 190.9844,20.1094 Q190.375,19.8906 189.75,19.8906 Q188.9844,19.8906 188.3438,20.2188 Q187.7188,20.5469 187.2188,21.2969 Q186.7344,22.0469 186.7344,23.0781 L186.7344,24.1719 Q186.7344,25.4063 187.625,26.2344 Q188.5156,27.0469 190.1094,27.0469 Q191.0469,27.0469 191.7031,26.7969 Q192.0938,26.6406 192.5156,26.2031 Q192.7813,25.9375 192.9219,25.8594 Q193.0781,25.7813 193.2813,25.7813 Q193.6094,25.7813 193.8594,26.0469 Q194.125,26.2969 194.125,26.6406 Q194.125,26.9844 193.7813,27.3906 Q193.2813,27.9688 192.4844,28.2969 Q191.4063,28.75 190.1094,28.75 Q188.5938,28.75 187.3906,28.125 Q186.4063,27.625 185.7188,26.5625 Q185.0313,25.4844 185.0313,24.2031 L185.0313,23.0469 Q185.0313,21.7188 185.6406,20.5781 Q186.2656,19.4219 187.3594,18.8125 Q188.4531,18.1875 189.6875,18.1875 Q190.4219,18.1875 191.0625,18.3594 Q191.7188,18.5156 192.2656,18.875 Z " fill="#000000"/><text fill="#000000" font-family="sans-serif" font-size="14" lengthAdjust="spacing" textLength="99" x="203.5" y="28.7285">MonoBehaviour</text><line style="stroke:#181818;stroke-width:0.5;" x1="175.5" x2="304.5" y1="39" y2="39"/><line style="stroke:#181818;stroke-width:0.5;" x1="175.5" x2="304.5" y1="47" y2="47"/></g><!--MD5=[004b1d6c4ca8aad4ba8b586a335ed4f3]
class Transform--><g id="elem_Transform"><rect fill="#F1F1F1" height="48" id="Transform" rx="2.5" ry="2.5" style="stroke:#181818;stroke-width:0.5;" width="97" x="624.5" y="238.5"/><ellipse cx="639.5" cy="254.5" fill="#ADD1B2" rx="11" ry="11" style="stroke:#181818;stroke-width:1.0;"/><path d="M642.2656,250.375 Q642.4219,250.1563 642.6094,250.0469 Q642.7969,249.9375 643.0156,249.9375 Q643.3906,249.9375 643.625,250.2031 Q643.8594,250.4531 643.8594,251.0625 L643.8594,252.5156 Q643.8594,253.125 643.625,253.3906 Q643.3906,253.6563 643.0156,253.6563 Q642.6719,253.6563 642.4688,253.4531 Q642.2656,253.2656 642.1563,252.75 Q642.1094,252.3906 641.9219,252.2031 Q641.5938,251.8281 640.9844,251.6094 Q640.375,251.3906 639.75,251.3906 Q638.9844,251.3906 638.3438,251.7188 Q637.7188,252.0469 637.2188,252.7969 Q636.7344,253.5469 636.7344,254.5781 L636.7344,255.6719 Q636.7344,256.9063 637.625,257.7344 Q638.5156,258.5469 640.1094,258.5469 Q641.0469,258.5469 641.7031,258.2969 Q642.0938,258.1406 642.5156,257.7031 Q642.7813,257.4375 642.9219,257.3594 Q643.0781,257.2813 643.2813,257.2813 Q643.6094,257.2813 643.8594,257.5469 Q644.125,257.7969 644.125,258.1406 Q644.125,258.4844 643.7813,258.8906 Q643.2813,259.4688 642.4844,259.7969 Q641.4063,260.25 640.1094,260.25 Q638.5938,260.25 637.3906,259.625 Q636.4063,259.125 635.7188,258.0625 Q635.0313,256.9844 635.0313,255.7031 L635.0313,254.5469 Q635.0313,253.2188 635.6406,252.0781 Q636.2656,250.9219 637.3594,250.3125 Q638.4531,249.6875 639.6875,249.6875 Q640.4219,249.6875 641.0625,249.8594 Q641.7188,250.0156 642.2656,250.375 Z " fill="#000000"/><text fill="#000000" font-family="sans-serif" font-size="14" lengthAdjust="spacing" textLength="65" x="653.5" y="260.2285">Transform</text><line style="stroke:#181818;stroke-width:0.5;" x1="625.5" x2="720.5" y1="270.5" y2="270.5"/><line style="stroke:#181818;stroke-width:0.5;" x1="625.5" x2="720.5" y1="278.5" y2="278.5"/></g><!--MD5=[65d619c042c23702cef2ca07d67b1cf6]
class Vector3--><g id="elem_Vector3"><rect fill="#F1F1F1" height="48" id="Vector3" rx="2.5" ry="2.5" style="stroke:#181818;stroke-width:0.5;" width="81" x="508.5" y="238.5"/><ellipse cx="523.5" cy="254.5" fill="#ADD1B2" rx="11" ry="11" style="stroke:#181818;stroke-width:1.0;"/><path d="M526.2656,250.375 Q526.4219,250.1563 526.6094,250.0469 Q526.7969,249.9375 527.0156,249.9375 Q527.3906,249.9375 527.625,250.2031 Q527.8594,250.4531 527.8594,251.0625 L527.8594,252.5156 Q527.8594,253.125 527.625,253.3906 Q527.3906,253.6563 527.0156,253.6563 Q526.6719,253.6563 526.4688,253.4531 Q526.2656,253.2656 526.1563,252.75 Q526.1094,252.3906 525.9219,252.2031 Q525.5938,251.8281 524.9844,251.6094 Q524.375,251.3906 523.75,251.3906 Q522.9844,251.3906 522.3438,251.7188 Q521.7188,252.0469 521.2188,252.7969 Q520.7344,253.5469 520.7344,254.5781 L520.7344,255.6719 Q520.7344,256.9063 521.625,257.7344 Q522.5156,258.5469 524.1094,258.5469 Q525.0469,258.5469 525.7031,258.2969 Q526.0938,258.1406 526.5156,257.7031 Q526.7813,257.4375 526.9219,257.3594 Q527.0781,257.2813 527.2813,257.2813 Q527.6094,257.2813 527.8594,257.5469 Q528.125,257.7969 528.125,258.1406 Q528.125,258.4844 527.7813,258.8906 Q527.2813,259.4688 526.4844,259.7969 Q525.4063,260.25 524.1094,260.25 Q522.5938,260.25 521.3906,259.625 Q520.4063,259.125 519.7188,258.0625 Q519.0313,256.9844 519.0313,255.7031 L519.0313,254.5469 Q519.0313,253.2188 519.6406,252.0781 Q520.2656,250.9219 521.3594,250.3125 Q522.4531,249.6875 523.6875,249.6875 Q524.4219,249.6875 525.0625,249.8594 Q525.7188,250.0156 526.2656,250.375 Z " fill="#000000"/><text fill="#000000" font-family="sans-serif" font-size="14" lengthAdjust="spacing" textLength="49" x="537.5" y="260.2285">Vector3</text><line style="stroke:#181818;stroke-width:0.5;" x1="509.5" x2="588.5" y1="270.5" y2="270.5"/><line style="stroke:#181818;stroke-width:0.5;" x1="509.5" x2="588.5" y1="278.5" y2="278.5"/></g><!--MD5=[eb9a882c1ac6c902e34c82bd8bd29e80]
reverse link MonoBehaviour to MouseFlightController--><g id="link_MonoBehaviour_MouseFlightController"><path codeLine="17" d="M240,75.63 C240,87.41 240,100.84 240,114.96 " fill="none" id="MonoBehaviour-backto-MouseFlightController" style="stroke:#181818;stroke-width:1.0;"/><polygon fill="none" points="233,75.27,240,55.27,247,75.27,233,75.27" style="stroke:#181818;stroke-width:1.0;"/></g><!--MD5=[b0a61ee201cc0ff960e15c41947f5825]
link MouseFlightController to Transform--><g id="link_MouseFlightController_Transform"><path codeLine="18" d="M474.4021,110.6364 C474.4021,110.6364 490.45,105.15 498,103 C519.8,96.8 580.34,91.71 600,103 C643.37,127.91 661.14,186.5 668.3,225.31 " fill="none" id="MouseFlightController-Transform" style="stroke:#181818;stroke-width:1.0;"/><polygon fill="#181818" points="670.46,238.37,672.9432,228.8393,669.6469,233.4366,665.0497,230.1403,670.46,238.37" style="stroke:#181818;stroke-width:1.0;"/><line style="stroke:#181818;stroke-width:1.0;" x1="669.6469" x2="668.34" y1="233.4366" y2="225.54"/><polygon fill="none" points="463.17,114.86,470.1939,116.4922,474.4021,110.6364,467.3782,109.0041,463.17,114.86" style="stroke:#181818;stroke-width:1.0;"/><text fill="#000000" font-family="sans-serif" font-size="13" lengthAdjust="spacing" textLength="39" x="674.806" y="227.6768">aircraft</text></g><!--MD5=[b0a61ee201cc0ff960e15c41947f5825]
link MouseFlightController to Transform--><g id="link_MouseFlightController_Transform"><path codeLine="19" d="M454.7392,109.8962 C454.7392,109.8962 488.56,95.86 505,91 C542.51,79.92 559.09,71.52 593,91 C640.84,118.48 660.34,183.7 668.1,225.32 " fill="none" id="MouseFlightController-Transform-1" style="stroke:#181818;stroke-width:1.0;"/><polygon fill="#181818" points="670.26,238.19,672.7105,228.6509,669.43,233.2594,664.8215,229.9789,670.26,238.19" style="stroke:#181818;stroke-width:1.0;"/><line style="stroke:#181818;stroke-width:1.0;" x1="669.43" x2="668.105" y1="233.2594" y2="225.375"/><polygon fill="none" points="443.86,114.96,450.9876,116.0545,454.7392,109.8962,447.6117,108.8017,443.86,114.96" style="stroke:#181818;stroke-width:1.0;"/><text fill="#000000" font-family="sans-serif" font-size="13" lengthAdjust="spacing" textLength="62" x="599.6141" y="227.4507">mouseAim</text></g><!--MD5=[b0a61ee201cc0ff960e15c41947f5825]
link MouseFlightController to Transform--><g id="link_MouseFlightController_Transform"><path codeLine="20" d="M439.8858,109.2597 C439.8858,109.2597 487.88,86.37 512,79 C543.45,69.38 557.48,62.62 586,79 C638.25,109.01 659.51,180.74 667.87,225.11 " fill="none" id="MouseFlightController-Transform-2" style="stroke:#181818;stroke-width:1.0;"/><polygon fill="#181818" points="670.12,238.19,672.5395,228.6429,669.274,233.2621,664.6548,229.9966,670.12,238.19" style="stroke:#181818;stroke-width:1.0;"/><line style="stroke:#181818;stroke-width:1.0;" x1="669.274" x2="667.915" y1="233.2621" y2="225.38"/><polygon fill="none" points="429.31,114.93,436.488,115.6201,439.8858,109.2597,432.7078,108.5696,429.31,114.93" style="stroke:#181818;stroke-width:1.0;"/><text fill="#000000" font-family="sans-serif" font-size="13" lengthAdjust="spacing" textLength="62" x="677.3258" y="227.4507">cameraRig</text></g><!--MD5=[b0a61ee201cc0ff960e15c41947f5825]
link MouseFlightController to Transform--><g id="link_MouseFlightController_Transform"><path codeLine="21" d="M427.8792,108.6916 C427.8792,108.6916 488.13,76.74 519,67 C544.43,58.98 555.88,53.72 579,67 C635.92,99.69 658.91,178.49 667.78,225.46 " fill="none" id="MouseFlightController-Transform-3" style="stroke:#181818;stroke-width:1.0;"/><polygon fill="#181818" points="670.02,238.36,672.4291,228.8103,669.1686,233.433,664.5459,230.1725,670.02,238.36" style="stroke:#181818;stroke-width:1.0;"/><line style="stroke:#181818;stroke-width:1.0;" x1="669.1686" x2="667.795" y1="233.433" y2="225.555"/><polygon fill="none" points="417.58,114.85,424.7824,115.2039,427.8792,108.6916,420.6768,108.3377,417.58,114.85" style="stroke:#181818;stroke-width:1.0;"/><text fill="#000000" font-family="sans-serif" font-size="13" lengthAdjust="spacing" textLength="25" x="641.0532" y="227.6643">cam</text></g><!--MD5=[e05184fd6c2a50d72175c127a4209454]
link MouseFlightController to Vector3--><g id="link_MouseFlightController_Vector3"><path codeLine="22" d="M482.7336,337.0145 C482.7336,337.0145 509.51,312.6 522.45,297.26 " fill="none" id="MouseFlightController-Vector3" style="stroke:#181818;stroke-width:1.0;"/><polygon fill="#181818" points="530.95,286.84,522.1619,291.2863,527.7898,290.7147,528.3614,296.3426,530.95,286.84" style="stroke:#181818;stroke-width:1.0;"/><line style="stroke:#181818;stroke-width:1.0;" x1="527.7898" x2="522.735" y1="290.7147" y2="296.905"/><polygon fill="none" points="473.26,344.38,480.452,343.8552,482.7336,337.0145,475.5417,337.5394,473.26,344.38" style="stroke:#181818;stroke-width:1.0;"/><text fill="#000000" font-family="sans-serif" font-size="13" lengthAdjust="spacing" textLength="86" x="536.148" y="308.0421">frozenDirection</text></g><!--MD5=[e05184fd6c2a50d72175c127a4209454]
link MouseFlightController to Vector3--><g id="link_MouseFlightController_Vector3"><path codeLine="23" d="M473.26,262.5 C483.25,262.5 493.25,262.5 503.24,262.5 " fill="none" id="MouseFlightController-to-Vector3" style="stroke:#181818;stroke-width:1.0;"/><polygon fill="#181818" points="508.47,262.5,499.47,258.5,503.47,262.5,499.47,266.5,508.47,262.5" style="stroke:#181818;stroke-width:1.0;"/><text fill="#000000" font-family="sans-serif" font-size="13" lengthAdjust="spacing" textLength="78" x="423.4664" y="239.8401">BoresightPos</text></g><!--MD5=[e05184fd6c2a50d72175c127a4209454]
link MouseFlightController to Vector3--><g id="link_MouseFlightController_Vector3"><path codeLine="24" d="M473.26,180.62 C491.44,193.89 509.62,211.76 527.8,234.22 " fill="none" id="MouseFlightController-to-Vector3-1" style="stroke:#181818;stroke-width:1.0;"/><polygon fill="#181818" points="530.95,238.16,528.4767,228.6267,527.837,234.2473,522.2164,233.6076,530.95,238.16" style="stroke:#181818;stroke-width:1.0;"/><text fill="#000000" font-family="sans-serif" font-size="13" lengthAdjust="spacing" textLength="85" x="536.9097" y="227.8151">MouseAimPos</text></g><!--MD5=[014ed11532bae59c0b72188a8f1ce9f6]
@startuml
class MouseFlightController {
    - useFixed : bool = true
    - camSmoothSpeed : float = 5f
    - mouseSensitivity : float = 3f
    - aimDistance : float = 500f
    - showDebugInfo : bool = false
    - isMouseAimFrozen : bool = false
    - Start() : void
    - Update() : void
    - FixedUpdate() : void
    - RotateRig() : void
    - GetFrozenMouseAimPos() : Vector3
    - UpdateCameraPos() : void
    - Damp(a:Quaternion, b:Quaternion, lambda:float, dt:float) : Quaternion
    - OnDrawGizmos() : void
}
MonoBehaviour <|- - MouseFlightController
MouseFlightController o-> "aircraft" Transform
MouseFlightController o-> "mouseAim" Transform
MouseFlightController o-> "cameraRig" Transform
MouseFlightController o-> "cam" Transform
MouseFlightController o-> "frozenDirection" Vector3
MouseFlightController - -> "BoresightPos" Vector3
MouseFlightController - -> "MouseAimPos" Vector3
@enduml

PlantUML version 1.2022.5(Sat Apr 30 12:55:52 CEST 2022)
(GPL source distribution)
Java Runtime: Java(TM) SE Runtime Environment
JVM: Java HotSpot(TM) 64-Bit Server VM
Default Encoding: UTF-8
Language: en
Country: GB
--></g></svg>