<?xml version="1.0" encoding="UTF-8" standalone="no"?><svg xmlns="http://www.w3.org/2000/svg" xmlns:xlink="http://www.w3.org/1999/xlink" contentStyleType="text/css" height="577px" preserveAspectRatio="none" style="width:790px;height:577px;background:#FFFFFF;" version="1.1" viewBox="0 0 790 577" width="790px" zoomAndPan="magnify"><defs/><g><!--MD5=[10813612642ae27aa5ff8d66c0f223e4]
class Plane--><g id="elem_Plane"><rect codeLine="1" fill="#F1F1F1" height="347.3594" id="Plane" rx="2.5" ry="2.5" style="stroke:#181818;stroke-width:0.5;" width="454" x="7" y="115"/><ellipse cx="211.75" cy="131" fill="#ADD1B2" rx="11" ry="11" style="stroke:#181818;stroke-width:1.0;"/><path d="M214.5156,126.875 Q214.6719,126.6563 214.8594,126.5469 Q215.0469,126.4375 215.2656,126.4375 Q215.6406,126.4375 215.875,126.7031 Q216.1094,126.9531 216.1094,127.5625 L216.1094,129.0156 Q216.1094,129.625 215.875,129.8906 Q215.6406,130.1563 215.2656,130.1563 Q214.9219,130.1563 214.7188,129.9531 Q214.5156,129.7656 214.4063,129.25 Q214.3594,128.8906 214.1719,128.7031 Q213.8438,128.3281 213.2344,128.1094 Q212.625,127.8906 212,127.8906 Q211.2344,127.8906 210.5938,128.2188 Q209.9688,128.5469 209.4688,129.2969 Q208.9844,130.0469 208.9844,131.0781 L208.9844,132.1719 Q208.9844,133.4063 209.875,134.2344 Q210.7656,135.0469 212.3594,135.0469 Q213.2969,135.0469 213.9531,134.7969 Q214.3438,134.6406 214.7656,134.2031 Q215.0313,133.9375 215.1719,133.8594 Q215.3281,133.7813 215.5313,133.7813 Q215.8594,133.7813 216.1094,134.0469 Q216.375,134.2969 216.375,134.6406 Q216.375,134.9844 216.0313,135.3906 Q215.5313,135.9688 214.7344,136.2969 Q213.6563,136.75 212.3594,136.75 Q210.8438,136.75 209.6406,136.125 Q208.6563,135.625 207.9688,134.5625 Q207.2813,133.4844 207.2813,132.2031 L207.2813,131.0469 Q207.2813,129.7188 207.8906,128.5781 Q208.5156,127.4219 209.6094,126.8125 Q210.7031,126.1875 211.9375,126.1875 Q212.6719,126.1875 213.3125,126.3594 Q213.9688,126.5156 214.5156,126.875 Z " fill="#000000"/><text fill="#000000" font-family="sans-serif" font-size="14" lengthAdjust="spacing" textLength="36" x="232.25" y="136.7285">Plane</text><line style="stroke:#181818;stroke-width:0.5;" x1="8" x2="460" y1="147" y2="147"/><ellipse cx="18" cy="158" fill="none" rx="3" ry="3" style="stroke:#038048;stroke-width:1.0;"/><text fill="#000000" font-family="sans-serif" font-size="14" lengthAdjust="spacing" textLength="119" x="27" y="165.5332">thrust : float = 100f</text><ellipse cx="18" cy="175.6094" fill="none" rx="3" ry="3" style="stroke:#038048;stroke-width:1.0;"/><text fill="#000000" font-family="sans-serif" font-size="14" lengthAdjust="spacing" textLength="153" x="27" y="183.1426">thrustMult : float = 1000f</text><ellipse cx="18" cy="193.2188" fill="none" rx="3" ry="3" style="stroke:#038048;stroke-width:1.0;"/><text fill="#000000" font-family="sans-serif" font-size="14" lengthAdjust="spacing" textLength="142" x="27" y="200.752">turnMult : float = 1000f</text><ellipse cx="18" cy="210.8281" fill="none" rx="3" ry="3" style="stroke:#038048;stroke-width:1.0;"/><text fill="#000000" font-family="sans-serif" font-size="14" lengthAdjust="spacing" textLength="128" x="27" y="218.3613">sensitivity : float = 5f</text><ellipse cx="18" cy="228.4375" fill="none" rx="3" ry="3" style="stroke:#038048;stroke-width:1.0;"/><text fill="#000000" font-family="sans-serif" font-size="14" lengthAdjust="spacing" textLength="210" x="27" y="235.9707">aggressiveTurnAngle : float = 10f</text><rect fill="none" height="6" style="stroke:#C82930;stroke-width:1.0;" width="6" x="15" y="243.0469"/><text fill="#000000" font-family="sans-serif" font-size="14" lengthAdjust="spacing" textLength="97" x="27" y="253.5801">pitch : float = 0f</text><rect fill="none" height="6" style="stroke:#C82930;stroke-width:1.0;" width="6" x="15" y="260.6563"/><text fill="#000000" font-family="sans-serif" font-size="14" lengthAdjust="spacing" textLength="91" x="27" y="271.1895">yaw : float = 0f</text><rect fill="none" height="6" style="stroke:#C82930;stroke-width:1.0;" width="6" x="15" y="278.2656"/><text fill="#000000" font-family="sans-serif" font-size="14" lengthAdjust="spacing" textLength="86" x="27" y="288.7988">roll : float = 0f</text><ellipse cx="18" cy="298.875" fill="none" rx="3" ry="3" style="stroke:#038048;stroke-width:1.0;"/><text fill="#000000" font-family="sans-serif" font-size="14" lengthAdjust="spacing" textLength="149" x="27" y="306.4082">Pitch : float «set» «get»</text><ellipse cx="18" cy="316.4844" fill="none" rx="3" ry="3" style="stroke:#038048;stroke-width:1.0;"/><text fill="#000000" font-family="sans-serif" font-size="14" lengthAdjust="spacing" textLength="144" x="27" y="324.0176">Yaw : float «set» «get»</text><ellipse cx="18" cy="334.0938" fill="none" rx="3" ry="3" style="stroke:#038048;stroke-width:1.0;"/><text fill="#000000" font-family="sans-serif" font-size="14" lengthAdjust="spacing" textLength="142" x="27" y="341.627">Roll : float «set» «get»</text><rect fill="none" height="6" style="stroke:#C82930;stroke-width:1.0;" width="6" x="15" y="348.7031"/><text fill="#000000" font-family="sans-serif" font-size="14" lengthAdjust="spacing" textLength="159" x="27" y="359.2363">rollOverride : bool = false</text><rect fill="none" height="6" style="stroke:#C82930;stroke-width:1.0;" width="6" x="15" y="366.3125"/><text fill="#000000" font-family="sans-serif" font-size="14" lengthAdjust="spacing" textLength="170" x="27" y="376.8457">pitchOverride : bool = false</text><line style="stroke:#181818;stroke-width:0.5;" x1="8" x2="460" y1="383.9219" y2="383.9219"/><rect fill="#F24D5C" height="6" style="stroke:#C82930;stroke-width:1.0;" width="6" x="15" y="391.9219"/><text fill="#000000" font-family="sans-serif" font-size="14" lengthAdjust="spacing" textLength="89" x="27" y="402.4551">Awake() : void</text><rect fill="#F24D5C" height="6" style="stroke:#C82930;stroke-width:1.0;" width="6" x="15" y="409.5313"/><text fill="#000000" font-family="sans-serif" font-size="14" lengthAdjust="spacing" textLength="93" x="27" y="420.0645">Update() : void</text><rect fill="#F24D5C" height="6" style="stroke:#C82930;stroke-width:1.0;" width="6" x="15" y="427.1406"/><text fill="#000000" font-family="sans-serif" font-size="14" lengthAdjust="spacing" textLength="428" x="27" y="437.6738">RunAutopilot(flyTarget:Vector3, yaw:float, pitch:float, roll:float) : void</text><rect fill="#F24D5C" height="6" style="stroke:#C82930;stroke-width:1.0;" width="6" x="15" y="444.75"/><text fill="#000000" font-family="sans-serif" font-size="14" lengthAdjust="spacing" textLength="127" x="27" y="455.2832">FixedUpdate() : void</text></g><!--MD5=[83b3cf3d23d77c6f1e1b5291a241bc2a]
class MonoBehaviour--><g id="elem_MonoBehaviour"><rect fill="#F1F1F1" height="48" id="MonoBehaviour" rx="2.5" ry="2.5" style="stroke:#181818;stroke-width:0.5;" width="131" x="168.5" y="7"/><ellipse cx="183.5" cy="23" fill="#ADD1B2" rx="11" ry="11" style="stroke:#181818;stroke-width:1.0;"/><path d="M186.2656,18.875 Q186.4219,18.6563 186.6094,18.5469 Q186.7969,18.4375 187.0156,18.4375 Q187.3906,18.4375 187.625,18.7031 Q187.8594,18.9531 187.8594,19.5625 L187.8594,21.0156 Q187.8594,21.625 187.625,21.8906 Q187.3906,22.1563 187.0156,22.1563 Q186.6719,22.1563 186.4688,21.9531 Q186.2656,21.7656 186.1563,21.25 Q186.1094,20.8906 185.9219,20.7031 Q185.5938,20.3281 184.9844,20.1094 Q184.375,19.8906 183.75,19.8906 Q182.9844,19.8906 182.3438,20.2188 Q181.7188,20.5469 181.2188,21.2969 Q180.7344,22.0469 180.7344,23.0781 L180.7344,24.1719 Q180.7344,25.4063 181.625,26.2344 Q182.5156,27.0469 184.1094,27.0469 Q185.0469,27.0469 185.7031,26.7969 Q186.0938,26.6406 186.5156,26.2031 Q186.7813,25.9375 186.9219,25.8594 Q187.0781,25.7813 187.2813,25.7813 Q187.6094,25.7813 187.8594,26.0469 Q188.125,26.2969 188.125,26.6406 Q188.125,26.9844 187.7813,27.3906 Q187.2813,27.9688 186.4844,28.2969 Q185.4063,28.75 184.1094,28.75 Q182.5938,28.75 181.3906,28.125 Q180.4063,27.625 179.7188,26.5625 Q179.0313,25.4844 179.0313,24.2031 L179.0313,23.0469 Q179.0313,21.7188 179.6406,20.5781 Q180.2656,19.4219 181.3594,18.8125 Q182.4531,18.1875 183.6875,18.1875 Q184.4219,18.1875 185.0625,18.3594 Q185.7188,18.5156 186.2656,18.875 Z " fill="#000000"/><text fill="#000000" font-family="sans-serif" font-size="14" lengthAdjust="spacing" textLength="99" x="197.5" y="28.7285">MonoBehaviour</text><line style="stroke:#181818;stroke-width:0.5;" x1="169.5" x2="298.5" y1="39" y2="39"/><line style="stroke:#181818;stroke-width:0.5;" x1="169.5" x2="298.5" y1="47" y2="47"/></g><!--MD5=[947c6b80fe9fe39d68a8daa1e861a852]
class MouseFlightController--><g id="elem_MouseFlightController"><rect fill="#F1F1F1" height="48" id="MouseFlightController" rx="2.5" ry="2.5" style="stroke:#181818;stroke-width:0.5;" width="171" x="612.5" y="264.5"/><ellipse cx="627.5" cy="280.5" fill="#ADD1B2" rx="11" ry="11" style="stroke:#181818;stroke-width:1.0;"/><path d="M630.2656,276.375 Q630.4219,276.1563 630.6094,276.0469 Q630.7969,275.9375 631.0156,275.9375 Q631.3906,275.9375 631.625,276.2031 Q631.8594,276.4531 631.8594,277.0625 L631.8594,278.5156 Q631.8594,279.125 631.625,279.3906 Q631.3906,279.6563 631.0156,279.6563 Q630.6719,279.6563 630.4688,279.4531 Q630.2656,279.2656 630.1563,278.75 Q630.1094,278.3906 629.9219,278.2031 Q629.5938,277.8281 628.9844,277.6094 Q628.375,277.3906 627.75,277.3906 Q626.9844,277.3906 626.3438,277.7188 Q625.7188,278.0469 625.2188,278.7969 Q624.7344,279.5469 624.7344,280.5781 L624.7344,281.6719 Q624.7344,282.9063 625.625,283.7344 Q626.5156,284.5469 628.1094,284.5469 Q629.0469,284.5469 629.7031,284.2969 Q630.0938,284.1406 630.5156,283.7031 Q630.7813,283.4375 630.9219,283.3594 Q631.0781,283.2813 631.2813,283.2813 Q631.6094,283.2813 631.8594,283.5469 Q632.125,283.7969 632.125,284.1406 Q632.125,284.4844 631.7813,284.8906 Q631.2813,285.4688 630.4844,285.7969 Q629.4063,286.25 628.1094,286.25 Q626.5938,286.25 625.3906,285.625 Q624.4063,285.125 623.7188,284.0625 Q623.0313,282.9844 623.0313,281.7031 L623.0313,280.5469 Q623.0313,279.2188 623.6406,278.0781 Q624.2656,276.9219 625.3594,276.3125 Q626.4531,275.6875 627.6875,275.6875 Q628.4219,275.6875 629.0625,275.8594 Q629.7188,276.0156 630.2656,276.375 Z " fill="#000000"/><text fill="#000000" font-family="sans-serif" font-size="14" lengthAdjust="spacing" textLength="139" x="641.5" y="286.2285">MouseFlightController</text><line style="stroke:#181818;stroke-width:0.5;" x1="613.5" x2="782.5" y1="296.5" y2="296.5"/><line style="stroke:#181818;stroke-width:0.5;" x1="613.5" x2="782.5" y1="304.5" y2="304.5"/></g><!--MD5=[65d619c042c23702cef2ca07d67b1cf6]
class Vector3--><g id="elem_Vector3"><rect fill="#F1F1F1" height="48" id="Vector3" rx="2.5" ry="2.5" style="stroke:#181818;stroke-width:0.5;" width="81" x="496.5" y="264.5"/><ellipse cx="511.5" cy="280.5" fill="#ADD1B2" rx="11" ry="11" style="stroke:#181818;stroke-width:1.0;"/><path d="M514.2656,276.375 Q514.4219,276.1563 514.6094,276.0469 Q514.7969,275.9375 515.0156,275.9375 Q515.3906,275.9375 515.625,276.2031 Q515.8594,276.4531 515.8594,277.0625 L515.8594,278.5156 Q515.8594,279.125 515.625,279.3906 Q515.3906,279.6563 515.0156,279.6563 Q514.6719,279.6563 514.4688,279.4531 Q514.2656,279.2656 514.1563,278.75 Q514.1094,278.3906 513.9219,278.2031 Q513.5938,277.8281 512.9844,277.6094 Q512.375,277.3906 511.75,277.3906 Q510.9844,277.3906 510.3438,277.7188 Q509.7188,278.0469 509.2188,278.7969 Q508.7344,279.5469 508.7344,280.5781 L508.7344,281.6719 Q508.7344,282.9063 509.625,283.7344 Q510.5156,284.5469 512.1094,284.5469 Q513.0469,284.5469 513.7031,284.2969 Q514.0938,284.1406 514.5156,283.7031 Q514.7813,283.4375 514.9219,283.3594 Q515.0781,283.2813 515.2813,283.2813 Q515.6094,283.2813 515.8594,283.5469 Q516.125,283.7969 516.125,284.1406 Q516.125,284.4844 515.7813,284.8906 Q515.2813,285.4688 514.4844,285.7969 Q513.4063,286.25 512.1094,286.25 Q510.5938,286.25 509.3906,285.625 Q508.4063,285.125 507.7188,284.0625 Q507.0313,282.9844 507.0313,281.7031 L507.0313,280.5469 Q507.0313,279.2188 507.6406,278.0781 Q508.2656,276.9219 509.3594,276.3125 Q510.4531,275.6875 511.6875,275.6875 Q512.4219,275.6875 513.0625,275.8594 Q513.7188,276.0156 514.2656,276.375 Z " fill="#000000"/><text fill="#000000" font-family="sans-serif" font-size="14" lengthAdjust="spacing" textLength="49" x="525.5" y="286.2285">Vector3</text><line style="stroke:#181818;stroke-width:0.5;" x1="497.5" x2="576.5" y1="296.5" y2="296.5"/><line style="stroke:#181818;stroke-width:0.5;" x1="497.5" x2="576.5" y1="304.5" y2="304.5"/></g><!--MD5=[24ec51728e56f64a3c7112f6f5948d1e]
class Rigidbody--><g id="elem_Rigidbody"><rect fill="#F1F1F1" height="48" id="Rigidbody" rx="2.5" ry="2.5" style="stroke:#181818;stroke-width:0.5;" width="95" x="186.5" y="522"/><ellipse cx="201.5" cy="538" fill="#ADD1B2" rx="11" ry="11" style="stroke:#181818;stroke-width:1.0;"/><path d="M204.2656,533.875 Q204.4219,533.6563 204.6094,533.5469 Q204.7969,533.4375 205.0156,533.4375 Q205.3906,533.4375 205.625,533.7031 Q205.8594,533.9531 205.8594,534.5625 L205.8594,536.0156 Q205.8594,536.625 205.625,536.8906 Q205.3906,537.1563 205.0156,537.1563 Q204.6719,537.1563 204.4688,536.9531 Q204.2656,536.7656 204.1563,536.25 Q204.1094,535.8906 203.9219,535.7031 Q203.5938,535.3281 202.9844,535.1094 Q202.375,534.8906 201.75,534.8906 Q200.9844,534.8906 200.3438,535.2188 Q199.7188,535.5469 199.2188,536.2969 Q198.7344,537.0469 198.7344,538.0781 L198.7344,539.1719 Q198.7344,540.4063 199.625,541.2344 Q200.5156,542.0469 202.1094,542.0469 Q203.0469,542.0469 203.7031,541.7969 Q204.0938,541.6406 204.5156,541.2031 Q204.7813,540.9375 204.9219,540.8594 Q205.0781,540.7813 205.2813,540.7813 Q205.6094,540.7813 205.8594,541.0469 Q206.125,541.2969 206.125,541.6406 Q206.125,541.9844 205.7813,542.3906 Q205.2813,542.9688 204.4844,543.2969 Q203.4063,543.75 202.1094,543.75 Q200.5938,543.75 199.3906,543.125 Q198.4063,542.625 197.7188,541.5625 Q197.0313,540.4844 197.0313,539.2031 L197.0313,538.0469 Q197.0313,536.7188 197.6406,535.5781 Q198.2656,534.4219 199.3594,533.8125 Q200.4531,533.1875 201.6875,533.1875 Q202.4219,533.1875 203.0625,533.3594 Q203.7188,533.5156 204.2656,533.875 Z " fill="#000000"/><text fill="#000000" font-family="sans-serif" font-size="14" lengthAdjust="spacing" textLength="63" x="215.5" y="543.7285">Rigidbody</text><line style="stroke:#181818;stroke-width:0.5;" x1="187.5" x2="280.5" y1="554" y2="554"/><line style="stroke:#181818;stroke-width:0.5;" x1="187.5" x2="280.5" y1="562" y2="562"/></g><!--MD5=[f5dbed154a4e9f0433af5ec1bedfb9bb]
reverse link MonoBehaviour to Plane--><g id="link_MonoBehaviour_Plane"><path codeLine="20" d="M234,75.33 C234,87.05 234,100.49 234,114.79 " fill="none" id="MonoBehaviour-backto-Plane" style="stroke:#181818;stroke-width:1.0;"/><polygon fill="none" points="227,75.12,234,55.12,241,75.12,227,75.12" style="stroke:#181818;stroke-width:1.0;"/></g><!--MD5=[f180206deb8f4f3a53312429495a7fca]
link Plane to MouseFlightController--><g id="link_Plane_MouseFlightController"><path codeLine="21" d="M442.0011,109.1345 C442.0011,109.1345 478.26,91.24 496.5,85 C530.56,73.34 546.22,67.17 577.5,85 C640.27,120.78 673.68,203.51 688.43,251.75 " fill="none" id="Plane-MouseFlightController" style="stroke:#181818;stroke-width:1.0;"/><polygon fill="#181818" points="692.11,264.37,693.4364,254.6109,690.7132,259.5691,685.755,256.8458,692.11,264.37" style="stroke:#181818;stroke-width:1.0;"/><line style="stroke:#181818;stroke-width:1.0;" x1="690.7132" x2="688.475" y1="259.5691" y2="251.89"/><polygon fill="none" points="431.51,114.96,438.6974,115.5443,442.0011,109.1345,434.8137,108.5502,431.51,114.96" style="stroke:#181818;stroke-width:1.0;"/><text fill="#000000" font-family="sans-serif" font-size="13" lengthAdjust="spacing" textLength="53" x="630.8101" y="253.6768">controller</text></g><!--MD5=[6bad44e78777e4b95c6bc9e2a4dd263f]
link Plane to Vector3--><g id="link_Plane_Vector3"><path codeLine="22" d="M473.25,288.5 C473.25,288.5 480.41,288.5 483.39,288.5 " fill="none" id="Plane-Vector3" style="stroke:#181818;stroke-width:1.0;"/><polygon fill="#181818" points="496.46,288.5,487.46,284.5,491.46,288.5,487.46,292.5,496.46,288.5" style="stroke:#181818;stroke-width:1.0;"/><line style="stroke:#181818;stroke-width:1.0;" x1="491.46" x2="483.46" y1="288.5" y2="288.5"/><polygon fill="none" points="461.25,288.5,467.25,292.5,473.25,288.5,467.25,284.5,461.25,288.5" style="stroke:#181818;stroke-width:1.0;"/><text fill="#000000" font-family="sans-serif" font-size="13" lengthAdjust="spacing" textLength="61" x="427.9369" y="274.6948">turnTorque</text></g><!--MD5=[37fbfdea0cc44b9f232bcfa48a1912aa]
link Plane to Rigidbody--><g id="link_Plane_Rigidbody"><path codeLine="23" d="M234,462.05 C234,482.96 234,502.04 234,516.62 " fill="none" id="Plane-to-Rigidbody" style="stroke:#181818;stroke-width:1.0;"/><polygon fill="#181818" points="234,521.78,238,512.78,234,516.78,230,512.78,234,521.78" style="stroke:#181818;stroke-width:1.0;"/><text fill="#000000" font-family="sans-serif" font-size="13" lengthAdjust="spacing" textLength="24" x="206.925" y="511.0638">rigid</text></g><!--MD5=[d4c82a273d9fd80a4d7c895035808c9d]
@startuml
class Plane {
    + thrust : float = 100f
    + thrustMult : float = 1000f
    + turnMult : float = 1000f
    + sensitivity : float = 5f
    + aggressiveTurnAngle : float = 10f
    - pitch : float = 0f
    - yaw : float = 0f
    - roll : float = 0f
    + Pitch : float <<set>> <<get>>
    + Yaw : float <<set>> <<get>>
    + Roll : float <<set>> <<get>>
    - rollOverride : bool = false
    - pitchOverride : bool = false
    - Awake() : void
    - Update() : void
    - RunAutopilot(flyTarget:Vector3, yaw:float, pitch:float, roll:float) : void
    - FixedUpdate() : void
}
MonoBehaviour <|- - Plane
Plane o-> "controller" MouseFlightController
Plane o-> "turnTorque" Vector3
Plane - -> "rigid" Rigidbody
@enduml

PlantUML version 1.2022.5(Sat Apr 30 12:55:52 CEST 2022)
(GPL source distribution)
Java Runtime: Java(TM) SE Runtime Environment
JVM: Java HotSpot(TM) 64-Bit Server VM
Default Encoding: UTF-8
Language: en
Country: GB
--></g></svg>