<?xml version="1.0" encoding="UTF-8" standalone="no"?><svg xmlns="http://www.w3.org/2000/svg" xmlns:xlink="http://www.w3.org/1999/xlink" contentStyleType="text/css" height="366px" preserveAspectRatio="none" style="width:182px;height:366px;background:#FFFFFF;" version="1.1" viewBox="0 0 182 366" width="182px" zoomAndPan="magnify"><defs/><g><!--MD5=[6f9afeeaccc7b78cf005f2b9c5022472]
class Benchmark04--><g id="elem_Benchmark04"><rect codeLine="1" fill="#F1F1F1" height="136.0469" id="Benchmark04" rx="2.5" ry="2.5" style="stroke:#181818;stroke-width:0.5;" width="168" x="7" y="115"/><ellipse cx="44.05" cy="131" fill="#ADD1B2" rx="11" ry="11" style="stroke:#181818;stroke-width:1.0;"/><path d="M46.8156,126.875 Q46.9719,126.6563 47.1594,126.5469 Q47.3469,126.4375 47.5656,126.4375 Q47.9406,126.4375 48.175,126.7031 Q48.4094,126.9531 48.4094,127.5625 L48.4094,129.0156 Q48.4094,129.625 48.175,129.8906 Q47.9406,130.1563 47.5656,130.1563 Q47.2219,130.1563 47.0188,129.9531 Q46.8156,129.7656 46.7063,129.25 Q46.6594,128.8906 46.4719,128.7031 Q46.1438,128.3281 45.5344,128.1094 Q44.925,127.8906 44.3,127.8906 Q43.5344,127.8906 42.8938,128.2188 Q42.2688,128.5469 41.7688,129.2969 Q41.2844,130.0469 41.2844,131.0781 L41.2844,132.1719 Q41.2844,133.4063 42.175,134.2344 Q43.0656,135.0469 44.6594,135.0469 Q45.5969,135.0469 46.2531,134.7969 Q46.6438,134.6406 47.0656,134.2031 Q47.3313,133.9375 47.4719,133.8594 Q47.6281,133.7813 47.8313,133.7813 Q48.1594,133.7813 48.4094,134.0469 Q48.675,134.2969 48.675,134.6406 Q48.675,134.9844 48.3313,135.3906 Q47.8313,135.9688 47.0344,136.2969 Q45.9563,136.75 44.6594,136.75 Q43.1438,136.75 41.9406,136.125 Q40.9563,135.625 40.2688,134.5625 Q39.5813,133.4844 39.5813,132.2031 L39.5813,131.0469 Q39.5813,129.7188 40.1906,128.5781 Q40.8156,127.4219 41.9094,126.8125 Q43.0031,126.1875 44.2375,126.1875 Q44.9719,126.1875 45.6125,126.3594 Q46.2688,126.5156 46.8156,126.875 Z " fill="#000000"/><text fill="#000000" font-family="sans-serif" font-size="14" lengthAdjust="spacing" textLength="87" x="62.95" y="136.7285">Benchmark04</text><line style="stroke:#181818;stroke-width:0.5;" x1="8" x2="174" y1="147" y2="147"/><ellipse cx="18" cy="158" fill="none" rx="3" ry="3" style="stroke:#038048;stroke-width:1.0;"/><text fill="#000000" font-family="sans-serif" font-size="14" lengthAdjust="spacing" textLength="125" x="27" y="165.5332">SpawnType : int = 0</text><ellipse cx="18" cy="175.6094" fill="none" rx="3" ry="3" style="stroke:#038048;stroke-width:1.0;"/><text fill="#000000" font-family="sans-serif" font-size="14" lengthAdjust="spacing" textLength="139" x="27" y="183.1426">MinPointSize : int = 12</text><ellipse cx="18" cy="193.2188" fill="none" rx="3" ry="3" style="stroke:#038048;stroke-width:1.0;"/><text fill="#000000" font-family="sans-serif" font-size="14" lengthAdjust="spacing" textLength="142" x="27" y="200.752">MaxPointSize : int = 64</text><ellipse cx="18" cy="210.8281" fill="none" rx="3" ry="3" style="stroke:#038048;stroke-width:1.0;"/><text fill="#000000" font-family="sans-serif" font-size="14" lengthAdjust="spacing" textLength="87" x="27" y="218.3613">Steps : int = 4</text><line style="stroke:#181818;stroke-width:0.5;" x1="8" x2="174" y1="225.4375" y2="225.4375"/><text fill="#000000" font-family="sans-serif" font-size="14" lengthAdjust="spacing" textLength="78" x="13" y="243.9707">Start() : void</text></g><!--MD5=[83b3cf3d23d77c6f1e1b5291a241bc2a]
class MonoBehaviour--><g id="elem_MonoBehaviour"><rect fill="#F1F1F1" height="48" id="MonoBehaviour" rx="2.5" ry="2.5" style="stroke:#181818;stroke-width:0.5;" width="131" x="25.5" y="7"/><ellipse cx="40.5" cy="23" fill="#ADD1B2" rx="11" ry="11" style="stroke:#181818;stroke-width:1.0;"/><path d="M43.2656,18.875 Q43.4219,18.6563 43.6094,18.5469 Q43.7969,18.4375 44.0156,18.4375 Q44.3906,18.4375 44.625,18.7031 Q44.8594,18.9531 44.8594,19.5625 L44.8594,21.0156 Q44.8594,21.625 44.625,21.8906 Q44.3906,22.1563 44.0156,22.1563 Q43.6719,22.1563 43.4688,21.9531 Q43.2656,21.7656 43.1563,21.25 Q43.1094,20.8906 42.9219,20.7031 Q42.5938,20.3281 41.9844,20.1094 Q41.375,19.8906 40.75,19.8906 Q39.9844,19.8906 39.3438,20.2188 Q38.7188,20.5469 38.2188,21.2969 Q37.7344,22.0469 37.7344,23.0781 L37.7344,24.1719 Q37.7344,25.4063 38.625,26.2344 Q39.5156,27.0469 41.1094,27.0469 Q42.0469,27.0469 42.7031,26.7969 Q43.0938,26.6406 43.5156,26.2031 Q43.7813,25.9375 43.9219,25.8594 Q44.0781,25.7813 44.2813,25.7813 Q44.6094,25.7813 44.8594,26.0469 Q45.125,26.2969 45.125,26.6406 Q45.125,26.9844 44.7813,27.3906 Q44.2813,27.9688 43.4844,28.2969 Q42.4063,28.75 41.1094,28.75 Q39.5938,28.75 38.3906,28.125 Q37.4063,27.625 36.7188,26.5625 Q36.0313,25.4844 36.0313,24.2031 L36.0313,23.0469 Q36.0313,21.7188 36.6406,20.5781 Q37.2656,19.4219 38.3594,18.8125 Q39.4531,18.1875 40.6875,18.1875 Q41.4219,18.1875 42.0625,18.3594 Q42.7188,18.5156 43.2656,18.875 Z " fill="#000000"/><text fill="#000000" font-family="sans-serif" font-size="14" lengthAdjust="spacing" textLength="99" x="54.5" y="28.7285">MonoBehaviour</text><line style="stroke:#181818;stroke-width:0.5;" x1="26.5" x2="155.5" y1="39" y2="39"/><line style="stroke:#181818;stroke-width:0.5;" x1="26.5" x2="155.5" y1="47" y2="47"/></g><!--MD5=[004b1d6c4ca8aad4ba8b586a335ed4f3]
class Transform--><g id="elem_Transform"><rect fill="#F1F1F1" height="48" id="Transform" rx="2.5" ry="2.5" style="stroke:#181818;stroke-width:0.5;" width="97" x="42.5" y="311"/><ellipse cx="57.5" cy="327" fill="#ADD1B2" rx="11" ry="11" style="stroke:#181818;stroke-width:1.0;"/><path d="M60.2656,322.875 Q60.4219,322.6563 60.6094,322.5469 Q60.7969,322.4375 61.0156,322.4375 Q61.3906,322.4375 61.625,322.7031 Q61.8594,322.9531 61.8594,323.5625 L61.8594,325.0156 Q61.8594,325.625 61.625,325.8906 Q61.3906,326.1563 61.0156,326.1563 Q60.6719,326.1563 60.4688,325.9531 Q60.2656,325.7656 60.1563,325.25 Q60.1094,324.8906 59.9219,324.7031 Q59.5938,324.3281 58.9844,324.1094 Q58.375,323.8906 57.75,323.8906 Q56.9844,323.8906 56.3438,324.2188 Q55.7188,324.5469 55.2188,325.2969 Q54.7344,326.0469 54.7344,327.0781 L54.7344,328.1719 Q54.7344,329.4063 55.625,330.2344 Q56.5156,331.0469 58.1094,331.0469 Q59.0469,331.0469 59.7031,330.7969 Q60.0938,330.6406 60.5156,330.2031 Q60.7813,329.9375 60.9219,329.8594 Q61.0781,329.7813 61.2813,329.7813 Q61.6094,329.7813 61.8594,330.0469 Q62.125,330.2969 62.125,330.6406 Q62.125,330.9844 61.7813,331.3906 Q61.2813,331.9688 60.4844,332.2969 Q59.4063,332.75 58.1094,332.75 Q56.5938,332.75 55.3906,332.125 Q54.4063,331.625 53.7188,330.5625 Q53.0313,329.4844 53.0313,328.2031 L53.0313,327.0469 Q53.0313,325.7188 53.6406,324.5781 Q54.2656,323.4219 55.3594,322.8125 Q56.4531,322.1875 57.6875,322.1875 Q58.4219,322.1875 59.0625,322.3594 Q59.7188,322.5156 60.2656,322.875 Z " fill="#000000"/><text fill="#000000" font-family="sans-serif" font-size="14" lengthAdjust="spacing" textLength="65" x="71.5" y="332.7285">Transform</text><line style="stroke:#181818;stroke-width:0.5;" x1="43.5" x2="138.5" y1="343" y2="343"/><line style="stroke:#181818;stroke-width:0.5;" x1="43.5" x2="138.5" y1="351" y2="351"/></g><!--MD5=[5bc1fd2f3024314cec11462831ae413c]
reverse link MonoBehaviour to Benchmark04--><g id="link_MonoBehaviour_Benchmark04"><path codeLine="8" d="M91,75.38 C91,87.68 91,101.37 91,114.74 " fill="none" id="MonoBehaviour-backto-Benchmark04" style="stroke:#181818;stroke-width:1.0;"/><polygon fill="none" points="84,75.11,91,55.11,98,75.11,84,75.11" style="stroke:#181818;stroke-width:1.0;"/></g><!--MD5=[c1a0960abbd5edc7bc8fa82e111b6e9e]
link Benchmark04 to Transform--><g id="link_Benchmark04_Transform"><path codeLine="9" d="M91,251.1 C91,270.31 91,290.21 91,305.69 " fill="none" id="Benchmark04-to-Transform" style="stroke:#181818;stroke-width:1.0;"/><polygon fill="#181818" points="91,310.77,95,301.77,91,305.77,87,301.77,91,310.77" style="stroke:#181818;stroke-width:1.0;"/><text fill="#000000" font-family="sans-serif" font-size="13" lengthAdjust="spacing" textLength="75" x="6.3906" y="300.0512">m_Transform</text></g><!--MD5=[a4485544087ceb7208ec386536197a94]
@startuml
class Benchmark04 {
    + SpawnType : int = 0
    + MinPointSize : int = 12
    + MaxPointSize : int = 64
    + Steps : int = 4
    Start() : void
}
MonoBehaviour <|- - Benchmark04
Benchmark04 - -> "m_Transform" Transform
@enduml

PlantUML version 1.2022.5(Sat Apr 30 12:55:52 CEST 2022)
(GPL source distribution)
Java Runtime: Java(TM) SE Runtime Environment
JVM: Java HotSpot(TM) 64-Bit Server VM
Default Encoding: UTF-8
Language: en
Country: GB
--></g></svg>