<?xml version="1.0" encoding="UTF-8" standalone="no"?><svg xmlns="http://www.w3.org/2000/svg" xmlns:xlink="http://www.w3.org/1999/xlink" contentStyleType="text/css" height="348px" preserveAspectRatio="none" style="width:803px;height:348px;background:#FFFFFF;" version="1.1" viewBox="0 0 803 348" width="803px" zoomAndPan="magnify"><defs/><g><!--MD5=[a75ceda2f5d68c569949b82edc1482e7]
class TMPro_InstructionOverlay--><g id="elem_TMPro_InstructionOverlay"><rect codeLine="1" fill="#F1F1F1" height="118.4375" id="TMPro_InstructionOverlay" rx="2.5" ry="2.5" style="stroke:#181818;stroke-width:0.5;" width="521" x="31.4544" y="115"/><ellipse cx="205.7044" cy="131" fill="#ADD1B2" rx="11" ry="11" style="stroke:#181818;stroke-width:1.0;"/><path d="M208.4701,126.875 Q208.6263,126.6563 208.8138,126.5469 Q209.0013,126.4375 209.2201,126.4375 Q209.5951,126.4375 209.8294,126.7031 Q210.0638,126.9531 210.0638,127.5625 L210.0638,129.0156 Q210.0638,129.625 209.8294,129.8906 Q209.5951,130.1563 209.2201,130.1563 Q208.8763,130.1563 208.6732,129.9531 Q208.4701,129.7656 208.3607,129.25 Q208.3138,128.8906 208.1263,128.7031 Q207.7982,128.3281 207.1888,128.1094 Q206.5794,127.8906 205.9544,127.8906 Q205.1888,127.8906 204.5482,128.2188 Q203.9232,128.5469 203.4232,129.2969 Q202.9388,130.0469 202.9388,131.0781 L202.9388,132.1719 Q202.9388,133.4063 203.8294,134.2344 Q204.7201,135.0469 206.3138,135.0469 Q207.2513,135.0469 207.9076,134.7969 Q208.2982,134.6406 208.7201,134.2031 Q208.9857,133.9375 209.1263,133.8594 Q209.2826,133.7813 209.4857,133.7813 Q209.8138,133.7813 210.0638,134.0469 Q210.3294,134.2969 210.3294,134.6406 Q210.3294,134.9844 209.9857,135.3906 Q209.4857,135.9688 208.6888,136.2969 Q207.6107,136.75 206.3138,136.75 Q204.7982,136.75 203.5951,136.125 Q202.6107,135.625 201.9232,134.5625 Q201.2357,133.4844 201.2357,132.2031 L201.2357,131.0469 Q201.2357,129.7188 201.8451,128.5781 Q202.4701,127.4219 203.5638,126.8125 Q204.6576,126.1875 205.8919,126.1875 Q206.6263,126.1875 207.2669,126.3594 Q207.9232,126.5156 208.4701,126.875 Z " fill="#000000"/><text fill="#000000" font-family="sans-serif" font-size="14" lengthAdjust="spacing" textLength="164" x="226.2044" y="136.7285">TMPro_InstructionOverlay</text><line style="stroke:#181818;stroke-width:0.5;" x1="32.4544" x2="551.4544" y1="147" y2="147"/><rect fill="none" height="6" style="stroke:#C82930;stroke-width:1.0;" width="6" x="39.4544" y="155"/><text fill="#000000" font-family="sans-serif" font-size="14" lengthAdjust="spacing" textLength="437" x="51.4544" y="165.5332">«const» instructions : string = "Camera Control - &lt;#ffff00&gt;Shift + RMB</text><text fill="#000000" font-family="sans-serif" font-size="14" lengthAdjust="spacing" textLength="246" x="51.4544" y="183.1426">&lt;/color&gt;Zoom - &lt;#ffff00&gt;Mouse wheel."</text><line style="stroke:#181818;stroke-width:0.5;" x1="32.4544" x2="551.4544" y1="190.2188" y2="190.2188"/><text fill="#000000" font-family="sans-serif" font-size="14" lengthAdjust="spacing" textLength="89" x="37.4544" y="208.752">Awake() : void</text><text fill="#000000" font-family="sans-serif" font-size="14" lengthAdjust="spacing" textLength="509" x="37.4544" y="226.3613">Set_FrameCounter_Position(anchor_position:FpsCounterAnchorPositions) : void</text></g><!--MD5=[ff5acbc14447bac6da42a03245b65cbc]
class FpsCounterAnchorPositions--><g id="elem_FpsCounterAnchorPositions"><rect codeLine="6" fill="#F1F1F1" height="118.4375" id="FpsCounterAnchorPositions" rx="2.5" ry="2.5" style="stroke:#181818;stroke-width:0.5;" width="209" x="587.4544" y="115"/><ellipse cx="602.4544" cy="131" fill="#EB937F" rx="11" ry="11" style="stroke:#181818;stroke-width:1.0;"/><path d="M601.3138,131.7969 L601.3138,134.2969 L605.6419,134.2969 L605.6419,133.375 Q605.6419,132.7656 605.8763,132.5 Q606.1263,132.2344 606.5013,132.2344 Q606.8763,132.2344 607.1107,132.5 Q607.3451,132.7656 607.3451,133.375 L607.3451,136 L599.3451,136 Q598.7201,136 598.4544,135.7656 Q598.2044,135.5313 598.2044,135.1406 Q598.2044,134.7656 598.4701,134.5313 Q598.7357,134.2969 599.3451,134.2969 L599.6107,134.2969 L599.6107,127.6406 L599.3451,127.6406 Q598.7201,127.6406 598.4544,127.4063 Q598.2044,127.1719 598.2044,126.7813 Q598.2044,126.4063 598.4544,126.1719 Q598.7201,125.9375 599.3451,125.9375 L606.9701,125.9375 L606.9701,128.5313 Q606.9701,129.1406 606.7357,129.4063 Q606.5169,129.6563 606.1263,129.6563 Q605.7513,129.6563 605.5169,129.4063 Q605.2826,129.1406 605.2826,128.5313 L605.2826,127.6406 L601.3138,127.6406 L601.3138,130.0938 L602.7982,130.0938 Q602.7982,129.4375 602.9232,129.25 Q603.1888,128.8438 603.6576,128.8438 Q604.0326,128.8438 604.2669,129.1094 Q604.5013,129.3594 604.5013,129.9688 L604.5013,131.9375 Q604.5013,132.4844 604.3763,132.6719 Q604.1107,133.0625 603.6576,133.0625 Q603.1888,133.0625 602.9232,132.6563 Q602.7982,132.4688 602.7982,131.7969 L601.3138,131.7969 Z " fill="#000000"/><text fill="#000000" font-family="sans-serif" font-size="14" lengthAdjust="spacing" textLength="177" x="616.4544" y="136.7285">FpsCounterAnchorPositions</text><line style="stroke:#181818;stroke-width:0.5;" x1="588.4544" x2="795.4544" y1="147" y2="147"/><text fill="#000000" font-family="sans-serif" font-size="14" lengthAdjust="spacing" textLength="53" x="593.4544" y="165.5332">TopLeft,</text><text fill="#000000" font-family="sans-serif" font-size="14" lengthAdjust="spacing" textLength="72" x="593.4544" y="183.1426">BottomLeft,</text><text fill="#000000" font-family="sans-serif" font-size="14" lengthAdjust="spacing" textLength="62" x="593.4544" y="200.752">TopRight,</text><text fill="#000000" font-family="sans-serif" font-size="14" lengthAdjust="spacing" textLength="81" x="593.4544" y="218.3613">BottomRight,</text><line style="stroke:#181818;stroke-width:0.5;" x1="588.4544" x2="795.4544" y1="225.4375" y2="225.4375"/></g><!--MD5=[83b3cf3d23d77c6f1e1b5291a241bc2a]
class MonoBehaviour--><g id="elem_MonoBehaviour"><rect fill="#F1F1F1" height="48" id="MonoBehaviour" rx="2.5" ry="2.5" style="stroke:#181818;stroke-width:0.5;" width="131" x="226.4544" y="7"/><ellipse cx="241.4544" cy="23" fill="#ADD1B2" rx="11" ry="11" style="stroke:#181818;stroke-width:1.0;"/><path d="M244.2201,18.875 Q244.3763,18.6563 244.5638,18.5469 Q244.7513,18.4375 244.9701,18.4375 Q245.3451,18.4375 245.5794,18.7031 Q245.8138,18.9531 245.8138,19.5625 L245.8138,21.0156 Q245.8138,21.625 245.5794,21.8906 Q245.3451,22.1563 244.9701,22.1563 Q244.6263,22.1563 244.4232,21.9531 Q244.2201,21.7656 244.1107,21.25 Q244.0638,20.8906 243.8763,20.7031 Q243.5482,20.3281 242.9388,20.1094 Q242.3294,19.8906 241.7044,19.8906 Q240.9388,19.8906 240.2982,20.2188 Q239.6732,20.5469 239.1732,21.2969 Q238.6888,22.0469 238.6888,23.0781 L238.6888,24.1719 Q238.6888,25.4063 239.5794,26.2344 Q240.4701,27.0469 242.0638,27.0469 Q243.0013,27.0469 243.6576,26.7969 Q244.0482,26.6406 244.4701,26.2031 Q244.7357,25.9375 244.8763,25.8594 Q245.0326,25.7813 245.2357,25.7813 Q245.5638,25.7813 245.8138,26.0469 Q246.0794,26.2969 246.0794,26.6406 Q246.0794,26.9844 245.7357,27.3906 Q245.2357,27.9688 244.4388,28.2969 Q243.3607,28.75 242.0638,28.75 Q240.5482,28.75 239.3451,28.125 Q238.3607,27.625 237.6732,26.5625 Q236.9857,25.4844 236.9857,24.2031 L236.9857,23.0469 Q236.9857,21.7188 237.5951,20.5781 Q238.2201,19.4219 239.3138,18.8125 Q240.4076,18.1875 241.6419,18.1875 Q242.3763,18.1875 243.0169,18.3594 Q243.6732,18.5156 244.2201,18.875 Z " fill="#000000"/><text fill="#000000" font-family="sans-serif" font-size="14" lengthAdjust="spacing" textLength="99" x="255.4544" y="28.7285">MonoBehaviour</text><line style="stroke:#181818;stroke-width:0.5;" x1="227.4544" x2="356.4544" y1="39" y2="39"/><line style="stroke:#181818;stroke-width:0.5;" x1="227.4544" x2="356.4544" y1="47" y2="47"/></g><!--MD5=[02f215d6db5b7f34e36b05d8f35ff3a4]
class TextMeshPro--><g id="elem_TextMeshPro"><rect fill="#F1F1F1" height="48" id="TextMeshPro" rx="2.5" ry="2.5" style="stroke:#181818;stroke-width:0.5;" width="115" x="9.4544" y="293"/><ellipse cx="24.4544" cy="309" fill="#ADD1B2" rx="11" ry="11" style="stroke:#181818;stroke-width:1.0;"/><path d="M27.2201,304.875 Q27.3763,304.6563 27.5638,304.5469 Q27.7513,304.4375 27.9701,304.4375 Q28.3451,304.4375 28.5794,304.7031 Q28.8138,304.9531 28.8138,305.5625 L28.8138,307.0156 Q28.8138,307.625 28.5794,307.8906 Q28.3451,308.1563 27.9701,308.1563 Q27.6263,308.1563 27.4232,307.9531 Q27.2201,307.7656 27.1107,307.25 Q27.0638,306.8906 26.8763,306.7031 Q26.5482,306.3281 25.9388,306.1094 Q25.3294,305.8906 24.7044,305.8906 Q23.9388,305.8906 23.2982,306.2188 Q22.6732,306.5469 22.1732,307.2969 Q21.6888,308.0469 21.6888,309.0781 L21.6888,310.1719 Q21.6888,311.4063 22.5794,312.2344 Q23.4701,313.0469 25.0638,313.0469 Q26.0013,313.0469 26.6576,312.7969 Q27.0482,312.6406 27.4701,312.2031 Q27.7357,311.9375 27.8763,311.8594 Q28.0326,311.7813 28.2357,311.7813 Q28.5638,311.7813 28.8138,312.0469 Q29.0794,312.2969 29.0794,312.6406 Q29.0794,312.9844 28.7357,313.3906 Q28.2357,313.9688 27.4388,314.2969 Q26.3607,314.75 25.0638,314.75 Q23.5482,314.75 22.3451,314.125 Q21.3607,313.625 20.6732,312.5625 Q19.9857,311.4844 19.9857,310.2031 L19.9857,309.0469 Q19.9857,307.7188 20.5951,306.5781 Q21.2201,305.4219 22.3138,304.8125 Q23.4076,304.1875 24.6419,304.1875 Q25.3763,304.1875 26.0169,304.3594 Q26.6732,304.5156 27.2201,304.875 Z " fill="#000000"/><text fill="#000000" font-family="sans-serif" font-size="14" lengthAdjust="spacing" textLength="83" x="38.4544" y="314.7285">TextMeshPro</text><line style="stroke:#181818;stroke-width:0.5;" x1="10.4544" x2="123.4544" y1="325" y2="325"/><line style="stroke:#181818;stroke-width:0.5;" x1="10.4544" x2="123.4544" y1="333" y2="333"/></g><!--MD5=[d4acbd218f82916d1bb8c24e96c6a20e]
class TextContainer--><g id="elem_TextContainer"><rect fill="#F1F1F1" height="48" id="TextContainer" rx="2.5" ry="2.5" style="stroke:#181818;stroke-width:0.5;" width="121" x="159.4544" y="293"/><ellipse cx="174.4544" cy="309" fill="#ADD1B2" rx="11" ry="11" style="stroke:#181818;stroke-width:1.0;"/><path d="M177.2201,304.875 Q177.3763,304.6563 177.5638,304.5469 Q177.7513,304.4375 177.9701,304.4375 Q178.3451,304.4375 178.5794,304.7031 Q178.8138,304.9531 178.8138,305.5625 L178.8138,307.0156 Q178.8138,307.625 178.5794,307.8906 Q178.3451,308.1563 177.9701,308.1563 Q177.6263,308.1563 177.4232,307.9531 Q177.2201,307.7656 177.1107,307.25 Q177.0638,306.8906 176.8763,306.7031 Q176.5482,306.3281 175.9388,306.1094 Q175.3294,305.8906 174.7044,305.8906 Q173.9388,305.8906 173.2982,306.2188 Q172.6732,306.5469 172.1732,307.2969 Q171.6888,308.0469 171.6888,309.0781 L171.6888,310.1719 Q171.6888,311.4063 172.5794,312.2344 Q173.4701,313.0469 175.0638,313.0469 Q176.0013,313.0469 176.6576,312.7969 Q177.0482,312.6406 177.4701,312.2031 Q177.7357,311.9375 177.8763,311.8594 Q178.0326,311.7813 178.2357,311.7813 Q178.5638,311.7813 178.8138,312.0469 Q179.0794,312.2969 179.0794,312.6406 Q179.0794,312.9844 178.7357,313.3906 Q178.2357,313.9688 177.4388,314.2969 Q176.3607,314.75 175.0638,314.75 Q173.5482,314.75 172.3451,314.125 Q171.3607,313.625 170.6732,312.5625 Q169.9857,311.4844 169.9857,310.2031 L169.9857,309.0469 Q169.9857,307.7188 170.5951,306.5781 Q171.2201,305.4219 172.3138,304.8125 Q173.4076,304.1875 174.6419,304.1875 Q175.3763,304.1875 176.0169,304.3594 Q176.6732,304.5156 177.2201,304.875 Z " fill="#000000"/><text fill="#000000" font-family="sans-serif" font-size="14" lengthAdjust="spacing" textLength="89" x="188.4544" y="314.7285">TextContainer</text><line style="stroke:#181818;stroke-width:0.5;" x1="160.4544" x2="279.4544" y1="325" y2="325"/><line style="stroke:#181818;stroke-width:0.5;" x1="160.4544" x2="279.4544" y1="333" y2="333"/></g><!--MD5=[004b1d6c4ca8aad4ba8b586a335ed4f3]
class Transform--><g id="elem_Transform"><rect fill="#F1F1F1" height="48" id="Transform" rx="2.5" ry="2.5" style="stroke:#181818;stroke-width:0.5;" width="97" x="315.4544" y="293"/><ellipse cx="330.4544" cy="309" fill="#ADD1B2" rx="11" ry="11" style="stroke:#181818;stroke-width:1.0;"/><path d="M333.2201,304.875 Q333.3763,304.6563 333.5638,304.5469 Q333.7513,304.4375 333.9701,304.4375 Q334.3451,304.4375 334.5794,304.7031 Q334.8138,304.9531 334.8138,305.5625 L334.8138,307.0156 Q334.8138,307.625 334.5794,307.8906 Q334.3451,308.1563 333.9701,308.1563 Q333.6263,308.1563 333.4232,307.9531 Q333.2201,307.7656 333.1107,307.25 Q333.0638,306.8906 332.8763,306.7031 Q332.5482,306.3281 331.9388,306.1094 Q331.3294,305.8906 330.7044,305.8906 Q329.9388,305.8906 329.2982,306.2188 Q328.6732,306.5469 328.1732,307.2969 Q327.6888,308.0469 327.6888,309.0781 L327.6888,310.1719 Q327.6888,311.4063 328.5794,312.2344 Q329.4701,313.0469 331.0638,313.0469 Q332.0013,313.0469 332.6576,312.7969 Q333.0482,312.6406 333.4701,312.2031 Q333.7357,311.9375 333.8763,311.8594 Q334.0326,311.7813 334.2357,311.7813 Q334.5638,311.7813 334.8138,312.0469 Q335.0794,312.2969 335.0794,312.6406 Q335.0794,312.9844 334.7357,313.3906 Q334.2357,313.9688 333.4388,314.2969 Q332.3607,314.75 331.0638,314.75 Q329.5482,314.75 328.3451,314.125 Q327.3607,313.625 326.6732,312.5625 Q325.9857,311.4844 325.9857,310.2031 L325.9857,309.0469 Q325.9857,307.7188 326.5951,306.5781 Q327.2201,305.4219 328.3138,304.8125 Q329.4076,304.1875 330.6419,304.1875 Q331.3763,304.1875 332.0169,304.3594 Q332.6732,304.5156 333.2201,304.875 Z " fill="#000000"/><text fill="#000000" font-family="sans-serif" font-size="14" lengthAdjust="spacing" textLength="65" x="344.4544" y="314.7285">Transform</text><line style="stroke:#181818;stroke-width:0.5;" x1="316.4544" x2="411.4544" y1="325" y2="325"/><line style="stroke:#181818;stroke-width:0.5;" x1="316.4544" x2="411.4544" y1="333" y2="333"/></g><!--MD5=[452be1aaf8b94e2bc4204d466ef769a4]
class Camera--><g id="elem_Camera"><rect fill="#F1F1F1" height="48" id="Camera" rx="2.5" ry="2.5" style="stroke:#181818;stroke-width:0.5;" width="82" x="447.9544" y="293"/><ellipse cx="462.9544" cy="309" fill="#ADD1B2" rx="11" ry="11" style="stroke:#181818;stroke-width:1.0;"/><path d="M465.7201,304.875 Q465.8763,304.6563 466.0638,304.5469 Q466.2513,304.4375 466.4701,304.4375 Q466.8451,304.4375 467.0794,304.7031 Q467.3138,304.9531 467.3138,305.5625 L467.3138,307.0156 Q467.3138,307.625 467.0794,307.8906 Q466.8451,308.1563 466.4701,308.1563 Q466.1263,308.1563 465.9232,307.9531 Q465.7201,307.7656 465.6107,307.25 Q465.5638,306.8906 465.3763,306.7031 Q465.0482,306.3281 464.4388,306.1094 Q463.8294,305.8906 463.2044,305.8906 Q462.4388,305.8906 461.7982,306.2188 Q461.1732,306.5469 460.6732,307.2969 Q460.1888,308.0469 460.1888,309.0781 L460.1888,310.1719 Q460.1888,311.4063 461.0794,312.2344 Q461.9701,313.0469 463.5638,313.0469 Q464.5013,313.0469 465.1576,312.7969 Q465.5482,312.6406 465.9701,312.2031 Q466.2357,311.9375 466.3763,311.8594 Q466.5326,311.7813 466.7357,311.7813 Q467.0638,311.7813 467.3138,312.0469 Q467.5794,312.2969 467.5794,312.6406 Q467.5794,312.9844 467.2357,313.3906 Q466.7357,313.9688 465.9388,314.2969 Q464.8607,314.75 463.5638,314.75 Q462.0482,314.75 460.8451,314.125 Q459.8607,313.625 459.1732,312.5625 Q458.4857,311.4844 458.4857,310.2031 L458.4857,309.0469 Q458.4857,307.7188 459.0951,306.5781 Q459.7201,305.4219 460.8138,304.8125 Q461.9076,304.1875 463.1419,304.1875 Q463.8763,304.1875 464.5169,304.3594 Q465.1732,304.5156 465.7201,304.875 Z " fill="#000000"/><text fill="#000000" font-family="sans-serif" font-size="14" lengthAdjust="spacing" textLength="50" x="476.9544" y="314.7285">Camera</text><line style="stroke:#181818;stroke-width:0.5;" x1="448.9544" x2="528.9544" y1="325" y2="325"/><line style="stroke:#181818;stroke-width:0.5;" x1="448.9544" x2="528.9544" y1="333" y2="333"/></g><!--MD5=[fd50ea28c37cf3e56855ebc65138f8f4]
reverse link MonoBehaviour to TMPro_InstructionOverlay--><g id="link_MonoBehaviour_TMPro_InstructionOverlay"><path codeLine="12" d="M291.9544,75.33 C291.9544,87.86 291.9544,101.73 291.9544,114.99 " fill="none" id="MonoBehaviour-backto-TMPro_InstructionOverlay" style="stroke:#181818;stroke-width:1.0;"/><polygon fill="none" points="284.9544,75.28,291.9544,55.28,298.9544,75.28,284.9544,75.28" style="stroke:#181818;stroke-width:1.0;"/></g><!--MD5=[022aab28087fbe45853dd2cc4c125767]
link TMPro_InstructionOverlay to FpsCounterAnchorPositions--><g id="link_TMPro_InstructionOverlay_FpsCounterAnchorPositions"><path codeLine="13" d="M564.3736,212.4228 C564.3736,212.4228 571.4844,211.26 574.4344,210.73 " fill="none" id="TMPro_InstructionOverlay-FpsCounterAnchorPositions" style="stroke:#181818;stroke-width:1.0;"/><polygon fill="#181818" points="587.3644,208.18,577.7604,205.9979,582.459,209.1479,579.309,213.8465,587.3644,208.18" style="stroke:#181818;stroke-width:1.0;"/><line style="stroke:#181818;stroke-width:1.0;" x1="582.459" x2="574.6144" y1="209.1479" y2="210.69"/><polygon fill="none" points="552.5044,214.19,559.0281,217.2628,564.3736,212.4228,557.85,209.35,552.5044,214.19" style="stroke:#181818;stroke-width:1.0;"/><text fill="#000000" font-family="sans-serif" font-size="13" lengthAdjust="spacing" textLength="88" x="491.8899" y="237.646">AnchorPosition</text></g><!--MD5=[230a75e4157f0eafa855a77d99496e72]
reverse link TMPro_InstructionOverlay to FpsCounterAnchorPositions--><g id="link_TMPro_InstructionOverlay_FpsCounterAnchorPositions"><path codeLine="18" d="M567.4844,136.06 C574.1144,137.17 580.7444,138.42 587.3644,139.82 " fill="none" id="TMPro_InstructionOverlay-backto-FpsCounterAnchorPositions" style="stroke:#181818;stroke-width:1.0;"/><ellipse cx="560.4156" cy="134.999" fill="#FFFFFF" rx="8" ry="8" style="stroke:#181818;stroke-width:1.0;"/><line style="stroke:#181818;stroke-width:1.0;" x1="568.3267" x2="552.5044" y1="136.1879" y2="133.81"/><line style="stroke:#181818;stroke-width:1.0;" x1="559.2266" x2="561.6046" y1="142.9101" y2="127.0878"/></g><!--MD5=[9c5648c6641ee644bcab12d996181866]
link TMPro_InstructionOverlay to TextMeshPro--><g id="link_TMPro_InstructionOverlay_TextMeshPro"><path codeLine="14" d="M199.1444,233.16 C167.4444,253.03 133.5944,274.24 108.0844,290.23 " fill="none" id="TMPro_InstructionOverlay-to-TextMeshPro" style="stroke:#181818;stroke-width:1.0;"/><polygon fill="#181818" points="103.7444,292.95,113.4952,291.5632,107.982,290.2962,109.249,284.783,103.7444,292.95" style="stroke:#181818;stroke-width:1.0;"/><text fill="#000000" font-family="sans-serif" font-size="13" lengthAdjust="spacing" textLength="95" x="6" y="282.2773">m_TextMeshPro</text></g><!--MD5=[7813ba82e2515b8928e857a4554ae412]
link TMPro_InstructionOverlay to TextContainer--><g id="link_TMPro_InstructionOverlay_TextContainer"><path codeLine="15" d="M262.2544,233.16 C252.5644,252.14 242.2544,272.34 234.2344,288.05 " fill="none" id="TMPro_InstructionOverlay-to-TextContainer" style="stroke:#181818;stroke-width:1.0;"/><polygon fill="#181818" points="231.8244,292.77,239.4748,286.5674,234.0947,288.3151,232.347,282.935,231.8244,292.77" style="stroke:#181818;stroke-width:1.0;"/><text fill="#000000" font-family="sans-serif" font-size="13" lengthAdjust="spacing" textLength="95" x="127.6943" y="282.0512">m_textContainer</text></g><!--MD5=[40f76c8931592a5f53622fc1c1ff0444]
link TMPro_InstructionOverlay to Transform--><g id="link_TMPro_InstructionOverlay_Transform"><path codeLine="16" d="M321.6544,233.16 C331.3444,252.14 341.6644,272.34 349.6844,288.05 " fill="none" id="TMPro_InstructionOverlay-to-Transform" style="stroke:#181818;stroke-width:1.0;"/><polygon fill="#181818" points="352.0944,292.77,351.5718,282.935,349.8242,288.3151,344.4441,286.5674,352.0944,292.77" style="stroke:#181818;stroke-width:1.0;"/><text fill="#000000" font-family="sans-serif" font-size="13" lengthAdjust="spacing" textLength="156" x="369.0428" y="282.0512">m_frameCounter_transform</text></g><!--MD5=[1b3a7e51b9864b3a3b0a79c14009ddb3]
link TMPro_InstructionOverlay to Camera--><g id="link_TMPro_InstructionOverlay_Camera"><path codeLine="17" d="M373.2244,233.16 C400.7644,252.87 430.1544,273.91 452.4244,289.86 " fill="none" id="TMPro_InstructionOverlay-to-Camera" style="stroke:#181818;stroke-width:1.0;"/><polygon fill="#181818" points="456.5044,292.77,451.5284,284.2707,452.4435,289.853,446.8612,290.7681,456.5044,292.77" style="stroke:#181818;stroke-width:1.0;"/><text fill="#000000" font-family="sans-serif" font-size="13" lengthAdjust="spacing" textLength="61" x="392.6174" y="282.3519">m_camera</text></g><!--MD5=[fe20e3d5ead6cd600d77b2b943ae93e6]
@startuml
class TMPro_InstructionOverlay {
    - <<const>> instructions : string = "Camera Control - <#ffff00>Shift + RMB\n</color>Zoom - <#ffff00>Mouse wheel."
    Awake() : void
    Set_FrameCounter_Position(anchor_position:FpsCounterAnchorPositions) : void
}
enum FpsCounterAnchorPositions {
    TopLeft,
    BottomLeft,
    TopRight,
    BottomRight,
}
MonoBehaviour <|- - TMPro_InstructionOverlay
TMPro_InstructionOverlay o-> "AnchorPosition" FpsCounterAnchorPositions
TMPro_InstructionOverlay - -> "m_TextMeshPro" TextMeshPro
TMPro_InstructionOverlay - -> "m_textContainer" TextContainer
TMPro_InstructionOverlay - -> "m_frameCounter_transform" Transform
TMPro_InstructionOverlay - -> "m_camera" Camera
TMPro_InstructionOverlay +- - FpsCounterAnchorPositions
@enduml

PlantUML version 1.2022.5(Sat Apr 30 12:55:52 CEST 2022)
(GPL source distribution)
Java Runtime: Java(TM) SE Runtime Environment
JVM: Java HotSpot(TM) 64-Bit Server VM
Default Encoding: UTF-8
Language: en
Country: GB
--></g></svg>