<?xml version="1.0" encoding="UTF-8" standalone="no"?><svg xmlns="http://www.w3.org/2000/svg" xmlns:xlink="http://www.w3.org/1999/xlink" contentStyleType="text/css" height="187px" preserveAspectRatio="none" style="width:235px;height:187px;background:#FFFFFF;" version="1.1" viewBox="0 0 235 187" width="235px" zoomAndPan="magnify"><defs/><g><!--MD5=[f886168f454cac6a9b19d89af4513c30]
class FileUtilities--><g id="elem_FileUtilities"><rect codeLine="1" fill="#F1F1F1" height="65.6094" id="FileUtilities" rx="2.5" ry="2.5" style="stroke:#181818;stroke-width:0.5;" width="221" x="7" y="115"/><ellipse cx="79.75" cy="131" fill="#ADD1B2" rx="11" ry="11" style="stroke:#181818;stroke-width:1.0;"/><path d="M82.5156,126.875 Q82.6719,126.6563 82.8594,126.5469 Q83.0469,126.4375 83.2656,126.4375 Q83.6406,126.4375 83.875,126.7031 Q84.1094,126.9531 84.1094,127.5625 L84.1094,129.0156 Q84.1094,129.625 83.875,129.8906 Q83.6406,130.1563 83.2656,130.1563 Q82.9219,130.1563 82.7188,129.9531 Q82.5156,129.7656 82.4063,129.25 Q82.3594,128.8906 82.1719,128.7031 Q81.8438,128.3281 81.2344,128.1094 Q80.625,127.8906 80,127.8906 Q79.2344,127.8906 78.5938,128.2188 Q77.9688,128.5469 77.4688,129.2969 Q76.9844,130.0469 76.9844,131.0781 L76.9844,132.1719 Q76.9844,133.4063 77.875,134.2344 Q78.7656,135.0469 80.3594,135.0469 Q81.2969,135.0469 81.9531,134.7969 Q82.3438,134.6406 82.7656,134.2031 Q83.0313,133.9375 83.1719,133.8594 Q83.3281,133.7813 83.5313,133.7813 Q83.8594,133.7813 84.1094,134.0469 Q84.375,134.2969 84.375,134.6406 Q84.375,134.9844 84.0313,135.3906 Q83.5313,135.9688 82.7344,136.2969 Q81.6563,136.75 80.3594,136.75 Q78.8438,136.75 77.6406,136.125 Q76.6563,135.625 75.9688,134.5625 Q75.2813,133.4844 75.2813,132.2031 L75.2813,131.0469 Q75.2813,129.7188 75.8906,128.5781 Q76.5156,127.4219 77.6094,126.8125 Q78.7031,126.1875 79.9375,126.1875 Q80.6719,126.1875 81.3125,126.3594 Q81.9688,126.5156 82.5156,126.875 Z " fill="#000000"/><text fill="#000000" font-family="sans-serif" font-size="14" lengthAdjust="spacing" textLength="67" x="100.25" y="136.7285">FileUtilities</text><line style="stroke:#181818;stroke-width:0.5;" x1="8" x2="227" y1="147" y2="147"/><line style="stroke:#181818;stroke-width:0.5;" x1="8" x2="227" y1="155" y2="155"/><ellipse cx="18" cy="166" fill="#84BE84" rx="3" ry="3" style="stroke:#038048;stroke-width:1.0;"/><text fill="#000000" font-family="sans-serif" font-size="14" lengthAdjust="spacing" text-decoration="underline" textLength="195" x="27" y="173.5332">IsFileLocked(path:string) : bool</text></g><!--MD5=[83b3cf3d23d77c6f1e1b5291a241bc2a]
class MonoBehaviour--><g id="elem_MonoBehaviour"><rect fill="#F1F1F1" height="48" id="MonoBehaviour" rx="2.5" ry="2.5" style="stroke:#181818;stroke-width:0.5;" width="131" x="52" y="7"/><ellipse cx="67" cy="23" fill="#ADD1B2" rx="11" ry="11" style="stroke:#181818;stroke-width:1.0;"/><path d="M69.7656,18.875 Q69.9219,18.6563 70.1094,18.5469 Q70.2969,18.4375 70.5156,18.4375 Q70.8906,18.4375 71.125,18.7031 Q71.3594,18.9531 71.3594,19.5625 L71.3594,21.0156 Q71.3594,21.625 71.125,21.8906 Q70.8906,22.1563 70.5156,22.1563 Q70.1719,22.1563 69.9688,21.9531 Q69.7656,21.7656 69.6563,21.25 Q69.6094,20.8906 69.4219,20.7031 Q69.0938,20.3281 68.4844,20.1094 Q67.875,19.8906 67.25,19.8906 Q66.4844,19.8906 65.8438,20.2188 Q65.2188,20.5469 64.7188,21.2969 Q64.2344,22.0469 64.2344,23.0781 L64.2344,24.1719 Q64.2344,25.4063 65.125,26.2344 Q66.0156,27.0469 67.6094,27.0469 Q68.5469,27.0469 69.2031,26.7969 Q69.5938,26.6406 70.0156,26.2031 Q70.2813,25.9375 70.4219,25.8594 Q70.5781,25.7813 70.7813,25.7813 Q71.1094,25.7813 71.3594,26.0469 Q71.625,26.2969 71.625,26.6406 Q71.625,26.9844 71.2813,27.3906 Q70.7813,27.9688 69.9844,28.2969 Q68.9063,28.75 67.6094,28.75 Q66.0938,28.75 64.8906,28.125 Q63.9063,27.625 63.2188,26.5625 Q62.5313,25.4844 62.5313,24.2031 L62.5313,23.0469 Q62.5313,21.7188 63.1406,20.5781 Q63.7656,19.4219 64.8594,18.8125 Q65.9531,18.1875 67.1875,18.1875 Q67.9219,18.1875 68.5625,18.3594 Q69.2188,18.5156 69.7656,18.875 Z " fill="#000000"/><text fill="#000000" font-family="sans-serif" font-size="14" lengthAdjust="spacing" textLength="99" x="81" y="28.7285">MonoBehaviour</text><line style="stroke:#181818;stroke-width:0.5;" x1="53" x2="182" y1="39" y2="39"/><line style="stroke:#181818;stroke-width:0.5;" x1="53" x2="182" y1="47" y2="47"/></g><!--MD5=[564e613fe1a62449b5e840616becf32f]
reverse link MonoBehaviour to FileUtilities--><g id="link_MonoBehaviour_FileUtilities"><path codeLine="4" d="M117.5,75.62 C117.5,88.56 117.5,102.51 117.5,114.61 " fill="none" id="MonoBehaviour-backto-FileUtilities" style="stroke:#181818;stroke-width:1.0;"/><polygon fill="none" points="110.5,75.27,117.5,55.27,124.5,75.27,110.5,75.27" style="stroke:#181818;stroke-width:1.0;"/></g><!--MD5=[4ca39a5fe5a26acfd14a75ab6c95d476]
@startuml
class FileUtilities {
    + {static} IsFileLocked(path:string) : bool
}
MonoBehaviour <|- - FileUtilities
@enduml

PlantUML version 1.2022.5(Sat Apr 30 12:55:52 CEST 2022)
(GPL source distribution)
Java Runtime: Java(TM) SE Runtime Environment
JVM: Java HotSpot(TM) 64-Bit Server VM
Default Encoding: UTF-8
Language: en
Country: GB
--></g></svg>