<?xml version="1.0" encoding="UTF-8" standalone="no"?><svg xmlns="http://www.w3.org/2000/svg" xmlns:xlink="http://www.w3.org/1999/xlink" contentStyleType="text/css" height="489px" preserveAspectRatio="none" style="width:489px;height:489px;background:#FFFFFF;" version="1.1" viewBox="0 0 489 489" width="489px" zoomAndPan="magnify"><defs/><g><!--MD5=[d5c76b986b2f885f478a45b3e2a835e6]
class Shooter--><g id="elem_Shooter"><rect codeLine="1" fill="#F1F1F1" height="259.3125" id="Shooter" rx="2.5" ry="2.5" style="stroke:#181818;stroke-width:0.5;" width="253" x="7" y="115"/><ellipse cx="104.25" cy="131" fill="#ADD1B2" rx="11" ry="11" style="stroke:#181818;stroke-width:1.0;"/><path d="M107.0156,126.875 Q107.1719,126.6563 107.3594,126.5469 Q107.5469,126.4375 107.7656,126.4375 Q108.1406,126.4375 108.375,126.7031 Q108.6094,126.9531 108.6094,127.5625 L108.6094,129.0156 Q108.6094,129.625 108.375,129.8906 Q108.1406,130.1563 107.7656,130.1563 Q107.4219,130.1563 107.2188,129.9531 Q107.0156,129.7656 106.9063,129.25 Q106.8594,128.8906 106.6719,128.7031 Q106.3438,128.3281 105.7344,128.1094 Q105.125,127.8906 104.5,127.8906 Q103.7344,127.8906 103.0938,128.2188 Q102.4688,128.5469 101.9688,129.2969 Q101.4844,130.0469 101.4844,131.0781 L101.4844,132.1719 Q101.4844,133.4063 102.375,134.2344 Q103.2656,135.0469 104.8594,135.0469 Q105.7969,135.0469 106.4531,134.7969 Q106.8438,134.6406 107.2656,134.2031 Q107.5313,133.9375 107.6719,133.8594 Q107.8281,133.7813 108.0313,133.7813 Q108.3594,133.7813 108.6094,134.0469 Q108.875,134.2969 108.875,134.6406 Q108.875,134.9844 108.5313,135.3906 Q108.0313,135.9688 107.2344,136.2969 Q106.1563,136.75 104.8594,136.75 Q103.3438,136.75 102.1406,136.125 Q101.1563,135.625 100.4688,134.5625 Q99.7813,133.4844 99.7813,132.2031 L99.7813,131.0469 Q99.7813,129.7188 100.3906,128.5781 Q101.0156,127.4219 102.1094,126.8125 Q103.2031,126.1875 104.4375,126.1875 Q105.1719,126.1875 105.8125,126.3594 Q106.4688,126.5156 107.0156,126.875 Z " fill="#000000"/><text fill="#000000" font-family="sans-serif" font-size="14" lengthAdjust="spacing" textLength="50" x="124.75" y="136.7285">Shooter</text><line style="stroke:#181818;stroke-width:0.5;" x1="8" x2="259" y1="147" y2="147"/><rect fill="none" height="6" style="stroke:#C82930;stroke-width:1.0;" width="6" x="15" y="155"/><text fill="#000000" font-family="sans-serif" font-size="14" lengthAdjust="spacing" textLength="189" x="27" y="165.5332">timeBetweenBullets : float = 1f</text><rect fill="none" height="6" style="stroke:#C82930;stroke-width:1.0;" width="6" x="15" y="172.6094"/><text fill="#000000" font-family="sans-serif" font-size="14" lengthAdjust="spacing" textLength="198" x="27" y="183.1426">timeBetweenRockets : float = 5f</text><rect fill="none" height="6" style="stroke:#C82930;stroke-width:1.0;" width="6" x="15" y="190.2188"/><text fill="#000000" font-family="sans-serif" font-size="14" lengthAdjust="spacing" textLength="164" x="27" y="200.752">radarDistance : float = 10f</text><rect fill="none" height="6" style="stroke:#C82930;stroke-width:1.0;" width="6" x="15" y="207.8281"/><text fill="#000000" font-family="sans-serif" font-size="14" lengthAdjust="spacing" textLength="182" x="27" y="218.3613">timeToLockTarget : float = 5f</text><rect fill="none" height="6" style="stroke:#C82930;stroke-width:1.0;" width="6" x="15" y="225.4375"/><text fill="#000000" font-family="sans-serif" font-size="14" lengthAdjust="spacing" textLength="146" x="27" y="235.9707">lockDuration : float = 5f</text><rect fill="none" height="6" style="stroke:#C82930;stroke-width:1.0;" width="6" x="15" y="243.0469"/><text fill="#000000" font-family="sans-serif" font-size="14" lengthAdjust="spacing" textLength="218" x="27" y="253.5801">timePastSinceLastBullet : float = 0f</text><rect fill="none" height="6" style="stroke:#C82930;stroke-width:1.0;" width="6" x="15" y="260.6563"/><text fill="#000000" font-family="sans-serif" font-size="14" lengthAdjust="spacing" textLength="227" x="27" y="271.1895">timePastSinceLastRocket : float = 0f</text><rect fill="none" height="6" style="stroke:#C82930;stroke-width:1.0;" width="6" x="15" y="278.2656"/><text fill="#000000" font-family="sans-serif" font-size="14" lengthAdjust="spacing" textLength="122" x="27" y="288.7988">timeUntilLock : float</text><rect fill="none" height="6" style="stroke:#C82930;stroke-width:1.0;" width="6" x="15" y="295.875"/><text fill="#000000" font-family="sans-serif" font-size="14" lengthAdjust="spacing" textLength="134" x="27" y="306.4082">timeUntilUnlock : float</text><line style="stroke:#181818;stroke-width:0.5;" x1="8" x2="259" y1="313.4844" y2="313.4844"/><rect fill="#F24D5C" height="6" style="stroke:#C82930;stroke-width:1.0;" width="6" x="15" y="321.4844"/><text fill="#000000" font-family="sans-serif" font-size="14" lengthAdjust="spacing" textLength="78" x="27" y="332.0176">Start() : void</text><text fill="#000000" font-family="sans-serif" font-size="14" lengthAdjust="spacing" textLength="93" x="27" y="349.627">Update() : void</text><rect fill="#F24D5C" height="6" style="stroke:#C82930;stroke-width:1.0;" width="6" x="15" y="356.7031"/><text fill="#000000" font-family="sans-serif" font-size="14" lengthAdjust="spacing" textLength="144" x="27" y="367.2363">accquireTarget() : void</text></g><!--MD5=[83b3cf3d23d77c6f1e1b5291a241bc2a]
class MonoBehaviour--><g id="elem_MonoBehaviour"><rect fill="#F1F1F1" height="48" id="MonoBehaviour" rx="2.5" ry="2.5" style="stroke:#181818;stroke-width:0.5;" width="131" x="68" y="7"/><ellipse cx="83" cy="23" fill="#ADD1B2" rx="11" ry="11" style="stroke:#181818;stroke-width:1.0;"/><path d="M85.7656,18.875 Q85.9219,18.6563 86.1094,18.5469 Q86.2969,18.4375 86.5156,18.4375 Q86.8906,18.4375 87.125,18.7031 Q87.3594,18.9531 87.3594,19.5625 L87.3594,21.0156 Q87.3594,21.625 87.125,21.8906 Q86.8906,22.1563 86.5156,22.1563 Q86.1719,22.1563 85.9688,21.9531 Q85.7656,21.7656 85.6563,21.25 Q85.6094,20.8906 85.4219,20.7031 Q85.0938,20.3281 84.4844,20.1094 Q83.875,19.8906 83.25,19.8906 Q82.4844,19.8906 81.8438,20.2188 Q81.2188,20.5469 80.7188,21.2969 Q80.2344,22.0469 80.2344,23.0781 L80.2344,24.1719 Q80.2344,25.4063 81.125,26.2344 Q82.0156,27.0469 83.6094,27.0469 Q84.5469,27.0469 85.2031,26.7969 Q85.5938,26.6406 86.0156,26.2031 Q86.2813,25.9375 86.4219,25.8594 Q86.5781,25.7813 86.7813,25.7813 Q87.1094,25.7813 87.3594,26.0469 Q87.625,26.2969 87.625,26.6406 Q87.625,26.9844 87.2813,27.3906 Q86.7813,27.9688 85.9844,28.2969 Q84.9063,28.75 83.6094,28.75 Q82.0938,28.75 80.8906,28.125 Q79.9063,27.625 79.2188,26.5625 Q78.5313,25.4844 78.5313,24.2031 L78.5313,23.0469 Q78.5313,21.7188 79.1406,20.5781 Q79.7656,19.4219 80.8594,18.8125 Q81.9531,18.1875 83.1875,18.1875 Q83.9219,18.1875 84.5625,18.3594 Q85.2188,18.5156 85.7656,18.875 Z " fill="#000000"/><text fill="#000000" font-family="sans-serif" font-size="14" lengthAdjust="spacing" textLength="99" x="97" y="28.7285">MonoBehaviour</text><line style="stroke:#181818;stroke-width:0.5;" x1="69" x2="198" y1="39" y2="39"/><line style="stroke:#181818;stroke-width:0.5;" x1="69" x2="198" y1="47" y2="47"/></g><!--MD5=[064f7a74fee85463ec1a30143664ee17]
class GameObject--><g id="elem_GameObject"><rect fill="#F1F1F1" height="48" id="GameObject" rx="2.5" ry="2.5" style="stroke:#181818;stroke-width:0.5;" width="111" x="78" y="434"/><ellipse cx="93" cy="450" fill="#ADD1B2" rx="11" ry="11" style="stroke:#181818;stroke-width:1.0;"/><path d="M95.7656,445.875 Q95.9219,445.6563 96.1094,445.5469 Q96.2969,445.4375 96.5156,445.4375 Q96.8906,445.4375 97.125,445.7031 Q97.3594,445.9531 97.3594,446.5625 L97.3594,448.0156 Q97.3594,448.625 97.125,448.8906 Q96.8906,449.1563 96.5156,449.1563 Q96.1719,449.1563 95.9688,448.9531 Q95.7656,448.7656 95.6563,448.25 Q95.6094,447.8906 95.4219,447.7031 Q95.0938,447.3281 94.4844,447.1094 Q93.875,446.8906 93.25,446.8906 Q92.4844,446.8906 91.8438,447.2188 Q91.2188,447.5469 90.7188,448.2969 Q90.2344,449.0469 90.2344,450.0781 L90.2344,451.1719 Q90.2344,452.4063 91.125,453.2344 Q92.0156,454.0469 93.6094,454.0469 Q94.5469,454.0469 95.2031,453.7969 Q95.5938,453.6406 96.0156,453.2031 Q96.2813,452.9375 96.4219,452.8594 Q96.5781,452.7813 96.7813,452.7813 Q97.1094,452.7813 97.3594,453.0469 Q97.625,453.2969 97.625,453.6406 Q97.625,453.9844 97.2813,454.3906 Q96.7813,454.9688 95.9844,455.2969 Q94.9063,455.75 93.6094,455.75 Q92.0938,455.75 90.8906,455.125 Q89.9063,454.625 89.2188,453.5625 Q88.5313,452.4844 88.5313,451.2031 L88.5313,450.0469 Q88.5313,448.7188 89.1406,447.5781 Q89.7656,446.4219 90.8594,445.8125 Q91.9531,445.1875 93.1875,445.1875 Q93.9219,445.1875 94.5625,445.3594 Q95.2188,445.5156 95.7656,445.875 Z " fill="#000000"/><text fill="#000000" font-family="sans-serif" font-size="14" lengthAdjust="spacing" textLength="79" x="107" y="455.7285">GameObject</text><line style="stroke:#181818;stroke-width:0.5;" x1="79" x2="188" y1="466" y2="466"/><line style="stroke:#181818;stroke-width:0.5;" x1="79" x2="188" y1="474" y2="474"/></g><!--MD5=[24ec51728e56f64a3c7112f6f5948d1e]
class Rigidbody--><g id="elem_Rigidbody"><rect fill="#F1F1F1" height="48" id="Rigidbody" rx="2.5" ry="2.5" style="stroke:#181818;stroke-width:0.5;" width="95" x="224" y="434"/><ellipse cx="239" cy="450" fill="#ADD1B2" rx="11" ry="11" style="stroke:#181818;stroke-width:1.0;"/><path d="M241.7656,445.875 Q241.9219,445.6563 242.1094,445.5469 Q242.2969,445.4375 242.5156,445.4375 Q242.8906,445.4375 243.125,445.7031 Q243.3594,445.9531 243.3594,446.5625 L243.3594,448.0156 Q243.3594,448.625 243.125,448.8906 Q242.8906,449.1563 242.5156,449.1563 Q242.1719,449.1563 241.9688,448.9531 Q241.7656,448.7656 241.6563,448.25 Q241.6094,447.8906 241.4219,447.7031 Q241.0938,447.3281 240.4844,447.1094 Q239.875,446.8906 239.25,446.8906 Q238.4844,446.8906 237.8438,447.2188 Q237.2188,447.5469 236.7188,448.2969 Q236.2344,449.0469 236.2344,450.0781 L236.2344,451.1719 Q236.2344,452.4063 237.125,453.2344 Q238.0156,454.0469 239.6094,454.0469 Q240.5469,454.0469 241.2031,453.7969 Q241.5938,453.6406 242.0156,453.2031 Q242.2813,452.9375 242.4219,452.8594 Q242.5781,452.7813 242.7813,452.7813 Q243.1094,452.7813 243.3594,453.0469 Q243.625,453.2969 243.625,453.6406 Q243.625,453.9844 243.2813,454.3906 Q242.7813,454.9688 241.9844,455.2969 Q240.9063,455.75 239.6094,455.75 Q238.0938,455.75 236.8906,455.125 Q235.9063,454.625 235.2188,453.5625 Q234.5313,452.4844 234.5313,451.2031 L234.5313,450.0469 Q234.5313,448.7188 235.1406,447.5781 Q235.7656,446.4219 236.8594,445.8125 Q237.9531,445.1875 239.1875,445.1875 Q239.9219,445.1875 240.5625,445.3594 Q241.2188,445.5156 241.7656,445.875 Z " fill="#000000"/><text fill="#000000" font-family="sans-serif" font-size="14" lengthAdjust="spacing" textLength="63" x="253" y="455.7285">Rigidbody</text><line style="stroke:#181818;stroke-width:0.5;" x1="225" x2="318" y1="466" y2="466"/><line style="stroke:#181818;stroke-width:0.5;" x1="225" x2="318" y1="474" y2="474"/></g><!--MD5=[d2bd05e7b33ea8372fd388c92845b4a4]
class PlayerManager--><g id="elem_PlayerManager"><rect fill="#F1F1F1" height="48" id="PlayerManager" rx="2.5" ry="2.5" style="stroke:#181818;stroke-width:0.5;" width="128" x="354.5" y="434"/><ellipse cx="369.5" cy="450" fill="#ADD1B2" rx="11" ry="11" style="stroke:#181818;stroke-width:1.0;"/><path d="M372.2656,445.875 Q372.4219,445.6563 372.6094,445.5469 Q372.7969,445.4375 373.0156,445.4375 Q373.3906,445.4375 373.625,445.7031 Q373.8594,445.9531 373.8594,446.5625 L373.8594,448.0156 Q373.8594,448.625 373.625,448.8906 Q373.3906,449.1563 373.0156,449.1563 Q372.6719,449.1563 372.4688,448.9531 Q372.2656,448.7656 372.1563,448.25 Q372.1094,447.8906 371.9219,447.7031 Q371.5938,447.3281 370.9844,447.1094 Q370.375,446.8906 369.75,446.8906 Q368.9844,446.8906 368.3438,447.2188 Q367.7188,447.5469 367.2188,448.2969 Q366.7344,449.0469 366.7344,450.0781 L366.7344,451.1719 Q366.7344,452.4063 367.625,453.2344 Q368.5156,454.0469 370.1094,454.0469 Q371.0469,454.0469 371.7031,453.7969 Q372.0938,453.6406 372.5156,453.2031 Q372.7813,452.9375 372.9219,452.8594 Q373.0781,452.7813 373.2813,452.7813 Q373.6094,452.7813 373.8594,453.0469 Q374.125,453.2969 374.125,453.6406 Q374.125,453.9844 373.7813,454.3906 Q373.2813,454.9688 372.4844,455.2969 Q371.4063,455.75 370.1094,455.75 Q368.5938,455.75 367.3906,455.125 Q366.4063,454.625 365.7188,453.5625 Q365.0313,452.4844 365.0313,451.2031 L365.0313,450.0469 Q365.0313,448.7188 365.6406,447.5781 Q366.2656,446.4219 367.3594,445.8125 Q368.4531,445.1875 369.6875,445.1875 Q370.4219,445.1875 371.0625,445.3594 Q371.7188,445.5156 372.2656,445.875 Z " fill="#000000"/><text fill="#000000" font-family="sans-serif" font-size="14" lengthAdjust="spacing" textLength="96" x="383.5" y="455.7285">PlayerManager</text><line style="stroke:#181818;stroke-width:0.5;" x1="355.5" x2="481.5" y1="466" y2="466"/><line style="stroke:#181818;stroke-width:0.5;" x1="355.5" x2="481.5" y1="474" y2="474"/></g><!--MD5=[b8792b4c0115ec5cab7fb55cbe327480]
reverse link MonoBehaviour to Shooter--><g id="link_MonoBehaviour_Shooter"><path codeLine="15" d="M133.5,75.06 C133.5,87 133.5,100.6 133.5,114.79 " fill="none" id="MonoBehaviour-backto-Shooter" style="stroke:#181818;stroke-width:1.0;"/><polygon fill="none" points="126.5,75.04,133.5,55.04,140.5,75.04,126.5,75.04" style="stroke:#181818;stroke-width:1.0;"/></g><!--MD5=[cbf589fd38d9ff66093d194688117a62]
link Shooter to GameObject--><g id="link_Shooter_GameObject"><path codeLine="16" d="M82.1,374.02 C84.13,394.87 89.01,414.48 96.73,429.4 " fill="none" id="Shooter-to-GameObject" style="stroke:#181818;stroke-width:1.0;"/><polygon fill="#181818" points="99.21,433.87,98.3358,424.06,96.7818,429.4992,91.3426,427.9452,99.21,433.87" style="stroke:#181818;stroke-width:1.0;"/><text fill="#000000" font-family="sans-serif" font-size="13" lengthAdjust="spacing" textLength="31" x="55.4513" y="423.1768">plane</text></g><!--MD5=[cbf589fd38d9ff66093d194688117a62]
link Shooter to GameObject--><g id="link_Shooter_GameObject"><path codeLine="17" d="M107.8,374.02 C108.81,394.69 111.21,414.14 115.01,429.01 " fill="none" id="Shooter-to-GameObject-1" style="stroke:#181818;stroke-width:1.0;"/><polygon fill="#181818" points="116.36,433.87,117.8217,424.1302,115.0299,429.0502,110.1099,426.2584,116.36,433.87" style="stroke:#181818;stroke-width:1.0;"/><text fill="#000000" font-family="sans-serif" font-size="13" lengthAdjust="spacing" textLength="59" x="119.5273" y="423.1768">radarPoint</text></g><!--MD5=[cbf589fd38d9ff66093d194688117a62]
link Shooter to GameObject--><g id="link_Shooter_GameObject"><path codeLine="18" d="M133.5,374.02 C133.5,394.51 133.5,413.8 133.5,428.62 " fill="none" id="Shooter-to-GameObject-2" style="stroke:#181818;stroke-width:1.0;"/><polygon fill="#181818" points="133.5,433.87,137.5,424.87,133.5,428.87,129.5,424.87,133.5,433.87" style="stroke:#181818;stroke-width:1.0;"/><text fill="#000000" font-family="sans-serif" font-size="13" lengthAdjust="spacing" textLength="68" x="142.2125" y="423.1768">currentLock</text></g><!--MD5=[cbf589fd38d9ff66093d194688117a62]
link Shooter to GameObject--><g id="link_Shooter_GameObject"><path codeLine="19" d="M159.2,374.02 C158.19,394.69 155.79,414.14 151.99,429.01 " fill="none" id="Shooter-to-GameObject-3" style="stroke:#181818;stroke-width:1.0;"/><polygon fill="#181818" points="150.64,433.87,156.8901,426.2584,151.9701,429.0502,149.1783,424.1302,150.64,433.87" style="stroke:#181818;stroke-width:1.0;"/><text fill="#000000" font-family="sans-serif" font-size="13" lengthAdjust="spacing" textLength="49" x="188.3557" y="423.1658">lastLock</text></g><!--MD5=[cbf589fd38d9ff66093d194688117a62]
link Shooter to GameObject--><g id="link_Shooter_GameObject"><path codeLine="20" d="M184.9,374.02 C182.87,394.87 177.99,414.48 170.27,429.4 " fill="none" id="Shooter-to-GameObject-4" style="stroke:#181818;stroke-width:1.0;"/><polygon fill="#181818" points="167.79,433.87,175.6574,427.9452,170.2182,429.4992,168.6642,424.06,167.79,433.87" style="stroke:#181818;stroke-width:1.0;"/><text fill="#000000" font-family="sans-serif" font-size="13" lengthAdjust="spacing" textLength="76" x="186.2406" y="423.1141">currentTarget</text></g><!--MD5=[bb70feed56f2dcb8d2f6fa8b77f301bb]
link Shooter to Rigidbody--><g id="link_Shooter_Rigidbody"><path codeLine="21" d="M217.35,374.02 C230.96,394.87 243.76,414.48 253.49,429.4 " fill="none" id="Shooter-to-Rigidbody" style="stroke:#181818;stroke-width:1.0;"/><polygon fill="#181818" points="256.41,433.87,254.8461,424.1461,253.6795,429.6814,248.1443,428.5149,256.41,433.87" style="stroke:#181818;stroke-width:1.0;"/><text fill="#000000" font-family="sans-serif" font-size="13" lengthAdjust="spacing" textLength="47" x="258.5651" y="423.1768">planeRb</text></g><!--MD5=[19f12f2b263f5c680507e70b440b39a5]
link Shooter to PlayerManager--><g id="link_Shooter_PlayerManager"><path codeLine="22" d="M260.16,339.5 C305.12,372.86 352.21,407.81 383.23,430.83 " fill="none" id="Shooter-to-PlayerManager" style="stroke:#181818;stroke-width:1.0;"/><polygon fill="#181818" points="387.31,433.85,382.4757,425.2693,383.298,430.866,377.7013,431.6884,387.31,433.85" style="stroke:#181818;stroke-width:1.0;"/><text fill="#000000" font-family="sans-serif" font-size="13" lengthAdjust="spacing" textLength="85" x="390.2082" y="423.1517">playerManager</text></g><!--MD5=[32fe11203eac080bfcb7a68c60fe9c64]
@startuml
class Shooter {
    - timeBetweenBullets : float = 1f
    - timeBetweenRockets : float = 5f
    - radarDistance : float = 10f
    - timeToLockTarget : float = 5f
    - lockDuration : float = 5f
    - timePastSinceLastBullet : float = 0f
    - timePastSinceLastRocket : float = 0f
    - timeUntilLock : float
    - timeUntilUnlock : float
    - Start() : void
    Update() : void
    - accquireTarget() : void
}
MonoBehaviour <|- - Shooter
Shooter - -> "plane" GameObject
Shooter - -> "radarPoint" GameObject
Shooter - -> "currentLock" GameObject
Shooter - -> "lastLock" GameObject
Shooter - -> "currentTarget" GameObject
Shooter - -> "planeRb" Rigidbody
Shooter - -> "playerManager" PlayerManager
@enduml

PlantUML version 1.2022.5(Sat Apr 30 12:55:52 CEST 2022)
(GPL source distribution)
Java Runtime: Java(TM) SE Runtime Environment
JVM: Java HotSpot(TM) 64-Bit Server VM
Default Encoding: UTF-8
Language: en
Country: GB
--></g></svg>