<?xml version="1.0" encoding="UTF-8" standalone="no"?><svg xmlns="http://www.w3.org/2000/svg" xmlns:xlink="http://www.w3.org/1999/xlink" contentStyleType="text/css" height="205px" preserveAspectRatio="none" style="width:133px;height:205px;background:#FFFFFF;" version="1.1" viewBox="0 0 133 205" width="133px" zoomAndPan="magnify"><defs/><g><!--MD5=[2824395d61b6e4620487641a86c41e67]
class Bullet--><g id="elem_Bullet"><rect codeLine="1" fill="#F1F1F1" height="83.2188" id="Bullet" rx="2.5" ry="2.5" style="stroke:#181818;stroke-width:0.5;" width="119" x="7" y="115"/><ellipse cx="45.4" cy="131" fill="#ADD1B2" rx="11" ry="11" style="stroke:#181818;stroke-width:1.0;"/><path d="M48.1656,126.875 Q48.3219,126.6563 48.5094,126.5469 Q48.6969,126.4375 48.9156,126.4375 Q49.2906,126.4375 49.525,126.7031 Q49.7594,126.9531 49.7594,127.5625 L49.7594,129.0156 Q49.7594,129.625 49.525,129.8906 Q49.2906,130.1563 48.9156,130.1563 Q48.5719,130.1563 48.3688,129.9531 Q48.1656,129.7656 48.0563,129.25 Q48.0094,128.8906 47.8219,128.7031 Q47.4938,128.3281 46.8844,128.1094 Q46.275,127.8906 45.65,127.8906 Q44.8844,127.8906 44.2438,128.2188 Q43.6188,128.5469 43.1188,129.2969 Q42.6344,130.0469 42.6344,131.0781 L42.6344,132.1719 Q42.6344,133.4063 43.525,134.2344 Q44.4156,135.0469 46.0094,135.0469 Q46.9469,135.0469 47.6031,134.7969 Q47.9938,134.6406 48.4156,134.2031 Q48.6813,133.9375 48.8219,133.8594 Q48.9781,133.7813 49.1813,133.7813 Q49.5094,133.7813 49.7594,134.0469 Q50.025,134.2969 50.025,134.6406 Q50.025,134.9844 49.6813,135.3906 Q49.1813,135.9688 48.3844,136.2969 Q47.3063,136.75 46.0094,136.75 Q44.4938,136.75 43.2906,136.125 Q42.3063,135.625 41.6188,134.5625 Q40.9313,133.4844 40.9313,132.2031 L40.9313,131.0469 Q40.9313,129.7188 41.5406,128.5781 Q42.1656,127.4219 43.2594,126.8125 Q44.3531,126.1875 45.5875,126.1875 Q46.3219,126.1875 46.9625,126.3594 Q47.6188,126.5156 48.1656,126.875 Z " fill="#000000"/><text fill="#000000" font-family="sans-serif" font-size="14" lengthAdjust="spacing" textLength="35" x="64.6" y="136.7285">Bullet</text><line style="stroke:#181818;stroke-width:0.5;" x1="8" x2="125" y1="147" y2="147"/><line style="stroke:#181818;stroke-width:0.5;" x1="8" x2="125" y1="155" y2="155"/><rect fill="#F24D5C" height="6" style="stroke:#C82930;stroke-width:1.0;" width="6" x="15" y="163"/><text fill="#000000" font-family="sans-serif" font-size="14" lengthAdjust="spacing" textLength="78" x="27" y="173.5332">Start() : void</text><ellipse cx="18" cy="183.6094" fill="#84BE84" rx="3" ry="3" style="stroke:#038048;stroke-width:1.0;"/><text fill="#000000" font-family="sans-serif" font-size="14" lengthAdjust="spacing" textLength="93" x="27" y="191.1426">Update() : void</text></g><!--MD5=[9e086ae7cb173547c374b8a4e58c7dec]
class Projectile--><g id="elem_Projectile"><rect fill="#F1F1F1" height="48" id="Projectile" rx="2.5" ry="2.5" style="stroke:#181818;stroke-width:0.5;" width="90" x="21.5" y="7"/><ellipse cx="36.5" cy="23" fill="#ADD1B2" rx="11" ry="11" style="stroke:#181818;stroke-width:1.0;"/><path d="M39.2656,18.875 Q39.4219,18.6563 39.6094,18.5469 Q39.7969,18.4375 40.0156,18.4375 Q40.3906,18.4375 40.625,18.7031 Q40.8594,18.9531 40.8594,19.5625 L40.8594,21.0156 Q40.8594,21.625 40.625,21.8906 Q40.3906,22.1563 40.0156,22.1563 Q39.6719,22.1563 39.4688,21.9531 Q39.2656,21.7656 39.1563,21.25 Q39.1094,20.8906 38.9219,20.7031 Q38.5938,20.3281 37.9844,20.1094 Q37.375,19.8906 36.75,19.8906 Q35.9844,19.8906 35.3438,20.2188 Q34.7188,20.5469 34.2188,21.2969 Q33.7344,22.0469 33.7344,23.0781 L33.7344,24.1719 Q33.7344,25.4063 34.625,26.2344 Q35.5156,27.0469 37.1094,27.0469 Q38.0469,27.0469 38.7031,26.7969 Q39.0938,26.6406 39.5156,26.2031 Q39.7813,25.9375 39.9219,25.8594 Q40.0781,25.7813 40.2813,25.7813 Q40.6094,25.7813 40.8594,26.0469 Q41.125,26.2969 41.125,26.6406 Q41.125,26.9844 40.7813,27.3906 Q40.2813,27.9688 39.4844,28.2969 Q38.4063,28.75 37.1094,28.75 Q35.5938,28.75 34.3906,28.125 Q33.4063,27.625 32.7188,26.5625 Q32.0313,25.4844 32.0313,24.2031 L32.0313,23.0469 Q32.0313,21.7188 32.6406,20.5781 Q33.2656,19.4219 34.3594,18.8125 Q35.4531,18.1875 36.6875,18.1875 Q37.4219,18.1875 38.0625,18.3594 Q38.7188,18.5156 39.2656,18.875 Z " fill="#000000"/><text fill="#000000" font-family="sans-serif" font-size="14" lengthAdjust="spacing" textLength="58" x="50.5" y="28.7285">Projectile</text><line style="stroke:#181818;stroke-width:0.5;" x1="22.5" x2="110.5" y1="39" y2="39"/><line style="stroke:#181818;stroke-width:0.5;" x1="22.5" x2="110.5" y1="47" y2="47"/></g><!--MD5=[7e03f72d9bab9de78a8a522a3950e51a]
reverse link Projectile to Bullet--><g id="link_Projectile_Bullet"><path codeLine="5" d="M66.5,75.31 C66.5,88.16 66.5,102.19 66.5,114.87 " fill="none" id="Projectile-backto-Bullet" style="stroke:#181818;stroke-width:1.0;"/><polygon fill="none" points="59.5,75.23,66.5,55.23,73.5,75.23,59.5,75.23" style="stroke:#181818;stroke-width:1.0;"/></g><!--MD5=[29ff087f34af5c987c2f7e9247e0d1fa]
@startuml
class Bullet {
    - Start() : void
    + Update() : void
}
Projectile <|- - Bullet
@enduml

PlantUML version 1.2022.5(Sat Apr 30 12:55:52 CEST 2022)
(GPL source distribution)
Java Runtime: Java(TM) SE Runtime Environment
JVM: Java HotSpot(TM) 64-Bit Server VM
Default Encoding: UTF-8
Language: en
Country: GB
--></g></svg>