<?xml version="1.0" encoding="UTF-8" standalone="no"?><svg xmlns="http://www.w3.org/2000/svg" xmlns:xlink="http://www.w3.org/1999/xlink" contentStyleType="text/css" height="401px" preserveAspectRatio="none" style="width:427px;height:401px;background:#FFFFFF;" version="1.1" viewBox="0 0 427 401" width="427px" zoomAndPan="magnify"><defs/><g><!--MD5=[039f36c1faece929a023844db768b092]
class TMP_ExampleScript_01--><g id="elem_TMP_ExampleScript_01"><rect codeLine="1" fill="#F1F1F1" height="136.0469" id="TMP_ExampleScript_01" rx="2.5" ry="2.5" style="stroke:#181818;stroke-width:0.5;" width="413" x="7" y="115"/><ellipse cx="134.25" cy="131" fill="#ADD1B2" rx="11" ry="11" style="stroke:#181818;stroke-width:1.0;"/><path d="M137.0156,126.875 Q137.1719,126.6563 137.3594,126.5469 Q137.5469,126.4375 137.7656,126.4375 Q138.1406,126.4375 138.375,126.7031 Q138.6094,126.9531 138.6094,127.5625 L138.6094,129.0156 Q138.6094,129.625 138.375,129.8906 Q138.1406,130.1563 137.7656,130.1563 Q137.4219,130.1563 137.2188,129.9531 Q137.0156,129.7656 136.9063,129.25 Q136.8594,128.8906 136.6719,128.7031 Q136.3438,128.3281 135.7344,128.1094 Q135.125,127.8906 134.5,127.8906 Q133.7344,127.8906 133.0938,128.2188 Q132.4688,128.5469 131.9688,129.2969 Q131.4844,130.0469 131.4844,131.0781 L131.4844,132.1719 Q131.4844,133.4063 132.375,134.2344 Q133.2656,135.0469 134.8594,135.0469 Q135.7969,135.0469 136.4531,134.7969 Q136.8438,134.6406 137.2656,134.2031 Q137.5313,133.9375 137.6719,133.8594 Q137.8281,133.7813 138.0313,133.7813 Q138.3594,133.7813 138.6094,134.0469 Q138.875,134.2969 138.875,134.6406 Q138.875,134.9844 138.5313,135.3906 Q138.0313,135.9688 137.2344,136.2969 Q136.1563,136.75 134.8594,136.75 Q133.3438,136.75 132.1406,136.125 Q131.1563,135.625 130.4688,134.5625 Q129.7813,133.4844 129.7813,132.2031 L129.7813,131.0469 Q129.7813,129.7188 130.3906,128.5781 Q131.0156,127.4219 132.1094,126.8125 Q133.2031,126.1875 134.4375,126.1875 Q135.1719,126.1875 135.8125,126.3594 Q136.4688,126.5156 137.0156,126.875 Z " fill="#000000"/><text fill="#000000" font-family="sans-serif" font-size="14" lengthAdjust="spacing" textLength="150" x="154.75" y="136.7285">TMP_ExampleScript_01</text><line style="stroke:#181818;stroke-width:0.5;" x1="8" x2="419" y1="147" y2="147"/><ellipse cx="18" cy="158" fill="none" rx="3" ry="3" style="stroke:#038048;stroke-width:1.0;"/><text fill="#000000" font-family="sans-serif" font-size="14" lengthAdjust="spacing" textLength="84" x="27" y="165.5332">isStatic : bool</text><rect fill="none" height="6" style="stroke:#C82930;stroke-width:1.0;" width="6" x="15" y="172.6094"/><text fill="#000000" font-family="sans-serif" font-size="14" lengthAdjust="spacing" textLength="387" x="27" y="183.1426">«const» k_label : string = "The count is &lt;#0080ff&gt;{0}&lt;/color&gt;"</text><rect fill="none" height="6" style="stroke:#C82930;stroke-width:1.0;" width="6" x="15" y="190.2188"/><text fill="#000000" font-family="sans-serif" font-size="14" lengthAdjust="spacing" textLength="62" x="27" y="200.752">count : int</text><line style="stroke:#181818;stroke-width:0.5;" x1="8" x2="419" y1="207.8281" y2="207.8281"/><text fill="#000000" font-family="sans-serif" font-size="14" lengthAdjust="spacing" textLength="89" x="13" y="226.3613">Awake() : void</text><text fill="#000000" font-family="sans-serif" font-size="14" lengthAdjust="spacing" textLength="93" x="13" y="243.9707">Update() : void</text></g><!--MD5=[1d3ef63e597c882e9ed279814c44e04c]
class objectType--><g id="elem_objectType"><rect codeLine="8" fill="#F1F1F1" height="83.2188" id="objectType" rx="2.5" ry="2.5" style="stroke:#181818;stroke-width:0.5;" width="151" x="138" y="311"/><ellipse cx="175.05" cy="327" fill="#EB937F" rx="11" ry="11" style="stroke:#181818;stroke-width:1.0;"/><path d="M173.9094,327.7969 L173.9094,330.2969 L178.2375,330.2969 L178.2375,329.375 Q178.2375,328.7656 178.4719,328.5 Q178.7219,328.2344 179.0969,328.2344 Q179.4719,328.2344 179.7063,328.5 Q179.9406,328.7656 179.9406,329.375 L179.9406,332 L171.9406,332 Q171.3156,332 171.05,331.7656 Q170.8,331.5313 170.8,331.1406 Q170.8,330.7656 171.0656,330.5313 Q171.3313,330.2969 171.9406,330.2969 L172.2063,330.2969 L172.2063,323.6406 L171.9406,323.6406 Q171.3156,323.6406 171.05,323.4063 Q170.8,323.1719 170.8,322.7813 Q170.8,322.4063 171.05,322.1719 Q171.3156,321.9375 171.9406,321.9375 L179.5656,321.9375 L179.5656,324.5313 Q179.5656,325.1406 179.3313,325.4063 Q179.1125,325.6563 178.7219,325.6563 Q178.3469,325.6563 178.1125,325.4063 Q177.8781,325.1406 177.8781,324.5313 L177.8781,323.6406 L173.9094,323.6406 L173.9094,326.0938 L175.3938,326.0938 Q175.3938,325.4375 175.5188,325.25 Q175.7844,324.8438 176.2531,324.8438 Q176.6281,324.8438 176.8625,325.1094 Q177.0969,325.3594 177.0969,325.9688 L177.0969,327.9375 Q177.0969,328.4844 176.9719,328.6719 Q176.7063,329.0625 176.2531,329.0625 Q175.7844,329.0625 175.5188,328.6563 Q175.3938,328.4688 175.3938,327.7969 L173.9094,327.7969 Z " fill="#000000"/><text fill="#000000" font-family="sans-serif" font-size="14" lengthAdjust="spacing" textLength="70" x="193.95" y="332.7285">objectType</text><line style="stroke:#181818;stroke-width:0.5;" x1="139" x2="288" y1="343" y2="343"/><text fill="#000000" font-family="sans-serif" font-size="14" lengthAdjust="spacing" textLength="107" x="144" y="361.5332">TextMeshPro= 0,</text><text fill="#000000" font-family="sans-serif" font-size="14" lengthAdjust="spacing" textLength="139" x="144" y="379.1426">TextMeshProUGUI= 1,</text><line style="stroke:#181818;stroke-width:0.5;" x1="139" x2="288" y1="386.2188" y2="386.2188"/></g><!--MD5=[83b3cf3d23d77c6f1e1b5291a241bc2a]
class MonoBehaviour--><g id="elem_MonoBehaviour"><rect fill="#F1F1F1" height="48" id="MonoBehaviour" rx="2.5" ry="2.5" style="stroke:#181818;stroke-width:0.5;" width="131" x="148" y="7"/><ellipse cx="163" cy="23" fill="#ADD1B2" rx="11" ry="11" style="stroke:#181818;stroke-width:1.0;"/><path d="M165.7656,18.875 Q165.9219,18.6563 166.1094,18.5469 Q166.2969,18.4375 166.5156,18.4375 Q166.8906,18.4375 167.125,18.7031 Q167.3594,18.9531 167.3594,19.5625 L167.3594,21.0156 Q167.3594,21.625 167.125,21.8906 Q166.8906,22.1563 166.5156,22.1563 Q166.1719,22.1563 165.9688,21.9531 Q165.7656,21.7656 165.6563,21.25 Q165.6094,20.8906 165.4219,20.7031 Q165.0938,20.3281 164.4844,20.1094 Q163.875,19.8906 163.25,19.8906 Q162.4844,19.8906 161.8438,20.2188 Q161.2188,20.5469 160.7188,21.2969 Q160.2344,22.0469 160.2344,23.0781 L160.2344,24.1719 Q160.2344,25.4063 161.125,26.2344 Q162.0156,27.0469 163.6094,27.0469 Q164.5469,27.0469 165.2031,26.7969 Q165.5938,26.6406 166.0156,26.2031 Q166.2813,25.9375 166.4219,25.8594 Q166.5781,25.7813 166.7813,25.7813 Q167.1094,25.7813 167.3594,26.0469 Q167.625,26.2969 167.625,26.6406 Q167.625,26.9844 167.2813,27.3906 Q166.7813,27.9688 165.9844,28.2969 Q164.9063,28.75 163.6094,28.75 Q162.0938,28.75 160.8906,28.125 Q159.9063,27.625 159.2188,26.5625 Q158.5313,25.4844 158.5313,24.2031 L158.5313,23.0469 Q158.5313,21.7188 159.1406,20.5781 Q159.7656,19.4219 160.8594,18.8125 Q161.9531,18.1875 163.1875,18.1875 Q163.9219,18.1875 164.5625,18.3594 Q165.2188,18.5156 165.7656,18.875 Z " fill="#000000"/><text fill="#000000" font-family="sans-serif" font-size="14" lengthAdjust="spacing" textLength="99" x="177" y="28.7285">MonoBehaviour</text><line style="stroke:#181818;stroke-width:0.5;" x1="149" x2="278" y1="39" y2="39"/><line style="stroke:#181818;stroke-width:0.5;" x1="149" x2="278" y1="47" y2="47"/></g><!--MD5=[fa07864ef55e7d1943fa981e1ee9b4e7]
class TMP_Text--><g id="elem_TMP_Text"><rect fill="#F1F1F1" height="48" id="TMP_Text" rx="2.5" ry="2.5" style="stroke:#181818;stroke-width:0.5;" width="96" x="324.5" y="328.5"/><ellipse cx="339.5" cy="344.5" fill="#ADD1B2" rx="11" ry="11" style="stroke:#181818;stroke-width:1.0;"/><path d="M342.2656,340.375 Q342.4219,340.1563 342.6094,340.0469 Q342.7969,339.9375 343.0156,339.9375 Q343.3906,339.9375 343.625,340.2031 Q343.8594,340.4531 343.8594,341.0625 L343.8594,342.5156 Q343.8594,343.125 343.625,343.3906 Q343.3906,343.6563 343.0156,343.6563 Q342.6719,343.6563 342.4688,343.4531 Q342.2656,343.2656 342.1563,342.75 Q342.1094,342.3906 341.9219,342.2031 Q341.5938,341.8281 340.9844,341.6094 Q340.375,341.3906 339.75,341.3906 Q338.9844,341.3906 338.3438,341.7188 Q337.7188,342.0469 337.2188,342.7969 Q336.7344,343.5469 336.7344,344.5781 L336.7344,345.6719 Q336.7344,346.9063 337.625,347.7344 Q338.5156,348.5469 340.1094,348.5469 Q341.0469,348.5469 341.7031,348.2969 Q342.0938,348.1406 342.5156,347.7031 Q342.7813,347.4375 342.9219,347.3594 Q343.0781,347.2813 343.2813,347.2813 Q343.6094,347.2813 343.8594,347.5469 Q344.125,347.7969 344.125,348.1406 Q344.125,348.4844 343.7813,348.8906 Q343.2813,349.4688 342.4844,349.7969 Q341.4063,350.25 340.1094,350.25 Q338.5938,350.25 337.3906,349.625 Q336.4063,349.125 335.7188,348.0625 Q335.0313,346.9844 335.0313,345.7031 L335.0313,344.5469 Q335.0313,343.2188 335.6406,342.0781 Q336.2656,340.9219 337.3594,340.3125 Q338.4531,339.6875 339.6875,339.6875 Q340.4219,339.6875 341.0625,339.8594 Q341.7188,340.0156 342.2656,340.375 Z " fill="#000000"/><text fill="#000000" font-family="sans-serif" font-size="14" lengthAdjust="spacing" textLength="64" x="353.5" y="350.2285">TMP_Text</text><line style="stroke:#181818;stroke-width:0.5;" x1="325.5" x2="419.5" y1="360.5" y2="360.5"/><line style="stroke:#181818;stroke-width:0.5;" x1="325.5" x2="419.5" y1="368.5" y2="368.5"/></g><!--MD5=[7c1c59f01d3da4f84e74a735c98db47f]
reverse link MonoBehaviour to TMP_ExampleScript_01--><g id="link_MonoBehaviour_TMP_ExampleScript_01"><path codeLine="12" d="M213.5,75.38 C213.5,87.68 213.5,101.37 213.5,114.74 " fill="none" id="MonoBehaviour-backto-TMP_ExampleScript_01" style="stroke:#181818;stroke-width:1.0;"/><polygon fill="none" points="206.5,75.11,213.5,55.11,220.5,75.11,206.5,75.11" style="stroke:#181818;stroke-width:1.0;"/></g><!--MD5=[59eae9a05bb2e3249d071331960069e0]
link TMP_ExampleScript_01 to objectType--><g id="link_TMP_ExampleScript_01_objectType"><path codeLine="13" d="M200.97,251.16 C200.47,269.47 200.81,288.89 201.99,305.71 " fill="none" id="TMP_ExampleScript_01-to-objectType" style="stroke:#181818;stroke-width:1.0;"/><polygon fill="#181818" points="202.39,310.84,205.6839,301.5583,202.0043,305.8549,197.7077,302.1753,202.39,310.84" style="stroke:#181818;stroke-width:1.0;"/><text fill="#000000" font-family="sans-serif" font-size="13" lengthAdjust="spacing" textLength="66" x="129.0843" y="300.1212">ObjectType</text></g><!--MD5=[9fd8b03941531677d58a5cef6463abcd]
reverse link TMP_ExampleScript_01 to objectType--><g id="link_TMP_ExampleScript_01_objectType"><path codeLine="15" d="M227,266.49 C227.03,281.92 226.45,297.4 225.27,310.84 " fill="none" id="TMP_ExampleScript_01-backto-objectType" style="stroke:#181818;stroke-width:1.0;"/><ellipse cx="226.8819" cy="259.1591" fill="#FFFFFF" rx="8" ry="8" style="stroke:#181818;stroke-width:1.0;"/><line style="stroke:#181818;stroke-width:1.0;" x1="227.0038" x2="226.76" y1="267.1581" y2="251.16"/><line style="stroke:#181818;stroke-width:1.0;" x1="218.8828" x2="234.881" y1="259.281" y2="259.0372"/></g><!--MD5=[322f8d608f16449bf0d0774937625672]
link TMP_ExampleScript_01 to TMP_Text--><g id="link_TMP_ExampleScript_01_TMP_Text"><path codeLine="14" d="M277.26,251.16 C301.55,276.76 327.9,304.51 346.71,324.33 " fill="none" id="TMP_ExampleScript_01-to-TMP_Text" style="stroke:#181818;stroke-width:1.0;"/><polygon fill="#181818" points="350.37,328.18,347.077,318.898,346.9285,324.5529,341.2736,324.4044,350.37,328.18" style="stroke:#181818;stroke-width:1.0;"/><text fill="#000000" font-family="sans-serif" font-size="13" lengthAdjust="spacing" textLength="40" x="300.1008" y="317.84">m_text</text></g><!--MD5=[f5b6d117cca6dfe428f71df863c0e949]
@startuml
class TMP_ExampleScript_01 {
    + isStatic : bool
    - <<const>> k_label : string = "The count is <#0080ff>{0&#125;</color>"
    - count : int
    Awake() : void
    Update() : void
}
enum objectType {
    TextMeshPro= 0,
    TextMeshProUGUI= 1,
}
MonoBehaviour <|- - TMP_ExampleScript_01
TMP_ExampleScript_01 - -> "ObjectType" objectType
TMP_ExampleScript_01 - -> "m_text" TMP_Text
TMP_ExampleScript_01 +- - objectType
@enduml

PlantUML version 1.2022.5(Sat Apr 30 12:55:52 CEST 2022)
(GPL source distribution)
Java Runtime: Java(TM) SE Runtime Environment
JVM: Java HotSpot(TM) 64-Bit Server VM
Default Encoding: UTF-8
Language: en
Country: GB
--></g></svg>