<?xml version="1.0" encoding="UTF-8" standalone="no"?><svg xmlns="http://www.w3.org/2000/svg" xmlns:xlink="http://www.w3.org/1999/xlink" contentStyleType="text/css" height="222px" preserveAspectRatio="none" style="width:439px;height:222px;background:#FFFFFF;" version="1.1" viewBox="0 0 439 222" width="439px" zoomAndPan="magnify"><defs/><g><!--MD5=[162ff44b580e372d14088e0d26d93db2]
class JsonParser--><g id="elem_JsonParser"><rect codeLine="1" fill="#F1F1F1" height="100.8281" id="JsonParser" rx="2.5" ry="2.5" style="stroke:#181818;stroke-width:0.5;" width="425" x="7" y="115"/><ellipse cx="179.75" cy="131" fill="#ADD1B2" rx="11" ry="11" style="stroke:#181818;stroke-width:1.0;"/><path d="M182.5156,126.875 Q182.6719,126.6563 182.8594,126.5469 Q183.0469,126.4375 183.2656,126.4375 Q183.6406,126.4375 183.875,126.7031 Q184.1094,126.9531 184.1094,127.5625 L184.1094,129.0156 Q184.1094,129.625 183.875,129.8906 Q183.6406,130.1563 183.2656,130.1563 Q182.9219,130.1563 182.7188,129.9531 Q182.5156,129.7656 182.4063,129.25 Q182.3594,128.8906 182.1719,128.7031 Q181.8438,128.3281 181.2344,128.1094 Q180.625,127.8906 180,127.8906 Q179.2344,127.8906 178.5938,128.2188 Q177.9688,128.5469 177.4688,129.2969 Q176.9844,130.0469 176.9844,131.0781 L176.9844,132.1719 Q176.9844,133.4063 177.875,134.2344 Q178.7656,135.0469 180.3594,135.0469 Q181.2969,135.0469 181.9531,134.7969 Q182.3438,134.6406 182.7656,134.2031 Q183.0313,133.9375 183.1719,133.8594 Q183.3281,133.7813 183.5313,133.7813 Q183.8594,133.7813 184.1094,134.0469 Q184.375,134.2969 184.375,134.6406 Q184.375,134.9844 184.0313,135.3906 Q183.5313,135.9688 182.7344,136.2969 Q181.6563,136.75 180.3594,136.75 Q178.8438,136.75 177.6406,136.125 Q176.6563,135.625 175.9688,134.5625 Q175.2813,133.4844 175.2813,132.2031 L175.2813,131.0469 Q175.2813,129.7188 175.8906,128.5781 Q176.5156,127.4219 177.6094,126.8125 Q178.7031,126.1875 179.9375,126.1875 Q180.6719,126.1875 181.3125,126.3594 Q181.9688,126.5156 182.5156,126.875 Z " fill="#000000"/><text fill="#000000" font-family="sans-serif" font-size="14" lengthAdjust="spacing" textLength="71" x="200.25" y="136.7285">JsonParser</text><line style="stroke:#181818;stroke-width:0.5;" x1="8" x2="431" y1="147" y2="147"/><line style="stroke:#181818;stroke-width:0.5;" x1="8" x2="431" y1="155" y2="155"/><ellipse cx="18" cy="166" fill="#84BE84" rx="3" ry="3" style="stroke:#038048;stroke-width:1.0;"/><text fill="#000000" font-family="sans-serif" font-size="14" lengthAdjust="spacing" text-decoration="underline" textLength="263" x="27" y="173.5332">transformToJson(input:Transform) : string</text><ellipse cx="18" cy="183.6094" fill="#84BE84" rx="3" ry="3" style="stroke:#038048;stroke-width:1.0;"/><text fill="#000000" font-family="sans-serif" font-size="14" lengthAdjust="spacing" text-decoration="underline" textLength="277" x="27" y="191.1426">decodeJsonMessage(message:string) : void</text><ellipse cx="18" cy="201.2188" fill="#84BE84" rx="3" ry="3" style="stroke:#038048;stroke-width:1.0;"/><text fill="#000000" font-family="sans-serif" font-size="14" lengthAdjust="spacing" text-decoration="underline" textLength="399" x="27" y="208.752">stringListToFloatList(input:List&lt;List&lt;string&gt;&gt;) : List&lt;List&lt;float&gt;&gt;</text></g><!--MD5=[83b3cf3d23d77c6f1e1b5291a241bc2a]
class MonoBehaviour--><g id="elem_MonoBehaviour"><rect fill="#F1F1F1" height="48" id="MonoBehaviour" rx="2.5" ry="2.5" style="stroke:#181818;stroke-width:0.5;" width="131" x="154" y="7"/><ellipse cx="169" cy="23" fill="#ADD1B2" rx="11" ry="11" style="stroke:#181818;stroke-width:1.0;"/><path d="M171.7656,18.875 Q171.9219,18.6563 172.1094,18.5469 Q172.2969,18.4375 172.5156,18.4375 Q172.8906,18.4375 173.125,18.7031 Q173.3594,18.9531 173.3594,19.5625 L173.3594,21.0156 Q173.3594,21.625 173.125,21.8906 Q172.8906,22.1563 172.5156,22.1563 Q172.1719,22.1563 171.9688,21.9531 Q171.7656,21.7656 171.6563,21.25 Q171.6094,20.8906 171.4219,20.7031 Q171.0938,20.3281 170.4844,20.1094 Q169.875,19.8906 169.25,19.8906 Q168.4844,19.8906 167.8438,20.2188 Q167.2188,20.5469 166.7188,21.2969 Q166.2344,22.0469 166.2344,23.0781 L166.2344,24.1719 Q166.2344,25.4063 167.125,26.2344 Q168.0156,27.0469 169.6094,27.0469 Q170.5469,27.0469 171.2031,26.7969 Q171.5938,26.6406 172.0156,26.2031 Q172.2813,25.9375 172.4219,25.8594 Q172.5781,25.7813 172.7813,25.7813 Q173.1094,25.7813 173.3594,26.0469 Q173.625,26.2969 173.625,26.6406 Q173.625,26.9844 173.2813,27.3906 Q172.7813,27.9688 171.9844,28.2969 Q170.9063,28.75 169.6094,28.75 Q168.0938,28.75 166.8906,28.125 Q165.9063,27.625 165.2188,26.5625 Q164.5313,25.4844 164.5313,24.2031 L164.5313,23.0469 Q164.5313,21.7188 165.1406,20.5781 Q165.7656,19.4219 166.8594,18.8125 Q167.9531,18.1875 169.1875,18.1875 Q169.9219,18.1875 170.5625,18.3594 Q171.2188,18.5156 171.7656,18.875 Z " fill="#000000"/><text fill="#000000" font-family="sans-serif" font-size="14" lengthAdjust="spacing" textLength="99" x="183" y="28.7285">MonoBehaviour</text><line style="stroke:#181818;stroke-width:0.5;" x1="155" x2="284" y1="39" y2="39"/><line style="stroke:#181818;stroke-width:0.5;" x1="155" x2="284" y1="47" y2="47"/></g><!--MD5=[109c54e1441bce431dddb4de01083d3b]
reverse link MonoBehaviour to JsonParser--><g id="link_MonoBehaviour_JsonParser"><path codeLine="6" d="M219.5,75.34 C219.5,87.95 219.5,101.82 219.5,114.8 " fill="none" id="MonoBehaviour-backto-JsonParser" style="stroke:#181818;stroke-width:1.0;"/><polygon fill="none" points="212.5,75.08,219.5,55.08,226.5,75.08,212.5,75.08" style="stroke:#181818;stroke-width:1.0;"/></g><!--MD5=[a1cad50d19534f505cf10e5277b9acf2]
@startuml
class JsonParser {
    + {static} transformToJson(input:Transform) : string
    + {static} decodeJsonMessage(message:string) : void
    + {static} stringListToFloatList(input:List<List<string>>) : List<List<float>>
}
MonoBehaviour <|- - JsonParser
@enduml

PlantUML version 1.2022.5(Sat Apr 30 12:55:52 CEST 2022)
(GPL source distribution)
Java Runtime: Java(TM) SE Runtime Environment
JVM: Java HotSpot(TM) 64-Bit Server VM
Default Encoding: UTF-8
Language: en
Country: GB
--></g></svg>