<?xml version="1.0" encoding="UTF-8" standalone="no"?><svg xmlns="http://www.w3.org/2000/svg" xmlns:xlink="http://www.w3.org/1999/xlink" contentStyleType="text/css" height="347px" preserveAspectRatio="none" style="width:906px;height:347px;background:#FFFFFF;" version="1.1" viewBox="0 0 906 347" width="906px" zoomAndPan="magnify"><defs/><g><!--MD5=[f6fbf88e53d10697ec69aa5b54595b57]
class NetworkedVariables--><g id="elem_NetworkedVariables"><rect codeLine="1" fill="#F1F1F1" height="164.3594" id="NetworkedVariables" rx="2.5" ry="2.5" style="stroke:#181818;stroke-width:0.5;" width="161" x="73.2844" y="68.83"/><ellipse cx="90.0844" cy="90.1816" fill="#ADD1B2" rx="11" ry="11" style="stroke:#181818;stroke-width:1.0;"/><path d="M92.85,86.0566 Q93.0063,85.8378 93.1938,85.7284 Q93.3813,85.6191 93.6,85.6191 Q93.975,85.6191 94.2094,85.8847 Q94.4438,86.1347 94.4438,86.7441 L94.4438,88.1972 Q94.4438,88.8066 94.2094,89.0722 Q93.975,89.3378 93.6,89.3378 Q93.2563,89.3378 93.0531,89.1347 Q92.85,88.9472 92.7406,88.4316 Q92.6938,88.0722 92.5063,87.8847 Q92.1781,87.5097 91.5688,87.2909 Q90.9594,87.0722 90.3344,87.0722 Q89.5688,87.0722 88.9281,87.4003 Q88.3031,87.7284 87.8031,88.4784 Q87.3188,89.2284 87.3188,90.2597 L87.3188,91.3534 Q87.3188,92.5878 88.2094,93.4159 Q89.1,94.2284 90.6938,94.2284 Q91.6313,94.2284 92.2875,93.9784 Q92.6781,93.8222 93.1,93.3847 Q93.3656,93.1191 93.5063,93.0409 Q93.6625,92.9628 93.8656,92.9628 Q94.1938,92.9628 94.4438,93.2284 Q94.7094,93.4784 94.7094,93.8222 Q94.7094,94.1659 94.3656,94.5722 Q93.8656,95.1503 93.0688,95.4784 Q91.9906,95.9316 90.6938,95.9316 Q89.1781,95.9316 87.975,95.3066 Q86.9906,94.8066 86.3031,93.7441 Q85.6156,92.6659 85.6156,91.3847 L85.6156,90.2284 Q85.6156,88.9003 86.225,87.7597 Q86.85,86.6034 87.9438,85.9941 Q89.0375,85.3691 90.2719,85.3691 Q91.0063,85.3691 91.6469,85.5409 Q92.3031,85.6972 92.85,86.0566 Z " fill="#000000"/><text fill="#000000" font-family="sans-serif" font-size="12" font-style="italic" lengthAdjust="spacing" textLength="42" x="145.9844" y="86.287">«static»</text><text fill="#000000" font-family="sans-serif" font-size="14" lengthAdjust="spacing" textLength="125" x="104.4844" y="103.457">NetworkedVariables</text><line style="stroke:#181818;stroke-width:0.5;" x1="74.2844" x2="233.2844" y1="111.5331" y2="111.5331"/><ellipse cx="84.2844" cy="122.5331" fill="none" rx="3" ry="3" style="stroke:#038048;stroke-width:1.0;"/><text fill="#000000" font-family="sans-serif" font-size="14" lengthAdjust="spacing" text-decoration="underline" textLength="88" x="93.2844" y="130.0663">inGame : bool</text><ellipse cx="84.2844" cy="140.1425" fill="none" rx="3" ry="3" style="stroke:#038048;stroke-width:1.0;"/><text fill="#000000" font-family="sans-serif" font-size="14" lengthAdjust="spacing" text-decoration="underline" textLength="83" x="93.2844" y="147.6757">isDead : bool</text><ellipse cx="84.2844" cy="157.7519" fill="none" rx="3" ry="3" style="stroke:#038048;stroke-width:1.0;"/><text fill="#000000" font-family="sans-serif" font-size="14" lengthAdjust="spacing" text-decoration="underline" textLength="93" x="93.2844" y="165.2851">worldIndex : int</text><ellipse cx="84.2844" cy="175.3612" fill="none" rx="3" ry="3" style="stroke:#038048;stroke-width:1.0;"/><text fill="#000000" font-family="sans-serif" font-size="14" lengthAdjust="spacing" text-decoration="underline" textLength="97" x="93.2844" y="182.8945">playerId : string</text><ellipse cx="84.2844" cy="192.9706" fill="none" rx="3" ry="3" style="stroke:#038048;stroke-width:1.0;"/><text fill="#000000" font-family="sans-serif" font-size="14" lengthAdjust="spacing" text-decoration="underline" textLength="90" x="93.2844" y="200.5038">roomId : string</text><ellipse cx="84.2844" cy="210.58" fill="none" rx="3" ry="3" style="stroke:#038048;stroke-width:1.0;"/><text fill="#000000" font-family="sans-serif" font-size="14" lengthAdjust="spacing" text-decoration="underline" textLength="135" x="93.2844" y="218.1132">errorMessage : string</text><line style="stroke:#181818;stroke-width:0.5;" x1="74.2844" x2="233.2844" y1="225.1894" y2="225.1894"/></g><!--MD5=[2e1ff885372daab8d802f213ced6c836]
class Dictionary`2--><g id="elem_Dictionary`2"><rect codeLine="9" fill="#F1F1F1" height="48" id="Dictionary`2" rx="2.5" ry="2.5" style="stroke:#181818;stroke-width:0.5;" width="143" x="562.2844" y="126.83"/><ellipse cx="577.2844" cy="142.83" fill="#ADD1B2" rx="11" ry="11" style="stroke:#181818;stroke-width:1.0;"/><path d="M580.05,138.705 Q580.2063,138.4862 580.3938,138.3769 Q580.5813,138.2675 580.8,138.2675 Q581.175,138.2675 581.4094,138.5331 Q581.6438,138.7831 581.6438,139.3925 L581.6438,140.8456 Q581.6438,141.455 581.4094,141.7206 Q581.175,141.9862 580.8,141.9862 Q580.4563,141.9862 580.2531,141.7831 Q580.05,141.5956 579.9406,141.08 Q579.8938,140.7206 579.7063,140.5331 Q579.3781,140.1581 578.7688,139.9394 Q578.1594,139.7206 577.5344,139.7206 Q576.7688,139.7206 576.1281,140.0487 Q575.5031,140.3769 575.0031,141.1269 Q574.5188,141.8769 574.5188,142.9081 L574.5188,144.0019 Q574.5188,145.2362 575.4094,146.0644 Q576.3,146.8769 577.8938,146.8769 Q578.8313,146.8769 579.4875,146.6269 Q579.8781,146.4706 580.3,146.0331 Q580.5656,145.7675 580.7063,145.6894 Q580.8625,145.6112 581.0656,145.6112 Q581.3938,145.6112 581.6438,145.8769 Q581.9094,146.1269 581.9094,146.4706 Q581.9094,146.8144 581.5656,147.2206 Q581.0656,147.7987 580.2688,148.1269 Q579.1906,148.58 577.8938,148.58 Q576.3781,148.58 575.175,147.955 Q574.1906,147.455 573.5031,146.3925 Q572.8156,145.3144 572.8156,144.0331 L572.8156,142.8769 Q572.8156,141.5487 573.425,140.4081 Q574.05,139.2519 575.1438,138.6425 Q576.2375,138.0175 577.4719,138.0175 Q578.2063,138.0175 578.8469,138.1894 Q579.5031,138.3456 580.05,138.705 Z " fill="#000000"/><text fill="#000000" font-family="sans-serif" font-size="14" lengthAdjust="spacing" textLength="76" x="591.2844" y="148.5585">Dictionary`2</text><rect fill="#FFFFFF" height="17.0938" style="stroke:#000000;stroke-width:1.0;stroke-dasharray:2.0,2.0;" width="33" x="675.2844" y="123.83"/><text fill="#000000" font-family="sans-serif" font-size="12" font-style="italic" lengthAdjust="spacing" textLength="31" x="676.2844" y="137.287">T1,T2</text><line style="stroke:#181818;stroke-width:0.5;" x1="563.2844" x2="704.2844" y1="158.83" y2="158.83"/><line style="stroke:#181818;stroke-width:0.5;" x1="563.2844" x2="704.2844" y1="166.83" y2="166.83"/></g><!--MD5=[e644022de7dea015dd09463c37421447]
class List`1--><g id="elem_List`1"><rect codeLine="11" fill="#F1F1F1" height="48" id="List`1" rx="2.5" ry="2.5" style="stroke:#181818;stroke-width:0.5;" width="78" x="448.7844" y="126.83"/><ellipse cx="463.7844" cy="142.83" fill="#ADD1B2" rx="11" ry="11" style="stroke:#181818;stroke-width:1.0;"/><path d="M466.55,138.705 Q466.7063,138.4862 466.8938,138.3769 Q467.0813,138.2675 467.3,138.2675 Q467.675,138.2675 467.9094,138.5331 Q468.1438,138.7831 468.1438,139.3925 L468.1438,140.8456 Q468.1438,141.455 467.9094,141.7206 Q467.675,141.9862 467.3,141.9862 Q466.9563,141.9862 466.7531,141.7831 Q466.55,141.5956 466.4406,141.08 Q466.3938,140.7206 466.2063,140.5331 Q465.8781,140.1581 465.2688,139.9394 Q464.6594,139.7206 464.0344,139.7206 Q463.2688,139.7206 462.6281,140.0487 Q462.0031,140.3769 461.5031,141.1269 Q461.0188,141.8769 461.0188,142.9081 L461.0188,144.0019 Q461.0188,145.2362 461.9094,146.0644 Q462.8,146.8769 464.3938,146.8769 Q465.3313,146.8769 465.9875,146.6269 Q466.3781,146.4706 466.8,146.0331 Q467.0656,145.7675 467.2063,145.6894 Q467.3625,145.6112 467.5656,145.6112 Q467.8938,145.6112 468.1438,145.8769 Q468.4094,146.1269 468.4094,146.4706 Q468.4094,146.8144 468.0656,147.2206 Q467.5656,147.7987 466.7688,148.1269 Q465.6906,148.58 464.3938,148.58 Q462.8781,148.58 461.675,147.955 Q460.6906,147.455 460.0031,146.3925 Q459.3156,145.3144 459.3156,144.0331 L459.3156,142.8769 Q459.3156,141.5487 459.925,140.4081 Q460.55,139.2519 461.6438,138.6425 Q462.7375,138.0175 463.9719,138.0175 Q464.7063,138.0175 465.3469,138.1894 Q466.0031,138.3456 466.55,138.705 Z " fill="#000000"/><text fill="#000000" font-family="sans-serif" font-size="14" lengthAdjust="spacing" textLength="35" x="477.7844" y="148.5585">List`1</text><rect fill="#FFFFFF" height="17.0938" style="stroke:#000000;stroke-width:1.0;stroke-dasharray:2.0,2.0;" width="9" x="520.7844" y="123.83"/><text fill="#000000" font-family="sans-serif" font-size="12" font-style="italic" lengthAdjust="spacing" textLength="7" x="521.7844" y="137.287">T</text><line style="stroke:#181818;stroke-width:0.5;" x1="449.7844" x2="525.7844" y1="158.83" y2="158.83"/><line style="stroke:#181818;stroke-width:0.5;" x1="449.7844" x2="525.7844" y1="166.83" y2="166.83"/></g><!--MD5=[004b1d6c4ca8aad4ba8b586a335ed4f3]
class Transform--><g id="elem_Transform"><rect fill="#F1F1F1" height="48" id="Transform" rx="2.5" ry="2.5" style="stroke:#181818;stroke-width:0.5;" width="97" x="105.2844" y="292.83"/><ellipse cx="120.2844" cy="308.83" fill="#ADD1B2" rx="11" ry="11" style="stroke:#181818;stroke-width:1.0;"/><path d="M123.05,304.705 Q123.2063,304.4863 123.3938,304.3769 Q123.5813,304.2675 123.8,304.2675 Q124.175,304.2675 124.4094,304.5331 Q124.6438,304.7831 124.6438,305.3925 L124.6438,306.8456 Q124.6438,307.455 124.4094,307.7206 Q124.175,307.9863 123.8,307.9863 Q123.4563,307.9863 123.2531,307.7831 Q123.05,307.5956 122.9406,307.08 Q122.8938,306.7206 122.7063,306.5331 Q122.3781,306.1581 121.7688,305.9394 Q121.1594,305.7206 120.5344,305.7206 Q119.7688,305.7206 119.1281,306.0488 Q118.5031,306.3769 118.0031,307.1269 Q117.5188,307.8769 117.5188,308.9081 L117.5188,310.0019 Q117.5188,311.2363 118.4094,312.0644 Q119.3,312.8769 120.8938,312.8769 Q121.8313,312.8769 122.4875,312.6269 Q122.8781,312.4706 123.3,312.0331 Q123.5656,311.7675 123.7063,311.6894 Q123.8625,311.6113 124.0656,311.6113 Q124.3938,311.6113 124.6438,311.8769 Q124.9094,312.1269 124.9094,312.4706 Q124.9094,312.8144 124.5656,313.2206 Q124.0656,313.7988 123.2688,314.1269 Q122.1906,314.58 120.8938,314.58 Q119.3781,314.58 118.175,313.955 Q117.1906,313.455 116.5031,312.3925 Q115.8156,311.3144 115.8156,310.0331 L115.8156,308.8769 Q115.8156,307.5488 116.425,306.4081 Q117.05,305.2519 118.1438,304.6425 Q119.2375,304.0175 120.4719,304.0175 Q121.2063,304.0175 121.8469,304.1894 Q122.5031,304.3456 123.05,304.705 Z " fill="#000000"/><text fill="#000000" font-family="sans-serif" font-size="14" lengthAdjust="spacing" textLength="65" x="134.2844" y="314.5585">Transform</text><line style="stroke:#181818;stroke-width:0.5;" x1="106.2844" x2="201.2844" y1="324.83" y2="324.83"/><line style="stroke:#181818;stroke-width:0.5;" x1="106.2844" x2="201.2844" y1="332.83" y2="332.83"/></g><!--MD5=[8c046441e53f3b92d10e59aa60105ec5]
class GameModeTypes--><g id="elem_GameModeTypes"><rect fill="#F1F1F1" height="48" id="GameModeTypes" rx="2.5" ry="2.5" style="stroke:#181818;stroke-width:0.5;" width="144" x="269.7844" y="126.83"/><ellipse cx="284.7844" cy="142.83" fill="#ADD1B2" rx="11" ry="11" style="stroke:#181818;stroke-width:1.0;"/><path d="M287.55,138.705 Q287.7063,138.4862 287.8938,138.3769 Q288.0813,138.2675 288.3,138.2675 Q288.675,138.2675 288.9094,138.5331 Q289.1438,138.7831 289.1438,139.3925 L289.1438,140.8456 Q289.1438,141.455 288.9094,141.7206 Q288.675,141.9862 288.3,141.9862 Q287.9563,141.9862 287.7531,141.7831 Q287.55,141.5956 287.4406,141.08 Q287.3938,140.7206 287.2063,140.5331 Q286.8781,140.1581 286.2688,139.9394 Q285.6594,139.7206 285.0344,139.7206 Q284.2688,139.7206 283.6281,140.0487 Q283.0031,140.3769 282.5031,141.1269 Q282.0188,141.8769 282.0188,142.9081 L282.0188,144.0019 Q282.0188,145.2362 282.9094,146.0644 Q283.8,146.8769 285.3938,146.8769 Q286.3313,146.8769 286.9875,146.6269 Q287.3781,146.4706 287.8,146.0331 Q288.0656,145.7675 288.2063,145.6894 Q288.3625,145.6112 288.5656,145.6112 Q288.8938,145.6112 289.1438,145.8769 Q289.4094,146.1269 289.4094,146.4706 Q289.4094,146.8144 289.0656,147.2206 Q288.5656,147.7987 287.7688,148.1269 Q286.6906,148.58 285.3938,148.58 Q283.8781,148.58 282.675,147.955 Q281.6906,147.455 281.0031,146.3925 Q280.3156,145.3144 280.3156,144.0331 L280.3156,142.8769 Q280.3156,141.5487 280.925,140.4081 Q281.55,139.2519 282.6438,138.6425 Q283.7375,138.0175 284.9719,138.0175 Q285.7063,138.0175 286.3469,138.1894 Q287.0031,138.3456 287.55,138.705 Z " fill="#000000"/><text fill="#000000" font-family="sans-serif" font-size="14" lengthAdjust="spacing" textLength="112" x="298.7844" y="148.5585">GameModeTypes</text><line style="stroke:#181818;stroke-width:0.5;" x1="270.7844" x2="412.7844" y1="158.83" y2="158.83"/><line style="stroke:#181818;stroke-width:0.5;" x1="270.7844" x2="412.7844" y1="166.83" y2="166.83"/></g><!--MD5=[f8aa85126c3fa9817e59c763eb90debe]
link NetworkedVariables to Transform--><g id="link_NetworkedVariables_Transform"><path codeLine="13" d="M153.7844,232.87 C153.7844,252.59 153.7844,272.38 153.7844,287.69 " fill="none" id="NetworkedVariables-to-Transform" style="stroke:#181818;stroke-width:1.0;"/><polygon fill="#181818" points="153.7844,292.7,157.7844,283.7,153.7844,287.7,149.7844,283.7,153.7844,292.7" style="stroke:#181818;stroke-width:1.0;"/><text fill="#000000" font-family="sans-serif" font-size="13" lengthAdjust="spacing" textLength="131" x="6" y="282.0068">ownedPlayerTransform</text></g><!--MD5=[ab541e78e858cdba584f1e1c57547710]
link NetworkedVariables to Dictionary`2--><g id="link_NetworkedVariables_Dictionary`2"><path codeLine="14" d="M244.8744,63.6707 C244.8744,63.6707 255.1444,58.59 259.7844,56.83 C288.6644,45.87 509.1844,45.16 537.7844,56.83 C567.1644,68.82 592.4244,94.6 609.6444,116.14 " fill="none" id="NetworkedVariables-Dictionary`2" style="stroke:#181818;stroke-width:1.0;"/><polygon fill="#181818" points="617.6744,126.61,615.369,117.0348,614.6306,122.6432,609.0222,121.9048,617.6744,126.61" style="stroke:#181818;stroke-width:1.0;"/><line style="stroke:#181818;stroke-width:1.0;" x1="614.6306" x2="609.7644" y1="122.6432" y2="116.29"/><polygon fill="none" points="234.4644,69.64,241.6591,70.1254,244.8744,63.6707,237.6796,63.1854,234.4644,69.64" style="stroke:#181818;stroke-width:1.0;"/><text fill="#000000" font-family="sans-serif" font-size="13" lengthAdjust="spacing" textLength="326" x="245.7774" y="115.8938">allConnectedPlayerTransforms&lt;string,List&lt;List&lt;float&gt;&gt;&gt;</text></g><!--MD5=[ab541e78e858cdba584f1e1c57547710]
link NetworkedVariables to Dictionary`2--><g id="link_NetworkedVariables_Dictionary`2"><path codeLine="15" d="M235.9938,61.6508 C235.9938,61.6508 256.4444,48.92 266.7844,44.83 C294.0644,34.04 503.7644,33.41 530.7844,44.83 C564.6044,59.12 592.7944,90.55 611.0844,115.5 " fill="none" id="NetworkedVariables-Dictionary`2-1" style="stroke:#181818;stroke-width:1.0;"/><polygon fill="#181818" points="618.7744,126.42,616.8623,116.7585,615.8953,122.3321,610.3217,121.3651,618.7744,126.42" style="stroke:#181818;stroke-width:1.0;"/><line style="stroke:#181818;stroke-width:1.0;" x1="615.8953" x2="611.2944" y1="122.3321" y2="115.79"/><polygon fill="none" points="226.3044,68.73,233.5088,68.4202,235.9938,61.6508,228.7893,61.9606,226.3044,68.73" style="stroke:#181818;stroke-width:1.0;"/><text fill="#000000" font-family="sans-serif" font-size="13" lengthAdjust="spacing" textLength="160" x="634.6157" y="116.058">playerNames&lt;string,string&gt;</text></g><!--MD5=[ab541e78e858cdba584f1e1c57547710]
link NetworkedVariables to Dictionary`2--><g id="link_NetworkedVariables_Dictionary`2"><path codeLine="16" d="M228.5479,60.9653 C228.5479,60.9653 257.9444,39.31 273.7844,32.83 C299.4944,22.31 498.3144,21.75 523.7844,32.83 C562.3844,49.62 593.5744,87.36 612.7544,115.67 " fill="none" id="NetworkedVariables-Dictionary`2-2" style="stroke:#181818;stroke-width:1.0;"/><polygon fill="#181818" points="619.9844,126.76,618.4149,117.037,617.2515,122.5729,611.7156,121.4095,619.9844,126.76" style="stroke:#181818;stroke-width:1.0;"/><line style="stroke:#181818;stroke-width:1.0;" x1="617.2515" x2="612.8794" y1="122.5729" y2="115.87"/><polygon fill="none" points="219.4844,68.83,226.6377,67.9188,228.5479,60.9653,221.3946,61.8765,219.4844,68.83" style="stroke:#181818;stroke-width:1.0;"/><text fill="#000000" font-family="sans-serif" font-size="13" lengthAdjust="spacing" textLength="186" x="713.0444" y="121.5794">planeTypes&lt;string,PlaneTypes&gt;</text></g><!--MD5=[ab541e78e858cdba584f1e1c57547710]
link NetworkedVariables to Dictionary`2--><g id="link_NetworkedVariables_Dictionary`2"><path codeLine="17" d="M223.2349,60.1809 C223.2349,60.1809 260.0044,29.58 280.7844,20.83 C304.9544,10.65 492.8344,10.16 516.7844,20.83 C559.9544,40.05 593.8744,83.94 613.8344,115.41 " fill="none" id="NetworkedVariables-Dictionary`2-3" style="stroke:#181818;stroke-width:1.0;"/><polygon fill="#181818" points="620.7944,126.78,619.5129,117.0149,618.1865,122.514,612.6873,121.1875,620.7944,126.78" style="stroke:#181818;stroke-width:1.0;"/><line style="stroke:#181818;stroke-width:1.0;" x1="618.1865" x2="614.0094" y1="122.514" y2="115.695"/><polygon fill="none" points="214.6644,68.58,221.7494,67.2373,223.2349,60.1809,216.1499,61.5236,214.6644,68.58" style="stroke:#181818;stroke-width:1.0;"/><text fill="#000000" font-family="sans-serif" font-size="13" lengthAdjust="spacing" textLength="145" x="454.0685" y="115.9197">playerHealths&lt;string,int&gt;</text></g><!--MD5=[f41edd4f5e7a4cf12627362f8b86fa91]
link NetworkedVariables to List`1--><g id="link_NetworkedVariables_List`1"><path codeLine="18" d="M245.058,64.9232 C245.058,64.9232 254.3544,60.44 258.6144,58.83 C276.0144,52.28 409.5444,50.09 425.9544,58.83 C448.0344,70.59 463.6344,94.14 473.6444,114.46 " fill="none" id="NetworkedVariables-List`1" style="stroke:#181818;stroke-width:1.0;"/><polygon fill="#181818" points="479.1544,126.57,479.0555,116.7216,477.0779,122.0216,471.778,120.044,479.1544,126.57" style="stroke:#181818;stroke-width:1.0;"/><line style="stroke:#181818;stroke-width:1.0;" x1="477.0779" x2="473.7644" y1="122.0216" y2="114.74"/><polygon fill="none" points="234.5844,70.78,241.7735,71.3428,245.058,64.9232,237.8689,64.3604,234.5844,70.78" style="stroke:#181818;stroke-width:1.0;"/><text fill="#000000" font-family="sans-serif" font-size="13" lengthAdjust="spacing" textLength="114" x="410.3989" y="116.0299">scenceToLoad&lt;int&gt;</text></g><!--MD5=[f41edd4f5e7a4cf12627362f8b86fa91]
link NetworkedVariables to List`1--><g id="link_NetworkedVariables_List`1"><path codeLine="19" d="M239.0739,61.9517 C239.0739,61.9517 256.0144,52.12 264.4544,48.83 C280.5644,42.54 404.8744,40.65 420.1144,48.83 C445.9944,62.71 463.6444,91.32 474.4144,114.72 " fill="none" id="NetworkedVariables-List`1-1" style="stroke:#181818;stroke-width:1.0;"/><polygon fill="#181818" points="479.5644,126.71,479.6886,116.8619,477.5915,122.1157,472.3377,120.0186,479.5644,126.71" style="stroke:#181818;stroke-width:1.0;"/><line style="stroke:#181818;stroke-width:1.0;" x1="477.5915" x2="474.4344" y1="122.1157" y2="114.765"/><polygon fill="none" points="229.1444,68.69,236.3552,68.6307,239.0739,61.9517,231.863,62.011,229.1444,68.69" style="stroke:#181818;stroke-width:1.0;"/><text fill="#000000" font-family="sans-serif" font-size="13" lengthAdjust="spacing" textLength="179" x="270.1744" y="115.5937">disconnectedPlayerIds&lt;string&gt;</text></g><!--MD5=[f41edd4f5e7a4cf12627362f8b86fa91]
link NetworkedVariables to List`1--><g id="link_NetworkedVariables_List`1"><path codeLine="20" d="M232.0335,61.2621 C232.0335,61.2621 257.1344,44.13 270.2844,38.83 C285.1244,32.85 400.2044,31.23 414.2844,38.83 C443.8344,54.78 463.4244,88.36 474.9044,114.62 " fill="none" id="NetworkedVariables-List`1-2" style="stroke:#181818;stroke-width:1.0;"/><polygon fill="#181818" points="479.8844,126.81,480.1734,116.9654,477.9886,122.1833,472.7707,119.9986,479.8844,126.81" style="stroke:#181818;stroke-width:1.0;"/><line style="stroke:#181818;stroke-width:1.0;" x1="477.9886" x2="474.9644" y1="122.1833" y2="114.775"/><polygon fill="none" points="222.6644,68.76,229.8483,68.1341,232.0335,61.2621,224.8496,61.888,222.6644,68.76" style="stroke:#181818;stroke-width:1.0;"/><text fill="#000000" font-family="sans-serif" font-size="13" lengthAdjust="spacing" textLength="243" x="430.7753" y="115.9552">targetLockInfo&lt;Dictionary&lt;string, string&gt;&gt;</text></g><!--MD5=[f41edd4f5e7a4cf12627362f8b86fa91]
link NetworkedVariables to List`1--><g id="link_NetworkedVariables_List`1"><path codeLine="21" d="M226.8309,60.507 C226.8309,60.507 258.6644,36.05 276.1144,28.83 C303.2944,17.59 382.6044,14.81 408.4544,28.83 C441.7244,46.88 463.2244,85.59 475.3344,114.6 " fill="none" id="NetworkedVariables-List`1-3" style="stroke:#181818;stroke-width:1.0;"/><polygon fill="#181818" points="480.1044,126.74,480.534,116.9005,478.2749,122.0867,473.0887,119.8276,480.1044,126.74" style="stroke:#181818;stroke-width:1.0;"/><line style="stroke:#181818;stroke-width:1.0;" x1="478.2749" x2="475.3494" y1="122.0867" y2="114.635"/><polygon fill="none" points="217.9344,68.56,225.067,67.499,226.8309,60.507,219.6983,61.568,217.9344,68.56" style="stroke:#181818;stroke-width:1.0;"/><text fill="#000000" font-family="sans-serif" font-size="13" lengthAdjust="spacing" textLength="234" x="470.8613" y="115.9945">deadPlayers&lt;Dictionary&lt;string, string&gt;&gt;</text></g><!--MD5=[f41edd4f5e7a4cf12627362f8b86fa91]
link NetworkedVariables to List`1--><g id="link_NetworkedVariables_List`1"><path codeLine="22" d="M222.2931,60.2081 C222.2931,60.2081 260.2344,28.01 281.9544,18.83 C306.6444,8.39 379.0744,6 402.6144,18.83 C439.5544,38.96 462.9044,82.75 475.6244,114.39 " fill="none" id="NetworkedVariables-List`1-4" style="stroke:#181818;stroke-width:1.0;"/><polygon fill="#181818" points="480.2844,126.68,480.8367,116.8466,478.5131,122.0043,473.3555,119.6807,480.2844,126.68" style="stroke:#181818;stroke-width:1.0;"/><line style="stroke:#181818;stroke-width:1.0;" x1="478.5131" x2="475.6744" y1="122.0043" y2="114.52"/><polygon fill="none" points="213.8144,68.7,220.8843,67.2803,222.2931,60.2081,215.2231,61.6278,213.8144,68.7" style="stroke:#181818;stroke-width:1.0;"/><text fill="#000000" font-family="sans-serif" font-size="13" lengthAdjust="spacing" textLength="254" x="222.5385" y="115.8927">playersToRejoin&lt;Dictionary&lt;string, string&gt;&gt;</text></g><!--MD5=[2763bba05e65c96e5a117c5051d353e5]
link NetworkedVariables to GameModeTypes--><g id="link_NetworkedVariables_GameModeTypes"><path codeLine="23" d="M246.5644,150.83 C246.5644,150.83 253.7144,150.83 256.6944,150.83 " fill="none" id="NetworkedVariables-GameModeTypes" style="stroke:#181818;stroke-width:1.0;"/><polygon fill="#181818" points="269.7444,150.83,260.7444,146.83,264.7444,150.83,260.7444,154.83,269.7444,150.83" style="stroke:#181818;stroke-width:1.0;"/><line style="stroke:#181818;stroke-width:1.0;" x1="264.7444" x2="256.7444" y1="150.83" y2="150.83"/><polygon fill="none" points="234.5644,150.83,240.5644,154.83,246.5644,150.83,240.5644,146.83,234.5644,150.83" style="stroke:#181818;stroke-width:1.0;"/><text fill="#000000" font-family="sans-serif" font-size="13" lengthAdjust="spacing" textLength="107" x="156.1039" y="192.8388">currentGameMode</text></g><!--MD5=[b86ebf88a3a22646a67878fd17a6632b]
@startuml
class NetworkedVariables <<static>> {
    + {static} inGame : bool
    + {static} isDead : bool
    + {static} worldIndex : int
    + {static} playerId : string
    + {static} roomId : string
    + {static} errorMessage : string
}
class "Dictionary`2"<T1,T2> {
}
class "List`1"<T> {
}
NetworkedVariables - -> "ownedPlayerTransform" Transform
NetworkedVariables o-> "allConnectedPlayerTransforms<string,List<List<float>>>" "Dictionary`2"
NetworkedVariables o-> "playerNames<string,string>" "Dictionary`2"
NetworkedVariables o-> "planeTypes<string,PlaneTypes>" "Dictionary`2"
NetworkedVariables o-> "playerHealths<string,int>" "Dictionary`2"
NetworkedVariables o-> "scenceToLoad<int>" "List`1"
NetworkedVariables o-> "disconnectedPlayerIds<string>" "List`1"
NetworkedVariables o-> "targetLockInfo<Dictionary<string, string>>" "List`1"
NetworkedVariables o-> "deadPlayers<Dictionary<string, string>>" "List`1"
NetworkedVariables o-> "playersToRejoin<Dictionary<string, string>>" "List`1"
NetworkedVariables o-> "currentGameMode" GameModeTypes
@enduml

PlantUML version 1.2022.5(Sat Apr 30 12:55:52 CEST 2022)
(GPL source distribution)
Java Runtime: Java(TM) SE Runtime Environment
JVM: Java HotSpot(TM) 64-Bit Server VM
Default Encoding: UTF-8
Language: en
Country: GB
--></g></svg>