<?xml version="1.0" encoding="UTF-8" standalone="no"?><svg xmlns="http://www.w3.org/2000/svg" xmlns:xlink="http://www.w3.org/1999/xlink" contentStyleType="text/css" height="436px" preserveAspectRatio="none" style="width:507px;height:436px;background:#FFFFFF;" version="1.1" viewBox="0 0 507 436" width="507px" zoomAndPan="magnify"><defs/><g><!--MD5=[24986ab4b8da29d0e2845e0b7ece95f2]
class ObjectSpin--><g id="elem_ObjectSpin"><rect codeLine="1" fill="#F1F1F1" height="153.6563" id="ObjectSpin" rx="2.5" ry="2.5" style="stroke:#181818;stroke-width:0.5;" width="180" x="231" y="115"/><ellipse cx="282.25" cy="131" fill="#ADD1B2" rx="11" ry="11" style="stroke:#181818;stroke-width:1.0;"/><path d="M285.0156,126.875 Q285.1719,126.6563 285.3594,126.5469 Q285.5469,126.4375 285.7656,126.4375 Q286.1406,126.4375 286.375,126.7031 Q286.6094,126.9531 286.6094,127.5625 L286.6094,129.0156 Q286.6094,129.625 286.375,129.8906 Q286.1406,130.1563 285.7656,130.1563 Q285.4219,130.1563 285.2188,129.9531 Q285.0156,129.7656 284.9063,129.25 Q284.8594,128.8906 284.6719,128.7031 Q284.3438,128.3281 283.7344,128.1094 Q283.125,127.8906 282.5,127.8906 Q281.7344,127.8906 281.0938,128.2188 Q280.4688,128.5469 279.9688,129.2969 Q279.4844,130.0469 279.4844,131.0781 L279.4844,132.1719 Q279.4844,133.4063 280.375,134.2344 Q281.2656,135.0469 282.8594,135.0469 Q283.7969,135.0469 284.4531,134.7969 Q284.8438,134.6406 285.2656,134.2031 Q285.5313,133.9375 285.6719,133.8594 Q285.8281,133.7813 286.0313,133.7813 Q286.3594,133.7813 286.6094,134.0469 Q286.875,134.2969 286.875,134.6406 Q286.875,134.9844 286.5313,135.3906 Q286.0313,135.9688 285.2344,136.2969 Q284.1563,136.75 282.8594,136.75 Q281.3438,136.75 280.1406,136.125 Q279.1563,135.625 278.4688,134.5625 Q277.7813,133.4844 277.7813,132.2031 L277.7813,131.0469 Q277.7813,129.7188 278.3906,128.5781 Q279.0156,127.4219 280.1094,126.8125 Q281.2031,126.1875 282.4375,126.1875 Q283.1719,126.1875 283.8125,126.3594 Q284.4688,126.5156 285.0156,126.875 Z " fill="#000000"/><text fill="#000000" font-family="sans-serif" font-size="14" lengthAdjust="spacing" textLength="69" x="302.75" y="136.7285">ObjectSpin</text><line style="stroke:#181818;stroke-width:0.5;" x1="232" x2="410" y1="147" y2="147"/><ellipse cx="242" cy="158" fill="none" rx="3" ry="3" style="stroke:#038048;stroke-width:1.0;"/><text fill="#000000" font-family="sans-serif" font-size="14" lengthAdjust="spacing" textLength="132" x="251" y="165.5332">SpinSpeed : float = 5</text><ellipse cx="242" cy="175.6094" fill="none" rx="3" ry="3" style="stroke:#038048;stroke-width:1.0;"/><text fill="#000000" font-family="sans-serif" font-size="14" lengthAdjust="spacing" textLength="154" x="251" y="183.1426">RotationRange : int = 15</text><rect fill="none" height="6" style="stroke:#C82930;stroke-width:1.0;" width="6" x="239" y="190.2188"/><text fill="#000000" font-family="sans-serif" font-size="14" lengthAdjust="spacing" textLength="84" x="251" y="200.752">m_time : float</text><rect fill="none" height="6" style="stroke:#C82930;stroke-width:1.0;" width="6" x="239" y="207.8281"/><text fill="#000000" font-family="sans-serif" font-size="14" lengthAdjust="spacing" textLength="94" x="251" y="218.3613">frames : int = 0</text><line style="stroke:#181818;stroke-width:0.5;" x1="232" x2="410" y1="225.4375" y2="225.4375"/><text fill="#000000" font-family="sans-serif" font-size="14" lengthAdjust="spacing" textLength="89" x="237" y="243.9707">Awake() : void</text><text fill="#000000" font-family="sans-serif" font-size="14" lengthAdjust="spacing" textLength="93" x="237" y="261.5801">Update() : void</text></g><!--MD5=[0b6247ccdf809425012b604d9599d56e]
class MotionType--><g id="elem_MotionType"><rect codeLine="9" fill="#F1F1F1" height="100.8281" id="MotionType" rx="2.5" ry="2.5" style="stroke:#181818;stroke-width:0.5;" width="106" x="7" y="329"/><ellipse cx="22" cy="345" fill="#EB937F" rx="11" ry="11" style="stroke:#181818;stroke-width:1.0;"/><path d="M20.8594,345.7969 L20.8594,348.2969 L25.1875,348.2969 L25.1875,347.375 Q25.1875,346.7656 25.4219,346.5 Q25.6719,346.2344 26.0469,346.2344 Q26.4219,346.2344 26.6563,346.5 Q26.8906,346.7656 26.8906,347.375 L26.8906,350 L18.8906,350 Q18.2656,350 18,349.7656 Q17.75,349.5313 17.75,349.1406 Q17.75,348.7656 18.0156,348.5313 Q18.2813,348.2969 18.8906,348.2969 L19.1563,348.2969 L19.1563,341.6406 L18.8906,341.6406 Q18.2656,341.6406 18,341.4063 Q17.75,341.1719 17.75,340.7813 Q17.75,340.4063 18,340.1719 Q18.2656,339.9375 18.8906,339.9375 L26.5156,339.9375 L26.5156,342.5313 Q26.5156,343.1406 26.2813,343.4063 Q26.0625,343.6563 25.6719,343.6563 Q25.2969,343.6563 25.0625,343.4063 Q24.8281,343.1406 24.8281,342.5313 L24.8281,341.6406 L20.8594,341.6406 L20.8594,344.0938 L22.3438,344.0938 Q22.3438,343.4375 22.4688,343.25 Q22.7344,342.8438 23.2031,342.8438 Q23.5781,342.8438 23.8125,343.1094 Q24.0469,343.3594 24.0469,343.9688 L24.0469,345.9375 Q24.0469,346.4844 23.9219,346.6719 Q23.6563,347.0625 23.2031,347.0625 Q22.7344,347.0625 22.4688,346.6563 Q22.3438,346.4688 22.3438,345.7969 L20.8594,345.7969 Z " fill="#000000"/><text fill="#000000" font-family="sans-serif" font-size="14" lengthAdjust="spacing" textLength="74" x="36" y="350.7285">MotionType</text><line style="stroke:#181818;stroke-width:0.5;" x1="8" x2="112" y1="361" y2="361"/><text fill="#000000" font-family="sans-serif" font-size="14" lengthAdjust="spacing" textLength="57" x="13" y="379.5332">Rotation,</text><text fill="#000000" font-family="sans-serif" font-size="14" lengthAdjust="spacing" textLength="94" x="13" y="397.1426">BackAndForth,</text><text fill="#000000" font-family="sans-serif" font-size="14" lengthAdjust="spacing" textLength="75" x="13" y="414.752">Translation,</text><line style="stroke:#181818;stroke-width:0.5;" x1="8" x2="112" y1="421.8281" y2="421.8281"/></g><!--MD5=[83b3cf3d23d77c6f1e1b5291a241bc2a]
class MonoBehaviour--><g id="elem_MonoBehaviour"><rect fill="#F1F1F1" height="48" id="MonoBehaviour" rx="2.5" ry="2.5" style="stroke:#181818;stroke-width:0.5;" width="131" x="255.5" y="7"/><ellipse cx="270.5" cy="23" fill="#ADD1B2" rx="11" ry="11" style="stroke:#181818;stroke-width:1.0;"/><path d="M273.2656,18.875 Q273.4219,18.6563 273.6094,18.5469 Q273.7969,18.4375 274.0156,18.4375 Q274.3906,18.4375 274.625,18.7031 Q274.8594,18.9531 274.8594,19.5625 L274.8594,21.0156 Q274.8594,21.625 274.625,21.8906 Q274.3906,22.1563 274.0156,22.1563 Q273.6719,22.1563 273.4688,21.9531 Q273.2656,21.7656 273.1563,21.25 Q273.1094,20.8906 272.9219,20.7031 Q272.5938,20.3281 271.9844,20.1094 Q271.375,19.8906 270.75,19.8906 Q269.9844,19.8906 269.3438,20.2188 Q268.7188,20.5469 268.2188,21.2969 Q267.7344,22.0469 267.7344,23.0781 L267.7344,24.1719 Q267.7344,25.4063 268.625,26.2344 Q269.5156,27.0469 271.1094,27.0469 Q272.0469,27.0469 272.7031,26.7969 Q273.0938,26.6406 273.5156,26.2031 Q273.7813,25.9375 273.9219,25.8594 Q274.0781,25.7813 274.2813,25.7813 Q274.6094,25.7813 274.8594,26.0469 Q275.125,26.2969 275.125,26.6406 Q275.125,26.9844 274.7813,27.3906 Q274.2813,27.9688 273.4844,28.2969 Q272.4063,28.75 271.1094,28.75 Q269.5938,28.75 268.3906,28.125 Q267.4063,27.625 266.7188,26.5625 Q266.0313,25.4844 266.0313,24.2031 L266.0313,23.0469 Q266.0313,21.7188 266.6406,20.5781 Q267.2656,19.4219 268.3594,18.8125 Q269.4531,18.1875 270.6875,18.1875 Q271.4219,18.1875 272.0625,18.3594 Q272.7188,18.5156 273.2656,18.875 Z " fill="#000000"/><text fill="#000000" font-family="sans-serif" font-size="14" lengthAdjust="spacing" textLength="99" x="284.5" y="28.7285">MonoBehaviour</text><line style="stroke:#181818;stroke-width:0.5;" x1="256.5" x2="385.5" y1="39" y2="39"/><line style="stroke:#181818;stroke-width:0.5;" x1="256.5" x2="385.5" y1="47" y2="47"/></g><!--MD5=[004b1d6c4ca8aad4ba8b586a335ed4f3]
class Transform--><g id="elem_Transform"><rect fill="#F1F1F1" height="48" id="Transform" rx="2.5" ry="2.5" style="stroke:#181818;stroke-width:0.5;" width="97" x="148.5" y="355.5"/><ellipse cx="163.5" cy="371.5" fill="#ADD1B2" rx="11" ry="11" style="stroke:#181818;stroke-width:1.0;"/><path d="M166.2656,367.375 Q166.4219,367.1563 166.6094,367.0469 Q166.7969,366.9375 167.0156,366.9375 Q167.3906,366.9375 167.625,367.2031 Q167.8594,367.4531 167.8594,368.0625 L167.8594,369.5156 Q167.8594,370.125 167.625,370.3906 Q167.3906,370.6563 167.0156,370.6563 Q166.6719,370.6563 166.4688,370.4531 Q166.2656,370.2656 166.1563,369.75 Q166.1094,369.3906 165.9219,369.2031 Q165.5938,368.8281 164.9844,368.6094 Q164.375,368.3906 163.75,368.3906 Q162.9844,368.3906 162.3438,368.7188 Q161.7188,369.0469 161.2188,369.7969 Q160.7344,370.5469 160.7344,371.5781 L160.7344,372.6719 Q160.7344,373.9063 161.625,374.7344 Q162.5156,375.5469 164.1094,375.5469 Q165.0469,375.5469 165.7031,375.2969 Q166.0938,375.1406 166.5156,374.7031 Q166.7813,374.4375 166.9219,374.3594 Q167.0781,374.2813 167.2813,374.2813 Q167.6094,374.2813 167.8594,374.5469 Q168.125,374.7969 168.125,375.1406 Q168.125,375.4844 167.7813,375.8906 Q167.2813,376.4688 166.4844,376.7969 Q165.4063,377.25 164.1094,377.25 Q162.5938,377.25 161.3906,376.625 Q160.4063,376.125 159.7188,375.0625 Q159.0313,373.9844 159.0313,372.7031 L159.0313,371.5469 Q159.0313,370.2188 159.6406,369.0781 Q160.2656,367.9219 161.3594,367.3125 Q162.4531,366.6875 163.6875,366.6875 Q164.4219,366.6875 165.0625,366.8594 Q165.7188,367.0156 166.2656,367.375 Z " fill="#000000"/><text fill="#000000" font-family="sans-serif" font-size="14" lengthAdjust="spacing" textLength="65" x="177.5" y="377.2285">Transform</text><line style="stroke:#181818;stroke-width:0.5;" x1="149.5" x2="244.5" y1="387.5" y2="387.5"/><line style="stroke:#181818;stroke-width:0.5;" x1="149.5" x2="244.5" y1="395.5" y2="395.5"/></g><!--MD5=[65d619c042c23702cef2ca07d67b1cf6]
class Vector3--><g id="elem_Vector3"><rect fill="#F1F1F1" height="48" id="Vector3" rx="2.5" ry="2.5" style="stroke:#181818;stroke-width:0.5;" width="81" x="280.5" y="355.5"/><ellipse cx="295.5" cy="371.5" fill="#ADD1B2" rx="11" ry="11" style="stroke:#181818;stroke-width:1.0;"/><path d="M298.2656,367.375 Q298.4219,367.1563 298.6094,367.0469 Q298.7969,366.9375 299.0156,366.9375 Q299.3906,366.9375 299.625,367.2031 Q299.8594,367.4531 299.8594,368.0625 L299.8594,369.5156 Q299.8594,370.125 299.625,370.3906 Q299.3906,370.6563 299.0156,370.6563 Q298.6719,370.6563 298.4688,370.4531 Q298.2656,370.2656 298.1563,369.75 Q298.1094,369.3906 297.9219,369.2031 Q297.5938,368.8281 296.9844,368.6094 Q296.375,368.3906 295.75,368.3906 Q294.9844,368.3906 294.3438,368.7188 Q293.7188,369.0469 293.2188,369.7969 Q292.7344,370.5469 292.7344,371.5781 L292.7344,372.6719 Q292.7344,373.9063 293.625,374.7344 Q294.5156,375.5469 296.1094,375.5469 Q297.0469,375.5469 297.7031,375.2969 Q298.0938,375.1406 298.5156,374.7031 Q298.7813,374.4375 298.9219,374.3594 Q299.0781,374.2813 299.2813,374.2813 Q299.6094,374.2813 299.8594,374.5469 Q300.125,374.7969 300.125,375.1406 Q300.125,375.4844 299.7813,375.8906 Q299.2813,376.4688 298.4844,376.7969 Q297.4063,377.25 296.1094,377.25 Q294.5938,377.25 293.3906,376.625 Q292.4063,376.125 291.7188,375.0625 Q291.0313,373.9844 291.0313,372.7031 L291.0313,371.5469 Q291.0313,370.2188 291.6406,369.0781 Q292.2656,367.9219 293.3594,367.3125 Q294.4531,366.6875 295.6875,366.6875 Q296.4219,366.6875 297.0625,366.8594 Q297.7188,367.0156 298.2656,367.375 Z " fill="#000000"/><text fill="#000000" font-family="sans-serif" font-size="14" lengthAdjust="spacing" textLength="49" x="309.5" y="377.2285">Vector3</text><line style="stroke:#181818;stroke-width:0.5;" x1="281.5" x2="360.5" y1="387.5" y2="387.5"/><line style="stroke:#181818;stroke-width:0.5;" x1="281.5" x2="360.5" y1="395.5" y2="395.5"/></g><!--MD5=[3bee97543100ada6e7f5bc662b18aeca]
class Color32--><g id="elem_Color32"><rect fill="#F1F1F1" height="48" id="Color32" rx="2.5" ry="2.5" style="stroke:#181818;stroke-width:0.5;" width="82" x="397" y="355.5"/><ellipse cx="412" cy="371.5" fill="#ADD1B2" rx="11" ry="11" style="stroke:#181818;stroke-width:1.0;"/><path d="M414.7656,367.375 Q414.9219,367.1563 415.1094,367.0469 Q415.2969,366.9375 415.5156,366.9375 Q415.8906,366.9375 416.125,367.2031 Q416.3594,367.4531 416.3594,368.0625 L416.3594,369.5156 Q416.3594,370.125 416.125,370.3906 Q415.8906,370.6563 415.5156,370.6563 Q415.1719,370.6563 414.9688,370.4531 Q414.7656,370.2656 414.6563,369.75 Q414.6094,369.3906 414.4219,369.2031 Q414.0938,368.8281 413.4844,368.6094 Q412.875,368.3906 412.25,368.3906 Q411.4844,368.3906 410.8438,368.7188 Q410.2188,369.0469 409.7188,369.7969 Q409.2344,370.5469 409.2344,371.5781 L409.2344,372.6719 Q409.2344,373.9063 410.125,374.7344 Q411.0156,375.5469 412.6094,375.5469 Q413.5469,375.5469 414.2031,375.2969 Q414.5938,375.1406 415.0156,374.7031 Q415.2813,374.4375 415.4219,374.3594 Q415.5781,374.2813 415.7813,374.2813 Q416.1094,374.2813 416.3594,374.5469 Q416.625,374.7969 416.625,375.1406 Q416.625,375.4844 416.2813,375.8906 Q415.7813,376.4688 414.9844,376.7969 Q413.9063,377.25 412.6094,377.25 Q411.0938,377.25 409.8906,376.625 Q408.9063,376.125 408.2188,375.0625 Q407.5313,373.9844 407.5313,372.7031 L407.5313,371.5469 Q407.5313,370.2188 408.1406,369.0781 Q408.7656,367.9219 409.8594,367.3125 Q410.9531,366.6875 412.1875,366.6875 Q412.9219,366.6875 413.5625,366.8594 Q414.2188,367.0156 414.7656,367.375 Z " fill="#000000"/><text fill="#000000" font-family="sans-serif" font-size="14" lengthAdjust="spacing" textLength="50" x="426" y="377.2285">Color32</text><line style="stroke:#181818;stroke-width:0.5;" x1="398" x2="478" y1="387.5" y2="387.5"/><line style="stroke:#181818;stroke-width:0.5;" x1="398" x2="478" y1="395.5" y2="395.5"/></g><!--MD5=[6237bc429044a0f9c2c5eafc1336b158]
reverse link MonoBehaviour to ObjectSpin--><g id="link_MonoBehaviour_ObjectSpin"><path codeLine="14" d="M321,75.21 C321,87.43 321,101.11 321,114.67 " fill="none" id="MonoBehaviour-backto-ObjectSpin" style="stroke:#181818;stroke-width:1.0;"/><polygon fill="none" points="314,75.12,321,55.12,328,75.12,314,75.12" style="stroke:#181818;stroke-width:1.0;"/></g><!--MD5=[983d9127a69735412840aef24243d7d4]
link ObjectSpin to Transform--><g id="link_ObjectSpin_Transform"><path codeLine="15" d="M270.03,269.25 C250.61,298.29 229.71,329.57 215.26,351.18 " fill="none" id="ObjectSpin-to-Transform" style="stroke:#181818;stroke-width:1.0;"/><polygon fill="#181818" points="212.46,355.37,220.7805,350.1003,215.2335,351.2097,214.1241,345.6627,212.46,355.37" style="stroke:#181818;stroke-width:1.0;"/><text fill="#000000" font-family="sans-serif" font-size="13" lengthAdjust="spacing" textLength="72" x="135.1966" y="344.6768">m_transform</text></g><!--MD5=[6666f93f53deed5836c667c54a2d1cad]
link ObjectSpin to Vector3--><g id="link_ObjectSpin_Vector3"><path codeLine="16" d="M295.12,269.25 C293.81,297.93 295.95,328.78 301.53,350.36 " fill="none" id="ObjectSpin-to-Vector3" style="stroke:#181818;stroke-width:1.0;"/><polygon fill="#181818" points="302.94,355.37,304.348,345.6223,301.5834,350.5576,296.6481,347.7929,302.94,355.37" style="stroke:#181818;stroke-width:1.0;"/><text fill="#000000" font-family="sans-serif" font-size="13" lengthAdjust="spacing" textLength="69" x="252.193" y="344.6141">m_prevPOS</text></g><!--MD5=[6666f93f53deed5836c667c54a2d1cad]
link ObjectSpin to Vector3--><g id="link_ObjectSpin_Vector3"><path codeLine="17" d="M321,269.25 C321,297.93 321,328.78 321,350.36 " fill="none" id="ObjectSpin-to-Vector3-1" style="stroke:#181818;stroke-width:1.0;"/><polygon fill="#181818" points="321,355.37,325,346.37,321,350.37,317,346.37,321,355.37" style="stroke:#181818;stroke-width:1.0;"/><text fill="#000000" font-family="sans-serif" font-size="13" lengthAdjust="spacing" textLength="103" x="334.1152" y="344.6141">m_initial_Rotation</text></g><!--MD5=[6666f93f53deed5836c667c54a2d1cad]
link ObjectSpin to Vector3--><g id="link_ObjectSpin_Vector3"><path codeLine="18" d="M346.88,269.25 C348.19,297.93 346.05,328.78 340.47,350.36 " fill="none" id="ObjectSpin-to-Vector3-2" style="stroke:#181818;stroke-width:1.0;"/><polygon fill="#181818" points="339.06,355.37,345.3519,347.7929,340.4166,350.5576,337.652,345.6223,339.06,355.37" style="stroke:#181818;stroke-width:1.0;"/><text fill="#000000" font-family="sans-serif" font-size="13" lengthAdjust="spacing" textLength="102" x="367.1411" y="344.5536">m_initial_Position</text></g><!--MD5=[fc87912842fc5935342a1f65c4b430bb]
link ObjectSpin to Color32--><g id="link_ObjectSpin_Color32"><path codeLine="19" d="M369.09,269.25 C387.34,298.17 406.97,329.31 420.6,350.91 " fill="none" id="ObjectSpin-to-Color32" style="stroke:#181818;stroke-width:1.0;"/><polygon fill="#181818" points="423.41,355.37,422.0084,345.6214,420.7497,351.1364,415.2347,349.8778,423.41,355.37" style="stroke:#181818;stroke-width:1.0;"/><text fill="#000000" font-family="sans-serif" font-size="13" lengthAdjust="spacing" textLength="72" x="428.8963" y="344.6768">m_lightColor</text></g><!--MD5=[3d7e51e1d684fa718d34af86a652ca16]
link ObjectSpin to MotionType--><g id="link_ObjectSpin_MotionType"><path codeLine="20" d="M230.89,248.66 C193.13,274.5 150.44,304.94 117.08,329.85 " fill="none" id="ObjectSpin-to-MotionType" style="stroke:#181818;stroke-width:1.0;"/><polygon fill="#181818" points="113.06,332.86,122.6637,330.6764,117.0651,329.8668,117.8747,324.2682,113.06,332.86" style="stroke:#181818;stroke-width:1.0;"/><text fill="#000000" font-family="sans-serif" font-size="13" lengthAdjust="spacing" textLength="39" x="120.9963" y="324.4075">Motion</text></g><!--MD5=[1c89561c8a04fa96a85b3833867aa6d5]
reverse link ObjectSpin to MotionType--><g id="link_ObjectSpin_MotionType"><path codeLine="21" d="M218.15,275.65 C182.23,301.43 143.42,328.27 113.12,348.07 " fill="none" id="ObjectSpin-backto-MotionType" style="stroke:#181818;stroke-width:1.0;"/><ellipse cx="224.226" cy="271.2659" fill="#FFFFFF" rx="8" ry="8" style="stroke:#181818;stroke-width:1.0;"/><line style="stroke:#181818;stroke-width:1.0;" x1="217.7419" x2="230.71" y1="275.9517" y2="266.58"/><line style="stroke:#181818;stroke-width:1.0;" x1="219.5401" x2="228.9118" y1="264.7818" y2="277.7499"/></g><!--MD5=[e558c9dd674cd897cb1d2d35697f65bb]
@startuml
class ObjectSpin {
    + SpinSpeed : float = 5
    + RotationRange : int = 15
    - m_time : float
    - frames : int = 0
    Awake() : void
    Update() : void
}
enum MotionType {
    Rotation,
    BackAndForth,
    Translation,
}
MonoBehaviour <|- - ObjectSpin
ObjectSpin - -> "m_transform" Transform
ObjectSpin - -> "m_prevPOS" Vector3
ObjectSpin - -> "m_initial_Rotation" Vector3
ObjectSpin - -> "m_initial_Position" Vector3
ObjectSpin - -> "m_lightColor" Color32
ObjectSpin - -> "Motion" MotionType
ObjectSpin +- - MotionType
@enduml

PlantUML version 1.2022.5(Sat Apr 30 12:55:52 CEST 2022)
(GPL source distribution)
Java Runtime: Java(TM) SE Runtime Environment
JVM: Java HotSpot(TM) 64-Bit Server VM
Default Encoding: UTF-8
Language: en
Country: GB
--></g></svg>