<?xml version="1.0" encoding="UTF-8" standalone="no"?><svg xmlns="http://www.w3.org/2000/svg" xmlns:xlink="http://www.w3.org/1999/xlink" contentStyleType="text/css" height="275px" preserveAspectRatio="none" style="width:517px;height:275px;background:#FFFFFF;" version="1.1" viewBox="0 0 517 275" width="517px" zoomAndPan="magnify"><defs/><g><!--MD5=[1ff686d8700b95224a802930d94df8e9]
class BoolPreference--><g id="elem_BoolPreference"><rect codeLine="1" fill="#F1F1F1" height="153.6563" id="BoolPreference" rx="2.5" ry="2.5" style="stroke:#181818;stroke-width:0.5;" width="313" x="197.0002" y="115"/><ellipse cx="300.2502" cy="131" fill="#ADD1B2" rx="11" ry="11" style="stroke:#181818;stroke-width:1.0;"/><path d="M303.0158,126.875 Q303.1721,126.6563 303.3596,126.5469 Q303.5471,126.4375 303.7658,126.4375 Q304.1408,126.4375 304.3752,126.7031 Q304.6096,126.9531 304.6096,127.5625 L304.6096,129.0156 Q304.6096,129.625 304.3752,129.8906 Q304.1408,130.1563 303.7658,130.1563 Q303.4221,130.1563 303.2189,129.9531 Q303.0158,129.7656 302.9064,129.25 Q302.8596,128.8906 302.6721,128.7031 Q302.3439,128.3281 301.7346,128.1094 Q301.1252,127.8906 300.5002,127.8906 Q299.7346,127.8906 299.0939,128.2188 Q298.4689,128.5469 297.9689,129.2969 Q297.4846,130.0469 297.4846,131.0781 L297.4846,132.1719 Q297.4846,133.4063 298.3752,134.2344 Q299.2658,135.0469 300.8596,135.0469 Q301.7971,135.0469 302.4533,134.7969 Q302.8439,134.6406 303.2658,134.2031 Q303.5314,133.9375 303.6721,133.8594 Q303.8283,133.7813 304.0314,133.7813 Q304.3596,133.7813 304.6096,134.0469 Q304.8752,134.2969 304.8752,134.6406 Q304.8752,134.9844 304.5314,135.3906 Q304.0314,135.9688 303.2346,136.2969 Q302.1564,136.75 300.8596,136.75 Q299.3439,136.75 298.1408,136.125 Q297.1564,135.625 296.4689,134.5625 Q295.7814,133.4844 295.7814,132.2031 L295.7814,131.0469 Q295.7814,129.7188 296.3908,128.5781 Q297.0158,127.4219 298.1096,126.8125 Q299.2033,126.1875 300.4377,126.1875 Q301.1721,126.1875 301.8127,126.3594 Q302.4689,126.5156 303.0158,126.875 Z " fill="#000000"/><text fill="#000000" font-family="sans-serif" font-size="14" lengthAdjust="spacing" textLength="98" x="320.7502" y="136.7285">BoolPreference</text><line style="stroke:#181818;stroke-width:0.5;" x1="198.0002" x2="509.0002" y1="147" y2="147"/><ellipse cx="208.0002" cy="158" fill="none" rx="3" ry="3" style="stroke:#038048;stroke-width:1.0;"/><text fill="#000000" font-family="sans-serif" font-size="14" lengthAdjust="spacing" textLength="109" x="217.0002" y="165.5332">key : string «get»</text><ellipse cx="208.0002" cy="175.6094" fill="none" rx="3" ry="3" style="stroke:#038048;stroke-width:1.0;"/><text fill="#000000" font-family="sans-serif" font-size="14" lengthAdjust="spacing" textLength="158" x="217.0002" y="183.1426">defaultValue : bool «get»</text><rect fill="none" height="6" style="stroke:#C82930;stroke-width:1.0;" width="6" x="205.0002" y="190.2188"/><text fill="#000000" font-family="sans-serif" font-size="14" lengthAdjust="spacing" textLength="160" x="217.0002" y="200.752">valueCache : bool? = null</text><ellipse cx="208.0002" cy="210.8281" fill="none" rx="3" ry="3" style="stroke:#038048;stroke-width:1.0;"/><text fill="#000000" font-family="sans-serif" font-size="14" lengthAdjust="spacing" textLength="154" x="217.0002" y="218.3613">Value : bool «get» «set»</text><line style="stroke:#181818;stroke-width:0.5;" x1="198.0002" x2="509.0002" y1="225.4375" y2="225.4375"/><ellipse cx="208.0002" cy="236.4375" fill="#84BE84" rx="3" ry="3" style="stroke:#038048;stroke-width:1.0;"/><text fill="#000000" font-family="sans-serif" font-size="14" lengthAdjust="spacing" textLength="287" x="217.0002" y="243.9707">BoolPreference(key:string, defaultValue:bool)</text><ellipse cx="208.0002" cy="254.0469" fill="#84BE84" rx="3" ry="3" style="stroke:#038048;stroke-width:1.0;"/><text fill="#000000" font-family="sans-serif" font-size="14" lengthAdjust="spacing" textLength="118" x="217.0002" y="261.5801">ClearValue() : void</text></g><!--MD5=[f901387b96077c5852b67344158f3ed3]
class Preferences--><g id="elem_Preferences"><rect codeLine="9" fill="#F1F1F1" height="83.2188" id="Preferences" rx="2.5" ry="2.5" style="stroke:#181818;stroke-width:0.5;" width="141" x="21.0002" y="150.5"/><ellipse cx="50.4002" cy="166.5" fill="#ADD1B2" rx="11" ry="11" style="stroke:#181818;stroke-width:1.0;"/><path d="M53.1658,162.375 Q53.3221,162.1563 53.5096,162.0469 Q53.6971,161.9375 53.9158,161.9375 Q54.2908,161.9375 54.5252,162.2031 Q54.7596,162.4531 54.7596,163.0625 L54.7596,164.5156 Q54.7596,165.125 54.5252,165.3906 Q54.2908,165.6563 53.9158,165.6563 Q53.5721,165.6563 53.3689,165.4531 Q53.1658,165.2656 53.0564,164.75 Q53.0096,164.3906 52.8221,164.2031 Q52.4939,163.8281 51.8846,163.6094 Q51.2752,163.3906 50.6502,163.3906 Q49.8846,163.3906 49.2439,163.7188 Q48.6189,164.0469 48.1189,164.7969 Q47.6346,165.5469 47.6346,166.5781 L47.6346,167.6719 Q47.6346,168.9063 48.5252,169.7344 Q49.4158,170.5469 51.0096,170.5469 Q51.9471,170.5469 52.6033,170.2969 Q52.9939,170.1406 53.4158,169.7031 Q53.6814,169.4375 53.8221,169.3594 Q53.9783,169.2813 54.1814,169.2813 Q54.5096,169.2813 54.7596,169.5469 Q55.0252,169.7969 55.0252,170.1406 Q55.0252,170.4844 54.6814,170.8906 Q54.1814,171.4688 53.3846,171.7969 Q52.3064,172.25 51.0096,172.25 Q49.4939,172.25 48.2908,171.625 Q47.3064,171.125 46.6189,170.0625 Q45.9314,168.9844 45.9314,167.7031 L45.9314,166.5469 Q45.9314,165.2188 46.5408,164.0781 Q47.1658,162.9219 48.2596,162.3125 Q49.3533,161.6875 50.5877,161.6875 Q51.3221,161.6875 51.9627,161.8594 Q52.6189,162.0156 53.1658,162.375 Z " fill="#000000"/><text fill="#000000" font-family="sans-serif" font-size="14" lengthAdjust="spacing" textLength="77" x="67.6002" y="172.2285">Preferences</text><line style="stroke:#181818;stroke-width:0.5;" x1="22.0002" x2="161.0002" y1="182.5" y2="182.5"/><line style="stroke:#181818;stroke-width:0.5;" x1="22.0002" x2="161.0002" y1="190.5" y2="190.5"/><rect fill="#F24D5C" height="6" style="stroke:#C82930;stroke-width:1.0;" width="6" x="29.0002" y="198.5"/><text fill="#000000" font-family="sans-serif" font-size="14" lengthAdjust="spacing" text-decoration="underline" textLength="115" x="41.0002" y="209.0332">InitWindow() : void</text><rect fill="#F24D5C" height="6" style="stroke:#C82930;stroke-width:1.0;" width="6" x="29.0002" y="216.1094"/><text fill="#000000" font-family="sans-serif" font-size="14" lengthAdjust="spacing" textLength="90" x="41.0002" y="226.6426">OnGUI() : void</text></g><!--MD5=[802e82b404e578583cfeee29107899de]
class EditorWindow--><g id="elem_EditorWindow"><rect fill="#F1F1F1" height="48" id="EditorWindow" rx="2.5" ry="2.5" style="stroke:#181818;stroke-width:0.5;" width="118" x="32.5002" y="7"/><ellipse cx="47.5002" cy="23" fill="#ADD1B2" rx="11" ry="11" style="stroke:#181818;stroke-width:1.0;"/><path d="M50.2658,18.875 Q50.4221,18.6563 50.6096,18.5469 Q50.7971,18.4375 51.0158,18.4375 Q51.3908,18.4375 51.6252,18.7031 Q51.8596,18.9531 51.8596,19.5625 L51.8596,21.0156 Q51.8596,21.625 51.6252,21.8906 Q51.3908,22.1563 51.0158,22.1563 Q50.6721,22.1563 50.4689,21.9531 Q50.2658,21.7656 50.1564,21.25 Q50.1096,20.8906 49.9221,20.7031 Q49.5939,20.3281 48.9846,20.1094 Q48.3752,19.8906 47.7502,19.8906 Q46.9846,19.8906 46.3439,20.2188 Q45.7189,20.5469 45.2189,21.2969 Q44.7346,22.0469 44.7346,23.0781 L44.7346,24.1719 Q44.7346,25.4063 45.6252,26.2344 Q46.5158,27.0469 48.1096,27.0469 Q49.0471,27.0469 49.7033,26.7969 Q50.0939,26.6406 50.5158,26.2031 Q50.7814,25.9375 50.9221,25.8594 Q51.0783,25.7813 51.2814,25.7813 Q51.6096,25.7813 51.8596,26.0469 Q52.1252,26.2969 52.1252,26.6406 Q52.1252,26.9844 51.7814,27.3906 Q51.2814,27.9688 50.4846,28.2969 Q49.4064,28.75 48.1096,28.75 Q46.5939,28.75 45.3908,28.125 Q44.4064,27.625 43.7189,26.5625 Q43.0314,25.4844 43.0314,24.2031 L43.0314,23.0469 Q43.0314,21.7188 43.6408,20.5781 Q44.2658,19.4219 45.3596,18.8125 Q46.4533,18.1875 47.6877,18.1875 Q48.4221,18.1875 49.0627,18.3594 Q49.7189,18.5156 50.2658,18.875 Z " fill="#000000"/><text fill="#000000" font-family="sans-serif" font-size="14" lengthAdjust="spacing" textLength="86" x="61.5002" y="28.7285">EditorWindow</text><line style="stroke:#181818;stroke-width:0.5;" x1="33.5002" x2="149.5002" y1="39" y2="39"/><line style="stroke:#181818;stroke-width:0.5;" x1="33.5002" x2="149.5002" y1="47" y2="47"/></g><!--MD5=[07163af81040a50812c112a56d1d389b]
reverse link EditorWindow to Preferences--><g id="link_EditorWindow_Preferences"><path codeLine="13" d="M91.5002,75.16 C91.5002,98.55 91.5002,127.29 91.5002,150.29 " fill="none" id="EditorWindow-backto-Preferences" style="stroke:#181818;stroke-width:1.0;"/><polygon fill="none" points="84.5002,75.12,91.5002,55.12,98.5002,75.12,84.5002,75.12" style="stroke:#181818;stroke-width:1.0;"/></g><!--MD5=[fda6aec726e21372a39a4d64e6e336b8]
link Preferences to BoolPreference--><g id="link_Preferences_BoolPreference"><path codeLine="14" d="M173.8962,218.8177 C173.8962,218.8177 180.8402,219.99 183.8202,220.41 " fill="none" id="Preferences-BoolPreference" style="stroke:#181818;stroke-width:1.0;"/><polygon fill="#181818" points="196.8802,221.93,188.4018,216.9183,191.9136,221.3531,187.4788,224.8649,196.8802,221.93" style="stroke:#181818;stroke-width:1.0;"/><line style="stroke:#181818;stroke-width:1.0;" x1="191.9136" x2="183.9652" y1="221.3531" y2="220.43"/><polygon fill="none" points="162.1202,216.51,167.239,221.5892,173.8962,218.8177,168.7774,213.7385,162.1202,216.51" style="stroke:#181818;stroke-width:1.0;"/><text fill="#000000" font-family="sans-serif" font-size="13" lengthAdjust="spacing" textLength="82" x="133.3661" y="255.1852">AssetModPref</text></g><!--MD5=[fda6aec726e21372a39a4d64e6e336b8]
link Preferences to BoolPreference--><g id="link_Preferences_BoolPreference"><path codeLine="15" d="M173.8962,165.1823 C173.8962,165.1823 180.8402,164.01 183.8202,163.59 " fill="none" id="Preferences-BoolPreference-1" style="stroke:#181818;stroke-width:1.0;"/><polygon fill="#181818" points="196.8802,162.07,187.4788,159.1351,191.9136,162.6469,188.4018,167.0817,196.8802,162.07" style="stroke:#181818;stroke-width:1.0;"/><line style="stroke:#181818;stroke-width:1.0;" x1="191.9136" x2="183.9652" y1="162.6469" y2="163.57"/><polygon fill="none" points="162.1202,167.49,168.7774,170.2615,173.8962,165.1823,167.239,162.4108,162.1202,167.49" style="stroke:#181818;stroke-width:1.0;"/><text fill="#000000" font-family="sans-serif" font-size="13" lengthAdjust="spacing" textLength="185" x="6" y="139.2723">AlsoCheckUnityLockFileStaPref</text></g><!--MD5=[81895badc28093ab1803b9f0a3f79549]
@startuml
class BoolPreference {
    + key : string <<get>>
    + defaultValue : bool <<get>>
    + BoolPreference(key:string, defaultValue:bool)
    - valueCache : bool? = null
    + Value : bool <<get>> <<set>>
    + ClearValue() : void
}
class Preferences {
    - {static} InitWindow() : void
    - OnGUI() : void
}
EditorWindow <|- - Preferences
Preferences o-> "AssetModPref" BoolPreference
Preferences o-> "AlsoCheckUnityLockFileStaPref" BoolPreference
@enduml

PlantUML version 1.2022.5(Sat Apr 30 12:55:52 CEST 2022)
(GPL source distribution)
Java Runtime: Java(TM) SE Runtime Environment
JVM: Java HotSpot(TM) 64-Bit Server VM
Default Encoding: UTF-8
Language: en
Country: GB
--></g></svg>