<?xml version="1.0" encoding="UTF-8" standalone="no"?><svg xmlns="http://www.w3.org/2000/svg" xmlns:xlink="http://www.w3.org/1999/xlink" contentStyleType="text/css" height="187px" preserveAspectRatio="none" style="width:379px;height:187px;background:#FFFFFF;" version="1.1" viewBox="0 0 379 187" width="379px" zoomAndPan="magnify"><defs/><g><!--MD5=[4192ed23a7edb8729ca150502f03826e]
class TMP_DigitValidator--><g id="elem_TMP_DigitValidator"><rect codeLine="1" fill="#F1F1F1" height="65.6094" id="TMP_DigitValidator" rx="2.5" ry="2.5" style="stroke:#181818;stroke-width:0.5;" width="365" x="7" y="115"/><ellipse cx="124.75" cy="131" fill="#ADD1B2" rx="11" ry="11" style="stroke:#181818;stroke-width:1.0;"/><path d="M127.5156,126.875 Q127.6719,126.6563 127.8594,126.5469 Q128.0469,126.4375 128.2656,126.4375 Q128.6406,126.4375 128.875,126.7031 Q129.1094,126.9531 129.1094,127.5625 L129.1094,129.0156 Q129.1094,129.625 128.875,129.8906 Q128.6406,130.1563 128.2656,130.1563 Q127.9219,130.1563 127.7188,129.9531 Q127.5156,129.7656 127.4063,129.25 Q127.3594,128.8906 127.1719,128.7031 Q126.8438,128.3281 126.2344,128.1094 Q125.625,127.8906 125,127.8906 Q124.2344,127.8906 123.5938,128.2188 Q122.9688,128.5469 122.4688,129.2969 Q121.9844,130.0469 121.9844,131.0781 L121.9844,132.1719 Q121.9844,133.4063 122.875,134.2344 Q123.7656,135.0469 125.3594,135.0469 Q126.2969,135.0469 126.9531,134.7969 Q127.3438,134.6406 127.7656,134.2031 Q128.0313,133.9375 128.1719,133.8594 Q128.3281,133.7813 128.5313,133.7813 Q128.8594,133.7813 129.1094,134.0469 Q129.375,134.2969 129.375,134.6406 Q129.375,134.9844 129.0313,135.3906 Q128.5313,135.9688 127.7344,136.2969 Q126.6563,136.75 125.3594,136.75 Q123.8438,136.75 122.6406,136.125 Q121.6563,135.625 120.9688,134.5625 Q120.2813,133.4844 120.2813,132.2031 L120.2813,131.0469 Q120.2813,129.7188 120.8906,128.5781 Q121.5156,127.4219 122.6094,126.8125 Q123.7031,126.1875 124.9375,126.1875 Q125.6719,126.1875 126.3125,126.3594 Q126.9688,126.5156 127.5156,126.875 Z " fill="#000000"/><text fill="#000000" font-family="sans-serif" font-size="14" lengthAdjust="spacing" textLength="121" x="145.25" y="136.7285">TMP_DigitValidator</text><line style="stroke:#181818;stroke-width:0.5;" x1="8" x2="371" y1="147" y2="147"/><line style="stroke:#181818;stroke-width:0.5;" x1="8" x2="371" y1="155" y2="155"/><ellipse cx="18" cy="166" fill="#84BE84" rx="3" ry="3" style="stroke:#038048;stroke-width:1.0;"/><text fill="#000000" font-family="sans-serif" font-size="14" lengthAdjust="spacing" textLength="339" x="27" y="173.5332">«override» Validate(text:string, pos:int, ch:char) : char</text></g><!--MD5=[4807d2a16e46ab5fb8e78a64c7f6da9d]
class TMP_InputValidator--><g id="elem_TMP_InputValidator"><rect fill="#F1F1F1" height="48" id="TMP_InputValidator" rx="2.5" ry="2.5" style="stroke:#181818;stroke-width:0.5;" width="156" x="111.5" y="7"/><ellipse cx="126.5" cy="23" fill="#ADD1B2" rx="11" ry="11" style="stroke:#181818;stroke-width:1.0;"/><path d="M129.2656,18.875 Q129.4219,18.6563 129.6094,18.5469 Q129.7969,18.4375 130.0156,18.4375 Q130.3906,18.4375 130.625,18.7031 Q130.8594,18.9531 130.8594,19.5625 L130.8594,21.0156 Q130.8594,21.625 130.625,21.8906 Q130.3906,22.1563 130.0156,22.1563 Q129.6719,22.1563 129.4688,21.9531 Q129.2656,21.7656 129.1563,21.25 Q129.1094,20.8906 128.9219,20.7031 Q128.5938,20.3281 127.9844,20.1094 Q127.375,19.8906 126.75,19.8906 Q125.9844,19.8906 125.3438,20.2188 Q124.7188,20.5469 124.2188,21.2969 Q123.7344,22.0469 123.7344,23.0781 L123.7344,24.1719 Q123.7344,25.4063 124.625,26.2344 Q125.5156,27.0469 127.1094,27.0469 Q128.0469,27.0469 128.7031,26.7969 Q129.0938,26.6406 129.5156,26.2031 Q129.7813,25.9375 129.9219,25.8594 Q130.0781,25.7813 130.2813,25.7813 Q130.6094,25.7813 130.8594,26.0469 Q131.125,26.2969 131.125,26.6406 Q131.125,26.9844 130.7813,27.3906 Q130.2813,27.9688 129.4844,28.2969 Q128.4063,28.75 127.1094,28.75 Q125.5938,28.75 124.3906,28.125 Q123.4063,27.625 122.7188,26.5625 Q122.0313,25.4844 122.0313,24.2031 L122.0313,23.0469 Q122.0313,21.7188 122.6406,20.5781 Q123.2656,19.4219 124.3594,18.8125 Q125.4531,18.1875 126.6875,18.1875 Q127.4219,18.1875 128.0625,18.3594 Q128.7188,18.5156 129.2656,18.875 Z " fill="#000000"/><text fill="#000000" font-family="sans-serif" font-size="14" lengthAdjust="spacing" textLength="124" x="140.5" y="28.7285">TMP_InputValidator</text><line style="stroke:#181818;stroke-width:0.5;" x1="112.5" x2="266.5" y1="39" y2="39"/><line style="stroke:#181818;stroke-width:0.5;" x1="112.5" x2="266.5" y1="47" y2="47"/></g><!--MD5=[dcbc69d8c699cda4a49dc4c347f545a9]
reverse link TMP_InputValidator to TMP_DigitValidator--><g id="link_TMP_InputValidator_TMP_DigitValidator"><path codeLine="4" d="M189.5,75.62 C189.5,88.56 189.5,102.51 189.5,114.61 " fill="none" id="TMP_InputValidator-backto-TMP_DigitValidator" style="stroke:#181818;stroke-width:1.0;"/><polygon fill="none" points="182.5,75.27,189.5,55.27,196.5,75.27,182.5,75.27" style="stroke:#181818;stroke-width:1.0;"/></g><!--MD5=[c4f7823e5cfcb5f868983283b6c15a10]
@startuml
class TMP_DigitValidator {
    + <<override>> Validate(text:string, pos:int, ch:char) : char
}
TMP_InputValidator <|- - TMP_DigitValidator
@enduml

PlantUML version 1.2022.5(Sat Apr 30 12:55:52 CEST 2022)
(GPL source distribution)
Java Runtime: Java(TM) SE Runtime Environment
JVM: Java HotSpot(TM) 64-Bit Server VM
Default Encoding: UTF-8
Language: en
Country: GB
--></g></svg>