<?xml version="1.0" encoding="UTF-8" standalone="no"?><svg xmlns="http://www.w3.org/2000/svg" xmlns:xlink="http://www.w3.org/1999/xlink" contentStyleType="text/css" height="348px" preserveAspectRatio="none" style="width:794px;height:348px;background:#FFFFFF;" version="1.1" viewBox="0 0 794 348" width="794px" zoomAndPan="magnify"><defs/><g><!--MD5=[9b6657cc933d75b22340340550bbb74e]
class Benchmark01--><g id="elem_Benchmark01"><rect codeLine="1" fill="#F1F1F1" height="118.4375" id="Benchmark01" rx="2.5" ry="2.5" style="stroke:#181818;stroke-width:0.5;" width="449" x="257" y="115"/><ellipse cx="433.75" cy="131" fill="#ADD1B2" rx="11" ry="11" style="stroke:#181818;stroke-width:1.0;"/><path d="M436.5156,126.875 Q436.6719,126.6563 436.8594,126.5469 Q437.0469,126.4375 437.2656,126.4375 Q437.6406,126.4375 437.875,126.7031 Q438.1094,126.9531 438.1094,127.5625 L438.1094,129.0156 Q438.1094,129.625 437.875,129.8906 Q437.6406,130.1563 437.2656,130.1563 Q436.9219,130.1563 436.7188,129.9531 Q436.5156,129.7656 436.4063,129.25 Q436.3594,128.8906 436.1719,128.7031 Q435.8438,128.3281 435.2344,128.1094 Q434.625,127.8906 434,127.8906 Q433.2344,127.8906 432.5938,128.2188 Q431.9688,128.5469 431.4688,129.2969 Q430.9844,130.0469 430.9844,131.0781 L430.9844,132.1719 Q430.9844,133.4063 431.875,134.2344 Q432.7656,135.0469 434.3594,135.0469 Q435.2969,135.0469 435.9531,134.7969 Q436.3438,134.6406 436.7656,134.2031 Q437.0313,133.9375 437.1719,133.8594 Q437.3281,133.7813 437.5313,133.7813 Q437.8594,133.7813 438.1094,134.0469 Q438.375,134.2969 438.375,134.6406 Q438.375,134.9844 438.0313,135.3906 Q437.5313,135.9688 436.7344,136.2969 Q435.6563,136.75 434.3594,136.75 Q432.8438,136.75 431.6406,136.125 Q430.6563,135.625 429.9688,134.5625 Q429.2813,133.4844 429.2813,132.2031 L429.2813,131.0469 Q429.2813,129.7188 429.8906,128.5781 Q430.5156,127.4219 431.6094,126.8125 Q432.7031,126.1875 433.9375,126.1875 Q434.6719,126.1875 435.3125,126.3594 Q435.9688,126.5156 436.5156,126.875 Z " fill="#000000"/><text fill="#000000" font-family="sans-serif" font-size="14" lengthAdjust="spacing" textLength="87" x="454.25" y="136.7285">Benchmark01</text><line style="stroke:#181818;stroke-width:0.5;" x1="258" x2="705" y1="147" y2="147"/><ellipse cx="268" cy="158" fill="none" rx="3" ry="3" style="stroke:#038048;stroke-width:1.0;"/><text fill="#000000" font-family="sans-serif" font-size="14" lengthAdjust="spacing" textLength="154" x="277" y="165.5332">BenchmarkType : int = 0</text><rect fill="none" height="6" style="stroke:#C82930;stroke-width:1.0;" width="6" x="265" y="172.6094"/><text fill="#000000" font-family="sans-serif" font-size="14" lengthAdjust="spacing" textLength="402" x="277" y="183.1426">«const» label01 : string = "The &lt;#0050FF&gt;count is: &lt;/color&gt;{0}"</text><rect fill="none" height="6" style="stroke:#C82930;stroke-width:1.0;" width="6" x="265" y="190.2188"/><text fill="#000000" font-family="sans-serif" font-size="14" lengthAdjust="spacing" textLength="423" x="277" y="200.752">«const» label02 : string = "The &lt;color=#0050FF&gt;count is: &lt;/color&gt;"</text><line style="stroke:#181818;stroke-width:0.5;" x1="258" x2="705" y1="207.8281" y2="207.8281"/><text fill="#000000" font-family="sans-serif" font-size="14" lengthAdjust="spacing" textLength="129" x="263" y="226.3613">Start() : IEnumerator</text></g><!--MD5=[83b3cf3d23d77c6f1e1b5291a241bc2a]
class MonoBehaviour--><g id="elem_MonoBehaviour"><rect fill="#F1F1F1" height="48" id="MonoBehaviour" rx="2.5" ry="2.5" style="stroke:#181818;stroke-width:0.5;" width="131" x="416" y="7"/><ellipse cx="431" cy="23" fill="#ADD1B2" rx="11" ry="11" style="stroke:#181818;stroke-width:1.0;"/><path d="M433.7656,18.875 Q433.9219,18.6563 434.1094,18.5469 Q434.2969,18.4375 434.5156,18.4375 Q434.8906,18.4375 435.125,18.7031 Q435.3594,18.9531 435.3594,19.5625 L435.3594,21.0156 Q435.3594,21.625 435.125,21.8906 Q434.8906,22.1563 434.5156,22.1563 Q434.1719,22.1563 433.9688,21.9531 Q433.7656,21.7656 433.6563,21.25 Q433.6094,20.8906 433.4219,20.7031 Q433.0938,20.3281 432.4844,20.1094 Q431.875,19.8906 431.25,19.8906 Q430.4844,19.8906 429.8438,20.2188 Q429.2188,20.5469 428.7188,21.2969 Q428.2344,22.0469 428.2344,23.0781 L428.2344,24.1719 Q428.2344,25.4063 429.125,26.2344 Q430.0156,27.0469 431.6094,27.0469 Q432.5469,27.0469 433.2031,26.7969 Q433.5938,26.6406 434.0156,26.2031 Q434.2813,25.9375 434.4219,25.8594 Q434.5781,25.7813 434.7813,25.7813 Q435.1094,25.7813 435.3594,26.0469 Q435.625,26.2969 435.625,26.6406 Q435.625,26.9844 435.2813,27.3906 Q434.7813,27.9688 433.9844,28.2969 Q432.9063,28.75 431.6094,28.75 Q430.0938,28.75 428.8906,28.125 Q427.9063,27.625 427.2188,26.5625 Q426.5313,25.4844 426.5313,24.2031 L426.5313,23.0469 Q426.5313,21.7188 427.1406,20.5781 Q427.7656,19.4219 428.8594,18.8125 Q429.9531,18.1875 431.1875,18.1875 Q431.9219,18.1875 432.5625,18.3594 Q433.2188,18.5156 433.7656,18.875 Z " fill="#000000"/><text fill="#000000" font-family="sans-serif" font-size="14" lengthAdjust="spacing" textLength="99" x="445" y="28.7285">MonoBehaviour</text><line style="stroke:#181818;stroke-width:0.5;" x1="417" x2="546" y1="39" y2="39"/><line style="stroke:#181818;stroke-width:0.5;" x1="417" x2="546" y1="47" y2="47"/></g><!--MD5=[ef6d4f2ec05ce2ec850061c2c1651a52]
class TMP_FontAsset--><g id="elem_TMP_FontAsset"><rect fill="#F1F1F1" height="48" id="TMP_FontAsset" rx="2.5" ry="2.5" style="stroke:#181818;stroke-width:0.5;" width="133" x="7" y="293"/><ellipse cx="22" cy="309" fill="#ADD1B2" rx="11" ry="11" style="stroke:#181818;stroke-width:1.0;"/><path d="M24.7656,304.875 Q24.9219,304.6563 25.1094,304.5469 Q25.2969,304.4375 25.5156,304.4375 Q25.8906,304.4375 26.125,304.7031 Q26.3594,304.9531 26.3594,305.5625 L26.3594,307.0156 Q26.3594,307.625 26.125,307.8906 Q25.8906,308.1563 25.5156,308.1563 Q25.1719,308.1563 24.9688,307.9531 Q24.7656,307.7656 24.6563,307.25 Q24.6094,306.8906 24.4219,306.7031 Q24.0938,306.3281 23.4844,306.1094 Q22.875,305.8906 22.25,305.8906 Q21.4844,305.8906 20.8438,306.2188 Q20.2188,306.5469 19.7188,307.2969 Q19.2344,308.0469 19.2344,309.0781 L19.2344,310.1719 Q19.2344,311.4063 20.125,312.2344 Q21.0156,313.0469 22.6094,313.0469 Q23.5469,313.0469 24.2031,312.7969 Q24.5938,312.6406 25.0156,312.2031 Q25.2813,311.9375 25.4219,311.8594 Q25.5781,311.7813 25.7813,311.7813 Q26.1094,311.7813 26.3594,312.0469 Q26.625,312.2969 26.625,312.6406 Q26.625,312.9844 26.2813,313.3906 Q25.7813,313.9688 24.9844,314.2969 Q23.9063,314.75 22.6094,314.75 Q21.0938,314.75 19.8906,314.125 Q18.9063,313.625 18.2188,312.5625 Q17.5313,311.4844 17.5313,310.2031 L17.5313,309.0469 Q17.5313,307.7188 18.1406,306.5781 Q18.7656,305.4219 19.8594,304.8125 Q20.9531,304.1875 22.1875,304.1875 Q22.9219,304.1875 23.5625,304.3594 Q24.2188,304.5156 24.7656,304.875 Z " fill="#000000"/><text fill="#000000" font-family="sans-serif" font-size="14" lengthAdjust="spacing" textLength="101" x="36" y="314.7285">TMP_FontAsset</text><line style="stroke:#181818;stroke-width:0.5;" x1="8" x2="139" y1="325" y2="325"/><line style="stroke:#181818;stroke-width:0.5;" x1="8" x2="139" y1="333" y2="333"/></g><!--MD5=[6a4b3e39d382a486f52eb45bc299d39c]
class Font--><g id="elem_Font"><rect fill="#F1F1F1" height="48" id="Font" rx="2.5" ry="2.5" style="stroke:#181818;stroke-width:0.5;" width="61" x="175" y="293"/><ellipse cx="190" cy="309" fill="#ADD1B2" rx="11" ry="11" style="stroke:#181818;stroke-width:1.0;"/><path d="M192.7656,304.875 Q192.9219,304.6563 193.1094,304.5469 Q193.2969,304.4375 193.5156,304.4375 Q193.8906,304.4375 194.125,304.7031 Q194.3594,304.9531 194.3594,305.5625 L194.3594,307.0156 Q194.3594,307.625 194.125,307.8906 Q193.8906,308.1563 193.5156,308.1563 Q193.1719,308.1563 192.9688,307.9531 Q192.7656,307.7656 192.6563,307.25 Q192.6094,306.8906 192.4219,306.7031 Q192.0938,306.3281 191.4844,306.1094 Q190.875,305.8906 190.25,305.8906 Q189.4844,305.8906 188.8438,306.2188 Q188.2188,306.5469 187.7188,307.2969 Q187.2344,308.0469 187.2344,309.0781 L187.2344,310.1719 Q187.2344,311.4063 188.125,312.2344 Q189.0156,313.0469 190.6094,313.0469 Q191.5469,313.0469 192.2031,312.7969 Q192.5938,312.6406 193.0156,312.2031 Q193.2813,311.9375 193.4219,311.8594 Q193.5781,311.7813 193.7813,311.7813 Q194.1094,311.7813 194.3594,312.0469 Q194.625,312.2969 194.625,312.6406 Q194.625,312.9844 194.2813,313.3906 Q193.7813,313.9688 192.9844,314.2969 Q191.9063,314.75 190.6094,314.75 Q189.0938,314.75 187.8906,314.125 Q186.9063,313.625 186.2188,312.5625 Q185.5313,311.4844 185.5313,310.2031 L185.5313,309.0469 Q185.5313,307.7188 186.1406,306.5781 Q186.7656,305.4219 187.8594,304.8125 Q188.9531,304.1875 190.1875,304.1875 Q190.9219,304.1875 191.5625,304.3594 Q192.2188,304.5156 192.7656,304.875 Z " fill="#000000"/><text fill="#000000" font-family="sans-serif" font-size="14" lengthAdjust="spacing" textLength="29" x="204" y="314.7285">Font</text><line style="stroke:#181818;stroke-width:0.5;" x1="176" x2="235" y1="325" y2="325"/><line style="stroke:#181818;stroke-width:0.5;" x1="176" x2="235" y1="333" y2="333"/></g><!--MD5=[02f215d6db5b7f34e36b05d8f35ff3a4]
class TextMeshPro--><g id="elem_TextMeshPro"><rect fill="#F1F1F1" height="48" id="TextMeshPro" rx="2.5" ry="2.5" style="stroke:#181818;stroke-width:0.5;" width="115" x="271" y="293"/><ellipse cx="286" cy="309" fill="#ADD1B2" rx="11" ry="11" style="stroke:#181818;stroke-width:1.0;"/><path d="M288.7656,304.875 Q288.9219,304.6563 289.1094,304.5469 Q289.2969,304.4375 289.5156,304.4375 Q289.8906,304.4375 290.125,304.7031 Q290.3594,304.9531 290.3594,305.5625 L290.3594,307.0156 Q290.3594,307.625 290.125,307.8906 Q289.8906,308.1563 289.5156,308.1563 Q289.1719,308.1563 288.9688,307.9531 Q288.7656,307.7656 288.6563,307.25 Q288.6094,306.8906 288.4219,306.7031 Q288.0938,306.3281 287.4844,306.1094 Q286.875,305.8906 286.25,305.8906 Q285.4844,305.8906 284.8438,306.2188 Q284.2188,306.5469 283.7188,307.2969 Q283.2344,308.0469 283.2344,309.0781 L283.2344,310.1719 Q283.2344,311.4063 284.125,312.2344 Q285.0156,313.0469 286.6094,313.0469 Q287.5469,313.0469 288.2031,312.7969 Q288.5938,312.6406 289.0156,312.2031 Q289.2813,311.9375 289.4219,311.8594 Q289.5781,311.7813 289.7813,311.7813 Q290.1094,311.7813 290.3594,312.0469 Q290.625,312.2969 290.625,312.6406 Q290.625,312.9844 290.2813,313.3906 Q289.7813,313.9688 288.9844,314.2969 Q287.9063,314.75 286.6094,314.75 Q285.0938,314.75 283.8906,314.125 Q282.9063,313.625 282.2188,312.5625 Q281.5313,311.4844 281.5313,310.2031 L281.5313,309.0469 Q281.5313,307.7188 282.1406,306.5781 Q282.7656,305.4219 283.8594,304.8125 Q284.9531,304.1875 286.1875,304.1875 Q286.9219,304.1875 287.5625,304.3594 Q288.2188,304.5156 288.7656,304.875 Z " fill="#000000"/><text fill="#000000" font-family="sans-serif" font-size="14" lengthAdjust="spacing" textLength="83" x="300" y="314.7285">TextMeshPro</text><line style="stroke:#181818;stroke-width:0.5;" x1="272" x2="385" y1="325" y2="325"/><line style="stroke:#181818;stroke-width:0.5;" x1="272" x2="385" y1="333" y2="333"/></g><!--MD5=[d4acbd218f82916d1bb8c24e96c6a20e]
class TextContainer--><g id="elem_TextContainer"><rect fill="#F1F1F1" height="48" id="TextContainer" rx="2.5" ry="2.5" style="stroke:#181818;stroke-width:0.5;" width="121" x="421" y="293"/><ellipse cx="436" cy="309" fill="#ADD1B2" rx="11" ry="11" style="stroke:#181818;stroke-width:1.0;"/><path d="M438.7656,304.875 Q438.9219,304.6563 439.1094,304.5469 Q439.2969,304.4375 439.5156,304.4375 Q439.8906,304.4375 440.125,304.7031 Q440.3594,304.9531 440.3594,305.5625 L440.3594,307.0156 Q440.3594,307.625 440.125,307.8906 Q439.8906,308.1563 439.5156,308.1563 Q439.1719,308.1563 438.9688,307.9531 Q438.7656,307.7656 438.6563,307.25 Q438.6094,306.8906 438.4219,306.7031 Q438.0938,306.3281 437.4844,306.1094 Q436.875,305.8906 436.25,305.8906 Q435.4844,305.8906 434.8438,306.2188 Q434.2188,306.5469 433.7188,307.2969 Q433.2344,308.0469 433.2344,309.0781 L433.2344,310.1719 Q433.2344,311.4063 434.125,312.2344 Q435.0156,313.0469 436.6094,313.0469 Q437.5469,313.0469 438.2031,312.7969 Q438.5938,312.6406 439.0156,312.2031 Q439.2813,311.9375 439.4219,311.8594 Q439.5781,311.7813 439.7813,311.7813 Q440.1094,311.7813 440.3594,312.0469 Q440.625,312.2969 440.625,312.6406 Q440.625,312.9844 440.2813,313.3906 Q439.7813,313.9688 438.9844,314.2969 Q437.9063,314.75 436.6094,314.75 Q435.0938,314.75 433.8906,314.125 Q432.9063,313.625 432.2188,312.5625 Q431.5313,311.4844 431.5313,310.2031 L431.5313,309.0469 Q431.5313,307.7188 432.1406,306.5781 Q432.7656,305.4219 433.8594,304.8125 Q434.9531,304.1875 436.1875,304.1875 Q436.9219,304.1875 437.5625,304.3594 Q438.2188,304.5156 438.7656,304.875 Z " fill="#000000"/><text fill="#000000" font-family="sans-serif" font-size="14" lengthAdjust="spacing" textLength="89" x="450" y="314.7285">TextContainer</text><line style="stroke:#181818;stroke-width:0.5;" x1="422" x2="541" y1="325" y2="325"/><line style="stroke:#181818;stroke-width:0.5;" x1="422" x2="541" y1="333" y2="333"/></g><!--MD5=[14678ec668e149196888790937adef64]
class TextMesh--><g id="elem_TextMesh"><rect fill="#F1F1F1" height="48" id="TextMesh" rx="2.5" ry="2.5" style="stroke:#181818;stroke-width:0.5;" width="93" x="577" y="293"/><ellipse cx="592" cy="309" fill="#ADD1B2" rx="11" ry="11" style="stroke:#181818;stroke-width:1.0;"/><path d="M594.7656,304.875 Q594.9219,304.6563 595.1094,304.5469 Q595.2969,304.4375 595.5156,304.4375 Q595.8906,304.4375 596.125,304.7031 Q596.3594,304.9531 596.3594,305.5625 L596.3594,307.0156 Q596.3594,307.625 596.125,307.8906 Q595.8906,308.1563 595.5156,308.1563 Q595.1719,308.1563 594.9688,307.9531 Q594.7656,307.7656 594.6563,307.25 Q594.6094,306.8906 594.4219,306.7031 Q594.0938,306.3281 593.4844,306.1094 Q592.875,305.8906 592.25,305.8906 Q591.4844,305.8906 590.8438,306.2188 Q590.2188,306.5469 589.7188,307.2969 Q589.2344,308.0469 589.2344,309.0781 L589.2344,310.1719 Q589.2344,311.4063 590.125,312.2344 Q591.0156,313.0469 592.6094,313.0469 Q593.5469,313.0469 594.2031,312.7969 Q594.5938,312.6406 595.0156,312.2031 Q595.2813,311.9375 595.4219,311.8594 Q595.5781,311.7813 595.7813,311.7813 Q596.1094,311.7813 596.3594,312.0469 Q596.625,312.2969 596.625,312.6406 Q596.625,312.9844 596.2813,313.3906 Q595.7813,313.9688 594.9844,314.2969 Q593.9063,314.75 592.6094,314.75 Q591.0938,314.75 589.8906,314.125 Q588.9063,313.625 588.2188,312.5625 Q587.5313,311.4844 587.5313,310.2031 L587.5313,309.0469 Q587.5313,307.7188 588.1406,306.5781 Q588.7656,305.4219 589.8594,304.8125 Q590.9531,304.1875 592.1875,304.1875 Q592.9219,304.1875 593.5625,304.3594 Q594.2188,304.5156 594.7656,304.875 Z " fill="#000000"/><text fill="#000000" font-family="sans-serif" font-size="14" lengthAdjust="spacing" textLength="61" x="606" y="314.7285">TextMesh</text><line style="stroke:#181818;stroke-width:0.5;" x1="578" x2="669" y1="325" y2="325"/><line style="stroke:#181818;stroke-width:0.5;" x1="578" x2="669" y1="333" y2="333"/></g><!--MD5=[90d32ccc189f11441a6ce7cbb63ad387]
class Material--><g id="elem_Material"><rect fill="#F1F1F1" height="48" id="Material" rx="2.5" ry="2.5" style="stroke:#181818;stroke-width:0.5;" width="82" x="705.5" y="293"/><ellipse cx="720.5" cy="309" fill="#ADD1B2" rx="11" ry="11" style="stroke:#181818;stroke-width:1.0;"/><path d="M723.2656,304.875 Q723.4219,304.6563 723.6094,304.5469 Q723.7969,304.4375 724.0156,304.4375 Q724.3906,304.4375 724.625,304.7031 Q724.8594,304.9531 724.8594,305.5625 L724.8594,307.0156 Q724.8594,307.625 724.625,307.8906 Q724.3906,308.1563 724.0156,308.1563 Q723.6719,308.1563 723.4688,307.9531 Q723.2656,307.7656 723.1563,307.25 Q723.1094,306.8906 722.9219,306.7031 Q722.5938,306.3281 721.9844,306.1094 Q721.375,305.8906 720.75,305.8906 Q719.9844,305.8906 719.3438,306.2188 Q718.7188,306.5469 718.2188,307.2969 Q717.7344,308.0469 717.7344,309.0781 L717.7344,310.1719 Q717.7344,311.4063 718.625,312.2344 Q719.5156,313.0469 721.1094,313.0469 Q722.0469,313.0469 722.7031,312.7969 Q723.0938,312.6406 723.5156,312.2031 Q723.7813,311.9375 723.9219,311.8594 Q724.0781,311.7813 724.2813,311.7813 Q724.6094,311.7813 724.8594,312.0469 Q725.125,312.2969 725.125,312.6406 Q725.125,312.9844 724.7813,313.3906 Q724.2813,313.9688 723.4844,314.2969 Q722.4063,314.75 721.1094,314.75 Q719.5938,314.75 718.3906,314.125 Q717.4063,313.625 716.7188,312.5625 Q716.0313,311.4844 716.0313,310.2031 L716.0313,309.0469 Q716.0313,307.7188 716.6406,306.5781 Q717.2656,305.4219 718.3594,304.8125 Q719.4531,304.1875 720.6875,304.1875 Q721.4219,304.1875 722.0625,304.3594 Q722.7188,304.5156 723.2656,304.875 Z " fill="#000000"/><text fill="#000000" font-family="sans-serif" font-size="14" lengthAdjust="spacing" textLength="50" x="734.5" y="314.7285">Material</text><line style="stroke:#181818;stroke-width:0.5;" x1="706.5" x2="786.5" y1="325" y2="325"/><line style="stroke:#181818;stroke-width:0.5;" x1="706.5" x2="786.5" y1="333" y2="333"/></g><!--MD5=[54940b2044721e62fe6687717ae7be87]
reverse link MonoBehaviour to Benchmark01--><g id="link_MonoBehaviour_Benchmark01"><path codeLine="7" d="M481.5,75.33 C481.5,87.86 481.5,101.73 481.5,114.99 " fill="none" id="MonoBehaviour-backto-Benchmark01" style="stroke:#181818;stroke-width:1.0;"/><polygon fill="none" points="474.5,75.28,481.5,55.28,488.5,75.28,474.5,75.28" style="stroke:#181818;stroke-width:1.0;"/></g><!--MD5=[72a736a5919c8d430e91afadaeac84c1]
link Benchmark01 to TMP_FontAsset--><g id="link_Benchmark01_TMP_FontAsset"><path codeLine="8" d="M313.49,233.06 C254.56,253.43 191.49,275.22 144.81,291.36 " fill="none" id="Benchmark01-to-TMP_FontAsset" style="stroke:#181818;stroke-width:1.0;"/><polygon fill="#181818" points="140.06,293,149.872,293.8512,144.7875,291.3718,147.2669,286.2873,140.06,293" style="stroke:#181818;stroke-width:1.0;"/><text fill="#000000" font-family="sans-serif" font-size="13" lengthAdjust="spacing" textLength="64" x="84.916" y="282.3402">TMProFont</text></g><!--MD5=[101c1f10a43821eafcd877ba09abb377]
link Benchmark01 to Font--><g id="link_Benchmark01_Font"><path codeLine="9" d="M367.65,233.16 C322.07,256.45 272.88,281.58 240.77,297.98 " fill="none" id="Benchmark01-to-Font" style="stroke:#181818;stroke-width:1.0;"/><polygon fill="#181818" points="236.16,300.34,245.995,299.8174,240.6149,298.0697,242.3626,292.6896,236.16,300.34" style="stroke:#181818;stroke-width:1.0;"/><text fill="#000000" font-family="sans-serif" font-size="13" lengthAdjust="spacing" textLength="83" x="223.1156" y="281.9156">TextMeshFont</text></g><!--MD5=[fa4613eab4678207057ab8afc231702c]
link Benchmark01 to TextMeshPro--><g id="link_Benchmark01_TextMeshPro"><path codeLine="10" d="M418.39,233.16 C397.26,252.63 374.74,273.39 357.52,289.26 " fill="none" id="Benchmark01-to-TextMeshPro" style="stroke:#181818;stroke-width:1.0;"/><polygon fill="#181818" points="353.71,292.77,363.0379,289.6092,357.3857,289.3804,357.6145,283.7282,353.71,292.77" style="stroke:#181818;stroke-width:1.0;"/><text fill="#000000" font-family="sans-serif" font-size="13" lengthAdjust="spacing" textLength="92" x="371.9576" y="282.0512">m_textMeshPro</text></g><!--MD5=[cc024e3e1e788096a7cfd9ce0b82d9f2]
link Benchmark01 to TextContainer--><g id="link_Benchmark01_TextContainer"><path codeLine="11" d="M481.5,233.16 C481.5,251.97 481.5,272 481.5,287.64 " fill="none" id="Benchmark01-to-TextContainer" style="stroke:#181818;stroke-width:1.0;"/><polygon fill="#181818" points="481.5,292.77,485.5,283.77,481.5,287.77,477.5,283.77,481.5,292.77" style="stroke:#181818;stroke-width:1.0;"/><text fill="#000000" font-family="sans-serif" font-size="13" lengthAdjust="spacing" textLength="95" x="493.6719" y="282.0512">m_textContainer</text></g><!--MD5=[957246c306f1faf69317568d3f91cc51]
link Benchmark01 to TextMesh--><g id="link_Benchmark01_TextMesh"><path codeLine="12" d="M540.08,233.16 C559.52,252.47 580.24,273.04 596.16,288.86 " fill="none" id="Benchmark01-to-TextMesh" style="stroke:#181818;stroke-width:1.0;"/><polygon fill="#181818" points="600.11,292.77,596.5373,283.592,596.5602,289.2488,590.9034,289.2717,600.11,292.77" style="stroke:#181818;stroke-width:1.0;"/><text fill="#000000" font-family="sans-serif" font-size="13" lengthAdjust="spacing" textLength="72" x="603.3413" y="282.0512">m_textMesh</text></g><!--MD5=[f853f5e46b6899b132be0fd79769c838]
link Benchmark01 to Material--><g id="link_Benchmark01_Material"><path codeLine="13" d="M578.24,233.16 C619.99,255.72 666.8,280.02 700.57,296.43 " fill="none" id="Benchmark01-to-Material" style="stroke:#181818;stroke-width:1.0;"/><polygon fill="#181818" points="705.45,298.79,699.102,291.2598,700.9525,296.6055,695.6068,298.4559,705.45,298.79" style="stroke:#181818;stroke-width:1.0;"/><text fill="#000000" font-family="sans-serif" font-size="13" lengthAdjust="spacing" textLength="78" x="704.3481" y="282.2917">m_material01</text></g><!--MD5=[f853f5e46b6899b132be0fd79769c838]
link Benchmark01 to Material--><g id="link_Benchmark01_Material"><path codeLine="14" d="M604.13,233.16 C642.22,253.11 681.39,274.42 709.12,290.42 " fill="none" id="Benchmark01-to-Material-1" style="stroke:#181818;stroke-width:1.0;"/><polygon fill="#181818" points="713.47,292.95,707.6884,284.9767,709.1438,290.4431,703.6774,291.8985,713.47,292.95" style="stroke:#181818;stroke-width:1.0;"/><text fill="#000000" font-family="sans-serif" font-size="13" lengthAdjust="spacing" textLength="78" x="648.2546" y="282.0897">m_material02</text></g><!--MD5=[4194052cffa2a3e8b5ea84ae52dbbf61]
@startuml
class Benchmark01 {
    + BenchmarkType : int = 0
    - <<const>> label01 : string = "The <#0050FF>count is: </color>{0&#125;"
    - <<const>> label02 : string = "The <color=#0050FF>count is: </color>"
    Start() : IEnumerator
}
MonoBehaviour <|- - Benchmark01
Benchmark01 - -> "TMProFont" TMP_FontAsset
Benchmark01 - -> "TextMeshFont" Font
Benchmark01 - -> "m_textMeshPro" TextMeshPro
Benchmark01 - -> "m_textContainer" TextContainer
Benchmark01 - -> "m_textMesh" TextMesh
Benchmark01 - -> "m_material01" Material
Benchmark01 - -> "m_material02" Material
@enduml

PlantUML version 1.2022.5(Sat Apr 30 12:55:52 CEST 2022)
(GPL source distribution)
Java Runtime: Java(TM) SE Runtime Environment
JVM: Java HotSpot(TM) 64-Bit Server VM
Default Encoding: UTF-8
Language: en
Country: GB
--></g></svg>