<?xml version="1.0" encoding="UTF-8" standalone="no"?><svg xmlns="http://www.w3.org/2000/svg" xmlns:xlink="http://www.w3.org/1999/xlink" contentStyleType="text/css" height="331px" preserveAspectRatio="none" style="width:399px;height:331px;background:#FFFFFF;" version="1.1" viewBox="0 0 399 331" width="399px" zoomAndPan="magnify"><defs/><g><!--MD5=[d882df5981bf0da50176e76fa31f5fea]
class ChatController--><g id="elem_ChatController"><rect codeLine="1" fill="#F1F1F1" height="100.8281" id="ChatController" rx="2.5" ry="2.5" style="stroke:#181818;stroke-width:0.5;" width="266" x="88.5" y="115"/><ellipse cx="171.25" cy="131" fill="#ADD1B2" rx="11" ry="11" style="stroke:#181818;stroke-width:1.0;"/><path d="M174.0156,126.875 Q174.1719,126.6563 174.3594,126.5469 Q174.5469,126.4375 174.7656,126.4375 Q175.1406,126.4375 175.375,126.7031 Q175.6094,126.9531 175.6094,127.5625 L175.6094,129.0156 Q175.6094,129.625 175.375,129.8906 Q175.1406,130.1563 174.7656,130.1563 Q174.4219,130.1563 174.2188,129.9531 Q174.0156,129.7656 173.9063,129.25 Q173.8594,128.8906 173.6719,128.7031 Q173.3438,128.3281 172.7344,128.1094 Q172.125,127.8906 171.5,127.8906 Q170.7344,127.8906 170.0938,128.2188 Q169.4688,128.5469 168.9688,129.2969 Q168.4844,130.0469 168.4844,131.0781 L168.4844,132.1719 Q168.4844,133.4063 169.375,134.2344 Q170.2656,135.0469 171.8594,135.0469 Q172.7969,135.0469 173.4531,134.7969 Q173.8438,134.6406 174.2656,134.2031 Q174.5313,133.9375 174.6719,133.8594 Q174.8281,133.7813 175.0313,133.7813 Q175.3594,133.7813 175.6094,134.0469 Q175.875,134.2969 175.875,134.6406 Q175.875,134.9844 175.5313,135.3906 Q175.0313,135.9688 174.2344,136.2969 Q173.1563,136.75 171.8594,136.75 Q170.3438,136.75 169.1406,136.125 Q168.1563,135.625 167.4688,134.5625 Q166.7813,133.4844 166.7813,132.2031 L166.7813,131.0469 Q166.7813,129.7188 167.3906,128.5781 Q168.0156,127.4219 169.1094,126.8125 Q170.2031,126.1875 171.4375,126.1875 Q172.1719,126.1875 172.8125,126.3594 Q173.4688,126.5156 174.0156,126.875 Z " fill="#000000"/><text fill="#000000" font-family="sans-serif" font-size="14" lengthAdjust="spacing" textLength="92" x="191.75" y="136.7285">ChatController</text><line style="stroke:#181818;stroke-width:0.5;" x1="89.5" x2="353.5" y1="147" y2="147"/><line style="stroke:#181818;stroke-width:0.5;" x1="89.5" x2="353.5" y1="155" y2="155"/><text fill="#000000" font-family="sans-serif" font-size="14" lengthAdjust="spacing" textLength="111" x="94.5" y="173.5332">OnEnable() : void</text><text fill="#000000" font-family="sans-serif" font-size="14" lengthAdjust="spacing" textLength="114" x="94.5" y="191.1426">OnDisable() : void</text><text fill="#000000" font-family="sans-serif" font-size="14" lengthAdjust="spacing" textLength="254" x="94.5" y="208.752">AddToChatOutput(newText:string) : void</text></g><!--MD5=[83b3cf3d23d77c6f1e1b5291a241bc2a]
class MonoBehaviour--><g id="elem_MonoBehaviour"><rect fill="#F1F1F1" height="48" id="MonoBehaviour" rx="2.5" ry="2.5" style="stroke:#181818;stroke-width:0.5;" width="131" x="156" y="7"/><ellipse cx="171" cy="23" fill="#ADD1B2" rx="11" ry="11" style="stroke:#181818;stroke-width:1.0;"/><path d="M173.7656,18.875 Q173.9219,18.6563 174.1094,18.5469 Q174.2969,18.4375 174.5156,18.4375 Q174.8906,18.4375 175.125,18.7031 Q175.3594,18.9531 175.3594,19.5625 L175.3594,21.0156 Q175.3594,21.625 175.125,21.8906 Q174.8906,22.1563 174.5156,22.1563 Q174.1719,22.1563 173.9688,21.9531 Q173.7656,21.7656 173.6563,21.25 Q173.6094,20.8906 173.4219,20.7031 Q173.0938,20.3281 172.4844,20.1094 Q171.875,19.8906 171.25,19.8906 Q170.4844,19.8906 169.8438,20.2188 Q169.2188,20.5469 168.7188,21.2969 Q168.2344,22.0469 168.2344,23.0781 L168.2344,24.1719 Q168.2344,25.4063 169.125,26.2344 Q170.0156,27.0469 171.6094,27.0469 Q172.5469,27.0469 173.2031,26.7969 Q173.5938,26.6406 174.0156,26.2031 Q174.2813,25.9375 174.4219,25.8594 Q174.5781,25.7813 174.7813,25.7813 Q175.1094,25.7813 175.3594,26.0469 Q175.625,26.2969 175.625,26.6406 Q175.625,26.9844 175.2813,27.3906 Q174.7813,27.9688 173.9844,28.2969 Q172.9063,28.75 171.6094,28.75 Q170.0938,28.75 168.8906,28.125 Q167.9063,27.625 167.2188,26.5625 Q166.5313,25.4844 166.5313,24.2031 L166.5313,23.0469 Q166.5313,21.7188 167.1406,20.5781 Q167.7656,19.4219 168.8594,18.8125 Q169.9531,18.1875 171.1875,18.1875 Q171.9219,18.1875 172.5625,18.3594 Q173.2188,18.5156 173.7656,18.875 Z " fill="#000000"/><text fill="#000000" font-family="sans-serif" font-size="14" lengthAdjust="spacing" textLength="99" x="185" y="28.7285">MonoBehaviour</text><line style="stroke:#181818;stroke-width:0.5;" x1="157" x2="286" y1="39" y2="39"/><line style="stroke:#181818;stroke-width:0.5;" x1="157" x2="286" y1="47" y2="47"/></g><!--MD5=[c05919f88dab9d999cd7bd146db477c0]
class TMP_InputField--><g id="elem_TMP_InputField"><rect fill="#F1F1F1" height="48" id="TMP_InputField" rx="2.5" ry="2.5" style="stroke:#181818;stroke-width:0.5;" width="131" x="7" y="276"/><ellipse cx="22" cy="292" fill="#ADD1B2" rx="11" ry="11" style="stroke:#181818;stroke-width:1.0;"/><path d="M24.7656,287.875 Q24.9219,287.6563 25.1094,287.5469 Q25.2969,287.4375 25.5156,287.4375 Q25.8906,287.4375 26.125,287.7031 Q26.3594,287.9531 26.3594,288.5625 L26.3594,290.0156 Q26.3594,290.625 26.125,290.8906 Q25.8906,291.1563 25.5156,291.1563 Q25.1719,291.1563 24.9688,290.9531 Q24.7656,290.7656 24.6563,290.25 Q24.6094,289.8906 24.4219,289.7031 Q24.0938,289.3281 23.4844,289.1094 Q22.875,288.8906 22.25,288.8906 Q21.4844,288.8906 20.8438,289.2188 Q20.2188,289.5469 19.7188,290.2969 Q19.2344,291.0469 19.2344,292.0781 L19.2344,293.1719 Q19.2344,294.4063 20.125,295.2344 Q21.0156,296.0469 22.6094,296.0469 Q23.5469,296.0469 24.2031,295.7969 Q24.5938,295.6406 25.0156,295.2031 Q25.2813,294.9375 25.4219,294.8594 Q25.5781,294.7813 25.7813,294.7813 Q26.1094,294.7813 26.3594,295.0469 Q26.625,295.2969 26.625,295.6406 Q26.625,295.9844 26.2813,296.3906 Q25.7813,296.9688 24.9844,297.2969 Q23.9063,297.75 22.6094,297.75 Q21.0938,297.75 19.8906,297.125 Q18.9063,296.625 18.2188,295.5625 Q17.5313,294.4844 17.5313,293.2031 L17.5313,292.0469 Q17.5313,290.7188 18.1406,289.5781 Q18.7656,288.4219 19.8594,287.8125 Q20.9531,287.1875 22.1875,287.1875 Q22.9219,287.1875 23.5625,287.3594 Q24.2188,287.5156 24.7656,287.875 Z " fill="#000000"/><text fill="#000000" font-family="sans-serif" font-size="14" lengthAdjust="spacing" textLength="99" x="36" y="297.7285">TMP_InputField</text><line style="stroke:#181818;stroke-width:0.5;" x1="8" x2="137" y1="308" y2="308"/><line style="stroke:#181818;stroke-width:0.5;" x1="8" x2="137" y1="316" y2="316"/></g><!--MD5=[fa07864ef55e7d1943fa981e1ee9b4e7]
class TMP_Text--><g id="elem_TMP_Text"><rect fill="#F1F1F1" height="48" id="TMP_Text" rx="2.5" ry="2.5" style="stroke:#181818;stroke-width:0.5;" width="96" x="173.5" y="276"/><ellipse cx="188.5" cy="292" fill="#ADD1B2" rx="11" ry="11" style="stroke:#181818;stroke-width:1.0;"/><path d="M191.2656,287.875 Q191.4219,287.6563 191.6094,287.5469 Q191.7969,287.4375 192.0156,287.4375 Q192.3906,287.4375 192.625,287.7031 Q192.8594,287.9531 192.8594,288.5625 L192.8594,290.0156 Q192.8594,290.625 192.625,290.8906 Q192.3906,291.1563 192.0156,291.1563 Q191.6719,291.1563 191.4688,290.9531 Q191.2656,290.7656 191.1563,290.25 Q191.1094,289.8906 190.9219,289.7031 Q190.5938,289.3281 189.9844,289.1094 Q189.375,288.8906 188.75,288.8906 Q187.9844,288.8906 187.3438,289.2188 Q186.7188,289.5469 186.2188,290.2969 Q185.7344,291.0469 185.7344,292.0781 L185.7344,293.1719 Q185.7344,294.4063 186.625,295.2344 Q187.5156,296.0469 189.1094,296.0469 Q190.0469,296.0469 190.7031,295.7969 Q191.0938,295.6406 191.5156,295.2031 Q191.7813,294.9375 191.9219,294.8594 Q192.0781,294.7813 192.2813,294.7813 Q192.6094,294.7813 192.8594,295.0469 Q193.125,295.2969 193.125,295.6406 Q193.125,295.9844 192.7813,296.3906 Q192.2813,296.9688 191.4844,297.2969 Q190.4063,297.75 189.1094,297.75 Q187.5938,297.75 186.3906,297.125 Q185.4063,296.625 184.7188,295.5625 Q184.0313,294.4844 184.0313,293.2031 L184.0313,292.0469 Q184.0313,290.7188 184.6406,289.5781 Q185.2656,288.4219 186.3594,287.8125 Q187.4531,287.1875 188.6875,287.1875 Q189.4219,287.1875 190.0625,287.3594 Q190.7188,287.5156 191.2656,287.875 Z " fill="#000000"/><text fill="#000000" font-family="sans-serif" font-size="14" lengthAdjust="spacing" textLength="64" x="202.5" y="297.7285">TMP_Text</text><line style="stroke:#181818;stroke-width:0.5;" x1="174.5" x2="268.5" y1="308" y2="308"/><line style="stroke:#181818;stroke-width:0.5;" x1="174.5" x2="268.5" y1="316" y2="316"/></g><!--MD5=[a146fe25467a217a1bc412e5f2dfcd1c]
class Scrollbar--><g id="elem_Scrollbar"><rect fill="#F1F1F1" height="48" id="Scrollbar" rx="2.5" ry="2.5" style="stroke:#181818;stroke-width:0.5;" width="88" x="304.5" y="276"/><ellipse cx="319.5" cy="292" fill="#ADD1B2" rx="11" ry="11" style="stroke:#181818;stroke-width:1.0;"/><path d="M322.2656,287.875 Q322.4219,287.6563 322.6094,287.5469 Q322.7969,287.4375 323.0156,287.4375 Q323.3906,287.4375 323.625,287.7031 Q323.8594,287.9531 323.8594,288.5625 L323.8594,290.0156 Q323.8594,290.625 323.625,290.8906 Q323.3906,291.1563 323.0156,291.1563 Q322.6719,291.1563 322.4688,290.9531 Q322.2656,290.7656 322.1563,290.25 Q322.1094,289.8906 321.9219,289.7031 Q321.5938,289.3281 320.9844,289.1094 Q320.375,288.8906 319.75,288.8906 Q318.9844,288.8906 318.3438,289.2188 Q317.7188,289.5469 317.2188,290.2969 Q316.7344,291.0469 316.7344,292.0781 L316.7344,293.1719 Q316.7344,294.4063 317.625,295.2344 Q318.5156,296.0469 320.1094,296.0469 Q321.0469,296.0469 321.7031,295.7969 Q322.0938,295.6406 322.5156,295.2031 Q322.7813,294.9375 322.9219,294.8594 Q323.0781,294.7813 323.2813,294.7813 Q323.6094,294.7813 323.8594,295.0469 Q324.125,295.2969 324.125,295.6406 Q324.125,295.9844 323.7813,296.3906 Q323.2813,296.9688 322.4844,297.2969 Q321.4063,297.75 320.1094,297.75 Q318.5938,297.75 317.3906,297.125 Q316.4063,296.625 315.7188,295.5625 Q315.0313,294.4844 315.0313,293.2031 L315.0313,292.0469 Q315.0313,290.7188 315.6406,289.5781 Q316.2656,288.4219 317.3594,287.8125 Q318.4531,287.1875 319.6875,287.1875 Q320.4219,287.1875 321.0625,287.3594 Q321.7188,287.5156 322.2656,287.875 Z " fill="#000000"/><text fill="#000000" font-family="sans-serif" font-size="14" lengthAdjust="spacing" textLength="56" x="333.5" y="297.7285">Scrollbar</text><line style="stroke:#181818;stroke-width:0.5;" x1="305.5" x2="391.5" y1="308" y2="308"/><line style="stroke:#181818;stroke-width:0.5;" x1="305.5" x2="391.5" y1="316" y2="316"/></g><!--MD5=[104ca52b3ee86867fa873b2f50813b18]
reverse link MonoBehaviour to ChatController--><g id="link_MonoBehaviour_ChatController"><path codeLine="6" d="M221.5,75.34 C221.5,87.95 221.5,101.82 221.5,114.8 " fill="none" id="MonoBehaviour-backto-ChatController" style="stroke:#181818;stroke-width:1.0;"/><polygon fill="none" points="214.5,75.08,221.5,55.08,228.5,75.08,214.5,75.08" style="stroke:#181818;stroke-width:1.0;"/></g><!--MD5=[361b22a960edbd08f2eef4ff8f696d71]
link ChatController to TMP_InputField--><g id="link_ChatController_TMP_InputField"><path codeLine="7" d="M165.59,216.22 C144.25,235.19 120.73,256.11 102.68,272.17 " fill="none" id="ChatController-to-TMP_InputField" style="stroke:#181818;stroke-width:1.0;"/><polygon fill="#181818" points="98.68,275.72,108.0634,272.7281,102.4163,272.3973,102.7471,266.7501,98.68,275.72" style="stroke:#181818;stroke-width:1.0;"/><text fill="#000000" font-family="sans-serif" font-size="13" lengthAdjust="spacing" textLength="83" x="11.7542" y="264.9884">ChatInputField</text></g><!--MD5=[35458ffccb92bc603b2df79754a42144]
link ChatController to TMP_Text--><g id="link_ChatController_TMP_Text"><path codeLine="8" d="M221.5,216.22 C221.5,234.56 221.5,254.7 221.5,270.53 " fill="none" id="ChatController-to-TMP_Text" style="stroke:#181818;stroke-width:1.0;"/><polygon fill="#181818" points="221.5,275.72,225.5,266.72,221.5,270.72,217.5,266.72,221.5,275.72" style="stroke:#181818;stroke-width:1.0;"/><text fill="#000000" font-family="sans-serif" font-size="13" lengthAdjust="spacing" textLength="109" x="136.7156" y="264.9884">ChatDisplayOutput</text></g><!--MD5=[5875a2ed3fde86ff0f7de995ca424ed2]
link ChatController to Scrollbar--><g id="link_ChatController_Scrollbar"><path codeLine="9" d="M269.15,216.22 C287.19,235.03 307.05,255.76 322.39,271.76 " fill="none" id="ChatController-to-Scrollbar" style="stroke:#181818;stroke-width:1.0;"/><polygon fill="#181818" points="326.19,275.72,322.8412,266.4579,322.7267,272.1136,317.071,271.9991,326.19,275.72" style="stroke:#181818;stroke-width:1.0;"/><text fill="#000000" font-family="sans-serif" font-size="13" lengthAdjust="spacing" textLength="78" x="265.0231" y="264.9884">ChatScrollbar</text></g><!--MD5=[213f6870eb482187b4a772ca4e665085]
@startuml
class ChatController {
    OnEnable() : void
    OnDisable() : void
    AddToChatOutput(newText:string) : void
}
MonoBehaviour <|- - ChatController
ChatController - -> "ChatInputField" TMP_InputField
ChatController - -> "ChatDisplayOutput" TMP_Text
ChatController - -> "ChatScrollbar" Scrollbar
@enduml

PlantUML version 1.2022.5(Sat Apr 30 12:55:52 CEST 2022)
(GPL source distribution)
Java Runtime: Java(TM) SE Runtime Environment
JVM: Java HotSpot(TM) 64-Bit Server VM
Default Encoding: UTF-8
Language: en
Country: GB
--></g></svg>