<?xml version="1.0" encoding="UTF-8" standalone="no"?><svg xmlns="http://www.w3.org/2000/svg" xmlns:xlink="http://www.w3.org/1999/xlink" contentStyleType="text/css" height="222px" preserveAspectRatio="none" style="width:202px;height:222px;background:#FFFFFF;" version="1.1" viewBox="0 0 202 222" width="202px" zoomAndPan="magnify"><defs/><g><!--MD5=[16e0fced65b158e9729d00f153cd2dea]
class SceneDirector--><g id="elem_SceneDirector"><rect codeLine="1" fill="#F1F1F1" height="100.8281" id="SceneDirector" rx="2.5" ry="2.5" style="stroke:#181818;stroke-width:0.5;" width="188" x="7" y="115"/><ellipse cx="51.75" cy="131" fill="#ADD1B2" rx="11" ry="11" style="stroke:#181818;stroke-width:1.0;"/><path d="M54.5156,126.875 Q54.6719,126.6563 54.8594,126.5469 Q55.0469,126.4375 55.2656,126.4375 Q55.6406,126.4375 55.875,126.7031 Q56.1094,126.9531 56.1094,127.5625 L56.1094,129.0156 Q56.1094,129.625 55.875,129.8906 Q55.6406,130.1563 55.2656,130.1563 Q54.9219,130.1563 54.7188,129.9531 Q54.5156,129.7656 54.4063,129.25 Q54.3594,128.8906 54.1719,128.7031 Q53.8438,128.3281 53.2344,128.1094 Q52.625,127.8906 52,127.8906 Q51.2344,127.8906 50.5938,128.2188 Q49.9688,128.5469 49.4688,129.2969 Q48.9844,130.0469 48.9844,131.0781 L48.9844,132.1719 Q48.9844,133.4063 49.875,134.2344 Q50.7656,135.0469 52.3594,135.0469 Q53.2969,135.0469 53.9531,134.7969 Q54.3438,134.6406 54.7656,134.2031 Q55.0313,133.9375 55.1719,133.8594 Q55.3281,133.7813 55.5313,133.7813 Q55.8594,133.7813 56.1094,134.0469 Q56.375,134.2969 56.375,134.6406 Q56.375,134.9844 56.0313,135.3906 Q55.5313,135.9688 54.7344,136.2969 Q53.6563,136.75 52.3594,136.75 Q50.8438,136.75 49.6406,136.125 Q48.6563,135.625 47.9688,134.5625 Q47.2813,133.4844 47.2813,132.2031 L47.2813,131.0469 Q47.2813,129.7188 47.8906,128.5781 Q48.5156,127.4219 49.6094,126.8125 Q50.7031,126.1875 51.9375,126.1875 Q52.6719,126.1875 53.3125,126.3594 Q53.9688,126.5156 54.5156,126.875 Z " fill="#000000"/><text fill="#000000" font-family="sans-serif" font-size="14" lengthAdjust="spacing" textLength="90" x="72.25" y="136.7285">SceneDirector</text><line style="stroke:#181818;stroke-width:0.5;" x1="8" x2="194" y1="147" y2="147"/><line style="stroke:#181818;stroke-width:0.5;" x1="8" x2="194" y1="155" y2="155"/><rect fill="#F24D5C" height="6" style="stroke:#C82930;stroke-width:1.0;" width="6" x="15" y="163"/><text fill="#000000" font-family="sans-serif" font-size="14" lengthAdjust="spacing" textLength="78" x="27" y="173.5332">Start() : void</text><text fill="#000000" font-family="sans-serif" font-size="14" lengthAdjust="spacing" textLength="93" x="27" y="191.1426">Update() : void</text><rect fill="#F24D5C" height="6" style="stroke:#C82930;stroke-width:1.0;" width="6" x="15" y="198.2188"/><text fill="#000000" font-family="sans-serif" font-size="14" lengthAdjust="spacing" textLength="162" x="27" y="208.752">OnApplicationQuit() : void</text></g><!--MD5=[83b3cf3d23d77c6f1e1b5291a241bc2a]
class MonoBehaviour--><g id="elem_MonoBehaviour"><rect fill="#F1F1F1" height="48" id="MonoBehaviour" rx="2.5" ry="2.5" style="stroke:#181818;stroke-width:0.5;" width="131" x="35.5" y="7"/><ellipse cx="50.5" cy="23" fill="#ADD1B2" rx="11" ry="11" style="stroke:#181818;stroke-width:1.0;"/><path d="M53.2656,18.875 Q53.4219,18.6563 53.6094,18.5469 Q53.7969,18.4375 54.0156,18.4375 Q54.3906,18.4375 54.625,18.7031 Q54.8594,18.9531 54.8594,19.5625 L54.8594,21.0156 Q54.8594,21.625 54.625,21.8906 Q54.3906,22.1563 54.0156,22.1563 Q53.6719,22.1563 53.4688,21.9531 Q53.2656,21.7656 53.1563,21.25 Q53.1094,20.8906 52.9219,20.7031 Q52.5938,20.3281 51.9844,20.1094 Q51.375,19.8906 50.75,19.8906 Q49.9844,19.8906 49.3438,20.2188 Q48.7188,20.5469 48.2188,21.2969 Q47.7344,22.0469 47.7344,23.0781 L47.7344,24.1719 Q47.7344,25.4063 48.625,26.2344 Q49.5156,27.0469 51.1094,27.0469 Q52.0469,27.0469 52.7031,26.7969 Q53.0938,26.6406 53.5156,26.2031 Q53.7813,25.9375 53.9219,25.8594 Q54.0781,25.7813 54.2813,25.7813 Q54.6094,25.7813 54.8594,26.0469 Q55.125,26.2969 55.125,26.6406 Q55.125,26.9844 54.7813,27.3906 Q54.2813,27.9688 53.4844,28.2969 Q52.4063,28.75 51.1094,28.75 Q49.5938,28.75 48.3906,28.125 Q47.4063,27.625 46.7188,26.5625 Q46.0313,25.4844 46.0313,24.2031 L46.0313,23.0469 Q46.0313,21.7188 46.6406,20.5781 Q47.2656,19.4219 48.3594,18.8125 Q49.4531,18.1875 50.6875,18.1875 Q51.4219,18.1875 52.0625,18.3594 Q52.7188,18.5156 53.2656,18.875 Z " fill="#000000"/><text fill="#000000" font-family="sans-serif" font-size="14" lengthAdjust="spacing" textLength="99" x="64.5" y="28.7285">MonoBehaviour</text><line style="stroke:#181818;stroke-width:0.5;" x1="36.5" x2="165.5" y1="39" y2="39"/><line style="stroke:#181818;stroke-width:0.5;" x1="36.5" x2="165.5" y1="47" y2="47"/></g><!--MD5=[640477d1289dc2644fa3ee7c50e3050c]
reverse link MonoBehaviour to SceneDirector--><g id="link_MonoBehaviour_SceneDirector"><path codeLine="6" d="M101,75.34 C101,87.95 101,101.82 101,114.8 " fill="none" id="MonoBehaviour-backto-SceneDirector" style="stroke:#181818;stroke-width:1.0;"/><polygon fill="none" points="94,75.08,101,55.08,108,75.08,94,75.08" style="stroke:#181818;stroke-width:1.0;"/></g><!--MD5=[94e93b98947780d13ca1b7a62032a3bd]
@startuml
class SceneDirector {
    - Start() : void
    Update() : void
    - OnApplicationQuit() : void
}
MonoBehaviour <|- - SceneDirector
@enduml

PlantUML version 1.2022.5(Sat Apr 30 12:55:52 CEST 2022)
(GPL source distribution)
Java Runtime: Java(TM) SE Runtime Environment
JVM: Java HotSpot(TM) 64-Bit Server VM
Default Encoding: UTF-8
Language: en
Country: GB
--></g></svg>