<?xml version="1.0" encoding="UTF-8" standalone="no"?><svg xmlns="http://www.w3.org/2000/svg" xmlns:xlink="http://www.w3.org/1999/xlink" contentStyleType="text/css" height="348px" preserveAspectRatio="none" style="width:240px;height:348px;background:#FFFFFF;" version="1.1" viewBox="0 0 240 348" width="240px" zoomAndPan="magnify"><defs/><g><!--MD5=[eb88b4231a3010099758cdaec070f095]
class Benchmark02--><g id="elem_Benchmark02"><rect codeLine="1" fill="#F1F1F1" height="118.4375" id="Benchmark02" rx="2.5" ry="2.5" style="stroke:#181818;stroke-width:0.5;" width="213" x="20.2094" y="115"/><ellipse cx="78.9594" cy="131" fill="#ADD1B2" rx="11" ry="11" style="stroke:#181818;stroke-width:1.0;"/><path d="M81.725,126.875 Q81.8813,126.6563 82.0688,126.5469 Q82.2563,126.4375 82.475,126.4375 Q82.85,126.4375 83.0844,126.7031 Q83.3188,126.9531 83.3188,127.5625 L83.3188,129.0156 Q83.3188,129.625 83.0844,129.8906 Q82.85,130.1563 82.475,130.1563 Q82.1313,130.1563 81.9281,129.9531 Q81.725,129.7656 81.6156,129.25 Q81.5688,128.8906 81.3813,128.7031 Q81.0531,128.3281 80.4438,128.1094 Q79.8344,127.8906 79.2094,127.8906 Q78.4438,127.8906 77.8031,128.2188 Q77.1781,128.5469 76.6781,129.2969 Q76.1938,130.0469 76.1938,131.0781 L76.1938,132.1719 Q76.1938,133.4063 77.0844,134.2344 Q77.975,135.0469 79.5688,135.0469 Q80.5063,135.0469 81.1625,134.7969 Q81.5531,134.6406 81.975,134.2031 Q82.2406,133.9375 82.3813,133.8594 Q82.5375,133.7813 82.7406,133.7813 Q83.0688,133.7813 83.3188,134.0469 Q83.5844,134.2969 83.5844,134.6406 Q83.5844,134.9844 83.2406,135.3906 Q82.7406,135.9688 81.9438,136.2969 Q80.8656,136.75 79.5688,136.75 Q78.0531,136.75 76.85,136.125 Q75.8656,135.625 75.1781,134.5625 Q74.4906,133.4844 74.4906,132.2031 L74.4906,131.0469 Q74.4906,129.7188 75.1,128.5781 Q75.725,127.4219 76.8188,126.8125 Q77.9125,126.1875 79.1469,126.1875 Q79.8813,126.1875 80.5219,126.3594 Q81.1781,126.5156 81.725,126.875 Z " fill="#000000"/><text fill="#000000" font-family="sans-serif" font-size="14" lengthAdjust="spacing" textLength="87" x="99.4594" y="136.7285">Benchmark02</text><line style="stroke:#181818;stroke-width:0.5;" x1="21.2094" x2="232.2094" y1="147" y2="147"/><ellipse cx="31.2094" cy="158" fill="none" rx="3" ry="3" style="stroke:#038048;stroke-width:1.0;"/><text fill="#000000" font-family="sans-serif" font-size="14" lengthAdjust="spacing" textLength="125" x="40.2094" y="165.5332">SpawnType : int = 0</text><ellipse cx="31.2094" cy="175.6094" fill="none" rx="3" ry="3" style="stroke:#038048;stroke-width:1.0;"/><text fill="#000000" font-family="sans-serif" font-size="14" lengthAdjust="spacing" textLength="151" x="40.2094" y="183.1426">NumberOfNPC : int = 12</text><ellipse cx="31.2094" cy="193.2188" fill="none" rx="3" ry="3" style="stroke:#038048;stroke-width:1.0;"/><text fill="#000000" font-family="sans-serif" font-size="14" lengthAdjust="spacing" textLength="187" x="40.2094" y="200.752">IsTextObjectScaleStatic : bool</text><line style="stroke:#181818;stroke-width:0.5;" x1="21.2094" x2="232.2094" y1="207.8281" y2="207.8281"/><text fill="#000000" font-family="sans-serif" font-size="14" lengthAdjust="spacing" textLength="78" x="26.2094" y="226.3613">Start() : void</text></g><!--MD5=[83b3cf3d23d77c6f1e1b5291a241bc2a]
class MonoBehaviour--><g id="elem_MonoBehaviour"><rect fill="#F1F1F1" height="48" id="MonoBehaviour" rx="2.5" ry="2.5" style="stroke:#181818;stroke-width:0.5;" width="131" x="61.2094" y="7"/><ellipse cx="76.2094" cy="23" fill="#ADD1B2" rx="11" ry="11" style="stroke:#181818;stroke-width:1.0;"/><path d="M78.975,18.875 Q79.1313,18.6563 79.3188,18.5469 Q79.5063,18.4375 79.725,18.4375 Q80.1,18.4375 80.3344,18.7031 Q80.5688,18.9531 80.5688,19.5625 L80.5688,21.0156 Q80.5688,21.625 80.3344,21.8906 Q80.1,22.1563 79.725,22.1563 Q79.3813,22.1563 79.1781,21.9531 Q78.975,21.7656 78.8656,21.25 Q78.8188,20.8906 78.6313,20.7031 Q78.3031,20.3281 77.6938,20.1094 Q77.0844,19.8906 76.4594,19.8906 Q75.6938,19.8906 75.0531,20.2188 Q74.4281,20.5469 73.9281,21.2969 Q73.4438,22.0469 73.4438,23.0781 L73.4438,24.1719 Q73.4438,25.4063 74.3344,26.2344 Q75.225,27.0469 76.8188,27.0469 Q77.7563,27.0469 78.4125,26.7969 Q78.8031,26.6406 79.225,26.2031 Q79.4906,25.9375 79.6313,25.8594 Q79.7875,25.7813 79.9906,25.7813 Q80.3188,25.7813 80.5688,26.0469 Q80.8344,26.2969 80.8344,26.6406 Q80.8344,26.9844 80.4906,27.3906 Q79.9906,27.9688 79.1938,28.2969 Q78.1156,28.75 76.8188,28.75 Q75.3031,28.75 74.1,28.125 Q73.1156,27.625 72.4281,26.5625 Q71.7406,25.4844 71.7406,24.2031 L71.7406,23.0469 Q71.7406,21.7188 72.35,20.5781 Q72.975,19.4219 74.0688,18.8125 Q75.1625,18.1875 76.3969,18.1875 Q77.1313,18.1875 77.7719,18.3594 Q78.4281,18.5156 78.975,18.875 Z " fill="#000000"/><text fill="#000000" font-family="sans-serif" font-size="14" lengthAdjust="spacing" textLength="99" x="90.2094" y="28.7285">MonoBehaviour</text><line style="stroke:#181818;stroke-width:0.5;" x1="62.2094" x2="191.2094" y1="39" y2="39"/><line style="stroke:#181818;stroke-width:0.5;" x1="62.2094" x2="191.2094" y1="47" y2="47"/></g><!--MD5=[7c53773ceccb88a8381275beba1efaca]
class TextMeshProFloatingText--><g id="elem_TextMeshProFloatingText"><rect fill="#F1F1F1" height="48" id="TextMeshProFloatingText" rx="2.5" ry="2.5" style="stroke:#181818;stroke-width:0.5;" width="193" x="30.2094" y="293"/><ellipse cx="45.2094" cy="309" fill="#ADD1B2" rx="11" ry="11" style="stroke:#181818;stroke-width:1.0;"/><path d="M47.975,304.875 Q48.1313,304.6563 48.3188,304.5469 Q48.5063,304.4375 48.725,304.4375 Q49.1,304.4375 49.3344,304.7031 Q49.5688,304.9531 49.5688,305.5625 L49.5688,307.0156 Q49.5688,307.625 49.3344,307.8906 Q49.1,308.1563 48.725,308.1563 Q48.3813,308.1563 48.1781,307.9531 Q47.975,307.7656 47.8656,307.25 Q47.8188,306.8906 47.6313,306.7031 Q47.3031,306.3281 46.6938,306.1094 Q46.0844,305.8906 45.4594,305.8906 Q44.6938,305.8906 44.0531,306.2188 Q43.4281,306.5469 42.9281,307.2969 Q42.4438,308.0469 42.4438,309.0781 L42.4438,310.1719 Q42.4438,311.4063 43.3344,312.2344 Q44.225,313.0469 45.8188,313.0469 Q46.7563,313.0469 47.4125,312.7969 Q47.8031,312.6406 48.225,312.2031 Q48.4906,311.9375 48.6313,311.8594 Q48.7875,311.7813 48.9906,311.7813 Q49.3188,311.7813 49.5688,312.0469 Q49.8344,312.2969 49.8344,312.6406 Q49.8344,312.9844 49.4906,313.3906 Q48.9906,313.9688 48.1938,314.2969 Q47.1156,314.75 45.8188,314.75 Q44.3031,314.75 43.1,314.125 Q42.1156,313.625 41.4281,312.5625 Q40.7406,311.4844 40.7406,310.2031 L40.7406,309.0469 Q40.7406,307.7188 41.35,306.5781 Q41.975,305.4219 43.0688,304.8125 Q44.1625,304.1875 45.3969,304.1875 Q46.1313,304.1875 46.7719,304.3594 Q47.4281,304.5156 47.975,304.875 Z " fill="#000000"/><text fill="#000000" font-family="sans-serif" font-size="14" lengthAdjust="spacing" textLength="161" x="59.2094" y="314.7285">TextMeshProFloatingText</text><line style="stroke:#181818;stroke-width:0.5;" x1="31.2094" x2="222.2094" y1="325" y2="325"/><line style="stroke:#181818;stroke-width:0.5;" x1="31.2094" x2="222.2094" y1="333" y2="333"/></g><!--MD5=[177417b4f87294e4410ada34d540e530]
reverse link MonoBehaviour to Benchmark02--><g id="link_MonoBehaviour_Benchmark02"><path codeLine="7" d="M126.7094,75.33 C126.7094,87.86 126.7094,101.73 126.7094,114.99 " fill="none" id="MonoBehaviour-backto-Benchmark02" style="stroke:#181818;stroke-width:1.0;"/><polygon fill="none" points="119.7094,75.28,126.7094,55.28,133.7094,75.28,119.7094,75.28" style="stroke:#181818;stroke-width:1.0;"/></g><!--MD5=[e85e7c9f9955cf31729831fe190e9255]
link Benchmark02 to TextMeshProFloatingText--><g id="link_Benchmark02_TextMeshProFloatingText"><path codeLine="8" d="M126.7094,233.16 C126.7094,251.97 126.7094,272 126.7094,287.64 " fill="none" id="Benchmark02-to-TextMeshProFloatingText" style="stroke:#181818;stroke-width:1.0;"/><polygon fill="#181818" points="126.7094,292.77,130.7094,283.77,126.7094,287.77,122.7094,283.77,126.7094,292.77" style="stroke:#181818;stroke-width:1.0;"/><text fill="#000000" font-family="sans-serif" font-size="13" lengthAdjust="spacing" textLength="107" x="6" y="282.0512">floatingText_Script</text></g><!--MD5=[27d0dbcf0aed640f0a5c8bca28026f50]
@startuml
class Benchmark02 {
    + SpawnType : int = 0
    + NumberOfNPC : int = 12
    + IsTextObjectScaleStatic : bool
    Start() : void
}
MonoBehaviour <|- - Benchmark02
Benchmark02 - -> "floatingText_Script" TextMeshProFloatingText
@enduml

PlantUML version 1.2022.5(Sat Apr 30 12:55:52 CEST 2022)
(GPL source distribution)
Java Runtime: Java(TM) SE Runtime Environment
JVM: Java HotSpot(TM) 64-Bit Server VM
Default Encoding: UTF-8
Language: en
Country: GB
--></g></svg>