<?xml version="1.0" encoding="UTF-8" standalone="no"?><svg xmlns="http://www.w3.org/2000/svg" xmlns:xlink="http://www.w3.org/1999/xlink" contentStyleType="text/css" height="454px" preserveAspectRatio="none" style="width:779px;height:454px;background:#FFFFFF;" version="1.1" viewBox="0 0 779 454" width="779px" zoomAndPan="magnify"><defs/><g><!--MD5=[9988b552b157f7c7d3fd67746f4958b6]
class TMP_FrameRateCounter--><g id="elem_TMP_FrameRateCounter"><rect codeLine="1" fill="#F1F1F1" height="224.0938" id="TMP_FrameRateCounter" rx="2.5" ry="2.5" style="stroke:#181818;stroke-width:0.5;" width="521" x="7" y="115"/><ellipse cx="183.75" cy="131" fill="#ADD1B2" rx="11" ry="11" style="stroke:#181818;stroke-width:1.0;"/><path d="M186.5156,126.875 Q186.6719,126.6563 186.8594,126.5469 Q187.0469,126.4375 187.2656,126.4375 Q187.6406,126.4375 187.875,126.7031 Q188.1094,126.9531 188.1094,127.5625 L188.1094,129.0156 Q188.1094,129.625 187.875,129.8906 Q187.6406,130.1563 187.2656,130.1563 Q186.9219,130.1563 186.7188,129.9531 Q186.5156,129.7656 186.4063,129.25 Q186.3594,128.8906 186.1719,128.7031 Q185.8438,128.3281 185.2344,128.1094 Q184.625,127.8906 184,127.8906 Q183.2344,127.8906 182.5938,128.2188 Q181.9688,128.5469 181.4688,129.2969 Q180.9844,130.0469 180.9844,131.0781 L180.9844,132.1719 Q180.9844,133.4063 181.875,134.2344 Q182.7656,135.0469 184.3594,135.0469 Q185.2969,135.0469 185.9531,134.7969 Q186.3438,134.6406 186.7656,134.2031 Q187.0313,133.9375 187.1719,133.8594 Q187.3281,133.7813 187.5313,133.7813 Q187.8594,133.7813 188.1094,134.0469 Q188.375,134.2969 188.375,134.6406 Q188.375,134.9844 188.0313,135.3906 Q187.5313,135.9688 186.7344,136.2969 Q185.6563,136.75 184.3594,136.75 Q182.8438,136.75 181.6406,136.125 Q180.6563,135.625 179.9688,134.5625 Q179.2813,133.4844 179.2813,132.2031 L179.2813,131.0469 Q179.2813,129.7188 179.8906,128.5781 Q180.5156,127.4219 181.6094,126.8125 Q182.7031,126.1875 183.9375,126.1875 Q184.6719,126.1875 185.3125,126.3594 Q185.9688,126.5156 186.5156,126.875 Z " fill="#000000"/><text fill="#000000" font-family="sans-serif" font-size="14" lengthAdjust="spacing" textLength="159" x="204.25" y="136.7285">TMP_FrameRateCounter</text><line style="stroke:#181818;stroke-width:0.5;" x1="8" x2="527" y1="147" y2="147"/><ellipse cx="18" cy="158" fill="none" rx="3" ry="3" style="stroke:#038048;stroke-width:1.0;"/><text fill="#000000" font-family="sans-serif" font-size="14" lengthAdjust="spacing" textLength="170" x="27" y="165.5332">UpdateInterval : float = 5.0f</text><rect fill="none" height="6" style="stroke:#C82930;stroke-width:1.0;" width="6" x="15" y="172.6094"/><text fill="#000000" font-family="sans-serif" font-size="14" lengthAdjust="spacing" textLength="155" x="27" y="183.1426">m_LastInterval : float = 0</text><rect fill="none" height="6" style="stroke:#C82930;stroke-width:1.0;" width="6" x="15" y="190.2188"/><text fill="#000000" font-family="sans-serif" font-size="14" lengthAdjust="spacing" textLength="118" x="27" y="200.752">m_Frames : int = 0</text><rect fill="none" height="6" style="stroke:#C82930;stroke-width:1.0;" width="6" x="15" y="207.8281"/><text fill="#000000" font-family="sans-serif" font-size="14" lengthAdjust="spacing" textLength="132" x="27" y="218.3613">htmlColorTag : string</text><rect fill="none" height="6" style="stroke:#C82930;stroke-width:1.0;" width="6" x="15" y="225.4375"/><text fill="#000000" font-family="sans-serif" font-size="14" lengthAdjust="spacing" textLength="352" x="27" y="235.9707">«const» fpsLabel : string = "{0:2}&lt;/color&gt; &lt;#8080ff&gt;FPS</text><text fill="#000000" font-family="sans-serif" font-size="14" lengthAdjust="spacing" textLength="197" x="27" y="253.5801">&lt;#FF8000&gt;{1:2} &lt;#8080ff&gt;MS"</text><line style="stroke:#181818;stroke-width:0.5;" x1="8" x2="527" y1="260.6563" y2="260.6563"/><text fill="#000000" font-family="sans-serif" font-size="14" lengthAdjust="spacing" textLength="89" x="13" y="279.1895">Awake() : void</text><text fill="#000000" font-family="sans-serif" font-size="14" lengthAdjust="spacing" textLength="78" x="13" y="296.7988">Start() : void</text><text fill="#000000" font-family="sans-serif" font-size="14" lengthAdjust="spacing" textLength="93" x="13" y="314.4082">Update() : void</text><text fill="#000000" font-family="sans-serif" font-size="14" lengthAdjust="spacing" textLength="509" x="13" y="332.0176">Set_FrameCounter_Position(anchor_position:FpsCounterAnchorPositions) : void</text></g><!--MD5=[ff5acbc14447bac6da42a03245b65cbc]
class FpsCounterAnchorPositions--><g id="elem_FpsCounterAnchorPositions"><rect codeLine="12" fill="#F1F1F1" height="118.4375" id="FpsCounterAnchorPositions" rx="2.5" ry="2.5" style="stroke:#181818;stroke-width:0.5;" width="209" x="563" y="168"/><ellipse cx="578" cy="184" fill="#EB937F" rx="11" ry="11" style="stroke:#181818;stroke-width:1.0;"/><path d="M576.8594,184.7969 L576.8594,187.2969 L581.1875,187.2969 L581.1875,186.375 Q581.1875,185.7656 581.4219,185.5 Q581.6719,185.2344 582.0469,185.2344 Q582.4219,185.2344 582.6563,185.5 Q582.8906,185.7656 582.8906,186.375 L582.8906,189 L574.8906,189 Q574.2656,189 574,188.7656 Q573.75,188.5313 573.75,188.1406 Q573.75,187.7656 574.0156,187.5313 Q574.2813,187.2969 574.8906,187.2969 L575.1563,187.2969 L575.1563,180.6406 L574.8906,180.6406 Q574.2656,180.6406 574,180.4063 Q573.75,180.1719 573.75,179.7813 Q573.75,179.4063 574,179.1719 Q574.2656,178.9375 574.8906,178.9375 L582.5156,178.9375 L582.5156,181.5313 Q582.5156,182.1406 582.2813,182.4063 Q582.0625,182.6563 581.6719,182.6563 Q581.2969,182.6563 581.0625,182.4063 Q580.8281,182.1406 580.8281,181.5313 L580.8281,180.6406 L576.8594,180.6406 L576.8594,183.0938 L578.3438,183.0938 Q578.3438,182.4375 578.4688,182.25 Q578.7344,181.8438 579.2031,181.8438 Q579.5781,181.8438 579.8125,182.1094 Q580.0469,182.3594 580.0469,182.9688 L580.0469,184.9375 Q580.0469,185.4844 579.9219,185.6719 Q579.6563,186.0625 579.2031,186.0625 Q578.7344,186.0625 578.4688,185.6563 Q578.3438,185.4688 578.3438,184.7969 L576.8594,184.7969 Z " fill="#000000"/><text fill="#000000" font-family="sans-serif" font-size="14" lengthAdjust="spacing" textLength="177" x="592" y="189.7285">FpsCounterAnchorPositions</text><line style="stroke:#181818;stroke-width:0.5;" x1="564" x2="771" y1="200" y2="200"/><text fill="#000000" font-family="sans-serif" font-size="14" lengthAdjust="spacing" textLength="53" x="569" y="218.5332">TopLeft,</text><text fill="#000000" font-family="sans-serif" font-size="14" lengthAdjust="spacing" textLength="72" x="569" y="236.1426">BottomLeft,</text><text fill="#000000" font-family="sans-serif" font-size="14" lengthAdjust="spacing" textLength="62" x="569" y="253.752">TopRight,</text><text fill="#000000" font-family="sans-serif" font-size="14" lengthAdjust="spacing" textLength="81" x="569" y="271.3613">BottomRight,</text><line style="stroke:#181818;stroke-width:0.5;" x1="564" x2="771" y1="278.4375" y2="278.4375"/></g><!--MD5=[83b3cf3d23d77c6f1e1b5291a241bc2a]
class MonoBehaviour--><g id="elem_MonoBehaviour"><rect fill="#F1F1F1" height="48" id="MonoBehaviour" rx="2.5" ry="2.5" style="stroke:#181818;stroke-width:0.5;" width="131" x="202" y="7"/><ellipse cx="217" cy="23" fill="#ADD1B2" rx="11" ry="11" style="stroke:#181818;stroke-width:1.0;"/><path d="M219.7656,18.875 Q219.9219,18.6563 220.1094,18.5469 Q220.2969,18.4375 220.5156,18.4375 Q220.8906,18.4375 221.125,18.7031 Q221.3594,18.9531 221.3594,19.5625 L221.3594,21.0156 Q221.3594,21.625 221.125,21.8906 Q220.8906,22.1563 220.5156,22.1563 Q220.1719,22.1563 219.9688,21.9531 Q219.7656,21.7656 219.6563,21.25 Q219.6094,20.8906 219.4219,20.7031 Q219.0938,20.3281 218.4844,20.1094 Q217.875,19.8906 217.25,19.8906 Q216.4844,19.8906 215.8438,20.2188 Q215.2188,20.5469 214.7188,21.2969 Q214.2344,22.0469 214.2344,23.0781 L214.2344,24.1719 Q214.2344,25.4063 215.125,26.2344 Q216.0156,27.0469 217.6094,27.0469 Q218.5469,27.0469 219.2031,26.7969 Q219.5938,26.6406 220.0156,26.2031 Q220.2813,25.9375 220.4219,25.8594 Q220.5781,25.7813 220.7813,25.7813 Q221.1094,25.7813 221.3594,26.0469 Q221.625,26.2969 221.625,26.6406 Q221.625,26.9844 221.2813,27.3906 Q220.7813,27.9688 219.9844,28.2969 Q218.9063,28.75 217.6094,28.75 Q216.0938,28.75 214.8906,28.125 Q213.9063,27.625 213.2188,26.5625 Q212.5313,25.4844 212.5313,24.2031 L212.5313,23.0469 Q212.5313,21.7188 213.1406,20.5781 Q213.7656,19.4219 214.8594,18.8125 Q215.9531,18.1875 217.1875,18.1875 Q217.9219,18.1875 218.5625,18.3594 Q219.2188,18.5156 219.7656,18.875 Z " fill="#000000"/><text fill="#000000" font-family="sans-serif" font-size="14" lengthAdjust="spacing" textLength="99" x="231" y="28.7285">MonoBehaviour</text><line style="stroke:#181818;stroke-width:0.5;" x1="203" x2="332" y1="39" y2="39"/><line style="stroke:#181818;stroke-width:0.5;" x1="203" x2="332" y1="47" y2="47"/></g><!--MD5=[02f215d6db5b7f34e36b05d8f35ff3a4]
class TextMeshPro--><g id="elem_TextMeshPro"><rect fill="#F1F1F1" height="48" id="TextMeshPro" rx="2.5" ry="2.5" style="stroke:#181818;stroke-width:0.5;" width="115" x="69" y="399"/><ellipse cx="84" cy="415" fill="#ADD1B2" rx="11" ry="11" style="stroke:#181818;stroke-width:1.0;"/><path d="M86.7656,410.875 Q86.9219,410.6563 87.1094,410.5469 Q87.2969,410.4375 87.5156,410.4375 Q87.8906,410.4375 88.125,410.7031 Q88.3594,410.9531 88.3594,411.5625 L88.3594,413.0156 Q88.3594,413.625 88.125,413.8906 Q87.8906,414.1563 87.5156,414.1563 Q87.1719,414.1563 86.9688,413.9531 Q86.7656,413.7656 86.6563,413.25 Q86.6094,412.8906 86.4219,412.7031 Q86.0938,412.3281 85.4844,412.1094 Q84.875,411.8906 84.25,411.8906 Q83.4844,411.8906 82.8438,412.2188 Q82.2188,412.5469 81.7188,413.2969 Q81.2344,414.0469 81.2344,415.0781 L81.2344,416.1719 Q81.2344,417.4063 82.125,418.2344 Q83.0156,419.0469 84.6094,419.0469 Q85.5469,419.0469 86.2031,418.7969 Q86.5938,418.6406 87.0156,418.2031 Q87.2813,417.9375 87.4219,417.8594 Q87.5781,417.7813 87.7813,417.7813 Q88.1094,417.7813 88.3594,418.0469 Q88.625,418.2969 88.625,418.6406 Q88.625,418.9844 88.2813,419.3906 Q87.7813,419.9688 86.9844,420.2969 Q85.9063,420.75 84.6094,420.75 Q83.0938,420.75 81.8906,420.125 Q80.9063,419.625 80.2188,418.5625 Q79.5313,417.4844 79.5313,416.2031 L79.5313,415.0469 Q79.5313,413.7188 80.1406,412.5781 Q80.7656,411.4219 81.8594,410.8125 Q82.9531,410.1875 84.1875,410.1875 Q84.9219,410.1875 85.5625,410.3594 Q86.2188,410.5156 86.7656,410.875 Z " fill="#000000"/><text fill="#000000" font-family="sans-serif" font-size="14" lengthAdjust="spacing" textLength="83" x="98" y="420.7285">TextMeshPro</text><line style="stroke:#181818;stroke-width:0.5;" x1="70" x2="183" y1="431" y2="431"/><line style="stroke:#181818;stroke-width:0.5;" x1="70" x2="183" y1="439" y2="439"/></g><!--MD5=[004b1d6c4ca8aad4ba8b586a335ed4f3]
class Transform--><g id="elem_Transform"><rect fill="#F1F1F1" height="48" id="Transform" rx="2.5" ry="2.5" style="stroke:#181818;stroke-width:0.5;" width="97" x="219" y="399"/><ellipse cx="234" cy="415" fill="#ADD1B2" rx="11" ry="11" style="stroke:#181818;stroke-width:1.0;"/><path d="M236.7656,410.875 Q236.9219,410.6563 237.1094,410.5469 Q237.2969,410.4375 237.5156,410.4375 Q237.8906,410.4375 238.125,410.7031 Q238.3594,410.9531 238.3594,411.5625 L238.3594,413.0156 Q238.3594,413.625 238.125,413.8906 Q237.8906,414.1563 237.5156,414.1563 Q237.1719,414.1563 236.9688,413.9531 Q236.7656,413.7656 236.6563,413.25 Q236.6094,412.8906 236.4219,412.7031 Q236.0938,412.3281 235.4844,412.1094 Q234.875,411.8906 234.25,411.8906 Q233.4844,411.8906 232.8438,412.2188 Q232.2188,412.5469 231.7188,413.2969 Q231.2344,414.0469 231.2344,415.0781 L231.2344,416.1719 Q231.2344,417.4063 232.125,418.2344 Q233.0156,419.0469 234.6094,419.0469 Q235.5469,419.0469 236.2031,418.7969 Q236.5938,418.6406 237.0156,418.2031 Q237.2813,417.9375 237.4219,417.8594 Q237.5781,417.7813 237.7813,417.7813 Q238.1094,417.7813 238.3594,418.0469 Q238.625,418.2969 238.625,418.6406 Q238.625,418.9844 238.2813,419.3906 Q237.7813,419.9688 236.9844,420.2969 Q235.9063,420.75 234.6094,420.75 Q233.0938,420.75 231.8906,420.125 Q230.9063,419.625 230.2188,418.5625 Q229.5313,417.4844 229.5313,416.2031 L229.5313,415.0469 Q229.5313,413.7188 230.1406,412.5781 Q230.7656,411.4219 231.8594,410.8125 Q232.9531,410.1875 234.1875,410.1875 Q234.9219,410.1875 235.5625,410.3594 Q236.2188,410.5156 236.7656,410.875 Z " fill="#000000"/><text fill="#000000" font-family="sans-serif" font-size="14" lengthAdjust="spacing" textLength="65" x="248" y="420.7285">Transform</text><line style="stroke:#181818;stroke-width:0.5;" x1="220" x2="315" y1="431" y2="431"/><line style="stroke:#181818;stroke-width:0.5;" x1="220" x2="315" y1="439" y2="439"/></g><!--MD5=[452be1aaf8b94e2bc4204d466ef769a4]
class Camera--><g id="elem_Camera"><rect fill="#F1F1F1" height="48" id="Camera" rx="2.5" ry="2.5" style="stroke:#181818;stroke-width:0.5;" width="82" x="351.5" y="399"/><ellipse cx="366.5" cy="415" fill="#ADD1B2" rx="11" ry="11" style="stroke:#181818;stroke-width:1.0;"/><path d="M369.2656,410.875 Q369.4219,410.6563 369.6094,410.5469 Q369.7969,410.4375 370.0156,410.4375 Q370.3906,410.4375 370.625,410.7031 Q370.8594,410.9531 370.8594,411.5625 L370.8594,413.0156 Q370.8594,413.625 370.625,413.8906 Q370.3906,414.1563 370.0156,414.1563 Q369.6719,414.1563 369.4688,413.9531 Q369.2656,413.7656 369.1563,413.25 Q369.1094,412.8906 368.9219,412.7031 Q368.5938,412.3281 367.9844,412.1094 Q367.375,411.8906 366.75,411.8906 Q365.9844,411.8906 365.3438,412.2188 Q364.7188,412.5469 364.2188,413.2969 Q363.7344,414.0469 363.7344,415.0781 L363.7344,416.1719 Q363.7344,417.4063 364.625,418.2344 Q365.5156,419.0469 367.1094,419.0469 Q368.0469,419.0469 368.7031,418.7969 Q369.0938,418.6406 369.5156,418.2031 Q369.7813,417.9375 369.9219,417.8594 Q370.0781,417.7813 370.2813,417.7813 Q370.6094,417.7813 370.8594,418.0469 Q371.125,418.2969 371.125,418.6406 Q371.125,418.9844 370.7813,419.3906 Q370.2813,419.9688 369.4844,420.2969 Q368.4063,420.75 367.1094,420.75 Q365.5938,420.75 364.3906,420.125 Q363.4063,419.625 362.7188,418.5625 Q362.0313,417.4844 362.0313,416.2031 L362.0313,415.0469 Q362.0313,413.7188 362.6406,412.5781 Q363.2656,411.4219 364.3594,410.8125 Q365.4531,410.1875 366.6875,410.1875 Q367.4219,410.1875 368.0625,410.3594 Q368.7188,410.5156 369.2656,410.875 Z " fill="#000000"/><text fill="#000000" font-family="sans-serif" font-size="14" lengthAdjust="spacing" textLength="50" x="380.5" y="420.7285">Camera</text><line style="stroke:#181818;stroke-width:0.5;" x1="352.5" x2="432.5" y1="431" y2="431"/><line style="stroke:#181818;stroke-width:0.5;" x1="352.5" x2="432.5" y1="439" y2="439"/></g><!--MD5=[e4b0420b50729b059a429b0d7500bf23]
reverse link MonoBehaviour to TMP_FrameRateCounter--><g id="link_MonoBehaviour_TMP_FrameRateCounter"><path codeLine="18" d="M267.5,75.19 C267.5,87.19 267.5,100.79 267.5,114.79 " fill="none" id="MonoBehaviour-backto-TMP_FrameRateCounter" style="stroke:#181818;stroke-width:1.0;"/><polygon fill="none" points="260.5,75.02,267.5,55.02,274.5,75.02,260.5,75.02" style="stroke:#181818;stroke-width:1.0;"/></g><!--MD5=[fa522abd1dca79bdb4883a98aa75ffad]
link TMP_FrameRateCounter to FpsCounterAnchorPositions--><g id="link_TMP_FrameRateCounter_FpsCounterAnchorPositions"><path codeLine="19" d="M539.6031,300.0556 C539.6031,300.0556 556.69,294.43 564.57,291.21 " fill="none" id="TMP_FrameRateCounter-FpsCounterAnchorPositions" style="stroke:#181818;stroke-width:1.0;"/><polygon fill="#181818" points="576.53,286.04,566.6816,285.9456,571.9417,288.0268,569.8605,293.2869,576.53,286.04" style="stroke:#181818;stroke-width:1.0;"/><line style="stroke:#181818;stroke-width:1.0;" x1="571.9417" x2="564.6" y1="288.0268" y2="291.2"/><polygon fill="none" points="528.05,303.3,534.908,305.5289,539.6031,300.0556,532.7451,297.8268,528.05,303.3" style="stroke:#181818;stroke-width:1.0;"/><text fill="#000000" font-family="sans-serif" font-size="13" lengthAdjust="spacing" textLength="88" x="570.512" y="308.1191">AnchorPosition</text></g><!--MD5=[fa522abd1dca79bdb4883a98aa75ffad]
link TMP_FrameRateCounter to FpsCounterAnchorPositions--><g id="link_TMP_FrameRateCounter_FpsCounterAnchorPositions"><path codeLine="23" d="M528.05,227 C537.94,227 547.84,227 557.74,227 " fill="none" id="TMP_FrameRateCounter-to-FpsCounterAnchorPositions" style="stroke:#181818;stroke-width:1.0;"/><polygon fill="#181818" points="562.91,227,553.91,223,557.91,227,553.91,231,562.91,227" style="stroke:#181818;stroke-width:1.0;"/><text fill="#000000" font-family="sans-serif" font-size="13" lengthAdjust="spacing" textLength="116" x="438.3161" y="206.309">last_AnchorPosition</text></g><!--MD5=[cab2d996778753a7dc4d92a9e3fc090b]
reverse link TMP_FrameRateCounter to FpsCounterAnchorPositions--><g id="link_TMP_FrameRateCounter_FpsCounterAnchorPositions"><path codeLine="24" d="M542.82,154.91 C554.06,158.47 565.29,162.82 576.53,167.96 " fill="none" id="TMP_FrameRateCounter-backto-FpsCounterAnchorPositions" style="stroke:#181818;stroke-width:1.0;"/><ellipse cx="535.7428" cy="152.8958" fill="#FFFFFF" rx="8" ry="8" style="stroke:#181818;stroke-width:1.0;"/><line style="stroke:#181818;stroke-width:1.0;" x1="543.4355" x2="528.05" y1="155.0915" y2="150.7"/><line style="stroke:#181818;stroke-width:1.0;" x1="533.547" x2="537.9385" y1="160.5885" y2="145.203"/></g><!--MD5=[69e06757cc72317f9e0a1a5b929c9ae7]
link TMP_FrameRateCounter to TextMeshPro--><g id="link_TMP_FrameRateCounter_TextMeshPro"><path codeLine="20" d="M186.71,339.16 C171.63,359.9 157.2,379.76 146.25,394.83 " fill="none" id="TMP_FrameRateCounter-to-TextMeshPro" style="stroke:#181818;stroke-width:1.0;"/><polygon fill="#181818" points="143.25,398.95,151.7806,394.0276,146.1926,394.9076,145.3126,389.3196,143.25,398.95" style="stroke:#181818;stroke-width:1.0;"/><text fill="#000000" font-family="sans-serif" font-size="13" lengthAdjust="spacing" textLength="95" x="40.3703" y="388.2773">m_TextMeshPro</text></g><!--MD5=[c709173af390c61f150a6b4ebba8fd2d]
link TMP_FrameRateCounter to Transform--><g id="link_TMP_FrameRateCounter_Transform"><path codeLine="21" d="M267.5,339.16 C267.5,359.37 267.5,378.74 267.5,393.66 " fill="none" id="TMP_FrameRateCounter-to-Transform" style="stroke:#181818;stroke-width:1.0;"/><polygon fill="#181818" points="267.5,398.95,271.5,389.95,267.5,393.95,263.5,389.95,267.5,398.95" style="stroke:#181818;stroke-width:1.0;"/><text fill="#000000" font-family="sans-serif" font-size="13" lengthAdjust="spacing" textLength="156" x="287.3609" y="388.0897">m_frameCounter_transform</text></g><!--MD5=[4aa127dc602f34eebb8711ad1e5bf0d1]
link TMP_FrameRateCounter to Camera--><g id="link_TMP_FrameRateCounter_Camera"><path codeLine="22" d="M339.13,339.16 C352.37,359.73 365.06,379.42 374.74,394.44 " fill="none" id="TMP_FrameRateCounter-to-Camera" style="stroke:#181818;stroke-width:1.0;"/><polygon fill="#181818" points="377.65,398.95,376.1245,389.22,374.9361,394.7506,369.4055,393.5622,377.65,398.95" style="stroke:#181818;stroke-width:1.0;"/><text fill="#000000" font-family="sans-serif" font-size="13" lengthAdjust="spacing" textLength="61" x="283.1349" y="392.3438">m_camera</text></g><!--MD5=[55ddad94732019a7d83ea55f33aa81da]
@startuml
class TMP_FrameRateCounter {
    + UpdateInterval : float = 5.0f
    - m_LastInterval : float = 0
    - m_Frames : int = 0
    - htmlColorTag : string
    - <<const>> fpsLabel : string = "{0:2&#125;</color> <#8080ff>FPS \n<#FF8000>{1:2&#125; <#8080ff>MS"
    Awake() : void
    Start() : void
    Update() : void
    Set_FrameCounter_Position(anchor_position:FpsCounterAnchorPositions) : void
}
enum FpsCounterAnchorPositions {
    TopLeft,
    BottomLeft,
    TopRight,
    BottomRight,
}
MonoBehaviour <|- - TMP_FrameRateCounter
TMP_FrameRateCounter o-> "AnchorPosition" FpsCounterAnchorPositions
TMP_FrameRateCounter - -> "m_TextMeshPro" TextMeshPro
TMP_FrameRateCounter - -> "m_frameCounter_transform" Transform
TMP_FrameRateCounter - -> "m_camera" Camera
TMP_FrameRateCounter - -> "last_AnchorPosition" FpsCounterAnchorPositions
TMP_FrameRateCounter +- - FpsCounterAnchorPositions
@enduml

PlantUML version 1.2022.5(Sat Apr 30 12:55:52 CEST 2022)
(GPL source distribution)
Java Runtime: Java(TM) SE Runtime Environment
JVM: Java HotSpot(TM) 64-Bit Server VM
Default Encoding: UTF-8
Language: en
Country: GB
--></g></svg>