<?xml version="1.0" encoding="UTF-8" standalone="no"?><svg xmlns="http://www.w3.org/2000/svg" xmlns:xlink="http://www.w3.org/1999/xlink" contentStyleType="text/css" height="174px" preserveAspectRatio="none" style="width:782px;height:174px;background:#FFFFFF;" version="1.1" viewBox="0 0 782 174" width="782px" zoomAndPan="magnify"><defs/><g><!--MD5=[30e25d2db15f963ad26c6579bab22b26]
class ExternalLinks--><g id="elem_ExternalLinks"><rect codeLine="1" fill="#F1F1F1" height="153.6563" id="ExternalLinks" rx="2.5" ry="2.5" style="stroke:#181818;stroke-width:0.5;" width="761" x="7" y="7"/><ellipse cx="341.25" cy="23" fill="#ADD1B2" rx="11" ry="11" style="stroke:#181818;stroke-width:1.0;"/><path d="M344.0156,18.875 Q344.1719,18.6563 344.3594,18.5469 Q344.5469,18.4375 344.7656,18.4375 Q345.1406,18.4375 345.375,18.7031 Q345.6094,18.9531 345.6094,19.5625 L345.6094,21.0156 Q345.6094,21.625 345.375,21.8906 Q345.1406,22.1563 344.7656,22.1563 Q344.4219,22.1563 344.2188,21.9531 Q344.0156,21.7656 343.9063,21.25 Q343.8594,20.8906 343.6719,20.7031 Q343.3438,20.3281 342.7344,20.1094 Q342.125,19.8906 341.5,19.8906 Q340.7344,19.8906 340.0938,20.2188 Q339.4688,20.5469 338.9688,21.2969 Q338.4844,22.0469 338.4844,23.0781 L338.4844,24.1719 Q338.4844,25.4063 339.375,26.2344 Q340.2656,27.0469 341.8594,27.0469 Q342.7969,27.0469 343.4531,26.7969 Q343.8438,26.6406 344.2656,26.2031 Q344.5313,25.9375 344.6719,25.8594 Q344.8281,25.7813 345.0313,25.7813 Q345.3594,25.7813 345.6094,26.0469 Q345.875,26.2969 345.875,26.6406 Q345.875,26.9844 345.5313,27.3906 Q345.0313,27.9688 344.2344,28.2969 Q343.1563,28.75 341.8594,28.75 Q340.3438,28.75 339.1406,28.125 Q338.1563,27.625 337.4688,26.5625 Q336.7813,25.4844 336.7813,24.2031 L336.7813,23.0469 Q336.7813,21.7188 337.3906,20.5781 Q338.0156,19.4219 339.1094,18.8125 Q340.2031,18.1875 341.4375,18.1875 Q342.1719,18.1875 342.8125,18.3594 Q343.4688,18.5156 344.0156,18.875 Z " fill="#000000"/><text fill="#000000" font-family="sans-serif" font-size="14" lengthAdjust="spacing" textLength="84" x="361.75" y="28.7285">ExternalLinks</text><line style="stroke:#181818;stroke-width:0.5;" x1="8" x2="767" y1="39" y2="39"/><ellipse cx="18" cy="50" fill="none" rx="3" ry="3" style="stroke:#038048;stroke-width:1.0;"/><text fill="#000000" font-family="sans-serif" font-size="14" lengthAdjust="spacing" textLength="735" x="27" y="57.5332">«const» RemoteVersionURL : string = "https://raw.githubusercontent.com/VeriorPies/ParrelSync/master/VERSION.txt"</text><ellipse cx="18" cy="67.6094" fill="none" rx="3" ry="3" style="stroke:#038048;stroke-width:1.0;"/><text fill="#000000" font-family="sans-serif" font-size="14" lengthAdjust="spacing" textLength="498" x="27" y="75.1426">«const» Releases : string = "https://github.com/VeriorPies/ParrelSync/releases"</text><ellipse cx="18" cy="85.2188" fill="none" rx="3" ry="3" style="stroke:#038048;stroke-width:1.0;"/><text fill="#000000" font-family="sans-serif" font-size="14" lengthAdjust="spacing" textLength="635" x="27" y="92.752">«const» CustomArgumentHelpLink : string = "https://github.com/VeriorPies/ParrelSync/wiki/Argument"</text><ellipse cx="18" cy="102.8281" fill="none" rx="3" ry="3" style="stroke:#038048;stroke-width:1.0;"/><text fill="#000000" font-family="sans-serif" font-size="14" lengthAdjust="spacing" textLength="464" x="27" y="110.3613">«const» GitHubHome : string = "https://github.com/VeriorPies/ParrelSync/"</text><ellipse cx="18" cy="120.4375" fill="none" rx="3" ry="3" style="stroke:#038048;stroke-width:1.0;"/><text fill="#000000" font-family="sans-serif" font-size="14" lengthAdjust="spacing" textLength="501" x="27" y="127.9707">«const» GitHubIssue : string = "https://github.com/VeriorPies/ParrelSync/issues"</text><ellipse cx="18" cy="138.0469" fill="none" rx="3" ry="3" style="stroke:#038048;stroke-width:1.0;"/><text fill="#000000" font-family="sans-serif" font-size="14" lengthAdjust="spacing" textLength="598" x="27" y="145.5801">«const» FAQ : string = "https://github.com/VeriorPies/ParrelSync/wiki/Troubleshooting-&amp;-FAQs"</text><line style="stroke:#181818;stroke-width:0.5;" x1="8" x2="767" y1="152.6563" y2="152.6563"/></g><!--MD5=[b80b2a8bf7bdad37398d5427900bb7f4]
@startuml
class ExternalLinks {
    + <<const>> RemoteVersionURL : string = "https://raw.githubusercontent.com/VeriorPies/ParrelSync/master/VERSION.txt"
    + <<const>> Releases : string = "https://github.com/VeriorPies/ParrelSync/releases"
    + <<const>> CustomArgumentHelpLink : string = "https://github.com/VeriorPies/ParrelSync/wiki/Argument"
    + <<const>> GitHubHome : string = "https://github.com/VeriorPies/ParrelSync/"
    + <<const>> GitHubIssue : string = "https://github.com/VeriorPies/ParrelSync/issues"
    + <<const>> FAQ : string = "https://github.com/VeriorPies/ParrelSync/wiki/Troubleshooting-&-FAQs"
}
@enduml

PlantUML version 1.2022.5(Sat Apr 30 12:55:52 CEST 2022)
(GPL source distribution)
Java Runtime: Java(TM) SE Runtime Environment
JVM: Java HotSpot(TM) 64-Bit Server VM
Default Encoding: UTF-8
Language: en
Country: GB
--></g></svg>