<?xml version="1.0" encoding="UTF-8" standalone="no"?><svg xmlns="http://www.w3.org/2000/svg" xmlns:xlink="http://www.w3.org/1999/xlink" contentStyleType="text/css" height="419px" preserveAspectRatio="none" style="width:344px;height:419px;background:#FFFFFF;" version="1.1" viewBox="0 0 344 419" width="344px" zoomAndPan="magnify"><defs/><g><!--MD5=[a5eda618e8cd984c9a874badf1d9a19d]
class Benchmark03--><g id="elem_Benchmark03"><rect codeLine="1" fill="#F1F1F1" height="100.8281" id="Benchmark03" rx="2.5" ry="2.5" style="stroke:#181818;stroke-width:0.5;" width="211" x="7" y="115"/><ellipse cx="64.75" cy="131" fill="#ADD1B2" rx="11" ry="11" style="stroke:#181818;stroke-width:1.0;"/><path d="M67.5156,126.875 Q67.6719,126.6563 67.8594,126.5469 Q68.0469,126.4375 68.2656,126.4375 Q68.6406,126.4375 68.875,126.7031 Q69.1094,126.9531 69.1094,127.5625 L69.1094,129.0156 Q69.1094,129.625 68.875,129.8906 Q68.6406,130.1563 68.2656,130.1563 Q67.9219,130.1563 67.7188,129.9531 Q67.5156,129.7656 67.4063,129.25 Q67.3594,128.8906 67.1719,128.7031 Q66.8438,128.3281 66.2344,128.1094 Q65.625,127.8906 65,127.8906 Q64.2344,127.8906 63.5938,128.2188 Q62.9688,128.5469 62.4688,129.2969 Q61.9844,130.0469 61.9844,131.0781 L61.9844,132.1719 Q61.9844,133.4063 62.875,134.2344 Q63.7656,135.0469 65.3594,135.0469 Q66.2969,135.0469 66.9531,134.7969 Q67.3438,134.6406 67.7656,134.2031 Q68.0313,133.9375 68.1719,133.8594 Q68.3281,133.7813 68.5313,133.7813 Q68.8594,133.7813 69.1094,134.0469 Q69.375,134.2969 69.375,134.6406 Q69.375,134.9844 69.0313,135.3906 Q68.5313,135.9688 67.7344,136.2969 Q66.6563,136.75 65.3594,136.75 Q63.8438,136.75 62.6406,136.125 Q61.6563,135.625 60.9688,134.5625 Q60.2813,133.4844 60.2813,132.2031 L60.2813,131.0469 Q60.2813,129.7188 60.8906,128.5781 Q61.5156,127.4219 62.6094,126.8125 Q63.7031,126.1875 64.9375,126.1875 Q65.6719,126.1875 66.3125,126.3594 Q66.9688,126.5156 67.5156,126.875 Z " fill="#000000"/><text fill="#000000" font-family="sans-serif" font-size="14" lengthAdjust="spacing" textLength="87" x="85.25" y="136.7285">Benchmark03</text><line style="stroke:#181818;stroke-width:0.5;" x1="8" x2="217" y1="147" y2="147"/><ellipse cx="18" cy="158" fill="none" rx="3" ry="3" style="stroke:#038048;stroke-width:1.0;"/><text fill="#000000" font-family="sans-serif" font-size="14" lengthAdjust="spacing" textLength="185" x="27" y="165.5332">NumberOfSamples : int = 100</text><line style="stroke:#181818;stroke-width:0.5;" x1="8" x2="217" y1="172.6094" y2="172.6094"/><text fill="#000000" font-family="sans-serif" font-size="14" lengthAdjust="spacing" textLength="89" x="13" y="191.1426">Awake() : void</text><text fill="#000000" font-family="sans-serif" font-size="14" lengthAdjust="spacing" textLength="78" x="13" y="208.752">Start() : void</text></g><!--MD5=[502d94e193a8f726d451546dc75314b1]
class BenchmarkType--><g id="elem_BenchmarkType"><rect codeLine="6" fill="#F1F1F1" height="136.0469" id="BenchmarkType" rx="2.5" ry="2.5" style="stroke:#181818;stroke-width:0.5;" width="204" x="10.5" y="276"/><ellipse cx="56.75" cy="292" fill="#EB937F" rx="11" ry="11" style="stroke:#181818;stroke-width:1.0;"/><path d="M55.6094,292.7969 L55.6094,295.2969 L59.9375,295.2969 L59.9375,294.375 Q59.9375,293.7656 60.1719,293.5 Q60.4219,293.2344 60.7969,293.2344 Q61.1719,293.2344 61.4063,293.5 Q61.6406,293.7656 61.6406,294.375 L61.6406,297 L53.6406,297 Q53.0156,297 52.75,296.7656 Q52.5,296.5313 52.5,296.1406 Q52.5,295.7656 52.7656,295.5313 Q53.0313,295.2969 53.6406,295.2969 L53.9063,295.2969 L53.9063,288.6406 L53.6406,288.6406 Q53.0156,288.6406 52.75,288.4063 Q52.5,288.1719 52.5,287.7813 Q52.5,287.4063 52.75,287.1719 Q53.0156,286.9375 53.6406,286.9375 L61.2656,286.9375 L61.2656,289.5313 Q61.2656,290.1406 61.0313,290.4063 Q60.8125,290.6563 60.4219,290.6563 Q60.0469,290.6563 59.8125,290.4063 Q59.5781,290.1406 59.5781,289.5313 L59.5781,288.6406 L55.6094,288.6406 L55.6094,291.0938 L57.0938,291.0938 Q57.0938,290.4375 57.2188,290.25 Q57.4844,289.8438 57.9531,289.8438 Q58.3281,289.8438 58.5625,290.1094 Q58.7969,290.3594 58.7969,290.9688 L58.7969,292.9375 Q58.7969,293.4844 58.6719,293.6719 Q58.4063,294.0625 57.9531,294.0625 Q57.4844,294.0625 57.2188,293.6563 Q57.0938,293.4688 57.0938,292.7969 L55.6094,292.7969 Z " fill="#000000"/><text fill="#000000" font-family="sans-serif" font-size="14" lengthAdjust="spacing" textLength="103" x="77.25" y="297.7285">BenchmarkType</text><line style="stroke:#181818;stroke-width:0.5;" x1="11.5" x2="213.5" y1="308" y2="308"/><text fill="#000000" font-family="sans-serif" font-size="14" lengthAdjust="spacing" textLength="148" x="16.5" y="326.5332">TMP_SDF_MOBILE= 0,</text><text fill="#000000" font-family="sans-serif" font-size="14" lengthAdjust="spacing" textLength="192" x="16.5" y="344.1426">TMP_SDF__MOBILE_SSD= 1,</text><text fill="#000000" font-family="sans-serif" font-size="14" lengthAdjust="spacing" textLength="89" x="16.5" y="361.752">TMP_SDF= 2,</text><text fill="#000000" font-family="sans-serif" font-size="14" lengthAdjust="spacing" textLength="170" x="16.5" y="379.3613">TMP_BITMAP_MOBILE= 3,</text><text fill="#000000" font-family="sans-serif" font-size="14" lengthAdjust="spacing" textLength="155" x="16.5" y="396.9707">TEXTMESH_BITMAP= 4,</text><line style="stroke:#181818;stroke-width:0.5;" x1="11.5" x2="213.5" y1="404.0469" y2="404.0469"/></g><!--MD5=[83b3cf3d23d77c6f1e1b5291a241bc2a]
class MonoBehaviour--><g id="elem_MonoBehaviour"><rect fill="#F1F1F1" height="48" id="MonoBehaviour" rx="2.5" ry="2.5" style="stroke:#181818;stroke-width:0.5;" width="131" x="47" y="7"/><ellipse cx="62" cy="23" fill="#ADD1B2" rx="11" ry="11" style="stroke:#181818;stroke-width:1.0;"/><path d="M64.7656,18.875 Q64.9219,18.6563 65.1094,18.5469 Q65.2969,18.4375 65.5156,18.4375 Q65.8906,18.4375 66.125,18.7031 Q66.3594,18.9531 66.3594,19.5625 L66.3594,21.0156 Q66.3594,21.625 66.125,21.8906 Q65.8906,22.1563 65.5156,22.1563 Q65.1719,22.1563 64.9688,21.9531 Q64.7656,21.7656 64.6563,21.25 Q64.6094,20.8906 64.4219,20.7031 Q64.0938,20.3281 63.4844,20.1094 Q62.875,19.8906 62.25,19.8906 Q61.4844,19.8906 60.8438,20.2188 Q60.2188,20.5469 59.7188,21.2969 Q59.2344,22.0469 59.2344,23.0781 L59.2344,24.1719 Q59.2344,25.4063 60.125,26.2344 Q61.0156,27.0469 62.6094,27.0469 Q63.5469,27.0469 64.2031,26.7969 Q64.5938,26.6406 65.0156,26.2031 Q65.2813,25.9375 65.4219,25.8594 Q65.5781,25.7813 65.7813,25.7813 Q66.1094,25.7813 66.3594,26.0469 Q66.625,26.2969 66.625,26.6406 Q66.625,26.9844 66.2813,27.3906 Q65.7813,27.9688 64.9844,28.2969 Q63.9063,28.75 62.6094,28.75 Q61.0938,28.75 59.8906,28.125 Q58.9063,27.625 58.2188,26.5625 Q57.5313,25.4844 57.5313,24.2031 L57.5313,23.0469 Q57.5313,21.7188 58.1406,20.5781 Q58.7656,19.4219 59.8594,18.8125 Q60.9531,18.1875 62.1875,18.1875 Q62.9219,18.1875 63.5625,18.3594 Q64.2188,18.5156 64.7656,18.875 Z " fill="#000000"/><text fill="#000000" font-family="sans-serif" font-size="14" lengthAdjust="spacing" textLength="99" x="76" y="28.7285">MonoBehaviour</text><line style="stroke:#181818;stroke-width:0.5;" x1="48" x2="177" y1="39" y2="39"/><line style="stroke:#181818;stroke-width:0.5;" x1="48" x2="177" y1="47" y2="47"/></g><!--MD5=[6a4b3e39d382a486f52eb45bc299d39c]
class Font--><g id="elem_Font"><rect fill="#F1F1F1" height="48" id="Font" rx="2.5" ry="2.5" style="stroke:#181818;stroke-width:0.5;" width="61" x="250" y="320"/><ellipse cx="265" cy="336" fill="#ADD1B2" rx="11" ry="11" style="stroke:#181818;stroke-width:1.0;"/><path d="M267.7656,331.875 Q267.9219,331.6563 268.1094,331.5469 Q268.2969,331.4375 268.5156,331.4375 Q268.8906,331.4375 269.125,331.7031 Q269.3594,331.9531 269.3594,332.5625 L269.3594,334.0156 Q269.3594,334.625 269.125,334.8906 Q268.8906,335.1563 268.5156,335.1563 Q268.1719,335.1563 267.9688,334.9531 Q267.7656,334.7656 267.6563,334.25 Q267.6094,333.8906 267.4219,333.7031 Q267.0938,333.3281 266.4844,333.1094 Q265.875,332.8906 265.25,332.8906 Q264.4844,332.8906 263.8438,333.2188 Q263.2188,333.5469 262.7188,334.2969 Q262.2344,335.0469 262.2344,336.0781 L262.2344,337.1719 Q262.2344,338.4063 263.125,339.2344 Q264.0156,340.0469 265.6094,340.0469 Q266.5469,340.0469 267.2031,339.7969 Q267.5938,339.6406 268.0156,339.2031 Q268.2813,338.9375 268.4219,338.8594 Q268.5781,338.7813 268.7813,338.7813 Q269.1094,338.7813 269.3594,339.0469 Q269.625,339.2969 269.625,339.6406 Q269.625,339.9844 269.2813,340.3906 Q268.7813,340.9688 267.9844,341.2969 Q266.9063,341.75 265.6094,341.75 Q264.0938,341.75 262.8906,341.125 Q261.9063,340.625 261.2188,339.5625 Q260.5313,338.4844 260.5313,337.2031 L260.5313,336.0469 Q260.5313,334.7188 261.1406,333.5781 Q261.7656,332.4219 262.8594,331.8125 Q263.9531,331.1875 265.1875,331.1875 Q265.9219,331.1875 266.5625,331.3594 Q267.2188,331.5156 267.7656,331.875 Z " fill="#000000"/><text fill="#000000" font-family="sans-serif" font-size="14" lengthAdjust="spacing" textLength="29" x="279" y="341.7285">Font</text><line style="stroke:#181818;stroke-width:0.5;" x1="251" x2="310" y1="352" y2="352"/><line style="stroke:#181818;stroke-width:0.5;" x1="251" x2="310" y1="360" y2="360"/></g><!--MD5=[341740e9aa5d812618b6219271941dc5]
reverse link MonoBehaviour to Benchmark03--><g id="link_MonoBehaviour_Benchmark03"><path codeLine="13" d="M112.5,75.34 C112.5,87.95 112.5,101.82 112.5,114.8 " fill="none" id="MonoBehaviour-backto-Benchmark03" style="stroke:#181818;stroke-width:1.0;"/><polygon fill="none" points="105.5,75.08,112.5,55.08,119.5,75.08,105.5,75.08" style="stroke:#181818;stroke-width:1.0;"/></g><!--MD5=[b201cd7f3d6538696fb1b3b2dd464565]
link Benchmark03 to BenchmarkType--><g id="link_Benchmark03_BenchmarkType"><path codeLine="14" d="M100.9,216.13 C99.82,233.1 99.5,252.43 99.94,270.8 " fill="none" id="Benchmark03-to-BenchmarkType" style="stroke:#181818;stroke-width:1.0;"/><polygon fill="#181818" points="100.08,275.96,103.8213,266.8494,99.9372,270.962,95.8246,267.0779,100.08,275.96" style="stroke:#181818;stroke-width:1.0;"/><text fill="#000000" font-family="sans-serif" font-size="13" lengthAdjust="spacing" textLength="66" x="29.1122" y="265.1549">Benchmark</text></g><!--MD5=[4eda857408072e4442debb89bda13b14]
reverse link Benchmark03 to BenchmarkType--><g id="link_Benchmark03_BenchmarkType"><path codeLine="16" d="M125.57,231.44 C126.12,245.95 126.14,261.36 125.65,275.96 " fill="none" id="Benchmark03-backto-BenchmarkType" style="stroke:#181818;stroke-width:1.0;"/><ellipse cx="125.1989" cy="224.119" fill="#FFFFFF" rx="8" ry="8" style="stroke:#181818;stroke-width:1.0;"/><line style="stroke:#181818;stroke-width:1.0;" x1="125.6177" x2="124.78" y1="232.1081" y2="216.13"/><line style="stroke:#181818;stroke-width:1.0;" x1="117.2098" x2="133.1879" y1="224.5379" y2="223.7002"/></g><!--MD5=[4a5a2206a740c2458b0263cc7c1efbda]
link Benchmark03 to Font--><g id="link_Benchmark03_Font"><path codeLine="15" d="M171.92,216.26 C192.03,234.23 214.05,255.23 232.5,276 C243.43,288.3 254.23,303.07 262.8,315.61 " fill="none" id="Benchmark03-to-Font" style="stroke:#181818;stroke-width:1.0;"/><polygon fill="#181818" points="265.62,319.77,263.8944,310.0735,262.8202,315.6274,257.2663,314.5532,265.62,319.77" style="stroke:#181818;stroke-width:1.0;"/><text fill="#000000" font-family="sans-serif" font-size="13" lengthAdjust="spacing" textLength="67" x="270.3914" y="309.0512">SourceFont</text></g><!--MD5=[524c7146b8e4ee9eb2ce60c0b0c96bc6]
@startuml
class Benchmark03 {
    + NumberOfSamples : int = 100
    Awake() : void
    Start() : void
}
enum BenchmarkType {
    TMP_SDF_MOBILE= 0,
    TMP_SDF__MOBILE_SSD= 1,
    TMP_SDF= 2,
    TMP_BITMAP_MOBILE= 3,
    TEXTMESH_BITMAP= 4,
}
MonoBehaviour <|- - Benchmark03
Benchmark03 - -> "Benchmark" BenchmarkType
Benchmark03 - -> "SourceFont" Font
Benchmark03 +- - BenchmarkType
@enduml

PlantUML version 1.2022.5(Sat Apr 30 12:55:52 CEST 2022)
(GPL source distribution)
Java Runtime: Java(TM) SE Runtime Environment
JVM: Java HotSpot(TM) 64-Bit Server VM
Default Encoding: UTF-8
Language: en
Country: GB
--></g></svg>