<?xml version="1.0" encoding="UTF-8" standalone="no"?><svg xmlns="http://www.w3.org/2000/svg" xmlns:xlink="http://www.w3.org/1999/xlink" contentStyleType="text/css" height="187px" preserveAspectRatio="none" style="width:284px;height:187px;background:#FFFFFF;" version="1.1" viewBox="0 0 284 187" width="284px" zoomAndPan="magnify"><defs/><g><!--MD5=[ea2efc1d9b156ff3f56a1aa50d0c5280]
class PlayerCollisionManager--><g id="elem_PlayerCollisionManager"><rect codeLine="1" fill="#F1F1F1" height="65.6094" id="PlayerCollisionManager" rx="2.5" ry="2.5" style="stroke:#181818;stroke-width:0.5;" width="270" x="7" y="115"/><ellipse cx="63.25" cy="131" fill="#ADD1B2" rx="11" ry="11" style="stroke:#181818;stroke-width:1.0;"/><path d="M66.0156,126.875 Q66.1719,126.6563 66.3594,126.5469 Q66.5469,126.4375 66.7656,126.4375 Q67.1406,126.4375 67.375,126.7031 Q67.6094,126.9531 67.6094,127.5625 L67.6094,129.0156 Q67.6094,129.625 67.375,129.8906 Q67.1406,130.1563 66.7656,130.1563 Q66.4219,130.1563 66.2188,129.9531 Q66.0156,129.7656 65.9063,129.25 Q65.8594,128.8906 65.6719,128.7031 Q65.3438,128.3281 64.7344,128.1094 Q64.125,127.8906 63.5,127.8906 Q62.7344,127.8906 62.0938,128.2188 Q61.4688,128.5469 60.9688,129.2969 Q60.4844,130.0469 60.4844,131.0781 L60.4844,132.1719 Q60.4844,133.4063 61.375,134.2344 Q62.2656,135.0469 63.8594,135.0469 Q64.7969,135.0469 65.4531,134.7969 Q65.8438,134.6406 66.2656,134.2031 Q66.5313,133.9375 66.6719,133.8594 Q66.8281,133.7813 67.0313,133.7813 Q67.3594,133.7813 67.6094,134.0469 Q67.875,134.2969 67.875,134.6406 Q67.875,134.9844 67.5313,135.3906 Q67.0313,135.9688 66.2344,136.2969 Q65.1563,136.75 63.8594,136.75 Q62.3438,136.75 61.1406,136.125 Q60.1563,135.625 59.4688,134.5625 Q58.7813,133.4844 58.7813,132.2031 L58.7813,131.0469 Q58.7813,129.7188 59.3906,128.5781 Q60.0156,127.4219 61.1094,126.8125 Q62.2031,126.1875 63.4375,126.1875 Q64.1719,126.1875 64.8125,126.3594 Q65.4688,126.5156 66.0156,126.875 Z " fill="#000000"/><text fill="#000000" font-family="sans-serif" font-size="14" lengthAdjust="spacing" textLength="149" x="83.75" y="136.7285">PlayerCollisionManager</text><line style="stroke:#181818;stroke-width:0.5;" x1="8" x2="276" y1="147" y2="147"/><line style="stroke:#181818;stroke-width:0.5;" x1="8" x2="276" y1="155" y2="155"/><rect fill="#F24D5C" height="6" style="stroke:#C82930;stroke-width:1.0;" width="6" x="15" y="163"/><text fill="#000000" font-family="sans-serif" font-size="14" lengthAdjust="spacing" textLength="244" x="27" y="173.5332">OnCollisionEnter(other:Collision) : void</text></g><!--MD5=[83b3cf3d23d77c6f1e1b5291a241bc2a]
class MonoBehaviour--><g id="elem_MonoBehaviour"><rect fill="#F1F1F1" height="48" id="MonoBehaviour" rx="2.5" ry="2.5" style="stroke:#181818;stroke-width:0.5;" width="131" x="76.5" y="7"/><ellipse cx="91.5" cy="23" fill="#ADD1B2" rx="11" ry="11" style="stroke:#181818;stroke-width:1.0;"/><path d="M94.2656,18.875 Q94.4219,18.6563 94.6094,18.5469 Q94.7969,18.4375 95.0156,18.4375 Q95.3906,18.4375 95.625,18.7031 Q95.8594,18.9531 95.8594,19.5625 L95.8594,21.0156 Q95.8594,21.625 95.625,21.8906 Q95.3906,22.1563 95.0156,22.1563 Q94.6719,22.1563 94.4688,21.9531 Q94.2656,21.7656 94.1563,21.25 Q94.1094,20.8906 93.9219,20.7031 Q93.5938,20.3281 92.9844,20.1094 Q92.375,19.8906 91.75,19.8906 Q90.9844,19.8906 90.3438,20.2188 Q89.7188,20.5469 89.2188,21.2969 Q88.7344,22.0469 88.7344,23.0781 L88.7344,24.1719 Q88.7344,25.4063 89.625,26.2344 Q90.5156,27.0469 92.1094,27.0469 Q93.0469,27.0469 93.7031,26.7969 Q94.0938,26.6406 94.5156,26.2031 Q94.7813,25.9375 94.9219,25.8594 Q95.0781,25.7813 95.2813,25.7813 Q95.6094,25.7813 95.8594,26.0469 Q96.125,26.2969 96.125,26.6406 Q96.125,26.9844 95.7813,27.3906 Q95.2813,27.9688 94.4844,28.2969 Q93.4063,28.75 92.1094,28.75 Q90.5938,28.75 89.3906,28.125 Q88.4063,27.625 87.7188,26.5625 Q87.0313,25.4844 87.0313,24.2031 L87.0313,23.0469 Q87.0313,21.7188 87.6406,20.5781 Q88.2656,19.4219 89.3594,18.8125 Q90.4531,18.1875 91.6875,18.1875 Q92.4219,18.1875 93.0625,18.3594 Q93.7188,18.5156 94.2656,18.875 Z " fill="#000000"/><text fill="#000000" font-family="sans-serif" font-size="14" lengthAdjust="spacing" textLength="99" x="105.5" y="28.7285">MonoBehaviour</text><line style="stroke:#181818;stroke-width:0.5;" x1="77.5" x2="206.5" y1="39" y2="39"/><line style="stroke:#181818;stroke-width:0.5;" x1="77.5" x2="206.5" y1="47" y2="47"/></g><!--MD5=[e9ae9514c5260b68c60642525c8375e6]
reverse link MonoBehaviour to PlayerCollisionManager--><g id="link_MonoBehaviour_PlayerCollisionManager"><path codeLine="4" d="M142,75.62 C142,88.56 142,102.51 142,114.61 " fill="none" id="MonoBehaviour-backto-PlayerCollisionManager" style="stroke:#181818;stroke-width:1.0;"/><polygon fill="none" points="135,75.27,142,55.27,149,75.27,135,75.27" style="stroke:#181818;stroke-width:1.0;"/></g><!--MD5=[18cd7ba877f426e7890b26ce2373557a]
@startuml
class PlayerCollisionManager {
    - OnCollisionEnter(other:Collision) : void
}
MonoBehaviour <|- - PlayerCollisionManager
@enduml

PlantUML version 1.2022.5(Sat Apr 30 12:55:52 CEST 2022)
(GPL source distribution)
Java Runtime: Java(TM) SE Runtime Environment
JVM: Java HotSpot(TM) 64-Bit Server VM
Default Encoding: UTF-8
Language: en
Country: GB
--></g></svg>