<?xml version="1.0" encoding="UTF-8" standalone="no"?><svg xmlns="http://www.w3.org/2000/svg" xmlns:xlink="http://www.w3.org/1999/xlink" contentStyleType="text/css" height="222px" preserveAspectRatio="none" style="width:1246px;height:222px;background:#FFFFFF;" version="1.1" viewBox="0 0 1246 222" width="1246px" zoomAndPan="magnify"><defs/><g><!--MD5=[22503b0926c332b365cc2dc922f8cb2b]
class ProjectileManager--><g id="elem_ProjectileManager"><rect codeLine="1" fill="#F1F1F1" height="100.8281" id="ProjectileManager" rx="2.5" ry="2.5" style="stroke:#181818;stroke-width:0.5;" width="828" x="7" y="115"/><ellipse cx="359.75" cy="131" fill="#ADD1B2" rx="11" ry="11" style="stroke:#181818;stroke-width:1.0;"/><path d="M362.5156,126.875 Q362.6719,126.6563 362.8594,126.5469 Q363.0469,126.4375 363.2656,126.4375 Q363.6406,126.4375 363.875,126.7031 Q364.1094,126.9531 364.1094,127.5625 L364.1094,129.0156 Q364.1094,129.625 363.875,129.8906 Q363.6406,130.1563 363.2656,130.1563 Q362.9219,130.1563 362.7188,129.9531 Q362.5156,129.7656 362.4063,129.25 Q362.3594,128.8906 362.1719,128.7031 Q361.8438,128.3281 361.2344,128.1094 Q360.625,127.8906 360,127.8906 Q359.2344,127.8906 358.5938,128.2188 Q357.9688,128.5469 357.4688,129.2969 Q356.9844,130.0469 356.9844,131.0781 L356.9844,132.1719 Q356.9844,133.4063 357.875,134.2344 Q358.7656,135.0469 360.3594,135.0469 Q361.2969,135.0469 361.9531,134.7969 Q362.3438,134.6406 362.7656,134.2031 Q363.0313,133.9375 363.1719,133.8594 Q363.3281,133.7813 363.5313,133.7813 Q363.8594,133.7813 364.1094,134.0469 Q364.375,134.2969 364.375,134.6406 Q364.375,134.9844 364.0313,135.3906 Q363.5313,135.9688 362.7344,136.2969 Q361.6563,136.75 360.3594,136.75 Q358.8438,136.75 357.6406,136.125 Q356.6563,135.625 355.9688,134.5625 Q355.2813,133.4844 355.2813,132.2031 L355.2813,131.0469 Q355.2813,129.7188 355.8906,128.5781 Q356.5156,127.4219 357.6094,126.8125 Q358.7031,126.1875 359.9375,126.1875 Q360.6719,126.1875 361.3125,126.3594 Q361.9688,126.5156 362.5156,126.875 Z " fill="#000000"/><text fill="#000000" font-family="sans-serif" font-size="14" lengthAdjust="spacing" textLength="114" x="380.25" y="136.7285">ProjectileManager</text><line style="stroke:#181818;stroke-width:0.5;" x1="8" x2="834" y1="147" y2="147"/><line style="stroke:#181818;stroke-width:0.5;" x1="8" x2="834" y1="155" y2="155"/><rect fill="#F24D5C" height="6" style="stroke:#C82930;stroke-width:1.0;" width="6" x="15" y="163"/><text fill="#000000" font-family="sans-serif" font-size="14" lengthAdjust="spacing" textLength="93" x="27" y="173.5332">Update() : void</text><ellipse cx="18" cy="183.6094" fill="#84BE84" rx="3" ry="3" style="stroke:#038048;stroke-width:1.0;"/><text fill="#000000" font-family="sans-serif" font-size="14" lengthAdjust="spacing" text-decoration="underline" textLength="691" x="27" y="191.1426">shootBullet(bulletStart:List&lt;float&gt;, bulletAngle:List&lt;float&gt;, velocity:List&lt;float&gt;, type:string, shooter:string) : void</text><ellipse cx="18" cy="201.2188" fill="#84BE84" rx="3" ry="3" style="stroke:#038048;stroke-width:1.0;"/><text fill="#000000" font-family="sans-serif" font-size="14" lengthAdjust="spacing" text-decoration="underline" textLength="802" x="27" y="208.752">shootRocket(startPosition:List&lt;float&gt;, facingAngle:List&lt;float&gt;, velocity:List&lt;float&gt;, type:string, shooter:string, target:string) : void</text></g><!--MD5=[e644022de7dea015dd09463c37421447]
class List`1--><g id="elem_List`1"><rect codeLine="6" fill="#F1F1F1" height="48" id="List`1" rx="2.5" ry="2.5" style="stroke:#181818;stroke-width:0.5;" width="78" x="870" y="141.5"/><ellipse cx="885" cy="157.5" fill="#ADD1B2" rx="11" ry="11" style="stroke:#181818;stroke-width:1.0;"/><path d="M887.7656,153.375 Q887.9219,153.1563 888.1094,153.0469 Q888.2969,152.9375 888.5156,152.9375 Q888.8906,152.9375 889.125,153.2031 Q889.3594,153.4531 889.3594,154.0625 L889.3594,155.5156 Q889.3594,156.125 889.125,156.3906 Q888.8906,156.6563 888.5156,156.6563 Q888.1719,156.6563 887.9688,156.4531 Q887.7656,156.2656 887.6563,155.75 Q887.6094,155.3906 887.4219,155.2031 Q887.0938,154.8281 886.4844,154.6094 Q885.875,154.3906 885.25,154.3906 Q884.4844,154.3906 883.8438,154.7188 Q883.2188,155.0469 882.7188,155.7969 Q882.2344,156.5469 882.2344,157.5781 L882.2344,158.6719 Q882.2344,159.9063 883.125,160.7344 Q884.0156,161.5469 885.6094,161.5469 Q886.5469,161.5469 887.2031,161.2969 Q887.5938,161.1406 888.0156,160.7031 Q888.2813,160.4375 888.4219,160.3594 Q888.5781,160.2813 888.7813,160.2813 Q889.1094,160.2813 889.3594,160.5469 Q889.625,160.7969 889.625,161.1406 Q889.625,161.4844 889.2813,161.8906 Q888.7813,162.4688 887.9844,162.7969 Q886.9063,163.25 885.6094,163.25 Q884.0938,163.25 882.8906,162.625 Q881.9063,162.125 881.2188,161.0625 Q880.5313,159.9844 880.5313,158.7031 L880.5313,157.5469 Q880.5313,156.2188 881.1406,155.0781 Q881.7656,153.9219 882.8594,153.3125 Q883.9531,152.6875 885.1875,152.6875 Q885.9219,152.6875 886.5625,152.8594 Q887.2188,153.0156 887.7656,153.375 Z " fill="#000000"/><text fill="#000000" font-family="sans-serif" font-size="14" lengthAdjust="spacing" textLength="35" x="899" y="163.2285">List`1</text><rect fill="#FFFFFF" height="17.0938" style="stroke:#000000;stroke-width:1.0;stroke-dasharray:2.0,2.0;" width="9" x="942" y="138.5"/><text fill="#000000" font-family="sans-serif" font-size="12" font-style="italic" lengthAdjust="spacing" textLength="7" x="943" y="151.957">T</text><line style="stroke:#181818;stroke-width:0.5;" x1="871" x2="947" y1="173.5" y2="173.5"/><line style="stroke:#181818;stroke-width:0.5;" x1="871" x2="947" y1="181.5" y2="181.5"/></g><!--MD5=[83b3cf3d23d77c6f1e1b5291a241bc2a]
class MonoBehaviour--><g id="elem_MonoBehaviour"><rect fill="#F1F1F1" height="48" id="MonoBehaviour" rx="2.5" ry="2.5" style="stroke:#181818;stroke-width:0.5;" width="131" x="355.5" y="7"/><ellipse cx="370.5" cy="23" fill="#ADD1B2" rx="11" ry="11" style="stroke:#181818;stroke-width:1.0;"/><path d="M373.2656,18.875 Q373.4219,18.6563 373.6094,18.5469 Q373.7969,18.4375 374.0156,18.4375 Q374.3906,18.4375 374.625,18.7031 Q374.8594,18.9531 374.8594,19.5625 L374.8594,21.0156 Q374.8594,21.625 374.625,21.8906 Q374.3906,22.1563 374.0156,22.1563 Q373.6719,22.1563 373.4688,21.9531 Q373.2656,21.7656 373.1563,21.25 Q373.1094,20.8906 372.9219,20.7031 Q372.5938,20.3281 371.9844,20.1094 Q371.375,19.8906 370.75,19.8906 Q369.9844,19.8906 369.3438,20.2188 Q368.7188,20.5469 368.2188,21.2969 Q367.7344,22.0469 367.7344,23.0781 L367.7344,24.1719 Q367.7344,25.4063 368.625,26.2344 Q369.5156,27.0469 371.1094,27.0469 Q372.0469,27.0469 372.7031,26.7969 Q373.0938,26.6406 373.5156,26.2031 Q373.7813,25.9375 373.9219,25.8594 Q374.0781,25.7813 374.2813,25.7813 Q374.6094,25.7813 374.8594,26.0469 Q375.125,26.2969 375.125,26.6406 Q375.125,26.9844 374.7813,27.3906 Q374.2813,27.9688 373.4844,28.2969 Q372.4063,28.75 371.1094,28.75 Q369.5938,28.75 368.3906,28.125 Q367.4063,27.625 366.7188,26.5625 Q366.0313,25.4844 366.0313,24.2031 L366.0313,23.0469 Q366.0313,21.7188 366.6406,20.5781 Q367.2656,19.4219 368.3594,18.8125 Q369.4531,18.1875 370.6875,18.1875 Q371.4219,18.1875 372.0625,18.3594 Q372.7188,18.5156 373.2656,18.875 Z " fill="#000000"/><text fill="#000000" font-family="sans-serif" font-size="14" lengthAdjust="spacing" textLength="99" x="384.5" y="28.7285">MonoBehaviour</text><line style="stroke:#181818;stroke-width:0.5;" x1="356.5" x2="485.5" y1="39" y2="39"/><line style="stroke:#181818;stroke-width:0.5;" x1="356.5" x2="485.5" y1="47" y2="47"/></g><!--MD5=[63711567a954f1e59596fb7db87271da]
reverse link MonoBehaviour to ProjectileManager--><g id="link_MonoBehaviour_ProjectileManager"><path codeLine="8" d="M421,75.34 C421,87.95 421,101.82 421,114.8 " fill="none" id="MonoBehaviour-backto-ProjectileManager" style="stroke:#181818;stroke-width:1.0;"/><polygon fill="none" points="414,75.08,421,55.08,428,75.08,414,75.08" style="stroke:#181818;stroke-width:1.0;"/></g><!--MD5=[c8cf70f749225595e6cceae1fb77ee5c]
link ProjectileManager to List`1--><g id="link_ProjectileManager_List`1"><path codeLine="9" d="M846.8396,182.3359 C846.8396,182.3359 854.01,180.65 857.09,179.9 " fill="none" id="ProjectileManager-List`1" style="stroke:#181818;stroke-width:1.0;"/><polygon fill="#181818" points="869.76,176.7,860.0545,175.0255,864.9122,177.9243,862.0134,182.782,869.76,176.7" style="stroke:#181818;stroke-width:1.0;"/><line style="stroke:#181818;stroke-width:1.0;" x1="864.9122" x2="857.155" y1="177.9243" y2="179.885"/><polygon fill="none" points="835.13,184.96,841.8595,187.5511,846.8396,182.3359,840.1101,179.7448,835.13,184.96" style="stroke:#181818;stroke-width:1.0;"/><text fill="#000000" font-family="sans-serif" font-size="13" lengthAdjust="spacing" textLength="280" x="957.925" y="207.1489">bulletInformations&lt;Dictionary&lt;string, dynamic&gt;&gt;</text></g><!--MD5=[c8cf70f749225595e6cceae1fb77ee5c]
link ProjectileManager to List`1--><g id="link_ProjectileManager_List`1"><path codeLine="10" d="M846.8396,148.6641 C846.8396,148.6641 854.01,150.35 857.09,151.1 " fill="none" id="ProjectileManager-List`1-1" style="stroke:#181818;stroke-width:1.0;"/><polygon fill="#181818" points="869.76,154.3,862.0134,148.218,864.9122,153.0757,860.0545,155.9745,869.76,154.3" style="stroke:#181818;stroke-width:1.0;"/><line style="stroke:#181818;stroke-width:1.0;" x1="864.9122" x2="857.155" y1="153.0757" y2="151.115"/><polygon fill="none" points="835.13,146.04,840.1101,151.2552,846.8396,148.6641,841.8595,143.4489,835.13,146.04" style="stroke:#181818;stroke-width:1.0;"/><text fill="#000000" font-family="sans-serif" font-size="13" lengthAdjust="spacing" textLength="285" x="954.9495" y="136.1001">rocketInformations&lt;Dictionary&lt;string, dynamic&gt;&gt;</text></g><!--MD5=[8cac501358ebc8613639d4b6cabd00ba]
@startuml
class ProjectileManager {
    - Update() : void
    + {static} shootBullet(bulletStart:List<float>, bulletAngle:List<float>, velocity:List<float>, type:string, shooter:string) : void
    + {static} shootRocket(startPosition:List<float>, facingAngle:List<float>, velocity:List<float>, type:string, shooter:string, target:string) : void
}
class "List`1"<T> {
}
MonoBehaviour <|- - ProjectileManager
ProjectileManager o-> "bulletInformations<Dictionary<string, dynamic>>" "List`1"
ProjectileManager o-> "rocketInformations<Dictionary<string, dynamic>>" "List`1"
@enduml

PlantUML version 1.2022.5(Sat Apr 30 12:55:52 CEST 2022)
(GPL source distribution)
Java Runtime: Java(TM) SE Runtime Environment
JVM: Java HotSpot(TM) 64-Bit Server VM
Default Encoding: UTF-8
Language: en
Country: GB
--></g></svg>