<?xml version="1.0" encoding="UTF-8" standalone="no"?><svg xmlns="http://www.w3.org/2000/svg" xmlns:xlink="http://www.w3.org/1999/xlink" contentStyleType="text/css" height="665px" preserveAspectRatio="none" style="width:744px;height:665px;background:#FFFFFF;" version="1.1" viewBox="0 0 744 665" width="744px" zoomAndPan="magnify"><defs/><g><!--MD5=[ee4319386a2911cf17b83cbc00b60755]
class CameraController--><g id="elem_CameraController"><rect codeLine="1" fill="#F1F1F1" height="435.4063" id="CameraController" rx="2.5" ry="2.5" style="stroke:#181818;stroke-width:0.5;" width="455" x="7" y="115"/><ellipse cx="174.25" cy="131" fill="#ADD1B2" rx="11" ry="11" style="stroke:#181818;stroke-width:1.0;"/><path d="M177.0156,126.875 Q177.1719,126.6563 177.3594,126.5469 Q177.5469,126.4375 177.7656,126.4375 Q178.1406,126.4375 178.375,126.7031 Q178.6094,126.9531 178.6094,127.5625 L178.6094,129.0156 Q178.6094,129.625 178.375,129.8906 Q178.1406,130.1563 177.7656,130.1563 Q177.4219,130.1563 177.2188,129.9531 Q177.0156,129.7656 176.9063,129.25 Q176.8594,128.8906 176.6719,128.7031 Q176.3438,128.3281 175.7344,128.1094 Q175.125,127.8906 174.5,127.8906 Q173.7344,127.8906 173.0938,128.2188 Q172.4688,128.5469 171.9688,129.2969 Q171.4844,130.0469 171.4844,131.0781 L171.4844,132.1719 Q171.4844,133.4063 172.375,134.2344 Q173.2656,135.0469 174.8594,135.0469 Q175.7969,135.0469 176.4531,134.7969 Q176.8438,134.6406 177.2656,134.2031 Q177.5313,133.9375 177.6719,133.8594 Q177.8281,133.7813 178.0313,133.7813 Q178.3594,133.7813 178.6094,134.0469 Q178.875,134.2969 178.875,134.6406 Q178.875,134.9844 178.5313,135.3906 Q178.0313,135.9688 177.2344,136.2969 Q176.1563,136.75 174.8594,136.75 Q173.3438,136.75 172.1406,136.125 Q171.1563,135.625 170.4688,134.5625 Q169.7813,133.4844 169.7813,132.2031 L169.7813,131.0469 Q169.7813,129.7188 170.3906,128.5781 Q171.0156,127.4219 172.1094,126.8125 Q173.2031,126.1875 174.4375,126.1875 Q175.1719,126.1875 175.8125,126.3594 Q176.4688,126.5156 177.0156,126.875 Z " fill="#000000"/><text fill="#000000" font-family="sans-serif" font-size="14" lengthAdjust="spacing" textLength="112" x="194.75" y="136.7285">CameraController</text><line style="stroke:#181818;stroke-width:0.5;" x1="8" x2="461" y1="147" y2="147"/><ellipse cx="18" cy="158" fill="none" rx="3" ry="3" style="stroke:#038048;stroke-width:1.0;"/><text fill="#000000" font-family="sans-serif" font-size="14" lengthAdjust="spacing" textLength="182" x="27" y="165.5332">FollowDistance : float = 30.0f</text><ellipse cx="18" cy="175.6094" fill="none" rx="3" ry="3" style="stroke:#038048;stroke-width:1.0;"/><text fill="#000000" font-family="sans-serif" font-size="14" lengthAdjust="spacing" textLength="215" x="27" y="183.1426">MaxFollowDistance : float = 100.0f</text><ellipse cx="18" cy="193.2188" fill="none" rx="3" ry="3" style="stroke:#038048;stroke-width:1.0;"/><text fill="#000000" font-family="sans-serif" font-size="14" lengthAdjust="spacing" textLength="196" x="27" y="200.752">MinFollowDistance : float = 2.0f</text><ellipse cx="18" cy="210.8281" fill="none" rx="3" ry="3" style="stroke:#038048;stroke-width:1.0;"/><text fill="#000000" font-family="sans-serif" font-size="14" lengthAdjust="spacing" textLength="181" x="27" y="218.3613">ElevationAngle : float = 30.0f</text><ellipse cx="18" cy="228.4375" fill="none" rx="3" ry="3" style="stroke:#038048;stroke-width:1.0;"/><text fill="#000000" font-family="sans-serif" font-size="14" lengthAdjust="spacing" textLength="206" x="27" y="235.9707">MaxElevationAngle : float = 85.0f</text><ellipse cx="18" cy="246.0469" fill="none" rx="3" ry="3" style="stroke:#038048;stroke-width:1.0;"/><text fill="#000000" font-family="sans-serif" font-size="14" lengthAdjust="spacing" textLength="183" x="27" y="253.5801">MinElevationAngle : float = 0f</text><ellipse cx="18" cy="263.6563" fill="none" rx="3" ry="3" style="stroke:#038048;stroke-width:1.0;"/><text fill="#000000" font-family="sans-serif" font-size="14" lengthAdjust="spacing" textLength="145" x="27" y="271.1895">OrbitalAngle : float = 0f</text><ellipse cx="18" cy="281.2656" fill="none" rx="3" ry="3" style="stroke:#038048;stroke-width:1.0;"/><text fill="#000000" font-family="sans-serif" font-size="14" lengthAdjust="spacing" textLength="212" x="27" y="288.7988">MovementSmoothing : bool = true</text><ellipse cx="18" cy="298.875" fill="none" rx="3" ry="3" style="stroke:#038048;stroke-width:1.0;"/><text fill="#000000" font-family="sans-serif" font-size="14" lengthAdjust="spacing" textLength="205" x="27" y="306.4082">RotationSmoothing : bool = false</text><rect fill="none" height="6" style="stroke:#C82930;stroke-width:1.0;" width="6" x="15" y="313.4844"/><text fill="#000000" font-family="sans-serif" font-size="14" lengthAdjust="spacing" textLength="160" x="27" y="324.0176">previousSmoothing : bool</text><ellipse cx="18" cy="334.0938" fill="none" rx="3" ry="3" style="stroke:#038048;stroke-width:1.0;"/><text fill="#000000" font-family="sans-serif" font-size="14" lengthAdjust="spacing" textLength="243" x="27" y="341.627">MovementSmoothingValue : float = 25f</text><ellipse cx="18" cy="351.7031" fill="none" rx="3" ry="3" style="stroke:#038048;stroke-width:1.0;"/><text fill="#000000" font-family="sans-serif" font-size="14" lengthAdjust="spacing" textLength="235" x="27" y="359.2363">RotationSmoothingValue : float = 5.0f</text><ellipse cx="18" cy="369.3125" fill="none" rx="3" ry="3" style="stroke:#038048;stroke-width:1.0;"/><text fill="#000000" font-family="sans-serif" font-size="14" lengthAdjust="spacing" textLength="176" x="27" y="376.8457">MoveSensitivity : float = 2.0f</text><rect fill="none" height="6" style="stroke:#C82930;stroke-width:1.0;" width="6" x="15" y="383.9219"/><text fill="#000000" font-family="sans-serif" font-size="14" lengthAdjust="spacing" textLength="89" x="27" y="394.4551">mouseX : float</text><rect fill="none" height="6" style="stroke:#C82930;stroke-width:1.0;" width="6" x="15" y="401.5313"/><text fill="#000000" font-family="sans-serif" font-size="14" lengthAdjust="spacing" textLength="90" x="27" y="412.0645">mouseY : float</text><rect fill="none" height="6" style="stroke:#C82930;stroke-width:1.0;" width="6" x="15" y="419.1406"/><text fill="#000000" font-family="sans-serif" font-size="14" lengthAdjust="spacing" textLength="121" x="27" y="429.6738">mouseWheel : float</text><rect fill="none" height="6" style="stroke:#C82930;stroke-width:1.0;" width="6" x="15" y="436.75"/><text fill="#000000" font-family="sans-serif" font-size="14" lengthAdjust="spacing" textLength="429" x="27" y="447.2832">«const» event_SmoothingValue : string = "Slider - Smoothing Value"</text><rect fill="none" height="6" style="stroke:#C82930;stroke-width:1.0;" width="6" x="15" y="454.3594"/><text fill="#000000" font-family="sans-serif" font-size="14" lengthAdjust="spacing" textLength="403" x="27" y="464.8926">«const» event_FollowDistance : string = "Slider - Camera Zoom"</text><line style="stroke:#181818;stroke-width:0.5;" x1="8" x2="461" y1="471.9688" y2="471.9688"/><text fill="#000000" font-family="sans-serif" font-size="14" lengthAdjust="spacing" textLength="89" x="13" y="490.502">Awake() : void</text><text fill="#000000" font-family="sans-serif" font-size="14" lengthAdjust="spacing" textLength="78" x="13" y="508.1113">Start() : void</text><text fill="#000000" font-family="sans-serif" font-size="14" lengthAdjust="spacing" textLength="121" x="13" y="525.7207">LateUpdate() : void</text><text fill="#000000" font-family="sans-serif" font-size="14" lengthAdjust="spacing" textLength="142" x="13" y="543.3301">GetPlayerInput() : void</text></g><!--MD5=[7b2093a26bd32f032a310a67e5af3c93]
class CameraModes--><g id="elem_CameraModes"><rect codeLine="25" fill="#F1F1F1" height="100.8281" id="CameraModes" rx="2.5" ry="2.5" style="stroke:#181818;stroke-width:0.5;" width="124" x="613.5" y="282"/><ellipse cx="628.5" cy="298" fill="#EB937F" rx="11" ry="11" style="stroke:#181818;stroke-width:1.0;"/><path d="M627.3594,298.7969 L627.3594,301.2969 L631.6875,301.2969 L631.6875,300.375 Q631.6875,299.7656 631.9219,299.5 Q632.1719,299.2344 632.5469,299.2344 Q632.9219,299.2344 633.1563,299.5 Q633.3906,299.7656 633.3906,300.375 L633.3906,303 L625.3906,303 Q624.7656,303 624.5,302.7656 Q624.25,302.5313 624.25,302.1406 Q624.25,301.7656 624.5156,301.5313 Q624.7813,301.2969 625.3906,301.2969 L625.6563,301.2969 L625.6563,294.6406 L625.3906,294.6406 Q624.7656,294.6406 624.5,294.4063 Q624.25,294.1719 624.25,293.7813 Q624.25,293.4063 624.5,293.1719 Q624.7656,292.9375 625.3906,292.9375 L633.0156,292.9375 L633.0156,295.5313 Q633.0156,296.1406 632.7813,296.4063 Q632.5625,296.6563 632.1719,296.6563 Q631.7969,296.6563 631.5625,296.4063 Q631.3281,296.1406 631.3281,295.5313 L631.3281,294.6406 L627.3594,294.6406 L627.3594,297.0938 L628.8438,297.0938 Q628.8438,296.4375 628.9688,296.25 Q629.2344,295.8438 629.7031,295.8438 Q630.0781,295.8438 630.3125,296.1094 Q630.5469,296.3594 630.5469,296.9688 L630.5469,298.9375 Q630.5469,299.4844 630.4219,299.6719 Q630.1563,300.0625 629.7031,300.0625 Q629.2344,300.0625 628.9688,299.6563 Q628.8438,299.4688 628.8438,298.7969 L627.3594,298.7969 Z " fill="#000000"/><text fill="#000000" font-family="sans-serif" font-size="14" lengthAdjust="spacing" textLength="92" x="642.5" y="303.7285">CameraModes</text><line style="stroke:#181818;stroke-width:0.5;" x1="614.5" x2="736.5" y1="314" y2="314"/><text fill="#000000" font-family="sans-serif" font-size="14" lengthAdjust="spacing" textLength="44" x="619.5" y="332.5332">Follow,</text><text fill="#000000" font-family="sans-serif" font-size="14" lengthAdjust="spacing" textLength="60" x="619.5" y="350.1426">Isometric,</text><text fill="#000000" font-family="sans-serif" font-size="14" lengthAdjust="spacing" textLength="34" x="619.5" y="367.752">Free,</text><line style="stroke:#181818;stroke-width:0.5;" x1="614.5" x2="736.5" y1="374.8281" y2="374.8281"/></g><!--MD5=[83b3cf3d23d77c6f1e1b5291a241bc2a]
class MonoBehaviour--><g id="elem_MonoBehaviour"><rect fill="#F1F1F1" height="48" id="MonoBehaviour" rx="2.5" ry="2.5" style="stroke:#181818;stroke-width:0.5;" width="131" x="169" y="7"/><ellipse cx="184" cy="23" fill="#ADD1B2" rx="11" ry="11" style="stroke:#181818;stroke-width:1.0;"/><path d="M186.7656,18.875 Q186.9219,18.6563 187.1094,18.5469 Q187.2969,18.4375 187.5156,18.4375 Q187.8906,18.4375 188.125,18.7031 Q188.3594,18.9531 188.3594,19.5625 L188.3594,21.0156 Q188.3594,21.625 188.125,21.8906 Q187.8906,22.1563 187.5156,22.1563 Q187.1719,22.1563 186.9688,21.9531 Q186.7656,21.7656 186.6563,21.25 Q186.6094,20.8906 186.4219,20.7031 Q186.0938,20.3281 185.4844,20.1094 Q184.875,19.8906 184.25,19.8906 Q183.4844,19.8906 182.8438,20.2188 Q182.2188,20.5469 181.7188,21.2969 Q181.2344,22.0469 181.2344,23.0781 L181.2344,24.1719 Q181.2344,25.4063 182.125,26.2344 Q183.0156,27.0469 184.6094,27.0469 Q185.5469,27.0469 186.2031,26.7969 Q186.5938,26.6406 187.0156,26.2031 Q187.2813,25.9375 187.4219,25.8594 Q187.5781,25.7813 187.7813,25.7813 Q188.1094,25.7813 188.3594,26.0469 Q188.625,26.2969 188.625,26.6406 Q188.625,26.9844 188.2813,27.3906 Q187.7813,27.9688 186.9844,28.2969 Q185.9063,28.75 184.6094,28.75 Q183.0938,28.75 181.8906,28.125 Q180.9063,27.625 180.2188,26.5625 Q179.5313,25.4844 179.5313,24.2031 L179.5313,23.0469 Q179.5313,21.7188 180.1406,20.5781 Q180.7656,19.4219 181.8594,18.8125 Q182.9531,18.1875 184.1875,18.1875 Q184.9219,18.1875 185.5625,18.3594 Q186.2188,18.5156 186.7656,18.875 Z " fill="#000000"/><text fill="#000000" font-family="sans-serif" font-size="14" lengthAdjust="spacing" textLength="99" x="198" y="28.7285">MonoBehaviour</text><line style="stroke:#181818;stroke-width:0.5;" x1="170" x2="299" y1="39" y2="39"/><line style="stroke:#181818;stroke-width:0.5;" x1="170" x2="299" y1="47" y2="47"/></g><!--MD5=[004b1d6c4ca8aad4ba8b586a335ed4f3]
class Transform--><g id="elem_Transform"><rect fill="#F1F1F1" height="48" id="Transform" rx="2.5" ry="2.5" style="stroke:#181818;stroke-width:0.5;" width="97" x="186" y="610"/><ellipse cx="201" cy="626" fill="#ADD1B2" rx="11" ry="11" style="stroke:#181818;stroke-width:1.0;"/><path d="M203.7656,621.875 Q203.9219,621.6563 204.1094,621.5469 Q204.2969,621.4375 204.5156,621.4375 Q204.8906,621.4375 205.125,621.7031 Q205.3594,621.9531 205.3594,622.5625 L205.3594,624.0156 Q205.3594,624.625 205.125,624.8906 Q204.8906,625.1563 204.5156,625.1563 Q204.1719,625.1563 203.9688,624.9531 Q203.7656,624.7656 203.6563,624.25 Q203.6094,623.8906 203.4219,623.7031 Q203.0938,623.3281 202.4844,623.1094 Q201.875,622.8906 201.25,622.8906 Q200.4844,622.8906 199.8438,623.2188 Q199.2188,623.5469 198.7188,624.2969 Q198.2344,625.0469 198.2344,626.0781 L198.2344,627.1719 Q198.2344,628.4063 199.125,629.2344 Q200.0156,630.0469 201.6094,630.0469 Q202.5469,630.0469 203.2031,629.7969 Q203.5938,629.6406 204.0156,629.2031 Q204.2813,628.9375 204.4219,628.8594 Q204.5781,628.7813 204.7813,628.7813 Q205.1094,628.7813 205.3594,629.0469 Q205.625,629.2969 205.625,629.6406 Q205.625,629.9844 205.2813,630.3906 Q204.7813,630.9688 203.9844,631.2969 Q202.9063,631.75 201.6094,631.75 Q200.0938,631.75 198.8906,631.125 Q197.9063,630.625 197.2188,629.5625 Q196.5313,628.4844 196.5313,627.2031 L196.5313,626.0469 Q196.5313,624.7188 197.1406,623.5781 Q197.7656,622.4219 198.8594,621.8125 Q199.9531,621.1875 201.1875,621.1875 Q201.9219,621.1875 202.5625,621.3594 Q203.2188,621.5156 203.7656,621.875 Z " fill="#000000"/><text fill="#000000" font-family="sans-serif" font-size="14" lengthAdjust="spacing" textLength="65" x="215" y="631.7285">Transform</text><line style="stroke:#181818;stroke-width:0.5;" x1="187" x2="282" y1="642" y2="642"/><line style="stroke:#181818;stroke-width:0.5;" x1="187" x2="282" y1="650" y2="650"/></g><!--MD5=[65d619c042c23702cef2ca07d67b1cf6]
class Vector3--><g id="elem_Vector3"><rect fill="#F1F1F1" height="48" id="Vector3" rx="2.5" ry="2.5" style="stroke:#181818;stroke-width:0.5;" width="81" x="497" y="308.5"/><ellipse cx="512" cy="324.5" fill="#ADD1B2" rx="11" ry="11" style="stroke:#181818;stroke-width:1.0;"/><path d="M514.7656,320.375 Q514.9219,320.1563 515.1094,320.0469 Q515.2969,319.9375 515.5156,319.9375 Q515.8906,319.9375 516.125,320.2031 Q516.3594,320.4531 516.3594,321.0625 L516.3594,322.5156 Q516.3594,323.125 516.125,323.3906 Q515.8906,323.6563 515.5156,323.6563 Q515.1719,323.6563 514.9688,323.4531 Q514.7656,323.2656 514.6563,322.75 Q514.6094,322.3906 514.4219,322.2031 Q514.0938,321.8281 513.4844,321.6094 Q512.875,321.3906 512.25,321.3906 Q511.4844,321.3906 510.8438,321.7188 Q510.2188,322.0469 509.7188,322.7969 Q509.2344,323.5469 509.2344,324.5781 L509.2344,325.6719 Q509.2344,326.9063 510.125,327.7344 Q511.0156,328.5469 512.6094,328.5469 Q513.5469,328.5469 514.2031,328.2969 Q514.5938,328.1406 515.0156,327.7031 Q515.2813,327.4375 515.4219,327.3594 Q515.5781,327.2813 515.7813,327.2813 Q516.1094,327.2813 516.3594,327.5469 Q516.625,327.7969 516.625,328.1406 Q516.625,328.4844 516.2813,328.8906 Q515.7813,329.4688 514.9844,329.7969 Q513.9063,330.25 512.6094,330.25 Q511.0938,330.25 509.8906,329.625 Q508.9063,329.125 508.2188,328.0625 Q507.5313,326.9844 507.5313,325.7031 L507.5313,324.5469 Q507.5313,323.2188 508.1406,322.0781 Q508.7656,320.9219 509.8594,320.3125 Q510.9531,319.6875 512.1875,319.6875 Q512.9219,319.6875 513.5625,319.8594 Q514.2188,320.0156 514.7656,320.375 Z " fill="#000000"/><text fill="#000000" font-family="sans-serif" font-size="14" lengthAdjust="spacing" textLength="49" x="526" y="330.2285">Vector3</text><line style="stroke:#181818;stroke-width:0.5;" x1="498" x2="577" y1="340.5" y2="340.5"/><line style="stroke:#181818;stroke-width:0.5;" x1="498" x2="577" y1="348.5" y2="348.5"/></g><!--MD5=[7f93bdb6007512fd3bad16b08750be2c]
reverse link MonoBehaviour to CameraController--><g id="link_MonoBehaviour_CameraController"><path codeLine="30" d="M234.5,75.03 C234.5,86.69 234.5,100.16 234.5,114.68 " fill="none" id="MonoBehaviour-backto-CameraController" style="stroke:#181818;stroke-width:1.0;"/><polygon fill="none" points="227.5,75,234.5,55,241.5,75,227.5,75" style="stroke:#181818;stroke-width:1.0;"/></g><!--MD5=[cd3cc5a7e8d88a01e16466b7b0cacd5b]
link CameraController to Transform--><g id="link_CameraController_Transform"><path codeLine="31" d="M210.75,550.37 C212.44,571.55 214.98,590.48 218.38,604.85 " fill="none" id="CameraController-to-Transform" style="stroke:#181818;stroke-width:1.0;"/><polygon fill="#181818" points="219.67,609.94,221.3341,600.2327,218.4405,605.0935,213.5797,602.1999,219.67,609.94" style="stroke:#181818;stroke-width:1.0;"/><text fill="#000000" font-family="sans-serif" font-size="13" lengthAdjust="spacing" textLength="100" x="103.0573" y="599.2648">cameraTransform</text></g><!--MD5=[cd3cc5a7e8d88a01e16466b7b0cacd5b]
link CameraController to Transform--><g id="link_CameraController_Transform"><path codeLine="32" d="M234.5,550.37 C234.5,571.55 234.5,590.48 234.5,604.85 " fill="none" id="CameraController-to-Transform-1" style="stroke:#181818;stroke-width:1.0;"/><polygon fill="#181818" points="234.5,609.94,238.5,600.94,234.5,604.94,230.5,600.94,234.5,609.94" style="stroke:#181818;stroke-width:1.0;"/><text fill="#000000" font-family="sans-serif" font-size="13" lengthAdjust="spacing" textLength="79" x="244.6219" y="599.2648">dummyTarget</text></g><!--MD5=[cd3cc5a7e8d88a01e16466b7b0cacd5b]
link CameraController to Transform--><g id="link_CameraController_Transform"><path codeLine="33" d="M258.25,550.37 C256.56,571.55 254.02,590.48 250.62,604.85 " fill="none" id="CameraController-to-Transform-2" style="stroke:#181818;stroke-width:1.0;"/><polygon fill="#181818" points="249.33,609.94,255.4203,602.1999,250.5595,605.0935,247.6659,600.2327,249.33,609.94" style="stroke:#181818;stroke-width:1.0;"/><text fill="#000000" font-family="sans-serif" font-size="13" lengthAdjust="spacing" textLength="81" x="291.5191" y="611.3234">CameraTarget</text></g><!--MD5=[f3bb312173c3cd5ec1a37b67c1620446]
link CameraController to CameraModes--><g id="link_CameraController_CameraModes"><path codeLine="34" d="M431.127,108.379 C431.127,108.379 533.43,66.05 583.83,95 C643.92,129.51 664.79,210.84 671.94,268.69 " fill="none" id="CameraController-CameraModes" style="stroke:#181818;stroke-width:1.0;"/><polygon fill="#181818" points="673.38,281.74,676.3765,272.358,672.8357,276.7697,668.424,273.2289,673.38,281.74" style="stroke:#181818;stroke-width:1.0;"/><line style="stroke:#181818;stroke-width:1.0;" x1="672.8357" x2="671.96" y1="276.7697" y2="268.825"/><polygon fill="none" points="421.06,114.91,428.2705,115.0002,431.127,108.379,423.9165,108.2888,421.06,114.91" style="stroke:#181818;stroke-width:1.0;"/><text fill="#000000" font-family="sans-serif" font-size="13" lengthAdjust="spacing" textLength="77" x="590.6678" y="271.0088">CameraMode</text></g><!--MD5=[fcd3156e4a1e03612385c6d3dd1c2c7c]
reverse link CameraController to CameraModes--><g id="link_CameraController_CameraModes"><path codeLine="38" d="M405.44,105.03 C457.1,63.49 515.26,42.31 572.17,75 C644.43,116.51 666.21,219.51 672.75,281.94 " fill="none" id="CameraController-backto-CameraModes" style="stroke:#181818;stroke-width:1.0;"/><ellipse cx="399.957" cy="109.6461" fill="#FFFFFF" rx="8" ry="8" style="stroke:#181818;stroke-width:1.0;"/><line style="stroke:#181818;stroke-width:1.0;" x1="406.084" x2="393.83" y1="104.5021" y2="114.79"/><line style="stroke:#181818;stroke-width:1.0;" x1="405.1009" x2="394.8131" y1="115.7731" y2="103.5191"/></g><!--MD5=[f917b4632d0e26035378ebba8fec2646]
link CameraController to Vector3--><g id="link_CameraController_Vector3"><path codeLine="35" d="M469.9567,445.4932 C469.9567,445.4932 503.48,399.44 519.83,368.33 " fill="none" id="CameraController-Vector3" style="stroke:#181818;stroke-width:1.0;"/><polygon fill="#181818" points="525.86,356.61,518.1871,362.7846,523.5735,361.0566,525.3016,366.443,525.86,356.61" style="stroke:#181818;stroke-width:1.0;"/><line style="stroke:#181818;stroke-width:1.0;" x1="523.5735" x2="519.915" y1="361.0566" y2="368.17"/><polygon fill="none" points="462.05,454.52,469.0123,452.6422,469.9567,445.4932,462.9944,447.371,462.05,454.52" style="stroke:#181818;stroke-width:1.0;"/><text fill="#000000" font-family="sans-serif" font-size="13" lengthAdjust="spacing" textLength="87" x="522.2853" y="377.8896">currentVelocity</text></g><!--MD5=[f917b4632d0e26035378ebba8fec2646]
link CameraController to Vector3--><g id="link_CameraController_Vector3"><path codeLine="36" d="M462.05,332.5 C471.92,332.5 481.79,332.5 491.66,332.5 " fill="none" id="CameraController-to-Vector3" style="stroke:#181818;stroke-width:1.0;"/><polygon fill="#181818" points="496.83,332.5,487.83,328.5,491.83,332.5,487.83,336.5,496.83,332.5" style="stroke:#181818;stroke-width:1.0;"/><text fill="#000000" font-family="sans-serif" font-size="13" lengthAdjust="spacing" textLength="89" x="400.9645" y="299.004">desiredPosition</text></g><!--MD5=[f917b4632d0e26035378ebba8fec2646]
link CameraController to Vector3--><g id="link_CameraController_Vector3"><path codeLine="37" d="M462.05,210.48 C482.49,232.57 502.93,263.57 523.37,303.48 " fill="none" id="CameraController-to-Vector3-1" style="stroke:#181818;stroke-width:1.0;"/><polygon fill="#181818" points="525.86,308.39,525.3501,298.5543,523.5955,303.9322,518.2176,302.1776,525.86,308.39" style="stroke:#181818;stroke-width:1.0;"/><text fill="#000000" font-family="sans-serif" font-size="13" lengthAdjust="spacing" textLength="68" x="531.5898" y="297.702">moveVector</text></g><!--MD5=[792407f0d3215c8a17ea4150a1e09c89]
@startuml
class CameraController {
    + FollowDistance : float = 30.0f
    + MaxFollowDistance : float = 100.0f
    + MinFollowDistance : float = 2.0f
    + ElevationAngle : float = 30.0f
    + MaxElevationAngle : float = 85.0f
    + MinElevationAngle : float = 0f
    + OrbitalAngle : float = 0f
    + MovementSmoothing : bool = true
    + RotationSmoothing : bool = false
    - previousSmoothing : bool
    + MovementSmoothingValue : float = 25f
    + RotationSmoothingValue : float = 5.0f
    + MoveSensitivity : float = 2.0f
    - mouseX : float
    - mouseY : float
    - mouseWheel : float
    - <<const>> event_SmoothingValue : string = "Slider - Smoothing Value"
    - <<const>> event_FollowDistance : string = "Slider - Camera Zoom"
    Awake() : void
    Start() : void
    LateUpdate() : void
    GetPlayerInput() : void
}
enum CameraModes {
    Follow,
    Isometric,
    Free,
}
MonoBehaviour <|- - CameraController
CameraController - -> "cameraTransform" Transform
CameraController - -> "dummyTarget" Transform
CameraController - -> "CameraTarget" Transform
CameraController o-> "CameraMode" CameraModes
CameraController o-> "currentVelocity" Vector3
CameraController - -> "desiredPosition" Vector3
CameraController - -> "moveVector" Vector3
CameraController +- - CameraModes
@enduml

PlantUML version 1.2022.5(Sat Apr 30 12:55:52 CEST 2022)
(GPL source distribution)
Java Runtime: Java(TM) SE Runtime Environment
JVM: Java HotSpot(TM) 64-Bit Server VM
Default Encoding: UTF-8
Language: en
Country: GB
--></g></svg>