<?xml version="1.0" encoding="UTF-8" standalone="no"?><svg xmlns="http://www.w3.org/2000/svg" xmlns:xlink="http://www.w3.org/1999/xlink" contentStyleType="text/css" height="384px" preserveAspectRatio="none" style="width:601px;height:384px;background:#FFFFFF;" version="1.1" viewBox="0 0 601 384" width="601px" zoomAndPan="magnify"><defs/><g><!--MD5=[0d7466abc6b2b9d1c48ec510df8169f2]
class SkewTextExample--><g id="elem_SkewTextExample"><rect codeLine="1" fill="#F1F1F1" height="153.6563" id="SkewTextExample" rx="2.5" ry="2.5" style="stroke:#181818;stroke-width:0.5;" width="420" x="7" y="115"/><ellipse cx="156.25" cy="131" fill="#ADD1B2" rx="11" ry="11" style="stroke:#181818;stroke-width:1.0;"/><path d="M159.0156,126.875 Q159.1719,126.6563 159.3594,126.5469 Q159.5469,126.4375 159.7656,126.4375 Q160.1406,126.4375 160.375,126.7031 Q160.6094,126.9531 160.6094,127.5625 L160.6094,129.0156 Q160.6094,129.625 160.375,129.8906 Q160.1406,130.1563 159.7656,130.1563 Q159.4219,130.1563 159.2188,129.9531 Q159.0156,129.7656 158.9063,129.25 Q158.8594,128.8906 158.6719,128.7031 Q158.3438,128.3281 157.7344,128.1094 Q157.125,127.8906 156.5,127.8906 Q155.7344,127.8906 155.0938,128.2188 Q154.4688,128.5469 153.9688,129.2969 Q153.4844,130.0469 153.4844,131.0781 L153.4844,132.1719 Q153.4844,133.4063 154.375,134.2344 Q155.2656,135.0469 156.8594,135.0469 Q157.7969,135.0469 158.4531,134.7969 Q158.8438,134.6406 159.2656,134.2031 Q159.5313,133.9375 159.6719,133.8594 Q159.8281,133.7813 160.0313,133.7813 Q160.3594,133.7813 160.6094,134.0469 Q160.875,134.2969 160.875,134.6406 Q160.875,134.9844 160.5313,135.3906 Q160.0313,135.9688 159.2344,136.2969 Q158.1563,136.75 156.8594,136.75 Q155.3438,136.75 154.1406,136.125 Q153.1563,135.625 152.4688,134.5625 Q151.7813,133.4844 151.7813,132.2031 L151.7813,131.0469 Q151.7813,129.7188 152.3906,128.5781 Q153.0156,127.4219 154.1094,126.8125 Q155.2031,126.1875 156.4375,126.1875 Q157.1719,126.1875 157.8125,126.3594 Q158.4688,126.5156 159.0156,126.875 Z " fill="#000000"/><text fill="#000000" font-family="sans-serif" font-size="14" lengthAdjust="spacing" textLength="113" x="176.75" y="136.7285">SkewTextExample</text><line style="stroke:#181818;stroke-width:0.5;" x1="8" x2="426" y1="147" y2="147"/><ellipse cx="18" cy="158" fill="none" rx="3" ry="3" style="stroke:#038048;stroke-width:1.0;"/><text fill="#000000" font-family="sans-serif" font-size="14" lengthAdjust="spacing" textLength="152" x="27" y="165.5332">CurveScale : float = 1.0f</text><ellipse cx="18" cy="175.6094" fill="none" rx="3" ry="3" style="stroke:#038048;stroke-width:1.0;"/><text fill="#000000" font-family="sans-serif" font-size="14" lengthAdjust="spacing" textLength="165" x="27" y="183.1426">ShearAmount : float = 1.0f</text><line style="stroke:#181818;stroke-width:0.5;" x1="8" x2="426" y1="190.2188" y2="190.2188"/><text fill="#000000" font-family="sans-serif" font-size="14" lengthAdjust="spacing" textLength="89" x="27" y="208.752">Awake() : void</text><text fill="#000000" font-family="sans-serif" font-size="14" lengthAdjust="spacing" textLength="78" x="27" y="226.3613">Start() : void</text><rect fill="#F24D5C" height="6" style="stroke:#C82930;stroke-width:1.0;" width="6" x="15" y="233.4375"/><text fill="#000000" font-family="sans-serif" font-size="14" lengthAdjust="spacing" textLength="394" x="27" y="243.9707">CopyAnimationCurve(curve:AnimationCurve) : AnimationCurve</text><text fill="#000000" font-family="sans-serif" font-size="14" lengthAdjust="spacing" textLength="160" x="27" y="261.5801">WarpText() : IEnumerator</text></g><!--MD5=[83b3cf3d23d77c6f1e1b5291a241bc2a]
class MonoBehaviour--><g id="elem_MonoBehaviour"><rect fill="#F1F1F1" height="48" id="MonoBehaviour" rx="2.5" ry="2.5" style="stroke:#181818;stroke-width:0.5;" width="131" x="151.5" y="7"/><ellipse cx="166.5" cy="23" fill="#ADD1B2" rx="11" ry="11" style="stroke:#181818;stroke-width:1.0;"/><path d="M169.2656,18.875 Q169.4219,18.6563 169.6094,18.5469 Q169.7969,18.4375 170.0156,18.4375 Q170.3906,18.4375 170.625,18.7031 Q170.8594,18.9531 170.8594,19.5625 L170.8594,21.0156 Q170.8594,21.625 170.625,21.8906 Q170.3906,22.1563 170.0156,22.1563 Q169.6719,22.1563 169.4688,21.9531 Q169.2656,21.7656 169.1563,21.25 Q169.1094,20.8906 168.9219,20.7031 Q168.5938,20.3281 167.9844,20.1094 Q167.375,19.8906 166.75,19.8906 Q165.9844,19.8906 165.3438,20.2188 Q164.7188,20.5469 164.2188,21.2969 Q163.7344,22.0469 163.7344,23.0781 L163.7344,24.1719 Q163.7344,25.4063 164.625,26.2344 Q165.5156,27.0469 167.1094,27.0469 Q168.0469,27.0469 168.7031,26.7969 Q169.0938,26.6406 169.5156,26.2031 Q169.7813,25.9375 169.9219,25.8594 Q170.0781,25.7813 170.2813,25.7813 Q170.6094,25.7813 170.8594,26.0469 Q171.125,26.2969 171.125,26.6406 Q171.125,26.9844 170.7813,27.3906 Q170.2813,27.9688 169.4844,28.2969 Q168.4063,28.75 167.1094,28.75 Q165.5938,28.75 164.3906,28.125 Q163.4063,27.625 162.7188,26.5625 Q162.0313,25.4844 162.0313,24.2031 L162.0313,23.0469 Q162.0313,21.7188 162.6406,20.5781 Q163.2656,19.4219 164.3594,18.8125 Q165.4531,18.1875 166.6875,18.1875 Q167.4219,18.1875 168.0625,18.3594 Q168.7188,18.5156 169.2656,18.875 Z " fill="#000000"/><text fill="#000000" font-family="sans-serif" font-size="14" lengthAdjust="spacing" textLength="99" x="180.5" y="28.7285">MonoBehaviour</text><line style="stroke:#181818;stroke-width:0.5;" x1="152.5" x2="281.5" y1="39" y2="39"/><line style="stroke:#181818;stroke-width:0.5;" x1="152.5" x2="281.5" y1="47" y2="47"/></g><!--MD5=[fa07864ef55e7d1943fa981e1ee9b4e7]
class TMP_Text--><g id="elem_TMP_Text"><rect fill="#F1F1F1" height="48" id="TMP_Text" rx="2.5" ry="2.5" style="stroke:#181818;stroke-width:0.5;" width="96" x="169" y="329"/><ellipse cx="184" cy="345" fill="#ADD1B2" rx="11" ry="11" style="stroke:#181818;stroke-width:1.0;"/><path d="M186.7656,340.875 Q186.9219,340.6563 187.1094,340.5469 Q187.2969,340.4375 187.5156,340.4375 Q187.8906,340.4375 188.125,340.7031 Q188.3594,340.9531 188.3594,341.5625 L188.3594,343.0156 Q188.3594,343.625 188.125,343.8906 Q187.8906,344.1563 187.5156,344.1563 Q187.1719,344.1563 186.9688,343.9531 Q186.7656,343.7656 186.6563,343.25 Q186.6094,342.8906 186.4219,342.7031 Q186.0938,342.3281 185.4844,342.1094 Q184.875,341.8906 184.25,341.8906 Q183.4844,341.8906 182.8438,342.2188 Q182.2188,342.5469 181.7188,343.2969 Q181.2344,344.0469 181.2344,345.0781 L181.2344,346.1719 Q181.2344,347.4063 182.125,348.2344 Q183.0156,349.0469 184.6094,349.0469 Q185.5469,349.0469 186.2031,348.7969 Q186.5938,348.6406 187.0156,348.2031 Q187.2813,347.9375 187.4219,347.8594 Q187.5781,347.7813 187.7813,347.7813 Q188.1094,347.7813 188.3594,348.0469 Q188.625,348.2969 188.625,348.6406 Q188.625,348.9844 188.2813,349.3906 Q187.7813,349.9688 186.9844,350.2969 Q185.9063,350.75 184.6094,350.75 Q183.0938,350.75 181.8906,350.125 Q180.9063,349.625 180.2188,348.5625 Q179.5313,347.4844 179.5313,346.2031 L179.5313,345.0469 Q179.5313,343.7188 180.1406,342.5781 Q180.7656,341.4219 181.8594,340.8125 Q182.9531,340.1875 184.1875,340.1875 Q184.9219,340.1875 185.5625,340.3594 Q186.2188,340.5156 186.7656,340.875 Z " fill="#000000"/><text fill="#000000" font-family="sans-serif" font-size="14" lengthAdjust="spacing" textLength="64" x="198" y="350.7285">TMP_Text</text><line style="stroke:#181818;stroke-width:0.5;" x1="170" x2="264" y1="361" y2="361"/><line style="stroke:#181818;stroke-width:0.5;" x1="170" x2="264" y1="369" y2="369"/></g><!--MD5=[bf933ac2be28a331b25a15d5b3762dc5]
class AnimationCurve--><g id="elem_AnimationCurve"><rect fill="#F1F1F1" height="48" id="AnimationCurve" rx="2.5" ry="2.5" style="stroke:#181818;stroke-width:0.5;" width="132" x="462" y="168"/><ellipse cx="477" cy="184" fill="#ADD1B2" rx="11" ry="11" style="stroke:#181818;stroke-width:1.0;"/><path d="M479.7656,179.875 Q479.9219,179.6563 480.1094,179.5469 Q480.2969,179.4375 480.5156,179.4375 Q480.8906,179.4375 481.125,179.7031 Q481.3594,179.9531 481.3594,180.5625 L481.3594,182.0156 Q481.3594,182.625 481.125,182.8906 Q480.8906,183.1563 480.5156,183.1563 Q480.1719,183.1563 479.9688,182.9531 Q479.7656,182.7656 479.6563,182.25 Q479.6094,181.8906 479.4219,181.7031 Q479.0938,181.3281 478.4844,181.1094 Q477.875,180.8906 477.25,180.8906 Q476.4844,180.8906 475.8438,181.2188 Q475.2188,181.5469 474.7188,182.2969 Q474.2344,183.0469 474.2344,184.0781 L474.2344,185.1719 Q474.2344,186.4063 475.125,187.2344 Q476.0156,188.0469 477.6094,188.0469 Q478.5469,188.0469 479.2031,187.7969 Q479.5938,187.6406 480.0156,187.2031 Q480.2813,186.9375 480.4219,186.8594 Q480.5781,186.7813 480.7813,186.7813 Q481.1094,186.7813 481.3594,187.0469 Q481.625,187.2969 481.625,187.6406 Q481.625,187.9844 481.2813,188.3906 Q480.7813,188.9688 479.9844,189.2969 Q478.9063,189.75 477.6094,189.75 Q476.0938,189.75 474.8906,189.125 Q473.9063,188.625 473.2188,187.5625 Q472.5313,186.4844 472.5313,185.2031 L472.5313,184.0469 Q472.5313,182.7188 473.1406,181.5781 Q473.7656,180.4219 474.8594,179.8125 Q475.9531,179.1875 477.1875,179.1875 Q477.9219,179.1875 478.5625,179.3594 Q479.2188,179.5156 479.7656,179.875 Z " fill="#000000"/><text fill="#000000" font-family="sans-serif" font-size="14" lengthAdjust="spacing" textLength="100" x="491" y="189.7285">AnimationCurve</text><line style="stroke:#181818;stroke-width:0.5;" x1="463" x2="593" y1="200" y2="200"/><line style="stroke:#181818;stroke-width:0.5;" x1="463" x2="593" y1="208" y2="208"/></g><!--MD5=[18cf3f580ed98053984754ad11ded47e]
reverse link MonoBehaviour to SkewTextExample--><g id="link_MonoBehaviour_SkewTextExample"><path codeLine="9" d="M217,75.21 C217,87.43 217,101.11 217,114.67 " fill="none" id="MonoBehaviour-backto-SkewTextExample" style="stroke:#181818;stroke-width:1.0;"/><polygon fill="none" points="210,75.12,217,55.12,224,75.12,210,75.12" style="stroke:#181818;stroke-width:1.0;"/></g><!--MD5=[6fb6d0370ccce434f0108ede4b55a166]
link SkewTextExample to TMP_Text--><g id="link_SkewTextExample_TMP_Text"><path codeLine="10" d="M217,269.24 C217,288.72 217,308.45 217,323.77 " fill="none" id="SkewTextExample-to-TMP_Text" style="stroke:#181818;stroke-width:1.0;"/><polygon fill="#181818" points="217,328.78,221,319.78,217,323.78,213,319.78,217,328.78" style="stroke:#181818;stroke-width:1.0;"/><text fill="#000000" font-family="sans-serif" font-size="13" lengthAdjust="spacing" textLength="109" x="94.0344" y="318.0638">m_TextComponent</text></g><!--MD5=[0ad2adf3b0111ee1a197e5e7f41da0bd]
link SkewTextExample to AnimationCurve--><g id="link_SkewTextExample_AnimationCurve"><path codeLine="11" d="M439.17,192 C439.17,192 446.01,192 448.79,192 " fill="none" id="SkewTextExample-AnimationCurve" style="stroke:#181818;stroke-width:1.0;"/><polygon fill="#181818" points="461.83,192,452.83,188,456.83,192,452.83,196,461.83,192" style="stroke:#181818;stroke-width:1.0;"/><line style="stroke:#181818;stroke-width:1.0;" x1="456.83" x2="448.83" y1="192" y2="192"/><polygon fill="none" points="427.17,192,433.17,196,439.17,192,433.17,188,427.17,192" style="stroke:#181818;stroke-width:1.0;"/><text fill="#000000" font-family="sans-serif" font-size="13" lengthAdjust="spacing" textLength="70" x="385.4032" y="214.4587">VertexCurve</text></g><!--MD5=[788dd69c0b82d06e8f26c5380b67bd59]
@startuml
class SkewTextExample {
    + CurveScale : float = 1.0f
    + ShearAmount : float = 1.0f
    Awake() : void
    Start() : void
    - CopyAnimationCurve(curve:AnimationCurve) : AnimationCurve
    WarpText() : IEnumerator
}
MonoBehaviour <|- - SkewTextExample
SkewTextExample - -> "m_TextComponent" TMP_Text
SkewTextExample o-> "VertexCurve" AnimationCurve
@enduml

PlantUML version 1.2022.5(Sat Apr 30 12:55:52 CEST 2022)
(GPL source distribution)
Java Runtime: Java(TM) SE Runtime Environment
JVM: Java HotSpot(TM) 64-Bit Server VM
Default Encoding: UTF-8
Language: en
Country: GB
--></g></svg>