<?xml version="1.0" encoding="UTF-8" standalone="no"?><svg xmlns="http://www.w3.org/2000/svg" xmlns:xlink="http://www.w3.org/1999/xlink" contentStyleType="text/css" height="348px" preserveAspectRatio="none" style="width:318px;height:348px;background:#FFFFFF;" version="1.1" viewBox="0 0 318 348" width="318px" zoomAndPan="magnify"><defs/><g><!--MD5=[de50a9c30438ab93fe6ebb03c5028694]
class PlaneImageController--><g id="elem_PlaneImageController"><rect codeLine="1" fill="#F1F1F1" height="118.4375" id="PlaneImageController" rx="2.5" ry="2.5" style="stroke:#181818;stroke-width:0.5;" width="221" x="37" y="115"/><ellipse cx="75.85" cy="131" fill="#ADD1B2" rx="11" ry="11" style="stroke:#181818;stroke-width:1.0;"/><path d="M78.6156,126.875 Q78.7719,126.6563 78.9594,126.5469 Q79.1469,126.4375 79.3656,126.4375 Q79.7406,126.4375 79.975,126.7031 Q80.2094,126.9531 80.2094,127.5625 L80.2094,129.0156 Q80.2094,129.625 79.975,129.8906 Q79.7406,130.1563 79.3656,130.1563 Q79.0219,130.1563 78.8188,129.9531 Q78.6156,129.7656 78.5063,129.25 Q78.4594,128.8906 78.2719,128.7031 Q77.9438,128.3281 77.3344,128.1094 Q76.725,127.8906 76.1,127.8906 Q75.3344,127.8906 74.6938,128.2188 Q74.0688,128.5469 73.5688,129.2969 Q73.0844,130.0469 73.0844,131.0781 L73.0844,132.1719 Q73.0844,133.4063 73.975,134.2344 Q74.8656,135.0469 76.4594,135.0469 Q77.3969,135.0469 78.0531,134.7969 Q78.4438,134.6406 78.8656,134.2031 Q79.1313,133.9375 79.2719,133.8594 Q79.4281,133.7813 79.6313,133.7813 Q79.9594,133.7813 80.2094,134.0469 Q80.475,134.2969 80.475,134.6406 Q80.475,134.9844 80.1313,135.3906 Q79.6313,135.9688 78.8344,136.2969 Q77.7563,136.75 76.4594,136.75 Q74.9438,136.75 73.7406,136.125 Q72.7563,135.625 72.0688,134.5625 Q71.3813,133.4844 71.3813,132.2031 L71.3813,131.0469 Q71.3813,129.7188 71.9906,128.5781 Q72.6156,127.4219 73.7094,126.8125 Q74.8031,126.1875 76.0375,126.1875 Q76.7719,126.1875 77.4125,126.3594 Q78.0688,126.5156 78.6156,126.875 Z " fill="#000000"/><text fill="#000000" font-family="sans-serif" font-size="14" lengthAdjust="spacing" textLength="136" x="95.15" y="136.7285">PlaneImageController</text><line style="stroke:#181818;stroke-width:0.5;" x1="38" x2="257" y1="147" y2="147"/><ellipse cx="48" cy="158" fill="none" rx="3" ry="3" style="stroke:#038048;stroke-width:1.0;"/><text fill="#000000" font-family="sans-serif" font-size="14" lengthAdjust="spacing" textLength="78" x="57" y="165.5332">myIndex : int</text><line style="stroke:#181818;stroke-width:0.5;" x1="38" x2="257" y1="172.6094" y2="172.6094"/><ellipse cx="48" cy="183.6094" fill="#84BE84" rx="3" ry="3" style="stroke:#038048;stroke-width:1.0;"/><text fill="#000000" font-family="sans-serif" font-size="14" lengthAdjust="spacing" textLength="119" x="57" y="191.1426">OnPressed() : void</text><ellipse cx="48" cy="201.2188" fill="#84BE84" rx="3" ry="3" style="stroke:#038048;stroke-width:1.0;"/><text fill="#000000" font-family="sans-serif" font-size="14" lengthAdjust="spacing" textLength="195" x="57" y="208.752">select() : PlaneImageController</text><ellipse cx="48" cy="218.8281" fill="#84BE84" rx="3" ry="3" style="stroke:#038048;stroke-width:1.0;"/><text fill="#000000" font-family="sans-serif" font-size="14" lengthAdjust="spacing" textLength="101" x="57" y="226.3613">deselect() : void</text></g><!--MD5=[83b3cf3d23d77c6f1e1b5291a241bc2a]
class MonoBehaviour--><g id="elem_MonoBehaviour"><rect fill="#F1F1F1" height="48" id="MonoBehaviour" rx="2.5" ry="2.5" style="stroke:#181818;stroke-width:0.5;" width="131" x="82" y="7"/><ellipse cx="97" cy="23" fill="#ADD1B2" rx="11" ry="11" style="stroke:#181818;stroke-width:1.0;"/><path d="M99.7656,18.875 Q99.9219,18.6563 100.1094,18.5469 Q100.2969,18.4375 100.5156,18.4375 Q100.8906,18.4375 101.125,18.7031 Q101.3594,18.9531 101.3594,19.5625 L101.3594,21.0156 Q101.3594,21.625 101.125,21.8906 Q100.8906,22.1563 100.5156,22.1563 Q100.1719,22.1563 99.9688,21.9531 Q99.7656,21.7656 99.6563,21.25 Q99.6094,20.8906 99.4219,20.7031 Q99.0938,20.3281 98.4844,20.1094 Q97.875,19.8906 97.25,19.8906 Q96.4844,19.8906 95.8438,20.2188 Q95.2188,20.5469 94.7188,21.2969 Q94.2344,22.0469 94.2344,23.0781 L94.2344,24.1719 Q94.2344,25.4063 95.125,26.2344 Q96.0156,27.0469 97.6094,27.0469 Q98.5469,27.0469 99.2031,26.7969 Q99.5938,26.6406 100.0156,26.2031 Q100.2813,25.9375 100.4219,25.8594 Q100.5781,25.7813 100.7813,25.7813 Q101.1094,25.7813 101.3594,26.0469 Q101.625,26.2969 101.625,26.6406 Q101.625,26.9844 101.2813,27.3906 Q100.7813,27.9688 99.9844,28.2969 Q98.9063,28.75 97.6094,28.75 Q96.0938,28.75 94.8906,28.125 Q93.9063,27.625 93.2188,26.5625 Q92.5313,25.4844 92.5313,24.2031 L92.5313,23.0469 Q92.5313,21.7188 93.1406,20.5781 Q93.7656,19.4219 94.8594,18.8125 Q95.9531,18.1875 97.1875,18.1875 Q97.9219,18.1875 98.5625,18.3594 Q99.2188,18.5156 99.7656,18.875 Z " fill="#000000"/><text fill="#000000" font-family="sans-serif" font-size="14" lengthAdjust="spacing" textLength="99" x="111" y="28.7285">MonoBehaviour</text><line style="stroke:#181818;stroke-width:0.5;" x1="83" x2="212" y1="39" y2="39"/><line style="stroke:#181818;stroke-width:0.5;" x1="83" x2="212" y1="47" y2="47"/></g><!--MD5=[064f7a74fee85463ec1a30143664ee17]
class GameObject--><g id="elem_GameObject"><rect fill="#F1F1F1" height="48" id="GameObject" rx="2.5" ry="2.5" style="stroke:#181818;stroke-width:0.5;" width="111" x="7" y="293"/><ellipse cx="22" cy="309" fill="#ADD1B2" rx="11" ry="11" style="stroke:#181818;stroke-width:1.0;"/><path d="M24.7656,304.875 Q24.9219,304.6563 25.1094,304.5469 Q25.2969,304.4375 25.5156,304.4375 Q25.8906,304.4375 26.125,304.7031 Q26.3594,304.9531 26.3594,305.5625 L26.3594,307.0156 Q26.3594,307.625 26.125,307.8906 Q25.8906,308.1563 25.5156,308.1563 Q25.1719,308.1563 24.9688,307.9531 Q24.7656,307.7656 24.6563,307.25 Q24.6094,306.8906 24.4219,306.7031 Q24.0938,306.3281 23.4844,306.1094 Q22.875,305.8906 22.25,305.8906 Q21.4844,305.8906 20.8438,306.2188 Q20.2188,306.5469 19.7188,307.2969 Q19.2344,308.0469 19.2344,309.0781 L19.2344,310.1719 Q19.2344,311.4063 20.125,312.2344 Q21.0156,313.0469 22.6094,313.0469 Q23.5469,313.0469 24.2031,312.7969 Q24.5938,312.6406 25.0156,312.2031 Q25.2813,311.9375 25.4219,311.8594 Q25.5781,311.7813 25.7813,311.7813 Q26.1094,311.7813 26.3594,312.0469 Q26.625,312.2969 26.625,312.6406 Q26.625,312.9844 26.2813,313.3906 Q25.7813,313.9688 24.9844,314.2969 Q23.9063,314.75 22.6094,314.75 Q21.0938,314.75 19.8906,314.125 Q18.9063,313.625 18.2188,312.5625 Q17.5313,311.4844 17.5313,310.2031 L17.5313,309.0469 Q17.5313,307.7188 18.1406,306.5781 Q18.7656,305.4219 19.8594,304.8125 Q20.9531,304.1875 22.1875,304.1875 Q22.9219,304.1875 23.5625,304.3594 Q24.2188,304.5156 24.7656,304.875 Z " fill="#000000"/><text fill="#000000" font-family="sans-serif" font-size="14" lengthAdjust="spacing" textLength="79" x="36" y="314.7285">GameObject</text><line style="stroke:#181818;stroke-width:0.5;" x1="8" x2="117" y1="325" y2="325"/><line style="stroke:#181818;stroke-width:0.5;" x1="8" x2="117" y1="333" y2="333"/></g><!--MD5=[594a8038298db7ae3aa30eb16000bdb8]
class SelectionUIManager--><g id="elem_SelectionUIManager"><rect fill="#F1F1F1" height="48" id="SelectionUIManager" rx="2.5" ry="2.5" style="stroke:#181818;stroke-width:0.5;" width="158" x="153.5" y="293"/><ellipse cx="168.5" cy="309" fill="#ADD1B2" rx="11" ry="11" style="stroke:#181818;stroke-width:1.0;"/><path d="M171.2656,304.875 Q171.4219,304.6563 171.6094,304.5469 Q171.7969,304.4375 172.0156,304.4375 Q172.3906,304.4375 172.625,304.7031 Q172.8594,304.9531 172.8594,305.5625 L172.8594,307.0156 Q172.8594,307.625 172.625,307.8906 Q172.3906,308.1563 172.0156,308.1563 Q171.6719,308.1563 171.4688,307.9531 Q171.2656,307.7656 171.1563,307.25 Q171.1094,306.8906 170.9219,306.7031 Q170.5938,306.3281 169.9844,306.1094 Q169.375,305.8906 168.75,305.8906 Q167.9844,305.8906 167.3438,306.2188 Q166.7188,306.5469 166.2188,307.2969 Q165.7344,308.0469 165.7344,309.0781 L165.7344,310.1719 Q165.7344,311.4063 166.625,312.2344 Q167.5156,313.0469 169.1094,313.0469 Q170.0469,313.0469 170.7031,312.7969 Q171.0938,312.6406 171.5156,312.2031 Q171.7813,311.9375 171.9219,311.8594 Q172.0781,311.7813 172.2813,311.7813 Q172.6094,311.7813 172.8594,312.0469 Q173.125,312.2969 173.125,312.6406 Q173.125,312.9844 172.7813,313.3906 Q172.2813,313.9688 171.4844,314.2969 Q170.4063,314.75 169.1094,314.75 Q167.5938,314.75 166.3906,314.125 Q165.4063,313.625 164.7188,312.5625 Q164.0313,311.4844 164.0313,310.2031 L164.0313,309.0469 Q164.0313,307.7188 164.6406,306.5781 Q165.2656,305.4219 166.3594,304.8125 Q167.4531,304.1875 168.6875,304.1875 Q169.4219,304.1875 170.0625,304.3594 Q170.7188,304.5156 171.2656,304.875 Z " fill="#000000"/><text fill="#000000" font-family="sans-serif" font-size="14" lengthAdjust="spacing" textLength="126" x="182.5" y="314.7285">SelectionUIManager</text><line style="stroke:#181818;stroke-width:0.5;" x1="154.5" x2="310.5" y1="325" y2="325"/><line style="stroke:#181818;stroke-width:0.5;" x1="154.5" x2="310.5" y1="333" y2="333"/></g><!--MD5=[eded60c1d909decc0deb1895ed8f7c08]
reverse link MonoBehaviour to PlaneImageController--><g id="link_MonoBehaviour_PlaneImageController"><path codeLine="7" d="M147.5,75.33 C147.5,87.86 147.5,101.73 147.5,114.99 " fill="none" id="MonoBehaviour-backto-PlaneImageController" style="stroke:#181818;stroke-width:1.0;"/><polygon fill="none" points="140.5,75.28,147.5,55.28,154.5,75.28,140.5,75.28" style="stroke:#181818;stroke-width:1.0;"/></g><!--MD5=[476035ab986149bbc8f6e37a683cff76]
link PlaneImageController to GameObject--><g id="link_PlaneImageController_GameObject"><path codeLine="8" d="M112.44,233.16 C100.9,252.3 88.61,272.69 79.11,288.45 " fill="none" id="PlaneImageController-to-GameObject" style="stroke:#181818;stroke-width:1.0;"/><polygon fill="#181818" points="76.5,292.77,84.5688,287.1224,79.0788,288.4863,77.7149,282.9964,76.5,292.77" style="stroke:#181818;stroke-width:1.0;"/><text fill="#000000" font-family="sans-serif" font-size="13" lengthAdjust="spacing" textLength="43" x="31.5781" y="282.0512">borders</text></g><!--MD5=[9cf089928451dffce66c6881cd31d9d7]
link PlaneImageController to SelectionUIManager--><g id="link_PlaneImageController_SelectionUIManager"><path codeLine="9" d="M182.56,233.16 C194.1,252.3 206.39,272.69 215.89,288.45 " fill="none" id="PlaneImageController-to-SelectionUIManager" style="stroke:#181818;stroke-width:1.0;"/><polygon fill="#181818" points="218.5,292.77,217.2851,282.9964,215.9212,288.4863,210.4312,287.1224,218.5,292.77" style="stroke:#181818;stroke-width:1.0;"/><text fill="#000000" font-family="sans-serif" font-size="13" lengthAdjust="spacing" textLength="50" x="158.5063" y="282.0512">manager</text></g><!--MD5=[e3d181a46053a527ee3e4e70ccd99aff]
@startuml
class PlaneImageController {
    + myIndex : int
    + OnPressed() : void
    + select() : PlaneImageController
    + deselect() : void
}
MonoBehaviour <|- - PlaneImageController
PlaneImageController - -> "borders" GameObject
PlaneImageController - -> "manager" SelectionUIManager
@enduml

PlantUML version 1.2022.5(Sat Apr 30 12:55:52 CEST 2022)
(GPL source distribution)
Java Runtime: Java(TM) SE Runtime Environment
JVM: Java HotSpot(TM) 64-Bit Server VM
Default Encoding: UTF-8
Language: en
Country: GB
--></g></svg>