<?xml version="1.0" encoding="UTF-8" standalone="no"?><svg xmlns="http://www.w3.org/2000/svg" xmlns:xlink="http://www.w3.org/1999/xlink" contentStyleType="text/css" height="293px" preserveAspectRatio="none" style="width:518px;height:293px;background:#FFFFFF;" version="1.1" viewBox="0 0 518 293" width="518px" zoomAndPan="magnify"><defs/><g><!--MD5=[f1d7d4eb23c32d5c9f4d8f2ad03fdcbf]
class TCPClient--><g id="elem_TCPClient"><rect codeLine="1" fill="#F1F1F1" height="171.2656" id="TCPClient" rx="2.5" ry="2.5" style="stroke:#181818;stroke-width:0.5;" width="202" x="84" y="7"/><ellipse cx="148.75" cy="23" fill="#ADD1B2" rx="11" ry="11" style="stroke:#181818;stroke-width:1.0;"/><path d="M151.5156,18.875 Q151.6719,18.6563 151.8594,18.5469 Q152.0469,18.4375 152.2656,18.4375 Q152.6406,18.4375 152.875,18.7031 Q153.1094,18.9531 153.1094,19.5625 L153.1094,21.0156 Q153.1094,21.625 152.875,21.8906 Q152.6406,22.1563 152.2656,22.1563 Q151.9219,22.1563 151.7188,21.9531 Q151.5156,21.7656 151.4063,21.25 Q151.3594,20.8906 151.1719,20.7031 Q150.8438,20.3281 150.2344,20.1094 Q149.625,19.8906 149,19.8906 Q148.2344,19.8906 147.5938,20.2188 Q146.9688,20.5469 146.4688,21.2969 Q145.9844,22.0469 145.9844,23.0781 L145.9844,24.1719 Q145.9844,25.4063 146.875,26.2344 Q147.7656,27.0469 149.3594,27.0469 Q150.2969,27.0469 150.9531,26.7969 Q151.3438,26.6406 151.7656,26.2031 Q152.0313,25.9375 152.1719,25.8594 Q152.3281,25.7813 152.5313,25.7813 Q152.8594,25.7813 153.1094,26.0469 Q153.375,26.2969 153.375,26.6406 Q153.375,26.9844 153.0313,27.3906 Q152.5313,27.9688 151.7344,28.2969 Q150.6563,28.75 149.3594,28.75 Q147.8438,28.75 146.6406,28.125 Q145.6563,27.625 144.9688,26.5625 Q144.2813,25.4844 144.2813,24.2031 L144.2813,23.0469 Q144.2813,21.7188 144.8906,20.5781 Q145.5156,19.4219 146.6094,18.8125 Q147.7031,18.1875 148.9375,18.1875 Q149.6719,18.1875 150.3125,18.3594 Q150.9688,18.5156 151.5156,18.875 Z " fill="#000000"/><text fill="#000000" font-family="sans-serif" font-size="14" lengthAdjust="spacing" textLength="64" x="169.25" y="28.7285">TCPClient</text><line style="stroke:#181818;stroke-width:0.5;" x1="85" x2="285" y1="39" y2="39"/><rect fill="none" height="6" style="stroke:#C82930;stroke-width:1.0;" width="6" x="92" y="47"/><text fill="#000000" font-family="sans-serif" font-size="14" lengthAdjust="spacing" textLength="58" x="104" y="57.5332">ip : string</text><rect fill="none" height="6" style="stroke:#C82930;stroke-width:1.0;" width="6" x="92" y="64.6094"/><text fill="#000000" font-family="sans-serif" font-size="14" lengthAdjust="spacing" textLength="52" x="104" y="75.1426">port : int</text><line style="stroke:#181818;stroke-width:0.5;" x1="85" x2="285" y1="82.2188" y2="82.2188"/><ellipse cx="95" cy="93.2188" fill="#84BE84" rx="3" ry="3" style="stroke:#038048;stroke-width:1.0;"/><text fill="#000000" font-family="sans-serif" font-size="14" lengthAdjust="spacing" textLength="176" x="104" y="100.752">TCPClient(ip:string, port:int)</text><ellipse cx="95" cy="110.8281" fill="#84BE84" rx="3" ry="3" style="stroke:#038048;stroke-width:1.0;"/><text fill="#000000" font-family="sans-serif" font-size="14" lengthAdjust="spacing" textLength="98" x="104" y="118.3613">connect() : void</text><text fill="#000000" font-family="sans-serif" font-size="14" lengthAdjust="spacing" textLength="138" x="104" y="135.9707">sendCallStack() : void</text><text fill="#000000" font-family="sans-serif" font-size="14" lengthAdjust="spacing" textLength="158" x="104" y="153.5801">receiveMessages() : void</text><rect fill="#F24D5C" height="6" style="stroke:#C82930;stroke-width:1.0;" width="6" x="92" y="160.6563"/><text fill="#000000" font-family="sans-serif" font-size="14" lengthAdjust="spacing" textLength="162" x="104" y="171.1895">OnApplicationQuit() : void</text></g><!--MD5=[e644022de7dea015dd09463c37421447]
class List`1--><g id="elem_List`1"><rect codeLine="10" fill="#F1F1F1" height="48" id="List`1" rx="2.5" ry="2.5" style="stroke:#181818;stroke-width:0.5;" width="78" x="321" y="68.5"/><ellipse cx="336" cy="84.5" fill="#ADD1B2" rx="11" ry="11" style="stroke:#181818;stroke-width:1.0;"/><path d="M338.7656,80.375 Q338.9219,80.1563 339.1094,80.0469 Q339.2969,79.9375 339.5156,79.9375 Q339.8906,79.9375 340.125,80.2031 Q340.3594,80.4531 340.3594,81.0625 L340.3594,82.5156 Q340.3594,83.125 340.125,83.3906 Q339.8906,83.6563 339.5156,83.6563 Q339.1719,83.6563 338.9688,83.4531 Q338.7656,83.2656 338.6563,82.75 Q338.6094,82.3906 338.4219,82.2031 Q338.0938,81.8281 337.4844,81.6094 Q336.875,81.3906 336.25,81.3906 Q335.4844,81.3906 334.8438,81.7188 Q334.2188,82.0469 333.7188,82.7969 Q333.2344,83.5469 333.2344,84.5781 L333.2344,85.6719 Q333.2344,86.9063 334.125,87.7344 Q335.0156,88.5469 336.6094,88.5469 Q337.5469,88.5469 338.2031,88.2969 Q338.5938,88.1406 339.0156,87.7031 Q339.2813,87.4375 339.4219,87.3594 Q339.5781,87.2813 339.7813,87.2813 Q340.1094,87.2813 340.3594,87.5469 Q340.625,87.7969 340.625,88.1406 Q340.625,88.4844 340.2813,88.8906 Q339.7813,89.4688 338.9844,89.7969 Q337.9063,90.25 336.6094,90.25 Q335.0938,90.25 333.8906,89.625 Q332.9063,89.125 332.2188,88.0625 Q331.5313,86.9844 331.5313,85.7031 L331.5313,84.5469 Q331.5313,83.2188 332.1406,82.0781 Q332.7656,80.9219 333.8594,80.3125 Q334.9531,79.6875 336.1875,79.6875 Q336.9219,79.6875 337.5625,79.8594 Q338.2188,80.0156 338.7656,80.375 Z " fill="#000000"/><text fill="#000000" font-family="sans-serif" font-size="14" lengthAdjust="spacing" textLength="35" x="350" y="90.2285">List`1</text><rect fill="#FFFFFF" height="17.0938" style="stroke:#000000;stroke-width:1.0;stroke-dasharray:2.0,2.0;" width="9" x="393" y="65.5"/><text fill="#000000" font-family="sans-serif" font-size="12" font-style="italic" lengthAdjust="spacing" textLength="7" x="394" y="78.957">T</text><line style="stroke:#181818;stroke-width:0.5;" x1="322" x2="398" y1="100.5" y2="100.5"/><line style="stroke:#181818;stroke-width:0.5;" x1="322" x2="398" y1="108.5" y2="108.5"/></g><!--MD5=[dc1c6dc0f35860f82dfa9d626e9ada82]
class WebSocket--><g id="elem_WebSocket"><rect fill="#F1F1F1" height="48" id="WebSocket" rx="2.5" ry="2.5" style="stroke:#181818;stroke-width:0.5;" width="104" x="7" y="238"/><ellipse cx="22" cy="254" fill="#ADD1B2" rx="11" ry="11" style="stroke:#181818;stroke-width:1.0;"/><path d="M24.7656,249.875 Q24.9219,249.6563 25.1094,249.5469 Q25.2969,249.4375 25.5156,249.4375 Q25.8906,249.4375 26.125,249.7031 Q26.3594,249.9531 26.3594,250.5625 L26.3594,252.0156 Q26.3594,252.625 26.125,252.8906 Q25.8906,253.1563 25.5156,253.1563 Q25.1719,253.1563 24.9688,252.9531 Q24.7656,252.7656 24.6563,252.25 Q24.6094,251.8906 24.4219,251.7031 Q24.0938,251.3281 23.4844,251.1094 Q22.875,250.8906 22.25,250.8906 Q21.4844,250.8906 20.8438,251.2188 Q20.2188,251.5469 19.7188,252.2969 Q19.2344,253.0469 19.2344,254.0781 L19.2344,255.1719 Q19.2344,256.4063 20.125,257.2344 Q21.0156,258.0469 22.6094,258.0469 Q23.5469,258.0469 24.2031,257.7969 Q24.5938,257.6406 25.0156,257.2031 Q25.2813,256.9375 25.4219,256.8594 Q25.5781,256.7813 25.7813,256.7813 Q26.1094,256.7813 26.3594,257.0469 Q26.625,257.2969 26.625,257.6406 Q26.625,257.9844 26.2813,258.3906 Q25.7813,258.9688 24.9844,259.2969 Q23.9063,259.75 22.6094,259.75 Q21.0938,259.75 19.8906,259.125 Q18.9063,258.625 18.2188,257.5625 Q17.5313,256.4844 17.5313,255.2031 L17.5313,254.0469 Q17.5313,252.7188 18.1406,251.5781 Q18.7656,250.4219 19.8594,249.8125 Q20.9531,249.1875 22.1875,249.1875 Q22.9219,249.1875 23.5625,249.3594 Q24.2188,249.5156 24.7656,249.875 Z " fill="#000000"/><text fill="#000000" font-family="sans-serif" font-size="14" lengthAdjust="spacing" textLength="72" x="36" y="259.7285">WebSocket</text><line style="stroke:#181818;stroke-width:0.5;" x1="8" x2="110" y1="270" y2="270"/><line style="stroke:#181818;stroke-width:0.5;" x1="8" x2="110" y1="278" y2="278"/></g><!--MD5=[948346f2dfe9866ea883595a582714fa]
class Thread--><g id="elem_Thread"><rect fill="#F1F1F1" height="48" id="Thread" rx="2.5" ry="2.5" style="stroke:#181818;stroke-width:0.5;" width="78" x="146" y="238"/><ellipse cx="161" cy="254" fill="#ADD1B2" rx="11" ry="11" style="stroke:#181818;stroke-width:1.0;"/><path d="M163.7656,249.875 Q163.9219,249.6563 164.1094,249.5469 Q164.2969,249.4375 164.5156,249.4375 Q164.8906,249.4375 165.125,249.7031 Q165.3594,249.9531 165.3594,250.5625 L165.3594,252.0156 Q165.3594,252.625 165.125,252.8906 Q164.8906,253.1563 164.5156,253.1563 Q164.1719,253.1563 163.9688,252.9531 Q163.7656,252.7656 163.6563,252.25 Q163.6094,251.8906 163.4219,251.7031 Q163.0938,251.3281 162.4844,251.1094 Q161.875,250.8906 161.25,250.8906 Q160.4844,250.8906 159.8438,251.2188 Q159.2188,251.5469 158.7188,252.2969 Q158.2344,253.0469 158.2344,254.0781 L158.2344,255.1719 Q158.2344,256.4063 159.125,257.2344 Q160.0156,258.0469 161.6094,258.0469 Q162.5469,258.0469 163.2031,257.7969 Q163.5938,257.6406 164.0156,257.2031 Q164.2813,256.9375 164.4219,256.8594 Q164.5781,256.7813 164.7813,256.7813 Q165.1094,256.7813 165.3594,257.0469 Q165.625,257.2969 165.625,257.6406 Q165.625,257.9844 165.2813,258.3906 Q164.7813,258.9688 163.9844,259.2969 Q162.9063,259.75 161.6094,259.75 Q160.0938,259.75 158.8906,259.125 Q157.9063,258.625 157.2188,257.5625 Q156.5313,256.4844 156.5313,255.2031 L156.5313,254.0469 Q156.5313,252.7188 157.1406,251.5781 Q157.7656,250.4219 158.8594,249.8125 Q159.9531,249.1875 161.1875,249.1875 Q161.9219,249.1875 162.5625,249.3594 Q163.2188,249.5156 163.7656,249.875 Z " fill="#000000"/><text fill="#000000" font-family="sans-serif" font-size="14" lengthAdjust="spacing" textLength="46" x="175" y="259.7285">Thread</text><line style="stroke:#181818;stroke-width:0.5;" x1="147" x2="223" y1="270" y2="270"/><line style="stroke:#181818;stroke-width:0.5;" x1="147" x2="223" y1="278" y2="278"/></g><!--MD5=[ddf4c93919efefa541a3cfe83cdb395d]
link TCPClient to WebSocket--><g id="link_TCPClient_WebSocket"><path codeLine="12" d="M121.26,178.23 C106.2,198.26 91.19,218.21 79.68,233.5 " fill="none" id="TCPClient-to-WebSocket" style="stroke:#181818;stroke-width:1.0;"/><polygon fill="#181818" points="76.53,237.69,85.1409,232.9096,79.5391,233.6969,78.7519,228.095,76.53,237.69" style="stroke:#181818;stroke-width:1.0;"/><text fill="#000000" font-family="sans-serif" font-size="13" lengthAdjust="spacing" textLength="16" x="62.9721" y="226.9507">ws</text></g><!--MD5=[ebd6a707751c082f6dab9d88fe8e4567]
link TCPClient to List`1--><g id="link_TCPClient_List`1"><path codeLine="13" d="M297.5542,151.2653 C297.5542,151.2653 321.25,137.79 332.51,126.46 " fill="none" id="TCPClient-List`1" style="stroke:#181818;stroke-width:1.0;"/><polygon fill="#181818" points="341.54,116.7,332.4919,120.59,338.1445,120.3702,338.3643,126.0228,341.54,116.7" style="stroke:#181818;stroke-width:1.0;"/><line style="stroke:#181818;stroke-width:1.0;" x1="338.1445" x2="332.71" y1="120.3702" y2="126.24"/><polygon fill="none" points="286.17,155.06,293.127,156.9574,297.5542,151.2653,290.5972,149.3679,286.17,155.06" style="stroke:#181818;stroke-width:1.0;"/><text fill="#000000" font-family="sans-serif" font-size="13" lengthAdjust="spacing" textLength="102" x="349.4716" y="138.0867">callStack&lt;string&gt;</text></g><!--MD5=[ebd6a707751c082f6dab9d88fe8e4567]
link TCPClient to List`1--><g id="link_TCPClient_List`1"><path codeLine="14" d="M297.5542,33.7347 C297.5542,33.7347 321.25,47.21 332.51,58.54 " fill="none" id="TCPClient-List`1-1" style="stroke:#181818;stroke-width:1.0;"/><polygon fill="#181818" points="341.54,68.3,338.3643,58.9772,338.1445,64.6298,332.4919,64.41,341.54,68.3" style="stroke:#181818;stroke-width:1.0;"/><line style="stroke:#181818;stroke-width:1.0;" x1="338.1445" x2="332.71" y1="64.6298" y2="58.76"/><polygon fill="none" points="286.17,29.94,290.5972,35.6321,297.5542,33.7347,293.127,28.0426,286.17,29.94" style="stroke:#181818;stroke-width:1.0;"/><text fill="#000000" font-family="sans-serif" font-size="13" lengthAdjust="spacing" textLength="155" x="356.669" y="57.5889">receivedMessages&lt;string&gt;</text></g><!--MD5=[94d298bedace72a31730dd98f5ea69ae]
link TCPClient to Thread--><g id="link_TCPClient_Thread"><path codeLine="15" d="M172.25,178.23 C172.28,197.91 173.25,217.53 175.16,232.72 " fill="none" id="TCPClient-to-Thread" style="stroke:#181818;stroke-width:1.0;"/><polygon fill="#181818" points="175.85,237.69,178.5791,228.2268,175.1649,232.7372,170.6545,229.323,175.85,237.69" style="stroke:#181818;stroke-width:1.0;"/><text fill="#000000" font-family="sans-serif" font-size="13" lengthAdjust="spacing" textLength="78" x="117.7991" y="226.9507">senderThread</text></g><!--MD5=[94d298bedace72a31730dd98f5ea69ae]
link TCPClient to Thread--><g id="link_TCPClient_Thread"><path codeLine="16" d="M198.5,178.23 C198.47,197.91 197.44,217.53 195.42,232.72 " fill="none" id="TCPClient-to-Thread-1" style="stroke:#181818;stroke-width:1.0;"/><polygon fill="#181818" points="194.69,237.69,199.9361,229.3546,195.4051,232.7414,192.0183,228.2104,194.69,237.69" style="stroke:#181818;stroke-width:1.0;"/><text fill="#000000" font-family="sans-serif" font-size="13" lengthAdjust="spacing" textLength="83" x="207.8074" y="226.9507">receiverThread</text></g><!--MD5=[d8d992452af7da2a9f1c7176d22c6560]
@startuml
class TCPClient {
    - ip : string
    - port : int
    + TCPClient(ip:string, port:int)
    + connect() : void
    sendCallStack() : void
    receiveMessages() : void
    - OnApplicationQuit() : void
}
class "List`1"<T> {
}
TCPClient - -> "ws" WebSocket
TCPClient o-> "callStack<string>" "List`1"
TCPClient o-> "receivedMessages<string>" "List`1"
TCPClient - -> "senderThread" Thread
TCPClient - -> "receiverThread" Thread
@enduml

PlantUML version 1.2022.5(Sat Apr 30 12:55:52 CEST 2022)
(GPL source distribution)
Java Runtime: Java(TM) SE Runtime Environment
JVM: Java HotSpot(TM) 64-Bit Server VM
Default Encoding: UTF-8
Language: en
Country: GB
--></g></svg>