<?xml version="1.0" encoding="UTF-8" standalone="no"?><svg xmlns="http://www.w3.org/2000/svg" xmlns:xlink="http://www.w3.org/1999/xlink" contentStyleType="text/css" height="313px" preserveAspectRatio="none" style="width:376px;height:313px;background:#FFFFFF;" version="1.1" viewBox="0 0 376 313" width="376px" zoomAndPan="magnify"><defs/><g><!--MD5=[1583a66fe34ca4f84a84557c2c86ef71]
class EnvMapAnimator--><g id="elem_EnvMapAnimator"><rect codeLine="1" fill="#F1F1F1" height="83.2188" id="EnvMapAnimator" rx="2.5" ry="2.5" style="stroke:#181818;stroke-width:0.5;" width="141" x="134.1676" y="115"/><ellipse cx="150.0676" cy="131" fill="#ADD1B2" rx="11" ry="11" style="stroke:#181818;stroke-width:1.0;"/><path d="M152.8333,126.875 Q152.9895,126.6563 153.177,126.5469 Q153.3645,126.4375 153.5833,126.4375 Q153.9583,126.4375 154.1926,126.7031 Q154.427,126.9531 154.427,127.5625 L154.427,129.0156 Q154.427,129.625 154.1926,129.8906 Q153.9583,130.1563 153.5833,130.1563 Q153.2395,130.1563 153.0364,129.9531 Q152.8333,129.7656 152.7239,129.25 Q152.677,128.8906 152.4895,128.7031 Q152.1614,128.3281 151.552,128.1094 Q150.9426,127.8906 150.3176,127.8906 Q149.552,127.8906 148.9114,128.2188 Q148.2864,128.5469 147.7864,129.2969 Q147.302,130.0469 147.302,131.0781 L147.302,132.1719 Q147.302,133.4063 148.1926,134.2344 Q149.0833,135.0469 150.677,135.0469 Q151.6145,135.0469 152.2708,134.7969 Q152.6614,134.6406 153.0833,134.2031 Q153.3489,133.9375 153.4895,133.8594 Q153.6458,133.7813 153.8489,133.7813 Q154.177,133.7813 154.427,134.0469 Q154.6926,134.2969 154.6926,134.6406 Q154.6926,134.9844 154.3489,135.3906 Q153.8489,135.9688 153.052,136.2969 Q151.9739,136.75 150.677,136.75 Q149.1614,136.75 147.9583,136.125 Q146.9739,135.625 146.2864,134.5625 Q145.5989,133.4844 145.5989,132.2031 L145.5989,131.0469 Q145.5989,129.7188 146.2083,128.5781 Q146.8333,127.4219 147.927,126.8125 Q149.0208,126.1875 150.2551,126.1875 Q150.9895,126.1875 151.6301,126.3594 Q152.2864,126.5156 152.8333,126.875 Z " fill="#000000"/><text fill="#000000" font-family="sans-serif" font-size="14" lengthAdjust="spacing" textLength="107" x="164.2676" y="136.7285">EnvMapAnimator</text><line style="stroke:#181818;stroke-width:0.5;" x1="135.1676" x2="274.1676" y1="147" y2="147"/><line style="stroke:#181818;stroke-width:0.5;" x1="135.1676" x2="274.1676" y1="155" y2="155"/><text fill="#000000" font-family="sans-serif" font-size="14" lengthAdjust="spacing" textLength="89" x="140.1676" y="173.5332">Awake() : void</text><text fill="#000000" font-family="sans-serif" font-size="14" lengthAdjust="spacing" textLength="129" x="140.1676" y="191.1426">Start() : IEnumerator</text></g><!--MD5=[83b3cf3d23d77c6f1e1b5291a241bc2a]
class MonoBehaviour--><g id="elem_MonoBehaviour"><rect fill="#F1F1F1" height="48" id="MonoBehaviour" rx="2.5" ry="2.5" style="stroke:#181818;stroke-width:0.5;" width="131" x="139.1676" y="7"/><ellipse cx="154.1676" cy="23" fill="#ADD1B2" rx="11" ry="11" style="stroke:#181818;stroke-width:1.0;"/><path d="M156.9333,18.875 Q157.0895,18.6563 157.277,18.5469 Q157.4645,18.4375 157.6833,18.4375 Q158.0583,18.4375 158.2926,18.7031 Q158.527,18.9531 158.527,19.5625 L158.527,21.0156 Q158.527,21.625 158.2926,21.8906 Q158.0583,22.1563 157.6833,22.1563 Q157.3395,22.1563 157.1364,21.9531 Q156.9333,21.7656 156.8239,21.25 Q156.777,20.8906 156.5895,20.7031 Q156.2614,20.3281 155.652,20.1094 Q155.0426,19.8906 154.4176,19.8906 Q153.652,19.8906 153.0114,20.2188 Q152.3864,20.5469 151.8864,21.2969 Q151.402,22.0469 151.402,23.0781 L151.402,24.1719 Q151.402,25.4063 152.2926,26.2344 Q153.1833,27.0469 154.777,27.0469 Q155.7145,27.0469 156.3708,26.7969 Q156.7614,26.6406 157.1833,26.2031 Q157.4489,25.9375 157.5895,25.8594 Q157.7458,25.7813 157.9489,25.7813 Q158.277,25.7813 158.527,26.0469 Q158.7926,26.2969 158.7926,26.6406 Q158.7926,26.9844 158.4489,27.3906 Q157.9489,27.9688 157.152,28.2969 Q156.0739,28.75 154.777,28.75 Q153.2614,28.75 152.0583,28.125 Q151.0739,27.625 150.3864,26.5625 Q149.6989,25.4844 149.6989,24.2031 L149.6989,23.0469 Q149.6989,21.7188 150.3083,20.5781 Q150.9333,19.4219 152.027,18.8125 Q153.1208,18.1875 154.3551,18.1875 Q155.0895,18.1875 155.7301,18.3594 Q156.3864,18.5156 156.9333,18.875 Z " fill="#000000"/><text fill="#000000" font-family="sans-serif" font-size="14" lengthAdjust="spacing" textLength="99" x="168.1676" y="28.7285">MonoBehaviour</text><line style="stroke:#181818;stroke-width:0.5;" x1="140.1676" x2="269.1676" y1="39" y2="39"/><line style="stroke:#181818;stroke-width:0.5;" x1="140.1676" x2="269.1676" y1="47" y2="47"/></g><!--MD5=[65d619c042c23702cef2ca07d67b1cf6]
class Vector3--><g id="elem_Vector3"><rect fill="#F1F1F1" height="48" id="Vector3" rx="2.5" ry="2.5" style="stroke:#181818;stroke-width:0.5;" width="81" x="40.1676" y="258"/><ellipse cx="55.1676" cy="274" fill="#ADD1B2" rx="11" ry="11" style="stroke:#181818;stroke-width:1.0;"/><path d="M57.9333,269.875 Q58.0895,269.6563 58.277,269.5469 Q58.4645,269.4375 58.6833,269.4375 Q59.0583,269.4375 59.2926,269.7031 Q59.527,269.9531 59.527,270.5625 L59.527,272.0156 Q59.527,272.625 59.2926,272.8906 Q59.0583,273.1563 58.6833,273.1563 Q58.3395,273.1563 58.1364,272.9531 Q57.9333,272.7656 57.8239,272.25 Q57.777,271.8906 57.5895,271.7031 Q57.2614,271.3281 56.652,271.1094 Q56.0426,270.8906 55.4176,270.8906 Q54.652,270.8906 54.0114,271.2188 Q53.3864,271.5469 52.8864,272.2969 Q52.402,273.0469 52.402,274.0781 L52.402,275.1719 Q52.402,276.4063 53.2926,277.2344 Q54.1833,278.0469 55.777,278.0469 Q56.7145,278.0469 57.3708,277.7969 Q57.7614,277.6406 58.1833,277.2031 Q58.4489,276.9375 58.5895,276.8594 Q58.7458,276.7813 58.9489,276.7813 Q59.277,276.7813 59.527,277.0469 Q59.7926,277.2969 59.7926,277.6406 Q59.7926,277.9844 59.4489,278.3906 Q58.9489,278.9688 58.152,279.2969 Q57.0739,279.75 55.777,279.75 Q54.2614,279.75 53.0583,279.125 Q52.0739,278.625 51.3864,277.5625 Q50.6989,276.4844 50.6989,275.2031 L50.6989,274.0469 Q50.6989,272.7188 51.3083,271.5781 Q51.9333,270.4219 53.027,269.8125 Q54.1208,269.1875 55.3551,269.1875 Q56.0895,269.1875 56.7301,269.3594 Q57.3864,269.5156 57.9333,269.875 Z " fill="#000000"/><text fill="#000000" font-family="sans-serif" font-size="14" lengthAdjust="spacing" textLength="49" x="69.1676" y="279.7285">Vector3</text><line style="stroke:#181818;stroke-width:0.5;" x1="41.1676" x2="120.1676" y1="290" y2="290"/><line style="stroke:#181818;stroke-width:0.5;" x1="41.1676" x2="120.1676" y1="298" y2="298"/></g><!--MD5=[fa07864ef55e7d1943fa981e1ee9b4e7]
class TMP_Text--><g id="elem_TMP_Text"><rect fill="#F1F1F1" height="48" id="TMP_Text" rx="2.5" ry="2.5" style="stroke:#181818;stroke-width:0.5;" width="96" x="156.6676" y="258"/><ellipse cx="171.6676" cy="274" fill="#ADD1B2" rx="11" ry="11" style="stroke:#181818;stroke-width:1.0;"/><path d="M174.4333,269.875 Q174.5895,269.6563 174.777,269.5469 Q174.9645,269.4375 175.1833,269.4375 Q175.5583,269.4375 175.7926,269.7031 Q176.027,269.9531 176.027,270.5625 L176.027,272.0156 Q176.027,272.625 175.7926,272.8906 Q175.5583,273.1563 175.1833,273.1563 Q174.8395,273.1563 174.6364,272.9531 Q174.4333,272.7656 174.3239,272.25 Q174.277,271.8906 174.0895,271.7031 Q173.7614,271.3281 173.152,271.1094 Q172.5426,270.8906 171.9176,270.8906 Q171.152,270.8906 170.5114,271.2188 Q169.8864,271.5469 169.3864,272.2969 Q168.902,273.0469 168.902,274.0781 L168.902,275.1719 Q168.902,276.4063 169.7926,277.2344 Q170.6833,278.0469 172.277,278.0469 Q173.2145,278.0469 173.8708,277.7969 Q174.2614,277.6406 174.6833,277.2031 Q174.9489,276.9375 175.0895,276.8594 Q175.2458,276.7813 175.4489,276.7813 Q175.777,276.7813 176.027,277.0469 Q176.2926,277.2969 176.2926,277.6406 Q176.2926,277.9844 175.9489,278.3906 Q175.4489,278.9688 174.652,279.2969 Q173.5739,279.75 172.277,279.75 Q170.7614,279.75 169.5583,279.125 Q168.5739,278.625 167.8864,277.5625 Q167.1989,276.4844 167.1989,275.2031 L167.1989,274.0469 Q167.1989,272.7188 167.8083,271.5781 Q168.4333,270.4219 169.527,269.8125 Q170.6208,269.1875 171.8551,269.1875 Q172.5895,269.1875 173.2301,269.3594 Q173.8864,269.5156 174.4333,269.875 Z " fill="#000000"/><text fill="#000000" font-family="sans-serif" font-size="14" lengthAdjust="spacing" textLength="64" x="185.6676" y="279.7285">TMP_Text</text><line style="stroke:#181818;stroke-width:0.5;" x1="157.6676" x2="251.6676" y1="290" y2="290"/><line style="stroke:#181818;stroke-width:0.5;" x1="157.6676" x2="251.6676" y1="298" y2="298"/></g><!--MD5=[90d32ccc189f11441a6ce7cbb63ad387]
class Material--><g id="elem_Material"><rect fill="#F1F1F1" height="48" id="Material" rx="2.5" ry="2.5" style="stroke:#181818;stroke-width:0.5;" width="82" x="287.6676" y="258"/><ellipse cx="302.6676" cy="274" fill="#ADD1B2" rx="11" ry="11" style="stroke:#181818;stroke-width:1.0;"/><path d="M305.4333,269.875 Q305.5895,269.6563 305.777,269.5469 Q305.9645,269.4375 306.1833,269.4375 Q306.5583,269.4375 306.7926,269.7031 Q307.027,269.9531 307.027,270.5625 L307.027,272.0156 Q307.027,272.625 306.7926,272.8906 Q306.5583,273.1563 306.1833,273.1563 Q305.8395,273.1563 305.6364,272.9531 Q305.4333,272.7656 305.3239,272.25 Q305.277,271.8906 305.0895,271.7031 Q304.7614,271.3281 304.152,271.1094 Q303.5426,270.8906 302.9176,270.8906 Q302.152,270.8906 301.5114,271.2188 Q300.8864,271.5469 300.3864,272.2969 Q299.902,273.0469 299.902,274.0781 L299.902,275.1719 Q299.902,276.4063 300.7926,277.2344 Q301.6833,278.0469 303.277,278.0469 Q304.2145,278.0469 304.8708,277.7969 Q305.2614,277.6406 305.6833,277.2031 Q305.9489,276.9375 306.0895,276.8594 Q306.2458,276.7813 306.4489,276.7813 Q306.777,276.7813 307.027,277.0469 Q307.2926,277.2969 307.2926,277.6406 Q307.2926,277.9844 306.9489,278.3906 Q306.4489,278.9688 305.652,279.2969 Q304.5739,279.75 303.277,279.75 Q301.7614,279.75 300.5583,279.125 Q299.5739,278.625 298.8864,277.5625 Q298.1989,276.4844 298.1989,275.2031 L298.1989,274.0469 Q298.1989,272.7188 298.8083,271.5781 Q299.4333,270.4219 300.527,269.8125 Q301.6208,269.1875 302.8551,269.1875 Q303.5895,269.1875 304.2301,269.3594 Q304.8864,269.5156 305.4333,269.875 Z " fill="#000000"/><text fill="#000000" font-family="sans-serif" font-size="14" lengthAdjust="spacing" textLength="50" x="316.6676" y="279.7285">Material</text><line style="stroke:#181818;stroke-width:0.5;" x1="288.6676" x2="368.6676" y1="290" y2="290"/><line style="stroke:#181818;stroke-width:0.5;" x1="288.6676" x2="368.6676" y1="298" y2="298"/></g><!--MD5=[7f9d89c8a0f7d570c498e25aee5f419c]
reverse link MonoBehaviour to EnvMapAnimator--><g id="link_MonoBehaviour_EnvMapAnimator"><path codeLine="5" d="M204.6676,75.31 C204.6676,88.16 204.6676,102.19 204.6676,114.87 " fill="none" id="MonoBehaviour-backto-EnvMapAnimator" style="stroke:#181818;stroke-width:1.0;"/><polygon fill="none" points="197.6676,75.23,204.6676,55.23,211.6676,75.23,197.6676,75.23" style="stroke:#181818;stroke-width:1.0;"/></g><!--MD5=[a9356fd4d4248eb2ae79683779264729]
link EnvMapAnimator to Vector3--><g id="link_EnvMapAnimator_Vector3"><path codeLine="6" d="M163.7176,198.28 C145.2276,216.7 123.8976,237.95 107.4876,254.29 " fill="none" id="EnvMapAnimator-to-Vector3" style="stroke:#181818;stroke-width:1.0;"/><polygon fill="#181818" points="103.8476,257.91,113.0471,254.393,107.3903,254.3816,107.4017,248.7248,103.8476,257.91" style="stroke:#181818;stroke-width:1.0;"/><text fill="#000000" font-family="sans-serif" font-size="13" lengthAdjust="spacing" textLength="92" x="6" y="247.2271">RotationSpeeds</text></g><!--MD5=[bde35ede3c561639acbfbb5f2de2e643]
link EnvMapAnimator to TMP_Text--><g id="link_EnvMapAnimator_TMP_Text"><path codeLine="7" d="M204.6676,198.28 C204.6676,216.08 204.6676,236.52 204.6676,252.63 " fill="none" id="EnvMapAnimator-to-TMP_Text" style="stroke:#181818;stroke-width:1.0;"/><polygon fill="#181818" points="204.6676,257.91,208.6676,248.91,204.6676,252.91,200.6676,248.91,204.6676,257.91" style="stroke:#181818;stroke-width:1.0;"/><text fill="#000000" font-family="sans-serif" font-size="13" lengthAdjust="spacing" textLength="92" x="127.4932" y="247.1987">m_textMeshPro</text></g><!--MD5=[59f3bad9f62305d95089a30cb2e82bc9]
link EnvMapAnimator to Material--><g id="link_EnvMapAnimator_Material"><path codeLine="8" d="M245.6176,198.28 C264.1076,216.7 285.4376,237.95 301.8576,254.29 " fill="none" id="EnvMapAnimator-to-Material" style="stroke:#181818;stroke-width:1.0;"/><polygon fill="#181818" points="305.4876,257.91,301.9335,248.7248,301.945,254.3816,296.2881,254.393,305.4876,257.91" style="stroke:#181818;stroke-width:1.0;"/><text fill="#000000" font-family="sans-serif" font-size="13" lengthAdjust="spacing" textLength="64" x="259.0641" y="247.1645">m_material</text></g><!--MD5=[74654da9329ae3ededd97a0715adebd1]
@startuml
class EnvMapAnimator {
    Awake() : void
    Start() : IEnumerator
}
MonoBehaviour <|- - EnvMapAnimator
EnvMapAnimator - -> "RotationSpeeds" Vector3
EnvMapAnimator - -> "m_textMeshPro" TMP_Text
EnvMapAnimator - -> "m_material" Material
@enduml

PlantUML version 1.2022.5(Sat Apr 30 12:55:52 CEST 2022)
(GPL source distribution)
Java Runtime: Java(TM) SE Runtime Environment
JVM: Java HotSpot(TM) 64-Bit Server VM
Default Encoding: UTF-8
Language: en
Country: GB
--></g></svg>