<?xml version="1.0" encoding="UTF-8" standalone="no"?><svg xmlns="http://www.w3.org/2000/svg" xmlns:xlink="http://www.w3.org/1999/xlink" contentStyleType="text/css" height="384px" preserveAspectRatio="none" style="width:1071px;height:384px;background:#FFFFFF;" version="1.1" viewBox="0 0 1071 384" width="1071px" zoomAndPan="magnify"><defs/><g><!--MD5=[7c53773ceccb88a8381275beba1efaca]
class TextMeshProFloatingText--><g id="elem_TextMeshProFloatingText"><rect codeLine="1" fill="#F1F1F1" height="153.6563" id="TextMeshProFloatingText" rx="2.5" ry="2.5" style="stroke:#181818;stroke-width:0.5;" width="332" x="279.5" y="115"/><ellipse cx="360.75" cy="131" fill="#ADD1B2" rx="11" ry="11" style="stroke:#181818;stroke-width:1.0;"/><path d="M363.5156,126.875 Q363.6719,126.6563 363.8594,126.5469 Q364.0469,126.4375 364.2656,126.4375 Q364.6406,126.4375 364.875,126.7031 Q365.1094,126.9531 365.1094,127.5625 L365.1094,129.0156 Q365.1094,129.625 364.875,129.8906 Q364.6406,130.1563 364.2656,130.1563 Q363.9219,130.1563 363.7188,129.9531 Q363.5156,129.7656 363.4063,129.25 Q363.3594,128.8906 363.1719,128.7031 Q362.8438,128.3281 362.2344,128.1094 Q361.625,127.8906 361,127.8906 Q360.2344,127.8906 359.5938,128.2188 Q358.9688,128.5469 358.4688,129.2969 Q357.9844,130.0469 357.9844,131.0781 L357.9844,132.1719 Q357.9844,133.4063 358.875,134.2344 Q359.7656,135.0469 361.3594,135.0469 Q362.2969,135.0469 362.9531,134.7969 Q363.3438,134.6406 363.7656,134.2031 Q364.0313,133.9375 364.1719,133.8594 Q364.3281,133.7813 364.5313,133.7813 Q364.8594,133.7813 365.1094,134.0469 Q365.375,134.2969 365.375,134.6406 Q365.375,134.9844 365.0313,135.3906 Q364.5313,135.9688 363.7344,136.2969 Q362.6563,136.75 361.3594,136.75 Q359.8438,136.75 358.6406,136.125 Q357.6563,135.625 356.9688,134.5625 Q356.2813,133.4844 356.2813,132.2031 L356.2813,131.0469 Q356.2813,129.7188 356.8906,128.5781 Q357.5156,127.4219 358.6094,126.8125 Q359.7031,126.1875 360.9375,126.1875 Q361.6719,126.1875 362.3125,126.3594 Q362.9688,126.5156 363.5156,126.875 Z " fill="#000000"/><text fill="#000000" font-family="sans-serif" font-size="14" lengthAdjust="spacing" textLength="161" x="381.25" y="136.7285">TextMeshProFloatingText</text><line style="stroke:#181818;stroke-width:0.5;" x1="280.5" x2="610.5" y1="147" y2="147"/><ellipse cx="290.5" cy="158" fill="none" rx="3" ry="3" style="stroke:#038048;stroke-width:1.0;"/><text fill="#000000" font-family="sans-serif" font-size="14" lengthAdjust="spacing" textLength="101" x="299.5" y="165.5332">SpawnType : int</text><ellipse cx="290.5" cy="175.6094" fill="none" rx="3" ry="3" style="stroke:#038048;stroke-width:1.0;"/><text fill="#000000" font-family="sans-serif" font-size="14" lengthAdjust="spacing" textLength="187" x="299.5" y="183.1426">IsTextObjectScaleStatic : bool</text><line style="stroke:#181818;stroke-width:0.5;" x1="280.5" x2="610.5" y1="190.2188" y2="190.2188"/><text fill="#000000" font-family="sans-serif" font-size="14" lengthAdjust="spacing" textLength="89" x="299.5" y="208.752">Awake() : void</text><text fill="#000000" font-family="sans-serif" font-size="14" lengthAdjust="spacing" textLength="78" x="299.5" y="226.3613">Start() : void</text><ellipse cx="290.5" cy="236.4375" fill="#84BE84" rx="3" ry="3" style="stroke:#038048;stroke-width:1.0;"/><text fill="#000000" font-family="sans-serif" font-size="14" lengthAdjust="spacing" textLength="306" x="299.5" y="243.9707">DisplayTextMeshProFloatingText() : IEnumerator</text><ellipse cx="290.5" cy="254.0469" fill="#84BE84" rx="3" ry="3" style="stroke:#038048;stroke-width:1.0;"/><text fill="#000000" font-family="sans-serif" font-size="14" lengthAdjust="spacing" textLength="284" x="299.5" y="261.5801">DisplayTextMeshFloatingText() : IEnumerator</text></g><!--MD5=[83b3cf3d23d77c6f1e1b5291a241bc2a]
class MonoBehaviour--><g id="elem_MonoBehaviour"><rect fill="#F1F1F1" height="48" id="MonoBehaviour" rx="2.5" ry="2.5" style="stroke:#181818;stroke-width:0.5;" width="131" x="380" y="7"/><ellipse cx="395" cy="23" fill="#ADD1B2" rx="11" ry="11" style="stroke:#181818;stroke-width:1.0;"/><path d="M397.7656,18.875 Q397.9219,18.6563 398.1094,18.5469 Q398.2969,18.4375 398.5156,18.4375 Q398.8906,18.4375 399.125,18.7031 Q399.3594,18.9531 399.3594,19.5625 L399.3594,21.0156 Q399.3594,21.625 399.125,21.8906 Q398.8906,22.1563 398.5156,22.1563 Q398.1719,22.1563 397.9688,21.9531 Q397.7656,21.7656 397.6563,21.25 Q397.6094,20.8906 397.4219,20.7031 Q397.0938,20.3281 396.4844,20.1094 Q395.875,19.8906 395.25,19.8906 Q394.4844,19.8906 393.8438,20.2188 Q393.2188,20.5469 392.7188,21.2969 Q392.2344,22.0469 392.2344,23.0781 L392.2344,24.1719 Q392.2344,25.4063 393.125,26.2344 Q394.0156,27.0469 395.6094,27.0469 Q396.5469,27.0469 397.2031,26.7969 Q397.5938,26.6406 398.0156,26.2031 Q398.2813,25.9375 398.4219,25.8594 Q398.5781,25.7813 398.7813,25.7813 Q399.1094,25.7813 399.3594,26.0469 Q399.625,26.2969 399.625,26.6406 Q399.625,26.9844 399.2813,27.3906 Q398.7813,27.9688 397.9844,28.2969 Q396.9063,28.75 395.6094,28.75 Q394.0938,28.75 392.8906,28.125 Q391.9063,27.625 391.2188,26.5625 Q390.5313,25.4844 390.5313,24.2031 L390.5313,23.0469 Q390.5313,21.7188 391.1406,20.5781 Q391.7656,19.4219 392.8594,18.8125 Q393.9531,18.1875 395.1875,18.1875 Q395.9219,18.1875 396.5625,18.3594 Q397.2188,18.5156 397.7656,18.875 Z " fill="#000000"/><text fill="#000000" font-family="sans-serif" font-size="14" lengthAdjust="spacing" textLength="99" x="409" y="28.7285">MonoBehaviour</text><line style="stroke:#181818;stroke-width:0.5;" x1="381" x2="510" y1="39" y2="39"/><line style="stroke:#181818;stroke-width:0.5;" x1="381" x2="510" y1="47" y2="47"/></g><!--MD5=[6a4b3e39d382a486f52eb45bc299d39c]
class Font--><g id="elem_Font"><rect fill="#F1F1F1" height="48" id="Font" rx="2.5" ry="2.5" style="stroke:#181818;stroke-width:0.5;" width="61" x="7" y="329"/><ellipse cx="22" cy="345" fill="#ADD1B2" rx="11" ry="11" style="stroke:#181818;stroke-width:1.0;"/><path d="M24.7656,340.875 Q24.9219,340.6563 25.1094,340.5469 Q25.2969,340.4375 25.5156,340.4375 Q25.8906,340.4375 26.125,340.7031 Q26.3594,340.9531 26.3594,341.5625 L26.3594,343.0156 Q26.3594,343.625 26.125,343.8906 Q25.8906,344.1563 25.5156,344.1563 Q25.1719,344.1563 24.9688,343.9531 Q24.7656,343.7656 24.6563,343.25 Q24.6094,342.8906 24.4219,342.7031 Q24.0938,342.3281 23.4844,342.1094 Q22.875,341.8906 22.25,341.8906 Q21.4844,341.8906 20.8438,342.2188 Q20.2188,342.5469 19.7188,343.2969 Q19.2344,344.0469 19.2344,345.0781 L19.2344,346.1719 Q19.2344,347.4063 20.125,348.2344 Q21.0156,349.0469 22.6094,349.0469 Q23.5469,349.0469 24.2031,348.7969 Q24.5938,348.6406 25.0156,348.2031 Q25.2813,347.9375 25.4219,347.8594 Q25.5781,347.7813 25.7813,347.7813 Q26.1094,347.7813 26.3594,348.0469 Q26.625,348.2969 26.625,348.6406 Q26.625,348.9844 26.2813,349.3906 Q25.7813,349.9688 24.9844,350.2969 Q23.9063,350.75 22.6094,350.75 Q21.0938,350.75 19.8906,350.125 Q18.9063,349.625 18.2188,348.5625 Q17.5313,347.4844 17.5313,346.2031 L17.5313,345.0469 Q17.5313,343.7188 18.1406,342.5781 Q18.7656,341.4219 19.8594,340.8125 Q20.9531,340.1875 22.1875,340.1875 Q22.9219,340.1875 23.5625,340.3594 Q24.2188,340.5156 24.7656,340.875 Z " fill="#000000"/><text fill="#000000" font-family="sans-serif" font-size="14" lengthAdjust="spacing" textLength="29" x="36" y="350.7285">Font</text><line style="stroke:#181818;stroke-width:0.5;" x1="8" x2="67" y1="361" y2="361"/><line style="stroke:#181818;stroke-width:0.5;" x1="8" x2="67" y1="369" y2="369"/></g><!--MD5=[064f7a74fee85463ec1a30143664ee17]
class GameObject--><g id="elem_GameObject"><rect fill="#F1F1F1" height="48" id="GameObject" rx="2.5" ry="2.5" style="stroke:#181818;stroke-width:0.5;" width="111" x="103" y="329"/><ellipse cx="118" cy="345" fill="#ADD1B2" rx="11" ry="11" style="stroke:#181818;stroke-width:1.0;"/><path d="M120.7656,340.875 Q120.9219,340.6563 121.1094,340.5469 Q121.2969,340.4375 121.5156,340.4375 Q121.8906,340.4375 122.125,340.7031 Q122.3594,340.9531 122.3594,341.5625 L122.3594,343.0156 Q122.3594,343.625 122.125,343.8906 Q121.8906,344.1563 121.5156,344.1563 Q121.1719,344.1563 120.9688,343.9531 Q120.7656,343.7656 120.6563,343.25 Q120.6094,342.8906 120.4219,342.7031 Q120.0938,342.3281 119.4844,342.1094 Q118.875,341.8906 118.25,341.8906 Q117.4844,341.8906 116.8438,342.2188 Q116.2188,342.5469 115.7188,343.2969 Q115.2344,344.0469 115.2344,345.0781 L115.2344,346.1719 Q115.2344,347.4063 116.125,348.2344 Q117.0156,349.0469 118.6094,349.0469 Q119.5469,349.0469 120.2031,348.7969 Q120.5938,348.6406 121.0156,348.2031 Q121.2813,347.9375 121.4219,347.8594 Q121.5781,347.7813 121.7813,347.7813 Q122.1094,347.7813 122.3594,348.0469 Q122.625,348.2969 122.625,348.6406 Q122.625,348.9844 122.2813,349.3906 Q121.7813,349.9688 120.9844,350.2969 Q119.9063,350.75 118.6094,350.75 Q117.0938,350.75 115.8906,350.125 Q114.9063,349.625 114.2188,348.5625 Q113.5313,347.4844 113.5313,346.2031 L113.5313,345.0469 Q113.5313,343.7188 114.1406,342.5781 Q114.7656,341.4219 115.8594,340.8125 Q116.9531,340.1875 118.1875,340.1875 Q118.9219,340.1875 119.5625,340.3594 Q120.2188,340.5156 120.7656,340.875 Z " fill="#000000"/><text fill="#000000" font-family="sans-serif" font-size="14" lengthAdjust="spacing" textLength="79" x="132" y="350.7285">GameObject</text><line style="stroke:#181818;stroke-width:0.5;" x1="104" x2="213" y1="361" y2="361"/><line style="stroke:#181818;stroke-width:0.5;" x1="104" x2="213" y1="369" y2="369"/></g><!--MD5=[02f215d6db5b7f34e36b05d8f35ff3a4]
class TextMeshPro--><g id="elem_TextMeshPro"><rect fill="#F1F1F1" height="48" id="TextMeshPro" rx="2.5" ry="2.5" style="stroke:#181818;stroke-width:0.5;" width="115" x="249" y="329"/><ellipse cx="264" cy="345" fill="#ADD1B2" rx="11" ry="11" style="stroke:#181818;stroke-width:1.0;"/><path d="M266.7656,340.875 Q266.9219,340.6563 267.1094,340.5469 Q267.2969,340.4375 267.5156,340.4375 Q267.8906,340.4375 268.125,340.7031 Q268.3594,340.9531 268.3594,341.5625 L268.3594,343.0156 Q268.3594,343.625 268.125,343.8906 Q267.8906,344.1563 267.5156,344.1563 Q267.1719,344.1563 266.9688,343.9531 Q266.7656,343.7656 266.6563,343.25 Q266.6094,342.8906 266.4219,342.7031 Q266.0938,342.3281 265.4844,342.1094 Q264.875,341.8906 264.25,341.8906 Q263.4844,341.8906 262.8438,342.2188 Q262.2188,342.5469 261.7188,343.2969 Q261.2344,344.0469 261.2344,345.0781 L261.2344,346.1719 Q261.2344,347.4063 262.125,348.2344 Q263.0156,349.0469 264.6094,349.0469 Q265.5469,349.0469 266.2031,348.7969 Q266.5938,348.6406 267.0156,348.2031 Q267.2813,347.9375 267.4219,347.8594 Q267.5781,347.7813 267.7813,347.7813 Q268.1094,347.7813 268.3594,348.0469 Q268.625,348.2969 268.625,348.6406 Q268.625,348.9844 268.2813,349.3906 Q267.7813,349.9688 266.9844,350.2969 Q265.9063,350.75 264.6094,350.75 Q263.0938,350.75 261.8906,350.125 Q260.9063,349.625 260.2188,348.5625 Q259.5313,347.4844 259.5313,346.2031 L259.5313,345.0469 Q259.5313,343.7188 260.1406,342.5781 Q260.7656,341.4219 261.8594,340.8125 Q262.9531,340.1875 264.1875,340.1875 Q264.9219,340.1875 265.5625,340.3594 Q266.2188,340.5156 266.7656,340.875 Z " fill="#000000"/><text fill="#000000" font-family="sans-serif" font-size="14" lengthAdjust="spacing" textLength="83" x="278" y="350.7285">TextMeshPro</text><line style="stroke:#181818;stroke-width:0.5;" x1="250" x2="363" y1="361" y2="361"/><line style="stroke:#181818;stroke-width:0.5;" x1="250" x2="363" y1="369" y2="369"/></g><!--MD5=[14678ec668e149196888790937adef64]
class TextMesh--><g id="elem_TextMesh"><rect fill="#F1F1F1" height="48" id="TextMesh" rx="2.5" ry="2.5" style="stroke:#181818;stroke-width:0.5;" width="93" x="399" y="329"/><ellipse cx="414" cy="345" fill="#ADD1B2" rx="11" ry="11" style="stroke:#181818;stroke-width:1.0;"/><path d="M416.7656,340.875 Q416.9219,340.6563 417.1094,340.5469 Q417.2969,340.4375 417.5156,340.4375 Q417.8906,340.4375 418.125,340.7031 Q418.3594,340.9531 418.3594,341.5625 L418.3594,343.0156 Q418.3594,343.625 418.125,343.8906 Q417.8906,344.1563 417.5156,344.1563 Q417.1719,344.1563 416.9688,343.9531 Q416.7656,343.7656 416.6563,343.25 Q416.6094,342.8906 416.4219,342.7031 Q416.0938,342.3281 415.4844,342.1094 Q414.875,341.8906 414.25,341.8906 Q413.4844,341.8906 412.8438,342.2188 Q412.2188,342.5469 411.7188,343.2969 Q411.2344,344.0469 411.2344,345.0781 L411.2344,346.1719 Q411.2344,347.4063 412.125,348.2344 Q413.0156,349.0469 414.6094,349.0469 Q415.5469,349.0469 416.2031,348.7969 Q416.5938,348.6406 417.0156,348.2031 Q417.2813,347.9375 417.4219,347.8594 Q417.5781,347.7813 417.7813,347.7813 Q418.1094,347.7813 418.3594,348.0469 Q418.625,348.2969 418.625,348.6406 Q418.625,348.9844 418.2813,349.3906 Q417.7813,349.9688 416.9844,350.2969 Q415.9063,350.75 414.6094,350.75 Q413.0938,350.75 411.8906,350.125 Q410.9063,349.625 410.2188,348.5625 Q409.5313,347.4844 409.5313,346.2031 L409.5313,345.0469 Q409.5313,343.7188 410.1406,342.5781 Q410.7656,341.4219 411.8594,340.8125 Q412.9531,340.1875 414.1875,340.1875 Q414.9219,340.1875 415.5625,340.3594 Q416.2188,340.5156 416.7656,340.875 Z " fill="#000000"/><text fill="#000000" font-family="sans-serif" font-size="14" lengthAdjust="spacing" textLength="61" x="428" y="350.7285">TextMesh</text><line style="stroke:#181818;stroke-width:0.5;" x1="400" x2="491" y1="361" y2="361"/><line style="stroke:#181818;stroke-width:0.5;" x1="400" x2="491" y1="369" y2="369"/></g><!--MD5=[004b1d6c4ca8aad4ba8b586a335ed4f3]
class Transform--><g id="elem_Transform"><rect fill="#F1F1F1" height="48" id="Transform" rx="2.5" ry="2.5" style="stroke:#181818;stroke-width:0.5;" width="97" x="527" y="329"/><ellipse cx="542" cy="345" fill="#ADD1B2" rx="11" ry="11" style="stroke:#181818;stroke-width:1.0;"/><path d="M544.7656,340.875 Q544.9219,340.6563 545.1094,340.5469 Q545.2969,340.4375 545.5156,340.4375 Q545.8906,340.4375 546.125,340.7031 Q546.3594,340.9531 546.3594,341.5625 L546.3594,343.0156 Q546.3594,343.625 546.125,343.8906 Q545.8906,344.1563 545.5156,344.1563 Q545.1719,344.1563 544.9688,343.9531 Q544.7656,343.7656 544.6563,343.25 Q544.6094,342.8906 544.4219,342.7031 Q544.0938,342.3281 543.4844,342.1094 Q542.875,341.8906 542.25,341.8906 Q541.4844,341.8906 540.8438,342.2188 Q540.2188,342.5469 539.7188,343.2969 Q539.2344,344.0469 539.2344,345.0781 L539.2344,346.1719 Q539.2344,347.4063 540.125,348.2344 Q541.0156,349.0469 542.6094,349.0469 Q543.5469,349.0469 544.2031,348.7969 Q544.5938,348.6406 545.0156,348.2031 Q545.2813,347.9375 545.4219,347.8594 Q545.5781,347.7813 545.7813,347.7813 Q546.1094,347.7813 546.3594,348.0469 Q546.625,348.2969 546.625,348.6406 Q546.625,348.9844 546.2813,349.3906 Q545.7813,349.9688 544.9844,350.2969 Q543.9063,350.75 542.6094,350.75 Q541.0938,350.75 539.8906,350.125 Q538.9063,349.625 538.2188,348.5625 Q537.5313,347.4844 537.5313,346.2031 L537.5313,345.0469 Q537.5313,343.7188 538.1406,342.5781 Q538.7656,341.4219 539.8594,340.8125 Q540.9531,340.1875 542.1875,340.1875 Q542.9219,340.1875 543.5625,340.3594 Q544.2188,340.5156 544.7656,340.875 Z " fill="#000000"/><text fill="#000000" font-family="sans-serif" font-size="14" lengthAdjust="spacing" textLength="65" x="556" y="350.7285">Transform</text><line style="stroke:#181818;stroke-width:0.5;" x1="528" x2="623" y1="361" y2="361"/><line style="stroke:#181818;stroke-width:0.5;" x1="528" x2="623" y1="369" y2="369"/></g><!--MD5=[65d619c042c23702cef2ca07d67b1cf6]
class Vector3--><g id="elem_Vector3"><rect fill="#F1F1F1" height="48" id="Vector3" rx="2.5" ry="2.5" style="stroke:#181818;stroke-width:0.5;" width="81" x="983" y="168"/><ellipse cx="998" cy="184" fill="#ADD1B2" rx="11" ry="11" style="stroke:#181818;stroke-width:1.0;"/><path d="M1000.7656,179.875 Q1000.9219,179.6563 1001.1094,179.5469 Q1001.2969,179.4375 1001.5156,179.4375 Q1001.8906,179.4375 1002.125,179.7031 Q1002.3594,179.9531 1002.3594,180.5625 L1002.3594,182.0156 Q1002.3594,182.625 1002.125,182.8906 Q1001.8906,183.1563 1001.5156,183.1563 Q1001.1719,183.1563 1000.9688,182.9531 Q1000.7656,182.7656 1000.6563,182.25 Q1000.6094,181.8906 1000.4219,181.7031 Q1000.0938,181.3281 999.4844,181.1094 Q998.875,180.8906 998.25,180.8906 Q997.4844,180.8906 996.8438,181.2188 Q996.2188,181.5469 995.7188,182.2969 Q995.2344,183.0469 995.2344,184.0781 L995.2344,185.1719 Q995.2344,186.4063 996.125,187.2344 Q997.0156,188.0469 998.6094,188.0469 Q999.5469,188.0469 1000.2031,187.7969 Q1000.5938,187.6406 1001.0156,187.2031 Q1001.2813,186.9375 1001.4219,186.8594 Q1001.5781,186.7813 1001.7813,186.7813 Q1002.1094,186.7813 1002.3594,187.0469 Q1002.625,187.2969 1002.625,187.6406 Q1002.625,187.9844 1002.2813,188.3906 Q1001.7813,188.9688 1000.9844,189.2969 Q999.9063,189.75 998.6094,189.75 Q997.0938,189.75 995.8906,189.125 Q994.9063,188.625 994.2188,187.5625 Q993.5313,186.4844 993.5313,185.2031 L993.5313,184.0469 Q993.5313,182.7188 994.1406,181.5781 Q994.7656,180.4219 995.8594,179.8125 Q996.9531,179.1875 998.1875,179.1875 Q998.9219,179.1875 999.5625,179.3594 Q1000.2188,179.5156 1000.7656,179.875 Z " fill="#000000"/><text fill="#000000" font-family="sans-serif" font-size="14" lengthAdjust="spacing" textLength="49" x="1012" y="189.7285">Vector3</text><line style="stroke:#181818;stroke-width:0.5;" x1="984" x2="1063" y1="200" y2="200"/><line style="stroke:#181818;stroke-width:0.5;" x1="984" x2="1063" y1="208" y2="208"/></g><!--MD5=[4c7b140fed10e9877852f4b8dc88c33d]
class Quaternion--><g id="elem_Quaternion"><rect fill="#F1F1F1" height="48" id="Quaternion" rx="2.5" ry="2.5" style="stroke:#181818;stroke-width:0.5;" width="103" x="845" y="168"/><ellipse cx="860" cy="184" fill="#ADD1B2" rx="11" ry="11" style="stroke:#181818;stroke-width:1.0;"/><path d="M862.7656,179.875 Q862.9219,179.6563 863.1094,179.5469 Q863.2969,179.4375 863.5156,179.4375 Q863.8906,179.4375 864.125,179.7031 Q864.3594,179.9531 864.3594,180.5625 L864.3594,182.0156 Q864.3594,182.625 864.125,182.8906 Q863.8906,183.1563 863.5156,183.1563 Q863.1719,183.1563 862.9688,182.9531 Q862.7656,182.7656 862.6563,182.25 Q862.6094,181.8906 862.4219,181.7031 Q862.0938,181.3281 861.4844,181.1094 Q860.875,180.8906 860.25,180.8906 Q859.4844,180.8906 858.8438,181.2188 Q858.2188,181.5469 857.7188,182.2969 Q857.2344,183.0469 857.2344,184.0781 L857.2344,185.1719 Q857.2344,186.4063 858.125,187.2344 Q859.0156,188.0469 860.6094,188.0469 Q861.5469,188.0469 862.2031,187.7969 Q862.5938,187.6406 863.0156,187.2031 Q863.2813,186.9375 863.4219,186.8594 Q863.5781,186.7813 863.7813,186.7813 Q864.1094,186.7813 864.3594,187.0469 Q864.625,187.2969 864.625,187.6406 Q864.625,187.9844 864.2813,188.3906 Q863.7813,188.9688 862.9844,189.2969 Q861.9063,189.75 860.6094,189.75 Q859.0938,189.75 857.8906,189.125 Q856.9063,188.625 856.2188,187.5625 Q855.5313,186.4844 855.5313,185.2031 L855.5313,184.0469 Q855.5313,182.7188 856.1406,181.5781 Q856.7656,180.4219 857.8594,179.8125 Q858.9531,179.1875 860.1875,179.1875 Q860.9219,179.1875 861.5625,179.3594 Q862.2188,179.5156 862.7656,179.875 Z " fill="#000000"/><text fill="#000000" font-family="sans-serif" font-size="14" lengthAdjust="spacing" textLength="71" x="874" y="189.7285">Quaternion</text><line style="stroke:#181818;stroke-width:0.5;" x1="846" x2="947" y1="200" y2="200"/><line style="stroke:#181818;stroke-width:0.5;" x1="846" x2="947" y1="208" y2="208"/></g><!--MD5=[410415e5f7aa0a6ccce29b56c15c2452]
class WaitForEndOfFrame--><g id="elem_WaitForEndOfFrame"><rect fill="#F1F1F1" height="48" id="WaitForEndOfFrame" rx="2.5" ry="2.5" style="stroke:#181818;stroke-width:0.5;" width="163" x="647" y="168"/><ellipse cx="662" cy="184" fill="#ADD1B2" rx="11" ry="11" style="stroke:#181818;stroke-width:1.0;"/><path d="M664.7656,179.875 Q664.9219,179.6563 665.1094,179.5469 Q665.2969,179.4375 665.5156,179.4375 Q665.8906,179.4375 666.125,179.7031 Q666.3594,179.9531 666.3594,180.5625 L666.3594,182.0156 Q666.3594,182.625 666.125,182.8906 Q665.8906,183.1563 665.5156,183.1563 Q665.1719,183.1563 664.9688,182.9531 Q664.7656,182.7656 664.6563,182.25 Q664.6094,181.8906 664.4219,181.7031 Q664.0938,181.3281 663.4844,181.1094 Q662.875,180.8906 662.25,180.8906 Q661.4844,180.8906 660.8438,181.2188 Q660.2188,181.5469 659.7188,182.2969 Q659.2344,183.0469 659.2344,184.0781 L659.2344,185.1719 Q659.2344,186.4063 660.125,187.2344 Q661.0156,188.0469 662.6094,188.0469 Q663.5469,188.0469 664.2031,187.7969 Q664.5938,187.6406 665.0156,187.2031 Q665.2813,186.9375 665.4219,186.8594 Q665.5781,186.7813 665.7813,186.7813 Q666.1094,186.7813 666.3594,187.0469 Q666.625,187.2969 666.625,187.6406 Q666.625,187.9844 666.2813,188.3906 Q665.7813,188.9688 664.9844,189.2969 Q663.9063,189.75 662.6094,189.75 Q661.0938,189.75 659.8906,189.125 Q658.9063,188.625 658.2188,187.5625 Q657.5313,186.4844 657.5313,185.2031 L657.5313,184.0469 Q657.5313,182.7188 658.1406,181.5781 Q658.7656,180.4219 659.8594,179.8125 Q660.9531,179.1875 662.1875,179.1875 Q662.9219,179.1875 663.5625,179.3594 Q664.2188,179.5156 664.7656,179.875 Z " fill="#000000"/><text fill="#000000" font-family="sans-serif" font-size="14" lengthAdjust="spacing" textLength="131" x="676" y="189.7285">WaitForEndOfFrame</text><line style="stroke:#181818;stroke-width:0.5;" x1="648" x2="809" y1="200" y2="200"/><line style="stroke:#181818;stroke-width:0.5;" x1="648" x2="809" y1="208" y2="208"/></g><!--MD5=[34d6e59b3fcde1a7b49ae490a00d21f8]
reverse link MonoBehaviour to TextMeshProFloatingText--><g id="link_MonoBehaviour_TextMeshProFloatingText"><path codeLine="9" d="M445.5,75.21 C445.5,87.43 445.5,101.11 445.5,114.67 " fill="none" id="MonoBehaviour-backto-TextMeshProFloatingText" style="stroke:#181818;stroke-width:1.0;"/><polygon fill="none" points="438.5,75.12,445.5,55.12,452.5,75.12,438.5,75.12" style="stroke:#181818;stroke-width:1.0;"/></g><!--MD5=[c8e8c13c1f7706bc734a8f715d136847]
link TextMeshProFloatingText to Font--><g id="link_TextMeshProFloatingText_Font"><path codeLine="10" d="M279.44,252.35 C218.04,275.18 148.16,302.21 85.5,329 C81.32,330.79 76.97,332.74 72.68,334.72 " fill="none" id="TextMeshProFloatingText-to-Font" style="stroke:#181818;stroke-width:1.0;"/><polygon fill="#181818" points="68.05,336.88,77.8972,336.6971,72.5806,334.7648,74.5128,329.4482,68.05,336.88" style="stroke:#181818;stroke-width:1.0;"/><text fill="#000000" font-family="sans-serif" font-size="13" lengthAdjust="spacing" textLength="47" x="48.6958" y="318.1576">TheFont</text></g><!--MD5=[5021306f4bf9551722e73ff67d19a60d]
link TextMeshProFloatingText to GameObject--><g id="link_TextMeshProFloatingText_GameObject"><path codeLine="11" d="M308.3,269.01 C270.96,289.7 233.04,310.7 204.7,326.41 " fill="none" id="TextMeshProFloatingText-to-GameObject" style="stroke:#181818;stroke-width:1.0;"/><polygon fill="#181818" points="200.23,328.88,210.0421,328.0304,204.6068,326.4627,206.1745,321.0274,200.23,328.88" style="stroke:#181818;stroke-width:1.0;"/><text fill="#000000" font-family="sans-serif" font-size="13" lengthAdjust="spacing" textLength="84" x="116.1608" y="318.1894">m_floatingText</text></g><!--MD5=[966d0cd6a77b56f64ca5c5c590015acc]
link TextMeshProFloatingText to TextMeshPro--><g id="link_TextMeshProFloatingText_TextMeshPro"><path codeLine="12" d="M378.85,269.24 C361.38,289.22 343.67,309.48 330.14,324.96 " fill="none" id="TextMeshProFloatingText-to-TextMeshPro" style="stroke:#181818;stroke-width:1.0;"/><polygon fill="#181818" points="326.8,328.78,335.7357,324.6384,330.0915,325.0162,329.7137,319.372,326.8,328.78" style="stroke:#181818;stroke-width:1.0;"/><text fill="#000000" font-family="sans-serif" font-size="13" lengthAdjust="spacing" textLength="92" x="228.2144" y="318.0638">m_textMeshPro</text></g><!--MD5=[f86d1c3e79882a0a511181f94aef32e3]
link TextMeshProFloatingText to TextMesh--><g id="link_TextMeshProFloatingText_TextMesh"><path codeLine="13" d="M445.5,269.24 C445.5,288.72 445.5,308.45 445.5,323.77 " fill="none" id="TextMeshProFloatingText-to-TextMesh" style="stroke:#181818;stroke-width:1.0;"/><polygon fill="#181818" points="445.5,328.78,449.5,319.78,445.5,323.78,441.5,319.78,445.5,328.78" style="stroke:#181818;stroke-width:1.0;"/><text fill="#000000" font-family="sans-serif" font-size="13" lengthAdjust="spacing" textLength="72" x="364.275" y="318.0638">m_textMesh</text></g><!--MD5=[105358f6ac5580d53af289111ab0c0dd]
link TextMeshProFloatingText to Transform--><g id="link_TextMeshProFloatingText_Transform"><path codeLine="14" d="M481.6,269.24 C497.84,289.39 516.56,309.83 533.51,325.35 " fill="none" id="TextMeshProFloatingText-to-Transform" style="stroke:#181818;stroke-width:1.0;"/><polygon fill="#181818" points="537.32,328.78,533.3062,319.7861,533.6035,325.4352,527.9545,325.7325,537.32,328.78" style="stroke:#181818;stroke-width:1.0;"/><text fill="#000000" font-family="sans-serif" font-size="13" lengthAdjust="spacing" textLength="72" x="479.6239" y="318.0638">m_transform</text></g><!--MD5=[105358f6ac5580d53af289111ab0c0dd]
link TextMeshProFloatingText to Transform--><g id="link_TextMeshProFloatingText_Transform"><path codeLine="15" d="M507.83,269.24 C524.04,289.06 540.46,309.14 553.07,324.56 " fill="none" id="TextMeshProFloatingText-to-Transform-1" style="stroke:#181818;stroke-width:1.0;"/><polygon fill="#181818" points="556.52,328.78,553.932,319.2773,553.36,324.9051,547.7322,324.3332,556.52,328.78" style="stroke:#181818;stroke-width:1.0;"/><text fill="#000000" font-family="sans-serif" font-size="13" lengthAdjust="spacing" textLength="148" x="570.6189" y="318.0638">m_floatingText_Transform</text></g><!--MD5=[105358f6ac5580d53af289111ab0c0dd]
link TextMeshProFloatingText to Transform--><g id="link_TextMeshProFloatingText_Transform"><path codeLine="16" d="M534.07,269.24 C550.36,288.89 564.74,308.8 573.26,324.17 " fill="none" id="TextMeshProFloatingText-to-Transform-2" style="stroke:#181818;stroke-width:1.0;"/><polygon fill="#181818" points="575.71,328.78,575.0239,318.9551,573.366,324.3635,567.9575,322.7055,575.71,328.78" style="stroke:#181818;stroke-width:1.0;"/><text fill="#000000" font-family="sans-serif" font-size="13" lengthAdjust="spacing" textLength="118" x="633.4398" y="326.632">m_cameraTransform</text></g><!--MD5=[d1a49a7c105dfed0db49afd81720d2e1]
link TextMeshProFloatingText to Vector3--><g id="link_TextMeshProFloatingText_Vector3"><path codeLine="17" d="M578.8141,109.8103 C578.8141,109.8103 624.46,90.61 647,85 C711.91,68.84 888.61,54.22 948,85 C976.49,99.77 996.52,130.78 1008.75,155.63 " fill="none" id="TextMeshProFloatingText-Vector3" style="stroke:#181818;stroke-width:1.0;"/><polygon fill="#181818" points="1014.29,167.59,1014.1428,157.7422,1012.1912,163.0518,1006.8817,161.1003,1014.29,167.59" style="stroke:#181818;stroke-width:1.0;"/><line style="stroke:#181818;stroke-width:1.0;" x1="1012.1912" x2="1008.83" y1="163.0518" y2="155.8"/><polygon fill="none" points="567.98,114.97,575.1169,116.0015,578.8141,109.8103,571.6771,108.7788,567.98,114.97" style="stroke:#181818;stroke-width:1.0;"/><text fill="#000000" font-family="sans-serif" font-size="13" lengthAdjust="spacing" textLength="49" x="957.0732" y="157.228">lastPOS</text></g><!--MD5=[86cc8bed5a815347c9636e8f5951f83a]
link TextMeshProFloatingText to Quaternion--><g id="link_TextMeshProFloatingText_Quaternion"><path codeLine="18" d="M578.8141,109.8103 C578.8141,109.8103 624.46,90.61 647,85 C717.3,67.49 744.63,53.78 810,85 C840.75,99.68 864.09,131.23 878.73,156.28 " fill="none" id="TextMeshProFloatingText-Quaternion" style="stroke:#181818;stroke-width:1.0;"/><polygon fill="#181818" points="885.21,167.96,884.3474,158.149,882.7869,163.5864,877.3495,162.0259,885.21,167.96" style="stroke:#181818;stroke-width:1.0;"/><line style="stroke:#181818;stroke-width:1.0;" x1="882.7869" x2="878.9" y1="163.5864" y2="156.595"/><polygon fill="none" points="567.98,114.97,575.1169,116.0015,578.8141,109.8103,571.6771,108.7788,567.98,114.97" style="stroke:#181818;stroke-width:1.0;"/><text fill="#000000" font-family="sans-serif" font-size="13" lengthAdjust="spacing" textLength="69" x="804.9942" y="157.1023">lastRotation</text></g><!--MD5=[d16baf06d5f721391dfa58862c52bb9d]
link TextMeshProFloatingText to WaitForEndOfFrame--><g id="link_TextMeshProFloatingText_WaitForEndOfFrame"><path codeLine="19" d="M623.6,192 C623.6,192 630.73,192 633.71,192 " fill="none" id="TextMeshProFloatingText-WaitForEndOfFrame" style="stroke:#181818;stroke-width:1.0;"/><polygon fill="#181818" points="646.76,192,637.76,188,641.76,192,637.76,196,646.76,192" style="stroke:#181818;stroke-width:1.0;"/><line style="stroke:#181818;stroke-width:1.0;" x1="641.76" x2="633.76" y1="192" y2="192"/><polygon fill="none" points="611.6,192,617.6,196,623.6,192,617.6,188,611.6,192" style="stroke:#181818;stroke-width:1.0;"/><text fill="#000000" font-family="sans-serif" font-size="13" lengthAdjust="spacing" textLength="133" x="537.7563" y="156.4605">k_WaitForEndOfFrame</text></g><!--MD5=[f6f8ef4fa16093532184acf21646f8cd]
@startuml
class TextMeshProFloatingText {
    + SpawnType : int
    + IsTextObjectScaleStatic : bool
    Awake() : void
    Start() : void
    + DisplayTextMeshProFloatingText() : IEnumerator
    + DisplayTextMeshFloatingText() : IEnumerator
}
MonoBehaviour <|- - TextMeshProFloatingText
TextMeshProFloatingText - -> "TheFont" Font
TextMeshProFloatingText - -> "m_floatingText" GameObject
TextMeshProFloatingText - -> "m_textMeshPro" TextMeshPro
TextMeshProFloatingText - -> "m_textMesh" TextMesh
TextMeshProFloatingText - -> "m_transform" Transform
TextMeshProFloatingText - -> "m_floatingText_Transform" Transform
TextMeshProFloatingText - -> "m_cameraTransform" Transform
TextMeshProFloatingText o-> "lastPOS" Vector3
TextMeshProFloatingText o-> "lastRotation" Quaternion
TextMeshProFloatingText o-> "k_WaitForEndOfFrame" WaitForEndOfFrame
@enduml

PlantUML version 1.2022.5(Sat Apr 30 12:55:52 CEST 2022)
(GPL source distribution)
Java Runtime: Java(TM) SE Runtime Environment
JVM: Java HotSpot(TM) 64-Bit Server VM
Default Encoding: UTF-8
Language: en
Country: GB
--></g></svg>