<?xml version="1.0" encoding="UTF-8" standalone="no"?><svg xmlns="http://www.w3.org/2000/svg" xmlns:xlink="http://www.w3.org/1999/xlink" contentStyleType="text/css" height="399px" preserveAspectRatio="none" style="width:826px;height:399px;background:#FFFFFF;" version="1.1" viewBox="0 0 826 399" width="826px" zoomAndPan="magnify"><defs/><g><!--MD5=[64188af5b9fc3895a397868193227c48]
class GameModeManager--><g id="elem_GameModeManager"><rect codeLine="1" fill="#F1F1F1" height="65.6094" id="GameModeManager" rx="2.5" ry="2.5" style="stroke:#181818;stroke-width:0.5;" width="161" x="151.83" y="317.5"/><ellipse cx="166.83" cy="333.5" fill="#ADD1B2" rx="11" ry="11" style="stroke:#181818;stroke-width:1.0;"/><path d="M169.5956,329.375 Q169.7519,329.1563 169.9394,329.0469 Q170.1269,328.9375 170.3456,328.9375 Q170.7206,328.9375 170.955,329.2031 Q171.1894,329.4531 171.1894,330.0625 L171.1894,331.5156 Q171.1894,332.125 170.955,332.3906 Q170.7206,332.6563 170.3456,332.6563 Q170.0019,332.6563 169.7987,332.4531 Q169.5956,332.2656 169.4862,331.75 Q169.4394,331.3906 169.2519,331.2031 Q168.9237,330.8281 168.3144,330.6094 Q167.705,330.3906 167.08,330.3906 Q166.3144,330.3906 165.6737,330.7188 Q165.0487,331.0469 164.5487,331.7969 Q164.0644,332.5469 164.0644,333.5781 L164.0644,334.6719 Q164.0644,335.9063 164.955,336.7344 Q165.8456,337.5469 167.4394,337.5469 Q168.3769,337.5469 169.0331,337.2969 Q169.4237,337.1406 169.8456,336.7031 Q170.1112,336.4375 170.2519,336.3594 Q170.4081,336.2813 170.6112,336.2813 Q170.9394,336.2813 171.1894,336.5469 Q171.455,336.7969 171.455,337.1406 Q171.455,337.4844 171.1112,337.8906 Q170.6112,338.4688 169.8144,338.7969 Q168.7362,339.25 167.4394,339.25 Q165.9237,339.25 164.7206,338.625 Q163.7362,338.125 163.0487,337.0625 Q162.3612,335.9844 162.3612,334.7031 L162.3612,333.5469 Q162.3612,332.2188 162.9706,331.0781 Q163.5956,329.9219 164.6894,329.3125 Q165.7831,328.6875 167.0175,328.6875 Q167.7519,328.6875 168.3925,328.8594 Q169.0487,329.0156 169.5956,329.375 Z " fill="#000000"/><text fill="#000000" font-family="sans-serif" font-size="14" lengthAdjust="spacing" textLength="129" x="180.83" y="339.2285">GameModeManager</text><line style="stroke:#181818;stroke-width:0.5;" x1="152.83" x2="311.83" y1="349.5" y2="349.5"/><line style="stroke:#181818;stroke-width:0.5;" x1="152.83" x2="311.83" y1="357.5" y2="357.5"/><rect fill="#F24D5C" height="6" style="stroke:#C82930;stroke-width:1.0;" width="6" x="159.83" y="365.5"/><text fill="#000000" font-family="sans-serif" font-size="14" lengthAdjust="spacing" textLength="78" x="171.83" y="376.0332">Start() : void</text></g><!--MD5=[5eb2ac03d0c371fca296cb0d00e756e3]
class GameMode--><g id="elem_GameMode"><rect codeLine="4" fill="#F1F1F1" height="241.7031" id="GameMode" rx="2.5" ry="2.5" style="stroke:#181818;stroke-width:0.5;" width="199" x="620.83" y="7"/><ellipse cx="679.58" cy="23" fill="#ADD1B2" rx="11" ry="11" style="stroke:#181818;stroke-width:1.0;"/><path d="M682.3456,18.875 Q682.5019,18.6563 682.6894,18.5469 Q682.8769,18.4375 683.0956,18.4375 Q683.4706,18.4375 683.705,18.7031 Q683.9394,18.9531 683.9394,19.5625 L683.9394,21.0156 Q683.9394,21.625 683.705,21.8906 Q683.4706,22.1563 683.0956,22.1563 Q682.7519,22.1563 682.5488,21.9531 Q682.3456,21.7656 682.2363,21.25 Q682.1894,20.8906 682.0019,20.7031 Q681.6738,20.3281 681.0644,20.1094 Q680.455,19.8906 679.83,19.8906 Q679.0644,19.8906 678.4238,20.2188 Q677.7988,20.5469 677.2988,21.2969 Q676.8144,22.0469 676.8144,23.0781 L676.8144,24.1719 Q676.8144,25.4063 677.705,26.2344 Q678.5956,27.0469 680.1894,27.0469 Q681.1269,27.0469 681.7831,26.7969 Q682.1738,26.6406 682.5956,26.2031 Q682.8613,25.9375 683.0019,25.8594 Q683.1581,25.7813 683.3613,25.7813 Q683.6894,25.7813 683.9394,26.0469 Q684.205,26.2969 684.205,26.6406 Q684.205,26.9844 683.8613,27.3906 Q683.3613,27.9688 682.5644,28.2969 Q681.4863,28.75 680.1894,28.75 Q678.6738,28.75 677.4706,28.125 Q676.4863,27.625 675.7988,26.5625 Q675.1113,25.4844 675.1113,24.2031 L675.1113,23.0469 Q675.1113,21.7188 675.7206,20.5781 Q676.3456,19.4219 677.4394,18.8125 Q678.5331,18.1875 679.7675,18.1875 Q680.5019,18.1875 681.1425,18.3594 Q681.7988,18.5156 682.3456,18.875 Z " fill="#000000"/><text fill="#000000" font-family="sans-serif" font-size="14" lengthAdjust="spacing" textLength="73" x="700.08" y="28.7285">GameMode</text><line style="stroke:#181818;stroke-width:0.5;" x1="621.83" x2="818.83" y1="39" y2="39"/><ellipse cx="631.83" cy="50" fill="none" rx="3" ry="3" style="stroke:#038048;stroke-width:1.0;"/><text fill="#000000" font-family="sans-serif" font-size="14" lengthAdjust="spacing" textLength="134" x="640.83" y="57.5332">hasMaxPlayers : bool</text><ellipse cx="631.83" cy="67.6094" fill="none" rx="3" ry="3" style="stroke:#038048;stroke-width:1.0;"/><text fill="#000000" font-family="sans-serif" font-size="14" lengthAdjust="spacing" textLength="130" x="640.83" y="75.1426">maxPlayerCount : int</text><ellipse cx="631.83" cy="85.2188" fill="none" rx="3" ry="3" style="stroke:#038048;stroke-width:1.0;"/><text fill="#000000" font-family="sans-serif" font-size="14" lengthAdjust="spacing" textLength="105" x="640.83" y="92.752">hasTeams : bool</text><ellipse cx="631.83" cy="102.8281" fill="none" rx="3" ry="3" style="stroke:#038048;stroke-width:1.0;"/><text fill="#000000" font-family="sans-serif" font-size="14" lengthAdjust="spacing" textLength="96" x="640.83" y="110.3613">teamCount : int</text><ellipse cx="631.83" cy="120.4375" fill="none" rx="3" ry="3" style="stroke:#038048;stroke-width:1.0;"/><text fill="#000000" font-family="sans-serif" font-size="14" lengthAdjust="spacing" textLength="93" x="640.83" y="127.9707">useTime : bool</text><ellipse cx="631.83" cy="138.0469" fill="none" rx="3" ry="3" style="stroke:#038048;stroke-width:1.0;"/><text fill="#000000" font-family="sans-serif" font-size="14" lengthAdjust="spacing" textLength="131" x="640.83" y="145.5801">timeInSeconds : float</text><ellipse cx="631.83" cy="155.6563" fill="none" rx="3" ry="3" style="stroke:#038048;stroke-width:1.0;"/><text fill="#000000" font-family="sans-serif" font-size="14" lengthAdjust="spacing" textLength="87" x="640.83" y="163.1895">useKills : bool</text><ellipse cx="631.83" cy="173.2656" fill="none" rx="3" ry="3" style="stroke:#038048;stroke-width:1.0;"/><text fill="#000000" font-family="sans-serif" font-size="14" lengthAdjust="spacing" textLength="91" x="640.83" y="180.7988">killsToWin : int</text><ellipse cx="631.83" cy="190.875" fill="none" rx="3" ry="3" style="stroke:#038048;stroke-width:1.0;"/><text fill="#000000" font-family="sans-serif" font-size="14" lengthAdjust="spacing" textLength="101" x="640.83" y="198.4082">usePoints : bool</text><ellipse cx="631.83" cy="208.4844" fill="none" rx="3" ry="3" style="stroke:#038048;stroke-width:1.0;"/><text fill="#000000" font-family="sans-serif" font-size="14" lengthAdjust="spacing" textLength="106" x="640.83" y="216.0176">pointsToWin : int</text><line style="stroke:#181818;stroke-width:0.5;" x1="621.83" x2="818.83" y1="223.0938" y2="223.0938"/><ellipse cx="631.83" cy="234.0938" fill="#84BE84" rx="3" ry="3" style="stroke:#038048;stroke-width:1.0;"/><text fill="#000000" font-family="sans-serif" font-size="14" lengthAdjust="spacing" textLength="173" x="640.83" y="241.627">getGameModeInfo() : string</text></g><!--MD5=[8c046441e53f3b92d10e59aa60105ec5]
class GameModeTypes--><g id="elem_GameModeTypes"><rect codeLine="17" fill="#F1F1F1" height="83.2188" id="GameModeTypes" rx="2.5" ry="2.5" style="stroke:#181818;stroke-width:0.5;" width="162" x="639.33" y="309"/><ellipse cx="662.43" cy="325" fill="#EB937F" rx="11" ry="11" style="stroke:#181818;stroke-width:1.0;"/><path d="M661.2894,325.7969 L661.2894,328.2969 L665.6175,328.2969 L665.6175,327.375 Q665.6175,326.7656 665.8519,326.5 Q666.1019,326.2344 666.4769,326.2344 Q666.8519,326.2344 667.0863,326.5 Q667.3206,326.7656 667.3206,327.375 L667.3206,330 L659.3206,330 Q658.6956,330 658.43,329.7656 Q658.18,329.5313 658.18,329.1406 Q658.18,328.7656 658.4456,328.5313 Q658.7113,328.2969 659.3206,328.2969 L659.5863,328.2969 L659.5863,321.6406 L659.3206,321.6406 Q658.6956,321.6406 658.43,321.4063 Q658.18,321.1719 658.18,320.7813 Q658.18,320.4063 658.43,320.1719 Q658.6956,319.9375 659.3206,319.9375 L666.9456,319.9375 L666.9456,322.5313 Q666.9456,323.1406 666.7113,323.4063 Q666.4925,323.6563 666.1019,323.6563 Q665.7269,323.6563 665.4925,323.4063 Q665.2581,323.1406 665.2581,322.5313 L665.2581,321.6406 L661.2894,321.6406 L661.2894,324.0938 L662.7738,324.0938 Q662.7738,323.4375 662.8988,323.25 Q663.1644,322.8438 663.6331,322.8438 Q664.0081,322.8438 664.2425,323.1094 Q664.4769,323.3594 664.4769,323.9688 L664.4769,325.9375 Q664.4769,326.4844 664.3519,326.6719 Q664.0863,327.0625 663.6331,327.0625 Q663.1644,327.0625 662.8988,326.6563 Q662.7738,326.4688 662.7738,325.7969 L661.2894,325.7969 Z " fill="#000000"/><text fill="#000000" font-family="sans-serif" font-size="14" lengthAdjust="spacing" textLength="112" x="678.23" y="330.7285">GameModeTypes</text><line style="stroke:#181818;stroke-width:0.5;" x1="640.33" x2="800.33" y1="341" y2="341"/><text fill="#000000" font-family="sans-serif" font-size="14" lengthAdjust="spacing" textLength="74" x="645.33" y="359.5332">OneVsOne,</text><text fill="#000000" font-family="sans-serif" font-size="14" lengthAdjust="spacing" textLength="150" x="645.33" y="377.1426">OneVsOneDeathmatch,</text><line style="stroke:#181818;stroke-width:0.5;" x1="640.33" x2="800.33" y1="384.2188" y2="384.2188"/></g><!--MD5=[e644022de7dea015dd09463c37421447]
class List`1--><g id="elem_List`1"><rect codeLine="21" fill="#F1F1F1" height="48" id="List`1" rx="2.5" ry="2.5" style="stroke:#181818;stroke-width:0.5;" width="78" x="526.33" y="326.5"/><ellipse cx="541.33" cy="342.5" fill="#ADD1B2" rx="11" ry="11" style="stroke:#181818;stroke-width:1.0;"/><path d="M544.0956,338.375 Q544.2519,338.1563 544.4394,338.0469 Q544.6269,337.9375 544.8456,337.9375 Q545.2206,337.9375 545.455,338.2031 Q545.6894,338.4531 545.6894,339.0625 L545.6894,340.5156 Q545.6894,341.125 545.455,341.3906 Q545.2206,341.6563 544.8456,341.6563 Q544.5019,341.6563 544.2987,341.4531 Q544.0956,341.2656 543.9862,340.75 Q543.9394,340.3906 543.7519,340.2031 Q543.4237,339.8281 542.8144,339.6094 Q542.205,339.3906 541.58,339.3906 Q540.8144,339.3906 540.1737,339.7188 Q539.5487,340.0469 539.0487,340.7969 Q538.5644,341.5469 538.5644,342.5781 L538.5644,343.6719 Q538.5644,344.9063 539.455,345.7344 Q540.3456,346.5469 541.9394,346.5469 Q542.8769,346.5469 543.5331,346.2969 Q543.9237,346.1406 544.3456,345.7031 Q544.6112,345.4375 544.7519,345.3594 Q544.9081,345.2813 545.1112,345.2813 Q545.4394,345.2813 545.6894,345.5469 Q545.955,345.7969 545.955,346.1406 Q545.955,346.4844 545.6112,346.8906 Q545.1112,347.4688 544.3144,347.7969 Q543.2362,348.25 541.9394,348.25 Q540.4237,348.25 539.2206,347.625 Q538.2362,347.125 537.5487,346.0625 Q536.8612,344.9844 536.8612,343.7031 L536.8612,342.5469 Q536.8612,341.2188 537.4706,340.0781 Q538.0956,338.9219 539.1894,338.3125 Q540.2831,337.6875 541.5175,337.6875 Q542.2519,337.6875 542.8925,337.8594 Q543.5487,338.0156 544.0956,338.375 Z " fill="#000000"/><text fill="#000000" font-family="sans-serif" font-size="14" lengthAdjust="spacing" textLength="35" x="555.33" y="348.2285">List`1</text><rect fill="#FFFFFF" height="17.0938" style="stroke:#000000;stroke-width:1.0;stroke-dasharray:2.0,2.0;" width="9" x="598.33" y="323.5"/><text fill="#000000" font-family="sans-serif" font-size="12" font-style="italic" lengthAdjust="spacing" textLength="7" x="599.33" y="336.957">T</text><line style="stroke:#181818;stroke-width:0.5;" x1="527.33" x2="603.33" y1="358.5" y2="358.5"/><line style="stroke:#181818;stroke-width:0.5;" x1="527.33" x2="603.33" y1="366.5" y2="366.5"/></g><!--MD5=[2e1ff885372daab8d802f213ced6c836]
class Dictionary`2--><g id="elem_Dictionary`2"><rect codeLine="23" fill="#F1F1F1" height="48" id="Dictionary`2" rx="2.5" ry="2.5" style="stroke:#181818;stroke-width:0.5;" width="143" x="347.83" y="326.5"/><ellipse cx="362.83" cy="342.5" fill="#ADD1B2" rx="11" ry="11" style="stroke:#181818;stroke-width:1.0;"/><path d="M365.5956,338.375 Q365.7519,338.1563 365.9394,338.0469 Q366.1269,337.9375 366.3456,337.9375 Q366.7206,337.9375 366.955,338.2031 Q367.1894,338.4531 367.1894,339.0625 L367.1894,340.5156 Q367.1894,341.125 366.955,341.3906 Q366.7206,341.6563 366.3456,341.6563 Q366.0019,341.6563 365.7987,341.4531 Q365.5956,341.2656 365.4862,340.75 Q365.4394,340.3906 365.2519,340.2031 Q364.9237,339.8281 364.3144,339.6094 Q363.705,339.3906 363.08,339.3906 Q362.3144,339.3906 361.6737,339.7188 Q361.0487,340.0469 360.5487,340.7969 Q360.0644,341.5469 360.0644,342.5781 L360.0644,343.6719 Q360.0644,344.9063 360.955,345.7344 Q361.8456,346.5469 363.4394,346.5469 Q364.3769,346.5469 365.0331,346.2969 Q365.4237,346.1406 365.8456,345.7031 Q366.1112,345.4375 366.2519,345.3594 Q366.4081,345.2813 366.6112,345.2813 Q366.9394,345.2813 367.1894,345.5469 Q367.455,345.7969 367.455,346.1406 Q367.455,346.4844 367.1112,346.8906 Q366.6112,347.4688 365.8144,347.7969 Q364.7362,348.25 363.4394,348.25 Q361.9237,348.25 360.7206,347.625 Q359.7362,347.125 359.0487,346.0625 Q358.3612,344.9844 358.3612,343.7031 L358.3612,342.5469 Q358.3612,341.2188 358.9706,340.0781 Q359.5956,338.9219 360.6894,338.3125 Q361.7831,337.6875 363.0175,337.6875 Q363.7519,337.6875 364.3925,337.8594 Q365.0487,338.0156 365.5956,338.375 Z " fill="#000000"/><text fill="#000000" font-family="sans-serif" font-size="14" lengthAdjust="spacing" textLength="76" x="376.83" y="348.2285">Dictionary`2</text><rect fill="#FFFFFF" height="17.0938" style="stroke:#000000;stroke-width:1.0;stroke-dasharray:2.0,2.0;" width="33" x="460.83" y="323.5"/><text fill="#000000" font-family="sans-serif" font-size="12" font-style="italic" lengthAdjust="spacing" textLength="31" x="461.83" y="336.957">T1,T2</text><line style="stroke:#181818;stroke-width:0.5;" x1="348.83" x2="489.83" y1="358.5" y2="358.5"/><line style="stroke:#181818;stroke-width:0.5;" x1="348.83" x2="489.83" y1="366.5" y2="366.5"/></g><!--MD5=[83b3cf3d23d77c6f1e1b5291a241bc2a]
class MonoBehaviour--><g id="elem_MonoBehaviour"><rect fill="#F1F1F1" height="48" id="MonoBehaviour" rx="2.5" ry="2.5" style="stroke:#181818;stroke-width:0.5;" width="131" x="166.83" y="104"/><ellipse cx="181.83" cy="120" fill="#ADD1B2" rx="11" ry="11" style="stroke:#181818;stroke-width:1.0;"/><path d="M184.5956,115.875 Q184.7519,115.6563 184.9394,115.5469 Q185.1269,115.4375 185.3456,115.4375 Q185.7206,115.4375 185.955,115.7031 Q186.1894,115.9531 186.1894,116.5625 L186.1894,118.0156 Q186.1894,118.625 185.955,118.8906 Q185.7206,119.1563 185.3456,119.1563 Q185.0019,119.1563 184.7987,118.9531 Q184.5956,118.7656 184.4862,118.25 Q184.4394,117.8906 184.2519,117.7031 Q183.9237,117.3281 183.3144,117.1094 Q182.705,116.8906 182.08,116.8906 Q181.3144,116.8906 180.6737,117.2188 Q180.0487,117.5469 179.5487,118.2969 Q179.0644,119.0469 179.0644,120.0781 L179.0644,121.1719 Q179.0644,122.4063 179.955,123.2344 Q180.8456,124.0469 182.4394,124.0469 Q183.3769,124.0469 184.0331,123.7969 Q184.4237,123.6406 184.8456,123.2031 Q185.1112,122.9375 185.2519,122.8594 Q185.4081,122.7813 185.6112,122.7813 Q185.9394,122.7813 186.1894,123.0469 Q186.455,123.2969 186.455,123.6406 Q186.455,123.9844 186.1112,124.3906 Q185.6112,124.9688 184.8144,125.2969 Q183.7362,125.75 182.4394,125.75 Q180.9237,125.75 179.7206,125.125 Q178.7362,124.625 178.0487,123.5625 Q177.3612,122.4844 177.3612,121.2031 L177.3612,120.0469 Q177.3612,118.7188 177.9706,117.5781 Q178.5956,116.4219 179.6894,115.8125 Q180.7831,115.1875 182.0175,115.1875 Q182.7519,115.1875 183.3925,115.3594 Q184.0487,115.5156 184.5956,115.875 Z " fill="#000000"/><text fill="#000000" font-family="sans-serif" font-size="14" lengthAdjust="spacing" textLength="99" x="195.83" y="125.7285">MonoBehaviour</text><line style="stroke:#181818;stroke-width:0.5;" x1="167.83" x2="296.83" y1="136" y2="136"/><line style="stroke:#181818;stroke-width:0.5;" x1="167.83" x2="296.83" y1="144" y2="144"/></g><!--MD5=[cbb7c9cfacc49541d229353c12a04235]
reverse link MonoBehaviour to GameModeManager--><g id="link_MonoBehaviour_GameModeManager"><path codeLine="25" d="M232.33,172.27 C232.33,214.94 232.33,279.14 232.33,317.43 " fill="none" id="MonoBehaviour-backto-GameModeManager" style="stroke:#181818;stroke-width:1.0;"/><polygon fill="none" points="225.33,172.18,232.33,152.18,239.33,172.18,225.33,172.18" style="stroke:#181818;stroke-width:1.0;"/></g><!--MD5=[969fa3e0cec6ca80641a7d576eeac8e4]
link GameModeManager to List`1--><g id="link_GameModeManager_List`1"><path codeLine="26" d="M283.1469,310.6285 C283.1469,310.6285 325.36,285.39 347.83,279 C408.96,261.61 431.87,255.28 490.83,279 C509.84,286.64 526.72,301.71 539.59,316.05 " fill="none" id="GameModeManager-List`1" style="stroke:#181818;stroke-width:1.0;"/><polygon fill="#181818" points="548.22,326.24,545.454,316.7875,544.9878,322.4252,539.3502,321.959,548.22,326.24" style="stroke:#181818;stroke-width:1.0;"/><line style="stroke:#181818;stroke-width:1.0;" x1="544.9878" x2="539.82" y1="322.4252" y2="316.32"/><polygon fill="none" points="273.24,317.4,280.4506,317.3166,283.1469,310.6285,275.9363,310.712,273.24,317.4" style="stroke:#181818;stroke-width:1.0;"/><text fill="#000000" font-family="sans-serif" font-size="13" lengthAdjust="spacing" textLength="161" x="362.2074" y="315.5135">_gameModes&lt;GameMode&gt;</text></g><!--MD5=[0b860166d84ea3812a925e3ca724ce1f]
link GameModeManager to Dictionary`2--><g id="link_GameModeManager_Dictionary`2"><path codeLine="27" d="M325.05,350.5 C325.05,350.5 331.56,350.5 334.22,350.5 " fill="none" id="GameModeManager-Dictionary`2" style="stroke:#181818;stroke-width:1.0;"/><polygon fill="#181818" points="347.51,350.5,338.51,346.5,342.51,350.5,338.51,354.5,347.51,350.5" style="stroke:#181818;stroke-width:1.0;"/><line style="stroke:#181818;stroke-width:1.0;" x1="342.51" x2="334.51" y1="350.5" y2="350.5"/><polygon fill="none" points="313.05,350.5,319.05,354.5,325.05,350.5,319.05,346.5,313.05,350.5" style="stroke:#181818;stroke-width:1.0;"/><text fill="#000000" font-family="sans-serif" font-size="13" lengthAdjust="spacing" textLength="260" x="6" y="306.0361">gameModes&lt;GameModeTypes,GameMode&gt;</text></g><!--MD5=[7bc843ac841c1676e6dec4c78cbd74cb]
link GameMode to GameModeTypes--><g id="link_GameMode_GameModeTypes"><path codeLine="28" d="M720.33,249.25 C720.33,268.45 720.33,287.23 720.33,303.26 " fill="none" id="GameMode-to-GameModeTypes" style="stroke:#181818;stroke-width:1.0;"/><polygon fill="#181818" points="720.33,308.58,724.33,299.58,720.33,303.58,716.33,299.58,720.33,308.58" style="stroke:#181818;stroke-width:1.0;"/><text fill="#000000" font-family="sans-serif" font-size="13" lengthAdjust="spacing" textLength="92" x="620.9988" y="298.1297">gameModeType</text></g><!--MD5=[ae16e19001ec2a0003fe0548901e630d]
@startuml
class GameModeManager {
    - Start() : void
}
class GameMode {
    + hasMaxPlayers : bool
    + maxPlayerCount : int
    + hasTeams : bool
    + teamCount : int
    + useTime : bool
    + timeInSeconds : float
    + useKills : bool
    + killsToWin : int
    + usePoints : bool
    + pointsToWin : int
    + getGameModeInfo() : string
}
enum GameModeTypes {
    OneVsOne,
    OneVsOneDeathmatch,
}
class "List`1"<T> {
}
class "Dictionary`2"<T1,T2> {
}
MonoBehaviour <|- - GameModeManager
GameModeManager o-> "_gameModes<GameMode>" "List`1"
GameModeManager o-> "gameModes<GameModeTypes,GameMode>" "Dictionary`2"
GameMode - -> "gameModeType" GameModeTypes
@enduml

PlantUML version 1.2022.5(Sat Apr 30 12:55:52 CEST 2022)
(GPL source distribution)
Java Runtime: Java(TM) SE Runtime Environment
JVM: Java HotSpot(TM) 64-Bit Server VM
Default Encoding: UTF-8
Language: en
Country: GB
--></g></svg>