<?xml version="1.0" encoding="UTF-8" standalone="no"?><svg xmlns="http://www.w3.org/2000/svg" xmlns:xlink="http://www.w3.org/1999/xlink" contentStyleType="text/css" height="258px" preserveAspectRatio="none" style="width:252px;height:258px;background:#FFFFFF;" version="1.1" viewBox="0 0 252 258" width="252px" zoomAndPan="magnify"><defs/><g><!--MD5=[a5dc8f4c5593da54b0269a88fd736024]
class Rocket--><g id="elem_Rocket"><rect codeLine="1" fill="#F1F1F1" height="136.0469" id="Rocket" rx="2.5" ry="2.5" style="stroke:#181818;stroke-width:0.5;" width="238" x="7" y="115"/><ellipse cx="99.75" cy="131" fill="#ADD1B2" rx="11" ry="11" style="stroke:#181818;stroke-width:1.0;"/><path d="M102.5156,126.875 Q102.6719,126.6563 102.8594,126.5469 Q103.0469,126.4375 103.2656,126.4375 Q103.6406,126.4375 103.875,126.7031 Q104.1094,126.9531 104.1094,127.5625 L104.1094,129.0156 Q104.1094,129.625 103.875,129.8906 Q103.6406,130.1563 103.2656,130.1563 Q102.9219,130.1563 102.7188,129.9531 Q102.5156,129.7656 102.4063,129.25 Q102.3594,128.8906 102.1719,128.7031 Q101.8438,128.3281 101.2344,128.1094 Q100.625,127.8906 100,127.8906 Q99.2344,127.8906 98.5938,128.2188 Q97.9688,128.5469 97.4688,129.2969 Q96.9844,130.0469 96.9844,131.0781 L96.9844,132.1719 Q96.9844,133.4063 97.875,134.2344 Q98.7656,135.0469 100.3594,135.0469 Q101.2969,135.0469 101.9531,134.7969 Q102.3438,134.6406 102.7656,134.2031 Q103.0313,133.9375 103.1719,133.8594 Q103.3281,133.7813 103.5313,133.7813 Q103.8594,133.7813 104.1094,134.0469 Q104.375,134.2969 104.375,134.6406 Q104.375,134.9844 104.0313,135.3906 Q103.5313,135.9688 102.7344,136.2969 Q101.6563,136.75 100.3594,136.75 Q98.8438,136.75 97.6406,136.125 Q96.6563,135.625 95.9688,134.5625 Q95.2813,133.4844 95.2813,132.2031 L95.2813,131.0469 Q95.2813,129.7188 95.8906,128.5781 Q96.5156,127.4219 97.6094,126.8125 Q98.7031,126.1875 99.9375,126.1875 Q100.6719,126.1875 101.3125,126.3594 Q101.9688,126.5156 102.5156,126.875 Z " fill="#000000"/><text fill="#000000" font-family="sans-serif" font-size="14" lengthAdjust="spacing" textLength="44" x="120.25" y="136.7285">Rocket</text><line style="stroke:#181818;stroke-width:0.5;" x1="8" x2="244" y1="147" y2="147"/><ellipse cx="18" cy="158" fill="none" rx="3" ry="3" style="stroke:#038048;stroke-width:1.0;"/><text fill="#000000" font-family="sans-serif" font-size="14" lengthAdjust="spacing" textLength="95" x="27" y="165.5332">targetId : string</text><rect fill="none" height="6" style="stroke:#C82930;stroke-width:1.0;" width="6" x="15" y="172.6094"/><text fill="#000000" font-family="sans-serif" font-size="14" lengthAdjust="spacing" textLength="105" x="27" y="183.1426">turnSpeed : float</text><rect fill="none" height="6" style="stroke:#C82930;stroke-width:1.0;" width="6" x="15" y="190.2188"/><text fill="#000000" font-family="sans-serif" font-size="14" lengthAdjust="spacing" textLength="212" x="27" y="200.752">timeUntilRocketEnginesFire : float</text><line style="stroke:#181818;stroke-width:0.5;" x1="8" x2="244" y1="207.8281" y2="207.8281"/><text fill="#000000" font-family="sans-serif" font-size="14" lengthAdjust="spacing" textLength="78" x="27" y="226.3613">Start() : void</text><rect fill="#F24D5C" height="6" style="stroke:#C82930;stroke-width:1.0;" width="6" x="15" y="233.4375"/><text fill="#000000" font-family="sans-serif" font-size="14" lengthAdjust="spacing" textLength="93" x="27" y="243.9707">Update() : void</text></g><!--MD5=[9e086ae7cb173547c374b8a4e58c7dec]
class Projectile--><g id="elem_Projectile"><rect fill="#F1F1F1" height="48" id="Projectile" rx="2.5" ry="2.5" style="stroke:#181818;stroke-width:0.5;" width="90" x="81" y="7"/><ellipse cx="96" cy="23" fill="#ADD1B2" rx="11" ry="11" style="stroke:#181818;stroke-width:1.0;"/><path d="M98.7656,18.875 Q98.9219,18.6563 99.1094,18.5469 Q99.2969,18.4375 99.5156,18.4375 Q99.8906,18.4375 100.125,18.7031 Q100.3594,18.9531 100.3594,19.5625 L100.3594,21.0156 Q100.3594,21.625 100.125,21.8906 Q99.8906,22.1563 99.5156,22.1563 Q99.1719,22.1563 98.9688,21.9531 Q98.7656,21.7656 98.6563,21.25 Q98.6094,20.8906 98.4219,20.7031 Q98.0938,20.3281 97.4844,20.1094 Q96.875,19.8906 96.25,19.8906 Q95.4844,19.8906 94.8438,20.2188 Q94.2188,20.5469 93.7188,21.2969 Q93.2344,22.0469 93.2344,23.0781 L93.2344,24.1719 Q93.2344,25.4063 94.125,26.2344 Q95.0156,27.0469 96.6094,27.0469 Q97.5469,27.0469 98.2031,26.7969 Q98.5938,26.6406 99.0156,26.2031 Q99.2813,25.9375 99.4219,25.8594 Q99.5781,25.7813 99.7813,25.7813 Q100.1094,25.7813 100.3594,26.0469 Q100.625,26.2969 100.625,26.6406 Q100.625,26.9844 100.2813,27.3906 Q99.7813,27.9688 98.9844,28.2969 Q97.9063,28.75 96.6094,28.75 Q95.0938,28.75 93.8906,28.125 Q92.9063,27.625 92.2188,26.5625 Q91.5313,25.4844 91.5313,24.2031 L91.5313,23.0469 Q91.5313,21.7188 92.1406,20.5781 Q92.7656,19.4219 93.8594,18.8125 Q94.9531,18.1875 96.1875,18.1875 Q96.9219,18.1875 97.5625,18.3594 Q98.2188,18.5156 98.7656,18.875 Z " fill="#000000"/><text fill="#000000" font-family="sans-serif" font-size="14" lengthAdjust="spacing" textLength="58" x="110" y="28.7285">Projectile</text><line style="stroke:#181818;stroke-width:0.5;" x1="82" x2="170" y1="39" y2="39"/><line style="stroke:#181818;stroke-width:0.5;" x1="82" x2="170" y1="47" y2="47"/></g><!--MD5=[7294c64ceda4de13a4e1fa115eaecc9e]
reverse link Projectile to Rocket--><g id="link_Projectile_Rocket"><path codeLine="8" d="M126,75.38 C126,87.68 126,101.37 126,114.74 " fill="none" id="Projectile-backto-Rocket" style="stroke:#181818;stroke-width:1.0;"/><polygon fill="none" points="119,75.11,126,55.11,133,75.11,119,75.11" style="stroke:#181818;stroke-width:1.0;"/></g><!--MD5=[a7d3aac2bdd8ad6aa3d0ee4cec93722f]
@startuml
class Rocket {
    + targetId : string
    - turnSpeed : float
    - timeUntilRocketEnginesFire : float
    Start() : void
    - Update() : void
}
Projectile <|- - Rocket
@enduml

PlantUML version 1.2022.5(Sat Apr 30 12:55:52 CEST 2022)
(GPL source distribution)
Java Runtime: Java(TM) SE Runtime Environment
JVM: Java HotSpot(TM) 64-Bit Server VM
Default Encoding: UTF-8
Language: en
Country: GB
--></g></svg>