<?xml version="1.0" encoding="UTF-8" standalone="no"?><svg xmlns="http://www.w3.org/2000/svg" xmlns:xlink="http://www.w3.org/1999/xlink" contentStyleType="text/css" height="525px" preserveAspectRatio="none" style="width:726px;height:525px;background:#FFFFFF;" version="1.1" viewBox="0 0 726 525" width="726px" zoomAndPan="magnify"><defs/><g><!--MD5=[29488b93ac29a0f41a98ea5216d23f01]
class JoinUIManager--><g id="elem_JoinUIManager"><rect codeLine="1" fill="#F1F1F1" height="294.5313" id="JoinUIManager" rx="2.5" ry="2.5" style="stroke:#181818;stroke-width:0.5;" width="360" x="64.9258" y="115"/><ellipse cx="194.1758" cy="131" fill="#ADD1B2" rx="11" ry="11" style="stroke:#181818;stroke-width:1.0;"/><path d="M196.9414,126.875 Q197.0976,126.6563 197.2851,126.5469 Q197.4726,126.4375 197.6914,126.4375 Q198.0664,126.4375 198.3008,126.7031 Q198.5351,126.9531 198.5351,127.5625 L198.5351,129.0156 Q198.5351,129.625 198.3008,129.8906 Q198.0664,130.1563 197.6914,130.1563 Q197.3476,130.1563 197.1445,129.9531 Q196.9414,129.7656 196.832,129.25 Q196.7851,128.8906 196.5976,128.7031 Q196.2695,128.3281 195.6601,128.1094 Q195.0508,127.8906 194.4258,127.8906 Q193.6601,127.8906 193.0195,128.2188 Q192.3945,128.5469 191.8945,129.2969 Q191.4101,130.0469 191.4101,131.0781 L191.4101,132.1719 Q191.4101,133.4063 192.3008,134.2344 Q193.1914,135.0469 194.7851,135.0469 Q195.7226,135.0469 196.3789,134.7969 Q196.7695,134.6406 197.1914,134.2031 Q197.457,133.9375 197.5976,133.8594 Q197.7539,133.7813 197.957,133.7813 Q198.2851,133.7813 198.5351,134.0469 Q198.8008,134.2969 198.8008,134.6406 Q198.8008,134.9844 198.457,135.3906 Q197.957,135.9688 197.1601,136.2969 Q196.082,136.75 194.7851,136.75 Q193.2695,136.75 192.0664,136.125 Q191.082,135.625 190.3945,134.5625 Q189.707,133.4844 189.707,132.2031 L189.707,131.0469 Q189.707,129.7188 190.3164,128.5781 Q190.9414,127.4219 192.0351,126.8125 Q193.1289,126.1875 194.3633,126.1875 Q195.0976,126.1875 195.7383,126.3594 Q196.3945,126.5156 196.9414,126.875 Z " fill="#000000"/><text fill="#000000" font-family="sans-serif" font-size="14" lengthAdjust="spacing" textLength="93" x="214.6758" y="136.7285">JoinUIManager</text><line style="stroke:#181818;stroke-width:0.5;" x1="65.9258" x2="423.9258" y1="147" y2="147"/><rect fill="none" height="6" style="stroke:#C82930;stroke-width:1.0;" width="6" x="72.9258" y="155"/><text fill="#000000" font-family="sans-serif" font-size="14" lengthAdjust="spacing" textLength="58" x="84.9258" y="165.5332">ip : string</text><rect fill="none" height="6" style="stroke:#C82930;stroke-width:1.0;" width="6" x="72.9258" y="172.6094"/><text fill="#000000" font-family="sans-serif" font-size="14" lengthAdjust="spacing" textLength="114" x="84.9258" y="183.1426">tcpServerPort : int</text><rect fill="none" height="6" style="stroke:#C82930;stroke-width:1.0;" width="6" x="72.9258" y="190.2188"/><text fill="#000000" font-family="sans-serif" font-size="14" lengthAdjust="spacing" textLength="119" x="84.9258" y="200.752">udpServerPort : int</text><rect fill="none" height="6" style="stroke:#C82930;stroke-width:1.0;" width="6" x="72.9258" y="207.8281"/><text fill="#000000" font-family="sans-serif" font-size="14" lengthAdjust="spacing" textLength="107" x="84.9258" y="218.3613">localUdpPort : int</text><line style="stroke:#181818;stroke-width:0.5;" x1="65.9258" x2="423.9258" y1="225.4375" y2="225.4375"/><rect fill="#F24D5C" height="6" style="stroke:#C82930;stroke-width:1.0;" width="6" x="72.9258" y="233.4375"/><text fill="#000000" font-family="sans-serif" font-size="14" lengthAdjust="spacing" textLength="78" x="84.9258" y="243.9707">Start() : void</text><rect fill="#F24D5C" height="6" style="stroke:#C82930;stroke-width:1.0;" width="6" x="72.9258" y="251.0469"/><text fill="#000000" font-family="sans-serif" font-size="14" lengthAdjust="spacing" textLength="93" x="84.9258" y="261.5801">Update() : void</text><text fill="#000000" font-family="sans-serif" font-size="14" lengthAdjust="spacing" textLength="207" x="84.9258" y="279.1895">createRoomTask() : IEnumerator</text><text fill="#000000" font-family="sans-serif" font-size="14" lengthAdjust="spacing" textLength="189" x="84.9258" y="296.7988">joinRoomTask() : IEnumerator</text><ellipse cx="75.9258" cy="306.875" fill="#84BE84" rx="3" ry="3" style="stroke:#038048;stroke-width:1.0;"/><text fill="#000000" font-family="sans-serif" font-size="14" lengthAdjust="spacing" textLength="125" x="84.9258" y="314.4082">createRoom() : void</text><ellipse cx="75.9258" cy="324.4844" fill="#84BE84" rx="3" ry="3" style="stroke:#038048;stroke-width:1.0;"/><text fill="#000000" font-family="sans-serif" font-size="14" lengthAdjust="spacing" textLength="107" x="84.9258" y="332.0176">joinRoom() : void</text><ellipse cx="75.9258" cy="342.0938" fill="#84BE84" rx="3" ry="3" style="stroke:#038048;stroke-width:1.0;"/><text fill="#000000" font-family="sans-serif" font-size="14" lengthAdjust="spacing" textLength="121" x="84.9258" y="349.627">selectPlane() : void</text><rect fill="#F24D5C" height="6" style="stroke:#C82930;stroke-width:1.0;" width="6" x="72.9258" y="356.7031"/><text fill="#000000" font-family="sans-serif" font-size="14" lengthAdjust="spacing" textLength="157" x="84.9258" y="367.2363">connectToServer() : void</text><ellipse cx="75.9258" cy="377.3125" fill="#84BE84" rx="3" ry="3" style="stroke:#038048;stroke-width:1.0;"/><text fill="#000000" font-family="sans-serif" font-size="14" lengthAdjust="spacing" textLength="195" x="84.9258" y="384.8457">onGameModeChanged() : void</text><ellipse cx="75.9258" cy="394.9219" fill="#84BE84" rx="3" ry="3" style="stroke:#038048;stroke-width:1.0;"/><text fill="#000000" font-family="sans-serif" font-size="14" lengthAdjust="spacing" textLength="334" x="84.9258" y="402.4551">populateDropdown(dropdown:TMP_Dropdown) : void</text></g><!--MD5=[83b3cf3d23d77c6f1e1b5291a241bc2a]
class MonoBehaviour--><g id="elem_MonoBehaviour"><rect fill="#F1F1F1" height="48" id="MonoBehaviour" rx="2.5" ry="2.5" style="stroke:#181818;stroke-width:0.5;" width="131" x="179.4258" y="7"/><ellipse cx="194.4258" cy="23" fill="#ADD1B2" rx="11" ry="11" style="stroke:#181818;stroke-width:1.0;"/><path d="M197.1914,18.875 Q197.3476,18.6563 197.5351,18.5469 Q197.7226,18.4375 197.9414,18.4375 Q198.3164,18.4375 198.5508,18.7031 Q198.7851,18.9531 198.7851,19.5625 L198.7851,21.0156 Q198.7851,21.625 198.5508,21.8906 Q198.3164,22.1563 197.9414,22.1563 Q197.5976,22.1563 197.3945,21.9531 Q197.1914,21.7656 197.082,21.25 Q197.0351,20.8906 196.8476,20.7031 Q196.5195,20.3281 195.9101,20.1094 Q195.3008,19.8906 194.6758,19.8906 Q193.9101,19.8906 193.2695,20.2188 Q192.6445,20.5469 192.1445,21.2969 Q191.6601,22.0469 191.6601,23.0781 L191.6601,24.1719 Q191.6601,25.4063 192.5508,26.2344 Q193.4414,27.0469 195.0351,27.0469 Q195.9726,27.0469 196.6289,26.7969 Q197.0195,26.6406 197.4414,26.2031 Q197.707,25.9375 197.8476,25.8594 Q198.0039,25.7813 198.207,25.7813 Q198.5351,25.7813 198.7851,26.0469 Q199.0508,26.2969 199.0508,26.6406 Q199.0508,26.9844 198.707,27.3906 Q198.207,27.9688 197.4101,28.2969 Q196.332,28.75 195.0351,28.75 Q193.5195,28.75 192.3164,28.125 Q191.332,27.625 190.6445,26.5625 Q189.957,25.4844 189.957,24.2031 L189.957,23.0469 Q189.957,21.7188 190.5664,20.5781 Q191.1914,19.4219 192.2851,18.8125 Q193.3789,18.1875 194.6133,18.1875 Q195.3476,18.1875 195.9883,18.3594 Q196.6445,18.5156 197.1914,18.875 Z " fill="#000000"/><text fill="#000000" font-family="sans-serif" font-size="14" lengthAdjust="spacing" textLength="99" x="208.4258" y="28.7285">MonoBehaviour</text><line style="stroke:#181818;stroke-width:0.5;" x1="180.4258" x2="309.4258" y1="39" y2="39"/><line style="stroke:#181818;stroke-width:0.5;" x1="180.4258" x2="309.4258" y1="47" y2="47"/></g><!--MD5=[c05919f88dab9d999cd7bd146db477c0]
class TMP_InputField--><g id="elem_TMP_InputField"><rect fill="#F1F1F1" height="48" id="TMP_InputField" rx="2.5" ry="2.5" style="stroke:#181818;stroke-width:0.5;" width="131" x="30.4258" y="470"/><ellipse cx="45.4258" cy="486" fill="#ADD1B2" rx="11" ry="11" style="stroke:#181818;stroke-width:1.0;"/><path d="M48.1914,481.875 Q48.3476,481.6563 48.5351,481.5469 Q48.7226,481.4375 48.9414,481.4375 Q49.3164,481.4375 49.5508,481.7031 Q49.7851,481.9531 49.7851,482.5625 L49.7851,484.0156 Q49.7851,484.625 49.5508,484.8906 Q49.3164,485.1563 48.9414,485.1563 Q48.5976,485.1563 48.3945,484.9531 Q48.1914,484.7656 48.082,484.25 Q48.0351,483.8906 47.8476,483.7031 Q47.5195,483.3281 46.9101,483.1094 Q46.3008,482.8906 45.6758,482.8906 Q44.9101,482.8906 44.2695,483.2188 Q43.6445,483.5469 43.1445,484.2969 Q42.6601,485.0469 42.6601,486.0781 L42.6601,487.1719 Q42.6601,488.4063 43.5508,489.2344 Q44.4414,490.0469 46.0351,490.0469 Q46.9726,490.0469 47.6289,489.7969 Q48.0195,489.6406 48.4414,489.2031 Q48.707,488.9375 48.8476,488.8594 Q49.0039,488.7813 49.207,488.7813 Q49.5351,488.7813 49.7851,489.0469 Q50.0508,489.2969 50.0508,489.6406 Q50.0508,489.9844 49.707,490.3906 Q49.207,490.9688 48.4101,491.2969 Q47.332,491.75 46.0351,491.75 Q44.5195,491.75 43.3164,491.125 Q42.332,490.625 41.6445,489.5625 Q40.957,488.4844 40.957,487.2031 L40.957,486.0469 Q40.957,484.7188 41.5664,483.5781 Q42.1914,482.4219 43.2851,481.8125 Q44.3789,481.1875 45.6133,481.1875 Q46.3476,481.1875 46.9883,481.3594 Q47.6445,481.5156 48.1914,481.875 Z " fill="#000000"/><text fill="#000000" font-family="sans-serif" font-size="14" lengthAdjust="spacing" textLength="99" x="59.4258" y="491.7285">TMP_InputField</text><line style="stroke:#181818;stroke-width:0.5;" x1="31.4258" x2="160.4258" y1="502" y2="502"/><line style="stroke:#181818;stroke-width:0.5;" x1="31.4258" x2="160.4258" y1="510" y2="510"/></g><!--MD5=[fa07864ef55e7d1943fa981e1ee9b4e7]
class TMP_Text--><g id="elem_TMP_Text"><rect fill="#F1F1F1" height="48" id="TMP_Text" rx="2.5" ry="2.5" style="stroke:#181818;stroke-width:0.5;" width="96" x="196.9258" y="470"/><ellipse cx="211.9258" cy="486" fill="#ADD1B2" rx="11" ry="11" style="stroke:#181818;stroke-width:1.0;"/><path d="M214.6914,481.875 Q214.8476,481.6563 215.0351,481.5469 Q215.2226,481.4375 215.4414,481.4375 Q215.8164,481.4375 216.0508,481.7031 Q216.2851,481.9531 216.2851,482.5625 L216.2851,484.0156 Q216.2851,484.625 216.0508,484.8906 Q215.8164,485.1563 215.4414,485.1563 Q215.0976,485.1563 214.8945,484.9531 Q214.6914,484.7656 214.582,484.25 Q214.5351,483.8906 214.3476,483.7031 Q214.0195,483.3281 213.4101,483.1094 Q212.8008,482.8906 212.1758,482.8906 Q211.4101,482.8906 210.7695,483.2188 Q210.1445,483.5469 209.6445,484.2969 Q209.1601,485.0469 209.1601,486.0781 L209.1601,487.1719 Q209.1601,488.4063 210.0508,489.2344 Q210.9414,490.0469 212.5351,490.0469 Q213.4726,490.0469 214.1289,489.7969 Q214.5195,489.6406 214.9414,489.2031 Q215.207,488.9375 215.3476,488.8594 Q215.5039,488.7813 215.707,488.7813 Q216.0351,488.7813 216.2851,489.0469 Q216.5508,489.2969 216.5508,489.6406 Q216.5508,489.9844 216.207,490.3906 Q215.707,490.9688 214.9101,491.2969 Q213.832,491.75 212.5351,491.75 Q211.0195,491.75 209.8164,491.125 Q208.832,490.625 208.1445,489.5625 Q207.457,488.4844 207.457,487.2031 L207.457,486.0469 Q207.457,484.7188 208.0664,483.5781 Q208.6914,482.4219 209.7851,481.8125 Q210.8789,481.1875 212.1133,481.1875 Q212.8476,481.1875 213.4883,481.3594 Q214.1445,481.5156 214.6914,481.875 Z " fill="#000000"/><text fill="#000000" font-family="sans-serif" font-size="14" lengthAdjust="spacing" textLength="64" x="225.9258" y="491.7285">TMP_Text</text><line style="stroke:#181818;stroke-width:0.5;" x1="197.9258" x2="291.9258" y1="502" y2="502"/><line style="stroke:#181818;stroke-width:0.5;" x1="197.9258" x2="291.9258" y1="510" y2="510"/></g><!--MD5=[1f4d314f7d372d30fdfe3dcc9aaf549c]
class TMP_Dropdown--><g id="elem_TMP_Dropdown"><rect fill="#F1F1F1" height="48" id="TMP_Dropdown" rx="2.5" ry="2.5" style="stroke:#181818;stroke-width:0.5;" width="133" x="328.4258" y="470"/><ellipse cx="343.4258" cy="486" fill="#ADD1B2" rx="11" ry="11" style="stroke:#181818;stroke-width:1.0;"/><path d="M346.1914,481.875 Q346.3476,481.6563 346.5351,481.5469 Q346.7226,481.4375 346.9414,481.4375 Q347.3164,481.4375 347.5508,481.7031 Q347.7851,481.9531 347.7851,482.5625 L347.7851,484.0156 Q347.7851,484.625 347.5508,484.8906 Q347.3164,485.1563 346.9414,485.1563 Q346.5976,485.1563 346.3945,484.9531 Q346.1914,484.7656 346.082,484.25 Q346.0351,483.8906 345.8476,483.7031 Q345.5195,483.3281 344.9101,483.1094 Q344.3008,482.8906 343.6758,482.8906 Q342.9101,482.8906 342.2695,483.2188 Q341.6445,483.5469 341.1445,484.2969 Q340.6601,485.0469 340.6601,486.0781 L340.6601,487.1719 Q340.6601,488.4063 341.5508,489.2344 Q342.4414,490.0469 344.0351,490.0469 Q344.9726,490.0469 345.6289,489.7969 Q346.0195,489.6406 346.4414,489.2031 Q346.707,488.9375 346.8476,488.8594 Q347.0039,488.7813 347.207,488.7813 Q347.5351,488.7813 347.7851,489.0469 Q348.0508,489.2969 348.0508,489.6406 Q348.0508,489.9844 347.707,490.3906 Q347.207,490.9688 346.4101,491.2969 Q345.332,491.75 344.0351,491.75 Q342.5195,491.75 341.3164,491.125 Q340.332,490.625 339.6445,489.5625 Q338.957,488.4844 338.957,487.2031 L338.957,486.0469 Q338.957,484.7188 339.5664,483.5781 Q340.1914,482.4219 341.2851,481.8125 Q342.3789,481.1875 343.6133,481.1875 Q344.3476,481.1875 344.9883,481.3594 Q345.6445,481.5156 346.1914,481.875 Z " fill="#000000"/><text fill="#000000" font-family="sans-serif" font-size="14" lengthAdjust="spacing" textLength="101" x="357.4258" y="491.7285">TMP_Dropdown</text><line style="stroke:#181818;stroke-width:0.5;" x1="329.4258" x2="460.4258" y1="502" y2="502"/><line style="stroke:#181818;stroke-width:0.5;" x1="329.4258" x2="460.4258" y1="510" y2="510"/></g><!--MD5=[5edf34eb39d3b3dfde6419c044ab889f]
class Canvas--><g id="elem_Canvas"><rect fill="#F1F1F1" height="48" id="Canvas" rx="2.5" ry="2.5" style="stroke:#181818;stroke-width:0.5;" width="80" x="496.9258" y="470"/><ellipse cx="511.9258" cy="486" fill="#ADD1B2" rx="11" ry="11" style="stroke:#181818;stroke-width:1.0;"/><path d="M514.6914,481.875 Q514.8476,481.6563 515.0351,481.5469 Q515.2226,481.4375 515.4414,481.4375 Q515.8164,481.4375 516.0508,481.7031 Q516.2851,481.9531 516.2851,482.5625 L516.2851,484.0156 Q516.2851,484.625 516.0508,484.8906 Q515.8164,485.1563 515.4414,485.1563 Q515.0976,485.1563 514.8945,484.9531 Q514.6914,484.7656 514.582,484.25 Q514.5351,483.8906 514.3476,483.7031 Q514.0195,483.3281 513.4101,483.1094 Q512.8008,482.8906 512.1758,482.8906 Q511.4101,482.8906 510.7695,483.2188 Q510.1445,483.5469 509.6445,484.2969 Q509.1601,485.0469 509.1601,486.0781 L509.1601,487.1719 Q509.1601,488.4063 510.0508,489.2344 Q510.9414,490.0469 512.5351,490.0469 Q513.4726,490.0469 514.1289,489.7969 Q514.5195,489.6406 514.9414,489.2031 Q515.207,488.9375 515.3476,488.8594 Q515.5039,488.7813 515.707,488.7813 Q516.0351,488.7813 516.2851,489.0469 Q516.5508,489.2969 516.5508,489.6406 Q516.5508,489.9844 516.207,490.3906 Q515.707,490.9688 514.9101,491.2969 Q513.832,491.75 512.5351,491.75 Q511.0195,491.75 509.8164,491.125 Q508.832,490.625 508.1445,489.5625 Q507.457,488.4844 507.457,487.2031 L507.457,486.0469 Q507.457,484.7188 508.0664,483.5781 Q508.6914,482.4219 509.7851,481.8125 Q510.8789,481.1875 512.1133,481.1875 Q512.8476,481.1875 513.4883,481.3594 Q514.1445,481.5156 514.6914,481.875 Z " fill="#000000"/><text fill="#000000" font-family="sans-serif" font-size="14" lengthAdjust="spacing" textLength="48" x="525.9258" y="491.7285">Canvas</text><line style="stroke:#181818;stroke-width:0.5;" x1="497.9258" x2="575.9258" y1="502" y2="502"/><line style="stroke:#181818;stroke-width:0.5;" x1="497.9258" x2="575.9258" y1="510" y2="510"/></g><!--MD5=[c9827d9ae84fd22a5b5ffcbd3bb67514]
class PlaneTypes--><g id="elem_PlaneTypes"><rect fill="#F1F1F1" height="48" id="PlaneTypes" rx="2.5" ry="2.5" style="stroke:#181818;stroke-width:0.5;" width="107" x="612.4258" y="470"/><ellipse cx="627.4258" cy="486" fill="#ADD1B2" rx="11" ry="11" style="stroke:#181818;stroke-width:1.0;"/><path d="M630.1914,481.875 Q630.3476,481.6563 630.5351,481.5469 Q630.7226,481.4375 630.9414,481.4375 Q631.3164,481.4375 631.5508,481.7031 Q631.7851,481.9531 631.7851,482.5625 L631.7851,484.0156 Q631.7851,484.625 631.5508,484.8906 Q631.3164,485.1563 630.9414,485.1563 Q630.5976,485.1563 630.3945,484.9531 Q630.1914,484.7656 630.082,484.25 Q630.0351,483.8906 629.8476,483.7031 Q629.5195,483.3281 628.9101,483.1094 Q628.3008,482.8906 627.6758,482.8906 Q626.9101,482.8906 626.2695,483.2188 Q625.6445,483.5469 625.1445,484.2969 Q624.6601,485.0469 624.6601,486.0781 L624.6601,487.1719 Q624.6601,488.4063 625.5508,489.2344 Q626.4414,490.0469 628.0351,490.0469 Q628.9726,490.0469 629.6289,489.7969 Q630.0195,489.6406 630.4414,489.2031 Q630.707,488.9375 630.8476,488.8594 Q631.0039,488.7813 631.207,488.7813 Q631.5351,488.7813 631.7851,489.0469 Q632.0508,489.2969 632.0508,489.6406 Q632.0508,489.9844 631.707,490.3906 Q631.207,490.9688 630.4101,491.2969 Q629.332,491.75 628.0351,491.75 Q626.5195,491.75 625.3164,491.125 Q624.332,490.625 623.6445,489.5625 Q622.957,488.4844 622.957,487.2031 L622.957,486.0469 Q622.957,484.7188 623.5664,483.5781 Q624.1914,482.4219 625.2851,481.8125 Q626.3789,481.1875 627.6133,481.1875 Q628.3476,481.1875 628.9883,481.3594 Q629.6445,481.5156 630.1914,481.875 Z " fill="#000000"/><text fill="#000000" font-family="sans-serif" font-size="14" lengthAdjust="spacing" textLength="75" x="641.4258" y="491.7285">PlaneTypes</text><line style="stroke:#181818;stroke-width:0.5;" x1="613.4258" x2="718.4258" y1="502" y2="502"/><line style="stroke:#181818;stroke-width:0.5;" x1="613.4258" x2="718.4258" y1="510" y2="510"/></g><!--MD5=[85351c293789760aefb763695acfa681]
reverse link MonoBehaviour to JoinUIManager--><g id="link_MonoBehaviour_JoinUIManager"><path codeLine="17" d="M244.9258,75.63 C244.9258,87.41 244.9258,100.84 244.9258,114.96 " fill="none" id="MonoBehaviour-backto-JoinUIManager" style="stroke:#181818;stroke-width:1.0;"/><polygon fill="none" points="237.9258,75.27,244.9258,55.27,251.9258,75.27,237.9258,75.27" style="stroke:#181818;stroke-width:1.0;"/></g><!--MD5=[1f02693dd642fc4a8d64bfbe2313d881]
link JoinUIManager to TMP_InputField--><g id="link_JoinUIManager_TMP_InputField"><path codeLine="18" d="M112.0858,410.15 C100.4958,430.8 91.6858,449.96 87.5958,464.64 " fill="none" id="JoinUIManager-to-TMP_InputField" style="stroke:#181818;stroke-width:1.0;"/><polygon fill="#181818" points="86.3058,469.84,92.3745,462.0831,87.5218,464.9901,84.6147,460.1374,86.3058,469.84" style="stroke:#181818;stroke-width:1.0;"/><text fill="#000000" font-family="sans-serif" font-size="13" lengthAdjust="spacing" textLength="69" x="6" y="459.1392">roomIDInput</text></g><!--MD5=[1f02693dd642fc4a8d64bfbe2313d881]
link JoinUIManager to TMP_InputField--><g id="link_JoinUIManager_TMP_InputField"><path codeLine="19" d="M137.4158,410.15 C124.4858,430.98 113.1558,450.29 105.3958,465.02 " fill="none" id="JoinUIManager-to-TMP_InputField-1" style="stroke:#181818;stroke-width:1.0;"/><polygon fill="#181818" points="102.9058,469.84,110.5956,463.6864,105.2044,465.3997,103.4911,460.0086,102.9058,469.84" style="stroke:#181818;stroke-width:1.0;"/><text fill="#000000" font-family="sans-serif" font-size="13" lengthAdjust="spacing" textLength="72" x="113.9194" y="459.1392">serverIpInput</text></g><!--MD5=[1f02693dd642fc4a8d64bfbe2313d881]
link JoinUIManager to TMP_InputField--><g id="link_JoinUIManager_TMP_InputField"><path codeLine="20" d="M162.7458,410.15 C148.3358,431.34 134.2858,450.97 122.6958,465.79 " fill="none" id="JoinUIManager-to-TMP_InputField-2" style="stroke:#181818;stroke-width:1.0;"/><polygon fill="#181818" points="119.4958,469.84,128.211,465.2526,122.593,465.9149,121.9308,460.2969,119.4958,469.84" style="stroke:#181818;stroke-width:1.0;"/><text fill="#000000" font-family="sans-serif" font-size="13" lengthAdjust="spacing" textLength="102" x="138.6043" y="459.1392">localUdpPortInput</text></g><!--MD5=[1f02693dd642fc4a8d64bfbe2313d881]
link JoinUIManager to TMP_InputField--><g id="link_JoinUIManager_TMP_InputField"><path codeLine="21" d="M188.0657,410.15 C172.2658,431.53 155.5357,451.3 140.0158,466.17 " fill="none" id="JoinUIManager-to-TMP_InputField-3" style="stroke:#181818;stroke-width:1.0;"/><polygon fill="#181818" points="136.0958,469.84,145.4041,466.6221,139.7506,466.4279,139.9447,460.7744,136.0958,469.84" style="stroke:#181818;stroke-width:1.0;"/><text fill="#000000" font-family="sans-serif" font-size="13" lengthAdjust="spacing" textLength="60" x="135.5062" y="459.2864">nameInput</text></g><!--MD5=[d6dc3361ceea0a3eaf6dcdb3af62ad31]
link JoinUIManager to TMP_Text--><g id="link_JoinUIManager_TMP_Text"><path codeLine="22" d="M244.9258,410.15 C244.9258,430.8 244.9258,449.96 244.9258,464.64 " fill="none" id="JoinUIManager-to-TMP_Text" style="stroke:#181818;stroke-width:1.0;"/><polygon fill="#181818" points="244.9258,469.84,248.9258,460.84,244.9258,464.84,240.9258,460.84,244.9258,469.84" style="stroke:#181818;stroke-width:1.0;"/><text fill="#000000" font-family="sans-serif" font-size="13" lengthAdjust="spacing" textLength="69" x="253.7664" y="459.1392">errorDisplay</text></g><!--MD5=[fa8717f2aa43bcbd4f9774fbf2c380f3]
link JoinUIManager to TMP_Dropdown--><g id="link_JoinUIManager_TMP_Dropdown"><path codeLine="23" d="M340.7758,410.15 C354.5058,431.16 367.2358,450.63 376.8858,465.41 " fill="none" id="JoinUIManager-to-TMP_Dropdown" style="stroke:#181818;stroke-width:1.0;"/><polygon fill="#181818" points="379.7858,469.84,378.1986,460.1199,377.0453,465.6579,371.5072,464.5046,379.7858,469.84" style="stroke:#181818;stroke-width:1.0;"/><text fill="#000000" font-family="sans-serif" font-size="13" lengthAdjust="spacing" textLength="71" x="385.003" y="459.1392">gameModes</text></g><!--MD5=[2328a7eb80c275940e36d061052e5b12]
link JoinUIManager to Canvas--><g id="link_JoinUIManager_Canvas"><path codeLine="24" d="M419.2057,410.15 C447.4958,431.89 474.3257,451.97 495.2858,466.92 " fill="none" id="JoinUIManager-to-Canvas" style="stroke:#181818;stroke-width:1.0;"/><polygon fill="#181818" points="499.3957,469.84,494.3661,461.3723,495.3165,466.9487,489.74,467.8991,499.3957,469.84" style="stroke:#181818;stroke-width:1.0;"/><text fill="#000000" font-family="sans-serif" font-size="13" lengthAdjust="spacing" textLength="65" x="498.1068" y="459.1392">JoinCanvas</text></g><!--MD5=[2328a7eb80c275940e36d061052e5b12]
link JoinUIManager to Canvas--><g id="link_JoinUIManager_Canvas"><path codeLine="25" d="M425.1958,394.67 C459.6558,422.08 491.4458,448.22 512.3858,466.65 " fill="none" id="JoinUIManager-to-Canvas-1" style="stroke:#181818;stroke-width:1.0;"/><polygon fill="#181818" points="516.1658,470,512.0795,461.0388,512.4224,466.6853,506.776,467.0282,516.1658,470" style="stroke:#181818;stroke-width:1.0;"/><text fill="#000000" font-family="sans-serif" font-size="13" lengthAdjust="spacing" textLength="94" x="440.9613" y="459.1528">selectionCanvas</text></g><!--MD5=[90c1dee98c22da0f3bace77e2f0933d7]
link JoinUIManager to PlaneTypes--><g id="link_JoinUIManager_PlaneTypes"><path codeLine="26" d="M424.9958,361.66 C495.9557,400.35 571.6358,441.6 618.8458,467.33 " fill="none" id="JoinUIManager-to-PlaneTypes" style="stroke:#181818;stroke-width:1.0;"/><polygon fill="#181818" points="623.3258,469.78,617.3312,461.9656,618.9335,467.3908,613.5084,468.9931,623.3258,469.78" style="stroke:#181818;stroke-width:1.0;"/><text fill="#000000" font-family="sans-serif" font-size="13" lengthAdjust="spacing" textLength="59" x="578.9064" y="459.0638">planeType</text></g><!--MD5=[364e6de9fb90161975d8c9aa7fdaacc5]
@startuml
class JoinUIManager {
    - ip : string
    - tcpServerPort : int
    - udpServerPort : int
    - localUdpPort : int
    - Start() : void
    - Update() : void
    createRoomTask() : IEnumerator
    joinRoomTask() : IEnumerator
    + createRoom() : void
    + joinRoom() : void
    + selectPlane() : void
    - connectToServer() : void
    + onGameModeChanged() : void
    + populateDropdown(dropdown:TMP_Dropdown) : void
}
MonoBehaviour <|- - JoinUIManager
JoinUIManager - -> "roomIDInput" TMP_InputField
JoinUIManager - -> "serverIpInput" TMP_InputField
JoinUIManager - -> "localUdpPortInput" TMP_InputField
JoinUIManager - -> "nameInput" TMP_InputField
JoinUIManager - -> "errorDisplay" TMP_Text
JoinUIManager - -> "gameModes" TMP_Dropdown
JoinUIManager - -> "JoinCanvas" Canvas
JoinUIManager - -> "selectionCanvas" Canvas
JoinUIManager - -> "planeType" PlaneTypes
@enduml

PlantUML version 1.2022.5(Sat Apr 30 12:55:52 CEST 2022)
(GPL source distribution)
Java Runtime: Java(TM) SE Runtime Environment
JVM: Java HotSpot(TM) 64-Bit Server VM
Default Encoding: UTF-8
Language: en
Country: GB
--></g></svg>