<?xml version="1.0" encoding="UTF-8" standalone="no"?><svg xmlns="http://www.w3.org/2000/svg" xmlns:xlink="http://www.w3.org/1999/xlink" contentStyleType="text/css" height="562px" preserveAspectRatio="none" style="width:949px;height:562px;background:#FFFFFF;" version="1.1" viewBox="0 0 949 562" width="949px" zoomAndPan="magnify"><defs/><g><!--MD5=[5113db081c5c2a1be1665ed57b9c1112]
class PrefabOrganizer--><g id="elem_PrefabOrganizer"><rect codeLine="1" fill="#F1F1F1" height="65.6094" id="PrefabOrganizer" rx="2.5" ry="2.5" style="stroke:#181818;stroke-width:0.5;" width="136" x="441" y="115"/><ellipse cx="456" cy="131" fill="#ADD1B2" rx="11" ry="11" style="stroke:#181818;stroke-width:1.0;"/><path d="M458.7656,126.875 Q458.9219,126.6563 459.1094,126.5469 Q459.2969,126.4375 459.5156,126.4375 Q459.8906,126.4375 460.125,126.7031 Q460.3594,126.9531 460.3594,127.5625 L460.3594,129.0156 Q460.3594,129.625 460.125,129.8906 Q459.8906,130.1563 459.5156,130.1563 Q459.1719,130.1563 458.9688,129.9531 Q458.7656,129.7656 458.6563,129.25 Q458.6094,128.8906 458.4219,128.7031 Q458.0938,128.3281 457.4844,128.1094 Q456.875,127.8906 456.25,127.8906 Q455.4844,127.8906 454.8438,128.2188 Q454.2188,128.5469 453.7188,129.2969 Q453.2344,130.0469 453.2344,131.0781 L453.2344,132.1719 Q453.2344,133.4063 454.125,134.2344 Q455.0156,135.0469 456.6094,135.0469 Q457.5469,135.0469 458.2031,134.7969 Q458.5938,134.6406 459.0156,134.2031 Q459.2813,133.9375 459.4219,133.8594 Q459.5781,133.7813 459.7813,133.7813 Q460.1094,133.7813 460.3594,134.0469 Q460.625,134.2969 460.625,134.6406 Q460.625,134.9844 460.2813,135.3906 Q459.7813,135.9688 458.9844,136.2969 Q457.9063,136.75 456.6094,136.75 Q455.0938,136.75 453.8906,136.125 Q452.9063,135.625 452.2188,134.5625 Q451.5313,133.4844 451.5313,132.2031 L451.5313,131.0469 Q451.5313,129.7188 452.1406,128.5781 Q452.7656,127.4219 453.8594,126.8125 Q454.9531,126.1875 456.1875,126.1875 Q456.9219,126.1875 457.5625,126.3594 Q458.2188,126.5156 458.7656,126.875 Z " fill="#000000"/><text fill="#000000" font-family="sans-serif" font-size="14" lengthAdjust="spacing" textLength="104" x="470" y="136.7285">PrefabOrganizer</text><line style="stroke:#181818;stroke-width:0.5;" x1="442" x2="576" y1="147" y2="147"/><line style="stroke:#181818;stroke-width:0.5;" x1="442" x2="576" y1="155" y2="155"/><text fill="#000000" font-family="sans-serif" font-size="14" lengthAdjust="spacing" textLength="89" x="447" y="173.5332">Awake() : void</text></g><!--MD5=[b3f551ed6414be1d83c270dc194c4cc3]
class BulletTypes--><g id="elem_BulletTypes"><rect codeLine="4" fill="#F1F1F1" height="65.6094" id="BulletTypes" rx="2.5" ry="2.5" style="stroke:#181818;stroke-width:0.5;" width="122" x="65" y="472.5"/><ellipse cx="87.2" cy="488.5" fill="#EB937F" rx="11" ry="11" style="stroke:#181818;stroke-width:1.0;"/><path d="M86.0594,489.2969 L86.0594,491.7969 L90.3875,491.7969 L90.3875,490.875 Q90.3875,490.2656 90.6219,490 Q90.8719,489.7344 91.2469,489.7344 Q91.6219,489.7344 91.8563,490 Q92.0906,490.2656 92.0906,490.875 L92.0906,493.5 L84.0906,493.5 Q83.4656,493.5 83.2,493.2656 Q82.95,493.0313 82.95,492.6406 Q82.95,492.2656 83.2156,492.0313 Q83.4813,491.7969 84.0906,491.7969 L84.3563,491.7969 L84.3563,485.1406 L84.0906,485.1406 Q83.4656,485.1406 83.2,484.9063 Q82.95,484.6719 82.95,484.2813 Q82.95,483.9063 83.2,483.6719 Q83.4656,483.4375 84.0906,483.4375 L91.7156,483.4375 L91.7156,486.0313 Q91.7156,486.6406 91.4813,486.9063 Q91.2625,487.1563 90.8719,487.1563 Q90.4969,487.1563 90.2625,486.9063 Q90.0281,486.6406 90.0281,486.0313 L90.0281,485.1406 L86.0594,485.1406 L86.0594,487.5938 L87.5438,487.5938 Q87.5438,486.9375 87.6688,486.75 Q87.9344,486.3438 88.4031,486.3438 Q88.7781,486.3438 89.0125,486.6094 Q89.2469,486.8594 89.2469,487.4688 L89.2469,489.4375 Q89.2469,489.9844 89.1219,490.1719 Q88.8563,490.5625 88.4031,490.5625 Q87.9344,490.5625 87.6688,490.1563 Q87.5438,489.9688 87.5438,489.2969 L86.0594,489.2969 Z " fill="#000000"/><text fill="#000000" font-family="sans-serif" font-size="14" lengthAdjust="spacing" textLength="74" x="102.8" y="494.2285">BulletTypes</text><line style="stroke:#181818;stroke-width:0.5;" x1="66" x2="186" y1="504.5" y2="504.5"/><text fill="#000000" font-family="sans-serif" font-size="14" lengthAdjust="spacing" textLength="110" x="71" y="523.0332">CRAZY_BULLET,</text><line style="stroke:#181818;stroke-width:0.5;" x1="66" x2="186" y1="530.1094" y2="530.1094"/></g><!--MD5=[63eeb8a48f8ef9c43a2cf8122dceb13d]
class RocketTypes--><g id="elem_RocketTypes"><rect codeLine="7" fill="#F1F1F1" height="100.8281" id="RocketTypes" rx="2.5" ry="2.5" style="stroke:#181818;stroke-width:0.5;" width="140" x="376" y="455"/><ellipse cx="402.25" cy="471" fill="#EB937F" rx="11" ry="11" style="stroke:#181818;stroke-width:1.0;"/><path d="M401.1094,471.7969 L401.1094,474.2969 L405.4375,474.2969 L405.4375,473.375 Q405.4375,472.7656 405.6719,472.5 Q405.9219,472.2344 406.2969,472.2344 Q406.6719,472.2344 406.9063,472.5 Q407.1406,472.7656 407.1406,473.375 L407.1406,476 L399.1406,476 Q398.5156,476 398.25,475.7656 Q398,475.5313 398,475.1406 Q398,474.7656 398.2656,474.5313 Q398.5313,474.2969 399.1406,474.2969 L399.4063,474.2969 L399.4063,467.6406 L399.1406,467.6406 Q398.5156,467.6406 398.25,467.4063 Q398,467.1719 398,466.7813 Q398,466.4063 398.25,466.1719 Q398.5156,465.9375 399.1406,465.9375 L406.7656,465.9375 L406.7656,468.5313 Q406.7656,469.1406 406.5313,469.4063 Q406.3125,469.6563 405.9219,469.6563 Q405.5469,469.6563 405.3125,469.4063 Q405.0781,469.1406 405.0781,468.5313 L405.0781,467.6406 L401.1094,467.6406 L401.1094,470.0938 L402.5938,470.0938 Q402.5938,469.4375 402.7188,469.25 Q402.9844,468.8438 403.4531,468.8438 Q403.8281,468.8438 404.0625,469.1094 Q404.2969,469.3594 404.2969,469.9688 L404.2969,471.9375 Q404.2969,472.4844 404.1719,472.6719 Q403.9063,473.0625 403.4531,473.0625 Q402.9844,473.0625 402.7188,472.6563 Q402.5938,472.4688 402.5938,471.7969 L401.1094,471.7969 Z " fill="#000000"/><text fill="#000000" font-family="sans-serif" font-size="14" lengthAdjust="spacing" textLength="83" x="418.75" y="476.7285">RocketTypes</text><line style="stroke:#181818;stroke-width:0.5;" x1="377" x2="515" y1="487" y2="487"/><text fill="#000000" font-family="sans-serif" font-size="14" lengthAdjust="spacing" textLength="128" x="382" y="505.5332">NORMAL_ROCKET,</text><text fill="#000000" font-family="sans-serif" font-size="14" lengthAdjust="spacing" textLength="116" x="382" y="523.1426">CRAZY_ROCKET,</text><text fill="#000000" font-family="sans-serif" font-size="14" lengthAdjust="spacing" textLength="118" x="382" y="540.752">INSANE_ROCKET,</text><line style="stroke:#181818;stroke-width:0.5;" x1="377" x2="515" y1="547.8281" y2="547.8281"/></g><!--MD5=[c9827d9ae84fd22a5b5ffcbd3bb67514]
class PlaneTypes--><g id="elem_PlaneTypes"><rect codeLine="12" fill="#F1F1F1" height="83.2188" id="PlaneTypes" rx="2.5" ry="2.5" style="stroke:#181818;stroke-width:0.5;" width="168" x="551" y="464"/><ellipse cx="593.45" cy="480" fill="#EB937F" rx="11" ry="11" style="stroke:#181818;stroke-width:1.0;"/><path d="M592.3094,480.7969 L592.3094,483.2969 L596.6375,483.2969 L596.6375,482.375 Q596.6375,481.7656 596.8719,481.5 Q597.1219,481.2344 597.4969,481.2344 Q597.8719,481.2344 598.1063,481.5 Q598.3406,481.7656 598.3406,482.375 L598.3406,485 L590.3406,485 Q589.7156,485 589.45,484.7656 Q589.2,484.5313 589.2,484.1406 Q589.2,483.7656 589.4656,483.5313 Q589.7313,483.2969 590.3406,483.2969 L590.6063,483.2969 L590.6063,476.6406 L590.3406,476.6406 Q589.7156,476.6406 589.45,476.4063 Q589.2,476.1719 589.2,475.7813 Q589.2,475.4063 589.45,475.1719 Q589.7156,474.9375 590.3406,474.9375 L597.9656,474.9375 L597.9656,477.5313 Q597.9656,478.1406 597.7313,478.4063 Q597.5125,478.6563 597.1219,478.6563 Q596.7469,478.6563 596.5125,478.4063 Q596.2781,478.1406 596.2781,477.5313 L596.2781,476.6406 L592.3094,476.6406 L592.3094,479.0938 L593.7938,479.0938 Q593.7938,478.4375 593.9188,478.25 Q594.1844,477.8438 594.6531,477.8438 Q595.0281,477.8438 595.2625,478.1094 Q595.4969,478.3594 595.4969,478.9688 L595.4969,480.9375 Q595.4969,481.4844 595.3719,481.6719 Q595.1063,482.0625 594.6531,482.0625 Q594.1844,482.0625 593.9188,481.6563 Q593.7938,481.4688 593.7938,480.7969 L592.3094,480.7969 Z " fill="#000000"/><text fill="#000000" font-family="sans-serif" font-size="14" lengthAdjust="spacing" textLength="75" x="613.55" y="485.7285">PlaneTypes</text><line style="stroke:#181818;stroke-width:0.5;" x1="552" x2="718" y1="496" y2="496"/><text fill="#000000" font-family="sans-serif" font-size="14" lengthAdjust="spacing" textLength="156" x="557" y="514.5332">STANDARD_AIRCRAFT,</text><text fill="#000000" font-family="sans-serif" font-size="14" lengthAdjust="spacing" textLength="137" x="557" y="532.1426">CRAPPY_AIRCRAFT,</text><line style="stroke:#181818;stroke-width:0.5;" x1="552" x2="718" y1="539.2188" y2="539.2188"/></g><!--MD5=[2824395d61b6e4620487641a86c41e67]
class Bullet--><g id="elem_Bullet"><rect codeLine="16" fill="#F1F1F1" height="118.4375" id="Bullet" rx="2.5" ry="2.5" style="stroke:#181818;stroke-width:0.5;" width="222" x="7" y="259"/><ellipse cx="96.25" cy="275" fill="#ADD1B2" rx="11" ry="11" style="stroke:#181818;stroke-width:1.0;"/><path d="M99.0156,270.875 Q99.1719,270.6563 99.3594,270.5469 Q99.5469,270.4375 99.7656,270.4375 Q100.1406,270.4375 100.375,270.7031 Q100.6094,270.9531 100.6094,271.5625 L100.6094,273.0156 Q100.6094,273.625 100.375,273.8906 Q100.1406,274.1563 99.7656,274.1563 Q99.4219,274.1563 99.2188,273.9531 Q99.0156,273.7656 98.9063,273.25 Q98.8594,272.8906 98.6719,272.7031 Q98.3438,272.3281 97.7344,272.1094 Q97.125,271.8906 96.5,271.8906 Q95.7344,271.8906 95.0938,272.2188 Q94.4688,272.5469 93.9688,273.2969 Q93.4844,274.0469 93.4844,275.0781 L93.4844,276.1719 Q93.4844,277.4063 94.375,278.2344 Q95.2656,279.0469 96.8594,279.0469 Q97.7969,279.0469 98.4531,278.7969 Q98.8438,278.6406 99.2656,278.2031 Q99.5313,277.9375 99.6719,277.8594 Q99.8281,277.7813 100.0313,277.7813 Q100.3594,277.7813 100.6094,278.0469 Q100.875,278.2969 100.875,278.6406 Q100.875,278.9844 100.5313,279.3906 Q100.0313,279.9688 99.2344,280.2969 Q98.1563,280.75 96.8594,280.75 Q95.3438,280.75 94.1406,280.125 Q93.1563,279.625 92.4688,278.5625 Q91.7813,277.4844 91.7813,276.2031 L91.7813,275.0469 Q91.7813,273.7188 92.3906,272.5781 Q93.0156,271.4219 94.1094,270.8125 Q95.2031,270.1875 96.4375,270.1875 Q97.1719,270.1875 97.8125,270.3594 Q98.4688,270.5156 99.0156,270.875 Z " fill="#000000"/><text fill="#000000" font-family="sans-serif" font-size="14" lengthAdjust="spacing" textLength="35" x="116.75" y="280.7285">Bullet</text><line style="stroke:#181818;stroke-width:0.5;" x1="8" x2="228" y1="291" y2="291"/><ellipse cx="18" cy="302" fill="none" rx="3" ry="3" style="stroke:#038048;stroke-width:1.0;"/><text fill="#000000" font-family="sans-serif" font-size="14" lengthAdjust="spacing" textLength="78" x="27" y="309.5332">damage : int</text><ellipse cx="18" cy="319.6094" fill="none" rx="3" ry="3" style="stroke:#038048;stroke-width:1.0;"/><text fill="#000000" font-family="sans-serif" font-size="14" lengthAdjust="spacing" textLength="137" x="27" y="327.1426">projectileSpeed : float</text><ellipse cx="18" cy="337.2188" fill="none" rx="3" ry="3" style="stroke:#038048;stroke-width:1.0;"/><text fill="#000000" font-family="sans-serif" font-size="14" lengthAdjust="spacing" textLength="126" x="27" y="344.752">despawnTime : float</text><ellipse cx="18" cy="354.8281" fill="none" rx="3" ry="3" style="stroke:#038048;stroke-width:1.0;"/><text fill="#000000" font-family="sans-serif" font-size="14" lengthAdjust="spacing" textLength="196" x="27" y="362.3613">timeUntilBulletGetsLethal : float</text><line style="stroke:#181818;stroke-width:0.5;" x1="8" x2="228" y1="369.4375" y2="369.4375"/></g><!--MD5=[a5dc8f4c5593da54b0269a88fd736024]
class Rocket--><g id="elem_Rocket"><rect codeLine="22" fill="#F1F1F1" height="153.6563" id="Rocket" rx="2.5" ry="2.5" style="stroke:#181818;stroke-width:0.5;" width="238" x="264" y="241"/><ellipse cx="356.75" cy="257" fill="#ADD1B2" rx="11" ry="11" style="stroke:#181818;stroke-width:1.0;"/><path d="M359.5156,252.875 Q359.6719,252.6563 359.8594,252.5469 Q360.0469,252.4375 360.2656,252.4375 Q360.6406,252.4375 360.875,252.7031 Q361.1094,252.9531 361.1094,253.5625 L361.1094,255.0156 Q361.1094,255.625 360.875,255.8906 Q360.6406,256.1563 360.2656,256.1563 Q359.9219,256.1563 359.7188,255.9531 Q359.5156,255.7656 359.4063,255.25 Q359.3594,254.8906 359.1719,254.7031 Q358.8438,254.3281 358.2344,254.1094 Q357.625,253.8906 357,253.8906 Q356.2344,253.8906 355.5938,254.2188 Q354.9688,254.5469 354.4688,255.2969 Q353.9844,256.0469 353.9844,257.0781 L353.9844,258.1719 Q353.9844,259.4063 354.875,260.2344 Q355.7656,261.0469 357.3594,261.0469 Q358.2969,261.0469 358.9531,260.7969 Q359.3438,260.6406 359.7656,260.2031 Q360.0313,259.9375 360.1719,259.8594 Q360.3281,259.7813 360.5313,259.7813 Q360.8594,259.7813 361.1094,260.0469 Q361.375,260.2969 361.375,260.6406 Q361.375,260.9844 361.0313,261.3906 Q360.5313,261.9688 359.7344,262.2969 Q358.6563,262.75 357.3594,262.75 Q355.8438,262.75 354.6406,262.125 Q353.6563,261.625 352.9688,260.5625 Q352.2813,259.4844 352.2813,258.2031 L352.2813,257.0469 Q352.2813,255.7188 352.8906,254.5781 Q353.5156,253.4219 354.6094,252.8125 Q355.7031,252.1875 356.9375,252.1875 Q357.6719,252.1875 358.3125,252.3594 Q358.9688,252.5156 359.5156,252.875 Z " fill="#000000"/><text fill="#000000" font-family="sans-serif" font-size="14" lengthAdjust="spacing" textLength="44" x="377.25" y="262.7285">Rocket</text><line style="stroke:#181818;stroke-width:0.5;" x1="265" x2="501" y1="273" y2="273"/><ellipse cx="275" cy="284" fill="none" rx="3" ry="3" style="stroke:#038048;stroke-width:1.0;"/><text fill="#000000" font-family="sans-serif" font-size="14" lengthAdjust="spacing" textLength="78" x="284" y="291.5332">damage : int</text><ellipse cx="275" cy="301.6094" fill="none" rx="3" ry="3" style="stroke:#038048;stroke-width:1.0;"/><text fill="#000000" font-family="sans-serif" font-size="14" lengthAdjust="spacing" textLength="105" x="284" y="309.1426">turnSpeed : float</text><ellipse cx="275" cy="319.2188" fill="none" rx="3" ry="3" style="stroke:#038048;stroke-width:1.0;"/><text fill="#000000" font-family="sans-serif" font-size="14" lengthAdjust="spacing" textLength="137" x="284" y="326.752">projectileSpeed : float</text><ellipse cx="275" cy="336.8281" fill="none" rx="3" ry="3" style="stroke:#038048;stroke-width:1.0;"/><text fill="#000000" font-family="sans-serif" font-size="14" lengthAdjust="spacing" textLength="126" x="284" y="344.3613">despawnTime : float</text><ellipse cx="275" cy="354.4375" fill="none" rx="3" ry="3" style="stroke:#038048;stroke-width:1.0;"/><text fill="#000000" font-family="sans-serif" font-size="14" lengthAdjust="spacing" textLength="212" x="284" y="361.9707">timeUntilRocketEnginesFire : float</text><ellipse cx="275" cy="372.0469" fill="none" rx="3" ry="3" style="stroke:#038048;stroke-width:1.0;"/><text fill="#000000" font-family="sans-serif" font-size="14" lengthAdjust="spacing" textLength="205" x="284" y="379.5801">timeUntilRocketGetsLethal : float</text><line style="stroke:#181818;stroke-width:0.5;" x1="265" x2="501" y1="386.6563" y2="386.6563"/></g><!--MD5=[10813612642ae27aa5ff8d66c0f223e4]
class Plane--><g id="elem_Plane"><rect codeLine="30" fill="#F1F1F1" height="118.4375" id="Plane" rx="2.5" ry="2.5" style="stroke:#181818;stroke-width:0.5;" width="196" x="537" y="259"/><ellipse cx="612.75" cy="275" fill="#ADD1B2" rx="11" ry="11" style="stroke:#181818;stroke-width:1.0;"/><path d="M615.5156,270.875 Q615.6719,270.6563 615.8594,270.5469 Q616.0469,270.4375 616.2656,270.4375 Q616.6406,270.4375 616.875,270.7031 Q617.1094,270.9531 617.1094,271.5625 L617.1094,273.0156 Q617.1094,273.625 616.875,273.8906 Q616.6406,274.1563 616.2656,274.1563 Q615.9219,274.1563 615.7188,273.9531 Q615.5156,273.7656 615.4063,273.25 Q615.3594,272.8906 615.1719,272.7031 Q614.8438,272.3281 614.2344,272.1094 Q613.625,271.8906 613,271.8906 Q612.2344,271.8906 611.5938,272.2188 Q610.9688,272.5469 610.4688,273.2969 Q609.9844,274.0469 609.9844,275.0781 L609.9844,276.1719 Q609.9844,277.4063 610.875,278.2344 Q611.7656,279.0469 613.3594,279.0469 Q614.2969,279.0469 614.9531,278.7969 Q615.3438,278.6406 615.7656,278.2031 Q616.0313,277.9375 616.1719,277.8594 Q616.3281,277.7813 616.5313,277.7813 Q616.8594,277.7813 617.1094,278.0469 Q617.375,278.2969 617.375,278.6406 Q617.375,278.9844 617.0313,279.3906 Q616.5313,279.9688 615.7344,280.2969 Q614.6563,280.75 613.3594,280.75 Q611.8438,280.75 610.6406,280.125 Q609.6563,279.625 608.9688,278.5625 Q608.2813,277.4844 608.2813,276.2031 L608.2813,275.0469 Q608.2813,273.7188 608.8906,272.5781 Q609.5156,271.4219 610.6094,270.8125 Q611.7031,270.1875 612.9375,270.1875 Q613.6719,270.1875 614.3125,270.3594 Q614.9688,270.5156 615.5156,270.875 Z " fill="#000000"/><text fill="#000000" font-family="sans-serif" font-size="14" lengthAdjust="spacing" textLength="36" x="633.25" y="280.7285">Plane</text><line style="stroke:#181818;stroke-width:0.5;" x1="538" x2="732" y1="291" y2="291"/><ellipse cx="548" cy="302" fill="none" rx="3" ry="3" style="stroke:#038048;stroke-width:1.0;"/><text fill="#000000" font-family="sans-serif" font-size="14" lengthAdjust="spacing" textLength="95" x="557" y="309.5332">startHealth : int</text><ellipse cx="548" cy="319.6094" fill="none" rx="3" ry="3" style="stroke:#038048;stroke-width:1.0;"/><text fill="#000000" font-family="sans-serif" font-size="14" lengthAdjust="spacing" textLength="63" x="557" y="327.1426">thrust : int</text><ellipse cx="548" cy="337.2188" fill="none" rx="3" ry="3" style="stroke:#038048;stroke-width:1.0;"/><text fill="#000000" font-family="sans-serif" font-size="14" lengthAdjust="spacing" textLength="170" x="557" y="344.752">timeBetweenRockets : float</text><ellipse cx="548" cy="354.8281" fill="none" rx="3" ry="3" style="stroke:#038048;stroke-width:1.0;"/><text fill="#000000" font-family="sans-serif" font-size="14" lengthAdjust="spacing" textLength="161" x="557" y="362.3613">timeBetweenBullets : float</text><line style="stroke:#181818;stroke-width:0.5;" x1="538" x2="732" y1="369.4375" y2="369.4375"/></g><!--MD5=[1b1562314ef50edf921bad0cd204186a]
class World--><g id="elem_World"><rect codeLine="36" fill="#F1F1F1" height="83.2188" id="World" rx="2.5" ry="2.5" style="stroke:#181818;stroke-width:0.5;" width="116" x="768" y="276.5"/><ellipse cx="804.15" cy="292.5" fill="#ADD1B2" rx="11" ry="11" style="stroke:#181818;stroke-width:1.0;"/><path d="M806.9156,288.375 Q807.0719,288.1563 807.2594,288.0469 Q807.4469,287.9375 807.6656,287.9375 Q808.0406,287.9375 808.275,288.2031 Q808.5094,288.4531 808.5094,289.0625 L808.5094,290.5156 Q808.5094,291.125 808.275,291.3906 Q808.0406,291.6563 807.6656,291.6563 Q807.3219,291.6563 807.1188,291.4531 Q806.9156,291.2656 806.8063,290.75 Q806.7594,290.3906 806.5719,290.2031 Q806.2438,289.8281 805.6344,289.6094 Q805.025,289.3906 804.4,289.3906 Q803.6344,289.3906 802.9938,289.7188 Q802.3688,290.0469 801.8688,290.7969 Q801.3844,291.5469 801.3844,292.5781 L801.3844,293.6719 Q801.3844,294.9063 802.275,295.7344 Q803.1656,296.5469 804.7594,296.5469 Q805.6969,296.5469 806.3531,296.2969 Q806.7438,296.1406 807.1656,295.7031 Q807.4313,295.4375 807.5719,295.3594 Q807.7281,295.2813 807.9313,295.2813 Q808.2594,295.2813 808.5094,295.5469 Q808.775,295.7969 808.775,296.1406 Q808.775,296.4844 808.4313,296.8906 Q807.9313,297.4688 807.1344,297.7969 Q806.0563,298.25 804.7594,298.25 Q803.2438,298.25 802.0406,297.625 Q801.0563,297.125 800.3688,296.0625 Q799.6813,294.9844 799.6813,293.7031 L799.6813,292.5469 Q799.6813,291.2188 800.2906,290.0781 Q800.9156,288.9219 802.0094,288.3125 Q803.1031,287.6875 804.3375,287.6875 Q805.0719,287.6875 805.7125,287.8594 Q806.3688,288.0156 806.9156,288.375 Z " fill="#000000"/><text fill="#000000" font-family="sans-serif" font-size="14" lengthAdjust="spacing" textLength="37" x="822.85" y="298.2285">World</text><line style="stroke:#181818;stroke-width:0.5;" x1="769" x2="883" y1="308.5" y2="308.5"/><ellipse cx="779" cy="319.5" fill="none" rx="3" ry="3" style="stroke:#038048;stroke-width:1.0;"/><text fill="#000000" font-family="sans-serif" font-size="14" lengthAdjust="spacing" textLength="90" x="788" y="327.0332">buildIndex : int</text><ellipse cx="779" cy="337.1094" fill="none" rx="3" ry="3" style="stroke:#038048;stroke-width:1.0;"/><text fill="#000000" font-family="sans-serif" font-size="14" lengthAdjust="spacing" textLength="82" x="788" y="344.6426">name : string</text><line style="stroke:#181818;stroke-width:0.5;" x1="769" x2="883" y1="351.7188" y2="351.7188"/></g><!--MD5=[e644022de7dea015dd09463c37421447]
class List`1--><g id="elem_List`1"><rect codeLine="40" fill="#F1F1F1" height="48" id="List`1" rx="2.5" ry="2.5" style="stroke:#181818;stroke-width:0.5;" width="78" x="791" y="124"/><ellipse cx="806" cy="140" fill="#ADD1B2" rx="11" ry="11" style="stroke:#181818;stroke-width:1.0;"/><path d="M808.7656,135.875 Q808.9219,135.6563 809.1094,135.5469 Q809.2969,135.4375 809.5156,135.4375 Q809.8906,135.4375 810.125,135.7031 Q810.3594,135.9531 810.3594,136.5625 L810.3594,138.0156 Q810.3594,138.625 810.125,138.8906 Q809.8906,139.1563 809.5156,139.1563 Q809.1719,139.1563 808.9688,138.9531 Q808.7656,138.7656 808.6563,138.25 Q808.6094,137.8906 808.4219,137.7031 Q808.0938,137.3281 807.4844,137.1094 Q806.875,136.8906 806.25,136.8906 Q805.4844,136.8906 804.8438,137.2188 Q804.2188,137.5469 803.7188,138.2969 Q803.2344,139.0469 803.2344,140.0781 L803.2344,141.1719 Q803.2344,142.4063 804.125,143.2344 Q805.0156,144.0469 806.6094,144.0469 Q807.5469,144.0469 808.2031,143.7969 Q808.5938,143.6406 809.0156,143.2031 Q809.2813,142.9375 809.4219,142.8594 Q809.5781,142.7813 809.7813,142.7813 Q810.1094,142.7813 810.3594,143.0469 Q810.625,143.2969 810.625,143.6406 Q810.625,143.9844 810.2813,144.3906 Q809.7813,144.9688 808.9844,145.2969 Q807.9063,145.75 806.6094,145.75 Q805.0938,145.75 803.8906,145.125 Q802.9063,144.625 802.2188,143.5625 Q801.5313,142.4844 801.5313,141.2031 L801.5313,140.0469 Q801.5313,138.7188 802.1406,137.5781 Q802.7656,136.4219 803.8594,135.8125 Q804.9531,135.1875 806.1875,135.1875 Q806.9219,135.1875 807.5625,135.3594 Q808.2188,135.5156 808.7656,135.875 Z " fill="#000000"/><text fill="#000000" font-family="sans-serif" font-size="14" lengthAdjust="spacing" textLength="35" x="820" y="145.7285">List`1</text><rect fill="#FFFFFF" height="17.0938" style="stroke:#000000;stroke-width:1.0;stroke-dasharray:2.0,2.0;" width="9" x="863" y="121"/><text fill="#000000" font-family="sans-serif" font-size="12" font-style="italic" lengthAdjust="spacing" textLength="7" x="864" y="134.457">T</text><line style="stroke:#181818;stroke-width:0.5;" x1="792" x2="868" y1="156" y2="156"/><line style="stroke:#181818;stroke-width:0.5;" x1="792" x2="868" y1="164" y2="164"/></g><!--MD5=[2e1ff885372daab8d802f213ced6c836]
class Dictionary`2--><g id="elem_Dictionary`2"><rect codeLine="42" fill="#F1F1F1" height="48" id="Dictionary`2" rx="2.5" ry="2.5" style="stroke:#181818;stroke-width:0.5;" width="143" x="612.5" y="124"/><ellipse cx="627.5" cy="140" fill="#ADD1B2" rx="11" ry="11" style="stroke:#181818;stroke-width:1.0;"/><path d="M630.2656,135.875 Q630.4219,135.6563 630.6094,135.5469 Q630.7969,135.4375 631.0156,135.4375 Q631.3906,135.4375 631.625,135.7031 Q631.8594,135.9531 631.8594,136.5625 L631.8594,138.0156 Q631.8594,138.625 631.625,138.8906 Q631.3906,139.1563 631.0156,139.1563 Q630.6719,139.1563 630.4688,138.9531 Q630.2656,138.7656 630.1563,138.25 Q630.1094,137.8906 629.9219,137.7031 Q629.5938,137.3281 628.9844,137.1094 Q628.375,136.8906 627.75,136.8906 Q626.9844,136.8906 626.3438,137.2188 Q625.7188,137.5469 625.2188,138.2969 Q624.7344,139.0469 624.7344,140.0781 L624.7344,141.1719 Q624.7344,142.4063 625.625,143.2344 Q626.5156,144.0469 628.1094,144.0469 Q629.0469,144.0469 629.7031,143.7969 Q630.0938,143.6406 630.5156,143.2031 Q630.7813,142.9375 630.9219,142.8594 Q631.0781,142.7813 631.2813,142.7813 Q631.6094,142.7813 631.8594,143.0469 Q632.125,143.2969 632.125,143.6406 Q632.125,143.9844 631.7813,144.3906 Q631.2813,144.9688 630.4844,145.2969 Q629.4063,145.75 628.1094,145.75 Q626.5938,145.75 625.3906,145.125 Q624.4063,144.625 623.7188,143.5625 Q623.0313,142.4844 623.0313,141.2031 L623.0313,140.0469 Q623.0313,138.7188 623.6406,137.5781 Q624.2656,136.4219 625.3594,135.8125 Q626.4531,135.1875 627.6875,135.1875 Q628.4219,135.1875 629.0625,135.3594 Q629.7188,135.5156 630.2656,135.875 Z " fill="#000000"/><text fill="#000000" font-family="sans-serif" font-size="14" lengthAdjust="spacing" textLength="76" x="641.5" y="145.7285">Dictionary`2</text><rect fill="#FFFFFF" height="17.0938" style="stroke:#000000;stroke-width:1.0;stroke-dasharray:2.0,2.0;" width="33" x="725.5" y="121"/><text fill="#000000" font-family="sans-serif" font-size="12" font-style="italic" lengthAdjust="spacing" textLength="31" x="726.5" y="134.457">T1,T2</text><line style="stroke:#181818;stroke-width:0.5;" x1="613.5" x2="754.5" y1="156" y2="156"/><line style="stroke:#181818;stroke-width:0.5;" x1="613.5" x2="754.5" y1="164" y2="164"/></g><!--MD5=[83b3cf3d23d77c6f1e1b5291a241bc2a]
class MonoBehaviour--><g id="elem_MonoBehaviour"><rect fill="#F1F1F1" height="48" id="MonoBehaviour" rx="2.5" ry="2.5" style="stroke:#181818;stroke-width:0.5;" width="131" x="443.5" y="7"/><ellipse cx="458.5" cy="23" fill="#ADD1B2" rx="11" ry="11" style="stroke:#181818;stroke-width:1.0;"/><path d="M461.2656,18.875 Q461.4219,18.6563 461.6094,18.5469 Q461.7969,18.4375 462.0156,18.4375 Q462.3906,18.4375 462.625,18.7031 Q462.8594,18.9531 462.8594,19.5625 L462.8594,21.0156 Q462.8594,21.625 462.625,21.8906 Q462.3906,22.1563 462.0156,22.1563 Q461.6719,22.1563 461.4688,21.9531 Q461.2656,21.7656 461.1563,21.25 Q461.1094,20.8906 460.9219,20.7031 Q460.5938,20.3281 459.9844,20.1094 Q459.375,19.8906 458.75,19.8906 Q457.9844,19.8906 457.3438,20.2188 Q456.7188,20.5469 456.2188,21.2969 Q455.7344,22.0469 455.7344,23.0781 L455.7344,24.1719 Q455.7344,25.4063 456.625,26.2344 Q457.5156,27.0469 459.1094,27.0469 Q460.0469,27.0469 460.7031,26.7969 Q461.0938,26.6406 461.5156,26.2031 Q461.7813,25.9375 461.9219,25.8594 Q462.0781,25.7813 462.2813,25.7813 Q462.6094,25.7813 462.8594,26.0469 Q463.125,26.2969 463.125,26.6406 Q463.125,26.9844 462.7813,27.3906 Q462.2813,27.9688 461.4844,28.2969 Q460.4063,28.75 459.1094,28.75 Q457.5938,28.75 456.3906,28.125 Q455.4063,27.625 454.7188,26.5625 Q454.0313,25.4844 454.0313,24.2031 L454.0313,23.0469 Q454.0313,21.7188 454.6406,20.5781 Q455.2656,19.4219 456.3594,18.8125 Q457.4531,18.1875 458.6875,18.1875 Q459.4219,18.1875 460.0625,18.3594 Q460.7188,18.5156 461.2656,18.875 Z " fill="#000000"/><text fill="#000000" font-family="sans-serif" font-size="14" lengthAdjust="spacing" textLength="99" x="472.5" y="28.7285">MonoBehaviour</text><line style="stroke:#181818;stroke-width:0.5;" x1="444.5" x2="573.5" y1="39" y2="39"/><line style="stroke:#181818;stroke-width:0.5;" x1="444.5" x2="573.5" y1="47" y2="47"/></g><!--MD5=[064f7a74fee85463ec1a30143664ee17]
class GameObject--><g id="elem_GameObject"><rect fill="#F1F1F1" height="48" id="GameObject" rx="2.5" ry="2.5" style="stroke:#181818;stroke-width:0.5;" width="111" x="229.5" y="481.5"/><ellipse cx="244.5" cy="497.5" fill="#ADD1B2" rx="11" ry="11" style="stroke:#181818;stroke-width:1.0;"/><path d="M247.2656,493.375 Q247.4219,493.1563 247.6094,493.0469 Q247.7969,492.9375 248.0156,492.9375 Q248.3906,492.9375 248.625,493.2031 Q248.8594,493.4531 248.8594,494.0625 L248.8594,495.5156 Q248.8594,496.125 248.625,496.3906 Q248.3906,496.6563 248.0156,496.6563 Q247.6719,496.6563 247.4688,496.4531 Q247.2656,496.2656 247.1563,495.75 Q247.1094,495.3906 246.9219,495.2031 Q246.5938,494.8281 245.9844,494.6094 Q245.375,494.3906 244.75,494.3906 Q243.9844,494.3906 243.3438,494.7188 Q242.7188,495.0469 242.2188,495.7969 Q241.7344,496.5469 241.7344,497.5781 L241.7344,498.6719 Q241.7344,499.9063 242.625,500.7344 Q243.5156,501.5469 245.1094,501.5469 Q246.0469,501.5469 246.7031,501.2969 Q247.0938,501.1406 247.5156,500.7031 Q247.7813,500.4375 247.9219,500.3594 Q248.0781,500.2813 248.2813,500.2813 Q248.6094,500.2813 248.8594,500.5469 Q249.125,500.7969 249.125,501.1406 Q249.125,501.4844 248.7813,501.8906 Q248.2813,502.4688 247.4844,502.7969 Q246.4063,503.25 245.1094,503.25 Q243.5938,503.25 242.3906,502.625 Q241.4063,502.125 240.7188,501.0625 Q240.0313,499.9844 240.0313,498.7031 L240.0313,497.5469 Q240.0313,496.2188 240.6406,495.0781 Q241.2656,493.9219 242.3594,493.3125 Q243.4531,492.6875 244.6875,492.6875 Q245.4219,492.6875 246.0625,492.8594 Q246.7188,493.0156 247.2656,493.375 Z " fill="#000000"/><text fill="#000000" font-family="sans-serif" font-size="14" lengthAdjust="spacing" textLength="79" x="258.5" y="503.2285">GameObject</text><line style="stroke:#181818;stroke-width:0.5;" x1="230.5" x2="339.5" y1="513.5" y2="513.5"/><line style="stroke:#181818;stroke-width:0.5;" x1="230.5" x2="339.5" y1="521.5" y2="521.5"/></g><!--MD5=[85c2ed8dbf494cb60783de624603a7dd]
class Sprite--><g id="elem_Sprite"><rect fill="#F1F1F1" height="48" id="Sprite" rx="2.5" ry="2.5" style="stroke:#181818;stroke-width:0.5;" width="69" x="754.5" y="481.5"/><ellipse cx="769.5" cy="497.5" fill="#ADD1B2" rx="11" ry="11" style="stroke:#181818;stroke-width:1.0;"/><path d="M772.2656,493.375 Q772.4219,493.1563 772.6094,493.0469 Q772.7969,492.9375 773.0156,492.9375 Q773.3906,492.9375 773.625,493.2031 Q773.8594,493.4531 773.8594,494.0625 L773.8594,495.5156 Q773.8594,496.125 773.625,496.3906 Q773.3906,496.6563 773.0156,496.6563 Q772.6719,496.6563 772.4688,496.4531 Q772.2656,496.2656 772.1563,495.75 Q772.1094,495.3906 771.9219,495.2031 Q771.5938,494.8281 770.9844,494.6094 Q770.375,494.3906 769.75,494.3906 Q768.9844,494.3906 768.3438,494.7188 Q767.7188,495.0469 767.2188,495.7969 Q766.7344,496.5469 766.7344,497.5781 L766.7344,498.6719 Q766.7344,499.9063 767.625,500.7344 Q768.5156,501.5469 770.1094,501.5469 Q771.0469,501.5469 771.7031,501.2969 Q772.0938,501.1406 772.5156,500.7031 Q772.7813,500.4375 772.9219,500.3594 Q773.0781,500.2813 773.2813,500.2813 Q773.6094,500.2813 773.8594,500.5469 Q774.125,500.7969 774.125,501.1406 Q774.125,501.4844 773.7813,501.8906 Q773.2813,502.4688 772.4844,502.7969 Q771.4063,503.25 770.1094,503.25 Q768.5938,503.25 767.3906,502.625 Q766.4063,502.125 765.7188,501.0625 Q765.0313,499.9844 765.0313,498.7031 L765.0313,497.5469 Q765.0313,496.2188 765.6406,495.0781 Q766.2656,493.9219 767.3594,493.3125 Q768.4531,492.6875 769.6875,492.6875 Q770.4219,492.6875 771.0625,492.8594 Q771.7188,493.0156 772.2656,493.375 Z " fill="#000000"/><text fill="#000000" font-family="sans-serif" font-size="14" lengthAdjust="spacing" textLength="37" x="783.5" y="503.2285">Sprite</text><line style="stroke:#181818;stroke-width:0.5;" x1="755.5" x2="822.5" y1="513.5" y2="513.5"/><line style="stroke:#181818;stroke-width:0.5;" x1="755.5" x2="822.5" y1="521.5" y2="521.5"/></g><!--MD5=[65d619c042c23702cef2ca07d67b1cf6]
class Vector3--><g id="elem_Vector3"><rect fill="#F1F1F1" height="48" id="Vector3" rx="2.5" ry="2.5" style="stroke:#181818;stroke-width:0.5;" width="81" x="858.5" y="481.5"/><ellipse cx="873.5" cy="497.5" fill="#ADD1B2" rx="11" ry="11" style="stroke:#181818;stroke-width:1.0;"/><path d="M876.2656,493.375 Q876.4219,493.1563 876.6094,493.0469 Q876.7969,492.9375 877.0156,492.9375 Q877.3906,492.9375 877.625,493.2031 Q877.8594,493.4531 877.8594,494.0625 L877.8594,495.5156 Q877.8594,496.125 877.625,496.3906 Q877.3906,496.6563 877.0156,496.6563 Q876.6719,496.6563 876.4688,496.4531 Q876.2656,496.2656 876.1563,495.75 Q876.1094,495.3906 875.9219,495.2031 Q875.5938,494.8281 874.9844,494.6094 Q874.375,494.3906 873.75,494.3906 Q872.9844,494.3906 872.3438,494.7188 Q871.7188,495.0469 871.2188,495.7969 Q870.7344,496.5469 870.7344,497.5781 L870.7344,498.6719 Q870.7344,499.9063 871.625,500.7344 Q872.5156,501.5469 874.1094,501.5469 Q875.0469,501.5469 875.7031,501.2969 Q876.0938,501.1406 876.5156,500.7031 Q876.7813,500.4375 876.9219,500.3594 Q877.0781,500.2813 877.2813,500.2813 Q877.6094,500.2813 877.8594,500.5469 Q878.125,500.7969 878.125,501.1406 Q878.125,501.4844 877.7813,501.8906 Q877.2813,502.4688 876.4844,502.7969 Q875.4063,503.25 874.1094,503.25 Q872.5938,503.25 871.3906,502.625 Q870.4063,502.125 869.7188,501.0625 Q869.0313,499.9844 869.0313,498.7031 L869.0313,497.5469 Q869.0313,496.2188 869.6406,495.0781 Q870.2656,493.9219 871.3594,493.3125 Q872.4531,492.6875 873.6875,492.6875 Q874.4219,492.6875 875.0625,492.8594 Q875.7188,493.0156 876.2656,493.375 Z " fill="#000000"/><text fill="#000000" font-family="sans-serif" font-size="14" lengthAdjust="spacing" textLength="49" x="887.5" y="503.2285">Vector3</text><line style="stroke:#181818;stroke-width:0.5;" x1="859.5" x2="938.5" y1="513.5" y2="513.5"/><line style="stroke:#181818;stroke-width:0.5;" x1="859.5" x2="938.5" y1="521.5" y2="521.5"/></g><!--MD5=[3728f4900ca6b7a827acd3edff5d2ef8]
reverse link MonoBehaviour to PrefabOrganizer--><g id="link_MonoBehaviour_PrefabOrganizer"><path codeLine="44" d="M509,75.62 C509,88.56 509,102.51 509,114.61 " fill="none" id="MonoBehaviour-backto-PrefabOrganizer" style="stroke:#181818;stroke-width:1.0;"/><polygon fill="none" points="502,75.27,509,55.27,516,75.27,502,75.27" style="stroke:#181818;stroke-width:1.0;"/></g><!--MD5=[37b6bbaeb9b015db9d11f60e55c2b8d4]
link PrefabOrganizer to List`1--><g id="link_PrefabOrganizer_List`1"><path codeLine="45" d="M581.4078,110.6748 C581.4078,110.6748 594.76,106.35 600.83,105 C636.91,96.97 731.86,94.07 767.17,105 C775.65,107.63 784.01,111.83 791.72,116.62 " fill="none" id="PrefabOrganizer-List`1" style="stroke:#181818;stroke-width:1.0;"/><polygon fill="#181818" points="802.51,123.91,797.3014,115.5512,798.3702,121.1061,792.8152,122.1749,802.51,123.91" style="stroke:#181818;stroke-width:1.0;"/><line style="stroke:#181818;stroke-width:1.0;" x1="798.3702" x2="791.74" y1="121.1061" y2="116.625"/><polygon fill="none" points="570.18,114.91,577.2056,116.535,581.4078,110.6748,574.3822,109.0498,570.18,114.91" style="stroke:#181818;stroke-width:1.0;"/><text fill="#000000" font-family="sans-serif" font-size="13" lengthAdjust="spacing" textLength="94" x="689.5038" y="113.1645">_bullets&lt;Bullet&gt;</text></g><!--MD5=[37b6bbaeb9b015db9d11f60e55c2b8d4]
link PrefabOrganizer to List`1--><g id="link_PrefabOrganizer_List`1"><path codeLine="47" d="M569.3701,109.3504 C569.3701,109.3504 594.45,98.1 606.67,95 C639.98,86.54 728.8,83.91 761.33,95 C774.03,99.33 786.2,107.06 796.68,115.3 " fill="none" id="PrefabOrganizer-List`1-1" style="stroke:#181818;stroke-width:1.0;"/><polygon fill="#181818" points="806.93,123.96,802.6353,115.0969,803.1102,120.7337,797.4733,121.2086,806.93,123.96" style="stroke:#181818;stroke-width:1.0;"/><line style="stroke:#181818;stroke-width:1.0;" x1="803.1102" x2="796.995" y1="120.7337" y2="115.575"/><polygon fill="none" points="558.72,114.88,565.8882,115.6652,569.3701,109.3504,562.2018,108.5652,558.72,114.88" style="stroke:#181818;stroke-width:1.0;"/><text fill="#000000" font-family="sans-serif" font-size="13" lengthAdjust="spacing" textLength="107" x="814.7277" y="113.2899">_rockets&lt;Rocket&gt;</text></g><!--MD5=[37b6bbaeb9b015db9d11f60e55c2b8d4]
link PrefabOrganizer to List`1--><g id="link_PrefabOrganizer_List`1"><path codeLine="49" d="M561.4685,108.539 C561.4685,108.539 595.23,89.84 612.5,85 C643.1,76.42 725.66,74.07 755.5,85 C772.19,91.11 787.72,102.8 800.23,114.47 " fill="none" id="PrefabOrganizer-List`1-2" style="stroke:#181818;stroke-width:1.0;"/><polygon fill="#181818" points="809.58,123.71,805.9874,114.5397,806.0226,120.1965,800.3658,120.2316,809.58,123.71" style="stroke:#181818;stroke-width:1.0;"/><line style="stroke:#181818;stroke-width:1.0;" x1="806.0226" x2="800.34" y1="120.1965" y2="114.57"/><polygon fill="none" points="551.35,114.99,558.5596,115.1373,561.4685,108.539,554.2589,108.3916,551.35,114.99" style="stroke:#181818;stroke-width:1.0;"/><text fill="#000000" font-family="sans-serif" font-size="13" lengthAdjust="spacing" textLength="94" x="848.7855" y="113.4366">_planes&lt;Plane&gt;</text></g><!--MD5=[37b6bbaeb9b015db9d11f60e55c2b8d4]
link PrefabOrganizer to List`1--><g id="link_PrefabOrganizer_List`1"><path codeLine="51" d="M556.2247,107.6565 C556.2247,107.6565 596.53,81.61 618.33,75 C646.26,66.53 722.44,64.48 749.67,75 C770.23,82.95 788.78,98.88 802.86,113.84 " fill="none" id="PrefabOrganizer-List`1-3" style="stroke:#181818;stroke-width:1.0;"/><polygon fill="#181818" points="811.86,123.93,808.8592,114.5494,808.5337,120.1969,802.8863,119.8714,811.86,123.93" style="stroke:#181818;stroke-width:1.0;"/><line style="stroke:#181818;stroke-width:1.0;" x1="808.5337" x2="803.205" y1="120.1969" y2="114.225"/><polygon fill="none" points="546.59,114.81,553.7919,114.4448,556.2247,107.6565,549.0229,108.0217,546.59,114.81" style="stroke:#181818;stroke-width:1.0;"/><text fill="#000000" font-family="sans-serif" font-size="13" lengthAdjust="spacing" textLength="94" x="819.2554" y="113.2522">_worlds&lt;World&gt;</text></g><!--MD5=[37b6bbaeb9b015db9d11f60e55c2b8d4]
link PrefabOrganizer to List`1--><g id="link_PrefabOrganizer_List`1"><path codeLine="52" d="M552.2835,106.9296 C552.2835,106.9296 598.2,73.38 624.17,65 C649.47,56.83 719.17,55.05 743.83,65 C768.31,74.87 789.72,95.39 805.07,113.56 " fill="none" id="PrefabOrganizer-List`1-4" style="stroke:#181818;stroke-width:1.0;"/><polygon fill="#181818" points="813.39,123.88,810.8602,114.3616,810.2538,119.9859,804.6296,119.3795,813.39,123.88" style="stroke:#181818;stroke-width:1.0;"/><line style="stroke:#181818;stroke-width:1.0;" x1="810.2538" x2="805.235" y1="119.9859" y2="113.755"/><polygon fill="none" points="543.08,114.63,550.2485,113.8477,552.2835,106.9296,545.115,107.712,543.08,114.63" style="stroke:#181818;stroke-width:1.0;"/><text fill="#000000" font-family="sans-serif" font-size="13" lengthAdjust="spacing" textLength="91" x="728.9692" y="113.2969">Worlds&lt;World&gt;</text></g><!--MD5=[09e1f01866e87565c1e6e080d195a422]
link PrefabOrganizer to Dictionary`2--><g id="link_PrefabOrganizer_Dictionary`2"><path codeLine="46" d="M588.9781,172.522 C588.9781,172.522 596.12,172.78 599.09,172.73 " fill="none" id="PrefabOrganizer-Dictionary`2" style="stroke:#181818;stroke-width:1.0;"/><polygon fill="#181818" points="612.12,171.96,602.9024,168.4906,607.1285,172.251,603.3681,176.4771,612.12,171.96" style="stroke:#181818;stroke-width:1.0;"/><line style="stroke:#181818;stroke-width:1.0;" x1="607.1285" x2="599.145" y1="172.251" y2="172.725"/><polygon fill="none" points="577.02,171.52,582.665,176.007,588.9781,172.522,583.333,168.035,577.02,171.52" style="stroke:#181818;stroke-width:1.0;"/><text fill="#000000" font-family="sans-serif" font-size="13" lengthAdjust="spacing" textLength="161" x="614.3289" y="193.6899">Bullets&lt;BulletTypes,Bullet&gt;</text></g><!--MD5=[09e1f01866e87565c1e6e080d195a422]
link PrefabOrganizer to Dictionary`2--><g id="link_PrefabOrganizer_Dictionary`2"><path codeLine="48" d="M589.02,148 C589.02,148 596.12,148 599.09,148 " fill="none" id="PrefabOrganizer-Dictionary`2-1" style="stroke:#181818;stroke-width:1.0;"/><polygon fill="#181818" points="612.12,148,603.12,144,607.12,148,603.12,152,612.12,148" style="stroke:#181818;stroke-width:1.0;"/><line style="stroke:#181818;stroke-width:1.0;" x1="607.12" x2="599.12" y1="148" y2="148"/><polygon fill="none" points="577.02,148,583.02,152,589.02,148,583.02,144,577.02,148" style="stroke:#181818;stroke-width:1.0;"/><text fill="#000000" font-family="sans-serif" font-size="13" lengthAdjust="spacing" textLength="185" x="485.53" y="103.5361">Rockets&lt;RocketTypes,Rocket&gt;</text></g><!--MD5=[09e1f01866e87565c1e6e080d195a422]
link PrefabOrganizer to Dictionary`2--><g id="link_PrefabOrganizer_Dictionary`2"><path codeLine="50" d="M588.9781,123.478 C588.9781,123.478 596.12,123.22 599.09,123.27 " fill="none" id="PrefabOrganizer-Dictionary`2-2" style="stroke:#181818;stroke-width:1.0;"/><polygon fill="#181818" points="612.12,124.04,603.3681,119.5229,607.1285,123.749,602.9024,127.5094,612.12,124.04" style="stroke:#181818;stroke-width:1.0;"/><line style="stroke:#181818;stroke-width:1.0;" x1="607.1285" x2="599.145" y1="123.749" y2="123.275"/><polygon fill="none" points="577.02,124.48,583.333,127.965,588.9781,123.478,582.665,119.993,577.02,124.48" style="stroke:#181818;stroke-width:1.0;"/><text fill="#000000" font-family="sans-serif" font-size="13" lengthAdjust="spacing" textLength="161" x="463.8438" y="103.7664">Planes&lt;PlaneTypes,Plane&gt;</text></g><!--MD5=[803681d15b7d322241332c892cd26902]
reverse link PrefabOrganizer to Bullet--><g id="link_PrefabOrganizer_Bullet"><path codeLine="53" d="M426.39,173.23 C373.73,189.81 304.61,213.68 246,241 C234.4,246.4 222.51,252.56 210.86,258.98 " fill="none" id="PrefabOrganizer-backto-Bullet" style="stroke:#181818;stroke-width:1.0;"/><ellipse cx="433.151" cy="171.1262" fill="#FFFFFF" rx="8" ry="8" style="stroke:#181818;stroke-width:1.0;"/><line style="stroke:#181818;stroke-width:1.0;" x1="425.5121" x2="440.79" y1="173.5024" y2="168.75"/><line style="stroke:#181818;stroke-width:1.0;" x1="430.7748" x2="435.5273" y1="163.4873" y2="178.7652"/></g><!--MD5=[b7817e5ff4a9177b0e492d9d849d8725]
link Bullet to BulletTypes--><g id="link_Bullet_BulletTypes"><path codeLine="54" d="M120.51,377.18 C121.78,406.67 123.29,441.59 124.4,467.4 " fill="none" id="Bullet-to-BulletTypes" style="stroke:#181818;stroke-width:1.0;"/><polygon fill="#181818" points="124.62,472.43,128.231,463.267,124.4059,467.4346,120.2383,463.6095,124.62,472.43" style="stroke:#181818;stroke-width:1.0;"/><text fill="#000000" font-family="sans-serif" font-size="13" lengthAdjust="spacing" textLength="59" x="59.251" y="461.531">bulletType</text></g><!--MD5=[8f1a64479ec27c2b6296a3dc50b18aef]
link Bullet to GameObject--><g id="link_Bullet_GameObject"><path codeLine="55" d="M170.38,377.18 C200.65,410.81 237.29,451.5 260.86,477.68 " fill="none" id="Bullet-to-GameObject" style="stroke:#181818;stroke-width:1.0;"/><polygon fill="#181818" points="264.24,481.44,261.1925,472.0745,260.8952,477.7235,255.2461,477.4262,264.24,481.44" style="stroke:#181818;stroke-width:1.0;"/><text fill="#000000" font-family="sans-serif" font-size="13" lengthAdjust="spacing" textLength="68" x="182.2078" y="470.7648">bulletPrefab</text></g><!--MD5=[fb06bc31d20500f8500539bd6c036994]
reverse link PrefabOrganizer to Rocket--><g id="link_PrefabOrganizer_Rocket"><path codeLine="56" d="M475.57,193.57 C464.67,208.1 452.25,224.66 440.12,240.83 " fill="none" id="PrefabOrganizer-backto-Rocket" style="stroke:#181818;stroke-width:1.0;"/><ellipse cx="479.91" cy="187.79" fill="#FFFFFF" rx="8" ry="8" style="stroke:#181818;stroke-width:1.0;"/><line style="stroke:#181818;stroke-width:1.0;" x1="475.11" x2="484.71" y1="194.19" y2="181.39"/><line style="stroke:#181818;stroke-width:1.0;" x1="473.51" x2="486.31" y1="182.99" y2="192.59"/></g><!--MD5=[d34736a9be3a4d3c576a1ecc7ec397c8]
link Rocket to RocketTypes--><g id="link_Rocket_RocketTypes"><path codeLine="57" d="M408.9,395.25 C415.13,413.61 421.67,432.86 427.49,450 " fill="none" id="Rocket-to-RocketTypes" style="stroke:#181818;stroke-width:1.0;"/><polygon fill="#181818" points="429.11,454.78,430.0143,444.9727,427.5074,450.0438,422.4364,447.5369,429.11,454.78" style="stroke:#181818;stroke-width:1.0;"/><text fill="#000000" font-family="sans-serif" font-size="13" lengthAdjust="spacing" textLength="64" x="358.2348" y="444.0544">rocketType</text></g><!--MD5=[5866c98111c03a80de7f05049da8d1cc]
link Rocket to GameObject--><g id="link_Rocket_GameObject"><path codeLine="58" d="M342.72,395.25 C327.44,424.17 310.99,455.31 299.58,476.91 " fill="none" id="Rocket-to-GameObject" style="stroke:#181818;stroke-width:1.0;"/><polygon fill="#181818" points="297.22,481.37,304.9725,475.2955,299.564,476.9535,297.9061,471.5451,297.22,481.37" style="stroke:#181818;stroke-width:1.0;"/><text fill="#000000" font-family="sans-serif" font-size="13" lengthAdjust="spacing" textLength="73" x="305.6784" y="470.6787">rocketPrefab</text></g><!--MD5=[d3349dfe0185b1bd8cb5f61445967041]
reverse link PrefabOrganizer to Plane--><g id="link_PrefabOrganizer_Plane"><path codeLine="59" d="M542.45,193.61 C557.46,213.61 575.36,237.48 591.4,258.86 " fill="none" id="PrefabOrganizer-backto-Plane" style="stroke:#181818;stroke-width:1.0;"/><ellipse cx="538.09" cy="187.79" fill="#FFFFFF" rx="8" ry="8" style="stroke:#181818;stroke-width:1.0;"/><line style="stroke:#181818;stroke-width:1.0;" x1="542.89" x2="533.29" y1="194.19" y2="181.39"/><line style="stroke:#181818;stroke-width:1.0;" x1="531.69" x2="544.49" y1="192.59" y2="182.99"/></g><!--MD5=[3da1d4d83e9b1a8a19c539ecc0ed1d8a]
link Plane to PlaneTypes--><g id="link_Plane_PlaneTypes"><path codeLine="60" d="M635,377.18 C635,403.47 635,434.08 635,458.7 " fill="none" id="Plane-to-PlaneTypes" style="stroke:#181818;stroke-width:1.0;"/><polygon fill="#181818" points="635,463.86,639,454.86,635,458.86,631,454.86,635,463.86" style="stroke:#181818;stroke-width:1.0;"/><text fill="#000000" font-family="sans-serif" font-size="13" lengthAdjust="spacing" textLength="63" x="640.2172" y="453.1445">playerType</text></g><!--MD5=[28eaf193c490aa5aca524860d15169a8]
link Plane to GameObject--><g id="link_Plane_GameObject"><path codeLine="61" d="M536.81,375.51 C525.25,382.48 513.49,389.19 502,395 C433.86,429.47 408.86,419.99 341,455 C328.15,461.63 314.84,470.11 304.02,478.17 " fill="none" id="Plane-to-GameObject" style="stroke:#181818;stroke-width:1.0;"/><polygon fill="#181818" points="299.85,481.35,309.436,479.0898,303.8311,478.3249,304.5959,472.72,299.85,481.35" style="stroke:#181818;stroke-width:1.0;"/><text fill="#000000" font-family="sans-serif" font-size="13" lengthAdjust="spacing" textLength="58" x="238.2241" y="470.6517">realPlayer</text></g><!--MD5=[28eaf193c490aa5aca524860d15169a8]
link Plane to GameObject--><g id="link_Plane_GameObject"><path codeLine="62" d="M568.96,377.07 C558.49,383.48 547.63,389.62 537,395 C468.86,429.47 443.86,419.99 376,455 C362.92,461.75 349.37,470.41 336.59,478.59 " fill="none" id="Plane-to-GameObject-1" style="stroke:#181818;stroke-width:1.0;"/><polygon fill="#181818" points="332.29,481.35,342.0295,479.8864,336.5065,478.6628,337.7301,473.1399,332.29,481.35" style="stroke:#181818;stroke-width:1.0;"/><text fill="#000000" font-family="sans-serif" font-size="13" lengthAdjust="spacing" textLength="80" x="332.6355" y="470.227">playerDummy</text></g><!--MD5=[17b0cb9d57f9dcea898c50b5e71e4a82]
link Plane to BulletTypes--><g id="link_Plane_BulletTypes"><path codeLine="63" d="M554.8,377.13 C543.17,383.88 531.04,390.1 519,395 C390.23,447.41 342.23,406.33 212,455 C201.27,459.01 190.31,464.28 179.97,469.88 " fill="none" id="Plane-to-BulletTypes" style="stroke:#181818;stroke-width:1.0;"/><polygon fill="#181818" points="175.57,472.3,185.3833,471.4639,179.9502,469.8888,181.5253,464.4556,175.57,472.3" style="stroke:#181818;stroke-width:1.0;"/><text fill="#000000" font-family="sans-serif" font-size="13" lengthAdjust="spacing" textLength="86" x="193.7947" y="461.7569">bulletAmuniton</text></g><!--MD5=[4d9464de1576d5d3071bddc8c6207032]
link Plane to RocketTypes--><g id="link_Plane_RocketTypes"><path codeLine="64" d="M575.72,377.18 C551.57,400.89 523.84,428.1 500.23,451.27 " fill="none" id="Plane-to-RocketTypes" style="stroke:#181818;stroke-width:1.0;"/><polygon fill="#181818" points="496.48,454.95,505.7076,451.5075,500.0511,451.4504,500.1082,445.7938,496.48,454.95" style="stroke:#181818;stroke-width:1.0;"/><text fill="#000000" font-family="sans-serif" font-size="13" lengthAdjust="spacing" textLength="94" x="510.1881" y="444.2483">rocketAmunition</text></g><!--MD5=[021c0570ed9c995f3b77e368a508da90]
link Plane to Sprite--><g id="link_Plane_Sprite"><path codeLine="65" d="M683.3,377.18 C711.1,410.67 744.72,451.17 766.47,477.36 " fill="none" id="Plane-to-Sprite" style="stroke:#181818;stroke-width:1.0;"/><polygon fill="#181818" points="769.85,481.44,767.182,471.9594,766.6575,477.5919,761.025,477.0674,769.85,481.44" style="stroke:#181818;stroke-width:1.0;"/><text fill="#000000" font-family="sans-serif" font-size="13" lengthAdjust="spacing" textLength="65" x="773.2709" y="470.7648">planeSprite</text></g><!--MD5=[6bad44e78777e4b95c6bc9e2a4dd263f]
link Plane to Vector3--><g id="link_Plane_Vector3"><path codeLine="66" d="M723.64,377.17 C776.76,412.09 835.15,450.6 841,455 C850.36,462.04 860.19,470.14 869.03,477.71 " fill="none" id="Plane-to-Vector3" style="stroke:#181818;stroke-width:1.0;"/><polygon fill="#181818" points="873.29,481.38,869.0764,472.478,869.4998,478.119,863.8588,478.5423,873.29,481.38" style="stroke:#181818;stroke-width:1.0;"/><text fill="#000000" font-family="sans-serif" font-size="13" lengthAdjust="spacing" textLength="61" x="874.5174" y="470.6894">turnTorque</text></g><!--MD5=[7add96f5378b7963f95fb49885db65a4]
reverse link PrefabOrganizer to World--><g id="link_PrefabOrganizer_World"><path codeLine="67" d="M591.54,179.91 C660.23,205.71 747.37,238.63 751,241 C765.91,250.72 780.18,263.83 792.2,276.43 " fill="none" id="PrefabOrganizer-backto-World" style="stroke:#181818;stroke-width:1.0;"/><ellipse cx="584.6997" cy="177.3415" fill="#FFFFFF" rx="8" ry="8" style="stroke:#181818;stroke-width:1.0;"/><line style="stroke:#181818;stroke-width:1.0;" x1="592.1894" x2="577.21" y1="180.153" y2="174.53"/><line style="stroke:#181818;stroke-width:1.0;" x1="581.8882" x2="587.5112" y1="184.8312" y2="169.8518"/></g><!--MD5=[1dacefb4473e338bded219e2a3f8beaf]
@startuml
class PrefabOrganizer {
    Awake() : void
}
enum BulletTypes {
    CRAZY_BULLET,
}
enum RocketTypes {
    NORMAL_ROCKET,
    CRAZY_ROCKET,
    INSANE_ROCKET,
}
enum PlaneTypes {
    STANDARD_AIRCRAFT,
    CRAPPY_AIRCRAFT,
}
class Bullet {
    + damage : int
    + projectileSpeed : float
    + despawnTime : float
    + timeUntilBulletGetsLethal : float
}
class Rocket {
    + damage : int
    + turnSpeed : float
    + projectileSpeed : float
    + despawnTime : float
    + timeUntilRocketEnginesFire : float
    + timeUntilRocketGetsLethal : float
}
class Plane {
    + startHealth : int
    + thrust : int
    + timeBetweenRockets : float
    + timeBetweenBullets : float
}
class World {
    + buildIndex : int
    + name : string
}
class "List`1"<T> {
}
class "Dictionary`2"<T1,T2> {
}
MonoBehaviour <|- - PrefabOrganizer
PrefabOrganizer o-> "_bullets<Bullet>" "List`1"
PrefabOrganizer o-> "Bullets<BulletTypes,Bullet>" "Dictionary`2"
PrefabOrganizer o-> "_rockets<Rocket>" "List`1"
PrefabOrganizer o-> "Rockets<RocketTypes,Rocket>" "Dictionary`2"
PrefabOrganizer o-> "_planes<Plane>" "List`1"
PrefabOrganizer o-> "Planes<PlaneTypes,Plane>" "Dictionary`2"
PrefabOrganizer o-> "_worlds<World>" "List`1"
PrefabOrganizer o-> "Worlds<World>" "List`1"
PrefabOrganizer +- - Bullet
Bullet - -> "bulletType" BulletTypes
Bullet - -> "bulletPrefab" GameObject
PrefabOrganizer +- - Rocket
Rocket - -> "rocketType" RocketTypes
Rocket - -> "rocketPrefab" GameObject
PrefabOrganizer +- - Plane
Plane - -> "playerType" PlaneTypes
Plane - -> "realPlayer" GameObject
Plane - -> "playerDummy" GameObject
Plane - -> "bulletAmuniton" BulletTypes
Plane - -> "rocketAmunition" RocketTypes
Plane - -> "planeSprite" Sprite
Plane - -> "turnTorque" Vector3
PrefabOrganizer +- - World
@enduml

PlantUML version 1.2022.5(Sat Apr 30 12:55:52 CEST 2022)
(GPL source distribution)
Java Runtime: Java(TM) SE Runtime Environment
JVM: Java HotSpot(TM) 64-Bit Server VM
Default Encoding: UTF-8
Language: en
Country: GB
--></g></svg>