<?xml version="1.0" encoding="UTF-8" standalone="no"?><svg xmlns="http://www.w3.org/2000/svg" xmlns:xlink="http://www.w3.org/1999/xlink" contentStyleType="text/css" height="648px" preserveAspectRatio="none" style="width:856px;height:648px;background:#FFFFFF;" version="1.1" viewBox="0 0 856 648" width="856px" zoomAndPan="magnify"><defs/><g><!--MD5=[1da33b3c2ea23326d4eaf4bec97d29cb]
class PlayerControllerScript--><g id="elem_PlayerControllerScript"><rect codeLine="1" fill="#F1F1F1" height="417.7969" id="PlayerControllerScript" rx="2.5" ry="2.5" style="stroke:#181818;stroke-width:0.5;" width="383" x="217" y="115"/><ellipse cx="335.25" cy="131" fill="#ADD1B2" rx="11" ry="11" style="stroke:#181818;stroke-width:1.0;"/><path d="M338.0156,126.875 Q338.1719,126.6563 338.3594,126.5469 Q338.5469,126.4375 338.7656,126.4375 Q339.1406,126.4375 339.375,126.7031 Q339.6094,126.9531 339.6094,127.5625 L339.6094,129.0156 Q339.6094,129.625 339.375,129.8906 Q339.1406,130.1563 338.7656,130.1563 Q338.4219,130.1563 338.2188,129.9531 Q338.0156,129.7656 337.9063,129.25 Q337.8594,128.8906 337.6719,128.7031 Q337.3438,128.3281 336.7344,128.1094 Q336.125,127.8906 335.5,127.8906 Q334.7344,127.8906 334.0938,128.2188 Q333.4688,128.5469 332.9688,129.2969 Q332.4844,130.0469 332.4844,131.0781 L332.4844,132.1719 Q332.4844,133.4063 333.375,134.2344 Q334.2656,135.0469 335.8594,135.0469 Q336.7969,135.0469 337.4531,134.7969 Q337.8438,134.6406 338.2656,134.2031 Q338.5313,133.9375 338.6719,133.8594 Q338.8281,133.7813 339.0313,133.7813 Q339.3594,133.7813 339.6094,134.0469 Q339.875,134.2969 339.875,134.6406 Q339.875,134.9844 339.5313,135.3906 Q339.0313,135.9688 338.2344,136.2969 Q337.1563,136.75 335.8594,136.75 Q334.3438,136.75 333.1406,136.125 Q332.1563,135.625 331.4688,134.5625 Q330.7813,133.4844 330.7813,132.2031 L330.7813,131.0469 Q330.7813,129.7188 331.3906,128.5781 Q332.0156,127.4219 333.1094,126.8125 Q334.2031,126.1875 335.4375,126.1875 Q336.1719,126.1875 336.8125,126.3594 Q337.4688,126.5156 338.0156,126.875 Z " fill="#000000"/><text fill="#000000" font-family="sans-serif" font-size="14" lengthAdjust="spacing" textLength="138" x="355.75" y="136.7285">PlayerControllerScript</text><line style="stroke:#181818;stroke-width:0.5;" x1="218" x2="599" y1="147" y2="147"/><ellipse cx="228" cy="158" fill="none" rx="3" ry="3" style="stroke:#038048;stroke-width:1.0;"/><text fill="#000000" font-family="sans-serif" font-size="14" lengthAdjust="spacing" textLength="93" x="237" y="165.5332">isOwned : bool</text><rect fill="none" height="6" style="stroke:#C82930;stroke-width:1.0;" width="6" x="225" y="172.6094"/><text fill="#000000" font-family="sans-serif" font-size="14" lengthAdjust="spacing" textLength="91" x="237" y="183.1426">xRot : float = 0</text><rect fill="none" height="6" style="stroke:#C82930;stroke-width:1.0;" width="6" x="225" y="190.2188"/><text fill="#000000" font-family="sans-serif" font-size="14" lengthAdjust="spacing" textLength="155" x="237" y="200.752">currentBulletDelay : float</text><rect fill="none" height="6" style="stroke:#C82930;stroke-width:1.0;" width="6" x="225" y="207.8281"/><text fill="#000000" font-family="sans-serif" font-size="14" lengthAdjust="spacing" textLength="82" x="237" y="218.3613">crouch : bool</text><rect fill="none" height="6" style="stroke:#C82930;stroke-width:1.0;" width="6" x="225" y="225.4375"/><text fill="#000000" font-family="sans-serif" font-size="14" lengthAdjust="spacing" textLength="93" x="237" y="235.9707">shooting : bool</text><rect fill="none" height="6" style="stroke:#C82930;stroke-width:1.0;" width="6" x="225" y="243.0469"/><text fill="#000000" font-family="sans-serif" font-size="14" lengthAdjust="spacing" textLength="109" x="237" y="253.5801">bulletDelay : float</text><rect fill="none" height="6" style="stroke:#C82930;stroke-width:1.0;" width="6" x="225" y="260.6563"/><text fill="#000000" font-family="sans-serif" font-size="14" lengthAdjust="spacing" textLength="78" x="237" y="271.1895">speed : float</text><rect fill="none" height="6" style="stroke:#C82930;stroke-width:1.0;" width="6" x="225" y="278.2656"/><text fill="#000000" font-family="sans-serif" font-size="14" lengthAdjust="spacing" textLength="100" x="237" y="288.7988">sensitivity : float</text><line style="stroke:#181818;stroke-width:0.5;" x1="218" x2="599" y1="295.875" y2="295.875"/><rect fill="#F24D5C" height="6" style="stroke:#C82930;stroke-width:1.0;" width="6" x="225" y="303.875"/><text fill="#000000" font-family="sans-serif" font-size="14" lengthAdjust="spacing" textLength="78" x="237" y="314.4082">Start() : void</text><rect fill="#F24D5C" height="6" style="stroke:#C82930;stroke-width:1.0;" width="6" x="225" y="321.4844"/><text fill="#000000" font-family="sans-serif" font-size="14" lengthAdjust="spacing" textLength="93" x="237" y="332.0176">Update() : void</text><rect fill="#F24D5C" height="6" style="stroke:#C82930;stroke-width:1.0;" width="6" x="225" y="339.0938"/><text fill="#000000" font-family="sans-serif" font-size="14" lengthAdjust="spacing" textLength="132" x="237" y="349.627">updatePlayer() : void</text><rect fill="#F24D5C" height="6" style="stroke:#C82930;stroke-width:1.0;" width="6" x="225" y="356.7031"/><text fill="#000000" font-family="sans-serif" font-size="14" lengthAdjust="spacing" textLength="240" x="237" y="367.2363">movePlayer(moveInput:Vector3) : void</text><rect fill="#F24D5C" height="6" style="stroke:#C82930;stroke-width:1.0;" width="6" x="225" y="374.3125"/><text fill="#000000" font-family="sans-serif" font-size="14" lengthAdjust="spacing" textLength="282" x="237" y="384.8457">movePlayerCamera(lookInput:Vector2) : void</text><rect fill="#F24D5C" height="6" style="stroke:#C82930;stroke-width:1.0;" width="6" x="225" y="391.9219"/><text fill="#000000" font-family="sans-serif" font-size="14" lengthAdjust="spacing" textLength="78" x="237" y="402.4551">jump() : void</text><rect fill="#F24D5C" height="6" style="stroke:#C82930;stroke-width:1.0;" width="6" x="225" y="409.5313"/><text fill="#000000" font-family="sans-serif" font-size="14" lengthAdjust="spacing" textLength="83" x="237" y="420.0645">shoot() : void</text><rect fill="#F24D5C" height="6" style="stroke:#C82930;stroke-width:1.0;" width="6" x="225" y="427.1406"/><text fill="#000000" font-family="sans-serif" font-size="14" lengthAdjust="spacing" textLength="191" x="237" y="437.6738">createBullet(type:String) : void</text><rect fill="#F24D5C" height="6" style="stroke:#C82930;stroke-width:1.0;" width="6" x="225" y="444.75"/><text fill="#000000" font-family="sans-serif" font-size="14" lengthAdjust="spacing" textLength="155" x="237" y="455.2832">sneak(sneak:bool) : void</text><ellipse cx="228" cy="465.3594" fill="#84BE84" rx="3" ry="3" style="stroke:#038048;stroke-width:1.0;"/><text fill="#000000" font-family="sans-serif" font-size="14" lengthAdjust="spacing" textLength="177" x="237" y="472.8926">setName(name:string) : void</text><ellipse cx="228" cy="482.9688" fill="#84BE84" rx="3" ry="3" style="stroke:#038048;stroke-width:1.0;"/><text fill="#000000" font-family="sans-serif" font-size="14" lengthAdjust="spacing" textLength="154" x="237" y="490.502">disableNameTag() : void</text><ellipse cx="228" cy="500.5781" fill="#84BE84" rx="3" ry="3" style="stroke:#038048;stroke-width:1.0;"/><text fill="#000000" font-family="sans-serif" font-size="14" lengthAdjust="spacing" textLength="357" x="237" y="508.1113">rotateNameTowards(objectToLookAt:GameObject) : void</text><rect fill="#F24D5C" height="6" style="stroke:#C82930;stroke-width:1.0;" width="6" x="225" y="515.1875"/><text fill="#000000" font-family="sans-serif" font-size="14" lengthAdjust="spacing" textLength="116" x="237" y="525.7207">OnDestroy() : void</text></g><!--MD5=[83b3cf3d23d77c6f1e1b5291a241bc2a]
class MonoBehaviour--><g id="elem_MonoBehaviour"><rect fill="#F1F1F1" height="48" id="MonoBehaviour" rx="2.5" ry="2.5" style="stroke:#181818;stroke-width:0.5;" width="131" x="343" y="7"/><ellipse cx="358" cy="23" fill="#ADD1B2" rx="11" ry="11" style="stroke:#181818;stroke-width:1.0;"/><path d="M360.7656,18.875 Q360.9219,18.6563 361.1094,18.5469 Q361.2969,18.4375 361.5156,18.4375 Q361.8906,18.4375 362.125,18.7031 Q362.3594,18.9531 362.3594,19.5625 L362.3594,21.0156 Q362.3594,21.625 362.125,21.8906 Q361.8906,22.1563 361.5156,22.1563 Q361.1719,22.1563 360.9688,21.9531 Q360.7656,21.7656 360.6563,21.25 Q360.6094,20.8906 360.4219,20.7031 Q360.0938,20.3281 359.4844,20.1094 Q358.875,19.8906 358.25,19.8906 Q357.4844,19.8906 356.8438,20.2188 Q356.2188,20.5469 355.7188,21.2969 Q355.2344,22.0469 355.2344,23.0781 L355.2344,24.1719 Q355.2344,25.4063 356.125,26.2344 Q357.0156,27.0469 358.6094,27.0469 Q359.5469,27.0469 360.2031,26.7969 Q360.5938,26.6406 361.0156,26.2031 Q361.2813,25.9375 361.4219,25.8594 Q361.5781,25.7813 361.7813,25.7813 Q362.1094,25.7813 362.3594,26.0469 Q362.625,26.2969 362.625,26.6406 Q362.625,26.9844 362.2813,27.3906 Q361.7813,27.9688 360.9844,28.2969 Q359.9063,28.75 358.6094,28.75 Q357.0938,28.75 355.8906,28.125 Q354.9063,27.625 354.2188,26.5625 Q353.5313,25.4844 353.5313,24.2031 L353.5313,23.0469 Q353.5313,21.7188 354.1406,20.5781 Q354.7656,19.4219 355.8594,18.8125 Q356.9531,18.1875 358.1875,18.1875 Q358.9219,18.1875 359.5625,18.3594 Q360.2188,18.5156 360.7656,18.875 Z " fill="#000000"/><text fill="#000000" font-family="sans-serif" font-size="14" lengthAdjust="spacing" textLength="99" x="372" y="28.7285">MonoBehaviour</text><line style="stroke:#181818;stroke-width:0.5;" x1="344" x2="473" y1="39" y2="39"/><line style="stroke:#181818;stroke-width:0.5;" x1="344" x2="473" y1="47" y2="47"/></g><!--MD5=[3f551f1273bbfa514d2f681c1c48b5c1]
class Vector2--><g id="elem_Vector2"><rect fill="#F1F1F1" height="48" id="Vector2" rx="2.5" ry="2.5" style="stroke:#181818;stroke-width:0.5;" width="81" x="635" y="300"/><ellipse cx="650" cy="316" fill="#ADD1B2" rx="11" ry="11" style="stroke:#181818;stroke-width:1.0;"/><path d="M652.7656,311.875 Q652.9219,311.6563 653.1094,311.5469 Q653.2969,311.4375 653.5156,311.4375 Q653.8906,311.4375 654.125,311.7031 Q654.3594,311.9531 654.3594,312.5625 L654.3594,314.0156 Q654.3594,314.625 654.125,314.8906 Q653.8906,315.1563 653.5156,315.1563 Q653.1719,315.1563 652.9688,314.9531 Q652.7656,314.7656 652.6563,314.25 Q652.6094,313.8906 652.4219,313.7031 Q652.0938,313.3281 651.4844,313.1094 Q650.875,312.8906 650.25,312.8906 Q649.4844,312.8906 648.8438,313.2188 Q648.2188,313.5469 647.7188,314.2969 Q647.2344,315.0469 647.2344,316.0781 L647.2344,317.1719 Q647.2344,318.4063 648.125,319.2344 Q649.0156,320.0469 650.6094,320.0469 Q651.5469,320.0469 652.2031,319.7969 Q652.5938,319.6406 653.0156,319.2031 Q653.2813,318.9375 653.4219,318.8594 Q653.5781,318.7813 653.7813,318.7813 Q654.1094,318.7813 654.3594,319.0469 Q654.625,319.2969 654.625,319.6406 Q654.625,319.9844 654.2813,320.3906 Q653.7813,320.9688 652.9844,321.2969 Q651.9063,321.75 650.6094,321.75 Q649.0938,321.75 647.8906,321.125 Q646.9063,320.625 646.2188,319.5625 Q645.5313,318.4844 645.5313,317.2031 L645.5313,316.0469 Q645.5313,314.7188 646.1406,313.5781 Q646.7656,312.4219 647.8594,311.8125 Q648.9531,311.1875 650.1875,311.1875 Q650.9219,311.1875 651.5625,311.3594 Q652.2188,311.5156 652.7656,311.875 Z " fill="#000000"/><text fill="#000000" font-family="sans-serif" font-size="14" lengthAdjust="spacing" textLength="49" x="664" y="321.7285">Vector2</text><line style="stroke:#181818;stroke-width:0.5;" x1="636" x2="715" y1="332" y2="332"/><line style="stroke:#181818;stroke-width:0.5;" x1="636" x2="715" y1="340" y2="340"/></g><!--MD5=[65d619c042c23702cef2ca07d67b1cf6]
class Vector3--><g id="elem_Vector3"><rect fill="#F1F1F1" height="48" id="Vector3" rx="2.5" ry="2.5" style="stroke:#181818;stroke-width:0.5;" width="81" x="7" y="593"/><ellipse cx="22" cy="609" fill="#ADD1B2" rx="11" ry="11" style="stroke:#181818;stroke-width:1.0;"/><path d="M24.7656,604.875 Q24.9219,604.6563 25.1094,604.5469 Q25.2969,604.4375 25.5156,604.4375 Q25.8906,604.4375 26.125,604.7031 Q26.3594,604.9531 26.3594,605.5625 L26.3594,607.0156 Q26.3594,607.625 26.125,607.8906 Q25.8906,608.1563 25.5156,608.1563 Q25.1719,608.1563 24.9688,607.9531 Q24.7656,607.7656 24.6563,607.25 Q24.6094,606.8906 24.4219,606.7031 Q24.0938,606.3281 23.4844,606.1094 Q22.875,605.8906 22.25,605.8906 Q21.4844,605.8906 20.8438,606.2188 Q20.2188,606.5469 19.7188,607.2969 Q19.2344,608.0469 19.2344,609.0781 L19.2344,610.1719 Q19.2344,611.4063 20.125,612.2344 Q21.0156,613.0469 22.6094,613.0469 Q23.5469,613.0469 24.2031,612.7969 Q24.5938,612.6406 25.0156,612.2031 Q25.2813,611.9375 25.4219,611.8594 Q25.5781,611.7813 25.7813,611.7813 Q26.1094,611.7813 26.3594,612.0469 Q26.625,612.2969 26.625,612.6406 Q26.625,612.9844 26.2813,613.3906 Q25.7813,613.9688 24.9844,614.2969 Q23.9063,614.75 22.6094,614.75 Q21.0938,614.75 19.8906,614.125 Q18.9063,613.625 18.2188,612.5625 Q17.5313,611.4844 17.5313,610.2031 L17.5313,609.0469 Q17.5313,607.7188 18.1406,606.5781 Q18.7656,605.4219 19.8594,604.8125 Q20.9531,604.1875 22.1875,604.1875 Q22.9219,604.1875 23.5625,604.3594 Q24.2188,604.5156 24.7656,604.875 Z " fill="#000000"/><text fill="#000000" font-family="sans-serif" font-size="14" lengthAdjust="spacing" textLength="49" x="36" y="614.7285">Vector3</text><line style="stroke:#181818;stroke-width:0.5;" x1="8" x2="87" y1="625" y2="625"/><line style="stroke:#181818;stroke-width:0.5;" x1="8" x2="87" y1="633" y2="633"/></g><!--MD5=[5473ea8fde70e8f06f148b95a95d0bfa]
class Controls--><g id="elem_Controls"><rect fill="#F1F1F1" height="48" id="Controls" rx="2.5" ry="2.5" style="stroke:#181818;stroke-width:0.5;" width="85" x="123" y="593"/><ellipse cx="138" cy="609" fill="#ADD1B2" rx="11" ry="11" style="stroke:#181818;stroke-width:1.0;"/><path d="M140.7656,604.875 Q140.9219,604.6563 141.1094,604.5469 Q141.2969,604.4375 141.5156,604.4375 Q141.8906,604.4375 142.125,604.7031 Q142.3594,604.9531 142.3594,605.5625 L142.3594,607.0156 Q142.3594,607.625 142.125,607.8906 Q141.8906,608.1563 141.5156,608.1563 Q141.1719,608.1563 140.9688,607.9531 Q140.7656,607.7656 140.6563,607.25 Q140.6094,606.8906 140.4219,606.7031 Q140.0938,606.3281 139.4844,606.1094 Q138.875,605.8906 138.25,605.8906 Q137.4844,605.8906 136.8438,606.2188 Q136.2188,606.5469 135.7188,607.2969 Q135.2344,608.0469 135.2344,609.0781 L135.2344,610.1719 Q135.2344,611.4063 136.125,612.2344 Q137.0156,613.0469 138.6094,613.0469 Q139.5469,613.0469 140.2031,612.7969 Q140.5938,612.6406 141.0156,612.2031 Q141.2813,611.9375 141.4219,611.8594 Q141.5781,611.7813 141.7813,611.7813 Q142.1094,611.7813 142.3594,612.0469 Q142.625,612.2969 142.625,612.6406 Q142.625,612.9844 142.2813,613.3906 Q141.7813,613.9688 140.9844,614.2969 Q139.9063,614.75 138.6094,614.75 Q137.0938,614.75 135.8906,614.125 Q134.9063,613.625 134.2188,612.5625 Q133.5313,611.4844 133.5313,610.2031 L133.5313,609.0469 Q133.5313,607.7188 134.1406,606.5781 Q134.7656,605.4219 135.8594,604.8125 Q136.9531,604.1875 138.1875,604.1875 Q138.9219,604.1875 139.5625,604.3594 Q140.2188,604.5156 140.7656,604.875 Z " fill="#000000"/><text fill="#000000" font-family="sans-serif" font-size="14" lengthAdjust="spacing" textLength="53" x="152" y="614.7285">Controls</text><line style="stroke:#181818;stroke-width:0.5;" x1="124" x2="207" y1="625" y2="625"/><line style="stroke:#181818;stroke-width:0.5;" x1="124" x2="207" y1="633" y2="633"/></g><!--MD5=[452be1aaf8b94e2bc4204d466ef769a4]
class Camera--><g id="elem_Camera"><rect fill="#F1F1F1" height="48" id="Camera" rx="2.5" ry="2.5" style="stroke:#181818;stroke-width:0.5;" width="82" x="243.5" y="593"/><ellipse cx="258.5" cy="609" fill="#ADD1B2" rx="11" ry="11" style="stroke:#181818;stroke-width:1.0;"/><path d="M261.2656,604.875 Q261.4219,604.6563 261.6094,604.5469 Q261.7969,604.4375 262.0156,604.4375 Q262.3906,604.4375 262.625,604.7031 Q262.8594,604.9531 262.8594,605.5625 L262.8594,607.0156 Q262.8594,607.625 262.625,607.8906 Q262.3906,608.1563 262.0156,608.1563 Q261.6719,608.1563 261.4688,607.9531 Q261.2656,607.7656 261.1563,607.25 Q261.1094,606.8906 260.9219,606.7031 Q260.5938,606.3281 259.9844,606.1094 Q259.375,605.8906 258.75,605.8906 Q257.9844,605.8906 257.3438,606.2188 Q256.7188,606.5469 256.2188,607.2969 Q255.7344,608.0469 255.7344,609.0781 L255.7344,610.1719 Q255.7344,611.4063 256.625,612.2344 Q257.5156,613.0469 259.1094,613.0469 Q260.0469,613.0469 260.7031,612.7969 Q261.0938,612.6406 261.5156,612.2031 Q261.7813,611.9375 261.9219,611.8594 Q262.0781,611.7813 262.2813,611.7813 Q262.6094,611.7813 262.8594,612.0469 Q263.125,612.2969 263.125,612.6406 Q263.125,612.9844 262.7813,613.3906 Q262.2813,613.9688 261.4844,614.2969 Q260.4063,614.75 259.1094,614.75 Q257.5938,614.75 256.3906,614.125 Q255.4063,613.625 254.7188,612.5625 Q254.0313,611.4844 254.0313,610.2031 L254.0313,609.0469 Q254.0313,607.7188 254.6406,606.5781 Q255.2656,605.4219 256.3594,604.8125 Q257.4531,604.1875 258.6875,604.1875 Q259.4219,604.1875 260.0625,604.3594 Q260.7188,604.5156 261.2656,604.875 Z " fill="#000000"/><text fill="#000000" font-family="sans-serif" font-size="14" lengthAdjust="spacing" textLength="50" x="272.5" y="614.7285">Camera</text><line style="stroke:#181818;stroke-width:0.5;" x1="244.5" x2="324.5" y1="625" y2="625"/><line style="stroke:#181818;stroke-width:0.5;" x1="244.5" x2="324.5" y1="633" y2="633"/></g><!--MD5=[24ec51728e56f64a3c7112f6f5948d1e]
class Rigidbody--><g id="elem_Rigidbody"><rect fill="#F1F1F1" height="48" id="Rigidbody" rx="2.5" ry="2.5" style="stroke:#181818;stroke-width:0.5;" width="95" x="361" y="593"/><ellipse cx="376" cy="609" fill="#ADD1B2" rx="11" ry="11" style="stroke:#181818;stroke-width:1.0;"/><path d="M378.7656,604.875 Q378.9219,604.6563 379.1094,604.5469 Q379.2969,604.4375 379.5156,604.4375 Q379.8906,604.4375 380.125,604.7031 Q380.3594,604.9531 380.3594,605.5625 L380.3594,607.0156 Q380.3594,607.625 380.125,607.8906 Q379.8906,608.1563 379.5156,608.1563 Q379.1719,608.1563 378.9688,607.9531 Q378.7656,607.7656 378.6563,607.25 Q378.6094,606.8906 378.4219,606.7031 Q378.0938,606.3281 377.4844,606.1094 Q376.875,605.8906 376.25,605.8906 Q375.4844,605.8906 374.8438,606.2188 Q374.2188,606.5469 373.7188,607.2969 Q373.2344,608.0469 373.2344,609.0781 L373.2344,610.1719 Q373.2344,611.4063 374.125,612.2344 Q375.0156,613.0469 376.6094,613.0469 Q377.5469,613.0469 378.2031,612.7969 Q378.5938,612.6406 379.0156,612.2031 Q379.2813,611.9375 379.4219,611.8594 Q379.5781,611.7813 379.7813,611.7813 Q380.1094,611.7813 380.3594,612.0469 Q380.625,612.2969 380.625,612.6406 Q380.625,612.9844 380.2813,613.3906 Q379.7813,613.9688 378.9844,614.2969 Q377.9063,614.75 376.6094,614.75 Q375.0938,614.75 373.8906,614.125 Q372.9063,613.625 372.2188,612.5625 Q371.5313,611.4844 371.5313,610.2031 L371.5313,609.0469 Q371.5313,607.7188 372.1406,606.5781 Q372.7656,605.4219 373.8594,604.8125 Q374.9531,604.1875 376.1875,604.1875 Q376.9219,604.1875 377.5625,604.3594 Q378.2188,604.5156 378.7656,604.875 Z " fill="#000000"/><text fill="#000000" font-family="sans-serif" font-size="14" lengthAdjust="spacing" textLength="63" x="390" y="614.7285">Rigidbody</text><line style="stroke:#181818;stroke-width:0.5;" x1="362" x2="455" y1="625" y2="625"/><line style="stroke:#181818;stroke-width:0.5;" x1="362" x2="455" y1="633" y2="633"/></g><!--MD5=[fa07864ef55e7d1943fa981e1ee9b4e7]
class TMP_Text--><g id="elem_TMP_Text"><rect fill="#F1F1F1" height="48" id="TMP_Text" rx="2.5" ry="2.5" style="stroke:#181818;stroke-width:0.5;" width="96" x="491.5" y="593"/><ellipse cx="506.5" cy="609" fill="#ADD1B2" rx="11" ry="11" style="stroke:#181818;stroke-width:1.0;"/><path d="M509.2656,604.875 Q509.4219,604.6563 509.6094,604.5469 Q509.7969,604.4375 510.0156,604.4375 Q510.3906,604.4375 510.625,604.7031 Q510.8594,604.9531 510.8594,605.5625 L510.8594,607.0156 Q510.8594,607.625 510.625,607.8906 Q510.3906,608.1563 510.0156,608.1563 Q509.6719,608.1563 509.4688,607.9531 Q509.2656,607.7656 509.1563,607.25 Q509.1094,606.8906 508.9219,606.7031 Q508.5938,606.3281 507.9844,606.1094 Q507.375,605.8906 506.75,605.8906 Q505.9844,605.8906 505.3438,606.2188 Q504.7188,606.5469 504.2188,607.2969 Q503.7344,608.0469 503.7344,609.0781 L503.7344,610.1719 Q503.7344,611.4063 504.625,612.2344 Q505.5156,613.0469 507.1094,613.0469 Q508.0469,613.0469 508.7031,612.7969 Q509.0938,612.6406 509.5156,612.2031 Q509.7813,611.9375 509.9219,611.8594 Q510.0781,611.7813 510.2813,611.7813 Q510.6094,611.7813 510.8594,612.0469 Q511.125,612.2969 511.125,612.6406 Q511.125,612.9844 510.7813,613.3906 Q510.2813,613.9688 509.4844,614.2969 Q508.4063,614.75 507.1094,614.75 Q505.5938,614.75 504.3906,614.125 Q503.4063,613.625 502.7188,612.5625 Q502.0313,611.4844 502.0313,610.2031 L502.0313,609.0469 Q502.0313,607.7188 502.6406,606.5781 Q503.2656,605.4219 504.3594,604.8125 Q505.4531,604.1875 506.6875,604.1875 Q507.4219,604.1875 508.0625,604.3594 Q508.7188,604.5156 509.2656,604.875 Z " fill="#000000"/><text fill="#000000" font-family="sans-serif" font-size="14" lengthAdjust="spacing" textLength="64" x="520.5" y="614.7285">TMP_Text</text><line style="stroke:#181818;stroke-width:0.5;" x1="492.5" x2="586.5" y1="625" y2="625"/><line style="stroke:#181818;stroke-width:0.5;" x1="492.5" x2="586.5" y1="633" y2="633"/></g><!--MD5=[5edf34eb39d3b3dfde6419c044ab889f]
class Canvas--><g id="elem_Canvas"><rect fill="#F1F1F1" height="48" id="Canvas" rx="2.5" ry="2.5" style="stroke:#181818;stroke-width:0.5;" width="80" x="622.5" y="593"/><ellipse cx="637.5" cy="609" fill="#ADD1B2" rx="11" ry="11" style="stroke:#181818;stroke-width:1.0;"/><path d="M640.2656,604.875 Q640.4219,604.6563 640.6094,604.5469 Q640.7969,604.4375 641.0156,604.4375 Q641.3906,604.4375 641.625,604.7031 Q641.8594,604.9531 641.8594,605.5625 L641.8594,607.0156 Q641.8594,607.625 641.625,607.8906 Q641.3906,608.1563 641.0156,608.1563 Q640.6719,608.1563 640.4688,607.9531 Q640.2656,607.7656 640.1563,607.25 Q640.1094,606.8906 639.9219,606.7031 Q639.5938,606.3281 638.9844,606.1094 Q638.375,605.8906 637.75,605.8906 Q636.9844,605.8906 636.3438,606.2188 Q635.7188,606.5469 635.2188,607.2969 Q634.7344,608.0469 634.7344,609.0781 L634.7344,610.1719 Q634.7344,611.4063 635.625,612.2344 Q636.5156,613.0469 638.1094,613.0469 Q639.0469,613.0469 639.7031,612.7969 Q640.0938,612.6406 640.5156,612.2031 Q640.7813,611.9375 640.9219,611.8594 Q641.0781,611.7813 641.2813,611.7813 Q641.6094,611.7813 641.8594,612.0469 Q642.125,612.2969 642.125,612.6406 Q642.125,612.9844 641.7813,613.3906 Q641.2813,613.9688 640.4844,614.2969 Q639.4063,614.75 638.1094,614.75 Q636.5938,614.75 635.3906,614.125 Q634.4063,613.625 633.7188,612.5625 Q633.0313,611.4844 633.0313,610.2031 L633.0313,609.0469 Q633.0313,607.7188 633.6406,606.5781 Q634.2656,605.4219 635.3594,604.8125 Q636.4531,604.1875 637.6875,604.1875 Q638.4219,604.1875 639.0625,604.3594 Q639.7188,604.5156 640.2656,604.875 Z " fill="#000000"/><text fill="#000000" font-family="sans-serif" font-size="14" lengthAdjust="spacing" textLength="48" x="651.5" y="614.7285">Canvas</text><line style="stroke:#181818;stroke-width:0.5;" x1="623.5" x2="701.5" y1="625" y2="625"/><line style="stroke:#181818;stroke-width:0.5;" x1="623.5" x2="701.5" y1="633" y2="633"/></g><!--MD5=[064f7a74fee85463ec1a30143664ee17]
class GameObject--><g id="elem_GameObject"><rect fill="#F1F1F1" height="48" id="GameObject" rx="2.5" ry="2.5" style="stroke:#181818;stroke-width:0.5;" width="111" x="738" y="593"/><ellipse cx="753" cy="609" fill="#ADD1B2" rx="11" ry="11" style="stroke:#181818;stroke-width:1.0;"/><path d="M755.7656,604.875 Q755.9219,604.6563 756.1094,604.5469 Q756.2969,604.4375 756.5156,604.4375 Q756.8906,604.4375 757.125,604.7031 Q757.3594,604.9531 757.3594,605.5625 L757.3594,607.0156 Q757.3594,607.625 757.125,607.8906 Q756.8906,608.1563 756.5156,608.1563 Q756.1719,608.1563 755.9688,607.9531 Q755.7656,607.7656 755.6563,607.25 Q755.6094,606.8906 755.4219,606.7031 Q755.0938,606.3281 754.4844,606.1094 Q753.875,605.8906 753.25,605.8906 Q752.4844,605.8906 751.8438,606.2188 Q751.2188,606.5469 750.7188,607.2969 Q750.2344,608.0469 750.2344,609.0781 L750.2344,610.1719 Q750.2344,611.4063 751.125,612.2344 Q752.0156,613.0469 753.6094,613.0469 Q754.5469,613.0469 755.2031,612.7969 Q755.5938,612.6406 756.0156,612.2031 Q756.2813,611.9375 756.4219,611.8594 Q756.5781,611.7813 756.7813,611.7813 Q757.1094,611.7813 757.3594,612.0469 Q757.625,612.2969 757.625,612.6406 Q757.625,612.9844 757.2813,613.3906 Q756.7813,613.9688 755.9844,614.2969 Q754.9063,614.75 753.6094,614.75 Q752.0938,614.75 750.8906,614.125 Q749.9063,613.625 749.2188,612.5625 Q748.5313,611.4844 748.5313,610.2031 L748.5313,609.0469 Q748.5313,607.7188 749.1406,606.5781 Q749.7656,605.4219 750.8594,604.8125 Q751.9531,604.1875 753.1875,604.1875 Q753.9219,604.1875 754.5625,604.3594 Q755.2188,604.5156 755.7656,604.875 Z " fill="#000000"/><text fill="#000000" font-family="sans-serif" font-size="14" lengthAdjust="spacing" textLength="79" x="767" y="614.7285">GameObject</text><line style="stroke:#181818;stroke-width:0.5;" x1="739" x2="848" y1="625" y2="625"/><line style="stroke:#181818;stroke-width:0.5;" x1="739" x2="848" y1="633" y2="633"/></g><!--MD5=[0e798937ff3f413762c430bb29948aed]
reverse link MonoBehaviour to PlayerControllerScript--><g id="link_MonoBehaviour_PlayerControllerScript"><path codeLine="24" d="M408.5,75.35 C408.5,87 408.5,100.41 408.5,114.84 " fill="none" id="MonoBehaviour-backto-PlayerControllerScript" style="stroke:#181818;stroke-width:1.0;"/><polygon fill="none" points="401.5,75.32,408.5,55.32,415.5,75.32,401.5,75.32" style="stroke:#181818;stroke-width:1.0;"/></g><!--MD5=[dc613f91ad659fd6f023322510853871]
link PlayerControllerScript to Vector2--><g id="link_PlayerControllerScript_Vector2"><path codeLine="25" d="M600.15,451.01 C620.97,429.72 641.79,396.98 662.61,352.81 " fill="none" id="PlayerControllerScript-to-Vector2" style="stroke:#181818;stroke-width:1.0;"/><polygon fill="#181818" points="664.76,348.21,657.3193,354.6626,662.6386,352.7376,664.5635,358.0569,664.76,348.21" style="stroke:#181818;stroke-width:1.0;"/><text fill="#000000" font-family="sans-serif" font-size="13" lengthAdjust="spacing" textLength="52" x="603.8046" y="369.5992">lookInput</text></g><!--MD5=[dc613f91ad659fd6f023322510853871]
link PlayerControllerScript to Vector2--><g id="link_PlayerControllerScript_Vector2"><path codeLine="27" d="M608.2168,205.8741 C608.2168,205.8741 642.39,253.43 659.09,287.84 " fill="none" id="PlayerControllerScript-Vector2" style="stroke:#181818;stroke-width:1.0;"/><polygon fill="#181818" points="664.76,299.79,664.516,289.9442,662.6167,295.2727,657.2882,293.3734,664.76,299.79" style="stroke:#181818;stroke-width:1.0;"/><line style="stroke:#181818;stroke-width:1.0;" x1="662.6167" x2="659.19" y1="295.2727" y2="288.04"/><polygon fill="none" points="600.15,196.99,601.2221,204.121,608.2168,205.8741,607.1448,198.7431,600.15,196.99" style="stroke:#181818;stroke-width:1.0;"/><text fill="#000000" font-family="sans-serif" font-size="13" lengthAdjust="spacing" textLength="122" x="677.6391" y="289.0763">defaultPositionRange</text></g><!--MD5=[c7c5edfd3e41638cf69c55942d4d4668]
link PlayerControllerScript to Vector3--><g id="link_PlayerControllerScript_Vector3"><path codeLine="26" d="M216.9,479.45 C164.09,522.02 112.55,563.56 80.46,589.43 " fill="none" id="PlayerControllerScript-to-Vector3" style="stroke:#181818;stroke-width:1.0;"/><polygon fill="#181818" points="76.25,592.82,85.7732,590.3085,80.1502,589.6913,80.7673,584.0682,76.25,592.82" style="stroke:#181818;stroke-width:1.0;"/><text fill="#000000" font-family="sans-serif" font-size="13" lengthAdjust="spacing" textLength="58" x="18.1859" y="582.114">moveInput</text></g><!--MD5=[ea8f432c464fbf8a3c33316cbccb3312]
link PlayerControllerScript to Controls--><g id="link_PlayerControllerScript_Controls"><path codeLine="28" d="M234.81,533 C216.66,554.74 200.42,574.18 188.24,588.77 " fill="none" id="PlayerControllerScript-to-Controls" style="stroke:#181818;stroke-width:1.0;"/><polygon fill="#181818" points="184.91,592.76,193.743,588.4035,188.1095,588.9177,187.5953,583.2843,184.91,592.76" style="stroke:#181818;stroke-width:1.0;"/><text fill="#000000" font-family="sans-serif" font-size="13" lengthAdjust="spacing" textLength="46" x="137.9901" y="582.0387">controls</text></g><!--MD5=[02dd01ad41d87c798beb4ce7258ce9ef]
link PlayerControllerScript to Camera--><g id="link_PlayerControllerScript_Camera"><path codeLine="29" d="M319.87,533 C310.76,554.37 302.6,573.51 296.42,588.02 " fill="none" id="PlayerControllerScript-to-Camera" style="stroke:#181818;stroke-width:1.0;"/><polygon fill="#181818" points="294.4,592.76,301.6042,586.0444,296.3575,588.1591,294.2428,582.9124,294.4,592.76" style="stroke:#181818;stroke-width:1.0;"/><text fill="#000000" font-family="sans-serif" font-size="13" lengthAdjust="spacing" textLength="80" x="209.3207" y="582.1617">playerCamera</text></g><!--MD5=[48f8f2e388d66a6047ecffe4ce54a444]
link PlayerControllerScript to Rigidbody--><g id="link_PlayerControllerScript_Rigidbody"><path codeLine="30" d="M408.5,533 C408.5,554.18 408.5,573.18 408.5,587.64 " fill="none" id="PlayerControllerScript-to-Rigidbody" style="stroke:#181818;stroke-width:1.0;"/><polygon fill="#181818" points="408.5,592.76,412.5,583.76,408.5,587.76,404.5,583.76,408.5,592.76" style="stroke:#181818;stroke-width:1.0;"/><text fill="#000000" font-family="sans-serif" font-size="13" lengthAdjust="spacing" textLength="65" x="335.1719" y="582.0387">playerBody</text></g><!--MD5=[6d092a50fb11666decdb8f823ff813dc]
link PlayerControllerScript to TMP_Text--><g id="link_PlayerControllerScript_TMP_Text"><path codeLine="31" d="M502.14,533 C511.75,554.37 520.37,573.51 526.9,588.02 " fill="none" id="PlayerControllerScript-to-TMP_Text" style="stroke:#181818;stroke-width:1.0;"/><polygon fill="#181818" points="529.04,592.76,528.9829,582.9113,526.9828,588.2028,521.6913,586.2028,529.04,592.76" style="stroke:#181818;stroke-width:1.0;"/><text fill="#000000" font-family="sans-serif" font-size="13" lengthAdjust="spacing" textLength="75" x="459.7853" y="582.188">nameDisplay</text></g><!--MD5=[34b6afdc8df3858afb58d12513ec8efa]
link PlayerControllerScript to Canvas--><g id="link_PlayerControllerScript_Canvas"><path codeLine="32" d="M590.05,533 C609.03,554.74 626,574.18 638.73,588.77 " fill="none" id="PlayerControllerScript-to-Canvas" style="stroke:#181818;stroke-width:1.0;"/><polygon fill="#181818" points="642.21,592.76,639.2963,583.352,638.9185,588.9962,633.2743,588.6184,642.21,592.76" style="stroke:#181818;stroke-width:1.0;"/><text fill="#000000" font-family="sans-serif" font-size="13" lengthAdjust="spacing" textLength="95" x="561.3576" y="582.0387">nameTagCanvas</text></g><!--MD5=[ad8d0b00b453149781934f56a7f6cf06]
link PlayerControllerScript to GameObject--><g id="link_PlayerControllerScript_GameObject"><path codeLine="33" d="M600.28,520.4 C605.99,524.75 611.74,528.96 617.5,533 C653.23,558.07 697.72,578.98 733.03,593.53 " fill="none" id="PlayerControllerScript-to-GameObject" style="stroke:#181818;stroke-width:1.0;"/><polygon fill="#181818" points="737.73,595.46,730.9232,588.3419,733.1045,593.5613,727.8852,595.7427,737.73,595.46" style="stroke:#181818;stroke-width:1.0;"/><text fill="#000000" font-family="sans-serif" font-size="13" lengthAdjust="spacing" textLength="61" x="693.2242" y="582.1271">pointBlank</text></g><!--MD5=[30dfb83c4dbb62213d61c10514e0d70f]
@startuml
class PlayerControllerScript {
    + isOwned : bool
    - xRot : float = 0
    - currentBulletDelay : float
    - crouch : bool
    - shooting : bool
    - bulletDelay : float
    - speed : float
    - sensitivity : float
    - Start() : void
    - Update() : void
    - updatePlayer() : void
    - movePlayer(moveInput:Vector3) : void
    - movePlayerCamera(lookInput:Vector2) : void
    - jump() : void
    - shoot() : void
    - createBullet(type:String) : void
    - sneak(sneak:bool) : void
    + setName(name:string) : void
    + disableNameTag() : void
    + rotateNameTowards(objectToLookAt:GameObject) : void
    - OnDestroy() : void
}
MonoBehaviour <|- - PlayerControllerScript
PlayerControllerScript - -> "lookInput" Vector2
PlayerControllerScript - -> "moveInput" Vector3
PlayerControllerScript o-> "defaultPositionRange" Vector2
PlayerControllerScript - -> "controls" Controls
PlayerControllerScript - -> "playerCamera" Camera
PlayerControllerScript - -> "playerBody" Rigidbody
PlayerControllerScript - -> "nameDisplay" TMP_Text
PlayerControllerScript - -> "nameTagCanvas" Canvas
PlayerControllerScript - -> "pointBlank" GameObject
@enduml

PlantUML version 1.2022.5(Sat Apr 30 12:55:52 CEST 2022)
(GPL source distribution)
Java Runtime: Java(TM) SE Runtime Environment
JVM: Java HotSpot(TM) 64-Bit Server VM
Default Encoding: UTF-8
Language: en
Country: GB
--></g></svg>