<?xml version="1.0" encoding="UTF-8" standalone="no"?><svg xmlns="http://www.w3.org/2000/svg" xmlns:xlink="http://www.w3.org/1999/xlink" contentStyleType="text/css" height="348px" preserveAspectRatio="none" style="width:396px;height:348px;background:#FFFFFF;" version="1.1" viewBox="0 0 396 348" width="396px" zoomAndPan="magnify"><defs/><g><!--MD5=[b18054eb2ba9fea700f179215db39fac]
class ShaderPropAnimator--><g id="elem_ShaderPropAnimator"><rect codeLine="1" fill="#F1F1F1" height="118.4375" id="ShaderPropAnimator" rx="2.5" ry="2.5" style="stroke:#181818;stroke-width:0.5;" width="227" x="68.2181" y="115"/><ellipse cx="111.5681" cy="131" fill="#ADD1B2" rx="11" ry="11" style="stroke:#181818;stroke-width:1.0;"/><path d="M114.3338,126.875 Q114.49,126.6563 114.6775,126.5469 Q114.865,126.4375 115.0838,126.4375 Q115.4588,126.4375 115.6931,126.7031 Q115.9275,126.9531 115.9275,127.5625 L115.9275,129.0156 Q115.9275,129.625 115.6931,129.8906 Q115.4588,130.1563 115.0838,130.1563 Q114.74,130.1563 114.5369,129.9531 Q114.3338,129.7656 114.2244,129.25 Q114.1775,128.8906 113.99,128.7031 Q113.6619,128.3281 113.0525,128.1094 Q112.4431,127.8906 111.8181,127.8906 Q111.0525,127.8906 110.4119,128.2188 Q109.7869,128.5469 109.2869,129.2969 Q108.8025,130.0469 108.8025,131.0781 L108.8025,132.1719 Q108.8025,133.4063 109.6931,134.2344 Q110.5838,135.0469 112.1775,135.0469 Q113.115,135.0469 113.7713,134.7969 Q114.1619,134.6406 114.5838,134.2031 Q114.8494,133.9375 114.99,133.8594 Q115.1463,133.7813 115.3494,133.7813 Q115.6775,133.7813 115.9275,134.0469 Q116.1931,134.2969 116.1931,134.6406 Q116.1931,134.9844 115.8494,135.3906 Q115.3494,135.9688 114.5525,136.2969 Q113.4744,136.75 112.1775,136.75 Q110.6619,136.75 109.4588,136.125 Q108.4744,135.625 107.7869,134.5625 Q107.0994,133.4844 107.0994,132.2031 L107.0994,131.0469 Q107.0994,129.7188 107.7088,128.5781 Q108.3338,127.4219 109.4275,126.8125 Q110.5213,126.1875 111.7556,126.1875 Q112.49,126.1875 113.1306,126.3594 Q113.7869,126.5156 114.3338,126.875 Z " fill="#000000"/><text fill="#000000" font-family="sans-serif" font-size="14" lengthAdjust="spacing" textLength="132" x="131.8681" y="136.7285">ShaderPropAnimator</text><line style="stroke:#181818;stroke-width:0.5;" x1="69.2181" x2="294.2181" y1="147" y2="147"/><ellipse cx="79.2181" cy="158" fill="none" rx="3" ry="3" style="stroke:#038048;stroke-width:1.0;"/><text fill="#000000" font-family="sans-serif" font-size="14" lengthAdjust="spacing" textLength="94" x="88.2181" y="165.5332">m_frame : float</text><line style="stroke:#181818;stroke-width:0.5;" x1="69.2181" x2="294.2181" y1="172.6094" y2="172.6094"/><text fill="#000000" font-family="sans-serif" font-size="14" lengthAdjust="spacing" textLength="89" x="74.2181" y="191.1426">Awake() : void</text><text fill="#000000" font-family="sans-serif" font-size="14" lengthAdjust="spacing" textLength="78" x="74.2181" y="208.752">Start() : void</text><text fill="#000000" font-family="sans-serif" font-size="14" lengthAdjust="spacing" textLength="215" x="74.2181" y="226.3613">AnimateProperties() : IEnumerator</text></g><!--MD5=[83b3cf3d23d77c6f1e1b5291a241bc2a]
class MonoBehaviour--><g id="elem_MonoBehaviour"><rect fill="#F1F1F1" height="48" id="MonoBehaviour" rx="2.5" ry="2.5" style="stroke:#181818;stroke-width:0.5;" width="131" x="116.2181" y="7"/><ellipse cx="131.2181" cy="23" fill="#ADD1B2" rx="11" ry="11" style="stroke:#181818;stroke-width:1.0;"/><path d="M133.9838,18.875 Q134.14,18.6563 134.3275,18.5469 Q134.515,18.4375 134.7338,18.4375 Q135.1088,18.4375 135.3431,18.7031 Q135.5775,18.9531 135.5775,19.5625 L135.5775,21.0156 Q135.5775,21.625 135.3431,21.8906 Q135.1088,22.1563 134.7338,22.1563 Q134.39,22.1563 134.1869,21.9531 Q133.9838,21.7656 133.8744,21.25 Q133.8275,20.8906 133.64,20.7031 Q133.3119,20.3281 132.7025,20.1094 Q132.0931,19.8906 131.4681,19.8906 Q130.7025,19.8906 130.0619,20.2188 Q129.4369,20.5469 128.9369,21.2969 Q128.4525,22.0469 128.4525,23.0781 L128.4525,24.1719 Q128.4525,25.4063 129.3431,26.2344 Q130.2338,27.0469 131.8275,27.0469 Q132.765,27.0469 133.4213,26.7969 Q133.8119,26.6406 134.2338,26.2031 Q134.4994,25.9375 134.64,25.8594 Q134.7963,25.7813 134.9994,25.7813 Q135.3275,25.7813 135.5775,26.0469 Q135.8431,26.2969 135.8431,26.6406 Q135.8431,26.9844 135.4994,27.3906 Q134.9994,27.9688 134.2025,28.2969 Q133.1244,28.75 131.8275,28.75 Q130.3119,28.75 129.1088,28.125 Q128.1244,27.625 127.4369,26.5625 Q126.7494,25.4844 126.7494,24.2031 L126.7494,23.0469 Q126.7494,21.7188 127.3587,20.5781 Q127.9837,19.4219 129.0775,18.8125 Q130.1713,18.1875 131.4056,18.1875 Q132.14,18.1875 132.7806,18.3594 Q133.4369,18.5156 133.9838,18.875 Z " fill="#000000"/><text fill="#000000" font-family="sans-serif" font-size="14" lengthAdjust="spacing" textLength="99" x="145.2181" y="28.7285">MonoBehaviour</text><line style="stroke:#181818;stroke-width:0.5;" x1="117.2181" x2="246.2181" y1="39" y2="39"/><line style="stroke:#181818;stroke-width:0.5;" x1="117.2181" x2="246.2181" y1="47" y2="47"/></g><!--MD5=[4945c737fad898a5ce312252f730d528]
class Renderer--><g id="elem_Renderer"><rect fill="#F1F1F1" height="48" id="Renderer" rx="2.5" ry="2.5" style="stroke:#181818;stroke-width:0.5;" width="92" x="13.7181" y="293"/><ellipse cx="28.7181" cy="309" fill="#ADD1B2" rx="11" ry="11" style="stroke:#181818;stroke-width:1.0;"/><path d="M31.4838,304.875 Q31.64,304.6563 31.8275,304.5469 Q32.015,304.4375 32.2338,304.4375 Q32.6088,304.4375 32.8431,304.7031 Q33.0775,304.9531 33.0775,305.5625 L33.0775,307.0156 Q33.0775,307.625 32.8431,307.8906 Q32.6088,308.1563 32.2338,308.1563 Q31.89,308.1563 31.6869,307.9531 Q31.4838,307.7656 31.3744,307.25 Q31.3275,306.8906 31.14,306.7031 Q30.8119,306.3281 30.2025,306.1094 Q29.5931,305.8906 28.9681,305.8906 Q28.2025,305.8906 27.5619,306.2188 Q26.9369,306.5469 26.4369,307.2969 Q25.9525,308.0469 25.9525,309.0781 L25.9525,310.1719 Q25.9525,311.4063 26.8431,312.2344 Q27.7338,313.0469 29.3275,313.0469 Q30.265,313.0469 30.9213,312.7969 Q31.3119,312.6406 31.7338,312.2031 Q31.9994,311.9375 32.14,311.8594 Q32.2963,311.7813 32.4994,311.7813 Q32.8275,311.7813 33.0775,312.0469 Q33.3431,312.2969 33.3431,312.6406 Q33.3431,312.9844 32.9994,313.3906 Q32.4994,313.9688 31.7025,314.2969 Q30.6244,314.75 29.3275,314.75 Q27.8119,314.75 26.6088,314.125 Q25.6244,313.625 24.9369,312.5625 Q24.2494,311.4844 24.2494,310.2031 L24.2494,309.0469 Q24.2494,307.7188 24.8588,306.5781 Q25.4838,305.4219 26.5775,304.8125 Q27.6713,304.1875 28.9056,304.1875 Q29.64,304.1875 30.2806,304.3594 Q30.9369,304.5156 31.4838,304.875 Z " fill="#000000"/><text fill="#000000" font-family="sans-serif" font-size="14" lengthAdjust="spacing" textLength="60" x="42.7181" y="314.7285">Renderer</text><line style="stroke:#181818;stroke-width:0.5;" x1="14.7181" x2="104.7181" y1="325" y2="325"/><line style="stroke:#181818;stroke-width:0.5;" x1="14.7181" x2="104.7181" y1="333" y2="333"/></g><!--MD5=[90d32ccc189f11441a6ce7cbb63ad387]
class Material--><g id="elem_Material"><rect fill="#F1F1F1" height="48" id="Material" rx="2.5" ry="2.5" style="stroke:#181818;stroke-width:0.5;" width="82" x="140.7181" y="293"/><ellipse cx="155.7181" cy="309" fill="#ADD1B2" rx="11" ry="11" style="stroke:#181818;stroke-width:1.0;"/><path d="M158.4838,304.875 Q158.64,304.6563 158.8275,304.5469 Q159.015,304.4375 159.2338,304.4375 Q159.6088,304.4375 159.8431,304.7031 Q160.0775,304.9531 160.0775,305.5625 L160.0775,307.0156 Q160.0775,307.625 159.8431,307.8906 Q159.6088,308.1563 159.2338,308.1563 Q158.89,308.1563 158.6869,307.9531 Q158.4838,307.7656 158.3744,307.25 Q158.3275,306.8906 158.14,306.7031 Q157.8119,306.3281 157.2025,306.1094 Q156.5931,305.8906 155.9681,305.8906 Q155.2025,305.8906 154.5619,306.2188 Q153.9369,306.5469 153.4369,307.2969 Q152.9525,308.0469 152.9525,309.0781 L152.9525,310.1719 Q152.9525,311.4063 153.8431,312.2344 Q154.7338,313.0469 156.3275,313.0469 Q157.265,313.0469 157.9213,312.7969 Q158.3119,312.6406 158.7338,312.2031 Q158.9994,311.9375 159.14,311.8594 Q159.2963,311.7813 159.4994,311.7813 Q159.8275,311.7813 160.0775,312.0469 Q160.3431,312.2969 160.3431,312.6406 Q160.3431,312.9844 159.9994,313.3906 Q159.4994,313.9688 158.7025,314.2969 Q157.6244,314.75 156.3275,314.75 Q154.8119,314.75 153.6088,314.125 Q152.6244,313.625 151.9369,312.5625 Q151.2494,311.4844 151.2494,310.2031 L151.2494,309.0469 Q151.2494,307.7188 151.8588,306.5781 Q152.4838,305.4219 153.5775,304.8125 Q154.6713,304.1875 155.9056,304.1875 Q156.64,304.1875 157.2806,304.3594 Q157.9369,304.5156 158.4838,304.875 Z " fill="#000000"/><text fill="#000000" font-family="sans-serif" font-size="14" lengthAdjust="spacing" textLength="50" x="169.7181" y="314.7285">Material</text><line style="stroke:#181818;stroke-width:0.5;" x1="141.7181" x2="221.7181" y1="325" y2="325"/><line style="stroke:#181818;stroke-width:0.5;" x1="141.7181" x2="221.7181" y1="333" y2="333"/></g><!--MD5=[bf933ac2be28a331b25a15d5b3762dc5]
class AnimationCurve--><g id="elem_AnimationCurve"><rect fill="#F1F1F1" height="48" id="AnimationCurve" rx="2.5" ry="2.5" style="stroke:#181818;stroke-width:0.5;" width="132" x="257.7181" y="293"/><ellipse cx="272.7181" cy="309" fill="#ADD1B2" rx="11" ry="11" style="stroke:#181818;stroke-width:1.0;"/><path d="M275.4838,304.875 Q275.64,304.6563 275.8275,304.5469 Q276.015,304.4375 276.2338,304.4375 Q276.6088,304.4375 276.8431,304.7031 Q277.0775,304.9531 277.0775,305.5625 L277.0775,307.0156 Q277.0775,307.625 276.8431,307.8906 Q276.6088,308.1563 276.2338,308.1563 Q275.89,308.1563 275.6869,307.9531 Q275.4838,307.7656 275.3744,307.25 Q275.3275,306.8906 275.14,306.7031 Q274.8119,306.3281 274.2025,306.1094 Q273.5931,305.8906 272.9681,305.8906 Q272.2025,305.8906 271.5619,306.2188 Q270.9369,306.5469 270.4369,307.2969 Q269.9525,308.0469 269.9525,309.0781 L269.9525,310.1719 Q269.9525,311.4063 270.8431,312.2344 Q271.7338,313.0469 273.3275,313.0469 Q274.265,313.0469 274.9213,312.7969 Q275.3119,312.6406 275.7338,312.2031 Q275.9994,311.9375 276.14,311.8594 Q276.2963,311.7813 276.4994,311.7813 Q276.8275,311.7813 277.0775,312.0469 Q277.3431,312.2969 277.3431,312.6406 Q277.3431,312.9844 276.9994,313.3906 Q276.4994,313.9688 275.7025,314.2969 Q274.6244,314.75 273.3275,314.75 Q271.8119,314.75 270.6088,314.125 Q269.6244,313.625 268.9369,312.5625 Q268.2494,311.4844 268.2494,310.2031 L268.2494,309.0469 Q268.2494,307.7188 268.8588,306.5781 Q269.4838,305.4219 270.5775,304.8125 Q271.6713,304.1875 272.9056,304.1875 Q273.64,304.1875 274.2806,304.3594 Q274.9369,304.5156 275.4838,304.875 Z " fill="#000000"/><text fill="#000000" font-family="sans-serif" font-size="14" lengthAdjust="spacing" textLength="100" x="286.7181" y="314.7285">AnimationCurve</text><line style="stroke:#181818;stroke-width:0.5;" x1="258.7181" x2="388.7181" y1="325" y2="325"/><line style="stroke:#181818;stroke-width:0.5;" x1="258.7181" x2="388.7181" y1="333" y2="333"/></g><!--MD5=[a826033159d212e6dcdcbeda2705d807]
reverse link MonoBehaviour to ShaderPropAnimator--><g id="link_MonoBehaviour_ShaderPropAnimator"><path codeLine="7" d="M181.7181,75.33 C181.7181,87.86 181.7181,101.73 181.7181,114.99 " fill="none" id="MonoBehaviour-backto-ShaderPropAnimator" style="stroke:#181818;stroke-width:1.0;"/><polygon fill="none" points="174.7181,75.28,181.7181,55.28,188.7181,75.28,174.7181,75.28" style="stroke:#181818;stroke-width:1.0;"/></g><!--MD5=[a209ab2759d307f04a61f8c357bfb0ad]
link ShaderPropAnimator to Renderer--><g id="link_ShaderPropAnimator_Renderer"><path codeLine="8" d="M131.3881,233.16 C114.6881,252.47 96.8881,273.04 83.2081,288.86 " fill="none" id="ShaderPropAnimator-to-Renderer" style="stroke:#181818;stroke-width:1.0;"/><polygon fill="#181818" points="79.8181,292.77,88.7292,288.5757,83.0873,288.9868,82.6762,283.345,79.8181,292.77" style="stroke:#181818;stroke-width:1.0;"/><text fill="#000000" font-family="sans-serif" font-size="13" lengthAdjust="spacing" textLength="70" x="6" y="282.0512">m_Renderer</text></g><!--MD5=[cba169f23d7bd0a110c1e554f0c2c339]
link ShaderPropAnimator to Material--><g id="link_ShaderPropAnimator_Material"><path codeLine="9" d="M181.7181,233.16 C181.7181,251.97 181.7181,272 181.7181,287.64 " fill="none" id="ShaderPropAnimator-to-Material" style="stroke:#181818;stroke-width:1.0;"/><polygon fill="#181818" points="181.7181,292.77,185.7181,283.77,181.7181,287.77,177.7181,283.77,181.7181,292.77" style="stroke:#181818;stroke-width:1.0;"/><text fill="#000000" font-family="sans-serif" font-size="13" lengthAdjust="spacing" textLength="64" x="109.5181" y="282.0512">m_Material</text></g><!--MD5=[a78e42006e2b449e9c90a33cd8957ff9]
link ShaderPropAnimator to AnimationCurve--><g id="link_ShaderPropAnimator_AnimationCurve"><path codeLine="10" d="M240.2981,233.16 C259.7381,252.47 280.4581,273.04 296.3781,288.86 " fill="none" id="ShaderPropAnimator-to-AnimationCurve" style="stroke:#181818;stroke-width:1.0;"/><polygon fill="#181818" points="300.3281,292.77,296.7554,283.592,296.7783,289.2488,291.1215,289.2717,300.3281,292.77" style="stroke:#181818;stroke-width:1.0;"/><text fill="#000000" font-family="sans-serif" font-size="13" lengthAdjust="spacing" textLength="61" x="225.5188" y="282.0512">GlowCurve</text></g><!--MD5=[b02477246995623cf0230dbf57a70c98]
@startuml
class ShaderPropAnimator {
    + m_frame : float
    Awake() : void
    Start() : void
    AnimateProperties() : IEnumerator
}
MonoBehaviour <|- - ShaderPropAnimator
ShaderPropAnimator - -> "m_Renderer" Renderer
ShaderPropAnimator - -> "m_Material" Material
ShaderPropAnimator - -> "GlowCurve" AnimationCurve
@enduml

PlantUML version 1.2022.5(Sat Apr 30 12:55:52 CEST 2022)
(GPL source distribution)
Java Runtime: Java(TM) SE Runtime Environment
JVM: Java HotSpot(TM) 64-Bit Server VM
Default Encoding: UTF-8
Language: en
Country: GB
--></g></svg>