<?xml version="1.0" encoding="UTF-8" standalone="no"?><svg xmlns="http://www.w3.org/2000/svg" xmlns:xlink="http://www.w3.org/1999/xlink" contentStyleType="text/css" height="139px" preserveAspectRatio="none" style="width:535px;height:139px;background:#FFFFFF;" version="1.1" viewBox="0 0 535 139" width="535px" zoomAndPan="magnify"><defs/><g><!--MD5=[c81f16c6e828c1093637ef075e6928d7]
class ValidateCopiedFoldersIntegrity--><g id="elem_ValidateCopiedFoldersIntegrity"><rect codeLine="1" fill="#F1F1F1" height="118.4375" id="ValidateCopiedFoldersIntegrity" rx="2.5" ry="2.5" style="stroke:#181818;stroke-width:0.5;" width="514" x="7" y="7"/><ellipse cx="162.75" cy="23" fill="#ADD1B2" rx="11" ry="11" style="stroke:#181818;stroke-width:1.0;"/><path d="M165.5156,18.875 Q165.6719,18.6563 165.8594,18.5469 Q166.0469,18.4375 166.2656,18.4375 Q166.6406,18.4375 166.875,18.7031 Q167.1094,18.9531 167.1094,19.5625 L167.1094,21.0156 Q167.1094,21.625 166.875,21.8906 Q166.6406,22.1563 166.2656,22.1563 Q165.9219,22.1563 165.7188,21.9531 Q165.5156,21.7656 165.4063,21.25 Q165.3594,20.8906 165.1719,20.7031 Q164.8438,20.3281 164.2344,20.1094 Q163.625,19.8906 163,19.8906 Q162.2344,19.8906 161.5938,20.2188 Q160.9688,20.5469 160.4688,21.2969 Q159.9844,22.0469 159.9844,23.0781 L159.9844,24.1719 Q159.9844,25.4063 160.875,26.2344 Q161.7656,27.0469 163.3594,27.0469 Q164.2969,27.0469 164.9531,26.7969 Q165.3438,26.6406 165.7656,26.2031 Q166.0313,25.9375 166.1719,25.8594 Q166.3281,25.7813 166.5313,25.7813 Q166.8594,25.7813 167.1094,26.0469 Q167.375,26.2969 167.375,26.6406 Q167.375,26.9844 167.0313,27.3906 Q166.5313,27.9688 165.7344,28.2969 Q164.6563,28.75 163.3594,28.75 Q161.8438,28.75 160.6406,28.125 Q159.6563,27.625 158.9688,26.5625 Q158.2813,25.4844 158.2813,24.2031 L158.2813,23.0469 Q158.2813,21.7188 158.8906,20.5781 Q159.5156,19.4219 160.6094,18.8125 Q161.7031,18.1875 162.9375,18.1875 Q163.6719,18.1875 164.3125,18.3594 Q164.9688,18.5156 165.5156,18.875 Z " fill="#000000"/><text fill="#000000" font-family="sans-serif" font-size="14" lengthAdjust="spacing" textLength="194" x="183.25" y="28.7285">ValidateCopiedFoldersIntegrity</text><line style="stroke:#181818;stroke-width:0.5;" x1="8" x2="520" y1="39" y2="39"/><text fill="#000000" font-family="sans-serif" font-size="14" lengthAdjust="spacing" textLength="454" x="13" y="57.5332">«const» SessionStateKey : string = "ValidateCopiedFoldersIntegrity_Init"</text><line style="stroke:#181818;stroke-width:0.5;" x1="8" x2="520" y1="64.6094" y2="64.6094"/><text fill="#000000" font-family="sans-serif" font-size="14" lengthAdjust="spacing" text-decoration="underline" textLength="204" x="27" y="83.1426">ValidateCopiedFoldersIntegrity()</text><ellipse cx="18" cy="93.2188" fill="#84BE84" rx="3" ry="3" style="stroke:#038048;stroke-width:1.0;"/><text fill="#000000" font-family="sans-serif" font-size="14" lengthAdjust="spacing" text-decoration="underline" textLength="488" x="27" y="100.752">ValidateFolder(targetRoot:string, originalRoot:string, folderName:string) : void</text><text fill="#000000" font-family="sans-serif" font-size="14" lengthAdjust="spacing" text-decoration="underline" textLength="257" x="27" y="118.3613">CreateMd5ForFolder(path:string) : string</text></g><!--MD5=[33c3b02ee0ff5c25e20da55752305354]
@startuml
class ValidateCopiedFoldersIntegrity {
    <<const>> SessionStateKey : string = "ValidateCopiedFoldersIntegrity_Init"
    {static} ValidateCopiedFoldersIntegrity()
    + {static} ValidateFolder(targetRoot:string, originalRoot:string, folderName:string) : void
    {static} CreateMd5ForFolder(path:string) : string
}
@enduml

PlantUML version 1.2022.5(Sat Apr 30 12:55:52 CEST 2022)
(GPL source distribution)
Java Runtime: Java(TM) SE Runtime Environment
JVM: Java HotSpot(TM) 64-Bit Server VM
Default Encoding: UTF-8
Language: en
Country: GB
--></g></svg>