<?xml version="1.0" encoding="UTF-8" standalone="no"?><svg xmlns="http://www.w3.org/2000/svg" xmlns:xlink="http://www.w3.org/1999/xlink" contentStyleType="text/css" height="331px" preserveAspectRatio="none" style="width:220px;height:331px;background:#FFFFFF;" version="1.1" viewBox="0 0 220 331" width="220px" zoomAndPan="magnify"><defs/><g><!--MD5=[f434c20191dcca73061168e8acbafc18]
class ClonesManagerWindow--><g id="elem_ClonesManagerWindow"><rect codeLine="1" fill="#F1F1F1" height="100.8281" id="ClonesManagerWindow" rx="2.5" ry="2.5" style="stroke:#181818;stroke-width:0.5;" width="203" x="10.5438" y="115"/><ellipse cx="35.4438" cy="131" fill="#ADD1B2" rx="11" ry="11" style="stroke:#181818;stroke-width:1.0;"/><path d="M38.2094,126.875 Q38.3656,126.6563 38.5531,126.5469 Q38.7406,126.4375 38.9594,126.4375 Q39.3344,126.4375 39.5688,126.7031 Q39.8031,126.9531 39.8031,127.5625 L39.8031,129.0156 Q39.8031,129.625 39.5688,129.8906 Q39.3344,130.1563 38.9594,130.1563 Q38.6156,130.1563 38.4125,129.9531 Q38.2094,129.7656 38.1,129.25 Q38.0531,128.8906 37.8656,128.7031 Q37.5375,128.3281 36.9281,128.1094 Q36.3188,127.8906 35.6938,127.8906 Q34.9281,127.8906 34.2875,128.2188 Q33.6625,128.5469 33.1625,129.2969 Q32.6781,130.0469 32.6781,131.0781 L32.6781,132.1719 Q32.6781,133.4063 33.5688,134.2344 Q34.4594,135.0469 36.0531,135.0469 Q36.9906,135.0469 37.6469,134.7969 Q38.0375,134.6406 38.4594,134.2031 Q38.725,133.9375 38.8656,133.8594 Q39.0219,133.7813 39.225,133.7813 Q39.5531,133.7813 39.8031,134.0469 Q40.0688,134.2969 40.0688,134.6406 Q40.0688,134.9844 39.725,135.3906 Q39.225,135.9688 38.4281,136.2969 Q37.35,136.75 36.0531,136.75 Q34.5375,136.75 33.3344,136.125 Q32.35,135.625 31.6625,134.5625 Q30.975,133.4844 30.975,132.2031 L30.975,131.0469 Q30.975,129.7188 31.5844,128.5781 Q32.2094,127.4219 33.3031,126.8125 Q34.3969,126.1875 35.6313,126.1875 Q36.3656,126.1875 37.0063,126.3594 Q37.6625,126.5156 38.2094,126.875 Z " fill="#000000"/><text fill="#000000" font-family="sans-serif" font-size="14" lengthAdjust="spacing" textLength="149" x="51.6438" y="136.7285">ClonesManagerWindow</text><line style="stroke:#181818;stroke-width:0.5;" x1="11.5438" x2="212.5438" y1="147" y2="147"/><ellipse cx="21.5438" cy="158" fill="none" rx="3" ry="3" style="stroke:#038048;stroke-width:1.0;"/><text fill="#000000" font-family="sans-serif" font-size="14" lengthAdjust="spacing" textLength="177" x="30.5438" y="165.5332">isCloneCreated : bool «get»</text><line style="stroke:#181818;stroke-width:0.5;" x1="11.5438" x2="212.5438" y1="172.6094" y2="172.6094"/><rect fill="#F24D5C" height="6" style="stroke:#C82930;stroke-width:1.0;" width="6" x="18.5438" y="180.6094"/><text fill="#000000" font-family="sans-serif" font-size="14" lengthAdjust="spacing" text-decoration="underline" textLength="115" x="30.5438" y="191.1426">InitWindow() : void</text><rect fill="#F24D5C" height="6" style="stroke:#C82930;stroke-width:1.0;" width="6" x="18.5438" y="198.2188"/><text fill="#000000" font-family="sans-serif" font-size="14" lengthAdjust="spacing" textLength="90" x="30.5438" y="208.752">OnGUI() : void</text></g><!--MD5=[802e82b404e578583cfeee29107899de]
class EditorWindow--><g id="elem_EditorWindow"><rect fill="#F1F1F1" height="48" id="EditorWindow" rx="2.5" ry="2.5" style="stroke:#181818;stroke-width:0.5;" width="118" x="53.0438" y="7"/><ellipse cx="68.0438" cy="23" fill="#ADD1B2" rx="11" ry="11" style="stroke:#181818;stroke-width:1.0;"/><path d="M70.8094,18.875 Q70.9656,18.6563 71.1531,18.5469 Q71.3406,18.4375 71.5594,18.4375 Q71.9344,18.4375 72.1688,18.7031 Q72.4031,18.9531 72.4031,19.5625 L72.4031,21.0156 Q72.4031,21.625 72.1688,21.8906 Q71.9344,22.1563 71.5594,22.1563 Q71.2156,22.1563 71.0125,21.9531 Q70.8094,21.7656 70.7,21.25 Q70.6531,20.8906 70.4656,20.7031 Q70.1375,20.3281 69.5281,20.1094 Q68.9188,19.8906 68.2938,19.8906 Q67.5281,19.8906 66.8875,20.2188 Q66.2625,20.5469 65.7625,21.2969 Q65.2781,22.0469 65.2781,23.0781 L65.2781,24.1719 Q65.2781,25.4063 66.1688,26.2344 Q67.0594,27.0469 68.6531,27.0469 Q69.5906,27.0469 70.2469,26.7969 Q70.6375,26.6406 71.0594,26.2031 Q71.325,25.9375 71.4656,25.8594 Q71.6219,25.7813 71.825,25.7813 Q72.1531,25.7813 72.4031,26.0469 Q72.6688,26.2969 72.6688,26.6406 Q72.6688,26.9844 72.325,27.3906 Q71.825,27.9688 71.0281,28.2969 Q69.95,28.75 68.6531,28.75 Q67.1375,28.75 65.9344,28.125 Q64.95,27.625 64.2625,26.5625 Q63.575,25.4844 63.575,24.2031 L63.575,23.0469 Q63.575,21.7188 64.1844,20.5781 Q64.8094,19.4219 65.9031,18.8125 Q66.9969,18.1875 68.2313,18.1875 Q68.9656,18.1875 69.6063,18.3594 Q70.2625,18.5156 70.8094,18.875 Z " fill="#000000"/><text fill="#000000" font-family="sans-serif" font-size="14" lengthAdjust="spacing" textLength="86" x="82.0438" y="28.7285">EditorWindow</text><line style="stroke:#181818;stroke-width:0.5;" x1="54.0438" x2="170.0438" y1="39" y2="39"/><line style="stroke:#181818;stroke-width:0.5;" x1="54.0438" x2="170.0438" y1="47" y2="47"/></g><!--MD5=[3f551f1273bbfa514d2f681c1c48b5c1]
class Vector2--><g id="elem_Vector2"><rect fill="#F1F1F1" height="48" id="Vector2" rx="2.5" ry="2.5" style="stroke:#181818;stroke-width:0.5;" width="81" x="71.5438" y="276"/><ellipse cx="86.5438" cy="292" fill="#ADD1B2" rx="11" ry="11" style="stroke:#181818;stroke-width:1.0;"/><path d="M89.3094,287.875 Q89.4656,287.6563 89.6531,287.5469 Q89.8406,287.4375 90.0594,287.4375 Q90.4344,287.4375 90.6688,287.7031 Q90.9031,287.9531 90.9031,288.5625 L90.9031,290.0156 Q90.9031,290.625 90.6688,290.8906 Q90.4344,291.1563 90.0594,291.1563 Q89.7156,291.1563 89.5125,290.9531 Q89.3094,290.7656 89.2,290.25 Q89.1531,289.8906 88.9656,289.7031 Q88.6375,289.3281 88.0281,289.1094 Q87.4188,288.8906 86.7938,288.8906 Q86.0281,288.8906 85.3875,289.2188 Q84.7625,289.5469 84.2625,290.2969 Q83.7781,291.0469 83.7781,292.0781 L83.7781,293.1719 Q83.7781,294.4063 84.6688,295.2344 Q85.5594,296.0469 87.1531,296.0469 Q88.0906,296.0469 88.7469,295.7969 Q89.1375,295.6406 89.5594,295.2031 Q89.825,294.9375 89.9656,294.8594 Q90.1219,294.7813 90.325,294.7813 Q90.6531,294.7813 90.9031,295.0469 Q91.1688,295.2969 91.1688,295.6406 Q91.1688,295.9844 90.825,296.3906 Q90.325,296.9688 89.5281,297.2969 Q88.45,297.75 87.1531,297.75 Q85.6375,297.75 84.4344,297.125 Q83.45,296.625 82.7625,295.5625 Q82.075,294.4844 82.075,293.2031 L82.075,292.0469 Q82.075,290.7188 82.6844,289.5781 Q83.3094,288.4219 84.4031,287.8125 Q85.4969,287.1875 86.7313,287.1875 Q87.4656,287.1875 88.1063,287.3594 Q88.7625,287.5156 89.3094,287.875 Z " fill="#000000"/><text fill="#000000" font-family="sans-serif" font-size="14" lengthAdjust="spacing" textLength="49" x="100.5438" y="297.7285">Vector2</text><line style="stroke:#181818;stroke-width:0.5;" x1="72.5438" x2="151.5438" y1="308" y2="308"/><line style="stroke:#181818;stroke-width:0.5;" x1="72.5438" x2="151.5438" y1="316" y2="316"/></g><!--MD5=[57ead7e01dfcd5cbba9923bb578a06ee]
reverse link EditorWindow to ClonesManagerWindow--><g id="link_EditorWindow_ClonesManagerWindow"><path codeLine="6" d="M112.0438,75.34 C112.0438,87.95 112.0438,101.82 112.0438,114.8 " fill="none" id="EditorWindow-backto-ClonesManagerWindow" style="stroke:#181818;stroke-width:1.0;"/><polygon fill="none" points="105.0438,75.08,112.0438,55.08,119.0438,75.08,105.0438,75.08" style="stroke:#181818;stroke-width:1.0;"/></g><!--MD5=[05b3c5a6e27486fcb96bc7e03c9dcad2]
link ClonesManagerWindow to Vector2--><g id="link_ClonesManagerWindow_Vector2"><path codeLine="7" d="M112.0438,216.22 C112.0438,234.56 112.0438,254.7 112.0438,270.53 " fill="none" id="ClonesManagerWindow-to-Vector2" style="stroke:#181818;stroke-width:1.0;"/><polygon fill="#181818" points="112.0438,275.72,116.0438,266.72,112.0438,270.72,108.0438,266.72,112.0438,275.72" style="stroke:#181818;stroke-width:1.0;"/><text fill="#000000" font-family="sans-serif" font-size="13" lengthAdjust="spacing" textLength="94" x="6" y="264.9884">clonesScrollPos</text></g><!--MD5=[ad572c3aa812a756101ab1c6e81bd495]
@startuml
class ClonesManagerWindow {
    + isCloneCreated : bool <<get>>
    - {static} InitWindow() : void
    - OnGUI() : void
}
EditorWindow <|- - ClonesManagerWindow
ClonesManagerWindow - -> "clonesScrollPos" Vector2
@enduml

PlantUML version 1.2022.5(Sat Apr 30 12:55:52 CEST 2022)
(GPL source distribution)
Java Runtime: Java(TM) SE Runtime Environment
JVM: Java HotSpot(TM) 64-Bit Server VM
Default Encoding: UTF-8
Language: en
Country: GB
--></g></svg>