<?xml version="1.0" encoding="UTF-8" standalone="no"?><svg xmlns="http://www.w3.org/2000/svg" xmlns:xlink="http://www.w3.org/1999/xlink" contentStyleType="text/css" height="436px" preserveAspectRatio="none" style="width:914px;height:436px;background:#FFFFFF;" version="1.1" viewBox="0 0 914 436" width="914px" zoomAndPan="magnify"><defs/><g><!--MD5=[d2bd05e7b33ea8372fd388c92845b4a4]
class PlayerManager--><g id="elem_PlayerManager"><rect codeLine="1" fill="#F1F1F1" height="206.4844" id="PlayerManager" rx="2.5" ry="2.5" style="stroke:#181818;stroke-width:0.5;" width="900" x="7" y="115"/><ellipse cx="404.75" cy="131" fill="#ADD1B2" rx="11" ry="11" style="stroke:#181818;stroke-width:1.0;"/><path d="M407.5156,126.875 Q407.6719,126.6563 407.8594,126.5469 Q408.0469,126.4375 408.2656,126.4375 Q408.6406,126.4375 408.875,126.7031 Q409.1094,126.9531 409.1094,127.5625 L409.1094,129.0156 Q409.1094,129.625 408.875,129.8906 Q408.6406,130.1563 408.2656,130.1563 Q407.9219,130.1563 407.7188,129.9531 Q407.5156,129.7656 407.4063,129.25 Q407.3594,128.8906 407.1719,128.7031 Q406.8438,128.3281 406.2344,128.1094 Q405.625,127.8906 405,127.8906 Q404.2344,127.8906 403.5938,128.2188 Q402.9688,128.5469 402.4688,129.2969 Q401.9844,130.0469 401.9844,131.0781 L401.9844,132.1719 Q401.9844,133.4063 402.875,134.2344 Q403.7656,135.0469 405.3594,135.0469 Q406.2969,135.0469 406.9531,134.7969 Q407.3438,134.6406 407.7656,134.2031 Q408.0313,133.9375 408.1719,133.8594 Q408.3281,133.7813 408.5313,133.7813 Q408.8594,133.7813 409.1094,134.0469 Q409.375,134.2969 409.375,134.6406 Q409.375,134.9844 409.0313,135.3906 Q408.5313,135.9688 407.7344,136.2969 Q406.6563,136.75 405.3594,136.75 Q403.8438,136.75 402.6406,136.125 Q401.6563,135.625 400.9688,134.5625 Q400.2813,133.4844 400.2813,132.2031 L400.2813,131.0469 Q400.2813,129.7188 400.8906,128.5781 Q401.5156,127.4219 402.6094,126.8125 Q403.7031,126.1875 404.9375,126.1875 Q405.6719,126.1875 406.3125,126.3594 Q406.9688,126.5156 407.5156,126.875 Z " fill="#000000"/><text fill="#000000" font-family="sans-serif" font-size="14" lengthAdjust="spacing" textLength="96" x="425.25" y="136.7285">PlayerManager</text><line style="stroke:#181818;stroke-width:0.5;" x1="8" x2="906" y1="147" y2="147"/><line style="stroke:#181818;stroke-width:0.5;" x1="8" x2="906" y1="155" y2="155"/><text fill="#000000" font-family="sans-serif" font-size="14" lengthAdjust="spacing" textLength="89" x="27" y="173.5332">Awake() : void</text><rect fill="#F24D5C" height="6" style="stroke:#C82930;stroke-width:1.0;" width="6" x="15" y="180.6094"/><text fill="#000000" font-family="sans-serif" font-size="14" lengthAdjust="spacing" textLength="93" x="27" y="191.1426">Update() : void</text><ellipse cx="18" cy="201.2188" fill="#84BE84" rx="3" ry="3" style="stroke:#038048;stroke-width:1.0;"/><text fill="#000000" font-family="sans-serif" font-size="14" lengthAdjust="spacing" textLength="204" x="27" y="208.752">updatePlayerTransforms() : void</text><ellipse cx="18" cy="218.8281" fill="#84BE84" rx="3" ry="3" style="stroke:#038048;stroke-width:1.0;"/><text fill="#000000" font-family="sans-serif" font-size="14" lengthAdjust="spacing" textLength="314" x="27" y="226.3613">playerObjectFromId(playerId:string) : GameObject</text><ellipse cx="18" cy="236.4375" fill="#84BE84" rx="3" ry="3" style="stroke:#038048;stroke-width:1.0;"/><text fill="#000000" font-family="sans-serif" font-size="14" lengthAdjust="spacing" textLength="343" x="27" y="243.9707">idFromGameObject(playerObject:GameObject) : string</text><ellipse cx="18" cy="254.0469" fill="#84BE84" rx="3" ry="3" style="stroke:#038048;stroke-width:1.0;"/><text fill="#000000" font-family="sans-serif" font-size="14" lengthAdjust="spacing" textLength="874" x="27" y="261.5801">shootRocket(target:GameObject, startPoint:Vector3, planeFacingDirection:Vector3, planeVelocity:Vector3, rocketType:RocketTypes) : void</text><ellipse cx="18" cy="271.6563" fill="#84BE84" rx="3" ry="3" style="stroke:#038048;stroke-width:1.0;"/><text fill="#000000" font-family="sans-serif" font-size="14" lengthAdjust="spacing" textLength="723" x="27" y="279.1895">shootBullet(startPoint:Vector3, planeFacingDirection:Vector3, planeVelocity:Vector3, bulletType:BulletTypes) : void</text><ellipse cx="18" cy="289.2656" fill="#84BE84" rx="3" ry="3" style="stroke:#038048;stroke-width:1.0;"/><text fill="#000000" font-family="sans-serif" font-size="14" lengthAdjust="spacing" textLength="245" x="27" y="296.7988">disconnectPlayer(playerId:string) : void</text><rect fill="#F24D5C" height="6" style="stroke:#C82930;stroke-width:1.0;" width="6" x="15" y="303.875"/><text fill="#000000" font-family="sans-serif" font-size="14" lengthAdjust="spacing" textLength="277" x="27" y="314.4082">getStringFromList(input:List&lt;string&gt;) : string</text></g><!--MD5=[e644022de7dea015dd09463c37421447]
class List`1--><g id="elem_List`1"><rect codeLine="12" fill="#F1F1F1" height="48" id="List`1" rx="2.5" ry="2.5" style="stroke:#181818;stroke-width:0.5;" width="78" x="191" y="381"/><ellipse cx="206" cy="397" fill="#ADD1B2" rx="11" ry="11" style="stroke:#181818;stroke-width:1.0;"/><path d="M208.7656,392.875 Q208.9219,392.6563 209.1094,392.5469 Q209.2969,392.4375 209.5156,392.4375 Q209.8906,392.4375 210.125,392.7031 Q210.3594,392.9531 210.3594,393.5625 L210.3594,395.0156 Q210.3594,395.625 210.125,395.8906 Q209.8906,396.1563 209.5156,396.1563 Q209.1719,396.1563 208.9688,395.9531 Q208.7656,395.7656 208.6563,395.25 Q208.6094,394.8906 208.4219,394.7031 Q208.0938,394.3281 207.4844,394.1094 Q206.875,393.8906 206.25,393.8906 Q205.4844,393.8906 204.8438,394.2188 Q204.2188,394.5469 203.7188,395.2969 Q203.2344,396.0469 203.2344,397.0781 L203.2344,398.1719 Q203.2344,399.4063 204.125,400.2344 Q205.0156,401.0469 206.6094,401.0469 Q207.5469,401.0469 208.2031,400.7969 Q208.5938,400.6406 209.0156,400.2031 Q209.2813,399.9375 209.4219,399.8594 Q209.5781,399.7813 209.7813,399.7813 Q210.1094,399.7813 210.3594,400.0469 Q210.625,400.2969 210.625,400.6406 Q210.625,400.9844 210.2813,401.3906 Q209.7813,401.9688 208.9844,402.2969 Q207.9063,402.75 206.6094,402.75 Q205.0938,402.75 203.8906,402.125 Q202.9063,401.625 202.2188,400.5625 Q201.5313,399.4844 201.5313,398.2031 L201.5313,397.0469 Q201.5313,395.7188 202.1406,394.5781 Q202.7656,393.4219 203.8594,392.8125 Q204.9531,392.1875 206.1875,392.1875 Q206.9219,392.1875 207.5625,392.3594 Q208.2188,392.5156 208.7656,392.875 Z " fill="#000000"/><text fill="#000000" font-family="sans-serif" font-size="14" lengthAdjust="spacing" textLength="35" x="220" y="402.7285">List`1</text><rect fill="#FFFFFF" height="17.0938" style="stroke:#000000;stroke-width:1.0;stroke-dasharray:2.0,2.0;" width="9" x="263" y="378"/><text fill="#000000" font-family="sans-serif" font-size="12" font-style="italic" lengthAdjust="spacing" textLength="7" x="264" y="391.457">T</text><line style="stroke:#181818;stroke-width:0.5;" x1="192" x2="268" y1="413" y2="413"/><line style="stroke:#181818;stroke-width:0.5;" x1="192" x2="268" y1="421" y2="421"/></g><!--MD5=[2e1ff885372daab8d802f213ced6c836]
class Dictionary`2--><g id="elem_Dictionary`2"><rect codeLine="14" fill="#F1F1F1" height="48" id="Dictionary`2" rx="2.5" ry="2.5" style="stroke:#181818;stroke-width:0.5;" width="143" x="304.5" y="381"/><ellipse cx="319.5" cy="397" fill="#ADD1B2" rx="11" ry="11" style="stroke:#181818;stroke-width:1.0;"/><path d="M322.2656,392.875 Q322.4219,392.6563 322.6094,392.5469 Q322.7969,392.4375 323.0156,392.4375 Q323.3906,392.4375 323.625,392.7031 Q323.8594,392.9531 323.8594,393.5625 L323.8594,395.0156 Q323.8594,395.625 323.625,395.8906 Q323.3906,396.1563 323.0156,396.1563 Q322.6719,396.1563 322.4688,395.9531 Q322.2656,395.7656 322.1563,395.25 Q322.1094,394.8906 321.9219,394.7031 Q321.5938,394.3281 320.9844,394.1094 Q320.375,393.8906 319.75,393.8906 Q318.9844,393.8906 318.3438,394.2188 Q317.7188,394.5469 317.2188,395.2969 Q316.7344,396.0469 316.7344,397.0781 L316.7344,398.1719 Q316.7344,399.4063 317.625,400.2344 Q318.5156,401.0469 320.1094,401.0469 Q321.0469,401.0469 321.7031,400.7969 Q322.0938,400.6406 322.5156,400.2031 Q322.7813,399.9375 322.9219,399.8594 Q323.0781,399.7813 323.2813,399.7813 Q323.6094,399.7813 323.8594,400.0469 Q324.125,400.2969 324.125,400.6406 Q324.125,400.9844 323.7813,401.3906 Q323.2813,401.9688 322.4844,402.2969 Q321.4063,402.75 320.1094,402.75 Q318.5938,402.75 317.3906,402.125 Q316.4063,401.625 315.7188,400.5625 Q315.0313,399.4844 315.0313,398.2031 L315.0313,397.0469 Q315.0313,395.7188 315.6406,394.5781 Q316.2656,393.4219 317.3594,392.8125 Q318.4531,392.1875 319.6875,392.1875 Q320.4219,392.1875 321.0625,392.3594 Q321.7188,392.5156 322.2656,392.875 Z " fill="#000000"/><text fill="#000000" font-family="sans-serif" font-size="14" lengthAdjust="spacing" textLength="76" x="333.5" y="402.7285">Dictionary`2</text><rect fill="#FFFFFF" height="17.0938" style="stroke:#000000;stroke-width:1.0;stroke-dasharray:2.0,2.0;" width="33" x="417.5" y="378"/><text fill="#000000" font-family="sans-serif" font-size="12" font-style="italic" lengthAdjust="spacing" textLength="31" x="418.5" y="391.457">T1,T2</text><line style="stroke:#181818;stroke-width:0.5;" x1="305.5" x2="446.5" y1="413" y2="413"/><line style="stroke:#181818;stroke-width:0.5;" x1="305.5" x2="446.5" y1="421" y2="421"/></g><!--MD5=[83b3cf3d23d77c6f1e1b5291a241bc2a]
class MonoBehaviour--><g id="elem_MonoBehaviour"><rect fill="#F1F1F1" height="48" id="MonoBehaviour" rx="2.5" ry="2.5" style="stroke:#181818;stroke-width:0.5;" width="131" x="391.5" y="7"/><ellipse cx="406.5" cy="23" fill="#ADD1B2" rx="11" ry="11" style="stroke:#181818;stroke-width:1.0;"/><path d="M409.2656,18.875 Q409.4219,18.6563 409.6094,18.5469 Q409.7969,18.4375 410.0156,18.4375 Q410.3906,18.4375 410.625,18.7031 Q410.8594,18.9531 410.8594,19.5625 L410.8594,21.0156 Q410.8594,21.625 410.625,21.8906 Q410.3906,22.1563 410.0156,22.1563 Q409.6719,22.1563 409.4688,21.9531 Q409.2656,21.7656 409.1563,21.25 Q409.1094,20.8906 408.9219,20.7031 Q408.5938,20.3281 407.9844,20.1094 Q407.375,19.8906 406.75,19.8906 Q405.9844,19.8906 405.3438,20.2188 Q404.7188,20.5469 404.2188,21.2969 Q403.7344,22.0469 403.7344,23.0781 L403.7344,24.1719 Q403.7344,25.4063 404.625,26.2344 Q405.5156,27.0469 407.1094,27.0469 Q408.0469,27.0469 408.7031,26.7969 Q409.0938,26.6406 409.5156,26.2031 Q409.7813,25.9375 409.9219,25.8594 Q410.0781,25.7813 410.2813,25.7813 Q410.6094,25.7813 410.8594,26.0469 Q411.125,26.2969 411.125,26.6406 Q411.125,26.9844 410.7813,27.3906 Q410.2813,27.9688 409.4844,28.2969 Q408.4063,28.75 407.1094,28.75 Q405.5938,28.75 404.3906,28.125 Q403.4063,27.625 402.7188,26.5625 Q402.0313,25.4844 402.0313,24.2031 L402.0313,23.0469 Q402.0313,21.7188 402.6406,20.5781 Q403.2656,19.4219 404.3594,18.8125 Q405.4531,18.1875 406.6875,18.1875 Q407.4219,18.1875 408.0625,18.3594 Q408.7188,18.5156 409.2656,18.875 Z " fill="#000000"/><text fill="#000000" font-family="sans-serif" font-size="14" lengthAdjust="spacing" textLength="99" x="420.5" y="28.7285">MonoBehaviour</text><line style="stroke:#181818;stroke-width:0.5;" x1="392.5" x2="521.5" y1="39" y2="39"/><line style="stroke:#181818;stroke-width:0.5;" x1="392.5" x2="521.5" y1="47" y2="47"/></g><!--MD5=[064f7a74fee85463ec1a30143664ee17]
class GameObject--><g id="elem_GameObject"><rect fill="#F1F1F1" height="48" id="GameObject" rx="2.5" ry="2.5" style="stroke:#181818;stroke-width:0.5;" width="111" x="482.5" y="381"/><ellipse cx="497.5" cy="397" fill="#ADD1B2" rx="11" ry="11" style="stroke:#181818;stroke-width:1.0;"/><path d="M500.2656,392.875 Q500.4219,392.6563 500.6094,392.5469 Q500.7969,392.4375 501.0156,392.4375 Q501.3906,392.4375 501.625,392.7031 Q501.8594,392.9531 501.8594,393.5625 L501.8594,395.0156 Q501.8594,395.625 501.625,395.8906 Q501.3906,396.1563 501.0156,396.1563 Q500.6719,396.1563 500.4688,395.9531 Q500.2656,395.7656 500.1563,395.25 Q500.1094,394.8906 499.9219,394.7031 Q499.5938,394.3281 498.9844,394.1094 Q498.375,393.8906 497.75,393.8906 Q496.9844,393.8906 496.3438,394.2188 Q495.7188,394.5469 495.2188,395.2969 Q494.7344,396.0469 494.7344,397.0781 L494.7344,398.1719 Q494.7344,399.4063 495.625,400.2344 Q496.5156,401.0469 498.1094,401.0469 Q499.0469,401.0469 499.7031,400.7969 Q500.0938,400.6406 500.5156,400.2031 Q500.7813,399.9375 500.9219,399.8594 Q501.0781,399.7813 501.2813,399.7813 Q501.6094,399.7813 501.8594,400.0469 Q502.125,400.2969 502.125,400.6406 Q502.125,400.9844 501.7813,401.3906 Q501.2813,401.9688 500.4844,402.2969 Q499.4063,402.75 498.1094,402.75 Q496.5938,402.75 495.3906,402.125 Q494.4063,401.625 493.7188,400.5625 Q493.0313,399.4844 493.0313,398.2031 L493.0313,397.0469 Q493.0313,395.7188 493.6406,394.5781 Q494.2656,393.4219 495.3594,392.8125 Q496.4531,392.1875 497.6875,392.1875 Q498.4219,392.1875 499.0625,392.3594 Q499.7188,392.5156 500.2656,392.875 Z " fill="#000000"/><text fill="#000000" font-family="sans-serif" font-size="14" lengthAdjust="spacing" textLength="79" x="511.5" y="402.7285">GameObject</text><line style="stroke:#181818;stroke-width:0.5;" x1="483.5" x2="592.5" y1="413" y2="413"/><line style="stroke:#181818;stroke-width:0.5;" x1="483.5" x2="592.5" y1="421" y2="421"/></g><!--MD5=[c8ff82878cfb123104bf59b763cc72da]
reverse link MonoBehaviour to PlayerManager--><g id="link_MonoBehaviour_PlayerManager"><path codeLine="16" d="M457,75.25 C457,87.23 457,100.76 457,114.59 " fill="none" id="MonoBehaviour-backto-PlayerManager" style="stroke:#181818;stroke-width:1.0;"/><polygon fill="none" points="450,75.06,457,55.06,464,75.06,450,75.06" style="stroke:#181818;stroke-width:1.0;"/></g><!--MD5=[1be1e7fa63b5960a9d32ef4813a5f47c]
link PlayerManager to List`1--><g id="link_PlayerManager_List`1"><path codeLine="17" d="M331.55,321.24 C306,342.06 281.27,362.22 262.61,377.42 " fill="none" id="PlayerManager-to-List`1" style="stroke:#181818;stroke-width:1.0;"/><polygon fill="#181818" points="258.48,380.79,267.977,378.181,262.3479,377.6215,262.9074,371.9924,258.48,380.79" style="stroke:#181818;stroke-width:1.0;"/><text fill="#000000" font-family="sans-serif" font-size="13" lengthAdjust="spacing" textLength="153" x="93.1749" y="370.0763">spawnedPlayerIds&lt;string&gt;</text></g><!--MD5=[6cf044f7c55fc2e0368e4b825cfb2f64]
link PlayerManager to Dictionary`2--><g id="link_PlayerManager_Dictionary`2"><path codeLine="18" d="M412.24,321.24 C403.43,341.36 394.89,360.86 388.32,375.87 " fill="none" id="PlayerManager-to-Dictionary`2" style="stroke:#181818;stroke-width:1.0;"/><polygon fill="#181818" points="386.16,380.79,393.4494,374.1669,388.1761,376.2145,386.1285,370.9412,386.16,380.79" style="stroke:#181818;stroke-width:1.0;"/><text fill="#000000" font-family="sans-serif" font-size="13" lengthAdjust="spacing" textLength="182" x="412.0823" y="370.0763">allPlayers&lt;string,GameObject&gt;</text></g><!--MD5=[fd55c77c80372883be11257ac89e2099]
link PlayerManager to GameObject--><g id="link_PlayerManager_GameObject"><path codeLine="19" d="M489.08,321.24 C498.23,341.54 507.93,361.2 516.44,376.26 " fill="none" id="PlayerManager-to-GameObject" style="stroke:#181818;stroke-width:1.0;"/><polygon fill="#181818" points="519.04,380.79,518.0269,370.9934,516.5501,376.4541,511.0894,374.9773,519.04,380.79" style="stroke:#181818;stroke-width:1.0;"/><text fill="#000000" font-family="sans-serif" font-size="13" lengthAdjust="spacing" textLength="60" x="413.752" y="379.4535">ownPlayer</text></g><!--MD5=[fd55c77c80372883be11257ac89e2099]
link PlayerManager to GameObject--><g id="link_PlayerManager_GameObject"><path codeLine="20" d="M515.2,321.24 C523.73,341.36 531.13,360.86 535.71,375.87 " fill="none" id="PlayerManager-to-GameObject-1" style="stroke:#181818;stroke-width:1.0;"/><polygon fill="#181818" points="537.15,380.79,538.47,371.03,535.75,375.99,530.79,373.27,537.15,380.79" style="stroke:#181818;stroke-width:1.0;"/><text fill="#000000" font-family="sans-serif" font-size="13" lengthAdjust="spacing" textLength="49" x="543.2103" y="370.0763">instance</text></g><!--MD5=[3fda37726bab2cbdf97afda64e476dd2]
@startuml
class PlayerManager {
    Awake() : void
    - Update() : void
    + updatePlayerTransforms() : void
    + playerObjectFromId(playerId:string) : GameObject
    + idFromGameObject(playerObject:GameObject) : string
    + shootRocket(target:GameObject, startPoint:Vector3, planeFacingDirection:Vector3, planeVelocity:Vector3, rocketType:RocketTypes) : void
    + shootBullet(startPoint:Vector3, planeFacingDirection:Vector3, planeVelocity:Vector3, bulletType:BulletTypes) : void
    + disconnectPlayer(playerId:string) : void
    - getStringFromList(input:List<string>) : string
}
class "List`1"<T> {
}
class "Dictionary`2"<T1,T2> {
}
MonoBehaviour <|- - PlayerManager
PlayerManager - -> "spawnedPlayerIds<string>" "List`1"
PlayerManager - -> "allPlayers<string,GameObject>" "Dictionary`2"
PlayerManager - -> "ownPlayer" GameObject
PlayerManager - -> "instance" GameObject
@enduml

PlantUML version 1.2022.5(Sat Apr 30 12:55:52 CEST 2022)
(GPL source distribution)
Java Runtime: Java(TM) SE Runtime Environment
JVM: Java HotSpot(TM) 64-Bit Server VM
Default Encoding: UTF-8
Language: en
Country: GB
--></g></svg>