<?xml version="1.0" encoding="UTF-8" standalone="no"?><svg xmlns="http://www.w3.org/2000/svg" xmlns:xlink="http://www.w3.org/1999/xlink" contentStyleType="text/css" height="348px" preserveAspectRatio="none" style="width:1623px;height:348px;background:#FFFFFF;" version="1.1" viewBox="0 0 1623 348" width="1623px" zoomAndPan="magnify"><defs/><g><!--MD5=[b37c9e3bb8cdbc8982fc6263ba15913f]
class TeleType--><g id="elem_TeleType"><rect codeLine="1" fill="#F1F1F1" height="118.4375" id="TeleType" rx="2.5" ry="2.5" style="stroke:#181818;stroke-width:0.5;" width="1609" x="7" y="115"/><ellipse cx="777.25" cy="131" fill="#ADD1B2" rx="11" ry="11" style="stroke:#181818;stroke-width:1.0;"/><path d="M780.0156,126.875 Q780.1719,126.6563 780.3594,126.5469 Q780.5469,126.4375 780.7656,126.4375 Q781.1406,126.4375 781.375,126.7031 Q781.6094,126.9531 781.6094,127.5625 L781.6094,129.0156 Q781.6094,129.625 781.375,129.8906 Q781.1406,130.1563 780.7656,130.1563 Q780.4219,130.1563 780.2188,129.9531 Q780.0156,129.7656 779.9063,129.25 Q779.8594,128.8906 779.6719,128.7031 Q779.3438,128.3281 778.7344,128.1094 Q778.125,127.8906 777.5,127.8906 Q776.7344,127.8906 776.0938,128.2188 Q775.4688,128.5469 774.9688,129.2969 Q774.4844,130.0469 774.4844,131.0781 L774.4844,132.1719 Q774.4844,133.4063 775.375,134.2344 Q776.2656,135.0469 777.8594,135.0469 Q778.7969,135.0469 779.4531,134.7969 Q779.8438,134.6406 780.2656,134.2031 Q780.5313,133.9375 780.6719,133.8594 Q780.8281,133.7813 781.0313,133.7813 Q781.3594,133.7813 781.6094,134.0469 Q781.875,134.2969 781.875,134.6406 Q781.875,134.9844 781.5313,135.3906 Q781.0313,135.9688 780.2344,136.2969 Q779.1563,136.75 777.8594,136.75 Q776.3438,136.75 775.1406,136.125 Q774.1563,135.625 773.4688,134.5625 Q772.7813,133.4844 772.7813,132.2031 L772.7813,131.0469 Q772.7813,129.7188 773.3906,128.5781 Q774.0156,127.4219 775.1094,126.8125 Q776.2031,126.1875 777.4375,126.1875 Q778.1719,126.1875 778.8125,126.3594 Q779.4688,126.5156 780.0156,126.875 Z " fill="#000000"/><text fill="#000000" font-family="sans-serif" font-size="14" lengthAdjust="spacing" textLength="60" x="797.75" y="136.7285">TeleType</text><line style="stroke:#181818;stroke-width:0.5;" x1="8" x2="1615" y1="147" y2="147"/><rect fill="none" height="6" style="stroke:#C82930;stroke-width:1.0;" width="6" x="15" y="155"/><text fill="#000000" font-family="sans-serif" font-size="14" lengthAdjust="spacing" textLength="1583" x="27" y="165.5332">label01 : string = "Example &lt;sprite=2&gt; of using &lt;sprite=7&gt; &lt;#ffa000&gt;Graphics Inline&lt;/color&gt; &lt;sprite=5&gt; with Text in &lt;font=\"Bangers SDF\" material=\"Bangers SDF - Drop Shadow\"&gt;TextMesh&lt;#40a0ff&gt;Pro&lt;/color&gt;&lt;/font&gt;&lt;sprite=0&gt; and Unity&lt;sprite=1&gt;"</text><rect fill="none" height="6" style="stroke:#C82930;stroke-width:1.0;" width="6" x="15" y="172.6094"/><text fill="#000000" font-family="sans-serif" font-size="14" lengthAdjust="spacing" textLength="1583" x="27" y="183.1426">label02 : string = "Example &lt;sprite=2&gt; of using &lt;sprite=7&gt; &lt;#ffa000&gt;Graphics Inline&lt;/color&gt; &lt;sprite=5&gt; with Text in &lt;font=\"Bangers SDF\" material=\"Bangers SDF - Drop Shadow\"&gt;TextMesh&lt;#40a0ff&gt;Pro&lt;/color&gt;&lt;/font&gt;&lt;sprite=0&gt; and Unity&lt;sprite=2&gt;"</text><line style="stroke:#181818;stroke-width:0.5;" x1="8" x2="1615" y1="190.2188" y2="190.2188"/><text fill="#000000" font-family="sans-serif" font-size="14" lengthAdjust="spacing" textLength="89" x="13" y="208.752">Awake() : void</text><text fill="#000000" font-family="sans-serif" font-size="14" lengthAdjust="spacing" textLength="129" x="13" y="226.3613">Start() : IEnumerator</text></g><!--MD5=[83b3cf3d23d77c6f1e1b5291a241bc2a]
class MonoBehaviour--><g id="elem_MonoBehaviour"><rect fill="#F1F1F1" height="48" id="MonoBehaviour" rx="2.5" ry="2.5" style="stroke:#181818;stroke-width:0.5;" width="131" x="746" y="7"/><ellipse cx="761" cy="23" fill="#ADD1B2" rx="11" ry="11" style="stroke:#181818;stroke-width:1.0;"/><path d="M763.7656,18.875 Q763.9219,18.6563 764.1094,18.5469 Q764.2969,18.4375 764.5156,18.4375 Q764.8906,18.4375 765.125,18.7031 Q765.3594,18.9531 765.3594,19.5625 L765.3594,21.0156 Q765.3594,21.625 765.125,21.8906 Q764.8906,22.1563 764.5156,22.1563 Q764.1719,22.1563 763.9688,21.9531 Q763.7656,21.7656 763.6563,21.25 Q763.6094,20.8906 763.4219,20.7031 Q763.0938,20.3281 762.4844,20.1094 Q761.875,19.8906 761.25,19.8906 Q760.4844,19.8906 759.8438,20.2188 Q759.2188,20.5469 758.7188,21.2969 Q758.2344,22.0469 758.2344,23.0781 L758.2344,24.1719 Q758.2344,25.4063 759.125,26.2344 Q760.0156,27.0469 761.6094,27.0469 Q762.5469,27.0469 763.2031,26.7969 Q763.5938,26.6406 764.0156,26.2031 Q764.2813,25.9375 764.4219,25.8594 Q764.5781,25.7813 764.7813,25.7813 Q765.1094,25.7813 765.3594,26.0469 Q765.625,26.2969 765.625,26.6406 Q765.625,26.9844 765.2813,27.3906 Q764.7813,27.9688 763.9844,28.2969 Q762.9063,28.75 761.6094,28.75 Q760.0938,28.75 758.8906,28.125 Q757.9063,27.625 757.2188,26.5625 Q756.5313,25.4844 756.5313,24.2031 L756.5313,23.0469 Q756.5313,21.7188 757.1406,20.5781 Q757.7656,19.4219 758.8594,18.8125 Q759.9531,18.1875 761.1875,18.1875 Q761.9219,18.1875 762.5625,18.3594 Q763.2188,18.5156 763.7656,18.875 Z " fill="#000000"/><text fill="#000000" font-family="sans-serif" font-size="14" lengthAdjust="spacing" textLength="99" x="775" y="28.7285">MonoBehaviour</text><line style="stroke:#181818;stroke-width:0.5;" x1="747" x2="876" y1="39" y2="39"/><line style="stroke:#181818;stroke-width:0.5;" x1="747" x2="876" y1="47" y2="47"/></g><!--MD5=[fa07864ef55e7d1943fa981e1ee9b4e7]
class TMP_Text--><g id="elem_TMP_Text"><rect fill="#F1F1F1" height="48" id="TMP_Text" rx="2.5" ry="2.5" style="stroke:#181818;stroke-width:0.5;" width="96" x="763.5" y="293"/><ellipse cx="778.5" cy="309" fill="#ADD1B2" rx="11" ry="11" style="stroke:#181818;stroke-width:1.0;"/><path d="M781.2656,304.875 Q781.4219,304.6563 781.6094,304.5469 Q781.7969,304.4375 782.0156,304.4375 Q782.3906,304.4375 782.625,304.7031 Q782.8594,304.9531 782.8594,305.5625 L782.8594,307.0156 Q782.8594,307.625 782.625,307.8906 Q782.3906,308.1563 782.0156,308.1563 Q781.6719,308.1563 781.4688,307.9531 Q781.2656,307.7656 781.1563,307.25 Q781.1094,306.8906 780.9219,306.7031 Q780.5938,306.3281 779.9844,306.1094 Q779.375,305.8906 778.75,305.8906 Q777.9844,305.8906 777.3438,306.2188 Q776.7188,306.5469 776.2188,307.2969 Q775.7344,308.0469 775.7344,309.0781 L775.7344,310.1719 Q775.7344,311.4063 776.625,312.2344 Q777.5156,313.0469 779.1094,313.0469 Q780.0469,313.0469 780.7031,312.7969 Q781.0938,312.6406 781.5156,312.2031 Q781.7813,311.9375 781.9219,311.8594 Q782.0781,311.7813 782.2813,311.7813 Q782.6094,311.7813 782.8594,312.0469 Q783.125,312.2969 783.125,312.6406 Q783.125,312.9844 782.7813,313.3906 Q782.2813,313.9688 781.4844,314.2969 Q780.4063,314.75 779.1094,314.75 Q777.5938,314.75 776.3906,314.125 Q775.4063,313.625 774.7188,312.5625 Q774.0313,311.4844 774.0313,310.2031 L774.0313,309.0469 Q774.0313,307.7188 774.6406,306.5781 Q775.2656,305.4219 776.3594,304.8125 Q777.4531,304.1875 778.6875,304.1875 Q779.4219,304.1875 780.0625,304.3594 Q780.7188,304.5156 781.2656,304.875 Z " fill="#000000"/><text fill="#000000" font-family="sans-serif" font-size="14" lengthAdjust="spacing" textLength="64" x="792.5" y="314.7285">TMP_Text</text><line style="stroke:#181818;stroke-width:0.5;" x1="764.5" x2="858.5" y1="325" y2="325"/><line style="stroke:#181818;stroke-width:0.5;" x1="764.5" x2="858.5" y1="333" y2="333"/></g><!--MD5=[dc3e1f7d76d4172025b7188684356a98]
reverse link MonoBehaviour to TeleType--><g id="link_MonoBehaviour_TeleType"><path codeLine="7" d="M811.5,75.33 C811.5,87.86 811.5,101.73 811.5,114.99 " fill="none" id="MonoBehaviour-backto-TeleType" style="stroke:#181818;stroke-width:1.0;"/><polygon fill="none" points="804.5,75.28,811.5,55.28,818.5,75.28,804.5,75.28" style="stroke:#181818;stroke-width:1.0;"/></g><!--MD5=[8d8b81b84e5567a55b9275b2cc98c456]
link TeleType to TMP_Text--><g id="link_TeleType_TMP_Text"><path codeLine="8" d="M811.5,233.16 C811.5,251.97 811.5,272 811.5,287.64 " fill="none" id="TeleType-to-TMP_Text" style="stroke:#181818;stroke-width:1.0;"/><polygon fill="#181818" points="811.5,292.77,815.5,283.77,811.5,287.77,807.5,283.77,811.5,292.77" style="stroke:#181818;stroke-width:1.0;"/><text fill="#000000" font-family="sans-serif" font-size="13" lengthAdjust="spacing" textLength="92" x="707.7125" y="282.0512">m_textMeshPro</text></g><!--MD5=[3182610f20f4999b29616c19d9f65d2c]
@startuml
class TeleType {
    - label01 : string = "Example <sprite=2> of using <sprite=7> <#ffa000>Graphics Inline</color> <sprite=5> with Text in <font=\"Bangers SDF\" material=\"Bangers SDF - Drop Shadow\">TextMesh<#40a0ff>Pro</color></font><sprite=0> and Unity<sprite=1>"
    - label02 : string = "Example <sprite=2> of using <sprite=7> <#ffa000>Graphics Inline</color> <sprite=5> with Text in <font=\"Bangers SDF\" material=\"Bangers SDF - Drop Shadow\">TextMesh<#40a0ff>Pro</color></font><sprite=0> and Unity<sprite=2>"
    Awake() : void
    Start() : IEnumerator
}
MonoBehaviour <|- - TeleType
TeleType - -> "m_textMeshPro" TMP_Text
@enduml

PlantUML version 1.2022.5(Sat Apr 30 12:55:52 CEST 2022)
(GPL source distribution)
Java Runtime: Java(TM) SE Runtime Environment
JVM: Java HotSpot(TM) 64-Bit Server VM
Default Encoding: UTF-8
Language: en
Country: GB
--></g></svg>