<?xml version="1.0" encoding="UTF-8" standalone="no"?><svg xmlns="http://www.w3.org/2000/svg" xmlns:xlink="http://www.w3.org/1999/xlink" contentStyleType="text/css" height="348px" preserveAspectRatio="none" style="width:312px;height:348px;background:#FFFFFF;" version="1.1" viewBox="0 0 312 348" width="312px" zoomAndPan="magnify"><defs/><g><!--MD5=[69283720eabe76b2ba5b9bdf3338a2d3]
class WorldUIManager--><g id="elem_WorldUIManager"><rect codeLine="1" fill="#F1F1F1" height="118.4375" id="WorldUIManager" rx="2.5" ry="2.5" style="stroke:#181818;stroke-width:0.5;" width="166" x="27.7547" y="115"/><ellipse cx="55.8047" cy="131" fill="#ADD1B2" rx="11" ry="11" style="stroke:#181818;stroke-width:1.0;"/><path d="M58.5703,126.875 Q58.7266,126.6563 58.9141,126.5469 Q59.1016,126.4375 59.3203,126.4375 Q59.6953,126.4375 59.9297,126.7031 Q60.1641,126.9531 60.1641,127.5625 L60.1641,129.0156 Q60.1641,129.625 59.9297,129.8906 Q59.6953,130.1563 59.3203,130.1563 Q58.9766,130.1563 58.7734,129.9531 Q58.5703,129.7656 58.4609,129.25 Q58.4141,128.8906 58.2266,128.7031 Q57.8984,128.3281 57.2891,128.1094 Q56.6797,127.8906 56.0547,127.8906 Q55.2891,127.8906 54.6484,128.2188 Q54.0234,128.5469 53.5234,129.2969 Q53.0391,130.0469 53.0391,131.0781 L53.0391,132.1719 Q53.0391,133.4063 53.9297,134.2344 Q54.8203,135.0469 56.4141,135.0469 Q57.3516,135.0469 58.0078,134.7969 Q58.3984,134.6406 58.8203,134.2031 Q59.0859,133.9375 59.2266,133.8594 Q59.3828,133.7813 59.5859,133.7813 Q59.9141,133.7813 60.1641,134.0469 Q60.4297,134.2969 60.4297,134.6406 Q60.4297,134.9844 60.0859,135.3906 Q59.5859,135.9688 58.7891,136.2969 Q57.7109,136.75 56.4141,136.75 Q54.8984,136.75 53.6953,136.125 Q52.7109,135.625 52.0234,134.5625 Q51.3359,133.4844 51.3359,132.2031 L51.3359,131.0469 Q51.3359,129.7188 51.9453,128.5781 Q52.5703,127.4219 53.6641,126.8125 Q54.7578,126.1875 55.9922,126.1875 Q56.7266,126.1875 57.3672,126.3594 Q58.0234,126.5156 58.5703,126.875 Z " fill="#000000"/><text fill="#000000" font-family="sans-serif" font-size="14" lengthAdjust="spacing" textLength="105" x="72.7047" y="136.7285">WorldUIManager</text><line style="stroke:#181818;stroke-width:0.5;" x1="28.7547" x2="192.7547" y1="147" y2="147"/><line style="stroke:#181818;stroke-width:0.5;" x1="28.7547" x2="192.7547" y1="155" y2="155"/><rect fill="#F24D5C" height="6" style="stroke:#C82930;stroke-width:1.0;" width="6" x="35.7547" y="163"/><text fill="#000000" font-family="sans-serif" font-size="14" lengthAdjust="spacing" textLength="78" x="47.7547" y="173.5332">Start() : void</text><rect fill="#F24D5C" height="6" style="stroke:#C82930;stroke-width:1.0;" width="6" x="35.7547" y="180.6094"/><text fill="#000000" font-family="sans-serif" font-size="14" lengthAdjust="spacing" textLength="93" x="47.7547" y="191.1426">Update() : void</text><ellipse cx="38.7547" cy="201.2188" fill="#84BE84" rx="3" ry="3" style="stroke:#038048;stroke-width:1.0;"/><text fill="#000000" font-family="sans-serif" font-size="14" lengthAdjust="spacing" textLength="116" x="47.7547" y="208.752">disconnect() : void</text><ellipse cx="38.7547" cy="218.8281" fill="#84BE84" rx="3" ry="3" style="stroke:#038048;stroke-width:1.0;"/><text fill="#000000" font-family="sans-serif" font-size="14" lengthAdjust="spacing" textLength="140" x="47.7547" y="226.3613">continueGame() : void</text></g><!--MD5=[83b3cf3d23d77c6f1e1b5291a241bc2a]
class MonoBehaviour--><g id="elem_MonoBehaviour"><rect fill="#F1F1F1" height="48" id="MonoBehaviour" rx="2.5" ry="2.5" style="stroke:#181818;stroke-width:0.5;" width="131" x="45.2547" y="7"/><ellipse cx="60.2547" cy="23" fill="#ADD1B2" rx="11" ry="11" style="stroke:#181818;stroke-width:1.0;"/><path d="M63.0203,18.875 Q63.1766,18.6563 63.3641,18.5469 Q63.5516,18.4375 63.7703,18.4375 Q64.1453,18.4375 64.3797,18.7031 Q64.6141,18.9531 64.6141,19.5625 L64.6141,21.0156 Q64.6141,21.625 64.3797,21.8906 Q64.1453,22.1563 63.7703,22.1563 Q63.4266,22.1563 63.2234,21.9531 Q63.0203,21.7656 62.9109,21.25 Q62.8641,20.8906 62.6766,20.7031 Q62.3484,20.3281 61.7391,20.1094 Q61.1297,19.8906 60.5047,19.8906 Q59.7391,19.8906 59.0984,20.2188 Q58.4734,20.5469 57.9734,21.2969 Q57.4891,22.0469 57.4891,23.0781 L57.4891,24.1719 Q57.4891,25.4063 58.3797,26.2344 Q59.2703,27.0469 60.8641,27.0469 Q61.8016,27.0469 62.4578,26.7969 Q62.8484,26.6406 63.2703,26.2031 Q63.5359,25.9375 63.6766,25.8594 Q63.8328,25.7813 64.0359,25.7813 Q64.3641,25.7813 64.6141,26.0469 Q64.8797,26.2969 64.8797,26.6406 Q64.8797,26.9844 64.5359,27.3906 Q64.0359,27.9688 63.2391,28.2969 Q62.1609,28.75 60.8641,28.75 Q59.3484,28.75 58.1453,28.125 Q57.1609,27.625 56.4734,26.5625 Q55.7859,25.4844 55.7859,24.2031 L55.7859,23.0469 Q55.7859,21.7188 56.3953,20.5781 Q57.0203,19.4219 58.1141,18.8125 Q59.2078,18.1875 60.4422,18.1875 Q61.1766,18.1875 61.8172,18.3594 Q62.4734,18.5156 63.0203,18.875 Z " fill="#000000"/><text fill="#000000" font-family="sans-serif" font-size="14" lengthAdjust="spacing" textLength="99" x="74.2547" y="28.7285">MonoBehaviour</text><line style="stroke:#181818;stroke-width:0.5;" x1="46.2547" x2="175.2547" y1="39" y2="39"/><line style="stroke:#181818;stroke-width:0.5;" x1="46.2547" x2="175.2547" y1="47" y2="47"/></g><!--MD5=[fa07864ef55e7d1943fa981e1ee9b4e7]
class TMP_Text--><g id="elem_TMP_Text"><rect fill="#F1F1F1" height="48" id="TMP_Text" rx="2.5" ry="2.5" style="stroke:#181818;stroke-width:0.5;" width="96" x="62.7547" y="293"/><ellipse cx="77.7547" cy="309" fill="#ADD1B2" rx="11" ry="11" style="stroke:#181818;stroke-width:1.0;"/><path d="M80.5203,304.875 Q80.6766,304.6563 80.8641,304.5469 Q81.0516,304.4375 81.2703,304.4375 Q81.6453,304.4375 81.8797,304.7031 Q82.1141,304.9531 82.1141,305.5625 L82.1141,307.0156 Q82.1141,307.625 81.8797,307.8906 Q81.6453,308.1563 81.2703,308.1563 Q80.9266,308.1563 80.7234,307.9531 Q80.5203,307.7656 80.4109,307.25 Q80.3641,306.8906 80.1766,306.7031 Q79.8484,306.3281 79.2391,306.1094 Q78.6297,305.8906 78.0047,305.8906 Q77.2391,305.8906 76.5984,306.2188 Q75.9734,306.5469 75.4734,307.2969 Q74.9891,308.0469 74.9891,309.0781 L74.9891,310.1719 Q74.9891,311.4063 75.8797,312.2344 Q76.7703,313.0469 78.3641,313.0469 Q79.3016,313.0469 79.9578,312.7969 Q80.3484,312.6406 80.7703,312.2031 Q81.0359,311.9375 81.1766,311.8594 Q81.3328,311.7813 81.5359,311.7813 Q81.8641,311.7813 82.1141,312.0469 Q82.3797,312.2969 82.3797,312.6406 Q82.3797,312.9844 82.0359,313.3906 Q81.5359,313.9688 80.7391,314.2969 Q79.6609,314.75 78.3641,314.75 Q76.8484,314.75 75.6453,314.125 Q74.6609,313.625 73.9734,312.5625 Q73.2859,311.4844 73.2859,310.2031 L73.2859,309.0469 Q73.2859,307.7188 73.8953,306.5781 Q74.5203,305.4219 75.6141,304.8125 Q76.7078,304.1875 77.9422,304.1875 Q78.6766,304.1875 79.3172,304.3594 Q79.9734,304.5156 80.5203,304.875 Z " fill="#000000"/><text fill="#000000" font-family="sans-serif" font-size="14" lengthAdjust="spacing" textLength="64" x="91.7547" y="314.7285">TMP_Text</text><line style="stroke:#181818;stroke-width:0.5;" x1="63.7547" x2="157.7547" y1="325" y2="325"/><line style="stroke:#181818;stroke-width:0.5;" x1="63.7547" x2="157.7547" y1="333" y2="333"/></g><!--MD5=[064f7a74fee85463ec1a30143664ee17]
class GameObject--><g id="elem_GameObject"><rect fill="#F1F1F1" height="48" id="GameObject" rx="2.5" ry="2.5" style="stroke:#181818;stroke-width:0.5;" width="111" x="194.2547" y="293"/><ellipse cx="209.2547" cy="309" fill="#ADD1B2" rx="11" ry="11" style="stroke:#181818;stroke-width:1.0;"/><path d="M212.0203,304.875 Q212.1766,304.6563 212.3641,304.5469 Q212.5516,304.4375 212.7703,304.4375 Q213.1453,304.4375 213.3797,304.7031 Q213.6141,304.9531 213.6141,305.5625 L213.6141,307.0156 Q213.6141,307.625 213.3797,307.8906 Q213.1453,308.1563 212.7703,308.1563 Q212.4266,308.1563 212.2234,307.9531 Q212.0203,307.7656 211.9109,307.25 Q211.8641,306.8906 211.6766,306.7031 Q211.3484,306.3281 210.7391,306.1094 Q210.1297,305.8906 209.5047,305.8906 Q208.7391,305.8906 208.0984,306.2188 Q207.4734,306.5469 206.9734,307.2969 Q206.4891,308.0469 206.4891,309.0781 L206.4891,310.1719 Q206.4891,311.4063 207.3797,312.2344 Q208.2703,313.0469 209.8641,313.0469 Q210.8016,313.0469 211.4578,312.7969 Q211.8484,312.6406 212.2703,312.2031 Q212.5359,311.9375 212.6766,311.8594 Q212.8328,311.7813 213.0359,311.7813 Q213.3641,311.7813 213.6141,312.0469 Q213.8797,312.2969 213.8797,312.6406 Q213.8797,312.9844 213.5359,313.3906 Q213.0359,313.9688 212.2391,314.2969 Q211.1609,314.75 209.8641,314.75 Q208.3484,314.75 207.1453,314.125 Q206.1609,313.625 205.4734,312.5625 Q204.7859,311.4844 204.7859,310.2031 L204.7859,309.0469 Q204.7859,307.7188 205.3953,306.5781 Q206.0203,305.4219 207.1141,304.8125 Q208.2078,304.1875 209.4422,304.1875 Q210.1766,304.1875 210.8172,304.3594 Q211.4734,304.5156 212.0203,304.875 Z " fill="#000000"/><text fill="#000000" font-family="sans-serif" font-size="14" lengthAdjust="spacing" textLength="79" x="223.2547" y="314.7285">GameObject</text><line style="stroke:#181818;stroke-width:0.5;" x1="195.2547" x2="304.2547" y1="325" y2="325"/><line style="stroke:#181818;stroke-width:0.5;" x1="195.2547" x2="304.2547" y1="333" y2="333"/></g><!--MD5=[e61635db3e703590ab0958c409571cfc]
reverse link MonoBehaviour to WorldUIManager--><g id="link_MonoBehaviour_WorldUIManager"><path codeLine="7" d="M110.7547,75.33 C110.7547,87.86 110.7547,101.73 110.7547,114.99 " fill="none" id="MonoBehaviour-backto-WorldUIManager" style="stroke:#181818;stroke-width:1.0;"/><polygon fill="none" points="103.7547,75.28,110.7547,55.28,117.7547,75.28,103.7547,75.28" style="stroke:#181818;stroke-width:1.0;"/></g><!--MD5=[71ec4f9179db81f4e91126c8943b0159]
link WorldUIManager to TMP_Text--><g id="link_WorldUIManager_TMP_Text"><path codeLine="8" d="M98.1847,233.16 C97.6447,251.97 98.3447,272 100.2947,287.64 " fill="none" id="WorldUIManager-to-TMP_Text" style="stroke:#181818;stroke-width:1.0;"/><polygon fill="#181818" points="101.0047,292.77,103.7337,283.3068,100.3196,287.8172,95.8092,284.403,101.0047,292.77" style="stroke:#181818;stroke-width:1.0;"/><text fill="#000000" font-family="sans-serif" font-size="13" lengthAdjust="spacing" textLength="82" x="6" y="282.0512">roomIdDisplay</text></g><!--MD5=[71ec4f9179db81f4e91126c8943b0159]
link WorldUIManager to TMP_Text--><g id="link_WorldUIManager_TMP_Text"><path codeLine="9" d="M124.0647,233.16 C124.6447,251.97 123.8947,272 121.8247,287.64 " fill="none" id="WorldUIManager-to-TMP_Text-1" style="stroke:#181818;stroke-width:1.0;"/><polygon fill="#181818" points="121.0747,292.77,126.3443,284.4495,121.8038,287.8234,118.4299,283.2829,121.0747,292.77" style="stroke:#181818;stroke-width:1.0;"/><text fill="#000000" font-family="sans-serif" font-size="13" lengthAdjust="spacing" textLength="75" x="133.3286" y="282.0512">nameDisplay</text></g><!--MD5=[873a36126854dc1e4980f85c3f934c1e]
link WorldUIManager to GameObject--><g id="link_WorldUIManager_GameObject"><path codeLine="10" d="M168.0947,233.16 C187.1247,252.47 207.4047,273.04 222.9947,288.86 " fill="none" id="WorldUIManager-to-GameObject" style="stroke:#181818;stroke-width:1.0;"/><polygon fill="#181818" points="226.8547,292.77,223.3934,283.5494,223.3478,289.2061,217.6911,289.1605,226.8547,292.77" style="stroke:#181818;stroke-width:1.0;"/><text fill="#000000" font-family="sans-serif" font-size="13" lengthAdjust="spacing" textLength="67" x="229.5709" y="282.0512">pauseMenu</text></g><!--MD5=[29fa9b0d17a975f719d999e0d4d25855]
@startuml
class WorldUIManager {
    - Start() : void
    - Update() : void
    + disconnect() : void
    + continueGame() : void
}
MonoBehaviour <|- - WorldUIManager
WorldUIManager - -> "roomIdDisplay" TMP_Text
WorldUIManager - -> "nameDisplay" TMP_Text
WorldUIManager - -> "pauseMenu" GameObject
@enduml

PlantUML version 1.2022.5(Sat Apr 30 12:55:52 CEST 2022)
(GPL source distribution)
Java Runtime: Java(TM) SE Runtime Environment
JVM: Java HotSpot(TM) 64-Bit Server VM
Default Encoding: UTF-8
Language: en
Country: GB
--></g></svg>