<?xml version="1.0" encoding="UTF-8" standalone="no"?><svg xmlns="http://www.w3.org/2000/svg" xmlns:xlink="http://www.w3.org/1999/xlink" contentStyleType="text/css" height="104px" preserveAspectRatio="none" style="width:288px;height:104px;background:#FFFFFF;" version="1.1" viewBox="0 0 288 104" width="288px" zoomAndPan="magnify"><defs/><g><!--MD5=[5ba72f964b9be9b2b39daf327018563c]
class UpdateChecker--><g id="elem_UpdateChecker"><rect codeLine="1" fill="#F1F1F1" height="83.2188" id="UpdateChecker" rx="2.5" ry="2.5" style="stroke:#181818;stroke-width:0.5;" width="267" x="7" y="7"/><ellipse cx="87.25" cy="23" fill="#ADD1B2" rx="11" ry="11" style="stroke:#181818;stroke-width:1.0;"/><path d="M90.0156,18.875 Q90.1719,18.6563 90.3594,18.5469 Q90.5469,18.4375 90.7656,18.4375 Q91.1406,18.4375 91.375,18.7031 Q91.6094,18.9531 91.6094,19.5625 L91.6094,21.0156 Q91.6094,21.625 91.375,21.8906 Q91.1406,22.1563 90.7656,22.1563 Q90.4219,22.1563 90.2188,21.9531 Q90.0156,21.7656 89.9063,21.25 Q89.8594,20.8906 89.6719,20.7031 Q89.3438,20.3281 88.7344,20.1094 Q88.125,19.8906 87.5,19.8906 Q86.7344,19.8906 86.0938,20.2188 Q85.4688,20.5469 84.9688,21.2969 Q84.4844,22.0469 84.4844,23.0781 L84.4844,24.1719 Q84.4844,25.4063 85.375,26.2344 Q86.2656,27.0469 87.8594,27.0469 Q88.7969,27.0469 89.4531,26.7969 Q89.8438,26.6406 90.2656,26.2031 Q90.5313,25.9375 90.6719,25.8594 Q90.8281,25.7813 91.0313,25.7813 Q91.3594,25.7813 91.6094,26.0469 Q91.875,26.2969 91.875,26.6406 Q91.875,26.9844 91.5313,27.3906 Q91.0313,27.9688 90.2344,28.2969 Q89.1563,28.75 87.8594,28.75 Q86.3438,28.75 85.1406,28.125 Q84.1563,27.625 83.4688,26.5625 Q82.7813,25.4844 82.7813,24.2031 L82.7813,23.0469 Q82.7813,21.7188 83.3906,20.5781 Q84.0156,19.4219 85.1094,18.8125 Q86.2031,18.1875 87.4375,18.1875 Q88.1719,18.1875 88.8125,18.3594 Q89.4688,18.5156 90.0156,18.875 Z " fill="#000000"/><text fill="#000000" font-family="sans-serif" font-size="14" lengthAdjust="spacing" textLength="98" x="107.75" y="28.7285">UpdateChecker</text><line style="stroke:#181818;stroke-width:0.5;" x1="8" x2="273" y1="39" y2="39"/><ellipse cx="18" cy="50" fill="none" rx="3" ry="3" style="stroke:#038048;stroke-width:1.0;"/><text fill="#000000" font-family="sans-serif" font-size="14" lengthAdjust="spacing" textLength="241" x="27" y="57.5332">«const» LocalVersion : string = "1.5.1"</text><line style="stroke:#181818;stroke-width:0.5;" x1="8" x2="273" y1="64.6094" y2="64.6094"/><text fill="#000000" font-family="sans-serif" font-size="14" lengthAdjust="spacing" text-decoration="underline" textLength="155" x="13" y="83.1426">CheckForUpdate() : void</text></g><!--MD5=[57d8a39c9bd4eca20ca88c7fce6e0611]
@startuml
class UpdateChecker {
    + <<const>> LocalVersion : string = "1.5.1"
    {static} CheckForUpdate() : void
}
@enduml

PlantUML version 1.2022.5(Sat Apr 30 12:55:52 CEST 2022)
(GPL source distribution)
Java Runtime: Java(TM) SE Runtime Environment
JVM: Java HotSpot(TM) 64-Bit Server VM
Default Encoding: UTF-8
Language: en
Country: GB
--></g></svg>