<?xml version="1.0" encoding="UTF-8" standalone="no"?><svg xmlns="http://www.w3.org/2000/svg" xmlns:xlink="http://www.w3.org/1999/xlink" contentStyleType="text/css" height="348px" preserveAspectRatio="none" style="width:725px;height:348px;background:#FFFFFF;" version="1.1" viewBox="0 0 725 348" width="725px" zoomAndPan="magnify"><defs/><g><!--MD5=[594a8038298db7ae3aa30eb16000bdb8]
class SelectionUIManager--><g id="elem_SelectionUIManager"><rect codeLine="1" fill="#F1F1F1" height="118.4375" id="SelectionUIManager" rx="2.5" ry="2.5" style="stroke:#181818;stroke-width:0.5;" width="214" x="191.5" y="115"/><ellipse cx="231.7" cy="131" fill="#ADD1B2" rx="11" ry="11" style="stroke:#181818;stroke-width:1.0;"/><path d="M234.4656,126.875 Q234.6219,126.6563 234.8094,126.5469 Q234.9969,126.4375 235.2156,126.4375 Q235.5906,126.4375 235.825,126.7031 Q236.0594,126.9531 236.0594,127.5625 L236.0594,129.0156 Q236.0594,129.625 235.825,129.8906 Q235.5906,130.1563 235.2156,130.1563 Q234.8719,130.1563 234.6688,129.9531 Q234.4656,129.7656 234.3563,129.25 Q234.3094,128.8906 234.1219,128.7031 Q233.7938,128.3281 233.1844,128.1094 Q232.575,127.8906 231.95,127.8906 Q231.1844,127.8906 230.5438,128.2188 Q229.9188,128.5469 229.4188,129.2969 Q228.9344,130.0469 228.9344,131.0781 L228.9344,132.1719 Q228.9344,133.4063 229.825,134.2344 Q230.7156,135.0469 232.3094,135.0469 Q233.2469,135.0469 233.9031,134.7969 Q234.2938,134.6406 234.7156,134.2031 Q234.9813,133.9375 235.1219,133.8594 Q235.2781,133.7813 235.4813,133.7813 Q235.8094,133.7813 236.0594,134.0469 Q236.325,134.2969 236.325,134.6406 Q236.325,134.9844 235.9813,135.3906 Q235.4813,135.9688 234.6844,136.2969 Q233.6063,136.75 232.3094,136.75 Q230.7938,136.75 229.5906,136.125 Q228.6063,135.625 227.9188,134.5625 Q227.2313,133.4844 227.2313,132.2031 L227.2313,131.0469 Q227.2313,129.7188 227.8406,128.5781 Q228.4656,127.4219 229.5594,126.8125 Q230.6531,126.1875 231.8875,126.1875 Q232.6219,126.1875 233.2625,126.3594 Q233.9188,126.5156 234.4656,126.875 Z " fill="#000000"/><text fill="#000000" font-family="sans-serif" font-size="14" lengthAdjust="spacing" textLength="126" x="251.3" y="136.7285">SelectionUIManager</text><line style="stroke:#181818;stroke-width:0.5;" x1="192.5" x2="404.5" y1="147" y2="147"/><line style="stroke:#181818;stroke-width:0.5;" x1="192.5" x2="404.5" y1="155" y2="155"/><rect fill="#F24D5C" height="6" style="stroke:#C82930;stroke-width:1.0;" width="6" x="199.5" y="163"/><text fill="#000000" font-family="sans-serif" font-size="14" lengthAdjust="spacing" textLength="78" x="211.5" y="173.5332">Start() : void</text><text fill="#000000" font-family="sans-serif" font-size="14" lengthAdjust="spacing" textLength="104" x="211.5" y="191.1426">Populate() : void</text><ellipse cx="202.5" cy="201.2188" fill="#84BE84" rx="3" ry="3" style="stroke:#038048;stroke-width:1.0;"/><text fill="#000000" font-family="sans-serif" font-size="14" lengthAdjust="spacing" textLength="188" x="211.5" y="208.752">selectElement(index:int) : void</text><ellipse cx="202.5" cy="218.8281" fill="#84BE84" rx="3" ry="3" style="stroke:#038048;stroke-width:1.0;"/><text fill="#000000" font-family="sans-serif" font-size="14" lengthAdjust="spacing" textLength="165" x="211.5" y="226.3613">backToJoinScreen() : void</text></g><!--MD5=[e644022de7dea015dd09463c37421447]
class List`1--><g id="elem_List`1"><rect codeLine="7" fill="#F1F1F1" height="48" id="List`1" rx="2.5" ry="2.5" style="stroke:#181818;stroke-width:0.5;" width="78" x="440.5" y="150"/><ellipse cx="455.5" cy="166" fill="#ADD1B2" rx="11" ry="11" style="stroke:#181818;stroke-width:1.0;"/><path d="M458.2656,161.875 Q458.4219,161.6563 458.6094,161.5469 Q458.7969,161.4375 459.0156,161.4375 Q459.3906,161.4375 459.625,161.7031 Q459.8594,161.9531 459.8594,162.5625 L459.8594,164.0156 Q459.8594,164.625 459.625,164.8906 Q459.3906,165.1563 459.0156,165.1563 Q458.6719,165.1563 458.4688,164.9531 Q458.2656,164.7656 458.1563,164.25 Q458.1094,163.8906 457.9219,163.7031 Q457.5938,163.3281 456.9844,163.1094 Q456.375,162.8906 455.75,162.8906 Q454.9844,162.8906 454.3438,163.2188 Q453.7188,163.5469 453.2188,164.2969 Q452.7344,165.0469 452.7344,166.0781 L452.7344,167.1719 Q452.7344,168.4063 453.625,169.2344 Q454.5156,170.0469 456.1094,170.0469 Q457.0469,170.0469 457.7031,169.7969 Q458.0938,169.6406 458.5156,169.2031 Q458.7813,168.9375 458.9219,168.8594 Q459.0781,168.7813 459.2813,168.7813 Q459.6094,168.7813 459.8594,169.0469 Q460.125,169.2969 460.125,169.6406 Q460.125,169.9844 459.7813,170.3906 Q459.2813,170.9688 458.4844,171.2969 Q457.4063,171.75 456.1094,171.75 Q454.5938,171.75 453.3906,171.125 Q452.4063,170.625 451.7188,169.5625 Q451.0313,168.4844 451.0313,167.2031 L451.0313,166.0469 Q451.0313,164.7188 451.6406,163.5781 Q452.2656,162.4219 453.3594,161.8125 Q454.4531,161.1875 455.6875,161.1875 Q456.4219,161.1875 457.0625,161.3594 Q457.7188,161.5156 458.2656,161.875 Z " fill="#000000"/><text fill="#000000" font-family="sans-serif" font-size="14" lengthAdjust="spacing" textLength="35" x="469.5" y="171.7285">List`1</text><rect fill="#FFFFFF" height="17.0938" style="stroke:#000000;stroke-width:1.0;stroke-dasharray:2.0,2.0;" width="9" x="512.5" y="147"/><text fill="#000000" font-family="sans-serif" font-size="12" font-style="italic" lengthAdjust="spacing" textLength="7" x="513.5" y="160.457">T</text><line style="stroke:#181818;stroke-width:0.5;" x1="441.5" x2="517.5" y1="182" y2="182"/><line style="stroke:#181818;stroke-width:0.5;" x1="441.5" x2="517.5" y1="190" y2="190"/></g><!--MD5=[83b3cf3d23d77c6f1e1b5291a241bc2a]
class MonoBehaviour--><g id="elem_MonoBehaviour"><rect fill="#F1F1F1" height="48" id="MonoBehaviour" rx="2.5" ry="2.5" style="stroke:#181818;stroke-width:0.5;" width="131" x="233" y="7"/><ellipse cx="248" cy="23" fill="#ADD1B2" rx="11" ry="11" style="stroke:#181818;stroke-width:1.0;"/><path d="M250.7656,18.875 Q250.9219,18.6563 251.1094,18.5469 Q251.2969,18.4375 251.5156,18.4375 Q251.8906,18.4375 252.125,18.7031 Q252.3594,18.9531 252.3594,19.5625 L252.3594,21.0156 Q252.3594,21.625 252.125,21.8906 Q251.8906,22.1563 251.5156,22.1563 Q251.1719,22.1563 250.9688,21.9531 Q250.7656,21.7656 250.6563,21.25 Q250.6094,20.8906 250.4219,20.7031 Q250.0938,20.3281 249.4844,20.1094 Q248.875,19.8906 248.25,19.8906 Q247.4844,19.8906 246.8438,20.2188 Q246.2188,20.5469 245.7188,21.2969 Q245.2344,22.0469 245.2344,23.0781 L245.2344,24.1719 Q245.2344,25.4063 246.125,26.2344 Q247.0156,27.0469 248.6094,27.0469 Q249.5469,27.0469 250.2031,26.7969 Q250.5938,26.6406 251.0156,26.2031 Q251.2813,25.9375 251.4219,25.8594 Q251.5781,25.7813 251.7813,25.7813 Q252.1094,25.7813 252.3594,26.0469 Q252.625,26.2969 252.625,26.6406 Q252.625,26.9844 252.2813,27.3906 Q251.7813,27.9688 250.9844,28.2969 Q249.9063,28.75 248.6094,28.75 Q247.0938,28.75 245.8906,28.125 Q244.9063,27.625 244.2188,26.5625 Q243.5313,25.4844 243.5313,24.2031 L243.5313,23.0469 Q243.5313,21.7188 244.1406,20.5781 Q244.7656,19.4219 245.8594,18.8125 Q246.9531,18.1875 248.1875,18.1875 Q248.9219,18.1875 249.5625,18.3594 Q250.2188,18.5156 250.7656,18.875 Z " fill="#000000"/><text fill="#000000" font-family="sans-serif" font-size="14" lengthAdjust="spacing" textLength="99" x="262" y="28.7285">MonoBehaviour</text><line style="stroke:#181818;stroke-width:0.5;" x1="234" x2="363" y1="39" y2="39"/><line style="stroke:#181818;stroke-width:0.5;" x1="234" x2="363" y1="47" y2="47"/></g><!--MD5=[064f7a74fee85463ec1a30143664ee17]
class GameObject--><g id="elem_GameObject"><rect fill="#F1F1F1" height="48" id="GameObject" rx="2.5" ry="2.5" style="stroke:#181818;stroke-width:0.5;" width="111" x="7" y="293"/><ellipse cx="22" cy="309" fill="#ADD1B2" rx="11" ry="11" style="stroke:#181818;stroke-width:1.0;"/><path d="M24.7656,304.875 Q24.9219,304.6563 25.1094,304.5469 Q25.2969,304.4375 25.5156,304.4375 Q25.8906,304.4375 26.125,304.7031 Q26.3594,304.9531 26.3594,305.5625 L26.3594,307.0156 Q26.3594,307.625 26.125,307.8906 Q25.8906,308.1563 25.5156,308.1563 Q25.1719,308.1563 24.9688,307.9531 Q24.7656,307.7656 24.6563,307.25 Q24.6094,306.8906 24.4219,306.7031 Q24.0938,306.3281 23.4844,306.1094 Q22.875,305.8906 22.25,305.8906 Q21.4844,305.8906 20.8438,306.2188 Q20.2188,306.5469 19.7188,307.2969 Q19.2344,308.0469 19.2344,309.0781 L19.2344,310.1719 Q19.2344,311.4063 20.125,312.2344 Q21.0156,313.0469 22.6094,313.0469 Q23.5469,313.0469 24.2031,312.7969 Q24.5938,312.6406 25.0156,312.2031 Q25.2813,311.9375 25.4219,311.8594 Q25.5781,311.7813 25.7813,311.7813 Q26.1094,311.7813 26.3594,312.0469 Q26.625,312.2969 26.625,312.6406 Q26.625,312.9844 26.2813,313.3906 Q25.7813,313.9688 24.9844,314.2969 Q23.9063,314.75 22.6094,314.75 Q21.0938,314.75 19.8906,314.125 Q18.9063,313.625 18.2188,312.5625 Q17.5313,311.4844 17.5313,310.2031 L17.5313,309.0469 Q17.5313,307.7188 18.1406,306.5781 Q18.7656,305.4219 19.8594,304.8125 Q20.9531,304.1875 22.1875,304.1875 Q22.9219,304.1875 23.5625,304.3594 Q24.2188,304.5156 24.7656,304.875 Z " fill="#000000"/><text fill="#000000" font-family="sans-serif" font-size="14" lengthAdjust="spacing" textLength="79" x="36" y="314.7285">GameObject</text><line style="stroke:#181818;stroke-width:0.5;" x1="8" x2="117" y1="325" y2="325"/><line style="stroke:#181818;stroke-width:0.5;" x1="8" x2="117" y1="333" y2="333"/></g><!--MD5=[964f074a2dd77d134c21b891bb53e381]
class Image--><g id="elem_Image"><rect fill="#F1F1F1" height="48" id="Image" rx="2.5" ry="2.5" style="stroke:#181818;stroke-width:0.5;" width="70" x="153.5" y="293"/><ellipse cx="168.5" cy="309" fill="#ADD1B2" rx="11" ry="11" style="stroke:#181818;stroke-width:1.0;"/><path d="M171.2656,304.875 Q171.4219,304.6563 171.6094,304.5469 Q171.7969,304.4375 172.0156,304.4375 Q172.3906,304.4375 172.625,304.7031 Q172.8594,304.9531 172.8594,305.5625 L172.8594,307.0156 Q172.8594,307.625 172.625,307.8906 Q172.3906,308.1563 172.0156,308.1563 Q171.6719,308.1563 171.4688,307.9531 Q171.2656,307.7656 171.1563,307.25 Q171.1094,306.8906 170.9219,306.7031 Q170.5938,306.3281 169.9844,306.1094 Q169.375,305.8906 168.75,305.8906 Q167.9844,305.8906 167.3438,306.2188 Q166.7188,306.5469 166.2188,307.2969 Q165.7344,308.0469 165.7344,309.0781 L165.7344,310.1719 Q165.7344,311.4063 166.625,312.2344 Q167.5156,313.0469 169.1094,313.0469 Q170.0469,313.0469 170.7031,312.7969 Q171.0938,312.6406 171.5156,312.2031 Q171.7813,311.9375 171.9219,311.8594 Q172.0781,311.7813 172.2813,311.7813 Q172.6094,311.7813 172.8594,312.0469 Q173.125,312.2969 173.125,312.6406 Q173.125,312.9844 172.7813,313.3906 Q172.2813,313.9688 171.4844,314.2969 Q170.4063,314.75 169.1094,314.75 Q167.5938,314.75 166.3906,314.125 Q165.4063,313.625 164.7188,312.5625 Q164.0313,311.4844 164.0313,310.2031 L164.0313,309.0469 Q164.0313,307.7188 164.6406,306.5781 Q165.2656,305.4219 166.3594,304.8125 Q167.4531,304.1875 168.6875,304.1875 Q169.4219,304.1875 170.0625,304.3594 Q170.7188,304.5156 171.2656,304.875 Z " fill="#000000"/><text fill="#000000" font-family="sans-serif" font-size="14" lengthAdjust="spacing" textLength="38" x="182.5" y="314.7285">Image</text><line style="stroke:#181818;stroke-width:0.5;" x1="154.5" x2="222.5" y1="325" y2="325"/><line style="stroke:#181818;stroke-width:0.5;" x1="154.5" x2="222.5" y1="333" y2="333"/></g><!--MD5=[5edf34eb39d3b3dfde6419c044ab889f]
class Canvas--><g id="elem_Canvas"><rect fill="#F1F1F1" height="48" id="Canvas" rx="2.5" ry="2.5" style="stroke:#181818;stroke-width:0.5;" width="80" x="258.5" y="293"/><ellipse cx="273.5" cy="309" fill="#ADD1B2" rx="11" ry="11" style="stroke:#181818;stroke-width:1.0;"/><path d="M276.2656,304.875 Q276.4219,304.6563 276.6094,304.5469 Q276.7969,304.4375 277.0156,304.4375 Q277.3906,304.4375 277.625,304.7031 Q277.8594,304.9531 277.8594,305.5625 L277.8594,307.0156 Q277.8594,307.625 277.625,307.8906 Q277.3906,308.1563 277.0156,308.1563 Q276.6719,308.1563 276.4688,307.9531 Q276.2656,307.7656 276.1563,307.25 Q276.1094,306.8906 275.9219,306.7031 Q275.5938,306.3281 274.9844,306.1094 Q274.375,305.8906 273.75,305.8906 Q272.9844,305.8906 272.3438,306.2188 Q271.7188,306.5469 271.2188,307.2969 Q270.7344,308.0469 270.7344,309.0781 L270.7344,310.1719 Q270.7344,311.4063 271.625,312.2344 Q272.5156,313.0469 274.1094,313.0469 Q275.0469,313.0469 275.7031,312.7969 Q276.0938,312.6406 276.5156,312.2031 Q276.7813,311.9375 276.9219,311.8594 Q277.0781,311.7813 277.2813,311.7813 Q277.6094,311.7813 277.8594,312.0469 Q278.125,312.2969 278.125,312.6406 Q278.125,312.9844 277.7813,313.3906 Q277.2813,313.9688 276.4844,314.2969 Q275.4063,314.75 274.1094,314.75 Q272.5938,314.75 271.3906,314.125 Q270.4063,313.625 269.7188,312.5625 Q269.0313,311.4844 269.0313,310.2031 L269.0313,309.0469 Q269.0313,307.7188 269.6406,306.5781 Q270.2656,305.4219 271.3594,304.8125 Q272.4531,304.1875 273.6875,304.1875 Q274.4219,304.1875 275.0625,304.3594 Q275.7188,304.5156 276.2656,304.875 Z " fill="#000000"/><text fill="#000000" font-family="sans-serif" font-size="14" lengthAdjust="spacing" textLength="48" x="287.5" y="314.7285">Canvas</text><line style="stroke:#181818;stroke-width:0.5;" x1="259.5" x2="337.5" y1="325" y2="325"/><line style="stroke:#181818;stroke-width:0.5;" x1="259.5" x2="337.5" y1="333" y2="333"/></g><!--MD5=[de50a9c30438ab93fe6ebb03c5028694]
class PlaneImageController--><g id="elem_PlaneImageController"><rect fill="#F1F1F1" height="48" id="PlaneImageController" rx="2.5" ry="2.5" style="stroke:#181818;stroke-width:0.5;" width="168" x="373.5" y="293"/><ellipse cx="388.5" cy="309" fill="#ADD1B2" rx="11" ry="11" style="stroke:#181818;stroke-width:1.0;"/><path d="M391.2656,304.875 Q391.4219,304.6563 391.6094,304.5469 Q391.7969,304.4375 392.0156,304.4375 Q392.3906,304.4375 392.625,304.7031 Q392.8594,304.9531 392.8594,305.5625 L392.8594,307.0156 Q392.8594,307.625 392.625,307.8906 Q392.3906,308.1563 392.0156,308.1563 Q391.6719,308.1563 391.4688,307.9531 Q391.2656,307.7656 391.1563,307.25 Q391.1094,306.8906 390.9219,306.7031 Q390.5938,306.3281 389.9844,306.1094 Q389.375,305.8906 388.75,305.8906 Q387.9844,305.8906 387.3438,306.2188 Q386.7188,306.5469 386.2188,307.2969 Q385.7344,308.0469 385.7344,309.0781 L385.7344,310.1719 Q385.7344,311.4063 386.625,312.2344 Q387.5156,313.0469 389.1094,313.0469 Q390.0469,313.0469 390.7031,312.7969 Q391.0938,312.6406 391.5156,312.2031 Q391.7813,311.9375 391.9219,311.8594 Q392.0781,311.7813 392.2813,311.7813 Q392.6094,311.7813 392.8594,312.0469 Q393.125,312.2969 393.125,312.6406 Q393.125,312.9844 392.7813,313.3906 Q392.2813,313.9688 391.4844,314.2969 Q390.4063,314.75 389.1094,314.75 Q387.5938,314.75 386.3906,314.125 Q385.4063,313.625 384.7188,312.5625 Q384.0313,311.4844 384.0313,310.2031 L384.0313,309.0469 Q384.0313,307.7188 384.6406,306.5781 Q385.2656,305.4219 386.3594,304.8125 Q387.4531,304.1875 388.6875,304.1875 Q389.4219,304.1875 390.0625,304.3594 Q390.7188,304.5156 391.2656,304.875 Z " fill="#000000"/><text fill="#000000" font-family="sans-serif" font-size="14" lengthAdjust="spacing" textLength="136" x="402.5" y="314.7285">PlaneImageController</text><line style="stroke:#181818;stroke-width:0.5;" x1="374.5" x2="540.5" y1="325" y2="325"/><line style="stroke:#181818;stroke-width:0.5;" x1="374.5" x2="540.5" y1="333" y2="333"/></g><!--MD5=[09c05859488f5a5d835d15e0a63d31e8]
reverse link MonoBehaviour to SelectionUIManager--><g id="link_MonoBehaviour_SelectionUIManager"><path codeLine="9" d="M298.5,75.33 C298.5,87.86 298.5,101.73 298.5,114.99 " fill="none" id="MonoBehaviour-backto-SelectionUIManager" style="stroke:#181818;stroke-width:1.0;"/><polygon fill="none" points="291.5,75.28,298.5,55.28,305.5,75.28,291.5,75.28" style="stroke:#181818;stroke-width:1.0;"/></g><!--MD5=[41f2f3682a9afecdbb9c480b23415b4d]
link SelectionUIManager to GameObject--><g id="link_SelectionUIManager_GameObject"><path codeLine="10" d="M201.15,233.16 C167.9,253.03 132.4,274.24 105.64,290.23 " fill="none" id="SelectionUIManager-to-GameObject" style="stroke:#181818;stroke-width:1.0;"/><polygon fill="#181818" points="101.08,292.95,110.86,291.7878,105.3775,290.3943,106.771,284.9118,101.08,292.95" style="stroke:#181818;stroke-width:1.0;"/><text fill="#000000" font-family="sans-serif" font-size="13" lengthAdjust="spacing" textLength="66" x="36.5099" y="282.2773">planeImage</text></g><!--MD5=[5e031cb4a8c05e076a19f6a8fb3f7dcc]
link SelectionUIManager to Image--><g id="link_SelectionUIManager_Image"><path codeLine="11" d="M253.12,233.16 C238.19,252.3 222.29,272.69 209.99,288.45 " fill="none" id="SelectionUIManager-to-Image" style="stroke:#181818;stroke-width:1.0;"/><polygon fill="#181818" points="206.62,292.77,215.3168,288.1477,209.7015,288.8325,209.0168,283.2172,206.62,292.77" style="stroke:#181818;stroke-width:1.0;"/><text fill="#000000" font-family="sans-serif" font-size="13" lengthAdjust="spacing" textLength="126" x="227.407" y="282.0512">selectedPlanePreview</text></g><!--MD5=[83af5ffa9c0351ce297ae1af9316cb0b]
link SelectionUIManager to Canvas--><g id="link_SelectionUIManager_Canvas"><path codeLine="12" d="M285.93,233.16 C285.39,251.97 286.09,272 288.04,287.64 " fill="none" id="SelectionUIManager-to-Canvas" style="stroke:#181818;stroke-width:1.0;"/><polygon fill="#181818" points="288.75,292.77,291.4791,283.3068,288.0649,287.8172,283.5545,284.403,288.75,292.77" style="stroke:#181818;stroke-width:1.0;"/><text fill="#000000" font-family="sans-serif" font-size="13" lengthAdjust="spacing" textLength="65" x="189.4235" y="282.4685">JoinCanvas</text></g><!--MD5=[83af5ffa9c0351ce297ae1af9316cb0b]
link SelectionUIManager to Canvas--><g id="link_SelectionUIManager_Canvas"><path codeLine="13" d="M311.81,233.16 C312.39,251.97 311.64,272 309.57,287.64 " fill="none" id="SelectionUIManager-to-Canvas-1" style="stroke:#181818;stroke-width:1.0;"/><polygon fill="#181818" points="308.82,292.77,314.0897,284.4495,309.5491,287.8234,306.1752,283.2829,308.82,292.77" style="stroke:#181818;stroke-width:1.0;"/><text fill="#000000" font-family="sans-serif" font-size="13" lengthAdjust="spacing" textLength="94" x="323.5083" y="282.0512">selectionCanvas</text></g><!--MD5=[c07092082245939646294bbbe60b3182]
link SelectionUIManager to List`1--><g id="link_SelectionUIManager_List`1"><path codeLine="14" d="M417.62,174 C417.62,174 424.44,174 427.22,174 " fill="none" id="SelectionUIManager-List`1" style="stroke:#181818;stroke-width:1.0;"/><polygon fill="#181818" points="440.25,174,431.25,170,435.25,174,431.25,178,440.25,174" style="stroke:#181818;stroke-width:1.0;"/><line style="stroke:#181818;stroke-width:1.0;" x1="435.25" x2="427.25" y1="174" y2="174"/><polygon fill="none" points="405.62,174,411.62,178,417.62,174,411.62,170,405.62,174" style="stroke:#181818;stroke-width:1.0;"/><text fill="#000000" font-family="sans-serif" font-size="13" lengthAdjust="spacing" textLength="192" x="526.7938" y="159.5632">allPlanes&lt;PlaneImageController&gt;</text></g><!--MD5=[1b02117c9854da73f6bb8adf2961da85]
link SelectionUIManager to PlaneImageController--><g id="link_SelectionUIManager_PlaneImageController"><path codeLine="15" d="M364.09,233.16 C386.04,252.63 409.45,273.39 427.34,289.26 " fill="none" id="SelectionUIManager-to-PlaneImageController" style="stroke:#181818;stroke-width:1.0;"/><polygon fill="#181818" points="431.31,292.77,427.2429,283.8001,427.5737,289.4473,421.9266,289.7781,431.31,292.77" style="stroke:#181818;stroke-width:1.0;"/><text fill="#000000" font-family="sans-serif" font-size="13" lengthAdjust="spacing" textLength="149" x="443.6894" y="282.0512">currentlySelectedElement</text></g><!--MD5=[c6e56e9b112b9083045d8fbe0ce4eb1f]
@startuml
class SelectionUIManager {
    - Start() : void
    Populate() : void
    + selectElement(index:int) : void
    + backToJoinScreen() : void
}
class "List`1"<T> {
}
MonoBehaviour <|- - SelectionUIManager
SelectionUIManager - -> "planeImage" GameObject
SelectionUIManager - -> "selectedPlanePreview" Image
SelectionUIManager - -> "JoinCanvas" Canvas
SelectionUIManager - -> "selectionCanvas" Canvas
SelectionUIManager o-> "allPlanes<PlaneImageController>" "List`1"
SelectionUIManager - -> "currentlySelectedElement" PlaneImageController
@enduml

PlantUML version 1.2022.5(Sat Apr 30 12:55:52 CEST 2022)
(GPL source distribution)
Java Runtime: Java(TM) SE Runtime Environment
JVM: Java HotSpot(TM) 64-Bit Server VM
Default Encoding: UTF-8
Language: en
Country: GB
--></g></svg>