<?xml version="1.0" encoding="UTF-8" standalone="no"?><svg xmlns="http://www.w3.org/2000/svg" xmlns:xlink="http://www.w3.org/1999/xlink" contentStyleType="text/css" height="201px" preserveAspectRatio="none" style="width:528px;height:201px;background:#FFFFFF;" version="1.1" viewBox="0 0 528 201" width="528px" zoomAndPan="magnify"><defs/><g><!--MD5=[204b6a0fd2ad4e79aac2a943d011126b]
class DropdownSample--><g id="elem_DropdownSample"><rect codeLine="1" fill="#F1F1F1" height="65.6094" id="DropdownSample" rx="2.5" ry="2.5" style="stroke:#181818;stroke-width:0.5;" width="164" x="7" y="115"/><ellipse cx="31.45" cy="131" fill="#ADD1B2" rx="11" ry="11" style="stroke:#181818;stroke-width:1.0;"/><path d="M34.2156,126.875 Q34.3719,126.6563 34.5594,126.5469 Q34.7469,126.4375 34.9656,126.4375 Q35.3406,126.4375 35.575,126.7031 Q35.8094,126.9531 35.8094,127.5625 L35.8094,129.0156 Q35.8094,129.625 35.575,129.8906 Q35.3406,130.1563 34.9656,130.1563 Q34.6219,130.1563 34.4188,129.9531 Q34.2156,129.7656 34.1063,129.25 Q34.0594,128.8906 33.8719,128.7031 Q33.5438,128.3281 32.9344,128.1094 Q32.325,127.8906 31.7,127.8906 Q30.9344,127.8906 30.2938,128.2188 Q29.6688,128.5469 29.1688,129.2969 Q28.6844,130.0469 28.6844,131.0781 L28.6844,132.1719 Q28.6844,133.4063 29.575,134.2344 Q30.4656,135.0469 32.0594,135.0469 Q32.9969,135.0469 33.6531,134.7969 Q34.0438,134.6406 34.4656,134.2031 Q34.7313,133.9375 34.8719,133.8594 Q35.0281,133.7813 35.2313,133.7813 Q35.5594,133.7813 35.8094,134.0469 Q36.075,134.2969 36.075,134.6406 Q36.075,134.9844 35.7313,135.3906 Q35.2313,135.9688 34.4344,136.2969 Q33.3563,136.75 32.0594,136.75 Q30.5438,136.75 29.3406,136.125 Q28.3563,135.625 27.6688,134.5625 Q26.9813,133.4844 26.9813,132.2031 L26.9813,131.0469 Q26.9813,129.7188 27.5906,128.5781 Q28.2156,127.4219 29.3094,126.8125 Q30.4031,126.1875 31.6375,126.1875 Q32.3719,126.1875 33.0125,126.3594 Q33.6688,126.5156 34.2156,126.875 Z " fill="#000000"/><text fill="#000000" font-family="sans-serif" font-size="14" lengthAdjust="spacing" textLength="111" x="47.55" y="136.7285">DropdownSample</text><line style="stroke:#181818;stroke-width:0.5;" x1="8" x2="170" y1="147" y2="147"/><line style="stroke:#181818;stroke-width:0.5;" x1="8" x2="170" y1="155" y2="155"/><ellipse cx="18" cy="166" fill="#84BE84" rx="3" ry="3" style="stroke:#038048;stroke-width:1.0;"/><text fill="#000000" font-family="sans-serif" font-size="14" lengthAdjust="spacing" textLength="138" x="27" y="173.5332">OnButtonClick() : void</text></g><!--MD5=[83b3cf3d23d77c6f1e1b5291a241bc2a]
class MonoBehaviour--><g id="elem_MonoBehaviour"><rect fill="#F1F1F1" height="48" id="MonoBehaviour" rx="2.5" ry="2.5" style="stroke:#181818;stroke-width:0.5;" width="131" x="23.5" y="7"/><ellipse cx="38.5" cy="23" fill="#ADD1B2" rx="11" ry="11" style="stroke:#181818;stroke-width:1.0;"/><path d="M41.2656,18.875 Q41.4219,18.6563 41.6094,18.5469 Q41.7969,18.4375 42.0156,18.4375 Q42.3906,18.4375 42.625,18.7031 Q42.8594,18.9531 42.8594,19.5625 L42.8594,21.0156 Q42.8594,21.625 42.625,21.8906 Q42.3906,22.1563 42.0156,22.1563 Q41.6719,22.1563 41.4688,21.9531 Q41.2656,21.7656 41.1563,21.25 Q41.1094,20.8906 40.9219,20.7031 Q40.5938,20.3281 39.9844,20.1094 Q39.375,19.8906 38.75,19.8906 Q37.9844,19.8906 37.3438,20.2188 Q36.7188,20.5469 36.2188,21.2969 Q35.7344,22.0469 35.7344,23.0781 L35.7344,24.1719 Q35.7344,25.4063 36.625,26.2344 Q37.5156,27.0469 39.1094,27.0469 Q40.0469,27.0469 40.7031,26.7969 Q41.0938,26.6406 41.5156,26.2031 Q41.7813,25.9375 41.9219,25.8594 Q42.0781,25.7813 42.2813,25.7813 Q42.6094,25.7813 42.8594,26.0469 Q43.125,26.2969 43.125,26.6406 Q43.125,26.9844 42.7813,27.3906 Q42.2813,27.9688 41.4844,28.2969 Q40.4063,28.75 39.1094,28.75 Q37.5938,28.75 36.3906,28.125 Q35.4063,27.625 34.7188,26.5625 Q34.0313,25.4844 34.0313,24.2031 L34.0313,23.0469 Q34.0313,21.7188 34.6406,20.5781 Q35.2656,19.4219 36.3594,18.8125 Q37.4531,18.1875 38.6875,18.1875 Q39.4219,18.1875 40.0625,18.3594 Q40.7188,18.5156 41.2656,18.875 Z " fill="#000000"/><text fill="#000000" font-family="sans-serif" font-size="14" lengthAdjust="spacing" textLength="99" x="52.5" y="28.7285">MonoBehaviour</text><line style="stroke:#181818;stroke-width:0.5;" x1="24.5" x2="153.5" y1="39" y2="39"/><line style="stroke:#181818;stroke-width:0.5;" x1="24.5" x2="153.5" y1="47" y2="47"/></g><!--MD5=[904907aec70c3817983bd27a243dd750]
class TextMeshProUGUI--><g id="elem_TextMeshProUGUI"><rect fill="#F1F1F1" height="48" id="TextMeshProUGUI" rx="2.5" ry="2.5" style="stroke:#181818;stroke-width:0.5;" width="147" x="374.5" y="124"/><ellipse cx="389.5" cy="140" fill="#ADD1B2" rx="11" ry="11" style="stroke:#181818;stroke-width:1.0;"/><path d="M392.2656,135.875 Q392.4219,135.6563 392.6094,135.5469 Q392.7969,135.4375 393.0156,135.4375 Q393.3906,135.4375 393.625,135.7031 Q393.8594,135.9531 393.8594,136.5625 L393.8594,138.0156 Q393.8594,138.625 393.625,138.8906 Q393.3906,139.1563 393.0156,139.1563 Q392.6719,139.1563 392.4688,138.9531 Q392.2656,138.7656 392.1563,138.25 Q392.1094,137.8906 391.9219,137.7031 Q391.5938,137.3281 390.9844,137.1094 Q390.375,136.8906 389.75,136.8906 Q388.9844,136.8906 388.3438,137.2188 Q387.7188,137.5469 387.2188,138.2969 Q386.7344,139.0469 386.7344,140.0781 L386.7344,141.1719 Q386.7344,142.4063 387.625,143.2344 Q388.5156,144.0469 390.1094,144.0469 Q391.0469,144.0469 391.7031,143.7969 Q392.0938,143.6406 392.5156,143.2031 Q392.7813,142.9375 392.9219,142.8594 Q393.0781,142.7813 393.2813,142.7813 Q393.6094,142.7813 393.8594,143.0469 Q394.125,143.2969 394.125,143.6406 Q394.125,143.9844 393.7813,144.3906 Q393.2813,144.9688 392.4844,145.2969 Q391.4063,145.75 390.1094,145.75 Q388.5938,145.75 387.3906,145.125 Q386.4063,144.625 385.7188,143.5625 Q385.0313,142.4844 385.0313,141.2031 L385.0313,140.0469 Q385.0313,138.7188 385.6406,137.5781 Q386.2656,136.4219 387.3594,135.8125 Q388.4531,135.1875 389.6875,135.1875 Q390.4219,135.1875 391.0625,135.3594 Q391.7188,135.5156 392.2656,135.875 Z " fill="#000000"/><text fill="#000000" font-family="sans-serif" font-size="14" lengthAdjust="spacing" textLength="115" x="403.5" y="145.7285">TextMeshProUGUI</text><line style="stroke:#181818;stroke-width:0.5;" x1="375.5" x2="520.5" y1="156" y2="156"/><line style="stroke:#181818;stroke-width:0.5;" x1="375.5" x2="520.5" y1="164" y2="164"/></g><!--MD5=[1f4d314f7d372d30fdfe3dcc9aaf549c]
class TMP_Dropdown--><g id="elem_TMP_Dropdown"><rect fill="#F1F1F1" height="48" id="TMP_Dropdown" rx="2.5" ry="2.5" style="stroke:#181818;stroke-width:0.5;" width="133" x="206.5" y="124"/><ellipse cx="221.5" cy="140" fill="#ADD1B2" rx="11" ry="11" style="stroke:#181818;stroke-width:1.0;"/><path d="M224.2656,135.875 Q224.4219,135.6563 224.6094,135.5469 Q224.7969,135.4375 225.0156,135.4375 Q225.3906,135.4375 225.625,135.7031 Q225.8594,135.9531 225.8594,136.5625 L225.8594,138.0156 Q225.8594,138.625 225.625,138.8906 Q225.3906,139.1563 225.0156,139.1563 Q224.6719,139.1563 224.4688,138.9531 Q224.2656,138.7656 224.1563,138.25 Q224.1094,137.8906 223.9219,137.7031 Q223.5938,137.3281 222.9844,137.1094 Q222.375,136.8906 221.75,136.8906 Q220.9844,136.8906 220.3438,137.2188 Q219.7188,137.5469 219.2188,138.2969 Q218.7344,139.0469 218.7344,140.0781 L218.7344,141.1719 Q218.7344,142.4063 219.625,143.2344 Q220.5156,144.0469 222.1094,144.0469 Q223.0469,144.0469 223.7031,143.7969 Q224.0938,143.6406 224.5156,143.2031 Q224.7813,142.9375 224.9219,142.8594 Q225.0781,142.7813 225.2813,142.7813 Q225.6094,142.7813 225.8594,143.0469 Q226.125,143.2969 226.125,143.6406 Q226.125,143.9844 225.7813,144.3906 Q225.2813,144.9688 224.4844,145.2969 Q223.4063,145.75 222.1094,145.75 Q220.5938,145.75 219.3906,145.125 Q218.4063,144.625 217.7188,143.5625 Q217.0313,142.4844 217.0313,141.2031 L217.0313,140.0469 Q217.0313,138.7188 217.6406,137.5781 Q218.2656,136.4219 219.3594,135.8125 Q220.4531,135.1875 221.6875,135.1875 Q222.4219,135.1875 223.0625,135.3594 Q223.7188,135.5156 224.2656,135.875 Z " fill="#000000"/><text fill="#000000" font-family="sans-serif" font-size="14" lengthAdjust="spacing" textLength="101" x="235.5" y="145.7285">TMP_Dropdown</text><line style="stroke:#181818;stroke-width:0.5;" x1="207.5" x2="338.5" y1="156" y2="156"/><line style="stroke:#181818;stroke-width:0.5;" x1="207.5" x2="338.5" y1="164" y2="164"/></g><!--MD5=[60382dd12fb0ded14a0c9839290da385]
reverse link MonoBehaviour to DropdownSample--><g id="link_MonoBehaviour_DropdownSample"><path codeLine="4" d="M89,75.61 C89,88.56 89,102.51 89,114.61 " fill="none" id="MonoBehaviour-backto-DropdownSample" style="stroke:#181818;stroke-width:1.0;"/><polygon fill="none" points="82,75.27,89,55.27,96,75.27,82,75.27" style="stroke:#181818;stroke-width:1.0;"/></g><!--MD5=[24dc7135a7702d9107de0e1165bf2832]
link DropdownSample to TextMeshProUGUI--><g id="link_DropdownSample_TextMeshProUGUI"><path codeLine="5" d="M148.1236,109.0475 C148.1236,109.0475 186.8,89.94 206.5,85 C263.83,70.6 282.42,69.63 339.5,85 C362.95,91.31 386.55,104.07 405.73,116.47 " fill="none" id="DropdownSample-TextMeshProUGUI" style="stroke:#181818;stroke-width:1.0;"/><polygon fill="#181818" points="416.76,123.88,411.5259,115.5371,412.6116,121.0888,407.0599,122.1745,416.76,123.88" style="stroke:#181818;stroke-width:1.0;"/><line style="stroke:#181818;stroke-width:1.0;" x1="412.6116" x2="405.97" y1="121.0888" y2="116.635"/><polygon fill="none" points="137.67,114.94,144.861,115.4783,148.1236,109.0475,140.9326,108.5092,137.67,114.94" style="stroke:#181818;stroke-width:1.0;"/><text fill="#000000" font-family="sans-serif" font-size="13" lengthAdjust="spacing" textLength="22" x="383.936" y="113.1894">text</text></g><!--MD5=[c5dfb4c89ed578bfaf06e22716da8395]
link DropdownSample to TMP_Dropdown--><g id="link_DropdownSample_TMP_Dropdown"><path codeLine="6" d="M183.2979,172.6941 C183.2979,172.6941 190.32,172.52 193.28,172.3 " fill="none" id="DropdownSample-TMP_Dropdown" style="stroke:#181818;stroke-width:1.0;"/><polygon fill="#181818" points="206.26,170.88,196.878,167.8835,201.2897,171.4243,197.7489,175.836,206.26,170.88" style="stroke:#181818;stroke-width:1.0;"/><line style="stroke:#181818;stroke-width:1.0;" x1="201.2897" x2="193.335" y1="171.4243" y2="172.3"/><polygon fill="none" points="171.3,172.47,177.2242,176.5814,183.2979,172.6941,177.3737,168.5828,171.3,172.47" style="stroke:#181818;stroke-width:1.0;"/><text fill="#000000" font-family="sans-serif" font-size="13" lengthAdjust="spacing" textLength="168" x="200.844" y="193.4089">dropdownWithoutPlaceholder</text></g><!--MD5=[c5dfb4c89ed578bfaf06e22716da8395]
link DropdownSample to TMP_Dropdown--><g id="link_DropdownSample_TMP_Dropdown"><path codeLine="7" d="M183.2979,123.2959 C183.2979,123.2959 190.32,123.47 193.28,123.69 " fill="none" id="DropdownSample-TMP_Dropdown-1" style="stroke:#181818;stroke-width:1.0;"/><polygon fill="#181818" points="206.26,125.11,197.7489,120.154,201.2897,124.5657,196.878,128.1065,206.26,125.11" style="stroke:#181818;stroke-width:1.0;"/><line style="stroke:#181818;stroke-width:1.0;" x1="201.2897" x2="193.335" y1="124.5657" y2="123.69"/><polygon fill="none" points="171.3,123.52,177.3737,127.4072,183.2979,123.2959,177.2242,119.4086,171.3,123.52" style="stroke:#181818;stroke-width:1.0;"/><text fill="#000000" font-family="sans-serif" font-size="13" lengthAdjust="spacing" textLength="150" x="208.7896" y="113.1989">dropdownWithPlaceholder</text></g><!--MD5=[e9bea5a8e7b792ea4aa63be487bb2774]
@startuml
class DropdownSample {
    + OnButtonClick() : void
}
MonoBehaviour <|- - DropdownSample
DropdownSample o-> "text" TextMeshProUGUI
DropdownSample o-> "dropdownWithoutPlaceholder" TMP_Dropdown
DropdownSample o-> "dropdownWithPlaceholder" TMP_Dropdown
@enduml

PlantUML version 1.2022.5(Sat Apr 30 12:55:52 CEST 2022)
(GPL source distribution)
Java Runtime: Java(TM) SE Runtime Environment
JVM: Java HotSpot(TM) 64-Bit Server VM
Default Encoding: UTF-8
Language: en
Country: GB
--></g></svg>