<?xml version="1.0" encoding="UTF-8" standalone="no"?><svg xmlns="http://www.w3.org/2000/svg" xmlns:xlink="http://www.w3.org/1999/xlink" contentStyleType="text/css" height="331px" preserveAspectRatio="none" style="width:247px;height:331px;background:#FFFFFF;" version="1.1" viewBox="0 0 247 331" width="247px" zoomAndPan="magnify"><defs/><g><!--MD5=[2f4b4779564d8107802d2bf5ad3c6d3c]
class PlayerDummyScript--><g id="elem_PlayerDummyScript"><rect codeLine="1" fill="#F1F1F1" height="100.8281" id="PlayerDummyScript" rx="2.5" ry="2.5" style="stroke:#181818;stroke-width:0.5;" width="203" x="36.6424" y="115"/><ellipse cx="73.2424" cy="131" fill="#ADD1B2" rx="11" ry="11" style="stroke:#181818;stroke-width:1.0;"/><path d="M76.008,126.875 Q76.1643,126.6563 76.3518,126.5469 Q76.5393,126.4375 76.758,126.4375 Q77.133,126.4375 77.3674,126.7031 Q77.6018,126.9531 77.6018,127.5625 L77.6018,129.0156 Q77.6018,129.625 77.3674,129.8906 Q77.133,130.1563 76.758,130.1563 Q76.4143,130.1563 76.2111,129.9531 Q76.008,129.7656 75.8986,129.25 Q75.8518,128.8906 75.6643,128.7031 Q75.3361,128.3281 74.7268,128.1094 Q74.1174,127.8906 73.4924,127.8906 Q72.7268,127.8906 72.0861,128.2188 Q71.4611,128.5469 70.9611,129.2969 Q70.4768,130.0469 70.4768,131.0781 L70.4768,132.1719 Q70.4768,133.4063 71.3674,134.2344 Q72.258,135.0469 73.8518,135.0469 Q74.7893,135.0469 75.4455,134.7969 Q75.8361,134.6406 76.258,134.2031 Q76.5236,133.9375 76.6643,133.8594 Q76.8205,133.7813 77.0236,133.7813 Q77.3518,133.7813 77.6018,134.0469 Q77.8674,134.2969 77.8674,134.6406 Q77.8674,134.9844 77.5236,135.3906 Q77.0236,135.9688 76.2268,136.2969 Q75.1486,136.75 73.8518,136.75 Q72.3361,136.75 71.133,136.125 Q70.1486,135.625 69.4611,134.5625 Q68.7736,133.4844 68.7736,132.2031 L68.7736,131.0469 Q68.7736,129.7188 69.383,128.5781 Q70.008,127.4219 71.1018,126.8125 Q72.1955,126.1875 73.4299,126.1875 Q74.1643,126.1875 74.8049,126.3594 Q75.4611,126.5156 76.008,126.875 Z " fill="#000000"/><text fill="#000000" font-family="sans-serif" font-size="14" lengthAdjust="spacing" textLength="123" x="92.0424" y="136.7285">PlayerDummyScript</text><line style="stroke:#181818;stroke-width:0.5;" x1="37.6424" x2="238.6424" y1="147" y2="147"/><line style="stroke:#181818;stroke-width:0.5;" x1="37.6424" x2="238.6424" y1="155" y2="155"/><ellipse cx="47.6424" cy="166" fill="#84BE84" rx="3" ry="3" style="stroke:#038048;stroke-width:1.0;"/><text fill="#000000" font-family="sans-serif" font-size="14" lengthAdjust="spacing" textLength="177" x="56.6424" y="173.5332">setName(name:string) : void</text><ellipse cx="47.6424" cy="183.6094" fill="#84BE84" rx="3" ry="3" style="stroke:#038048;stroke-width:1.0;"/><text fill="#000000" font-family="sans-serif" font-size="14" lengthAdjust="spacing" textLength="154" x="56.6424" y="191.1426">disableNameTag() : void</text><ellipse cx="47.6424" cy="201.2188" fill="#84BE84" rx="3" ry="3" style="stroke:#038048;stroke-width:1.0;"/><text fill="#000000" font-family="sans-serif" font-size="14" lengthAdjust="spacing" textLength="175" x="56.6424" y="208.752">rotateNameTowards() : void</text></g><!--MD5=[83b3cf3d23d77c6f1e1b5291a241bc2a]
class MonoBehaviour--><g id="elem_MonoBehaviour"><rect fill="#F1F1F1" height="48" id="MonoBehaviour" rx="2.5" ry="2.5" style="stroke:#181818;stroke-width:0.5;" width="131" x="72.6424" y="7"/><ellipse cx="87.6424" cy="23" fill="#ADD1B2" rx="11" ry="11" style="stroke:#181818;stroke-width:1.0;"/><path d="M90.408,18.875 Q90.5643,18.6563 90.7518,18.5469 Q90.9393,18.4375 91.158,18.4375 Q91.533,18.4375 91.7674,18.7031 Q92.0018,18.9531 92.0018,19.5625 L92.0018,21.0156 Q92.0018,21.625 91.7674,21.8906 Q91.533,22.1563 91.158,22.1563 Q90.8143,22.1563 90.6111,21.9531 Q90.408,21.7656 90.2986,21.25 Q90.2518,20.8906 90.0643,20.7031 Q89.7361,20.3281 89.1268,20.1094 Q88.5174,19.8906 87.8924,19.8906 Q87.1268,19.8906 86.4861,20.2188 Q85.8611,20.5469 85.3611,21.2969 Q84.8768,22.0469 84.8768,23.0781 L84.8768,24.1719 Q84.8768,25.4063 85.7674,26.2344 Q86.658,27.0469 88.2518,27.0469 Q89.1893,27.0469 89.8455,26.7969 Q90.2361,26.6406 90.658,26.2031 Q90.9236,25.9375 91.0643,25.8594 Q91.2205,25.7813 91.4236,25.7813 Q91.7518,25.7813 92.0018,26.0469 Q92.2674,26.2969 92.2674,26.6406 Q92.2674,26.9844 91.9236,27.3906 Q91.4236,27.9688 90.6268,28.2969 Q89.5486,28.75 88.2518,28.75 Q86.7361,28.75 85.533,28.125 Q84.5486,27.625 83.8611,26.5625 Q83.1736,25.4844 83.1736,24.2031 L83.1736,23.0469 Q83.1736,21.7188 83.783,20.5781 Q84.408,19.4219 85.5018,18.8125 Q86.5955,18.1875 87.8299,18.1875 Q88.5643,18.1875 89.2049,18.3594 Q89.8611,18.5156 90.408,18.875 Z " fill="#000000"/><text fill="#000000" font-family="sans-serif" font-size="14" lengthAdjust="spacing" textLength="99" x="101.6424" y="28.7285">MonoBehaviour</text><line style="stroke:#181818;stroke-width:0.5;" x1="73.6424" x2="202.6424" y1="39" y2="39"/><line style="stroke:#181818;stroke-width:0.5;" x1="73.6424" x2="202.6424" y1="47" y2="47"/></g><!--MD5=[fa07864ef55e7d1943fa981e1ee9b4e7]
class TMP_Text--><g id="elem_TMP_Text"><rect fill="#F1F1F1" height="48" id="TMP_Text" rx="2.5" ry="2.5" style="stroke:#181818;stroke-width:0.5;" width="96" x="29.1424" y="276"/><ellipse cx="44.1424" cy="292" fill="#ADD1B2" rx="11" ry="11" style="stroke:#181818;stroke-width:1.0;"/><path d="M46.908,287.875 Q47.0643,287.6563 47.2518,287.5469 Q47.4393,287.4375 47.658,287.4375 Q48.033,287.4375 48.2674,287.7031 Q48.5018,287.9531 48.5018,288.5625 L48.5018,290.0156 Q48.5018,290.625 48.2674,290.8906 Q48.033,291.1563 47.658,291.1563 Q47.3143,291.1563 47.1111,290.9531 Q46.908,290.7656 46.7986,290.25 Q46.7518,289.8906 46.5643,289.7031 Q46.2361,289.3281 45.6268,289.1094 Q45.0174,288.8906 44.3924,288.8906 Q43.6268,288.8906 42.9861,289.2188 Q42.3611,289.5469 41.8611,290.2969 Q41.3768,291.0469 41.3768,292.0781 L41.3768,293.1719 Q41.3768,294.4063 42.2674,295.2344 Q43.158,296.0469 44.7518,296.0469 Q45.6893,296.0469 46.3455,295.7969 Q46.7361,295.6406 47.158,295.2031 Q47.4236,294.9375 47.5643,294.8594 Q47.7205,294.7813 47.9236,294.7813 Q48.2518,294.7813 48.5018,295.0469 Q48.7674,295.2969 48.7674,295.6406 Q48.7674,295.9844 48.4236,296.3906 Q47.9236,296.9688 47.1268,297.2969 Q46.0486,297.75 44.7518,297.75 Q43.2361,297.75 42.033,297.125 Q41.0486,296.625 40.3611,295.5625 Q39.6736,294.4844 39.6736,293.2031 L39.6736,292.0469 Q39.6736,290.7188 40.283,289.5781 Q40.908,288.4219 42.0018,287.8125 Q43.0955,287.1875 44.3299,287.1875 Q45.0643,287.1875 45.7049,287.3594 Q46.3611,287.5156 46.908,287.875 Z " fill="#000000"/><text fill="#000000" font-family="sans-serif" font-size="14" lengthAdjust="spacing" textLength="64" x="58.1424" y="297.7285">TMP_Text</text><line style="stroke:#181818;stroke-width:0.5;" x1="30.1424" x2="124.1424" y1="308" y2="308"/><line style="stroke:#181818;stroke-width:0.5;" x1="30.1424" x2="124.1424" y1="316" y2="316"/></g><!--MD5=[5edf34eb39d3b3dfde6419c044ab889f]
class Canvas--><g id="elem_Canvas"><rect fill="#F1F1F1" height="48" id="Canvas" rx="2.5" ry="2.5" style="stroke:#181818;stroke-width:0.5;" width="80" x="160.1424" y="276"/><ellipse cx="175.1424" cy="292" fill="#ADD1B2" rx="11" ry="11" style="stroke:#181818;stroke-width:1.0;"/><path d="M177.908,287.875 Q178.0643,287.6563 178.2518,287.5469 Q178.4393,287.4375 178.658,287.4375 Q179.033,287.4375 179.2674,287.7031 Q179.5018,287.9531 179.5018,288.5625 L179.5018,290.0156 Q179.5018,290.625 179.2674,290.8906 Q179.033,291.1563 178.658,291.1563 Q178.3143,291.1563 178.1111,290.9531 Q177.908,290.7656 177.7986,290.25 Q177.7518,289.8906 177.5643,289.7031 Q177.2361,289.3281 176.6268,289.1094 Q176.0174,288.8906 175.3924,288.8906 Q174.6268,288.8906 173.9861,289.2188 Q173.3611,289.5469 172.8611,290.2969 Q172.3768,291.0469 172.3768,292.0781 L172.3768,293.1719 Q172.3768,294.4063 173.2674,295.2344 Q174.158,296.0469 175.7518,296.0469 Q176.6893,296.0469 177.3455,295.7969 Q177.7361,295.6406 178.158,295.2031 Q178.4236,294.9375 178.5643,294.8594 Q178.7205,294.7813 178.9236,294.7813 Q179.2518,294.7813 179.5018,295.0469 Q179.7674,295.2969 179.7674,295.6406 Q179.7674,295.9844 179.4236,296.3906 Q178.9236,296.9688 178.1268,297.2969 Q177.0486,297.75 175.7518,297.75 Q174.2361,297.75 173.033,297.125 Q172.0486,296.625 171.3611,295.5625 Q170.6736,294.4844 170.6736,293.2031 L170.6736,292.0469 Q170.6736,290.7188 171.283,289.5781 Q171.908,288.4219 173.0018,287.8125 Q174.0955,287.1875 175.3299,287.1875 Q176.0643,287.1875 176.7049,287.3594 Q177.3611,287.5156 177.908,287.875 Z " fill="#000000"/><text fill="#000000" font-family="sans-serif" font-size="14" lengthAdjust="spacing" textLength="48" x="189.1424" y="297.7285">Canvas</text><line style="stroke:#181818;stroke-width:0.5;" x1="161.1424" x2="239.1424" y1="308" y2="308"/><line style="stroke:#181818;stroke-width:0.5;" x1="161.1424" x2="239.1424" y1="316" y2="316"/></g><!--MD5=[433202e8d810f348495d65b96e96adbc]
reverse link MonoBehaviour to PlayerDummyScript--><g id="link_MonoBehaviour_PlayerDummyScript"><path codeLine="6" d="M138.1424,75.34 C138.1424,87.95 138.1424,101.82 138.1424,114.8 " fill="none" id="MonoBehaviour-backto-PlayerDummyScript" style="stroke:#181818;stroke-width:1.0;"/><polygon fill="none" points="131.1424,75.08,138.1424,55.08,145.1424,75.08,131.1424,75.08" style="stroke:#181818;stroke-width:1.0;"/></g><!--MD5=[6f895d787db9ae56274a5e68caaefa0f]
link PlayerDummyScript to TMP_Text--><g id="link_PlayerDummyScript_TMP_Text"><path codeLine="7" d="M115.2624,216.22 C106.7424,234.72 97.3824,255.05 90.0624,270.94 " fill="none" id="PlayerDummyScript-to-TMP_Text" style="stroke:#181818;stroke-width:1.0;"/><polygon fill="#181818" points="87.8624,275.72,95.2528,269.2098,89.9486,271.176,87.9824,265.8719,87.8624,275.72" style="stroke:#181818;stroke-width:1.0;"/><text fill="#000000" font-family="sans-serif" font-size="13" lengthAdjust="spacing" textLength="75" x="6" y="264.9884">nameDisplay</text></g><!--MD5=[446b7919bbb7b85c9c44697f9ab8756f]
link PlayerDummyScript to Canvas--><g id="link_PlayerDummyScript_Canvas"><path codeLine="8" d="M161.4124,216.22 C170.0624,234.72 179.5824,255.05 187.0124,270.94 " fill="none" id="PlayerDummyScript-to-Canvas" style="stroke:#181818;stroke-width:1.0;"/><polygon fill="#181818" points="189.2524,275.72,189.044,265.8733,187.1255,271.1949,181.8039,269.2764,189.2524,275.72" style="stroke:#181818;stroke-width:1.0;"/><text fill="#000000" font-family="sans-serif" font-size="13" lengthAdjust="spacing" textLength="95" x="110.8087" y="264.9884">nameTagCanvas</text></g><!--MD5=[5d4aedb97464425313bf6ead75394a86]
@startuml
class PlayerDummyScript {
    + setName(name:string) : void
    + disableNameTag() : void
    + rotateNameTowards() : void
}
MonoBehaviour <|- - PlayerDummyScript
PlayerDummyScript - -> "nameDisplay" TMP_Text
PlayerDummyScript - -> "nameTagCanvas" Canvas
@enduml

PlantUML version 1.2022.5(Sat Apr 30 12:55:52 CEST 2022)
(GPL source distribution)
Java Runtime: Java(TM) SE Runtime Environment
JVM: Java HotSpot(TM) 64-Bit Server VM
Default Encoding: UTF-8
Language: en
Country: GB
--></g></svg>