<?xml version="1.0" encoding="UTF-8" standalone="no"?><svg xmlns="http://www.w3.org/2000/svg" xmlns:xlink="http://www.w3.org/1999/xlink" contentStyleType="text/css" height="240px" preserveAspectRatio="none" style="width:1216px;height:240px;background:#FFFFFF;" version="1.1" viewBox="0 0 1216 240" width="1216px" zoomAndPan="magnify"><defs/><g><!--MD5=[47f6d350448571fe19184f9cdea7c29b]
class Hud--><g id="elem_Hud"><rect codeLine="1" fill="#F1F1F1" height="118.4375" id="Hud" rx="2.5" ry="2.5" style="stroke:#181818;stroke-width:0.5;" width="440" x="7" y="115"/><ellipse cx="210.25" cy="131" fill="#ADD1B2" rx="11" ry="11" style="stroke:#181818;stroke-width:1.0;"/><path d="M213.0156,126.875 Q213.1719,126.6563 213.3594,126.5469 Q213.5469,126.4375 213.7656,126.4375 Q214.1406,126.4375 214.375,126.7031 Q214.6094,126.9531 214.6094,127.5625 L214.6094,129.0156 Q214.6094,129.625 214.375,129.8906 Q214.1406,130.1563 213.7656,130.1563 Q213.4219,130.1563 213.2188,129.9531 Q213.0156,129.7656 212.9063,129.25 Q212.8594,128.8906 212.6719,128.7031 Q212.3438,128.3281 211.7344,128.1094 Q211.125,127.8906 210.5,127.8906 Q209.7344,127.8906 209.0938,128.2188 Q208.4688,128.5469 207.9688,129.2969 Q207.4844,130.0469 207.4844,131.0781 L207.4844,132.1719 Q207.4844,133.4063 208.375,134.2344 Q209.2656,135.0469 210.8594,135.0469 Q211.7969,135.0469 212.4531,134.7969 Q212.8438,134.6406 213.2656,134.2031 Q213.5313,133.9375 213.6719,133.8594 Q213.8281,133.7813 214.0313,133.7813 Q214.3594,133.7813 214.6094,134.0469 Q214.875,134.2969 214.875,134.6406 Q214.875,134.9844 214.5313,135.3906 Q214.0313,135.9688 213.2344,136.2969 Q212.1563,136.75 210.8594,136.75 Q209.3438,136.75 208.1406,136.125 Q207.1563,135.625 206.4688,134.5625 Q205.7813,133.4844 205.7813,132.2031 L205.7813,131.0469 Q205.7813,129.7188 206.3906,128.5781 Q207.0156,127.4219 208.1094,126.8125 Q209.2031,126.1875 210.4375,126.1875 Q211.1719,126.1875 211.8125,126.3594 Q212.4688,126.5156 213.0156,126.875 Z " fill="#000000"/><text fill="#000000" font-family="sans-serif" font-size="14" lengthAdjust="spacing" textLength="25" x="230.75" y="136.7285">Hud</text><line style="stroke:#181818;stroke-width:0.5;" x1="8" x2="446" y1="147" y2="147"/><line style="stroke:#181818;stroke-width:0.5;" x1="8" x2="446" y1="155" y2="155"/><rect fill="#F24D5C" height="6" style="stroke:#C82930;stroke-width:1.0;" width="6" x="15" y="163"/><text fill="#000000" font-family="sans-serif" font-size="14" lengthAdjust="spacing" textLength="89" x="27" y="173.5332">Awake() : void</text><rect fill="#F24D5C" height="6" style="stroke:#C82930;stroke-width:1.0;" width="6" x="15" y="180.6094"/><text fill="#000000" font-family="sans-serif" font-size="14" lengthAdjust="spacing" textLength="93" x="27" y="191.1426">Update() : void</text><rect fill="#F24D5C" height="6" style="stroke:#C82930;stroke-width:1.0;" width="6" x="15" y="198.2188"/><text fill="#000000" font-family="sans-serif" font-size="14" lengthAdjust="spacing" textLength="352" x="27" y="208.752">UpdateGraphics(controller:MouseFlightController) : void</text><ellipse cx="18" cy="218.8281" fill="#84BE84" rx="3" ry="3" style="stroke:#038048;stroke-width:1.0;"/><text fill="#000000" font-family="sans-serif" font-size="14" lengthAdjust="spacing" textLength="414" x="27" y="226.3613">SetReferenceMouseFlight(controller:MouseFlightController) : void</text></g><!--MD5=[83b3cf3d23d77c6f1e1b5291a241bc2a]
class MonoBehaviour--><g id="elem_MonoBehaviour"><rect fill="#F1F1F1" height="48" id="MonoBehaviour" rx="2.5" ry="2.5" style="stroke:#181818;stroke-width:0.5;" width="131" x="161.5" y="7"/><ellipse cx="176.5" cy="23" fill="#ADD1B2" rx="11" ry="11" style="stroke:#181818;stroke-width:1.0;"/><path d="M179.2656,18.875 Q179.4219,18.6563 179.6094,18.5469 Q179.7969,18.4375 180.0156,18.4375 Q180.3906,18.4375 180.625,18.7031 Q180.8594,18.9531 180.8594,19.5625 L180.8594,21.0156 Q180.8594,21.625 180.625,21.8906 Q180.3906,22.1563 180.0156,22.1563 Q179.6719,22.1563 179.4688,21.9531 Q179.2656,21.7656 179.1563,21.25 Q179.1094,20.8906 178.9219,20.7031 Q178.5938,20.3281 177.9844,20.1094 Q177.375,19.8906 176.75,19.8906 Q175.9844,19.8906 175.3438,20.2188 Q174.7188,20.5469 174.2188,21.2969 Q173.7344,22.0469 173.7344,23.0781 L173.7344,24.1719 Q173.7344,25.4063 174.625,26.2344 Q175.5156,27.0469 177.1094,27.0469 Q178.0469,27.0469 178.7031,26.7969 Q179.0938,26.6406 179.5156,26.2031 Q179.7813,25.9375 179.9219,25.8594 Q180.0781,25.7813 180.2813,25.7813 Q180.6094,25.7813 180.8594,26.0469 Q181.125,26.2969 181.125,26.6406 Q181.125,26.9844 180.7813,27.3906 Q180.2813,27.9688 179.4844,28.2969 Q178.4063,28.75 177.1094,28.75 Q175.5938,28.75 174.3906,28.125 Q173.4063,27.625 172.7188,26.5625 Q172.0313,25.4844 172.0313,24.2031 L172.0313,23.0469 Q172.0313,21.7188 172.6406,20.5781 Q173.2656,19.4219 174.3594,18.8125 Q175.4531,18.1875 176.6875,18.1875 Q177.4219,18.1875 178.0625,18.3594 Q178.7188,18.5156 179.2656,18.875 Z " fill="#000000"/><text fill="#000000" font-family="sans-serif" font-size="14" lengthAdjust="spacing" textLength="99" x="190.5" y="28.7285">MonoBehaviour</text><line style="stroke:#181818;stroke-width:0.5;" x1="162.5" x2="291.5" y1="39" y2="39"/><line style="stroke:#181818;stroke-width:0.5;" x1="162.5" x2="291.5" y1="47" y2="47"/></g><!--MD5=[947c6b80fe9fe39d68a8daa1e861a852]
class MouseFlightController--><g id="elem_MouseFlightController"><rect fill="#F1F1F1" height="48" id="MouseFlightController" rx="2.5" ry="2.5" style="stroke:#181818;stroke-width:0.5;" width="171" x="1038.5" y="150"/><ellipse cx="1053.5" cy="166" fill="#ADD1B2" rx="11" ry="11" style="stroke:#181818;stroke-width:1.0;"/><path d="M1056.2656,161.875 Q1056.4219,161.6563 1056.6094,161.5469 Q1056.7969,161.4375 1057.0156,161.4375 Q1057.3906,161.4375 1057.625,161.7031 Q1057.8594,161.9531 1057.8594,162.5625 L1057.8594,164.0156 Q1057.8594,164.625 1057.625,164.8906 Q1057.3906,165.1563 1057.0156,165.1563 Q1056.6719,165.1563 1056.4688,164.9531 Q1056.2656,164.7656 1056.1563,164.25 Q1056.1094,163.8906 1055.9219,163.7031 Q1055.5938,163.3281 1054.9844,163.1094 Q1054.375,162.8906 1053.75,162.8906 Q1052.9844,162.8906 1052.3438,163.2188 Q1051.7188,163.5469 1051.2188,164.2969 Q1050.7344,165.0469 1050.7344,166.0781 L1050.7344,167.1719 Q1050.7344,168.4063 1051.625,169.2344 Q1052.5156,170.0469 1054.1094,170.0469 Q1055.0469,170.0469 1055.7031,169.7969 Q1056.0938,169.6406 1056.5156,169.2031 Q1056.7813,168.9375 1056.9219,168.8594 Q1057.0781,168.7813 1057.2813,168.7813 Q1057.6094,168.7813 1057.8594,169.0469 Q1058.125,169.2969 1058.125,169.6406 Q1058.125,169.9844 1057.7813,170.3906 Q1057.2813,170.9688 1056.4844,171.2969 Q1055.4063,171.75 1054.1094,171.75 Q1052.5938,171.75 1051.3906,171.125 Q1050.4063,170.625 1049.7188,169.5625 Q1049.0313,168.4844 1049.0313,167.2031 L1049.0313,166.0469 Q1049.0313,164.7188 1049.6406,163.5781 Q1050.2656,162.4219 1051.3594,161.8125 Q1052.4531,161.1875 1053.6875,161.1875 Q1054.4219,161.1875 1055.0625,161.3594 Q1055.7188,161.5156 1056.2656,161.875 Z " fill="#000000"/><text fill="#000000" font-family="sans-serif" font-size="14" lengthAdjust="spacing" textLength="139" x="1067.5" y="171.7285">MouseFlightController</text><line style="stroke:#181818;stroke-width:0.5;" x1="1039.5" x2="1208.5" y1="182" y2="182"/><line style="stroke:#181818;stroke-width:0.5;" x1="1039.5" x2="1208.5" y1="190" y2="190"/></g><!--MD5=[281c999374e61fd3a46e672fb26d53ea]
class RectTransform--><g id="elem_RectTransform"><rect fill="#F1F1F1" height="48" id="RectTransform" rx="2.5" ry="2.5" style="stroke:#181818;stroke-width:0.5;" width="126" x="877" y="150"/><ellipse cx="892" cy="166" fill="#ADD1B2" rx="11" ry="11" style="stroke:#181818;stroke-width:1.0;"/><path d="M894.7656,161.875 Q894.9219,161.6563 895.1094,161.5469 Q895.2969,161.4375 895.5156,161.4375 Q895.8906,161.4375 896.125,161.7031 Q896.3594,161.9531 896.3594,162.5625 L896.3594,164.0156 Q896.3594,164.625 896.125,164.8906 Q895.8906,165.1563 895.5156,165.1563 Q895.1719,165.1563 894.9688,164.9531 Q894.7656,164.7656 894.6563,164.25 Q894.6094,163.8906 894.4219,163.7031 Q894.0938,163.3281 893.4844,163.1094 Q892.875,162.8906 892.25,162.8906 Q891.4844,162.8906 890.8438,163.2188 Q890.2188,163.5469 889.7188,164.2969 Q889.2344,165.0469 889.2344,166.0781 L889.2344,167.1719 Q889.2344,168.4063 890.125,169.2344 Q891.0156,170.0469 892.6094,170.0469 Q893.5469,170.0469 894.2031,169.7969 Q894.5938,169.6406 895.0156,169.2031 Q895.2813,168.9375 895.4219,168.8594 Q895.5781,168.7813 895.7813,168.7813 Q896.1094,168.7813 896.3594,169.0469 Q896.625,169.2969 896.625,169.6406 Q896.625,169.9844 896.2813,170.3906 Q895.7813,170.9688 894.9844,171.2969 Q893.9063,171.75 892.6094,171.75 Q891.0938,171.75 889.8906,171.125 Q888.9063,170.625 888.2188,169.5625 Q887.5313,168.4844 887.5313,167.2031 L887.5313,166.0469 Q887.5313,164.7188 888.1406,163.5781 Q888.7656,162.4219 889.8594,161.8125 Q890.9531,161.1875 892.1875,161.1875 Q892.9219,161.1875 893.5625,161.3594 Q894.2188,161.5156 894.7656,161.875 Z " fill="#000000"/><text fill="#000000" font-family="sans-serif" font-size="14" lengthAdjust="spacing" textLength="94" x="906" y="171.7285">RectTransform</text><line style="stroke:#181818;stroke-width:0.5;" x1="878" x2="1002" y1="182" y2="182"/><line style="stroke:#181818;stroke-width:0.5;" x1="878" x2="1002" y1="190" y2="190"/></g><!--MD5=[fa07864ef55e7d1943fa981e1ee9b4e7]
class TMP_Text--><g id="elem_TMP_Text"><rect fill="#F1F1F1" height="48" id="TMP_Text" rx="2.5" ry="2.5" style="stroke:#181818;stroke-width:0.5;" width="96" x="746" y="150"/><ellipse cx="761" cy="166" fill="#ADD1B2" rx="11" ry="11" style="stroke:#181818;stroke-width:1.0;"/><path d="M763.7656,161.875 Q763.9219,161.6563 764.1094,161.5469 Q764.2969,161.4375 764.5156,161.4375 Q764.8906,161.4375 765.125,161.7031 Q765.3594,161.9531 765.3594,162.5625 L765.3594,164.0156 Q765.3594,164.625 765.125,164.8906 Q764.8906,165.1563 764.5156,165.1563 Q764.1719,165.1563 763.9688,164.9531 Q763.7656,164.7656 763.6563,164.25 Q763.6094,163.8906 763.4219,163.7031 Q763.0938,163.3281 762.4844,163.1094 Q761.875,162.8906 761.25,162.8906 Q760.4844,162.8906 759.8438,163.2188 Q759.2188,163.5469 758.7188,164.2969 Q758.2344,165.0469 758.2344,166.0781 L758.2344,167.1719 Q758.2344,168.4063 759.125,169.2344 Q760.0156,170.0469 761.6094,170.0469 Q762.5469,170.0469 763.2031,169.7969 Q763.5938,169.6406 764.0156,169.2031 Q764.2813,168.9375 764.4219,168.8594 Q764.5781,168.7813 764.7813,168.7813 Q765.1094,168.7813 765.3594,169.0469 Q765.625,169.2969 765.625,169.6406 Q765.625,169.9844 765.2813,170.3906 Q764.7813,170.9688 763.9844,171.2969 Q762.9063,171.75 761.6094,171.75 Q760.0938,171.75 758.8906,171.125 Q757.9063,170.625 757.2188,169.5625 Q756.5313,168.4844 756.5313,167.2031 L756.5313,166.0469 Q756.5313,164.7188 757.1406,163.5781 Q757.7656,162.4219 758.8594,161.8125 Q759.9531,161.1875 761.1875,161.1875 Q761.9219,161.1875 762.5625,161.3594 Q763.2188,161.5156 763.7656,161.875 Z " fill="#000000"/><text fill="#000000" font-family="sans-serif" font-size="14" lengthAdjust="spacing" textLength="64" x="775" y="171.7285">TMP_Text</text><line style="stroke:#181818;stroke-width:0.5;" x1="747" x2="841" y1="182" y2="182"/><line style="stroke:#181818;stroke-width:0.5;" x1="747" x2="841" y1="190" y2="190"/></g><!--MD5=[cdd569301132408e6892bbcba65f5297]
class PlayerHealth--><g id="elem_PlayerHealth"><rect fill="#F1F1F1" height="48" id="PlayerHealth" rx="2.5" ry="2.5" style="stroke:#181818;stroke-width:0.5;" width="112" x="599" y="150"/><ellipse cx="614" cy="166" fill="#ADD1B2" rx="11" ry="11" style="stroke:#181818;stroke-width:1.0;"/><path d="M616.7656,161.875 Q616.9219,161.6563 617.1094,161.5469 Q617.2969,161.4375 617.5156,161.4375 Q617.8906,161.4375 618.125,161.7031 Q618.3594,161.9531 618.3594,162.5625 L618.3594,164.0156 Q618.3594,164.625 618.125,164.8906 Q617.8906,165.1563 617.5156,165.1563 Q617.1719,165.1563 616.9688,164.9531 Q616.7656,164.7656 616.6563,164.25 Q616.6094,163.8906 616.4219,163.7031 Q616.0938,163.3281 615.4844,163.1094 Q614.875,162.8906 614.25,162.8906 Q613.4844,162.8906 612.8438,163.2188 Q612.2188,163.5469 611.7188,164.2969 Q611.2344,165.0469 611.2344,166.0781 L611.2344,167.1719 Q611.2344,168.4063 612.125,169.2344 Q613.0156,170.0469 614.6094,170.0469 Q615.5469,170.0469 616.2031,169.7969 Q616.5938,169.6406 617.0156,169.2031 Q617.2813,168.9375 617.4219,168.8594 Q617.5781,168.7813 617.7813,168.7813 Q618.1094,168.7813 618.3594,169.0469 Q618.625,169.2969 618.625,169.6406 Q618.625,169.9844 618.2813,170.3906 Q617.7813,170.9688 616.9844,171.2969 Q615.9063,171.75 614.6094,171.75 Q613.0938,171.75 611.8906,171.125 Q610.9063,170.625 610.2188,169.5625 Q609.5313,168.4844 609.5313,167.2031 L609.5313,166.0469 Q609.5313,164.7188 610.1406,163.5781 Q610.7656,162.4219 611.8594,161.8125 Q612.9531,161.1875 614.1875,161.1875 Q614.9219,161.1875 615.5625,161.3594 Q616.2188,161.5156 616.7656,161.875 Z " fill="#000000"/><text fill="#000000" font-family="sans-serif" font-size="14" lengthAdjust="spacing" textLength="80" x="628" y="171.7285">PlayerHealth</text><line style="stroke:#181818;stroke-width:0.5;" x1="600" x2="710" y1="182" y2="182"/><line style="stroke:#181818;stroke-width:0.5;" x1="600" x2="710" y1="190" y2="190"/></g><!--MD5=[452be1aaf8b94e2bc4204d466ef769a4]
class Camera--><g id="elem_Camera"><rect fill="#F1F1F1" height="48" id="Camera" rx="2.5" ry="2.5" style="stroke:#181818;stroke-width:0.5;" width="82" x="482" y="150"/><ellipse cx="497" cy="166" fill="#ADD1B2" rx="11" ry="11" style="stroke:#181818;stroke-width:1.0;"/><path d="M499.7656,161.875 Q499.9219,161.6563 500.1094,161.5469 Q500.2969,161.4375 500.5156,161.4375 Q500.8906,161.4375 501.125,161.7031 Q501.3594,161.9531 501.3594,162.5625 L501.3594,164.0156 Q501.3594,164.625 501.125,164.8906 Q500.8906,165.1563 500.5156,165.1563 Q500.1719,165.1563 499.9688,164.9531 Q499.7656,164.7656 499.6563,164.25 Q499.6094,163.8906 499.4219,163.7031 Q499.0938,163.3281 498.4844,163.1094 Q497.875,162.8906 497.25,162.8906 Q496.4844,162.8906 495.8438,163.2188 Q495.2188,163.5469 494.7188,164.2969 Q494.2344,165.0469 494.2344,166.0781 L494.2344,167.1719 Q494.2344,168.4063 495.125,169.2344 Q496.0156,170.0469 497.6094,170.0469 Q498.5469,170.0469 499.2031,169.7969 Q499.5938,169.6406 500.0156,169.2031 Q500.2813,168.9375 500.4219,168.8594 Q500.5781,168.7813 500.7813,168.7813 Q501.1094,168.7813 501.3594,169.0469 Q501.625,169.2969 501.625,169.6406 Q501.625,169.9844 501.2813,170.3906 Q500.7813,170.9688 499.9844,171.2969 Q498.9063,171.75 497.6094,171.75 Q496.0938,171.75 494.8906,171.125 Q493.9063,170.625 493.2188,169.5625 Q492.5313,168.4844 492.5313,167.2031 L492.5313,166.0469 Q492.5313,164.7188 493.1406,163.5781 Q493.7656,162.4219 494.8594,161.8125 Q495.9531,161.1875 497.1875,161.1875 Q497.9219,161.1875 498.5625,161.3594 Q499.2188,161.5156 499.7656,161.875 Z " fill="#000000"/><text fill="#000000" font-family="sans-serif" font-size="14" lengthAdjust="spacing" textLength="50" x="511" y="171.7285">Camera</text><line style="stroke:#181818;stroke-width:0.5;" x1="483" x2="563" y1="182" y2="182"/><line style="stroke:#181818;stroke-width:0.5;" x1="483" x2="563" y1="190" y2="190"/></g><!--MD5=[4db9a8acc1433a8f6eff74a31509333f]
reverse link MonoBehaviour to Hud--><g id="link_MonoBehaviour_Hud"><path codeLine="7" d="M227,75.33 C227,87.86 227,101.73 227,114.99 " fill="none" id="MonoBehaviour-backto-Hud" style="stroke:#181818;stroke-width:1.0;"/><polygon fill="none" points="220,75.28,227,55.28,234,75.28,220,75.28" style="stroke:#181818;stroke-width:1.0;"/></g><!--MD5=[fdbd777de821e8ee671408deb624bff4]
link Hud to MouseFlightController--><g id="link_Hud_MouseFlightController"><path codeLine="8" d="M380.7389,111.1794 C380.7389,111.1794 449.24,90.63 482.5,85 C596.66,65.69 893.53,48.79 1003.5,85 C1036.92,96 1068.67,120.23 1091.18,140.63 " fill="none" id="Hud-MouseFlightController" style="stroke:#181818;stroke-width:1.0;"/><polygon fill="#181818" points="1100.84,149.68,1096.9995,140.6108,1097.1884,146.2645,1091.5347,146.4534,1100.84,149.68" style="stroke:#181818;stroke-width:1.0;"/><line style="stroke:#181818;stroke-width:1.0;" x1="1097.1884" x2="1091.35" y1="146.2645" y2="140.795"/><polygon fill="none" points="369.36,114.99,376.3196,116.8777,380.7389,111.1794,373.7793,109.2918,369.36,114.99" style="stroke:#181818;stroke-width:1.0;"/><text fill="#000000" font-family="sans-serif" font-size="13" lengthAdjust="spacing" textLength="71" x="1015.5416" y="139.34">mouseFlight</text></g><!--MD5=[15d94daf5424bf622becd3230ec943b0]
link Hud to RectTransform--><g id="link_Hud_RectTransform"><path codeLine="9" d="M400.3465,111.6979 C400.3465,111.6979 451.97,98.81 476.67,95 C558.29,82.39 770.91,66.24 848.33,95 C872.86,104.11 895.22,123.06 911.72,140.11 " fill="none" id="Hud-RectTransform" style="stroke:#181818;stroke-width:1.0;"/><polygon fill="#181818" points="920.72,149.85,917.5373,140.5296,917.3218,146.1823,911.669,145.9668,920.72,149.85" style="stroke:#181818;stroke-width:1.0;"/><line style="stroke:#181818;stroke-width:1.0;" x1="917.3218" x2="911.895" y1="146.1823" y2="140.3"/><polygon fill="none" points="388.79,114.93,395.6456,117.1661,400.3465,111.6979,393.4909,109.4618,388.79,114.93" style="stroke:#181818;stroke-width:1.0;"/><text fill="#000000" font-family="sans-serif" font-size="13" lengthAdjust="spacing" textLength="53" x="855.9889" y="139.1517">boresight</text></g><!--MD5=[15d94daf5424bf622becd3230ec943b0]
link Hud to RectTransform--><g id="link_Hud_RectTransform"><path codeLine="10" d="M366.1381,110.6669 C366.1381,110.6669 447.96,82.39 488.33,75 C564.48,61.06 764.84,46.14 836.67,75 C868.91,87.95 896.76,116.3 915.4,139.35 " fill="none" id="Hud-RectTransform-1" style="stroke:#181818;stroke-width:1.0;"/><polygon fill="#181818" points="923.54,149.83,921.1673,140.2712,920.4684,145.8847,914.8549,145.1858,923.54,149.83" style="stroke:#181818;stroke-width:1.0;"/><line style="stroke:#181818;stroke-width:1.0;" x1="920.4684" x2="915.56" y1="145.8847" y2="139.565"/><polygon fill="none" points="354.94,114.98,361.9767,116.5562,366.1381,110.6669,359.1014,109.0908,354.94,114.98" style="stroke:#181818;stroke-width:1.0;"/><text fill="#000000" font-family="sans-serif" font-size="13" lengthAdjust="spacing" textLength="62" x="927.2659" y="139.1266">mousePos</text></g><!--MD5=[9280c44ee8e74bef8b38ffb34a0a5d2e]
link Hud to TMP_Text--><g id="link_Hud_TMP_Text"><path codeLine="11" d="M400.3465,111.6979 C400.3465,111.6979 451.97,98.81 476.67,95 C529.52,86.84 668.08,74.16 717.33,95 C738.85,104.1 757.29,122.52 770.7,139.28 " fill="none" id="Hud-TMP_Text" style="stroke:#181818;stroke-width:1.0;"/><polygon fill="#181818" points="778.76,149.95,776.522,140.3588,775.7442,145.9619,770.1411,145.1841,778.76,149.95" style="stroke:#181818;stroke-width:1.0;"/><line style="stroke:#181818;stroke-width:1.0;" x1="775.7442" x2="770.92" y1="145.9619" y2="139.575"/><polygon fill="none" points="388.79,114.93,395.6456,117.1661,400.3465,111.6979,393.4909,109.4618,388.79,114.93" style="stroke:#181818;stroke-width:1.0;"/><text fill="#000000" font-family="sans-serif" font-size="13" lengthAdjust="spacing" textLength="78" x="687.1932" y="139.0897">healthDisplay</text></g><!--MD5=[9280c44ee8e74bef8b38ffb34a0a5d2e]
link Hud to TMP_Text--><g id="link_Hud_TMP_Text"><path codeLine="12" d="M366.1381,110.6669 C366.1381,110.6669 447.96,82.39 488.33,75 C535.84,66.3 661.59,55.26 705.67,75 C734.8,88.05 758.28,115.98 773.69,138.86 " fill="none" id="Hud-TMP_Text-1" style="stroke:#181818;stroke-width:1.0;"/><polygon fill="#181818" points="780.79,149.93,779.2918,140.1958,778.0879,145.723,772.5606,144.5192,780.79,149.93" style="stroke:#181818;stroke-width:1.0;"/><line style="stroke:#181818;stroke-width:1.0;" x1="778.0879" x2="773.77" y1="145.723" y2="138.99"/><polygon fill="none" points="354.94,114.98,361.9767,116.5562,366.1381,110.6669,359.1014,109.0908,354.94,114.98" style="stroke:#181818;stroke-width:1.0;"/><text fill="#000000" font-family="sans-serif" font-size="13" lengthAdjust="spacing" textLength="87" x="788.5518" y="139.2522">lockInfoDisplay</text></g><!--MD5=[14ac1ac0081d43f3d33d627a32402db5]
link Hud to PlayerHealth--><g id="link_Hud_PlayerHealth"><path codeLine="13" d="M336.8068,109.7795 C336.8068,109.7795 491.23,55.01 564.5,85 C591.47,96.04 614.72,119.42 630.9,139.45 " fill="none" id="Hud-PlayerHealth" style="stroke:#181818;stroke-width:1.0;"/><polygon fill="#181818" points="638.92,149.83,636.5851,140.2619,635.864,145.8726,630.2533,145.1515,638.92,149.83" style="stroke:#181818;stroke-width:1.0;"/><line style="stroke:#181818;stroke-width:1.0;" x1="635.864" x2="630.98" y1="145.8726" y2="139.54"/><polygon fill="none" points="325.94,114.87,333.0702,115.947,336.8068,109.7795,329.6766,108.7025,325.94,114.87" style="stroke:#181818;stroke-width:1.0;"/><text fill="#000000" font-family="sans-serif" font-size="13" lengthAdjust="spacing" textLength="72" x="553.5745" y="139.1266">playerHealth</text></g><!--MD5=[6613c8649d119a8ccd311fdc33e67736]
link Hud to Camera--><g id="link_Hud_Camera"><path codeLine="14" d="M459.27,174 C459.27,174 466.08,174 468.86,174 " fill="none" id="Hud-Camera" style="stroke:#181818;stroke-width:1.0;"/><polygon fill="#181818" points="481.88,174,472.88,170,476.88,174,472.88,178,481.88,174" style="stroke:#181818;stroke-width:1.0;"/><line style="stroke:#181818;stroke-width:1.0;" x1="476.88" x2="468.88" y1="174" y2="174"/><polygon fill="none" points="447.27,174,453.27,178,459.27,174,453.27,170,447.27,174" style="stroke:#181818;stroke-width:1.0;"/><text fill="#000000" font-family="sans-serif" font-size="13" lengthAdjust="spacing" textLength="62" x="412.7449" y="159.5136">playerCam</text></g><!--MD5=[5aa17ef70d99ea0fa922e6640e5ac189]
@startuml
class Hud {
    - Awake() : void
    - Update() : void
    - UpdateGraphics(controller:MouseFlightController) : void
    + SetReferenceMouseFlight(controller:MouseFlightController) : void
}
MonoBehaviour <|- - Hud
Hud o-> "mouseFlight" MouseFlightController
Hud o-> "boresight" RectTransform
Hud o-> "mousePos" RectTransform
Hud o-> "healthDisplay" TMP_Text
Hud o-> "lockInfoDisplay" TMP_Text
Hud o-> "playerHealth" PlayerHealth
Hud o-> "playerCam" Camera
@enduml

PlantUML version 1.2022.5(Sat Apr 30 12:55:52 CEST 2022)
(GPL source distribution)
Java Runtime: Java(TM) SE Runtime Environment
JVM: Java HotSpot(TM) 64-Bit Server VM
Default Encoding: UTF-8
Language: en
Country: GB
--></g></svg>