<?xml version="1.0" encoding="UTF-8" standalone="no"?><svg xmlns="http://www.w3.org/2000/svg" xmlns:xlink="http://www.w3.org/1999/xlink" contentStyleType="text/css" height="348px" preserveAspectRatio="none" style="width:438px;height:348px;background:#FFFFFF;" version="1.1" viewBox="0 0 438 348" width="438px" zoomAndPan="magnify"><defs/><g><!--MD5=[06bfc91d83c05e38317ef7621aa2c4a2]
class SimpleScript--><g id="elem_SimpleScript"><rect codeLine="1" fill="#F1F1F1" height="118.4375" id="SimpleScript" rx="2.5" ry="2.5" style="stroke:#181818;stroke-width:0.5;" width="424" x="7" y="115"/><ellipse cx="175.75" cy="131" fill="#ADD1B2" rx="11" ry="11" style="stroke:#181818;stroke-width:1.0;"/><path d="M178.5156,126.875 Q178.6719,126.6563 178.8594,126.5469 Q179.0469,126.4375 179.2656,126.4375 Q179.6406,126.4375 179.875,126.7031 Q180.1094,126.9531 180.1094,127.5625 L180.1094,129.0156 Q180.1094,129.625 179.875,129.8906 Q179.6406,130.1563 179.2656,130.1563 Q178.9219,130.1563 178.7188,129.9531 Q178.5156,129.7656 178.4063,129.25 Q178.3594,128.8906 178.1719,128.7031 Q177.8438,128.3281 177.2344,128.1094 Q176.625,127.8906 176,127.8906 Q175.2344,127.8906 174.5938,128.2188 Q173.9688,128.5469 173.4688,129.2969 Q172.9844,130.0469 172.9844,131.0781 L172.9844,132.1719 Q172.9844,133.4063 173.875,134.2344 Q174.7656,135.0469 176.3594,135.0469 Q177.2969,135.0469 177.9531,134.7969 Q178.3438,134.6406 178.7656,134.2031 Q179.0313,133.9375 179.1719,133.8594 Q179.3281,133.7813 179.5313,133.7813 Q179.8594,133.7813 180.1094,134.0469 Q180.375,134.2969 180.375,134.6406 Q180.375,134.9844 180.0313,135.3906 Q179.5313,135.9688 178.7344,136.2969 Q177.6563,136.75 176.3594,136.75 Q174.8438,136.75 173.6406,136.125 Q172.6563,135.625 171.9688,134.5625 Q171.2813,133.4844 171.2813,132.2031 L171.2813,131.0469 Q171.2813,129.7188 171.8906,128.5781 Q172.5156,127.4219 173.6094,126.8125 Q174.7031,126.1875 175.9375,126.1875 Q176.6719,126.1875 177.3125,126.3594 Q177.9688,126.5156 178.5156,126.875 Z " fill="#000000"/><text fill="#000000" font-family="sans-serif" font-size="14" lengthAdjust="spacing" textLength="78" x="196.25" y="136.7285">SimpleScript</text><line style="stroke:#181818;stroke-width:0.5;" x1="8" x2="430" y1="147" y2="147"/><rect fill="none" height="6" style="stroke:#C82930;stroke-width:1.0;" width="6" x="15" y="155"/><text fill="#000000" font-family="sans-serif" font-size="14" lengthAdjust="spacing" textLength="398" x="27" y="165.5332">«const» label : string = "The &lt;#0050FF&gt;count is: &lt;/color&gt;{0:2}"</text><rect fill="none" height="6" style="stroke:#C82930;stroke-width:1.0;" width="6" x="15" y="172.6094"/><text fill="#000000" font-family="sans-serif" font-size="14" lengthAdjust="spacing" textLength="94" x="27" y="183.1426">m_frame : float</text><line style="stroke:#181818;stroke-width:0.5;" x1="8" x2="430" y1="190.2188" y2="190.2188"/><text fill="#000000" font-family="sans-serif" font-size="14" lengthAdjust="spacing" textLength="78" x="13" y="208.752">Start() : void</text><text fill="#000000" font-family="sans-serif" font-size="14" lengthAdjust="spacing" textLength="93" x="13" y="226.3613">Update() : void</text></g><!--MD5=[83b3cf3d23d77c6f1e1b5291a241bc2a]
class MonoBehaviour--><g id="elem_MonoBehaviour"><rect fill="#F1F1F1" height="48" id="MonoBehaviour" rx="2.5" ry="2.5" style="stroke:#181818;stroke-width:0.5;" width="131" x="153.5" y="7"/><ellipse cx="168.5" cy="23" fill="#ADD1B2" rx="11" ry="11" style="stroke:#181818;stroke-width:1.0;"/><path d="M171.2656,18.875 Q171.4219,18.6563 171.6094,18.5469 Q171.7969,18.4375 172.0156,18.4375 Q172.3906,18.4375 172.625,18.7031 Q172.8594,18.9531 172.8594,19.5625 L172.8594,21.0156 Q172.8594,21.625 172.625,21.8906 Q172.3906,22.1563 172.0156,22.1563 Q171.6719,22.1563 171.4688,21.9531 Q171.2656,21.7656 171.1563,21.25 Q171.1094,20.8906 170.9219,20.7031 Q170.5938,20.3281 169.9844,20.1094 Q169.375,19.8906 168.75,19.8906 Q167.9844,19.8906 167.3438,20.2188 Q166.7188,20.5469 166.2188,21.2969 Q165.7344,22.0469 165.7344,23.0781 L165.7344,24.1719 Q165.7344,25.4063 166.625,26.2344 Q167.5156,27.0469 169.1094,27.0469 Q170.0469,27.0469 170.7031,26.7969 Q171.0938,26.6406 171.5156,26.2031 Q171.7813,25.9375 171.9219,25.8594 Q172.0781,25.7813 172.2813,25.7813 Q172.6094,25.7813 172.8594,26.0469 Q173.125,26.2969 173.125,26.6406 Q173.125,26.9844 172.7813,27.3906 Q172.2813,27.9688 171.4844,28.2969 Q170.4063,28.75 169.1094,28.75 Q167.5938,28.75 166.3906,28.125 Q165.4063,27.625 164.7188,26.5625 Q164.0313,25.4844 164.0313,24.2031 L164.0313,23.0469 Q164.0313,21.7188 164.6406,20.5781 Q165.2656,19.4219 166.3594,18.8125 Q167.4531,18.1875 168.6875,18.1875 Q169.4219,18.1875 170.0625,18.3594 Q170.7188,18.5156 171.2656,18.875 Z " fill="#000000"/><text fill="#000000" font-family="sans-serif" font-size="14" lengthAdjust="spacing" textLength="99" x="182.5" y="28.7285">MonoBehaviour</text><line style="stroke:#181818;stroke-width:0.5;" x1="154.5" x2="283.5" y1="39" y2="39"/><line style="stroke:#181818;stroke-width:0.5;" x1="154.5" x2="283.5" y1="47" y2="47"/></g><!--MD5=[02f215d6db5b7f34e36b05d8f35ff3a4]
class TextMeshPro--><g id="elem_TextMeshPro"><rect fill="#F1F1F1" height="48" id="TextMeshPro" rx="2.5" ry="2.5" style="stroke:#181818;stroke-width:0.5;" width="115" x="161.5" y="293"/><ellipse cx="176.5" cy="309" fill="#ADD1B2" rx="11" ry="11" style="stroke:#181818;stroke-width:1.0;"/><path d="M179.2656,304.875 Q179.4219,304.6563 179.6094,304.5469 Q179.7969,304.4375 180.0156,304.4375 Q180.3906,304.4375 180.625,304.7031 Q180.8594,304.9531 180.8594,305.5625 L180.8594,307.0156 Q180.8594,307.625 180.625,307.8906 Q180.3906,308.1563 180.0156,308.1563 Q179.6719,308.1563 179.4688,307.9531 Q179.2656,307.7656 179.1563,307.25 Q179.1094,306.8906 178.9219,306.7031 Q178.5938,306.3281 177.9844,306.1094 Q177.375,305.8906 176.75,305.8906 Q175.9844,305.8906 175.3438,306.2188 Q174.7188,306.5469 174.2188,307.2969 Q173.7344,308.0469 173.7344,309.0781 L173.7344,310.1719 Q173.7344,311.4063 174.625,312.2344 Q175.5156,313.0469 177.1094,313.0469 Q178.0469,313.0469 178.7031,312.7969 Q179.0938,312.6406 179.5156,312.2031 Q179.7813,311.9375 179.9219,311.8594 Q180.0781,311.7813 180.2813,311.7813 Q180.6094,311.7813 180.8594,312.0469 Q181.125,312.2969 181.125,312.6406 Q181.125,312.9844 180.7813,313.3906 Q180.2813,313.9688 179.4844,314.2969 Q178.4063,314.75 177.1094,314.75 Q175.5938,314.75 174.3906,314.125 Q173.4063,313.625 172.7188,312.5625 Q172.0313,311.4844 172.0313,310.2031 L172.0313,309.0469 Q172.0313,307.7188 172.6406,306.5781 Q173.2656,305.4219 174.3594,304.8125 Q175.4531,304.1875 176.6875,304.1875 Q177.4219,304.1875 178.0625,304.3594 Q178.7188,304.5156 179.2656,304.875 Z " fill="#000000"/><text fill="#000000" font-family="sans-serif" font-size="14" lengthAdjust="spacing" textLength="83" x="190.5" y="314.7285">TextMeshPro</text><line style="stroke:#181818;stroke-width:0.5;" x1="162.5" x2="275.5" y1="325" y2="325"/><line style="stroke:#181818;stroke-width:0.5;" x1="162.5" x2="275.5" y1="333" y2="333"/></g><!--MD5=[fa88a1fee1815e3b2c64eacc916de297]
reverse link MonoBehaviour to SimpleScript--><g id="link_MonoBehaviour_SimpleScript"><path codeLine="7" d="M219,75.33 C219,87.86 219,101.73 219,114.99 " fill="none" id="MonoBehaviour-backto-SimpleScript" style="stroke:#181818;stroke-width:1.0;"/><polygon fill="none" points="212,75.28,219,55.28,226,75.28,212,75.28" style="stroke:#181818;stroke-width:1.0;"/></g><!--MD5=[7e7bc0cb7c0acde42e46f09b53eedb9a]
link SimpleScript to TextMeshPro--><g id="link_SimpleScript_TextMeshPro"><path codeLine="8" d="M219,233.16 C219,251.97 219,272 219,287.64 " fill="none" id="SimpleScript-to-TextMeshPro" style="stroke:#181818;stroke-width:1.0;"/><polygon fill="#181818" points="219,292.77,223,283.77,219,287.77,215,283.77,219,292.77" style="stroke:#181818;stroke-width:1.0;"/><text fill="#000000" font-family="sans-serif" font-size="13" lengthAdjust="spacing" textLength="92" x="115.2125" y="282.0512">m_textMeshPro</text></g><!--MD5=[58c1d16892b495f51742743c38cfdf73]
@startuml
class SimpleScript {
    - <<const>> label : string = "The <#0050FF>count is: </color>{0:2&#125;"
    - m_frame : float
    Start() : void
    Update() : void
}
MonoBehaviour <|- - SimpleScript
SimpleScript - -> "m_textMeshPro" TextMeshPro
@enduml

PlantUML version 1.2022.5(Sat Apr 30 12:55:52 CEST 2022)
(GPL source distribution)
Java Runtime: Java(TM) SE Runtime Environment
JVM: Java HotSpot(TM) 64-Bit Server VM
Default Encoding: UTF-8
Language: en
Country: GB
--></g></svg>